<?xml version="1.0" encoding="UTF-8" standalone="no"?>
<!-- Created with Inkscape (http://www.inkscape.org/) -->
<svg
   xmlns:dc="http://purl.org/dc/elements/1.1/"
   xmlns:cc="http://web.resource.org/cc/"
   xmlns:rdf="http://www.w3.org/1999/02/22-rdf-syntax-ns#"
   xmlns:svg="http://www.w3.org/2000/svg"
   xmlns="http://www.w3.org/2000/svg"
   xmlns:xlink="http://www.w3.org/1999/xlink"
   xmlns:sodipodi="http://sodipodi.sourceforge.net/DTD/sodipodi-0.dtd"
   xmlns:inkscape="http://www.inkscape.org/namespaces/inkscape"
   id="svg2"
   sodipodi:version="0.32"
   inkscape:version="0.44"
   width="20"
   height="20"
   version="1.0"
   sodipodi:docbase="/home/kde4/Developpements/C++/ksirk/ksirk/skins/default/Images"
   sodipodi:docname="attackThree.svg">
  <metadata
     id="metadata7">
    <rdf:RDF>
      <cc:Work
         rdf:about="">
        <dc:format>image/svg+xml</dc:format>
        <dc:type
           rdf:resource="http://purl.org/dc/dcmitype/StillImage" />
      </cc:Work>
    </rdf:RDF>
  </metadata>
  <defs
     id="defs5" />
  <sodipodi:namedview
     inkscape:window-height="582"
     inkscape:window-width="928"
     inkscape:pageshadow="2"
     inkscape:pageopacity="0.0"
     guidetolerance="10.0"
     gridtolerance="10.0"
     objecttolerance="10.0"
     borderopacity="1.0"
     bordercolor="#666666"
     pagecolor="#ffffff"
     id="base"
     inkscape:zoom="18.95"
     inkscape:cx="10"
     inkscape:cy="9.9736148"
     inkscape:window-x="666"
     inkscape:window-y="0"
     inkscape:current-layer="svg2" />
  <g
     id="g1891">
    <path
       style="fill:#a9c2cf"
       d="M 9.8724447,14.25 C 8.6285741,12.663944 8.6639444,12.628574 10.25,13.872445 C 11.915748,15.178814 12.445479,16 11.622445,16 C 11.414789,16 10.627289,15.2125 9.8724447,14.25 z M 14.979944,13.475834 C 14.284224,12.637543 13.908659,11.758008 14.145354,11.521312 C 14.38205,11.284617 15.124988,11.970492 15.796329,13.045478 C 17.248142,15.370201 16.763957,15.625438 14.979944,13.475834 z M 4.0789474,11.583333 C 4.0355263,10.529167 4.271875,9.9385417 4.6041667,10.270833 C 4.9364583,10.603125 4.9719846,11.465625 4.683114,12.1875 C 4.3638877,12.985233 4.1269313,12.748276 4.0789474,11.583333 z M 17,12.622445 C 17,12.414789 17.7875,11.627289 18.75,10.872445 C 20.336056,9.6285741 20.371426,9.6639444 19.127555,11.25 C 17.821186,12.915748 17,13.445479 17,12.622445 z "
       id="path1907" />
    <path
       style="fill:#a5b8c6"
       d="M 1.3875946,17.468792 C 0.47541334,16.076627 -0.031911837,14.698579 0.2602053,14.406461 C 0.55232244,14.114344 1.4787886,15.253388 2.319019,16.93767 C 4.1712313,20.650517 3.6624393,20.940644 1.3875946,17.468792 z M 5,19.031385 C 5,18.498646 5.675,18.321791 6.5,18.638374 C 8.42067,19.375404 8.42067,20 6.5,20 C 5.675,20 5,19.564123 5,19.031385 z M 4.5642929,15.293128 C 4.0216083,13.86793 4.1364719,13.753066 5.1240877,14.733333 C 5.8075061,15.411667 6.114759,16.218574 5.8068719,16.526461 C 5.4989848,16.834349 4.9398243,16.279349 4.5642929,15.293128 z M 2.7166893,11.97538 C 3.1821335,10.195518 2.9772395,9.7947564 1.8274063,10.235989 C 0.93049639,10.580165 0.33333333,10.236791 0.33333333,9.3768814 C 0.33333333,7.5844303 2.01741,8.080495 3.4060808,10.281995 C 4.1538319,11.467427 4.1186246,12.281375 3.2834732,13.116527 C 2.3880411,14.011959 2.2544492,13.742989 2.7166893,11.97538 z M 10.61237,9.1818182 C 10.334255,8.7318182 11.408688,8.3636364 13,8.3636364 C 14.591312,8.3636364 15.665745,8.7318182 15.38763,9.1818182 C 14.732188,10.242345 11.267812,10.242345 10.61237,9.1818182 z M 18.542705,9.0690983 C 18.226274,8.5571024 18.424717,7.8555447 18.983688,7.5100813 C 19.54266,7.1646179 20,7.5835237 20,8.440983 C 20,10.197509 19.399945,10.456142 18.542705,9.0690983 z M 9,6 C 9,4.718615 9.7080605,4.718615 10.5,6 C 10.839919,6.55 10.641476,7 10.059017,7 C 9.4765576,7 9,6.55 9,6 z M 18,2 C 18,0.71861503 18.708061,0.71861503 19.5,2 C 19.839919,2.55 19.641476,3 19.059017,3 C 18.476558,3 18,2.55 18,2 z "
       id="path1905" />
    <path
       style="fill:#99b7c6"
       d="M 13.099177,17.75 C 12.639171,16.5125 12.505144,14.86368 12.80134,14.085955 C 13.185298,13.077792 12.932304,12.917614 11.919939,13.527914 C 10.743924,14.236868 10.751399,14.074427 11.963449,12.582305 C 12.846749,11.494899 13.574353,11.223059 13.798859,11.896577 C 14.003438,12.510313 14.577231,12.761285 15.073956,12.454293 C 15.57068,12.1473 15.709101,12.594496 15.381557,13.448062 C 15.054013,14.301628 14.35761,15 13.833994,15 C 13.310379,15 13.189774,15.498043 13.565983,16.106763 C 14.047016,16.88509 14.446088,16.896248 14.910779,16.144362 C 15.963938,14.440316 20,16.004445 20,18.116631 C 20,21.040389 14.207898,20.732663 13.099177,17.75 z M 7,17.833333 C 7,16.753329 8.729515,16.753329 9.3969943,17.833333 C 9.6802599,18.291667 9.2568176,18.666667 8.4560113,18.666667 C 7.6552051,18.666667 7,18.291667 7,17.833333 z M 17.923489,14.75 C 17.342479,12.851554 17.320927,10.91969 17.876925,10.576064 C 18.261261,10.338532 18.66614,11.236745 18.776657,12.572093 C 18.887174,13.907442 18.757638,15 18.488798,15 C 18.219959,15 17.96557,14.8875 17.923489,14.75 z M 0,13 C 0,11.718615 0.70806053,11.718615 1.5,13 C 1.8399187,13.55 1.6414763,14 1.059017,14 C 0.47655765,14 0,13.55 0,13 z M 6.6317033e-17,6.4166667 C 1.027914e-16,5.5458333 0.534375,5.0114583 1.1875,5.2291667 C 3.0417231,5.847241 3.3492601,8 1.5833333,8 C 0.7125,8 2.9842665e-17,7.2875 6.6317033e-17,6.4166667 z M 8.0153128,3.190983 C 8.0068907,2.4710237 7.55,2.1600813 7,2.5 C 6.45,2.8399187 6,2.6414763 6,2.059017 C 6,0.79280168 3.7925464,1.0904607 2.7916408,2.4916408 C 2.3470174,3.1140745 1.6023787,2.9663738 0.79164079,2.0949364 C -0.17357992,1.0574502 -0.18410327,0.88493927 0.75,1.4123126 C 1.4375,1.8004594 2,1.6168203 2,1.0042258 C 2,0.29936113 3.7440002,0.0023241233 6.75,0.19520881 C 9.3625,0.36284396 11.3875,0.8375 11.25,1.25 C 11.1125,1.6625 10.6625,2.0429712 10.25,2.0954915 C 9.8375,2.1480118 9.1693907,2.7105118 8.7653128,3.3454915 C 8.23807,4.1740158 8.0263019,4.1303892 8.0153128,3.190983 z "
       id="path1903" />
    <path
       style="fill:#a4b4bb"
       d="M 0.27083333,19.395833 C 0.603125,19.063542 1.465625,19.028015 2.1875,19.316886 C 2.9852327,19.636112 2.7482763,19.873069 1.5833333,19.921053 C 0.52916667,19.964474 -0.061458333,19.728125 0.27083333,19.395833 z M 8.5588704,12.531803 C 9.6264917,11.724295 10.95,11.063607 11.5,11.063607 C 12.05,11.063607 11.626492,11.724295 10.55887,12.531803 C 9.4912491,13.339312 8.1677407,14 7.6177407,14 C 7.0677407,14 7.4912491,13.339312 8.5588704,12.531803 z M 3,9.059017 C 3,8.5414763 3.45,7.8399187 4,7.5 C 4.55,7.1600813 5,7.5835237 5,8.440983 C 5,9.2984424 4.55,10 4,10 C 3.45,10 3,9.5765576 3,9.059017 z M 7.3333333,8.5540135 C 7.3333333,7.502346 7.7974261,7.356402 9.0351838,8.0188298 C 9.9712015,8.5197713 11.093348,8.6079652 11.528842,8.2148162 C 11.964337,7.8216673 11.996947,8.0625 11.601308,8.75 C 10.607893,10.476257 7.3333333,10.325888 7.3333333,8.5540135 z M 4.6361696,3.4942564 C 4.3207996,2.6724154 4.4720888,2 4.9723678,2 C 6.3279217,2 7.1696822,3.7770966 6.1210967,4.4251581 C 5.6197568,4.7350032 4.9515396,4.3160975 4.6361696,3.4942564 z M 17,4.3923503 C 17,3.5647227 18.941729,3.0966986 19.386913,3.8170214 C 19.675723,4.2843263 19.256818,4.6666667 18.456011,4.6666667 C 17.655205,4.6666667 17,4.5432243 17,4.3923503 z M 12,1.5351838 C 12,0.66666667 12.868517,0 14,0 C 16.538879,0 16.538879,0.64123308 14,2 C 12.403701,2.8543134 12,2.76049 12,1.5351838 z "
       id="path1901" />
    <path
       style="fill:#98b5bb"
       d="M 2,15 C 2,14.45 2.45,14 3,14 C 3.55,14 4,14.45 4,15 C 4,15.55 3.55,16 3,16 C 2.45,16 2,15.55 2,15 z M 14.6237,11.200151 C 14.351817,10.760235 15.112759,9.7879397 16.314683,9.039496 C 18.236368,7.8428539 18.35025,7.8599673 17.258676,9.1813539 C 16.575948,10.007819 16.313448,10.980114 16.675343,11.342009 C 17.037238,11.703904 16.834891,12 16.225684,12 C 15.616476,12 14.895584,11.640068 14.6237,11.200151 z M 1.5055483,5.0061308 C -0.051421867,3.2856981 -0.086151893,3 1.2616791,3 C 2.1260889,3 3.060307,2.4375 3.3377193,1.75 C 3.6390359,1.0032588 3.87389,1.2045624 3.9210526,2.25 C 3.9644737,3.2125 3.4375,4.0068907 2.75,4.0153128 C 1.9034844,4.0256828 1.9748332,4.3309194 2.9710397,4.9609398 C 3.7801115,5.4726126 4.1898526,6.1434807 3.8815755,6.4517578 C 3.5732984,6.7600349 2.5040862,6.1095027 1.5055483,5.0061308 z "
       id="path1899" />
    <path
       style="fill:#98acb7"
       d="M 0.39869166,17.75 C 0.0030533857,17.0625 0.047591565,16.833596 0.4976654,17.241324 C 0.94773923,17.649052 2.0323856,17.424052 2.9079907,16.741324 C 4.3165774,15.643019 4.3418744,15.701625 3.1275553,17.25 C 1.4917824,19.335769 1.3284792,19.36569 0.39869166,17.75 z M 10,18.031385 C 10,17.498646 10.675,17.321791 11.5,17.638374 C 13.42067,18.375404 13.42067,19 11.5,19 C 10.675,19 10,18.564123 10,18.031385 z "
       id="path1897" />
    <path
       style="fill:#000613"
       d="M 5.905555,18.94113 C 5.4016528,16.587524 5.6720591,9.2968635 6.25,9.6542499 C 6.6625,9.9093312 7,10.938992 7,11.942386 C 7,12.945779 7.9,14.002093 9,14.289749 C 10.1,14.577405 11,15.331447 11,15.965397 C 11,16.599348 10.481733,16.797728 9.8482961,16.406242 C 9.214859,16.014756 8.089859,16.524207 7.3482961,17.538354 C 6.6067332,18.552502 5.9574998,19.183751 5.905555,18.94113 z M 8.1644975,12 C 8.4338547,11.175 9.9695343,10.419298 11.577119,10.320661 C 13.413476,10.207988 13.756539,10.340922 12.5,10.67827 C 11.4,10.973591 9.8643204,11.729293 9.0873786,12.357608 C 7.9771642,13.255443 7.7795984,13.178888 8.1644975,12 z M 13.5,8 C 10.536403,7.2458925 10.54622,7.2351939 14.309017,7.1183148 C 16.619451,7.0465486 17.874881,7.3934303 17.5,8 C 17.160081,8.55 16.796024,8.9467583 16.690983,8.8816852 C 16.585942,8.8166121 15.15,8.4198537 13.5,8 z M 12.270833,5.3958333 C 12.603125,5.0635417 13.465625,5.0280154 14.1875,5.316886 C 14.985233,5.6361123 14.748276,5.8730687 13.583333,5.9210526 C 12.529167,5.9644737 11.938542,5.728125 12.270833,5.3958333 z M 17.232073,4 C 15.63498,1.4426481 16.185628,1.4426481 18.5,4 C 19.495486,5.1 19.898477,6 19.395534,6 C 18.892592,6 17.919034,5.1 17.232073,4 z "
       id="path1895" />
    <path
       style="fill:#010309"
       d="M 5.365381,10.081957 C 5.4427928,7.5413879 6.0311951,5.4874334 6.75,5.2486234 C 7.4375,5.0202138 8,5.3208333 8,5.9166667 C 8,6.5125 7.55,7 7,7 C 6.45,7 6,7.4765576 6,8.059017 C 6,8.6414763 6.5625,8.780095 7.25,8.3670586 C 8.2120985,7.7890487 8.236883,7.9481968 7.3576084,9.0580416 C 6.7292931,9.8511187 5.9937145,11.4 5.7229894,12.5 C 5.4522643,13.6 5.2913405,12.511881 5.365381,10.081957 z M 12.730968,3.3440633 C 13.408001,3.0701402 14.758001,3.0534659 15.730968,3.3070093 C 16.703936,3.5605527 16.15,3.7846716 14.5,3.8050513 C 12.85,3.825431 12.053936,3.6179864 12.730968,3.3440633 z "
       id="path1893" />
  </g>
</svg>
