<?xml version="1.0" encoding="UTF-8" standalone="no"?>
<!-- Created with Inkscape (http://www.inkscape.org/) -->
<svg
   xmlns:dc="http://purl.org/dc/elements/1.1/"
   xmlns:cc="http://web.resource.org/cc/"
   xmlns:rdf="http://www.w3.org/1999/02/22-rdf-syntax-ns#"
   xmlns:svg="http://www.w3.org/2000/svg"
   xmlns="http://www.w3.org/2000/svg"
   xmlns:xlink="http://www.w3.org/1999/xlink"
   xmlns:sodipodi="http://sodipodi.sourceforge.net/DTD/sodipodi-0.dtd"
   xmlns:inkscape="http://www.inkscape.org/namespaces/inkscape"
   id="svg2"
   sodipodi:version="0.32"
   inkscape:version="0.44"
   width="20"
   height="20"
   version="1.0"
   sodipodi:docbase="/home/kde4/Developpements/C++/ksirk/ksirk/skins/default/Images"
   sodipodi:docname="attackTwo.svg">
  <metadata
     id="metadata7">
    <rdf:RDF>
      <cc:Work
         rdf:about="">
        <dc:format>image/svg+xml</dc:format>
        <dc:type
           rdf:resource="http://purl.org/dc/dcmitype/StillImage" />
      </cc:Work>
    </rdf:RDF>
  </metadata>
  <defs
     id="defs5" />
  <sodipodi:namedview
     inkscape:window-height="582"
     inkscape:window-width="928"
     inkscape:pageshadow="2"
     inkscape:pageopacity="0.0"
     guidetolerance="10.0"
     gridtolerance="10.0"
     objecttolerance="10.0"
     borderopacity="1.0"
     bordercolor="#666666"
     pagecolor="#ffffff"
     id="base"
     inkscape:zoom="18.95"
     inkscape:cx="10"
     inkscape:cy="9.9736148"
     inkscape:window-x="666"
     inkscape:window-y="0"
     inkscape:current-layer="svg2" />
  <g
     id="g1891">
    <path
       style="fill:#a7c1ca"
       d="M 13.437313,15.229354 C 13.77863,14.888037 14.761098,14.505569 15.620576,14.379424 C 16.480054,14.25328 16.904004,14.42933 16.562687,14.770646 C 16.22137,15.111963 15.238902,15.494431 14.379424,15.620576 C 13.519946,15.74672 13.095996,15.57067 13.437313,15.229354 z M 17.73891,13.599845 C 16.082909,12.343052 16.079445,12.180851 17.680869,10.881648 C 18.932525,9.8662053 19.177695,9.8429224 18.605869,10.793805 C 18.177942,11.505398 18.371661,12.742898 19.036355,13.543805 C 20.526389,15.339186 20.057425,15.359442 17.73891,13.599845 z M 4.0789474,11.583333 C 4.0355263,10.529167 4.271875,9.9385417 4.6041667,10.270833 C 4.9364583,10.603125 4.9719846,11.465625 4.683114,12.1875 C 4.3638877,12.985233 4.1269313,12.748276 4.0789474,11.583333 z "
       id="path1907" />
    <path
       style="fill:#a5b8c6"
       d="M 1.3875946,17.468792 C 0.47541334,16.076627 -0.031911837,14.698579 0.2602053,14.406461 C 0.55232244,14.114344 1.4787886,15.253388 2.319019,16.93767 C 4.1712313,20.650517 3.6624393,20.940644 1.3875946,17.468792 z M 5,19.166667 C 5,18.708333 5.675,18.333333 6.5,18.333333 C 7.325,18.333333 8,18.708333 8,19.166667 C 8,19.625 7.325,20 6.5,20 C 5.675,20 5,19.625 5,19.166667 z M 4.5642929,15.293128 C 4.0216083,13.86793 4.1364719,13.753066 5.1240877,14.733333 C 5.8075061,15.411667 6.114759,16.218574 5.8068719,16.526461 C 5.4989848,16.834349 4.9398243,16.279349 4.5642929,15.293128 z M 14.542705,14.069098 C 14.226274,13.557102 14.349717,12.901897 14.817021,12.613087 C 15.284326,12.324277 15.666667,12.743182 15.666667,13.543989 C 15.666667,15.230156 15.35133,15.37748 14.542705,14.069098 z M 0.20669435,8.2267481 L -0.016360472,5.5316297 L 1.6198589,7.8676601 C 2.922145,9.7269339 3.4495729,9.9277946 4.2041702,8.8518453 C 4.9877644,7.7345504 5.0865155,7.7443644 4.7733279,8.9084092 C 4.5649142,9.6830343 3.5023488,10.452954 2.4120715,10.619342 C 0.89214682,10.8513 0.37771927,10.293202 0.20669435,8.2267481 z M 19,9.940983 C 19,9.3585237 18.55,9.1600813 18,9.5 C 16.559215,10.390454 16.768364,9.4371303 18.291036,8.1734248 C 19.267026,7.3634247 19.617898,7.5775704 19.728887,9.0509801 C 19.809635,10.122941 19.678669,11 19.437851,11 C 19.197033,11 19,10.523442 19,9.940983 z M 11.565634,9.1061987 C 11.261815,8.614608 12.092075,8.277108 13.410658,8.3561987 C 14.729241,8.4352894 15.599706,8.8375 15.345024,9.25 C 14.705218,10.286273 12.236917,10.192357 11.565634,9.1061987 z M 15.270833,6.3958333 C 15.603125,6.0635417 16.465625,6.0280154 17.1875,6.316886 C 17.985233,6.6361123 17.748276,6.8730687 16.583333,6.9210526 C 15.529167,6.9644737 14.938542,6.728125 15.270833,6.3958333 z M 11.524864,4.0402316 C 10.676798,2.6680309 11.427548,1.6378775 12.905454,2.1458333 C 13.510714,2.3538608 13.588081,3.0598389 13.092954,3.8567627 C 12.467944,4.8627366 12.062517,4.9101722 11.524864,4.0402316 z M 5.57185,3.0948167 C 6.4549081,2.2117586 9,2.1609171 9,3.026335 C 9,3.493487 8.1193075,3.8093617 7.0429056,3.7282788 C 5.9665038,3.6471959 5.3045287,3.362138 5.57185,3.0948167 z "
       id="path1905" />
    <path
       style="fill:#99b7c5"
       d="M 13,18.360243 C 13,17.458376 12.2125,16.107272 11.25,15.357789 C 9.6472424,14.109748 9.6438978,14.045087 11.210249,14.589281 C 12.532493,15.048666 12.829107,14.708917 12.517667,13.091735 C 12.044668,10.635652 13.229168,10.366278 15.018999,12.522892 C 16.061306,13.778796 16.024334,13.946568 14.80811,13.479859 C 13.901077,13.131798 13.333333,13.507954 13.333333,14.456967 C 13.333333,15.539071 14.329054,16 16.666667,16 C 19.333333,16 20,16.4 20,18 C 20,19.619048 19.333333,20 16.5,20 C 13.922975,20 13,19.567584 13,18.360243 z M 16,17.940983 C 16,17.358524 15.55,17.160081 15,17.5 C 13.718615,18.291939 13.718615,19 15,19 C 15.55,19 16,18.523442 16,17.940983 z M 8,18 C 7.0987081,17.41754 6.9753674,17.024514 7.690983,17.015313 C 8.3460237,17.006891 9.1600813,17.45 9.5,18 C 10.267305,19.241525 9.9211232,19.241525 8,18 z M 0,13 C 0,11.718615 0.70806053,11.718615 1.5,13 C 1.8399187,13.55 1.6414763,14 1.059017,14 C 0.47655765,14 0,13.55 0,13 z M 0.4,3.5645898 C 0.4,2.2251142 0.76,1.3516718 1.2,1.6236068 C 1.64,1.8955418 2,1.6414763 2,1.059017 C 2,0.47655765 2.375,0 2.8333333,0 C 4.1193357,0 3.8186541,3.3242031 2.4047619,4.7380952 C 0.6498826,6.4929745 0.4,6.3467035 0.4,3.5645898 z M 9,2.5313848 C 9,1.6367917 8.4137108,1.2877499 7.5,1.6383736 C 6.675,1.9549558 6,1.7158326 6,1.1069888 C 6,-0.27233918 10.657655,-0.36294227 11.5,1 C 11.839919,1.55 11.614919,2 11,2 C 10.385081,2 10.160081,2.45 10.5,3 C 10.839919,3.55 10.641476,4 10.059017,4 C 9.4765576,4 9,3.3391232 9,2.5313848 z M 14.542705,3.0690983 C 14.226274,2.5571024 14.424717,1.8555447 14.983688,1.5100813 C 15.54266,1.1646179 16,1.5835237 16,2.440983 C 16,4.1975091 15.399945,4.4561416 14.542705,3.0690983 z "
       id="path1903" />
    <path
       style="fill:#a4b6bb"
       d="M 0.27083333,19.395833 C 0.603125,19.063542 1.465625,19.028015 2.1875,19.316886 C 2.9852327,19.636112 2.7482763,19.873069 1.5833333,19.921053 C 0.52916667,19.964474 -0.061458333,19.728125 0.27083333,19.395833 z M 3.6069888,15.418213 C 2.8143932,13.352741 2.8406797,13 3.7871957,13 C 4.2201533,13 4.6421863,13.9 4.7250468,15 C 4.9061246,17.403867 4.4363815,17.579575 3.6069888,15.418213 z M 8.5478419,12.588676 C 9.6093976,11.812447 10.868449,11.418697 11.345734,11.713676 C 12.393329,12.361124 10.074523,13.96327 8.0588704,13.984687 C 7.0409024,13.995504 7.1844801,13.58559 8.5478419,12.588676 z M 2.6613437,9.25 C 2.2042371,8.5168725 2.3680942,8 3.0576144,8 C 3.7594012,8 4.0120297,7.1540035 3.6843845,5.9010865 C 3.3825015,4.746684 3.4011132,4.0677799 3.7257439,4.3924105 C 4.0503745,4.7170412 4.9198856,4.4814522 5.6579907,3.8688793 C 6.6451082,3.0496446 7,3.0519389 7,3.8775553 C 7,4.4948999 6.6368688,5 6.1930417,5 C 5.7492147,5 4.948377,6.2375 4.4134024,7.75 C 3.7442773,9.6417756 3.197492,10.109898 2.6613437,9.25 z M 7.5260577,7.8646932 C 8.0945559,4.9127195 8.8234779,4.4070233 10.266667,5.9633711 C 11.245801,7.0192782 11.242366,7.1479544 10.25,6.5876874 C 9.4742551,6.1497196 9,6.4958547 9,7.5 C 9,8.3899187 9.4189058,8.859136 9.9309017,8.5427051 C 10.442898,8.2262742 11.144455,8.4247166 11.489919,8.9836881 C 11.851446,9.5686511 11.056291,10 9.6164346,10 C 7.6002744,10 7.1946336,9.5856404 7.5260577,7.8646932 z M 19.078947,4.5833333 C 19.035526,3.5291667 19.271875,2.9385417 19.604167,3.2708333 C 19.936458,3.603125 19.971985,4.465625 19.683114,5.1875 C 19.363888,5.9852327 19.126931,5.7482763 19.078947,4.5833333 z "
       id="path1901" />
    <path
       style="fill:#98b5bb"
       d="M 18.542705,13.069098 C 18.226274,12.557102 18.349717,11.901897 18.817021,11.613087 C 19.284326,11.324277 19.666667,11.743182 19.666667,12.543989 C 19.666667,14.230156 19.35133,14.37748 18.542705,13.069098 z M 2,6.559017 C 2,5.7015576 2.45,5 3,5 C 4.2939074,5 4.2939074,6.7003212 3,7.5 C 2.45,7.8399187 2,7.4164763 2,6.559017 z M 3.6938532,2.3605198 C 2.9468259,1.6134925 3.7660379,3.4969105e-16 4.8923503,1.4246417e-16 C 5.3182243,6.4108874e-17 5.6666667,0.675 5.6666667,1.5 C 5.6666667,3.0674158 4.7852246,3.4518913 3.6938532,2.3605198 z M 16,2 C 16,0.71861503 16.708061,0.71861503 17.5,2 C 17.839919,2.55 17.641476,3 17.059017,3 C 16.476558,3 16,2.55 16,2 z "
       id="path1899" />
    <path
       style="fill:#97acb8"
       d="M 1,18.622445 C 1,18.414789 1.7875,17.627289 2.75,16.872445 C 4.3360556,15.628574 4.3714259,15.663944 3.1275553,17.25 C 1.8211855,18.915748 1,19.445479 1,18.622445 z M 10,18.031385 C 10,17.498646 10.675,17.321791 11.5,17.638374 C 13.42067,18.375404 13.42067,19 11.5,19 C 10.675,19 10,18.564123 10,18.031385 z M 16.333333,14.456011 C 16.333333,13.655205 16.708333,13 17.166667,13 C 18.246671,13 18.246671,14.729515 17.166667,15.396994 C 16.708333,15.68026 16.333333,15.256818 16.333333,14.456011 z "
       id="path1897" />
    <path
       style="fill:#010512"
       d="M 5.905555,18.94113 C 5.4016528,16.587524 5.6720591,9.2968635 6.25,9.6542499 C 6.6625,9.9093312 7,10.938992 7,11.942386 C 7,12.945779 7.9,14.002093 9,14.289749 C 10.1,14.577405 11,15.331447 11,15.965397 C 11,16.599348 10.481733,16.797728 9.8482961,16.406242 C 9.214859,16.014756 8.089859,16.524207 7.3482961,17.538354 C 6.6067332,18.552502 5.9574998,19.183751 5.905555,18.94113 z M 8.1644975,12 C 8.4338547,11.175 9.9695343,10.419298 11.577119,10.320661 C 13.413476,10.207988 13.756539,10.340922 12.5,10.67827 C 11.4,10.973591 9.8643204,11.729293 9.0873786,12.357608 C 7.9771642,13.255443 7.7795984,13.178888 8.1644975,12 z M 16.457938,9.0680584 C 16.774722,8.5554905 16.01378,7.9423804 14.766955,7.7055914 C 13.194444,7.4069503 13.342416,7.333047 15.25,7.4643402 C 16.7625,7.5684409 18,7.2815511 18,6.8268071 C 18,6.3720632 16.5375,5.9325756 14.75,5.8501679 C 11.700562,5.7095822 11.670753,5.6745265 14.266955,5.2821095 C 16.049489,5.0126787 16.788832,4.4433751 16.34506,3.6819416 C 15.966193,3.0318737 16.637207,3.3605413 17.836201,4.4123139 C 19.879954,6.2051192 19.912258,6.4394726 18.353108,8.1623139 C 16.593302,10.106877 15.490039,10.634152 16.457938,9.0680584 z "
       id="path1895" />
    <path
       style="fill:#020208"
       d="M 5.365381,10.081957 C 5.4427928,7.5413879 6.0311951,5.4874334 6.75,5.2486234 C 7.4375,5.0202138 8,5.3208333 8,5.9166667 C 8,6.5125 7.55,7 7,7 C 6.45,7 6,7.4765576 6,8.059017 C 6,8.6414763 6.5625,8.780095 7.25,8.3670586 C 8.2120985,7.7890487 8.236883,7.9481968 7.3576084,9.0580416 C 6.7292931,9.8511187 5.9937145,11.4 5.7229894,12.5 C 5.4522643,13.6 5.2913405,12.511881 5.365381,10.081957 z "
       id="path1893" />
  </g>
</svg>
