<?xml version="1.0" encoding="UTF-8" standalone="no"?>
<!-- Created with Inkscape (http://www.inkscape.org/) -->
<svg
   xmlns:dc="http://purl.org/dc/elements/1.1/"
   xmlns:cc="http://web.resource.org/cc/"
   xmlns:rdf="http://www.w3.org/1999/02/22-rdf-syntax-ns#"
   xmlns:svg="http://www.w3.org/2000/svg"
   xmlns="http://www.w3.org/2000/svg"
   xmlns:xlink="http://www.w3.org/1999/xlink"
   xmlns:sodipodi="http://sodipodi.sourceforge.net/DTD/sodipodi-0.dtd"
   xmlns:inkscape="http://www.inkscape.org/namespaces/inkscape"
   id="svg2"
   sodipodi:version="0.32"
   inkscape:version="0.44"
   width="20"
   height="20"
   version="1.0"
   sodipodi:docbase="/home/kde4/Developpements/C++/ksirk/ksirk/skins/default/Images"
   sodipodi:docname="defendTwo.svg">
  <metadata
     id="metadata7">
    <rdf:RDF>
      <cc:Work
         rdf:about="">
        <dc:format>image/svg+xml</dc:format>
        <dc:type
           rdf:resource="http://purl.org/dc/dcmitype/StillImage" />
      </cc:Work>
    </rdf:RDF>
  </metadata>
  <defs
     id="defs5" />
  <sodipodi:namedview
     inkscape:window-height="582"
     inkscape:window-width="928"
     inkscape:pageshadow="2"
     inkscape:pageopacity="0.0"
     guidetolerance="10.0"
     gridtolerance="10.0"
     objecttolerance="10.0"
     borderopacity="1.0"
     bordercolor="#666666"
     pagecolor="#ffffff"
     id="base"
     inkscape:zoom="18.95"
     inkscape:cx="10"
     inkscape:cy="9.9736148"
     inkscape:window-x="666"
     inkscape:window-y="0"
     inkscape:current-layer="svg2" />
  <g
     id="g1891">
    <path
       style="fill:#a7c3c8"
       d="M 17.542705,19.069098 C 17.226274,18.557102 17.349717,17.901897 17.817021,17.613087 C 18.284326,17.324277 18.666667,17.743182 18.666667,18.543989 C 18.666667,20.230156 18.35133,20.37748 17.542705,19.069098 z M 3.6077798,15.174391 C 3.3689277,14.787921 4.5078603,14.417186 6.138741,14.350536 C 9.4253805,14.21622 9.4351607,14.838448 6.1563349,15.469893 C 4.9934817,15.693838 3.8466319,15.560862 3.6077798,15.174391 z M 0.8360899,13.793805 C 1.5805355,12.843143 1.8276462,11.51469 1.3941315,10.793805 C 0.8297513,9.8553056 1.0873664,9.8824095 2.3322075,10.892501 C 3.276076,11.658376 3.9249573,12.348212 3.774166,12.425468 C 3.6233747,12.502725 2.6,13.2261 1.5,14.032968 C -0.33757174,15.380856 -0.39149062,15.361433 0.8360899,13.793805 z M 5.979944,11.475834 C 5.284224,10.637543 4.9086586,9.758008 5.1453542,9.5213124 C 5.3820498,9.2846168 6.1249884,9.9704915 6.7963288,11.045478 C 8.2481421,13.370201 7.7639571,13.625438 5.979944,11.475834 z M 15.078947,11.583333 C 15.035526,10.529167 15.271875,9.9385417 15.604167,10.270833 C 15.936458,10.603125 15.971985,11.465625 15.683114,12.1875 C 15.363888,12.985233 15.126931,12.748276 15.078947,11.583333 z M 17.270833,10.395833 C 17.603125,10.063542 18.465625,10.028015 19.1875,10.316886 C 19.985233,10.636112 19.748276,10.873069 18.583333,10.921053 C 17.529167,10.964474 16.938542,10.728125 17.270833,10.395833 z M 5.3941315,4.2061951 C 5.822058,3.4946024 5.6905837,2.3321024 5.1019662,1.6228618 C 4.3125574,0.67168234 4.4096181,0.33333333 5.4718877,0.33333333 C 6.2639619,0.33333333 6.7040138,0.66989874 6.4497807,1.0812565 C 6.1955477,1.4926142 6.4896866,1.9965622 7.1034227,2.2011409 C 7.7769414,2.4256471 7.5051012,3.1532512 6.4176949,4.0365511 C 5.2175344,5.0114413 4.8758273,5.0680753 5.3941315,4.2061951 z M 15.5,4 C 15.160081,3.45 15.358524,3 15.940983,3 C 16.523442,3 17,3.45 17,4 C 17,5.281385 16.291939,5.281385 15.5,4 z M 10.564761,2.1047848 C 10.26046,1.6124164 10.608903,0.98031978 11.339077,0.70012559 C 12.069251,0.41993139 12.666667,0.82277824 12.666667,1.5953408 C 12.666667,3.1699136 11.41112,3.4742234 10.564761,2.1047848 z "
       id="path1907" />
    <path
       style="fill:#a5b6c6"
       d="M 0.078947368,18.583333 C 0.035526316,17.529167 0.271875,16.938542 0.60416667,17.270833 C 0.93645833,17.603125 0.97198465,18.465625 0.68311404,19.1875 C 0.36388767,19.985233 0.12693129,19.748276 0.078947368,18.583333 z M 7.1578947,18 C 7.1578947,16.625 7.3848684,16.0625 7.6622807,16.75 C 7.939693,17.4375 7.939693,18.5625 7.6622807,19.25 C 7.3848684,19.9375 7.1578947,19.375 7.1578947,18 z M 14.507079,19.011454 C 14.15674,18.444594 14.558137,18.276947 15.448062,18.618443 C 17.180479,19.283234 17.497449,20 16.059017,20 C 15.541476,20 14.843104,19.555154 14.507079,19.011454 z M 10.078947,17.583333 C 10.035526,16.529167 10.271875,15.938542 10.604167,16.270833 C 10.936458,16.603125 10.971985,17.465625 10.683114,18.1875 C 10.363888,18.985233 10.126931,18.748276 10.078947,17.583333 z M 14.275596,15.673213 C 14.846154,13.961539 20,13.714573 20,15.398906 C 20,16.385032 19.005573,16.83796 16.967699,16.780019 C 15.299934,16.7326 14.088488,16.234537 14.275596,15.673213 z M 0.078947368,9.5833333 C 0.035526316,8.5291667 0.271875,7.9385417 0.60416667,8.2708333 C 0.93645833,8.603125 0.97198465,9.465625 0.68311404,10.1875 C 0.36388767,10.985233 0.12693129,10.748276 0.078947368,9.5833333 z M 7.5070792,9.0114544 C 7.1567404,8.4445943 7.5581371,8.2769469 8.4480622,8.6184432 C 10.180479,9.2832341 10.497449,10 9.059017,10 C 8.5414763,10 7.8431043,9.5551545 7.5070792,9.0114544 z M 15,8.1666667 C 15,6.8347333 15.625066,6 16.622445,6 C 18.01124,6 18.051991,6.2520183 16.905412,7.75 C 16.1687,8.7125 15.4386,9.6875 15.282968,9.9166667 C 15.127335,10.145833 15,9.3583333 15,8.1666667 z M 0.42857143,2 C 0.42857143,0.7047619 0.76666667,0.36666667 1.4142857,1.0142857 C 2.0619048,1.6619048 2.0619048,2.3380952 1.4142857,2.9857143 C 0.76666667,3.6333333 0.42857143,3.2952381 0.42857143,2 z M 17,1.1666667 C 17,0.70833333 17.675,0.33333333 18.5,0.33333333 C 19.325,0.33333333 20,0.70833333 20,1.1666667 C 20,1.625 19.325,2 18.5,2 C 17.675,2 17,1.625 17,1.1666667 z "
       id="path1905" />
    <path
       style="fill:#a6b7bb"
       d="M 15.542705,14.069098 C 15.226274,13.557102 15.424717,12.855545 15.983688,12.510081 C 16.54266,12.164618 17,12.583524 17,13.440983 C 17,15.197509 16.399945,15.456142 15.542705,14.069098 z M 9,12.164751 C 9,10.978626 9.2774835,10.967501 10.75,12.094588 C 11.7125,12.8313 12.663365,13.537265 12.863032,13.663398 C 13.0627,13.789531 12.2752,13.821105 11.113032,13.733561 C 9.9508645,13.646018 9,12.940053 9,12.164751 z M 3.2105734,11.461963 C 2.1452275,10.254065 2.1886733,10 3.4605734,10 C 4.307258,10 5,10.675 5,11.5 C 5,13.323667 4.8497484,13.320473 3.2105734,11.461963 z M 16.015313,9.809017 C 16.006891,8.8789763 16.45,7.8399187 17,7.5 C 18.265597,6.7178178 18.265597,8.0416276 17,10 C 16.164601,11.292687 16.028509,11.266292 16.015313,9.809017 z M 10,8.6666667 C 10,7.9333333 10.6,7.3333333 11.333333,7.3333333 C 12.066667,7.3333333 12.666667,7.9333333 12.666667,8.6666667 C 12.666667,9.4 12.066667,10 11.333333,10 C 10.6,10 10,9.4 10,8.6666667 z M 2.2708333,6.3958333 C 2.603125,6.0635417 3.465625,6.0280154 4.1875,6.316886 C 4.9852327,6.6361123 4.7482763,6.8730687 3.5833333,6.9210526 C 2.5291667,6.9644737 1.9385417,6.728125 2.2708333,6.3958333 z M -6.4615505e-19,5.059017 C -2.9076977e-19,4.4765576 0.45,4 1,4 C 2.281385,4 2.281385,4.7080605 1,5.5 C 0.45,5.8399187 -1.0015403e-18,5.6414763 -6.4615505e-19,5.059017 z M 6.2708333,4.3958333 C 6.603125,4.0635417 7.465625,4.0280154 8.1875,4.316886 C 8.9852327,4.6361123 8.7482763,4.8730687 7.5833333,4.9210526 C 6.5291667,4.9644737 5.9385417,4.728125 6.2708333,4.3958333 z "
       id="path1903" />
    <path
       style="fill:#9ab6c6"
       d="M 1,17 C 1,13.71823 2.0718504,13.176722 3.9908621,15.48899 C 4.6705255,16.307934 5.6256256,16.731376 6.1133068,16.429973 C 6.6009881,16.128569 7,16.808524 7,17.940983 C 7,19.562113 6.361996,20 4,20 C 1.3333333,20 1,19.666667 1,17 z M 10.693823,19.333473 C 11.350426,19.078994 11.639781,18.224858 11.336834,17.435392 C 10.549206,15.382867 11.746983,15.658716 12.889161,17.792895 C 13.670626,19.253075 13.445188,19.605309 11.674344,19.690975 C 10.478455,19.748827 10.03722,19.587951 10.693823,19.333473 z M 4,13.833333 C 4,12.753329 5.729515,12.753329 6.3969943,13.833333 C 6.6802599,14.291667 6.2568176,14.666667 5.4560113,14.666667 C 4.6552051,14.666667 4,14.291667 4,13.833333 z M 17,13 C 17,12.45 17.675,12 18.5,12 C 19.325,12 20,12.45 20,13 C 20,13.55 19.325,14 18.5,14 C 17.675,14 17,13.55 17,13 z M 0,12 C 0,10.718615 0.70806053,10.718615 1.5,12 C 1.8399187,12.55 1.6414763,13 1.059017,13 C 0.47655765,13 0,12.55 0,12 z M 17.289749,4 C 17.002093,2.9 16.342664,2 15.824352,2 C 15.30604,2 15.173879,1.5276754 15.530661,0.95038972 C 16.185852,-0.10973156 20,3.4767976 20,5.1530097 C 20,6.8716771 17.795451,5.9338057 17.289749,4 z M 3,3 C 1.7932282,2.2201242 1.9513793,2.0276321 3.809017,2.0153128 C 5.096585,2.006774 5.8446319,2.442374 5.5,3 C 4.7568143,4.2024997 4.8607356,4.2024997 3,3 z M 9.1218847,3.0964906 C 7.4015015,2.0068179 8.5386529,-0.027049716 10.809017,0.078947368 C 11.756218,0.12316959 11.974895,0.37151328 11.306177,0.64355501 C 10.649574,0.91066816 10.360219,1.7751418 10.663166,2.5646076 C 11.2975,4.2176563 11.035005,4.3082411 9.1218847,3.0964906 z "
       id="path1901" />
    <path
       style="fill:#99b5b8"
       d="M 5.5647606,13.104785 C 5.2604602,12.612416 5.639908,11.968422 6.4079779,11.673686 C 7.8742741,11.111015 9,11.759423 9,13.166667 C 9,14.283426 6.2627261,14.234117 5.5647606,13.104785 z M 16.75,11.337719 C 17.4375,11.060307 18.5625,11.060307 19.25,11.337719 C 19.9375,11.615132 19.375,11.842105 18,11.842105 C 16.625,11.842105 16.0625,11.615132 16.75,11.337719 z M 17.270833,9.3958333 C 17.603125,9.0635417 18.465625,9.0280154 19.1875,9.316886 C 19.985233,9.6361123 19.748276,9.8730687 18.583333,9.9210526 C 17.529167,9.9644737 16.938542,9.728125 17.270833,9.3958333 z M 10,7 C 8.7181026,6.1715743 8.754453,6.028399 10.25,6.0153128 C 11.2125,6.0068907 12,6.45 12,7 C 12,8.2196105 11.887213,8.2196105 10,7 z M 14,3.059017 C 14,2.4765576 14.45,2 15,2 C 16.281385,2 16.281385,2.7080605 15,3.5 C 14.45,3.8399187 14,3.6414763 14,3.059017 z "
       id="path1899" />
    <path
       style="fill:#97a9b6"
       d="M 17.324657,19.342009 C 17.686552,18.980114 17.424052,17.967614 16.741324,17.092009 C 15.670378,15.718511 15.718511,15.670378 17.092009,16.741324 C 17.967614,17.424052 19.077779,17.649052 19.559042,17.241324 C 20.040304,16.833596 19.8313,17.2875 19.094588,18.25 C 18.357875,19.2125 17.510211,20 17.210889,20 C 16.911567,20 16.962762,19.703904 17.324657,19.342009 z M 8.2764364,17.01969 C 8.1943917,15.93052 8.4361298,14.848701 8.8136321,14.615649 C 9.1911344,14.382597 9.564896,15.273737 9.6442133,16.595959 C 9.7235306,17.918182 9.4817925,19 9.1070176,19 C 8.7322426,19 8.3584811,18.108861 8.2764364,17.01969 z M 15,5 C 15,3.718615 15.708061,3.718615 16.5,5 C 16.839919,5.55 16.641476,6 16.059017,6 C 15.476558,6 15,5.55 15,5 z M 5.5070792,1.0114544 C 5.1567404,0.44459431 5.5581371,0.27694688 6.4480622,0.6184432 C 8.1804795,1.2832341 8.4974491,2 7.059017,2 C 6.5414763,2 5.8431043,1.5551545 5.5070792,1.0114544 z "
       id="path1897" />
    <path
       style="fill:#000716"
       d="M 12.615109,17.439374 C 12.232517,16.442355 11.361591,16.031003 10.408011,16.396926 C 9.4121681,16.779067 8.9839159,16.541396 9.2435588,15.75068 C 9.4694322,15.062806 10.78351,14.364705 12.163732,14.199344 C 14.154917,13.960785 14.642333,14.318021 14.523651,15.928973 C 14.319854,18.695249 13.381882,19.437551 12.615109,17.439374 z M 10.4,12.047065 C 9.905,11.57795 8.6,10.953699 7.5,10.659839 C 6.4,10.365979 7.2747209,10.2098 9.4438243,10.312774 C 12.870013,10.475426 13.480378,10.171869 14.094144,8 C 14.644541,6.0523696 14.807135,5.9418957 14.830035,7.5 C 14.889728,11.561464 12.488387,14.026242 10.4,12.047065 z M 2.4588815,8.9334688 C 2.0963476,8.3468767 2.0141976,7.6524691 2.2763259,7.3903408 C 2.5384542,7.1282125 3.019392,7.6081515 3.3450766,8.4568719 C 4.0212606,10.218979 3.4449308,10.52893 2.4588815,8.9334688 z M 4.7309681,7.3440633 C 5.4080006,7.0701402 6.7580006,7.0534659 7.7309681,7.3070093 C 8.7039356,7.5605527 8.15,7.7846716 6.5,7.8050513 C 4.85,7.825431 4.0539356,7.6179864 4.7309681,7.3440633 z M 2,5.059017 C 2,4.5414763 2.5195288,3.7969475 3.1545085,3.4045085 C 3.8409036,2.980293 4.0386722,3.12841 3.6422655,3.7698096 C 3.2755522,4.3631642 3.7685234,5.0554924 4.737757,5.3083167 C 6.0788129,5.6581308 5.9622359,5.7957224 4.25,5.8839986 C 3.0125,5.9477994 2,5.5765576 2,5.059017 z "
       id="path1895" />
    <path
       style="fill:#020407"
       d="M 14.116001,12.45 C 14.052201,11.3225 13.551607,9.8583929 13.003571,9.1964286 C 12.455536,8.5344643 12.723775,8.6162749 13.599659,9.37823 C 14.475542,10.140185 14.976136,11.604292 14.712088,12.631801 C 14.279294,14.31597 14.220576,14.298061 14.116001,12.45 z M 0.5427051,7.0690983 C 0.22627421,6.5571024 0.42471656,5.8555447 0.9836881,5.5100813 C 1.5426596,5.1646179 2,5.5835237 2,6.440983 C 2,8.1975091 1.399945,8.4561416 0.5427051,7.0690983 z M 12,6 C 12,5.45 12.701558,5 13.559017,5 C 14.416476,5 14.839919,5.45 14.5,6 C 13.700321,7.2939074 12,7.2939074 12,6 z M 6.75,5.3377193 C 7.4375,5.060307 8.5625,5.060307 9.25,5.3377193 C 9.9375,5.6151316 9.375,5.8421053 8,5.8421053 C 6.625,5.8421053 6.0625,5.6151316 6.75,5.3377193 z "
       id="path1893" />
  </g>
</svg>
