<?xml version="1.0" encoding="UTF-8" standalone="no"?>
<!-- Created with Inkscape (http://www.inkscape.org/) -->
<svg
   xmlns:dc="http://purl.org/dc/elements/1.1/"
   xmlns:cc="http://web.resource.org/cc/"
   xmlns:rdf="http://www.w3.org/1999/02/22-rdf-syntax-ns#"
   xmlns:svg="http://www.w3.org/2000/svg"
   xmlns="http://www.w3.org/2000/svg"
   xmlns:xlink="http://www.w3.org/1999/xlink"
   xmlns:sodipodi="http://sodipodi.sourceforge.net/DTD/sodipodi-0.dtd"
   xmlns:inkscape="http://www.inkscape.org/namespaces/inkscape"
   id="svg2"
   sodipodi:version="0.32"
   inkscape:version="0.44"
   width="20"
   height="20"
   version="1.0"
   sodipodi:docbase="/home/kde4/Developpements/C++/ksirk/ksirk/skins/default/Images"
   sodipodi:docname="defendOne.svg">
  <metadata
     id="metadata7">
    <rdf:RDF>
      <cc:Work
         rdf:about="">
        <dc:format>image/svg+xml</dc:format>
        <dc:type
           rdf:resource="http://purl.org/dc/dcmitype/StillImage" />
      </cc:Work>
    </rdf:RDF>
  </metadata>
  <defs
     id="defs5" />
  <sodipodi:namedview
     inkscape:window-height="582"
     inkscape:window-width="928"
     inkscape:pageshadow="2"
     inkscape:pageopacity="0.0"
     guidetolerance="10.0"
     gridtolerance="10.0"
     objecttolerance="10.0"
     borderopacity="1.0"
     bordercolor="#666666"
     pagecolor="#ffffff"
     id="base"
     inkscape:zoom="18.95"
     inkscape:cx="10"
     inkscape:cy="9.9736148"
     inkscape:window-x="666"
     inkscape:window-y="0"
     inkscape:current-layer="svg2" />
  <g
     id="g1891">
    <path
       style="fill:#a6c1c9"
       d="M 17.542705,19.069098 C 17.226274,18.557102 17.349717,17.901897 17.817021,17.613087 C 18.284326,17.324277 18.666667,17.743182 18.666667,18.543989 C 18.666667,20.230156 18.35133,20.37748 17.542705,19.069098 z M 6.7333333,14.875912 C 7.4116667,14.192494 8.2185743,13.885241 8.5264614,14.193128 C 8.8343485,14.501015 8.2793485,15.060176 7.2931281,15.435707 C 5.8679296,15.978392 5.7530661,15.863528 6.7333333,14.875912 z M 3.5033783,12.005466 C 2.5357036,10.439736 5.1589134,9.7303419 6.597339,11.168768 C 7.8045607,12.375989 7.7232938,12.595235 6.0210678,12.72346 C 4.9311397,12.805562 3.7981794,12.482464 3.5033783,12.005466 z M 15.078947,11.583333 C 15.035526,10.529167 15.271875,9.9385417 15.604167,10.270833 C 15.936458,10.603125 15.971985,11.465625 15.683114,12.1875 C 15.363888,12.985233 15.126931,12.748276 15.078947,11.583333 z M 17.270833,10.395833 C 17.603125,10.063542 18.465625,10.028015 19.1875,10.316886 C 19.985233,10.636112 19.748276,10.873069 18.583333,10.921053 C 17.529167,10.964474 16.938542,10.728125 17.270833,10.395833 z M 3.138321,7.6666667 C 2.3033014,6.6605295 2.3851576,6.3333333 3.4718877,6.3333333 C 4.2639619,6.3333333 4.7040138,6.6698987 4.4497807,7.0812565 C 4.1955477,7.4926142 4.5528426,8.0570879 5.2437694,8.3356424 C 6.0264713,8.6511971 6.0749747,8.871864 5.3724447,8.9210526 C 4.7522893,8.9644737 3.7469337,8.4 3.138321,7.6666667 z M 15.5,4 C 15.160081,3.45 15.358524,3 15.940983,3 C 16.523442,3 17,3.45 17,4 C 17,5.281385 16.291939,5.281385 15.5,4 z M 1.4045085,3.1545085 C 1.8034109,2.5090708 1.540834,1.9865915 0.80901699,1.9695913 C -0.040730236,1.9498515 0.083836098,1.5984413 1.1640577,0.96799695 C 3.0613915,-0.13933453 6,0.6743172 6,2.3069888 C 6,3.0382322 5.6028207,3.0028207 4.8,2.2 C 3.3864756,0.78647563 1.6249473,0.58413507 2.4572949,1.9309017 C 2.7737258,2.4428976 2.5057546,3.1874265 1.8618034,3.5854102 C 1.1305763,4.0373334 0.95888148,3.8755482 1.4045085,3.1545085 z "
       id="path1907" />
    <path
       style="fill:#9bb7d3"
       d="M 2.6969171,18.606872 C 2.2877202,17.565651 2.1885152,16.478151 2.4764614,16.190205 C 3.3885215,15.278145 4.1910218,16.772769 3.8088531,18.671731 C 3.4586102,20.412056 3.4051236,20.408936 2.6969171,18.606872 z M 10.923489,19.75 C 10.881408,19.6125 10.696225,18.7125 10.511973,17.75 C 10.046419,15.318037 11.64727,15.543157 12.289749,18 C 12.577405,19.1 12.40489,20 11.90638,20 C 11.407871,20 10.96557,19.8875 10.923489,19.75 z M 3.2437694,15.279644 C 2.5528426,15.031889 2.2438645,14.414436 2.5571515,13.907527 C 2.8704384,13.400618 2.4232422,12.715908 1.5633821,12.385948 C -0.17766531,11.717846 -0.60520147,8 1.059017,8 C 1.6414763,8 1.841147,8.4480126 1.5027296,8.9955835 C 1.1643121,9.5431544 2.0599842,11.077858 3.493112,12.406036 C 5.9971879,14.726735 5.8675742,16.2205 3.2437694,15.279644 z M 17.270833,6.3958333 C 17.603125,6.0635417 18.465625,6.0280154 19.1875,6.316886 C 19.985233,6.6361123 19.748276,6.8730687 18.583333,6.9210526 C 17.529167,6.9644737 16.938542,6.728125 17.270833,6.3958333 z M 8.6089034,1.1755356 C 8.3795052,0.80399102 10.019387,0.39177004 12.253086,0.25948897 C 14.486784,0.12720791 16.080016,0.25331719 15.793602,0.53973181 C 14.944812,1.388521 9.0618374,1.9091299 8.6089034,1.1755356 z "
       id="path1905" />
    <path
       style="fill:#a4b7c6"
       d="M 0.078947368,18.583333 C 0.035526316,17.529167 0.271875,16.938542 0.60416667,17.270833 C 0.93645833,17.603125 0.97198465,18.465625 0.68311404,19.1875 C 0.36388767,19.985233 0.12693129,19.748276 0.078947368,18.583333 z M 5.0789474,18.583333 C 5.0355263,17.529167 5.271875,16.938542 5.6041667,17.270833 C 5.9364583,17.603125 5.9719846,18.465625 5.683114,19.1875 C 5.3638877,19.985233 5.1269313,19.748276 5.0789474,18.583333 z M 7.1949487,17.5 C 7.174569,15.85 7.3820136,15.053936 7.6559367,15.730968 C 7.9298598,16.408001 7.9465341,17.758001 7.6929907,18.730968 C 7.4394473,19.703936 7.2153284,19.15 7.1949487,17.5 z M 14.507079,19.011454 C 14.15674,18.444594 14.558137,18.276947 15.448062,18.618443 C 17.180479,19.283234 17.497449,20 16.059017,20 C 15.541476,20 14.843104,19.555154 14.507079,19.011454 z M 14,15.940087 C 14,15.423039 14.45,15 15,15 C 15.55,15 16.052201,14.2125 16.116001,13.25 C 16.221807,11.653819 16.271262,11.648947 16.678651,13.194574 C 16.95873,14.257185 17.712222,14.663925 18.6991,14.285225 C 19.756031,13.879642 20.120285,14.139145 19.808207,15.075379 C 19.289716,16.630851 14,17.418368 14,15.940087 z M 2,11.059017 C 2,10.541476 2.4448455,9.8431043 2.9885456,9.5070792 C 3.5554057,9.1567404 3.7230531,9.5581371 3.3815568,10.448062 C 2.7167659,12.180479 2,12.497449 2,11.059017 z M 6.1432373,8.8903128 C 7.1415686,8.2577389 7.1697733,8.0265802 6.25,8.0153128 C 5.5625,8.0068907 5,7.5302735 5,6.9561632 C 5,5.6906987 8.208107,6.1026976 9.2346872,7.5 C 10.505662,9.2299538 10.080045,9.75 7.3932373,9.75 C 5.5535651,9.75 5.1857283,9.4970203 6.1432373,8.8903128 z M 17.02896,8.0390602 C 16.219889,7.5273874 15.818263,6.8484034 16.13646,6.530207 C 16.454656,6.2120106 17.284224,6.6375427 17.979944,7.475834 C 19.422537,9.2140525 19.145931,9.3778741 17.02896,8.0390602 z M 5.5,1 C 3.8695921,0.29938972 3.812487,0.12758208 5.190983,0.070285263 C 6.1210237,0.031628368 7.1600813,0.45 7.5,1 C 8.2106644,2.1498792 8.1759129,2.1498792 5.5,1 z M 16.537404,1.0605208 C 16.218057,0.54380727 16.8665,0.18956921 17.978387,0.27332512 C 19.090274,0.35708103 20,0.77984666 20,1.2128043 C 20,2.3185671 17.239897,2.197179 16.537404,1.0605208 z "
       id="path1903" />
    <path
       style="fill:#9ab6c8"
       d="M 1,19.559017 C 1,19.316476 1.45,18.839919 2,18.5 C 2.55,18.160081 3,18.358524 3,18.940983 C 3,19.523442 2.55,20 2,20 C 1.45,20 1,19.801558 1,19.559017 z M 4.0702853,18.25 C 4.0316284,17.0125 3.475,16 2.8333333,16 C 2.1916667,16 1.8738182,15.792848 2.1270035,15.539663 C 2.3801888,15.286478 3.5801888,15.338962 4.7936702,15.656295 C 6.2562927,16.038779 6.9608984,16.952376 6.8839986,18.366631 C 6.7737029,20.395068 6.7424801,20.401628 6.2492064,18.5 C 5.7304155,16.5 5.7304155,16.5 4.935493,18.5 C 4.1819508,20.395889 4.1369118,20.382875 4.0702853,18.25 z M 12.458881,18.933469 C 12.096348,18.346877 12.014198,17.652469 12.276326,17.390341 C 12.538454,17.128212 13.019392,17.608151 13.345077,18.456872 C 14.021261,20.218979 13.444931,20.52893 12.458881,18.933469 z M 5.5427051,14.069098 C 5.2262742,13.557102 5.3497166,12.901897 5.8170214,12.613087 C 6.2843263,12.324277 6.6666667,12.743182 6.6666667,13.543989 C 6.6666667,15.230156 6.3513296,15.37748 5.5427051,14.069098 z M 17,13.468615 C 17,12.660877 17.675,12 18.5,12 C 20.441207,12 20.441207,13.616715 18.5,14.361626 C 17.586289,14.71225 17,14.363208 17,13.468615 z M 0,12.833333 C 0,11.753329 1.729515,11.753329 2.3969943,12.833333 C 2.6802599,13.291667 2.2568176,13.666667 1.4560113,13.666667 C 0.6552051,13.666667 0,13.291667 0,12.833333 z M 1.5642929,8.2931281 C 1.0216083,6.8679296 1.1364719,6.7530661 2.1240877,7.7333333 C 2.8075061,8.4116667 3.114759,9.2185743 2.8068719,9.5264614 C 2.4989848,9.8343485 1.9398243,9.2793485 1.5642929,8.2931281 z M 17.392873,4.5289444 C 17.511621,3.7198637 17.921803,2.8198637 18.304389,2.5289444 C 18.686975,2.238025 18.778904,2.2960958 18.508676,2.6579907 C 18.238448,3.0198856 18.518548,3.9198856 19.131121,4.6579907 C 19.980537,5.6814754 19.880805,6 18.710929,6 C 17.86725,6 17.274125,5.338025 17.392873,4.5289444 z M 3,2.8019485 C 3,1.6275435 3.3375,1.0739315 3.75,1.5716997 C 4.1625,2.0694678 4.8752306,2.7568443 5.3338458,3.0992029 C 5.792461,3.4415615 5.454961,3.9951735 4.5838458,4.3294517 C 3.4434607,4.7670586 3,4.3393732 3,2.8019485 z M 7.7916525,1.8994384 C 7.3818672,0.83155503 7.8860805,0.4 9.5435422,0.4 C 10.823545,0.4 11.643792,0.76734035 11.366312,1.2163119 C 11.088832,1.6652834 10.481332,1.7974797 10.016312,1.5100813 C 9.5512916,1.2226829 8.98997,1.5300899 8.7689307,2.1932079 C 8.4957775,3.0126676 8.1827281,2.9185651 7.7916525,1.8994384 z "
       id="path1901" />
    <path
       style="fill:#a6b5bb"
       d="M 0.078947368,15.583333 C 0.035526316,14.529167 0.271875,13.938542 0.60416667,14.270833 C 0.93645833,14.603125 0.97198465,15.465625 0.68311404,16.1875 C 0.36388767,16.985233 0.12693129,16.748276 0.078947368,15.583333 z M 9,12.164751 C 9,10.978626 9.2774835,10.967501 10.75,12.094588 C 11.7125,12.8313 12.663365,13.537265 12.863032,13.663398 C 13.0627,13.789531 12.2752,13.821105 11.113032,13.733561 C 9.9508645,13.646018 9,12.940053 9,12.164751 z M 15.681695,10.348362 C 15.306763,9.9734294 15,8.6648116 15,7.4403221 C 15,6.2158326 14.29861,4.9448292 13.441357,4.61587 C 12.188782,4.1352119 11.975282,4.6051237 12.354119,7.0088812 C 12.6902,9.1413489 12.419968,10 11.412763,10 C 10.635743,10 10,9.55 10,9 C 10,8.45 10.476558,8 11.059017,8 C 11.656042,8 11.777371,7.4546926 11.337137,6.75 C 9.8827567,4.4219383 10.230393,3.4171478 12.556851,3.2246043 C 14.177041,3.0905132 15.085579,3.7056222 15.572583,5.2663492 C 15.955922,6.4948572 16.635157,7.7368769 17.081995,8.0263932 C 17.528833,8.3159095 17.549944,9.1101722 17.128909,9.7914215 C 16.707873,10.472671 16.056627,10.723294 15.681695,10.348362 z M 0.078947368,3.5833333 C 0.035526316,2.5291667 0.271875,1.9385417 0.60416667,2.2708333 C 0.93645833,2.603125 0.97198465,3.465625 0.68311404,4.1875 C 0.36388767,4.9852327 0.12693129,4.7482763 0.078947368,3.5833333 z "
       id="path1899" />
    <path
       style="fill:#98b4b9"
       d="M 1.0789474,17.583333 C 1.0355263,16.529167 1.271875,15.938542 1.6041667,16.270833 C 1.9364583,16.603125 1.9719846,17.465625 1.683114,18.1875 C 1.3638877,18.985233 1.1269313,18.748276 1.0789474,17.583333 z M 6,13.606989 C 6,13.390833 6.675,12.954956 7.5,12.638374 C 8.325,12.321791 9,12.498646 9,13.031385 C 9,13.564123 8.325,14 7.5,14 C 6.675,14 6,13.823145 6,13.606989 z M 16.75,11.337719 C 17.4375,11.060307 18.5625,11.060307 19.25,11.337719 C 19.9375,11.615132 19.375,11.842105 18,11.842105 C 16.625,11.842105 16.0625,11.615132 16.75,11.337719 z M 17.270833,9.3958333 C 17.603125,9.0635417 18.465625,9.0280154 19.1875,9.316886 C 19.985233,9.6361123 19.748276,9.8730687 18.583333,9.9210526 C 17.529167,9.9644737 16.938542,9.728125 17.270833,9.3958333 z M 3.3333333,7.5439887 C 3.3333333,6.7431824 3.7156737,6.3242767 4.1829786,6.613087 C 4.6502834,6.9018973 4.7737258,7.5571024 4.4572949,8.0690983 C 3.6486704,9.3774802 3.3333333,9.2301561 3.3333333,7.5439887 z M 6.6013031,2.8360882 C 6.8558139,2.424281 7.7246388,2.3408396 8.532025,2.6506628 C 10.567883,3.4318948 10.365843,3.9032603 8.0692781,3.7302654 C 7.007381,3.6502751 6.3467922,3.2478954 6.6013031,2.8360882 z M 17.507079,3.0114544 C 17.15674,2.4445943 17.558137,2.2769469 18.448062,2.6184432 C 20.180479,3.2832341 20.497449,4 19.059017,4 C 18.541476,4 17.843104,3.5551545 17.507079,3.0114544 z "
       id="path1897" />
    <path
       style="fill:#96abb7"
       d="M 17.324657,19.342009 C 17.686552,18.980114 17.424052,17.967614 16.741324,17.092009 C 15.670378,15.718511 15.718511,15.670378 17.092009,16.741324 C 17.967614,17.424052 19.077779,17.649052 19.559042,17.241324 C 20.040304,16.833596 19.8313,17.2875 19.094588,18.25 C 18.357875,19.2125 17.510211,20 17.210889,20 C 16.911567,20 16.962762,19.703904 17.324657,19.342009 z M 8.3333333,17.543989 C 8.3333333,16.743182 8.7083333,16.31974 9.1666667,16.603006 C 10.246671,17.270485 10.246671,19 9.1666667,19 C 8.7083333,19 8.3333333,18.344795 8.3333333,17.543989 z M 1.3333333,1.5439887 C 1.3333333,0.74318244 1.7156737,0.32427667 2.1829786,0.61308697 C 2.6502834,0.90189727 2.7737258,1.5571024 2.4572949,2.0690983 C 1.6486704,3.3774802 1.3333333,3.2301561 1.3333333,1.5439887 z "
       id="path1895" />
    <path
       style="fill:#06040f"
       d="M 12.596355,17.390502 C 12.229195,16.433698 11.351116,16.035023 10.408011,16.396926 C 9.4241645,16.774463 8.9859251,16.542225 9.2405789,15.778263 C 9.4648133,15.10556 10.739915,14.292342 12.074139,13.971113 L 14.5,13.387059 L 12,12.54513 C 6.2026575,10.59275 5.4766764,10.025533 9.3383658,10.465564 C 12.449472,10.820069 13.067424,10.618086 12.59982,9.3995314 C 12.273009,8.5478739 12.451458,8.1609825 13.011454,8.5070792 C 13.555154,8.8431043 14,8.6414763 14,8.059017 C 14,7.4765576 13.55,7 13,7 C 12.45,7 12,6.3391232 12,5.5313848 C 12,4.6120841 12.583127,4.2865364 13.559014,4.6610194 C 14.7927,5.134429 15.057544,6.6060636 14.828183,11.713279 C 14.53517,18.237854 13.718596,20.315016 12.596355,17.390502 z M 1.1101135,6.6326787 C 0.24110291,5.5855849 0.3744834,4.9415331 1.6796272,3.8826787 C 2.822075,2.9558185 3.1363478,2.9120792 2.6329414,3.75 C 2.0837709,4.6640955 3.0399007,5.046948 6.190983,5.1747072 L 10.5,5.3494144 L 6.2272069,5.7333188 C 3.8771708,5.9444662 2.2162284,6.5408479 2.5362239,7.0586116 C 3.419942,8.4884974 2.3966644,8.1828776 1.1101135,6.6326787 z "
       id="path1893" />
  </g>
</svg>
