<?xml version="1.0" encoding="UTF-8" standalone="no"?>
<!-- Created with Inkscape (http://www.inkscape.org/) -->
<svg
   xmlns:dc="http://purl.org/dc/elements/1.1/"
   xmlns:cc="http://web.resource.org/cc/"
   xmlns:rdf="http://www.w3.org/1999/02/22-rdf-syntax-ns#"
   xmlns:svg="http://www.w3.org/2000/svg"
   xmlns="http://www.w3.org/2000/svg"
   xmlns:xlink="http://www.w3.org/1999/xlink"
   xmlns:sodipodi="http://sodipodi.sourceforge.net/DTD/sodipodi-0.dtd"
   xmlns:inkscape="http://www.inkscape.org/namespaces/inkscape"
   id="svg2"
   sodipodi:version="0.32"
   inkscape:version="0.44"
   width="64"
   height="64"
   version="1.0"
   sodipodi:docbase="/home/kde4/Developpements/C++/ksirk/ksirk/skins/default/Images"
   sodipodi:docname="logoLeft.svg">
  <metadata
     id="metadata7">
    <rdf:RDF>
      <cc:Work
         rdf:about="">
        <dc:format>image/svg+xml</dc:format>
        <dc:type
           rdf:resource="http://purl.org/dc/dcmitype/StillImage" />
      </cc:Work>
    </rdf:RDF>
  </metadata>
  <defs
     id="defs5" />
  <sodipodi:namedview
     inkscape:window-height="582"
     inkscape:window-width="928"
     inkscape:pageshadow="2"
     inkscape:pageopacity="0.0"
     guidetolerance="10.0"
     gridtolerance="10.0"
     objecttolerance="10.0"
     borderopacity="1.0"
     bordercolor="#666666"
     pagecolor="#ffffff"
     id="base"
     inkscape:zoom="5.921875"
     inkscape:cx="32"
     inkscape:cy="31.915567"
     inkscape:window-x="666"
     inkscape:window-y="0"
     inkscape:current-layer="svg2" />
  <g
     id="g1891">
    <path
       style="fill:#fefefe"
       d="M 0,32 L 0,0 L 32,0 L 64,0 L 64,32 L 64,64 L 32,64 L 0,64 L 0,32 z M 13.816121,59.495774 C 12.156937,55.854262 13.331838,55.465673 18.564463,57.925297 C 21.117225,59.125237 23.910937,59.970429 24.772713,59.803503 C 25.634488,59.636576 27.410236,57.475 28.718818,55 C 30.027401,52.525 31.413496,50.548823 31.79903,50.608495 C 32.184563,50.668168 33.681172,50.378235 35.124826,49.9642 C 37.510545,49.279985 37.862391,49.553012 38.987253,52.961376 C 39.886076,55.684836 39.931369,57.259722 39.152715,58.71465 C 38.136945,60.612632 38.397935,60.722459 44.116727,60.803546 C 49.194763,60.875547 49.967681,60.665984 48.986134,59.483292 C 48.344425,58.71008 46.960027,57.804701 45.909695,57.471338 C 44.372832,56.983557 44,55.90983 44,51.971567 C 44,45.469381 41.50034,43 34.918427,43 C 30.067929,43 29,42.086903 29,37.939651 C 29,36.277346 29.310258,36.184241 31.509891,37.186461 C 33.675219,38.17305 34.374236,37.998504 36.601714,35.915022 C 39.322957,33.369693 41.987245,29.271815 40.204553,30.373579 C 39.657312,30.711793 38.973786,30.374069 38.685605,29.623083 C 38.286953,28.584212 39.397911,28.235698 43.33082,28.165855 C 50.870687,28.031956 63.166443,26.83311 62.618613,26.28528 C 62.359389,26.026056 57.051655,25.743321 50.823648,25.656981 C 42.015045,25.534866 39.561029,25.205859 39.774777,24.17567 C 39.925904,23.447289 39.581063,23.140883 39.008465,23.494769 C 38.435866,23.848654 38.194655,24.505942 38.472441,24.955408 C 39.072783,25.926783 35.612813,26.967227 31.718615,26.986345 C 28.227892,27.003482 27.493249,25.204514 29.451309,21.434248 C 30.348492,19.706713 30.56904,18.362916 29.987595,18.166667 C 28.267964,17.586256 28.919631,12.37189 31.050325,9.6631511 C 33.220914,6.9036949 32.795028,4.7346301 29.554596,2.0453109 C 28.26594,0.97582132 28,1.011792 28,2.2555832 C 28,3.0808432 28.932717,4.3734433 30.072705,5.1280279 C 31.914785,6.347344 31.399169,6.4620288 25.438682,6.1587397 L 18.731955,5.8174795 L 19.464977,8.6587397 C 19.868139,10.221433 20.17757,12.85 20.152602,14.5 C 20.127634,16.15 20.831499,19.198747 21.716748,21.274994 C 23.304468,24.998806 23.289344,25.088552 20.601295,27.894271 C 18.345449,30.248867 18.145196,30.841739 19.438149,31.337892 C 21.430082,32.102268 21.534633,37 19.559017,37 C 17.471899,37 16.56622,35.017735 18.034311,33.662868 C 19.019675,32.753498 19.160118,32.881489 18.678563,34.25 C 18.339877,35.2125 18.531642,36 19.104709,36 C 19.677776,36 19.99499,35.2125 19.809629,34.25 C 19.624269,33.2875 18.846671,32.5 18.081634,32.5 C 16.579391,32.5 15.809299,29.660535 16.68947,27.366845 C 17.087782,26.32886 17.580329,26.236741 18.527755,27.023035 C 19.315907,27.677143 20.050013,27.728094 20.405229,27.153343 C 21.304411,25.698436 17.922642,24.819312 16.373252,26.105192 C 13.441975,28.537935 15.668584,38 19.172333,38 C 20.762121,38 20.936119,38.547297 20.404093,41.874405 C 20.020078,44.275899 20.205668,46.009076 20.892275,46.433422 C 21.501524,46.809959 22,48.714621 22,50.666006 C 22,53.642004 21.71788,54.102409 20.25,53.521912 C 16.002599,51.842211 12.185495,51.832353 9.6486853,53.494535 L 7.0336667,55.207961 L 10.236879,58.60398 C 14.029155,62.624522 15.39695,62.965317 13.816121,59.495774 z M 25.886657,52.817549 C 26.535777,51.097774 26.564617,48.968705 25.967019,46.885 C 25.300336,44.560414 25.342043,43.942043 26.113481,44.713481 C 27.632186,46.232186 27.647127,52.755439 26.135328,54.251762 C 25.121473,55.255238 25.072712,54.974009 25.886657,52.817549 z M 26,40 C 26,39.45 26.45,39 27,39 C 27.55,39 28,39.45 28,40 C 28,40.55 27.55,41 27,41 C 26.45,41 26,40.55 26,40 z M 32.471162,31.953339 C 31.712607,30.725971 33.592202,29.041746 35.75,29.015313 C 37.438381,28.99463 37.330764,29.390687 35.099277,31.410155 C 33.71699,32.661108 33.000153,32.809265 32.471162,31.953339 z M 24.75,22.258867 C 22.818758,21.811354 22.742118,21.427248 24,18.5 C 24.828591,16.571764 24.861951,16.578617 24.929715,18.690983 C 24.968372,19.896024 25.485461,21.181997 26.078802,21.548702 C 26.810976,22.001211 26.973379,21.05625 26.584246,18.607719 C 25.924372,14.455625 27.451088,13.676824 28.449814,17.656064 C 29.21471,20.703655 27.459856,22.886804 24.75,22.258867 z M 19,28.440983 C 19,28.198442 18.55,28 18,28 C 17.45,28 17,28.476558 17,29.059017 C 17,29.641476 17.45,29.839919 18,29.5 C 18.55,29.160081 19,28.683524 19,28.440983 z "
       id="path1907" />
    <path
       style="fill:#969892"
       d="M 18.701324,34.335955 C 19.11223,33.265151 18.947422,32.914461 18.239037,33.352267 C 15.918054,34.786713 16.181972,32.177674 18.586342,29.918886 C 20.438495,28.178879 20.934558,28.006963 20.448532,29.273526 C 20.084152,30.223087 19.294167,31 18.693011,31 C 17.961768,31 17.997179,31.397179 18.8,32.2 C 20.241153,33.641153 20.384785,36 19.031385,36 C 18.498646,36 18.350119,35.25118 18.701324,34.335955 z M 37.25,29.337719 C 35.461031,28.615854 35.703215,26 37.559017,26 C 38.416476,26 38.859136,25.581094 38.542705,25.069098 C 38.226274,24.557102 38.435866,23.848654 39.008465,23.494769 C 39.581063,23.140883 39.925904,23.447289 39.774777,24.17567 C 39.561029,25.205859 42.015045,25.534866 50.823648,25.656981 C 57.051655,25.743321 62.359389,26.026056 62.618613,26.28528 C 63.168319,26.834985 50.862585,28.031972 43.271429,28.167193 C 40.395715,28.218418 38.284773,28.651755 38.580446,29.130165 C 39.16513,30.076203 39.103848,30.085763 37.25,29.337719 z M 25.917769,23.75 C 25.112417,21.30154 25.125698,17.959651 25.938783,18.462166 C 26.505619,18.81249 26.878132,20.201817 26.766589,21.549559 C 26.593133,23.645388 26.210027,24.638533 25.917769,23.75 z "
       id="path1905" />
    <path
       style="fill:#896c69"
       d="M 10.475038,57.649625 L 8.4500757,55.335391 L 10.902188,54.178179 C 13.823774,52.799411 14.768142,53.369519 13.030625,55.463099 C 12.340718,56.294386 12.03747,57.655261 12.35674,58.487265 C 13.129559,60.501201 12.868483,60.384983 10.475038,57.649625 z M 40.482623,58.184689 C 40.76718,57.443144 41,56.198229 41,55.418213 C 41,54.638196 41.45,54 42,54 C 42.55,54 43,54.813131 43,55.806958 C 43,56.863692 44.141763,58.038356 45.75,58.636204 C 48.332868,59.596361 48.240649,59.654676 44.232623,59.595721 C 41.080404,59.549355 40.100447,59.180621 40.482623,58.184689 z M 30.239724,29.411542 C 28.344105,27.382274 28.7024,27 32.5,27 C 36.500073,27 37.049605,28.200738 33.739724,29.70882 C 32.064046,30.472311 31.158807,30.395423 30.239724,29.411542 z M 21.507449,19.023469 C 21.15735,17.920405 21.151509,16.56387 21.494469,16.008949 C 22.487277,14.402552 26,14.831411 26,16.559017 C 26,17.416476 25.55,17.839919 25,17.5 C 24.45,17.160081 24,17.556966 24,18.381966 C 24,20.766892 22.207233,21.228293 21.507449,19.023469 z "
       id="path1903" />
    <path
       style="fill:#531092"
       d="M 22.665956,57.571879 C 22.325128,56.683695 21.260202,56.345165 19.811172,56.66437 C 17.965308,57.070992 17.801995,56.957782 19,56.102059 C 19.825,55.512771 21.175,55.024317 22,55.016606 C 23.090663,55.006412 23.5,53.867542 23.5,50.843262 C 23.5,48.229137 24.005334,46.512286 24.860244,46.221888 C 25.906517,45.866488 26.137337,46.796918 25.860244,50.252863 C 25.578288,53.769463 25.801304,54.63021 26.88645,54.213595 C 27.768511,53.874949 28.092207,54.19402 27.776217,55.09065 C 27.497136,55.882551 26.232556,56.389147 24.889768,56.246974 C 23.208553,56.068969 22.902273,56.254278 23.856763,56.871974 C 24.69179,57.41236 24.82822,57.988132 24.211548,58.369256 C 23.66046,58.709847 22.964944,58.351028 22.665956,57.571879 z M 28.015313,49.809017 C 28.006891,47.778976 27.55,45.839919 27,45.5 C 25.681921,44.685382 25.707624,41 27.031385,41 C 27.598646,41 28.321791,41.675 28.638374,42.5 C 29.04865,43.569162 30.718471,44 34.452001,44 C 40.35699,44 43.398776,46.210704 42.830358,50.089207 C 42.364543,53.267611 40.188295,53.625453 39.078377,50.706148 C 38.335015,48.750958 37.618419,48.350288 35.566478,48.742541 C 34.148594,49.013587 32.316093,48.677297 31.494254,47.995231 C 30.259375,46.970373 29.997342,47.080133 29.984687,48.627555 C 29.976265,49.6574 29.533156,51.175 29,52 C 28.277433,53.118093 28.026727,52.560259 28.015313,49.809017 z M 26,35 C 26,34.45 26.45,34 27,34 C 27.55,34 28,34.45 28,35 C 28,35.55 27.55,36 27,36 C 26.45,36 26,35.55 26,35 z "
       id="path1901" />
    <path
       style="fill:#d20e0f"
       d="M 22,41.934259 C 22,38.295644 23.711138,34.70344 25.050173,35.531009 C 26.338347,36.327144 26.245841,39.366332 24.839485,42.452947 C 23.270904,45.895607 22,45.663451 22,41.934259 z M 30.563824,34.871544 C 29.153721,33.762356 28,32.212501 28,31.42742 C 28,29.308403 29.550409,29.696908 31.282674,32.25 C 32.511626,34.061285 33.061867,34.256269 34.104646,33.25 C 34.817091,32.5625 35.988813,32 36.708474,32 C 37.762369,32 37.776283,32.385366 36.779986,33.98069 C 34.954018,36.90453 33.426626,37.123424 30.563824,34.871544 z M 22.597766,34.264432 C 21.381687,33.048354 22.05076,28.917752 23.557471,28.339573 C 24.414079,28.010861 24.878203,27.124984 24.588855,26.370958 C 24.299508,25.616931 24.427373,25 24.873,25 C 26.281345,25 25.936164,33.810519 24.506323,34.3592 C 23.785388,34.635849 22.926537,34.593203 22.597766,34.264432 z "
       id="path1899" />
    <path
       style="fill:#aa2023"
       d="M 21.406196,44.616147 C 21.079026,43.763554 21.043263,42.488633 21.326723,41.782989 C 21.610183,41.077345 21.877632,41.5125 21.921053,42.75 C 21.996955,44.913226 23.38491,45.807162 24.25,44.25 C 24.479167,43.8375 24.601042,43.921875 24.520833,44.4375 C 24.26361,46.091076 22.021528,46.219675 21.406196,44.616147 z M 22.030409,36.416667 C 21.997624,34.17054 24.937057,33.460611 26.234687,35.401254 C 27.56861,37.396173 27.028533,38.42128 25.642348,36.525559 C 24.322694,34.720825 24.253575,34.722472 23.172757,36.58443 C 22.099123,38.434009 22.05977,38.42823 22.030409,36.416667 z M 28.654988,34.171259 C 26.779497,32.098866 26.537324,30.403984 27.988546,29.507079 C 28.560389,29.153661 28.720031,29.566014 28.367264,30.485307 C 28.031371,31.360632 28.555335,32.956157 29.533706,34.037245 C 30.510654,35.11676 31.084975,36 30.809975,36 C 30.534975,36 29.565231,35.177067 28.654988,34.171259 z M 36.927213,33.75 C 37.882712,32.481006 37.920152,32 37.063428,32 C 36.413624,32 36.184314,31.51079 36.553851,30.912868 C 37.037039,30.131052 37.533058,30.133058 38.320011,30.920011 C 39.112377,31.712377 38.889424,32.495136 37.511911,33.757143 C 35.702293,35.415021 35.673784,35.414673 36.927213,33.75 z M 24.167059,27.895896 C 23.515855,26.853153 23.399365,26 23.908193,26 C 24.41702,26 25.060307,26.5625 25.337719,27.25 C 25.639036,27.996741 25.87389,27.795438 25.921053,26.75 C 25.964474,25.7875 25.55,25 25,25 C 24.45,25 24,24.45 24,23.777778 C 24,23.101937 24.959716,23.515272 26.146825,24.702381 C 28.036498,26.592053 28.117415,27.025442 26.822358,28.320499 C 25.527301,29.615556 25.209242,29.564696 24.167059,27.895896 z M 30.243769,5.277685 C 29.552843,5.0310071 29.2419,4.4176142 29.552786,3.9145898 C 29.863673,3.4115654 29.641476,3 29.059017,3 C 28.476558,3 28,2.45 28,1.7777778 C 28,1.1055556 28.9875,1.5430556 30.194444,2.75 C 32.446804,5.0023591 32.46767,6.0716726 30.243769,5.277685 z "
       id="path1897" />
    <path
       style="fill:#591a65"
       d="M 21,58 C 19.718103,57.171574 19.754453,57.028399 21.25,57.015313 C 22.2125,57.006891 23,57.45 23,58 C 23,59.21961 22.887213,59.21961 21,58 z M 24,58.559017 C 24,58.316476 24.45,57.839919 25,57.5 C 25.55,57.160081 26,57.358524 26,57.940983 C 26,58.523442 25.55,59 25,59 C 24.45,59 24,58.801558 24,58.559017 z M 16.494452,55.993869 C 14.285321,53.552808 14.911267,52.6617 18.025786,53.813835 C 19.568386,54.38448 19.945409,54.915705 19.154658,55.404416 C 18.501653,55.807995 18.226274,56.557102 18.542705,57.069098 C 19.543365,58.6882 18.380199,58.077597 16.494452,55.993869 z M 21.270833,54.395833 C 21.603125,54.063542 22.465625,54.028015 23.1875,54.316886 C 23.985233,54.636112 23.748276,54.873069 22.583333,54.921053 C 21.529167,54.964474 20.938542,54.728125 21.270833,54.395833 z M 26.684824,51.902768 C 26.383183,50.74929 26.568392,48.83679 27.096401,47.652768 C 28.007882,45.608835 28.032308,45.621925 27.579549,47.911673 C 27.317272,49.238093 27.545411,51.150593 28.086525,52.161673 C 28.658902,53.231169 28.686208,54 28.151815,54 C 27.646611,54 26.986465,53.056245 26.684824,51.902768 z M 30.872445,48.25 C 29.602929,46.631245 29.649994,46.610023 31.5,47.967032 C 32.6,48.7739 33.6875,49.5614 33.916667,49.717032 C 34.145833,49.872665 33.863433,50 33.289111,50 C 32.714789,50 31.627289,49.2125 30.872445,48.25 z M 23,46 C 23.825,45.466844 24.95,45.030626 25.5,45.030626 C 26.05,45.030626 25.825,45.466844 25,46 C 24.175,46.533156 23.05,46.969374 22.5,46.969374 C 21.95,46.969374 22.175,46.533156 23,46 z M 25.078947,42.583333 C 25.035526,41.529167 25.271875,40.938542 25.604167,41.270833 C 25.936458,41.603125 25.971985,42.465625 25.683114,43.1875 C 25.363888,43.985233 25.126931,43.748276 25.078947,42.583333 z M 26.564293,37.706872 C 26.939824,36.720651 27.498985,36.165651 27.806872,36.473539 C 28.114759,36.781426 27.807506,37.588333 27.124088,38.266667 C 26.136472,39.246934 26.021608,39.13207 26.564293,37.706872 z M 31,8.118034 C 31,7.568034 31.45,6.8399187 32,6.5 C 32.55,6.1600813 33,6.331966 33,6.881966 C 33,7.431966 32.55,8.1600813 32,8.5 C 31.45,8.8399187 31,8.668034 31,8.118034 z "
       id="path1895" />
    <path
       style="fill:#050202"
       d="M 10.236879,58.60398 L 7.0336667,55.207961 L 9.6486853,53.494535 C 12.442619,51.663879 18.368154,51.956753 20.413693,54.026604 C 21.20323,54.825524 20.710835,54.8278 18.611312,54.034932 C 14.914043,52.63869 14.168196,53.413584 16.589464,56.135523 C 18.491822,58.274115 18.490564,58.277513 16.295478,56.929509 C 13.45647,55.186071 12.366514,56.314233 13.816121,59.495774 C 15.39695,62.965317 14.029155,62.624522 10.236879,58.60398 z M 12.35674,58.487265 C 12.03747,57.655261 12.340718,56.294386 13.030625,55.463099 C 14.768142,53.369519 13.823774,52.799411 10.902188,54.178179 L 8.4500757,55.335391 L 10.475038,57.649625 C 12.868483,60.384983 13.129559,60.501201 12.35674,58.487265 z M 39.245916,58.359619 C 40.026088,56.647327 40.00266,55.301253 39.160515,53.452947 C 37.737827,50.330488 37.683888,48.852851 39.080099,51.25 C 40.725283,54.07461 42.833439,53.32107 43.276604,49.75 C 43.55727,47.488372 43.728595,48.076108 43.839963,51.682612 C 43.967793,55.822253 44.384315,56.987202 45.909695,57.471338 C 46.960027,57.804701 48.344425,58.71008 48.986134,59.483292 C 49.967514,60.665783 49.201066,60.875636 44.161839,60.804185 C 38.24001,60.72022 38.183221,60.69198 39.245916,58.359619 z M 45.75,58.636204 C 44.141763,58.038356 43,56.863692 43,55.806958 C 43,54.813131 42.55,54 42,54 C 41.45,54 41,54.638196 41,55.418213 C 41,56.198229 40.76718,57.443144 40.482623,58.184689 C 40.100447,59.180621 41.080404,59.549355 44.232623,59.595721 C 48.240649,59.654676 48.332868,59.596361 45.75,58.636204 z M 20.492743,58.567842 C 18.661826,57.182635 18.762617,57.156276 21.733893,58.243259 C 24.583249,59.28564 25.144037,59.19288 26.45004,57.463158 C 27.265279,56.383421 28.526476,53.763156 29.252698,51.640347 C 30.441315,48.165919 30.711109,47.946982 31.955824,49.446771 C 32.72001,50.367559 32.847624,50.975775 32.241102,50.806424 C 31.637508,50.637891 30.065114,52.525 28.746893,55 C 26.140858,59.89291 23.660992,60.964828 20.492743,58.567842 z M 22.194949,51.5 C 22.174569,49.85 22.382014,49.053936 22.655937,49.730968 C 22.92986,50.408001 22.946534,51.758001 22.692991,52.730968 C 22.439447,53.703936 22.215328,53.15 22.194949,51.5 z M 34,49.616631 C 34,49.405779 34.900621,48.997745 36.00138,48.70989 C 37.102139,48.422035 37.750581,48.594551 37.442363,49.093259 C 36.904112,49.964167 34,50.405705 34,49.616631 z M 21.009097,46.510962 C 20.225122,45.56633 20.014118,43.738283 20.431966,41.510962 C 20.995845,38.505226 20.819405,38 19.205828,38 C 15.624684,38 13.432791,28.545558 16.436078,26.053051 C 17.506476,25.164699 18.401486,25.144501 19.950914,25.97373 C 22.800897,27.498994 23.641135,25.140499 21.631951,21.255166 C 20.799935,19.646224 20.140234,16.793108 20.165949,14.914909 C 20.191663,13.036709 19.887385,10.2625 19.489774,8.75 L 18.766846,6 L 25,6 L 31.233154,6 L 30.555979,8.75 C 28.955995,15.247517 28.797953,17.257094 29.83647,17.898933 C 30.604891,18.373843 30.488466,19.432092 29.446929,21.439655 C 27.75597,24.698981 28.31064,27.495749 31.294516,30.755606 L 33.359162,33.011213 L 35.52949,30.972295 C 37.496844,29.124062 37.823424,29.082313 39.021483,30.525885 C 40.152775,31.889009 39.893268,32.568271 37.219837,35.241702 C 34.427427,38.034112 33.826551,38.242002 31.548264,37.203944 C 29.304809,36.181758 29,36.269759 29,37.939651 C 29,42.062206 30.077575,42.999066 34.856989,43.031803 C 37.410645,43.049295 40.373508,43.724295 41.44113,44.531803 C 42.508751,45.339312 42.872809,46 42.250147,46 C 41.627485,46 40.839919,45.55 40.5,45 C 40.160081,44.45 37.674356,44 34.976167,44 C 29.493263,44 28,42.515707 28,37.065741 C 28,35.379584 27.55,34 27,34 C 25.544193,34 25.772319,28.251595 27.25,27.700397 C 28.118498,27.376433 27.813296,26.520173 26.25,24.894841 C 24.359831,22.929666 24,22.830982 24,24.277778 C 24,25.225 24.1125,26.241414 24.25,26.536475 C 24.3875,26.831535 23.922942,27.429591 23.217648,27.865486 C 21.685998,28.812098 20.860254,43.60101 22.191144,46.25 C 23.266995,48.391366 22.677672,48.521471 21.009097,46.510962 z M 20.710856,32.023375 L 20.5,27.046751 L 18.068589,29.477514 C 15.950806,31.594732 15.786803,32.236668 16.79715,34.454138 C 17.435135,35.854362 18.624155,37 19.439418,37 C 20.578823,37 20.872937,35.84879 20.710856,32.023375 z M 36.930455,34.574028 C 39.977867,31.330206 38.642168,29.048087 35.450902,32.046125 L 33.112797,34.242661 L 30.629703,31.371331 C 28.328886,28.710776 28.092233,28.64003 27.405846,30.407583 C 26.862299,31.807302 27.390097,32.938797 29.388305,34.657583 C 32.822552,37.611597 34.089997,37.597556 36.930455,34.574028 z M 18.757007,26.423674 C 17.772824,25.439491 16,26.950361 16,28.773303 C 16,30.299776 16.131535,30.297037 17.690476,28.738095 C 18.620238,27.808333 19.100177,26.766844 18.757007,26.423674 z M 28.486144,17.936912 C 27.891682,15.230348 27.461645,14.921493 24.666323,15.193493 C 20.5361,15.595386 20.061247,18.225491 23.537286,21.446975 C 25.89343,23.630576 26.391049,23.751808 27.685318,22.457539 C 28.692537,21.45032 28.944912,20.025673 28.486144,17.936912 z "
       id="path1893" />
  </g>
</svg>
