<?xml version="1.0" encoding="UTF-8" standalone="no"?>
<!-- Created with Inkscape (http://www.inkscape.org/) -->
<svg
   xmlns:dc="http://purl.org/dc/elements/1.1/"
   xmlns:cc="http://web.resource.org/cc/"
   xmlns:rdf="http://www.w3.org/1999/02/22-rdf-syntax-ns#"
   xmlns:svg="http://www.w3.org/2000/svg"
   xmlns="http://www.w3.org/2000/svg"
   xmlns:xlink="http://www.w3.org/1999/xlink"
   xmlns:sodipodi="http://sodipodi.sourceforge.net/DTD/sodipodi-0.dtd"
   xmlns:inkscape="http://www.inkscape.org/namespaces/inkscape"
   id="svg2"
   sodipodi:version="0.32"
   inkscape:version="0.44"
   width="20"
   height="20"
   version="1.0"
   sodipodi:docbase="/home/kde4/Developpements/C++/ksirk/ksirk/skins/default/Images"
   sodipodi:docname="newNetGame.svg">
  <metadata
     id="metadata7">
    <rdf:RDF>
      <cc:Work
         rdf:about="">
        <dc:format>image/svg+xml</dc:format>
        <dc:type
           rdf:resource="http://purl.org/dc/dcmitype/StillImage" />
      </cc:Work>
    </rdf:RDF>
  </metadata>
  <defs
     id="defs5" />
  <sodipodi:namedview
     inkscape:window-height="582"
     inkscape:window-width="928"
     inkscape:pageshadow="2"
     inkscape:pageopacity="0.0"
     guidetolerance="10.0"
     gridtolerance="10.0"
     objecttolerance="10.0"
     borderopacity="1.0"
     bordercolor="#666666"
     pagecolor="#ffffff"
     id="base"
     inkscape:zoom="18.95"
     inkscape:cx="10"
     inkscape:cy="9.9736148"
     inkscape:window-x="666"
     inkscape:window-y="0"
     inkscape:current-layer="svg2" />
  <g
     id="g1891">
    <path
       style="fill:#a5b8c4"
       d="M 3.25,19.315086 C 4.2125,19.061132 5,18.40979 5,17.867659 C 5,17.325528 5.45,17.160081 6,17.5 C 7.8083253,18.617606 7.0468482,19.56197 4.25,19.670302 C 2.7375,19.728887 2.2875,19.56904 3.25,19.315086 z M 8.6131117,18.565832 C 9.3152852,16.735997 10.59577,16.536926 11.565983,18.106763 C 12.043999,18.880208 12.536447,18.804917 13.201131,17.856763 C 13.971081,16.75845 14.075447,16.785735 13.749012,18 C 13.527225,18.825 12.145721,19.642124 10.679004,19.815832 C 8.6023123,20.06178 8.1451978,19.785196 8.6131117,18.565832 z M 15.271113,17.94902 C 15.120693,15.952142 16.448557,15.29873 17.429973,16.886693 C 17.731376,17.374374 17.401968,18.251433 16.697954,18.835713 C 15.736041,19.63403 15.381442,19.413668 15.271113,17.94902 z M 18.152927,15.436293 C 17.510471,14.026255 17.399804,13.129059 17.907002,13.442524 C 18.4142,13.755989 19.017614,13.447157 19.247923,12.756231 C 19.478232,12.065304 19.666667,12.9625 19.666667,14.75 C 19.666667,16.5375 19.588898,18 19.493848,18 C 19.398798,18 18.795384,16.846332 18.152927,15.436293 z M 1.5642929,9.2931281 C 1.0216083,7.8679296 1.1364719,7.7530661 2.1240877,8.7333333 C 2.8075061,9.4116667 3.114759,10.218574 2.8068719,10.526461 C 2.4989848,10.834349 1.9398243,10.279349 1.5642929,9.2931281 z M 16.729314,6.3959807 C 16.380572,6.0472389 16.74881,5.1083333 17.547619,4.3095238 C 19.330342,2.5268005 19.40071,1.2811637 17.75,0.72703296 C 17.005543,0.47712437 17.096549,0.34995433 17.975022,0.41259352 C 18.930968,0.48075695 19.520436,1.7463292 19.650071,4.0088847 C 19.760087,5.9289981 19.604354,6.8865813 19.303999,6.1368474 C 18.919425,5.1768921 18.551662,5.1073915 18.060644,5.9018757 C 17.677154,6.5223752 17.078056,6.7447225 16.729314,6.3959807 z M 5.5834502,2.3568719 C 5.2366601,1.4531515 5.1885152,0.47815149 5.4764614,0.19020526 C 5.7644076,-0.097740965 6,0.21822431 6,0.89235033 C 6,1.5664763 6.375,1.8862712 6.8333333,1.6030057 C 7.2916667,1.3197401 7.6666667,1.7431824 7.6666667,2.5439887 C 7.6666667,4.5083266 6.3641461,4.3913328 5.5834502,2.3568719 z M 9,3.059017 C 9,2.4765576 9.45,2 10,2 C 11.281385,2 11.281385,2.7080605 10,3.5 C 9.45,3.8399187 9,3.6414763 9,3.059017 z M 0.73333333,0.87591232 C 1.4116667,0.19249388 2.2185743,-0.11475904 2.5264614,0.19312807 C 2.8343485,0.50101517 2.2793485,1.0601757 1.2931281,1.4357071 C -0.13207038,1.9783917 -0.24693394,1.8635281 0.73333333,0.87591232 z "
       id="path1907" />
    <path
       style="fill:#9cb7c2"
       d="M 15.654976,19.25 C 15.400294,18.8375 16.342718,18.430809 17.749252,18.346243 C 19.593061,18.235386 19.915051,18.440372 18.903292,19.08093 C 17.171551,20.17732 16.256906,20.224926 15.654976,19.25 z M 1,3.940983 C 1,2.8085237 1.4303467,2.1479349 1.9563261,2.473008 C 2.4823054,2.7980811 2.6591604,3.7246388 2.3493372,4.532025 C 1.5561115,6.5991382 1,6.3555481 1,3.940983 z M 10.638374,1.5 C 10.321791,0.675 10.498646,-2.0922391e-16 11.031385,-1.3498317e-16 C 11.564123,-6.0742427e-17 12,0.675 12,1.5 C 12,3.42067 11.375404,3.42067 10.638374,1.5 z M 6,0.9686152 C 6,0.43587684 6.675,0 7.5,0 C 9.42067,0 9.42067,0.62459615 7.5,1.3616264 C 6.675,1.6782086 6,1.5013536 6,0.9686152 z "
       id="path1905" />
    <path
       style="fill:#a5b5bb"
       d="M 7,19.059017 C 7,18.476558 7.45,18 8,18 C 9.281385,18 9.281385,18.708061 8,19.5 C 7.45,19.839919 7,19.641476 7,19.059017 z M 0.083333333,9.7170323 C 0.3125,9.5614001 1.4,8.7739001 2.5,7.9670323 C 4.3500061,6.6100229 4.3970708,6.6312446 3.1275553,8.25 C 2.3727107,9.2125 1.2852107,10 0.71088862,10 C 0.13656654,10 -0.14583333,9.8726646 0.083333333,9.7170323 z M 15.131121,8.6579907 C 14.014436,7.3124676 14.554911,6 16.225684,6 C 16.716476,6 16.839919,6.45 16.5,7 C 16.160081,7.55 16.358524,8 16.940983,8 C 17.523442,8 18,8.45 18,9 C 18,10.422842 16.441635,10.237064 15.131121,8.6579907 z M 7.5380351,4.938458 C 8.1559139,3.938709 13,3.128738 13,4.0251725 C 13,4.4364783 11.673766,4.9676512 10.052813,5.2055565 C 8.4318595,5.4434619 7.3002096,5.3232676 7.5380351,4.938458 z M 4.5,3 C 4.1600813,2.45 4.3585237,2 4.940983,2 C 5.5234424,2 6,2.45 6,3 C 6,4.281385 5.2919395,4.281385 4.5,3 z "
       id="path1903" />
    <path
       style="fill:#9ab3ba"
       d="M 12.458881,18.933469 C 12.096348,18.346877 12.014198,17.652469 12.276326,17.390341 C 12.538454,17.128212 13.019392,17.608151 13.345077,18.456872 C 14.021261,20.218979 13.444931,20.52893 12.458881,18.933469 z M 18.035184,13.065741 C 16.688135,10.548759 16.72677,9.7422568 18.171326,10.223775 C 18.815556,10.438519 19.415352,11.601019 19.504207,12.807109 C 19.703028,15.505836 19.37225,15.564072 18.035184,13.065741 z M 2.4030349,6.4597056 C 2.7195141,4.3033954 3.6906647,3.7515017 4.3133191,5.3741131 C 4.621537,6.1773162 4.2715201,7.0655664 3.5355036,7.3480024 C 2.769599,7.6419076 2.2852811,7.2620136 2.4030349,6.4597056 z M 6,5.059017 C 6,4.4765576 6.45,4 7,4 C 8.281385,4 8.281385,4.7080605 7,5.5 C 6.45,5.8399187 6,5.6414763 6,5.059017 z M 12.564293,2.2931281 C 12.021608,0.86792962 12.136472,0.75306606 13.124088,1.7333333 C 13.807506,2.4116667 14.114759,3.2185743 13.806872,3.5264614 C 13.498985,3.8343485 12.939824,3.2793485 12.564293,2.2931281 z "
       id="path1901" />
    <path
       style="fill:#6b5954"
       d="M 4.5,15 C 4.1245632,13.817103 4.0423877,12.624279 4.3173877,12.349279 C 4.5923877,12.074279 5.1245632,12.817103 5.5,14 C 5.8754368,15.182897 5.9576123,16.375721 5.6826123,16.650721 C 5.4076123,16.925721 4.8754368,16.182897 4.5,15 z M 14.635139,13.508429 C 14.956696,12.670465 14.532412,11.7578 13.666896,11.425671 C 12.81956,11.100517 12.370024,10.199308 12.667927,9.4229848 C 12.96583,8.6466611 13.619757,8.2649968 14.121097,8.5748419 C 14.622437,8.884687 14.773726,9.5571024 14.457295,10.069098 C 14.140864,10.581094 14.358524,11 14.940983,11 C 15.523442,11 16,11.9 16,13 C 16,14.1 15.564123,15 15.031385,15 C 14.498646,15 14.320336,14.328793 14.635139,13.508429 z M 8,13.04569 C 8.825,12.487404 10.3625,12.023735 11.416667,12.015313 C 13.975114,11.994873 13.176928,12.567229 9.5,13.3897 C 7.3090844,13.879774 6.9045422,13.786996 8,13.04569 z M 6.1149004,9.6070777 C 3.4559992,8.1332591 4.1429766,7.355686 8.8341565,6.5292175 C 12.964915,5.8014812 12.910231,6.6799964 8.75,7.8812198 C 5.5691613,8.7996539 5.5585211,8.8215427 8.25,8.9098117 C 9.7625,8.9594153 11,9.45 11,10 C 11,11.361403 8.9878877,11.199563 6.1149004,9.6070777 z M 13.733333,5.8759123 C 14.411667,5.1924939 15.218574,4.885241 15.526461,5.1931281 C 15.834349,5.5010152 15.279349,6.0601757 14.293128,6.4357071 C 12.86793,6.9783917 12.753066,6.8635281 13.733333,5.8759123 z "
       id="path1899" />
    <path
       style="fill:#fe0000"
       d="M 1.0702853,17.25 C 1.1089422,16.2875 1.5273138,14.6 2,13.5 C 2.7349048,11.789785 2.8696133,11.753561 2.9297147,13.25 C 2.9683716,14.2125 3.45,15 4,15 C 4.55,15 5,15.9 5,17 C 5,18.333333 4.3333333,19 3,19 C 1.7351294,19 1.0258344,18.356762 1.0702853,17.25 z M 8,11.616631 C 8,11.405779 8.900621,10.997745 10.00138,10.70989 C 11.102139,10.422035 11.750581,10.594551 11.442363,11.093259 C 10.904112,11.964167 8,12.405705 8,11.616631 z M 13,5.8 C 13.55,5.14 14,3.79 14,2.8 C 14,1.6666667 14.740741,1 16,1 C 17.333333,1 18,1.6666667 18,3 C 18,4.2592593 17.333333,5 16.2,5 C 15.21,5 13.86,5.45 13.2,6 C 12.327273,6.7272727 12.272727,6.6727273 13,5.8 z "
       id="path1897" />
    <path
       style="fill:#9b2728"
       d="M 7.5334184,15.054072 C 6.9039308,14.03554 14.020206,11.686872 14.942199,12.608866 C 15.757852,13.424518 11.904039,16 9.8678874,16 C 8.905468,16 7.854957,15.574332 7.5334184,15.054072 z M 5,12.039427 C 5,10.917742 5.4234424,10 5.940983,10 C 7.5966914,10 7.8342172,11.459203 6.3950395,12.789427 C 5.2361772,13.860556 5,13.733583 5,12.039427 z M 10.300297,8.1092447 C 9.2754609,6.4682208 9.3757696,6.2855052 11.059751,6.7258761 C 12.126888,7.0049387 13,7.8557786 13,8.6166314 C 13,10.577143 11.687472,10.330464 10.300297,8.1092447 z "
       id="path1895" />
    <path
       style="fill:#030107"
       d="M 14,18.372192 C 14,17.033145 13.29043,16.857848 10,17.384009 C 6.0771531,18.011298 6,17.965542 6,15.011818 C 6,12.780011 6.4532213,12.020446 7.75,12.078947 C 8.7954376,12.12611 8.9967412,12.360964 8.25,12.662281 C 7.5625,12.939693 7,13.966738 7,14.944602 C 7,16.537674 7.4678963,16.615468 11.5,15.692792 C 14.841251,14.928205 16,14.186523 16,12.812471 C 16,11.328922 15.45459,11.069402 13.25,11.503948 C 10.614253,12.02348 10.598222,12.003083 12.864145,11.012999 C 14.746774,10.190395 14.991477,9.6946563 14.065587,8.579027 C 13.179468,7.5113194 13.18907,7.0011825 14.10595,6.4345192 C 14.821941,5.9920126 15.048489,6.112526 14.665519,6.7321847 C 14.311595,7.3048456 14.692066,8.3294745 15.51101,9.0091379 C 16.329955,9.6888012 17,11.539789 17,13.122445 C 17,14.7051 17.45,16 18,16 C 18.55,16 19,16.54 19,17.2 C 19,18.133333 18.733333,18.133333 17.8,17.2 C 15.902337,15.302337 14.12513,15.762493 14.710251,18 C 14.997907,19.1 14.955779,20 14.616631,20 C 14.277484,20 14,19.267486 14,18.372192 z M 3.0789474,13.583333 C 3.0355263,12.529167 3.271875,11.938542 3.6041667,12.270833 C 3.9364583,12.603125 3.9719846,13.465625 3.683114,14.1875 C 3.3638877,14.985233 3.1269313,14.748276 3.0789474,13.583333 z M 3,9.6224447 C 3,7.5925438 5.2449318,6.0776621 9.0953077,5.5093265 L 12.5,5.006776 L 9,6.0816706 C 4.0445187,7.603562 2.9822599,8.9956903 7.0863068,8.589634 C 8.9638381,8.4038702 9.6,8.4583125 8.5,8.7106169 C 7.4,8.9629213 6.0725,9.5812479 5.55,10.084676 C 4.1672329,11.416971 3,11.20539 3,9.6224447 z M 0.5,7 C 0.16008131,6.45 0.35852366,6 0.94098301,6 C 1.5234424,6 2,6.45 2,7 C 2,8.281385 1.2919395,8.281385 0.5,7 z M 16.75,7.3377193 C 17.4375,7.060307 18.5625,7.060307 19.25,7.3377193 C 19.9375,7.6151316 19.375,7.8421053 18,7.8421053 C 16.625,7.8421053 16.0625,7.6151316 16.75,7.3377193 z M 3,3 C 1.6056967,0.39472037 3.140903,0.39472037 4.7679271,3 C 5.4598083,4.1078779 5.582801,5 5.0436576,5 C 4.5083481,5 3.5887021,4.1 3,3 z M 8.0789474,2.5833333 C 8.0355263,1.5291667 8.271875,0.93854167 8.6041667,1.2708333 C 8.9364583,1.603125 8.9719846,2.465625 8.683114,3.1875 C 8.3638877,3.9852327 8.1269313,3.7482763 8.0789474,2.5833333 z M 12.100391,2.2954784 C 12.828536,1.0829915 13.639539,0.3062058 13.902621,0.56928792 C 14.165703,0.83237004 13.569949,1.8244048 12.578723,2.7738095 C 10.856783,4.4230972 10.835473,4.4017872 12.100391,2.2954784 z "
       id="path1893" />
  </g>
</svg>
