<?xml version="1.0" encoding="UTF-8" standalone="no"?>
<!-- Created with Inkscape (http://www.inkscape.org/) -->
<svg
   xmlns:dc="http://purl.org/dc/elements/1.1/"
   xmlns:cc="http://web.resource.org/cc/"
   xmlns:rdf="http://www.w3.org/1999/02/22-rdf-syntax-ns#"
   xmlns:svg="http://www.w3.org/2000/svg"
   xmlns="http://www.w3.org/2000/svg"
   xmlns:xlink="http://www.w3.org/1999/xlink"
   xmlns:sodipodi="http://sodipodi.sourceforge.net/DTD/sodipodi-0.dtd"
   xmlns:inkscape="http://www.inkscape.org/namespaces/inkscape"
   id="svg2"
   sodipodi:version="0.32"
   inkscape:version="0.44"
   width="20"
   height="20"
   version="1.0"
   sodipodi:docbase="/home/kde4/Developpements/C++/ksirk/ksirk/skins/default/Images"
   sodipodi:docname="nouveauJeu.svg">
  <metadata
     id="metadata7">
    <rdf:RDF>
      <cc:Work
         rdf:about="">
        <dc:format>image/svg+xml</dc:format>
        <dc:type
           rdf:resource="http://purl.org/dc/dcmitype/StillImage" />
      </cc:Work>
    </rdf:RDF>
  </metadata>
  <defs
     id="defs5" />
  <sodipodi:namedview
     inkscape:window-height="582"
     inkscape:window-width="928"
     inkscape:pageshadow="2"
     inkscape:pageopacity="0.0"
     guidetolerance="10.0"
     gridtolerance="10.0"
     objecttolerance="10.0"
     borderopacity="1.0"
     bordercolor="#666666"
     pagecolor="#ffffff"
     id="base"
     inkscape:zoom="18.95"
     inkscape:cx="10"
     inkscape:cy="9.9736148"
     inkscape:window-x="666"
     inkscape:window-y="0"
     inkscape:current-layer="svg2" />
  <g
     id="g1891">
    <path
       style="fill:#a5b8c4"
       d="M 4.5,17.811031 L 2.5,15.740928 L 4.75,16.905648 C 5.9875,17.546244 7,18.504535 7,19.035184 C 7,20.312024 6.8411495,20.234241 4.5,17.811031 z M 8.6131117,18.565832 C 9.3152852,16.735997 10.59577,16.536926 11.565983,18.106763 C 12.043999,18.880208 12.536447,18.804917 13.201131,17.856763 C 13.971081,16.75845 14.075447,16.785735 13.749012,18 C 13.527225,18.825 12.145721,19.642124 10.679004,19.815832 C 8.6023123,20.06178 8.1451978,19.785196 8.6131117,18.565832 z M 15.2772,18.029824 C 15.199799,17.002306 15.809287,15.903425 16.631618,15.587867 C 17.459534,15.270166 17.806395,14.495758 17.408874,13.852554 C 16.983,13.163476 17.125861,12.959752 17.760081,13.351722 C 18.348085,13.715129 19.017614,13.447157 19.247923,12.756231 C 19.478232,12.065304 19.666667,13.075 19.666667,15 C 19.666667,16.925 19.479167,17.9375 19.25,17.25 C 19.020833,16.5625 18.394276,16 17.85765,16 C 17.321024,16 17.128569,16.399012 17.429973,16.886693 C 17.731376,17.374374 17.401968,18.251433 16.697954,18.835713 C 15.739072,19.631514 15.382621,19.429325 15.2772,18.029824 z M 1.5642929,9.2931281 C 1.0216083,7.8679296 1.1364719,7.7530661 2.1240877,8.7333333 C 2.8075061,9.4116667 3.114759,10.218574 2.8068719,10.526461 C 2.4989848,10.834349 1.9398243,10.279349 1.5642929,9.2931281 z M 1.1661542,6.1238507 C 0.068462806,5.428025 0.083216785,5.1820443 1.2494875,4.7345043 C 2.0578885,4.4242917 2.6666667,4.7940816 2.6666667,5.5953408 C 2.6666667,6.3679034 2.6291667,6.9931093 2.5833333,6.9846872 C 2.5375,6.9762652 1.8997694,6.5888888 1.1661542,6.1238507 z M 19.078947,6.2177758 C 19.035526,5.5125525 17.9875,4.5285763 16.75,4.0311621 C 15.493434,3.5260843 15.162289,3.1055469 16,3.0786991 C 18.335142,3.0038601 20.300323,4.6264412 19.700832,6.1343459 C 19.294453,7.1565139 19.138038,7.177498 19.078947,6.2177758 z M 5.5834502,2.3568719 C 5.2366601,1.4531515 5.1885152,0.47815149 5.4764614,0.19020526 C 5.7644076,-0.097740965 6,0.21822431 6,0.89235033 C 6,1.5664763 6.375,1.8862712 6.8333333,1.6030057 C 7.2916667,1.3197401 7.6666667,1.7431824 7.6666667,2.5439887 C 7.6666667,4.5083266 6.3641461,4.3913328 5.5834502,2.3568719 z M 9,3.059017 C 9,2.4765576 9.45,2 10,2 C 11.281385,2 11.281385,2.7080605 10,3.5 C 9.45,3.8399187 9,3.6414763 9,3.059017 z M 19,2.1076497 C 19,1.4335237 18.581094,1.140864 18.069098,1.4572949 C 17.557102,1.7737258 16.855545,1.5752834 16.510081,1.0163119 C 16.164618,0.45734035 16.556966,1.558649e-16 17.381966,2.016616e-16 C 19.059447,2.9478051e-16 20.52612,1.8072137 19.600136,2.7331978 C 19.270061,3.0632724 19,2.7817757 19,2.1076497 z M 0.73333333,0.87591232 C 1.4116667,0.19249388 2.2185743,-0.11475904 2.5264614,0.19312807 C 2.8343485,0.50101517 2.2793485,1.0601757 1.2931281,1.4357071 C -0.13207038,1.9783917 -0.24693394,1.8635281 0.73333333,0.87591232 z "
       id="path1907" />
    <path
       style="fill:#9bb8c2"
       d="M 15.654976,19.25 C 15.400294,18.8375 16.342718,18.430809 17.749252,18.346243 C 19.593061,18.235386 19.915051,18.440372 18.903292,19.08093 C 17.171551,20.17732 16.256906,20.224926 15.654976,19.25 z M 1,3.559017 C 1,1.8024909 1.600055,1.5438584 2.4572949,2.9309017 C 2.7737258,3.4428976 2.5752834,4.1444553 2.0163119,4.4899187 C 1.4573404,4.8353821 1,4.4164763 1,3.559017 z M 10.638374,1.5 C 10.321791,0.675 10.498646,-2.0922391e-16 11.031385,-1.3498317e-16 C 11.564123,-6.0742427e-17 12,0.675 12,1.5 C 12,3.42067 11.375404,3.42067 10.638374,1.5 z M 14,2.559017 C 14,2.3164763 14.45,1.8399187 15,1.5 C 15.55,1.1600813 16,1.3585237 16,1.940983 C 16,2.5234424 15.55,3 15,3 C 14.45,3 14,2.8015576 14,2.559017 z M 6,0.9686152 C 6,0.43587684 6.675,0 7.5,0 C 9.42067,0 9.42067,0.62459615 7.5,1.3616264 C 6.675,1.6782086 6,1.5013536 6,0.9686152 z "
       id="path1905" />
    <path
       style="fill:#a5b5bb"
       d="M 4.5,19 C 4.1600813,18.45 4.3585237,18 4.940983,18 C 5.5234424,18 6,18.45 6,19 C 6,20.281385 5.2919395,20.281385 4.5,19 z M 7,19.059017 C 7,18.476558 7.45,18 8,18 C 9.281385,18 9.281385,18.708061 8,19.5 C 7.45,19.839919 7,19.641476 7,19.059017 z M 0.57002747,17.113307 C 0.26862389,16.625626 0.63236083,15.720077 1.3783318,15.100976 C 2.4133548,14.241983 3.0621766,14.392805 4.1173213,15.737669 C 5.3564662,17.317055 5.3275769,17.365199 3.8390277,16.201442 C 2.8338699,15.415603 1.9430249,15.283171 1.5827971,15.866031 C 1.255405,16.395763 1.5528426,17.057088 2.2437694,17.335642 C 3.1429109,17.698141 3.1614578,17.864546 2.309017,17.921053 C 1.6539763,17.964474 0.87143106,17.600988 0.57002747,17.113307 z M 1,12 C 0.098708082,11.41754 -0.024632566,11.024514 0.69098301,11.015313 C 1.3460237,11.006891 2.1600813,11.45 2.5,12 C 3.2673048,13.241525 2.9211232,13.241525 1,12 z M 0.083333333,9.7170323 C 0.3125,9.5614001 1.4,8.7739001 2.5,7.9670323 C 4.3500061,6.6100229 4.3970708,6.6312446 3.1275553,8.25 C 2.3727107,9.2125 1.2852107,10 0.71088862,10 C 0.13656654,10 -0.14583333,9.8726646 0.083333333,9.7170323 z M 15.125976,8.6517918 C 14.272297,7.6231714 14.480318,6.8752932 16.003531,5.4968042 C 18.120227,3.5812206 18.840408,4.7595922 16.8,6.8 C 15.866667,7.7333333 15.866667,8 16.8,8 C 17.46,8 18,8.45 18,9 C 18,10.42506 16.440887,10.236162 15.125976,8.6517918 z M 7.5380351,4.938458 C 8.1559139,3.938709 13,3.128738 13,4.0251725 C 13,4.4364783 11.673766,4.9676512 10.052813,5.2055565 C 8.4318595,5.4434619 7.3002096,5.3232676 7.5380351,4.938458 z M 4.5,3 C 4.1600813,2.45 4.3585237,2 4.940983,2 C 5.5234424,2 6,2.45 6,3 C 6,4.281385 5.2919395,4.281385 4.5,3 z "
       id="path1903" />
    <path
       style="fill:#9ab3ba"
       d="M 12.458881,18.933469 C 12.096348,18.346877 12.014198,17.652469 12.276326,17.390341 C 12.538454,17.128212 13.019392,17.608151 13.345077,18.456872 C 14.021261,20.218979 13.444931,20.52893 12.458881,18.933469 z M 18.035184,13.065741 C 16.688135,10.548759 16.72677,9.7422568 18.171326,10.223775 C 18.815556,10.438519 19.415352,11.601019 19.504207,12.807109 C 19.703028,15.505836 19.37225,15.564072 18.035184,13.065741 z M 2.4030349,6.4597056 C 2.7195141,4.3033954 3.6906647,3.7515017 4.3133191,5.3741131 C 4.621537,6.1773162 4.2715201,7.0655664 3.5355036,7.3480024 C 2.769599,7.6419076 2.2852811,7.2620136 2.4030349,6.4597056 z M 6,5.059017 C 6,4.4765576 6.45,4 7,4 C 8.281385,4 8.281385,4.7080605 7,5.5 C 6.45,5.8399187 6,5.6414763 6,5.059017 z M 12.584097,2.3585565 C 12.05743,0.98608439 12.203761,0.92421714 13.477108,1.9810012 C 15.212353,3.4211268 15.392948,4 14.106989,4 C 13.615833,4 12.930531,3.2613504 12.584097,2.3585565 z "
       id="path1901" />
    <path
       style="fill:#6a5a54"
       d="M 7.5,12.054847 C 6.4,11.612326 5.05,11.505336 4.5,11.81709 C 3.95,12.128845 4.1176001,11.622536 4.8724447,10.691958 C 5.8405222,9.4985064 5.8967921,9 5.0634277,9 C 4.4136238,9 4.1600813,8.55 4.5,8 C 4.8399187,7.45 5.568034,7 6.118034,7 C 6.668034,7 6.8177829,7.4858165 6.4508093,8.0795922 C 6.0054972,8.8001223 7.0667879,9.0495652 9.6417923,8.8295922 C 14.019702,8.4556038 15.989687,10.328762 11.733045,10.818058 C 10.21122,10.992991 9.225278,11.555491 9.5420624,12.068058 C 10.201495,13.135043 10.184842,13.134936 7.5,12.054847 z M 12,6.6069888 C 12,6.3908326 12.698372,5.9459871 13.551938,5.6184432 C 14.441863,5.2769469 14.84326,5.4445943 14.492921,6.0114544 C 13.905663,6.9616577 12,7.4169019 12,6.6069888 z "
       id="path1899" />
    <path
       style="fill:#8a3842"
       d="M 7,14.608408 C 7,13.843032 8.2375,12.921663 9.75,12.56092 C 11.2625,12.200178 13.2875,11.67107 14.25,11.385125 C 17.09839,10.538909 16.341243,13.919761 13.4349,15.024751 C 9.7870053,16.411678 7,16.231357 7,14.608408 z M 4,13.5 C 4,12.675 4.45,12 5,12 C 5.55,12 6,12.675 6,13.5 C 6,14.325 5.55,15 5,15 C 4.45,15 4,14.325 4,13.5 z M 7.5,7 C 7.8399187,6.45 9.018034,6 10.118034,6 C 11.218034,6 11.839919,6.45 11.5,7 C 11.160081,7.55 9.981966,8 8.881966,8 C 7.781966,8 7.1600813,7.55 7.5,7 z "
       id="path1897" />
    <path
       style="fill:#180000"
       d="M 8.2708333,16.395833 C 8.603125,16.063542 9.465625,16.028015 10.1875,16.316886 C 10.985233,16.636112 10.748276,16.873069 9.5833333,16.921053 C 8.5291667,16.964474 7.9385417,16.728125 8.2708333,16.395833 z M 5.8302844,13.886718 C 5.409994,11.692983 5.6378157,11.354032 7.2493418,11.775455 C 8.305192,12.051566 8.7485036,12.552543 8.2344788,12.888738 C 7.7204539,13.224932 7.0818781,14.175 6.8154213,15 C 6.505472,15.959661 6.1506002,15.558628 5.8302844,13.886718 z M 12.75,15.337719 C 13.4375,15.060307 14.5625,15.060307 15.25,15.337719 C 15.9375,15.615132 15.375,15.842105 14,15.842105 C 12.625,15.842105 12.0625,15.615132 12.75,15.337719 z M 13.733333,10.875912 C 14.411667,10.192494 15.218574,9.885241 15.526461,10.193128 C 15.834349,10.501015 15.279349,11.060176 14.293128,11.435707 C 12.86793,11.978392 12.753066,11.863528 13.733333,10.875912 z M 4,9.6069888 C 4,9.3908326 4.698372,8.9459871 5.5519378,8.6184432 C 6.4418629,8.2769469 6.8432596,8.4445943 6.4929208,9.0114544 C 5.9056629,9.9616577 4,10.416902 4,9.6069888 z M 9.5,8 C 12.249085,6.8186776 13.827966,6.8186776 12,8 C 11.175,8.5331559 9.825,8.9446368 9,8.914402 C 8.0109448,8.8781547 8.1812598,8.5666821 9.5,8 z "
       id="path1895" />
    <path
       style="fill:#030107"
       d="M 1,19.075604 C 1,18.601709 1.675,17.954956 2.5,17.638374 C 3.325,17.321791 4,17.450501 4,17.924396 C 4,18.398291 3.325,19.045044 2.5,19.361626 C 1.675,19.678209 1,19.549499 1,19.075604 z M 14,18.739991 C 14,17.863652 13.2125,16.940853 12.25,16.689326 C 10.609911,16.260725 10.611882,16.224717 12.281385,16.116001 C 14.089361,15.998268 15.764593,18.56874 14.623539,19.709795 C 14.280592,20.052741 14,19.616329 14,18.739991 z M 5.5,17 C 4.7178178,15.734403 6.0416276,15.734403 8,17 C 9.2926874,17.835399 9.2662919,17.971491 7.809017,17.984687 C 6.8789763,17.993109 5.8399187,17.55 5.5,17 z M 17.183333,16.783333 C 16.5325,16.1325 16,14.3951 16,12.922445 C 16,11.449789 15.329955,9.6888012 14.51101,9.0091379 C 13.692066,8.3294745 13.268624,7.3743744 13.570027,6.8866932 C 13.871431,6.3990119 12.666476,6 10.89235,6 C 6.6337458,6 7.4538204,5.4388684 12.943716,4.5963646 C 17.26184,3.9336859 17.338849,3.9680944 15.668487,5.8138237 C 14.135343,7.5079291 14.114404,7.8500577 15.474772,8.9790624 C 16.313647,9.6752672 17,11.502289 17,13.039111 C 17,14.575933 17.5625,16.034226 18.25,16.279762 C 18.9375,16.525298 19.245,17.005298 18.933333,17.346429 C 18.621667,17.68756 17.834167,17.434167 17.183333,16.783333 z M 3,11.789111 C 3,9.6031647 3.6706639,7.7189185 4.75,6.8724447 C 6.2686104,5.6814682 6.3587025,5.6983339 5.4313666,7 C 4.8436183,7.825 4.2798465,9.8137718 4.1785405,11.419493 C 3.9106351,15.665848 3,15.951445 3,11.789111 z M 9.75,11.337719 C 10.4375,11.060307 11.5625,11.060307 12.25,11.337719 C 12.9375,11.615132 12.375,11.842105 11,11.842105 C 9.625,11.842105 9.0625,11.615132 9.75,11.337719 z M 0.5,7 C 0.16008131,6.45 0.35852366,6 0.94098301,6 C 1.5234424,6 2,6.45 2,7 C 2,8.281385 1.2919395,8.281385 0.5,7 z M 16.75,7.3377193 C 17.4375,7.060307 18.5625,7.060307 19.25,7.3377193 C 19.9375,7.6151316 19.375,7.8421053 18,7.8421053 C 16.625,7.8421053 16.0625,7.6151316 16.75,7.3377193 z M 3,3 C 1.6056967,0.39472037 3.140903,0.39472037 4.7679271,3 C 5.4598083,4.1078779 5.582801,5 5.0436576,5 C 4.5083481,5 3.5887021,4.1 3,3 z M 8.0789474,2.5833333 C 8.0355263,1.5291667 8.271875,0.93854167 8.6041667,1.2708333 C 8.9364583,1.603125 8.9719846,2.465625 8.683114,3.1875 C 8.3638877,3.9852327 8.1269313,3.7482763 8.0789474,2.5833333 z M 12.100391,2.2954784 C 12.828536,1.0829915 13.639539,0.3062058 13.902621,0.56928792 C 14.165703,0.83237004 13.569949,1.8244048 12.578723,2.7738095 C 10.856783,4.4230972 10.835473,4.4017872 12.100391,2.2954784 z M 16,2.6069888 C 16,2.3908326 16.675,1.9549558 17.5,1.6383736 C 18.325,1.3217914 19,1.4986464 19,2.0313848 C 19,2.5641232 18.325,3 17.5,3 C 16.675,3 16,2.823145 16,2.6069888 z "
       id="path1893" />
  </g>
</svg>
