/* XPM */
static char *ksirk[] = {
/* columns rows colors chars-per-pixel */
"32 32 41 1",
"  c #0A060700",
". c #1E0A3800",
"X c #260A0A00",
"o c #39101F00",
"O c #28113600",
"+ c #312B2B00",
"@ c #3A2E2800",
"# c #2C095900",
"$ c #3E0F6500",
"% c #443A3C00",
"& c #5A2C2800",
"* c #61111300",
"= c #5E2E7600",
"- c #7C0A6600",
"; c #5F465200",
": c #64525400",
"> c #53109400",
", c #5E09BC00",
"< c #6D169B00",
"1 c #74399400",
"2 c #85121400",
"3 c #923E3A00",
"4 c #A5151D00",
"5 c #A0126400",
"6 c #BE226200",
"7 c #895F5500",
"8 c #964E5600",
"9 c #81756F00",
"0 c #C40F1600",
"q c #DF0D1000",
"w c #80469A00",
"e c #AA6FA600",
"r c #8C8E8A00",
"t c #9E9D9800",
"y c #AA8D8100",
"u c #AEBAB600",
"i c #D8B6AA00",
"p c #F5BFAD00",
"a c #C9CACB00",
"s c gray100",
"d c None",
/* pixels */
"dddddddddddddd4ddddddddddddddddd",
"dddddddddddddd46dddddddddddddddd",
"ddddddddddddddd8dddddddddddddddd",
"dddddddddd     o;ddddddddddddddd",
"dddddddddd     Xdddddddddddddddd",
"dddddddddd     ddddddddddddddddd",
"ddddddddddd    ddddddddddddddddd",
"dddddddddd %;9+ddddddddddddddddd",
"dddddddddd@9yy;ddddddddddddddddd",
"ddddddddddo7ppyddddddddddddddddd",
"ddddddddddd7pptddddddddddddddddd",
"dddddddddddo&y ddddddddddddddddd",
"dddddddddddd4*dddddddddddddddddd",
"dddddddd99%o44*dddrtttytttttrttt",
"ddddddddtr:40*o7799iiadddddddddd",
"dddddddd9a@0q244dd23iddddddddddd",
"ddddddddua70q20q*202dddddddddddd",
"dddddddd9ay40-20000ddddddddddddd",
"dddddddd@t9205o*44dddddddddddddd",
"dddddddddd 0q5#ddddddddddddddddd",
"ddddddddddd0qi;ddddddddddddddddd",
"dddddddddd*qq-$ddddddddddddddddd",
"dddddddddd*06<,#####.ddddddddddd",
"ddddddddddX5-e,,,,,,>.dddddddddd",
"ddddddddddd$,e<#,,,,,>dddddddddd",
"ddddddddddd$,w1###.#,>dddddddddd",
"ddddddddddd#,e<dddd#>$dddddddddd",
"dddddX:OO.d#<e$ddddd.Odddddddddd",
"dddd%::.;w=>1<.ddddd+7dddddddddd",
"ddddd;Od##=1w#dddddd+:Oddddddddd",
"ddddd++ddddOOddddddd;;%;+ddddddd",
"dddddd ddddddddddddddddddddddddd"
};
