<?xml version="1.0" encoding="UTF-8" standalone="no"?>
<!-- Created with Inkscape (http://www.inkscape.org/) -->
<svg
   xmlns:dc="http://purl.org/dc/elements/1.1/"
   xmlns:cc="http://web.resource.org/cc/"
   xmlns:rdf="http://www.w3.org/1999/02/22-rdf-syntax-ns#"
   xmlns:svg="http://www.w3.org/2000/svg"
   xmlns="http://www.w3.org/2000/svg"
   xmlns:sodipodi="http://sodipodi.sourceforge.net/DTD/sodipodi-0.dtd"
   xmlns:inkscape="http://www.inkscape.org/namespaces/inkscape"
   id="svg2154"
   sodipodi:version="0.32"
   inkscape:version="0.44"
   width="64"
   height="92"
   version="1.0"
   sodipodi:docbase="/home/kde4/Developpements/C++/ksirk/ksirk/skins/default/Images/sprites"
   sodipodi:docname="cannon.svg">
  <metadata
     id="metadata2159">
    <rdf:RDF>
      <cc:Work
         rdf:about="">
        <dc:format>image/svg+xml</dc:format>
        <dc:type
           rdf:resource="http://purl.org/dc/dcmitype/StillImage" />
      </cc:Work>
    </rdf:RDF>
  </metadata>
  <defs
     id="defs2157" />
  <sodipodi:namedview
     inkscape:window-height="582"
     inkscape:window-width="928"
     inkscape:pageshadow="2"
     inkscape:pageopacity="0.0"
     guidetolerance="10.0"
     gridtolerance="10.0"
     objecttolerance="10.0"
     borderopacity="1.0"
     bordercolor="#666666"
     pagecolor="#ffffff"
     id="base"
     inkscape:zoom="4.1195652"
     inkscape:cx="32"
     inkscape:cy="45.757256"
     inkscape:window-x="666"
     inkscape:window-y="0"
     inkscape:current-layer="g1869" />
  <g
     id="g1869">
    <path
       style="fill:#f2ebe8"
       d="M 7.1571037,85.95 C 6.9970362,81.314164 8.2337506,79 10.871259,79 C 11.680452,79 13.148692,78.270423 14.134014,77.378719 C 15.841686,75.833297 16.559235,75.889226 20,77.835939 C 20.825,78.302707 22.4,79.139166 23.5,79.694737 C 25.058878,80.482071 25.527642,81.785079 25.625327,85.602433 L 25.750655,90.5 L 25.125327,85.5 C 24.607846,81.362316 24.124482,80.44653 22.322621,80.189966 C 21.125062,80.019447 19.607462,79.231947 18.950176,78.439966 C 17.427236,76.604936 15.572764,76.604936 14.049824,78.439966 C 13.392538,79.231947 11.874938,80.019447 10.677379,80.189966 C 8.8700847,80.447304 8.3992266,81.34984 7.9071037,85.5 L 7.3142074,90.5 L 7.1571037,85.95 z M 39.157104,85.95 C 38.997036,81.314164 40.233751,79 42.871259,79 C 43.680452,79 45.148692,78.270423 46.134014,77.378719 C 47.841686,75.833297 48.559235,75.889226 52,77.835939 C 52.825,78.302707 54.4,79.139166 55.5,79.694737 C 57.058878,80.482071 57.527642,81.785079 57.625327,85.602433 L 57.750655,90.5 L 57.125327,85.5 C 56.607846,81.362316 56.124482,80.44653 54.322621,80.189966 C 53.125062,80.019447 51.607462,79.231947 50.950176,78.439966 C 49.427236,76.604936 47.572764,76.604936 46.049824,78.439966 C 45.392538,79.231947 43.874938,80.019447 42.677379,80.189966 C 40.870085,80.447304 40.399227,81.34984 39.907104,85.5 L 39.314207,90.5 L 39.157104,85.95 z M 6.3526688,58.443578 C 4.7632894,56.854199 3.9833024,55.171854 4.2907372,53.996221 C 4.5627069,52.956207 4.2710514,51.925766 3.6426138,51.706352 C 3.0141762,51.486938 3.1359404,51.350749 3.9132008,51.403709 C 4.7465468,51.46049 5.3775095,52.672766 5.4509599,54.358222 C 5.7533037,61.29606 15.911921,61.764237 18.18497,54.94509 C 18.660345,53.518964 19.391754,53.776145 25.5,57.517236 C 27.7,58.864661 29.000296,59.974502 28.389547,59.98355 C 27.778798,59.992597 25.606336,58.864836 23.561855,57.477414 L 19.844617,54.954828 L 17.021099,57.977414 C 13.499819,61.746956 9.8169711,61.90788 6.3526688,58.443578 z M 31.199951,60.266673 C 33.011418,59.285508 31.743657,56.676254 27.408224,52.462696 C 24.882747,50.008213 22.32425,48 21.722675,48 C 21.1211,48 19.699899,47.145889 18.564451,46.101976 C 16.766881,44.449317 15.564368,44.29258 9.2624363,44.889539 C 5.2817763,45.266613 2.3567763,45.275248 2.7624363,44.908729 C 3.1680964,44.542211 6.5161983,44.016336 10.202663,43.740118 C 15.892234,43.313813 17.162628,43.522221 18.607651,45.118953 C 19.543929,46.153529 20.900925,47 21.623197,47 C 23.807043,47 33.197579,56.736725 32.83201,58.622034 C 32.649404,59.563762 32.027478,60.41656 31.449951,60.51714 C 30.872424,60.61772 30.759924,60.505009 31.199951,60.266673 z M 37.352669,58.443578 C 35.765364,56.856273 34.983432,55.171358 35.29002,53.998963 C 35.640809,52.657544 35.193127,52.022338 33.744024,51.805385 C 32.622151,51.637423 31.215925,50.720944 30.619078,49.768764 C 28.803963,46.87302 32.125444,44.631249 39.264191,43.933908 C 42.693886,43.598882 46.281246,42.980952 47.236102,42.56073 C 48.549277,41.982815 49.213166,42.43047 49.961351,44.398345 C 50.505382,45.829255 51.654456,47 52.514849,47 C 53.375242,47 55.84356,48.8 58,51 C 60.15644,53.2 61.502092,55 60.990337,55 C 60.478583,55 59.07624,53.669562 57.874019,52.043472 C 56.671798,50.417381 54.402392,48.638721 52.830894,48.090894 C 51.259397,47.543067 49.717649,46.427781 49.40479,45.612481 C 48.945821,44.416427 47.451501,44.24047 41.667977,44.701467 C 37.725589,45.01571 33.685351,45.691796 32.68967,46.20388 C 30.234669,47.466501 30.95925,50.282176 33.918972,50.980872 C 35.719399,51.405895 36.358756,52.264782 36.45148,54.382939 C 36.754262,61.299623 46.917236,61.748292 49.18497,54.94509 C 49.660345,53.518964 50.391754,53.776145 56.5,57.517236 C 58.7,58.864661 60.000296,59.974502 59.389547,59.98355 C 58.778798,59.992597 56.606336,58.864836 54.561855,57.477414 L 50.844617,54.954828 L 48.021099,57.977414 C 44.499819,61.746956 40.816971,61.90788 37.352669,58.443578 z M 14.978901,25.977414 L 12.155383,22.954828 L 8.4381447,25.477414 C 6.3936636,26.864836 4.2212024,27.992597 3.6104532,27.98355 C 2.9997039,27.974502 4.3,26.864661 6.5,25.517236 C 12.608246,21.776145 13.339655,21.518964 13.81503,22.94509 C 16.082764,29.748292 26.245738,29.299623 26.54852,22.382939 C 26.641244,20.264782 27.280601,19.405895 29.081028,18.980872 C 32.041237,18.282061 32.764651,15.467948 30.31033,14.19883 C 29.314649,13.683968 25.483802,13.032134 21.797337,12.750311 C 16.100208,12.314776 14.839291,12.5201 13.392349,14.118953 C 12.456071,15.153529 11.061827,16 10.29403,16 C 9.5262323,16 7.2903531,17.6875 5.3254093,19.75 L 1.7527842,23.5 L 4.4651747,19.789209 C 5.9569894,17.748274 8.150113,15.784053 9.3387826,15.424274 C 10.527452,15.064495 12.4,13.96774 13.5,12.987041 C 15.202186,11.469466 16.580065,11.306255 22.753291,11.890981 C 30.911049,12.663681 34.288434,14.725615 32.380922,17.768764 C 31.784075,18.720944 30.377849,19.637423 29.255976,19.805385 C 27.806873,20.022338 27.359191,20.657544 27.70998,21.998963 C 28.386673,24.58664 23.807976,29 20.446664,29 C 18.79365,29 16.743986,27.866943 14.978901,25.977414 z M 32.666667,28.333333 C 31.107041,26.773708 32.302087,24.458177 37.031791,19.875439 C 39.799275,17.193947 42.735413,15 43.556541,15 C 44.37767,15 45.494618,13.829255 46.038649,12.398345 C 46.789506,10.423442 47.446033,9.9835297 48.763898,10.572265 C 49.718754,10.998832 52.975,11.671011 56,12.065996 C 61.206172,12.745784 61.122496,12.768066 54.433711,12.483084 C 48.368277,12.22466 47.198563,12.452403 46.175237,14.091009 C 45.519535,15.140954 44.353165,16 43.583302,16 C 41.708711,16 33,24.540894 33,26.379362 C 33,27.179046 33.5625,28.060307 34.25,28.337719 C 34.947828,28.619299 35.021451,28.876979 34.416667,28.921053 C 33.820833,28.964474 33.033333,28.7 32.666667,28.333333 z M 47.978901,25.977414 L 45.155383,22.954828 L 41.438145,25.477414 C 39.393664,26.864836 37.221202,27.992597 36.610453,27.98355 C 35.999704,27.974502 37.3,26.864661 39.5,25.517236 C 45.608246,21.776145 46.339655,21.518964 46.81503,22.94509 C 49.076245,29.728734 59.245549,29.303938 59.547194,22.413237 C 59.614685,20.871474 60.081677,19.547774 60.584953,19.471682 C 61.088229,19.39559 61.210271,19.50491 60.856158,19.714614 C 60.502045,19.924318 60.43539,20.948928 60.708035,21.991525 C 61.3867,24.586744 56.814195,29 53.446664,29 C 51.79365,29 49.743986,27.866943 47.978901,25.977414 z "
       id="path1883" />
    <path
       style="fill:#d6cfca"
       d="M 8.5892793,80.855543 C 8.8800944,80.384994 9.9363762,80 10.936572,80 C 11.936768,80 13.315311,79.325 14,78.5 C 15.585161,76.589998 17.414839,76.589998 19,78.5 C 19.684689,79.325 21.063232,80 22.063428,80 C 23.063624,80 24.119906,80.384994 24.410721,80.855543 C 25.278918,82.260316 20.158471,80.895873 18.908095,79.389261 C 17.437766,77.617623 15.562234,77.617623 14.091905,79.389261 C 12.841529,80.895873 7.7210821,82.260316 8.5892793,80.855543 z M 40.589279,80.855543 C 40.880094,80.384994 41.936376,80 42.936572,80 C 43.936768,80 45.315311,79.325 46,78.5 C 47.585161,76.589998 49.414839,76.589998 51,78.5 C 51.684689,79.325 53.063232,80 54.063428,80 C 55.063624,80 56.119906,80.384994 56.410721,80.855543 C 57.278918,82.260316 52.158471,80.895873 50.908095,79.389261 C 49.437766,77.617623 47.562234,77.617623 46.091905,79.389261 C 44.841529,80.895873 39.721082,82.260316 40.589279,80.855543 z M 29.895717,59.085612 C 30.686464,58.584915 31.016515,57.48542 30.657172,56.548987 C 30.285137,55.57948 30.431611,55.148716 31.011454,55.507079 C 32.723446,56.565148 32.139114,60.001217 30.25,59.984687 C 28.84925,59.97243 28.778546,59.793 29.895717,59.085612 z M 21.872445,55.25 C 20.628574,53.663944 20.663944,53.628574 22.25,54.872445 C 23.915748,56.178814 24.445479,57 23.622445,57 C 23.414789,57 22.627289,56.2125 21.872445,55.25 z M 52.872445,55.25 C 51.628574,53.663944 51.663944,53.628574 53.25,54.872445 C 54.915748,56.178814 55.445479,57 54.622445,57 C 54.414789,57 53.627289,56.2125 52.872445,55.25 z M 5.0789474,54.583333 C 5.0355263,53.529167 5.271875,52.938542 5.6041667,53.270833 C 5.9364583,53.603125 5.9719846,54.465625 5.683114,55.1875 C 5.3638877,55.985233 5.1269313,55.748276 5.0789474,54.583333 z M 36.078947,54.583333 C 36.035526,53.529167 36.271875,52.938542 36.604167,53.270833 C 36.936458,53.603125 36.971985,54.465625 36.683114,55.1875 C 36.363888,55.985233 36.126931,55.748276 36.078947,54.583333 z M 26.872445,53.25 C 25.628574,51.663944 25.663944,51.628574 27.25,52.872445 C 28.915748,54.178814 29.445479,55 28.622445,55 C 28.414789,55 27.627289,54.2125 26.872445,53.25 z M 57.872445,53.25 C 56.628574,51.663944 56.663944,51.628574 58.25,52.872445 C 59.915748,54.178814 60.445479,55 59.622445,55 C 59.414789,55 58.627289,54.2125 57.872445,53.25 z M 3.5,51 C 1.5916436,50.179951 1.603099,50.13735 3.75,50.070285 C 4.9875,50.031628 6,50.45 6,51 C 6,51.55 5.8875,51.968372 5.75,51.929715 C 5.6125,51.891058 4.6,51.472686 3.5,51 z M 34.188851,51.286254 C 31.519729,50.776506 30.241478,48.358522 31.811268,46.788732 C 32.580378,46.019622 32.727877,46.324596 32.327419,47.85595 C 31.859675,49.644605 32.200466,50 34.383369,50 C 35.822516,50 37,50.45 37,51 C 37,51.55 36.8875,51.938718 36.75,51.863818 C 36.6125,51.788918 35.459983,51.529014 34.188851,51.286254 z M 17.964286,46.594517 C 16.8334,45.509046 14.852096,45.346833 9.2624363,45.882081 C 5.2817763,46.263257 2.3567763,46.275248 2.7624363,45.908729 C 3.1680964,45.542211 6.5161983,45.016336 10.202663,44.740118 C 15.892234,44.313813 17.162628,44.522221 18.607651,46.118953 C 20.588379,48.307633 20.114226,48.65812 17.964286,46.594517 z M 49.111464,46.634306 C 48.268767,45.618918 46.121199,45.395555 40.739019,45.763508 C 36.757559,46.035702 33.725,46.037505 34,45.767516 C 34.275,45.497527 37.675177,45.022888 41.555949,44.712764 C 47.791495,44.214462 48.751716,44.372787 49.814422,46.074451 C 51.203066,48.298022 50.7751,48.638865 49.111464,46.634306 z M 33,26.059017 C 33,24.991476 33.444846,23.843104 33.988546,23.507079 C 34.568389,23.148716 34.714863,23.57948 34.342828,24.548987 C 33.983485,25.48542 34.313536,26.584915 35.104283,27.085612 C 36.221454,27.793 36.15075,27.97243 34.75,27.984687 C 33.679144,27.994057 33,27.246739 33,26.059017 z M 8,24.622445 C 8,24.414789 8.7875,23.627289 9.75,22.872445 C 11.336056,21.628574 11.371426,21.663944 10.127555,23.25 C 8.8211855,24.915748 8,25.445479 8,24.622445 z M 41,24.622445 C 41,24.414789 41.7875,23.627289 42.75,22.872445 C 44.336056,21.628574 44.371426,21.663944 43.127555,23.25 C 41.821186,24.915748 41,25.445479 41,24.622445 z M 26.078947,22.583333 C 26.035526,21.529167 26.271875,20.938542 26.604167,21.270833 C 26.936458,21.603125 26.971985,22.465625 26.683114,23.1875 C 26.363888,23.985233 26.126931,23.748276 26.078947,22.583333 z M 59.078947,22.583333 C 59.035526,21.529167 59.271875,20.938542 59.604167,21.270833 C 59.936458,21.603125 59.971985,22.465625 59.683114,23.1875 C 59.363888,23.985233 59.126931,23.748276 59.078947,22.583333 z M 3,22.622445 C 3,22.414789 3.7875,21.627289 4.75,20.872445 C 6.3360556,19.628574 6.3714259,19.663944 5.1275553,21.25 C 3.8211855,22.915748 3,23.445479 3,22.622445 z M 36,22.622445 C 36,22.414789 36.7875,21.627289 37.75,20.872445 C 39.336056,19.628574 39.371426,19.663944 38.127555,21.25 C 36.821186,22.915748 36,23.445479 36,22.622445 z M 26,18.913517 C 26,18.411082 27.125,18 28.5,18 C 31.66693,18 31.870003,15.217403 28.75,14.574401 C 21.837437,13.149788 15.428691,13.267452 13.5,14.854389 C 11.536708,16.469796 11.532988,16.460887 13.297337,14.368953 C 14.896373,12.473025 15.834184,12.294439 21.797337,12.750311 C 29.472863,13.337091 32.253308,14.446505 31.81033,16.745556 C 31.483209,18.443315 26,20.48922 26,18.913517 z M 59,18.968615 C 59,18.435877 59.675,18 60.5,18 C 62.42067,18 62.42067,18.624596 60.5,19.361626 C 59.675,19.678209 59,19.501354 59,18.968615 z M 46.082298,14.324451 C 47.283661,12.322909 47.952459,12.194001 54.444051,12.712764 C 58.324823,13.022888 61.725,13.497527 62,13.767516 C 62.275,14.037505 59.271418,14.037775 55.325373,13.768116 C 49.614111,13.377827 47.806633,13.606429 46.463619,14.888913 C 44.893122,16.388627 44.866762,16.349606 46.082298,14.324451 z "
       id="path1881" />
    <path
       style="fill:#ceb9ab"
       d="M 8.4144904,85.508627 C 8.4823439,82.341397 8.9129622,81.442535 10.5,81.155389 C 11.6,80.956364 13.4,80.052482 14.5,79.146762 C 16.453849,77.538 16.459618,77.547968 14.75,79.578741 C 13.7875,80.722048 13,82.274548 13,83.028741 C 13,84.095276 12.733333,84.133333 11.8,83.2 C 9.8275519,81.227552 9.1358976,81.800558 8.7219882,85.75 L 8.3289807,89.5 L 8.4144904,85.508627 z M 24.160037,86.25 C 23.994983,81.866763 23.27505,81.12495 21.2,83.2 C 20.266667,84.133333 20,84.095276 20,83.028741 C 20,82.274548 19.2125,80.722048 18.25,79.578741 C 16.526092,77.530994 16.530994,77.526092 18.578741,79.25 C 19.722048,80.2125 21.423671,81 22.360125,81 C 24.51739,81 25.251698,82.906672 24.730496,87.154804 C 24.360335,90.171847 24.304375,90.083089 24.160037,86.25 z M 40.41449,85.508627 C 40.482344,82.341397 40.912962,81.442535 42.5,81.155389 C 43.6,80.956364 45.4,80.052482 46.5,79.146762 C 48.453849,77.538 48.459618,77.547968 46.75,79.578741 C 45.7875,80.722048 45,82.274548 45,83.028741 C 45,84.095276 44.733333,84.133333 43.8,83.2 C 41.827552,81.227552 41.135898,81.800558 40.721988,85.75 L 40.328981,89.5 L 40.41449,85.508627 z M 56.160037,86.25 C 55.994983,81.866763 55.27505,81.12495 53.2,83.2 C 52.266667,84.133333 52,84.095276 52,83.028741 C 52,82.274548 51.2125,80.722048 50.25,79.578741 C 48.526092,77.530994 48.530994,77.526092 50.578741,79.25 C 51.722048,80.2125 53.423671,81 54.360125,81 C 56.51739,81 57.251698,82.906672 56.730496,87.154804 C 56.360335,90.171847 56.304375,90.083089 56.160037,86.25 z M 10.270833,59.395833 C 10.603125,59.063542 11.465625,59.028015 12.1875,59.316886 C 12.985233,59.636112 12.748276,59.873069 11.583333,59.921053 C 10.529167,59.964474 9.9385417,59.728125 10.270833,59.395833 z M 41.270833,59.395833 C 41.603125,59.063542 42.465625,59.028015 43.1875,59.316886 C 43.985233,59.636112 43.748276,59.873069 42.583333,59.921053 C 41.529167,59.964474 40.938542,59.728125 41.270833,59.395833 z M 6.8724447,57.25 C 5.6285741,55.663944 5.6639444,55.628574 7.25,56.872445 C 8.915748,58.178814 9.4454789,59 8.6224447,59 C 8.4147893,59 7.6272893,58.2125 6.8724447,57.25 z M 14,58.622445 C 14,58.414789 14.7875,57.627289 15.75,56.872445 C 17.336056,55.628574 17.371426,55.663944 16.127555,57.25 C 14.821186,58.915748 14,59.445479 14,58.622445 z M 28.878115,58.096491 C 29.680922,57.588001 29.929516,56.694972 29.473607,55.957295 C 28.964056,55.132825 29.093814,54.939947 29.845492,55.404508 C 31.626289,56.505102 31.211005,59.001846 29.25,58.984687 C 27.865942,58.972577 27.788177,58.786846 28.878115,58.096491 z M 37.872445,57.25 C 36.628574,55.663944 36.663944,55.628574 38.25,56.872445 C 39.915748,58.178814 40.445479,59 39.622445,59 C 39.414789,59 38.627289,58.2125 37.872445,57.25 z M 59.878115,58.096491 C 60.680922,57.588001 60.929516,56.694972 60.473607,55.957295 C 59.964056,55.132825 60.093814,54.939947 60.845492,55.404508 C 62.626289,56.505102 62.211005,59.001846 60.25,58.984687 C 58.865942,58.972577 58.788177,58.786846 59.878115,58.096491 z M 22.872445,55.25 C 21.628574,53.663944 21.663944,53.628574 23.25,54.872445 C 24.915748,56.178814 25.445479,57 24.622445,57 C 24.414789,57 23.627289,56.2125 22.872445,55.25 z M 53.872445,55.25 C 52.628574,53.663944 52.663944,53.628574 54.25,54.872445 C 55.915748,56.178814 56.445479,57 55.622445,57 C 55.414789,57 54.627289,56.2125 53.872445,55.25 z M 17,53.5 C 17,52.675 17.435877,52 17.968615,52 C 18.501354,52 18.678209,52.675 18.361626,53.5 C 17.624596,55.42067 17,55.42067 17,53.5 z M 48,53.5 C 48,52.675 48.435877,52 48.968615,52 C 49.501354,52 49.678209,52.675 49.361626,53.5 C 48.624596,55.42067 48,55.42067 48,53.5 z M 6.0789474,51.583333 C 6.0355263,50.529167 6.271875,49.938542 6.6041667,50.270833 C 6.9364583,50.603125 6.9719846,51.465625 6.683114,52.1875 C 6.3638877,52.985233 6.1269313,52.748276 6.0789474,51.583333 z M 37.078947,51.583333 C 37.035526,50.529167 37.271875,49.938542 37.604167,50.270833 C 37.936458,50.603125 37.971985,51.465625 37.683114,52.1875 C 37.363888,52.985233 37.126931,52.748276 37.078947,51.583333 z M 23.872445,50.25 C 22.628574,48.663944 22.663944,48.628574 24.25,49.872445 C 25.915748,51.178814 26.445479,52 25.622445,52 C 25.414789,52 24.627289,51.2125 23.872445,50.25 z M 54.872445,50.25 C 53.628574,48.663944 53.663944,48.628574 55.25,49.872445 C 56.915748,51.178814 57.445479,52 56.622445,52 C 56.414789,52 55.627289,51.2125 54.872445,50.25 z M 2.2708333,49.395833 C 2.603125,49.063542 3.465625,49.028015 4.1875,49.316886 C 4.9852327,49.636112 4.7482763,49.873069 3.5833333,49.921053 C 2.5291667,49.964474 1.9385417,49.728125 2.2708333,49.395833 z M 32.187055,48.25 C 32.673422,45.699409 46.784924,44.498308 49,46.818965 C 50.333333,48.215852 50.333333,48.275344 49,47.354387 C 48.139195,46.759815 44.410557,46.511643 40.25,46.772002 C 33.498391,47.194505 31.284613,48.14116 34.25,49.337719 C 34.970148,49.628305 34.727126,49.87557 33.676676,49.921053 C 32.459667,49.973747 31.964319,49.418067 32.187055,48.25 z M 17.581525,47.13191 C 17.286444,46.65446 13.772387,46.399689 9.7725076,46.565752 L 2.5,46.867684 L 9.5,46.045435 C 14.975178,45.402298 16.818968,45.525626 17.964286,46.611593 C 18.769643,47.375217 19.133701,48 18.773303,48 C 18.412905,48 17.876605,47.609359 17.581525,47.13191 z M 19.270833,27.395833 C 19.603125,27.063542 20.465625,27.028015 21.1875,27.316886 C 21.985233,27.636112 21.748276,27.873069 20.583333,27.921053 C 19.529167,27.964474 18.938542,27.728125 19.270833,27.395833 z M 52.270833,27.395833 C 52.603125,27.063542 53.465625,27.028015 54.1875,27.316886 C 54.985233,27.636112 54.748276,27.873069 53.583333,27.921053 C 52.529167,27.964474 51.938542,27.728125 52.270833,27.395833 z M 15.872445,25.25 C 14.628574,23.663944 14.663944,23.628574 16.25,24.872445 C 17.915748,26.178814 18.445479,27 17.622445,27 C 17.414789,27 16.627289,26.2125 15.872445,25.25 z M 23,26.622445 C 23,26.414789 23.7875,25.627289 24.75,24.872445 C 26.336056,23.628574 26.371426,23.663944 25.127555,25.25 C 23.821186,26.915748 23,27.445479 23,26.622445 z M 34,25.559017 C 34,24.766476 34.519529,23.796948 35.154508,23.404508 C 35.906186,22.939947 36.035944,23.132825 35.526393,23.957295 C 35.070484,24.694972 35.319078,25.588001 36.121885,26.096491 C 37.211823,26.786846 37.134058,26.972577 35.75,26.984687 C 34.7875,26.993109 34,26.351558 34,25.559017 z M 56,26.622445 C 56,26.414789 56.7875,25.627289 57.75,24.872445 C 59.336056,23.628574 59.371426,23.663944 58.127555,25.25 C 56.821186,26.915748 56,27.445479 56,26.622445 z M 7,24.622445 C 7,24.414789 7.7875,23.627289 8.75,22.872445 C 10.336056,21.628574 10.371426,21.663944 9.1275553,23.25 C 7.8211855,24.915748 7,25.445479 7,24.622445 z M 40,24.622445 C 40,24.414789 40.7875,23.627289 41.75,22.872445 C 43.336056,21.628574 43.371426,21.663944 42.127555,23.25 C 40.821186,24.915748 40,25.445479 40,24.622445 z M 13.638374,21.5 C 13.321791,20.675 13.498646,20 14.031385,20 C 14.564123,20 15,20.675 15,21.5 C 15,23.42067 14.375404,23.42067 13.638374,21.5 z M 46.638374,21.5 C 46.321791,20.675 46.498646,20 47.031385,20 C 47.564123,20 48,20.675 48,21.5 C 48,23.42067 47.375404,23.42067 46.638374,21.5 z M 25.078947,19.583333 C 25.035526,18.529167 25.271875,17.938542 25.604167,18.270833 C 25.936458,18.603125 25.971985,19.465625 25.683114,20.1875 C 25.363888,20.985233 25.126931,20.748276 25.078947,19.583333 z M 58.078947,19.583333 C 58.035526,18.529167 58.271875,17.938542 58.604167,18.270833 C 58.936458,18.603125 58.971985,19.465625 58.683114,20.1875 C 58.363888,20.985233 58.126931,20.748276 58.078947,19.583333 z M 6,19.622445 C 6,19.414789 6.7875,18.627289 7.75,17.872445 C 9.3360556,16.628574 9.3714259,16.663944 8.1275553,18.25 C 6.8211855,19.915748 6,20.445479 6,19.622445 z M 39,19.622445 C 39,19.414789 39.7875,18.627289 40.75,17.872445 C 42.336056,16.628574 42.371426,16.663944 41.127555,18.25 C 39.821186,19.915748 39,20.445479 39,19.622445 z M 28,17.271109 C 28.825,16.95706 29.830609,16.205087 30.234687,15.600056 C 30.687855,14.921522 30.975242,15.17057 30.984687,16.25 C 30.994975,17.425722 30.261642,17.974093 28.75,17.921053 C 27.246558,17.8683 26.997705,17.652646 28,17.271109 z M 14.246429,14.608022 C 15.230858,13.520511 17.002902,13.399724 22.5,14.045435 L 29.5,14.867684 L 22.312041,14.571801 C 18.358664,14.409065 14.644556,14.662229 14.05847,15.134388 C 13.472383,15.606546 13.556964,15.369681 14.246429,14.608022 z M 47.246429,14.608022 C 48.230858,13.520511 50.002902,13.399724 55.5,14.045435 L 62.5,14.867684 L 55.312041,14.571801 C 51.358664,14.409065 47.644556,14.662229 47.05847,15.134388 C 46.472383,15.606546 46.556964,15.369681 47.246429,14.608022 z "
       id="path1879" />
    <path
       style="fill:#b89985"
       d="M 9,89 C 9,87.718615 9.7080605,87.718615 10.5,89 C 10.839919,89.55 10.641476,90 10.059017,90 C 9.4765576,90 9,89.55 9,89 z M 22,89.559017 C 22,89.316476 22.45,88.839919 23,88.5 C 23.55,88.160081 24,88.358524 24,88.940983 C 24,89.523442 23.55,90 23,90 C 22.45,90 22,89.801558 22,89.559017 z M 41,89 C 41,87.718615 41.708061,87.718615 42.5,89 C 42.839919,89.55 42.641476,90 42.059017,90 C 41.476558,90 41,89.55 41,89 z M 54,89.559017 C 54,89.316476 54.45,88.839919 55,88.5 C 55.55,88.160081 56,88.358524 56,88.940983 C 56,89.523442 55.55,90 55,90 C 54.45,90 54,89.801558 54,89.559017 z M 11.5,84 C 11.148992,83.432057 10.442898,83.226274 9.9309017,83.542705 C 9.4189058,83.859136 9,83.641476 9,83.059017 C 9,81.632038 10.704788,81.713319 11.613486,83.183624 C 12.116362,83.997295 12.581679,83.762875 13.102217,82.433624 C 13.730417,80.829447 13.871405,80.788106 13.929715,82.190983 C 14.014525,84.231414 12.390375,85.440657 11.5,84 z M 19.388295,83.569496 C 19.03884,82.658832 19.033515,81.633151 19.376461,81.290205 C 19.719408,80.947259 20,81.506667 20,82.533333 C 20,83.985185 20.266667,84.133333 21.2,83.2 C 22.723963,81.676037 24,81.660846 24,83.166667 C 24,83.808333 23.703904,84.037238 23.342009,83.675343 C 22.980114,83.313448 22.085439,83.514129 21.353842,84.1213 C 20.349026,84.955223 19.868255,84.820253 19.388295,83.569496 z M 43.5,84 C 43.148992,83.432057 42.442898,83.226274 41.930902,83.542705 C 41.418906,83.859136 41,83.641476 41,83.059017 C 41,81.632038 42.704788,81.713319 43.613486,83.183624 C 44.116362,83.997295 44.581679,83.762875 45.102217,82.433624 C 45.730417,80.829447 45.871405,80.788106 45.929715,82.190983 C 46.014525,84.231414 44.390375,85.440657 43.5,84 z M 51.388295,83.569496 C 51.03884,82.658832 51.033515,81.633151 51.376461,81.290205 C 51.719408,80.947259 52,81.506667 52,82.533333 C 52,83.985185 52.266667,84.133333 53.2,83.2 C 54.723963,81.676037 56,81.660846 56,83.166667 C 56,83.808333 55.703904,84.037238 55.342009,83.675343 C 54.980114,83.313448 54.085439,83.514129 53.353842,84.1213 C 52.349026,84.955223 51.868255,84.820253 51.388295,83.569496 z M 8.5070792,58.011454 C 8.1567404,57.444594 8.5581371,57.276947 9.4480622,57.618443 C 11.180479,58.283234 11.497449,59 10.059017,59 C 9.5414763,59 8.8431043,58.555154 8.5070792,58.011454 z M 12,58.606989 C 12,58.390833 12.698372,57.945987 13.551938,57.618443 C 14.441863,57.276947 14.84326,57.444594 14.492921,58.011454 C 13.905663,58.961658 12,59.416902 12,58.606989 z M 27.08599,54.618216 L 24.671981,51.5 L 27.53296,54.219697 C 29.106499,55.71553 30.192803,57.118728 29.94697,57.337913 C 29.701136,57.557099 28.413696,56.333236 27.08599,54.618216 z M 58.08599,54.618216 L 55.671981,51.5 L 58.53296,54.219697 C 60.106499,55.71553 61.192803,57.118728 60.94697,57.337913 C 60.701136,57.557099 59.413696,56.333236 58.08599,54.618216 z M 37.345077,55.456872 C 37.019392,54.608151 36.976364,53.690303 37.249458,53.417209 C 37.522552,53.144114 37.986016,53.838522 38.279377,54.960337 C 38.902527,57.343266 38.210154,57.711228 37.345077,55.456872 z M 6.0789474,54.583333 C 6.0355263,53.529167 6.271875,52.938542 6.6041667,53.270833 C 6.9364583,53.603125 6.9719846,54.465625 6.683114,55.1875 C 6.3638877,55.985233 6.1269313,55.748276 6.0789474,54.583333 z M 9,54.5 C 9,53.8125 10.125,53.25 11.5,53.25 C 12.875,53.25 14,53.8125 14,54.5 C 14,55.1875 12.875,55.75 11.5,55.75 C 10.125,55.75 9,55.1875 9,54.5 z M 16.136182,54.309017 C 15.97083,51.648736 17.743639,50.340216 19.337132,51.946378 C 20.223523,52.839816 20.102848,52.967351 18.82957,52.482791 C 17.618838,52.022033 17.037121,52.487324 16.715752,54.173545 C 16.288633,56.414638 16.267367,56.419609 16.136182,54.309017 z M 39.487005,54.978973 C 39.149432,54.432769 39.576758,53.715908 40.436618,53.385948 C 42.27001,52.68241 45.593588,53.739745 44.617358,54.715975 C 43.479729,55.853604 40.133571,56.025139 39.487005,54.978973 z M 47.136182,54.309017 C 46.97083,51.648736 48.743639,50.340216 50.337132,51.946378 C 51.223523,52.839816 51.102848,52.967351 49.82957,52.482791 C 48.618838,52.022033 48.037121,52.487324 47.715752,54.173545 C 47.288633,56.414638 47.267367,56.419609 47.136182,54.309017 z M 17.507079,26.011454 C 17.15674,25.444594 17.558137,25.276947 18.448062,25.618443 C 20.180479,26.283234 20.497449,27 19.059017,27 C 18.541476,27 17.843104,26.555154 17.507079,26.011454 z M 21,26.606989 C 21,26.390833 21.698372,25.945987 22.551938,25.618443 C 23.441863,25.276947 23.84326,25.444594 23.492921,26.011454 C 22.905663,26.961658 21,27.416902 21,26.606989 z M 2,25.340981 C 2,24.795187 3.2375,23.257687 4.75,21.924314 L 7.5,19.5 L 5,22.5 C 3.625,24.15 2.3875,25.6875 2.25,25.916667 C 2.1125,26.145833 2,25.886775 2,25.340981 z M 35,25.340981 C 35,24.795187 36.2375,23.257687 37.75,21.924314 L 40.5,19.5 L 38,22.5 C 36.625,24.15 35.3875,25.6875 35.25,25.916667 C 35.1125,26.145833 35,25.886775 35,25.340981 z M 57.731213,22.919841 C 58.084822,21.567637 58.538115,21.114344 58.787763,21.86329 C 59.028244,22.584731 58.749552,23.650448 58.16845,24.23155 C 57.426382,24.973618 57.296239,24.583186 57.731213,22.919841 z M 15.116001,22.143011 C 15.026792,20.330393 14.595819,19.939896 13.25,20.452257 C 11.846853,20.986443 11.747752,20.868907 12.75,19.859246 C 14.391955,18.205145 16.37263,20.068545 15.709782,22.64378 C 15.332638,24.10902 15.207569,24.003541 15.116001,22.143011 z M 18,22.5 C 18,21.8125 19.125,21.25 20.5,21.25 C 21.875,21.25 23,21.8125 23,22.5 C 23,23.1875 21.875,23.75 20.5,23.75 C 19.125,23.75 18,23.1875 18,22.5 z M 25.078947,22.583333 C 25.035526,21.529167 25.271875,20.938542 25.604167,21.270833 C 25.936458,21.603125 25.971985,22.465625 25.683114,23.1875 C 25.363888,23.985233 25.126931,23.748276 25.078947,22.583333 z M 48.116001,22.143011 C 48.026792,20.330393 47.595819,19.939896 46.25,20.452257 C 44.846853,20.986443 44.747752,20.868907 45.75,19.859246 C 47.391955,18.205145 49.37263,20.068545 48.709782,22.64378 C 48.332638,24.10902 48.207569,24.003541 48.116001,22.143011 z M 51.360574,22.774405 C 50.673169,21.66216 53.68782,20.666228 55.563382,21.385948 C 56.423242,21.715908 56.864382,22.410418 56.543692,22.929305 C 55.860562,24.034633 52.069415,23.921332 51.360574,22.774405 z "
       id="path1877" />
    <path
       style="fill:#b28c74"
       d="M 9.3859484,87.563382 C 9.0559891,86.703522 9.0644923,85.274319 9.4048443,84.387376 C 9.8893132,83.12487 10.329238,83.028354 11.431111,83.942827 C 12.513828,84.841402 13.030221,84.809707 13.669278,83.805451 C 14.126175,83.087453 15.4,82.5 16.5,82.5 C 17.6,82.5 18.873825,83.087453 19.330722,83.805451 C 19.969779,84.809707 20.486172,84.841402 21.568889,83.942827 C 22.670762,83.028354 23.110687,83.12487 23.595156,84.387376 C 24.463751,86.650898 23.280737,89.291539 21.806317,88.380297 C 20.869241,87.801153 20.867658,87.544114 21.799254,87.233582 C 22.459664,87.013445 23,86.4488 23,85.978816 C 23,85.11407 21.925007,84.942716 16.5,84.942716 C 11.074993,84.942716 10,85.11407 10,85.978816 C 10,86.4488 10.540336,87.013445 11.200746,87.233582 C 12.132342,87.544114 12.130759,87.801153 11.193683,88.380297 C 10.487938,88.816472 9.7364963,88.476895 9.3859484,87.563382 z M 41.385948,87.563382 C 41.055989,86.703522 41.064492,85.274319 41.404844,84.387376 C 41.889313,83.12487 42.329238,83.028354 43.431111,83.942827 C 44.513828,84.841402 45.030221,84.809707 45.669278,83.805451 C 46.126175,83.087453 47.4,82.5 48.5,82.5 C 49.6,82.5 50.873825,83.087453 51.330722,83.805451 C 51.969779,84.809707 52.486172,84.841402 53.568889,83.942827 C 54.670762,83.028354 55.110687,83.12487 55.595156,84.387376 C 56.463751,86.650898 55.280737,89.291539 53.806317,88.380297 C 52.869241,87.801153 52.867658,87.544114 53.799254,87.233582 C 54.459664,87.013445 55,86.4488 55,85.978816 C 55,85.11407 53.925007,84.942716 48.5,84.942716 C 43.074993,84.942716 42,85.11407 42,85.978816 C 42,86.4488 42.540336,87.013445 43.200746,87.233582 C 44.132342,87.544114 44.130759,87.801153 43.193683,88.380297 C 42.487938,88.816472 41.736496,88.476895 41.385948,87.563382 z M 9.25,57.705071 C 6.8829121,56.641775 6.3167202,53.60469 8,51 C 8.7462712,49.845228 8.9728987,49.811864 8.9846872,50.855035 C 8.995576,51.81859 10.095271,52.10562 12.791069,51.848534 C 16.390563,51.505267 16.562559,51.620401 16.194683,54.1269 C 15.713746,57.403731 12.390722,59.115882 9.25,57.705071 z M 14,54.5 C 14,53.8125 12.875,53.25 11.5,53.25 C 10.125,53.25 9,53.8125 9,54.5 C 9,55.1875 10.125,55.75 11.5,55.75 C 12.875,55.75 14,55.1875 14,54.5 z M 41.270833,58.395833 C 41.603125,58.063542 42.465625,58.028015 43.1875,58.316886 C 43.985233,58.636112 43.748276,58.873069 42.583333,58.921053 C 41.529167,58.964474 40.938542,58.728125 41.270833,58.395833 z M 28,57.10765 C 28,56.41012 27.461368,56.191935 26.75,56.601308 C 26.0625,56.996947 25.833596,56.952408 26.241324,56.502335 C 26.649052,56.052261 26.450333,54.967614 25.799726,54.092009 C 25.149119,53.216404 25.690523,53.5 27.002846,54.722222 C 28.31517,55.944444 29.076389,57.256944 28.694444,57.638889 C 28.3125,58.020833 28,57.781776 28,57.10765 z M 38.606989,56.418213 C 37.774919,54.249873 37.840977,51.507643 38.704479,52.371146 C 39.497732,53.164399 40.302444,58 39.641199,58 C 39.406227,58 38.940833,57.288196 38.606989,56.418213 z M 45.42928,57.114427 C 45.966984,56.244403 45.425045,56.1062 43.434636,56.605761 C 41.481964,57.095851 40.906759,56.959885 41.419945,56.129531 C 41.814984,55.490346 42.526008,55.207057 43,55.5 C 43.473992,55.792943 44.146808,55.571477 44.495146,55.007853 C 44.843485,54.44423 44.087079,53.524196 42.814245,52.963333 L 40.5,51.943584 L 42.947964,52.429941 C 44.294344,52.697438 45.902306,52.496042 46.521213,51.982395 C 47.325252,51.315102 47.521302,51.901502 47.207953,54.036486 C 46.966753,55.679882 46.301763,57.3135 45.730196,57.666748 C 45.115033,58.04694 44.992245,57.821565 45.42928,57.114427 z M 59,57.10765 C 59,56.41012 58.461368,56.191935 57.75,56.601308 C 57.0625,56.996947 56.833596,56.952408 57.241324,56.502335 C 57.649052,56.052261 57.450333,54.967614 56.799726,54.092009 C 56.149119,53.216404 56.690523,53.5 58.002846,54.722222 C 59.31517,55.944444 60.076389,57.256944 59.694444,57.638889 C 59.3125,58.020833 59,57.781776 59,57.10765 z M 22.872445,54.25 C 21.628574,52.663944 21.663944,52.628574 23.25,53.872445 C 24.915748,55.178814 25.445479,56 24.622445,56 C 24.414789,56 23.627289,55.2125 22.872445,54.25 z M 53.872445,54.25 C 52.628574,52.663944 52.663944,52.628574 54.25,53.872445 C 55.915748,55.178814 56.445479,56 55.622445,56 C 55.414789,56 54.627289,55.2125 53.872445,54.25 z M 18.347453,25.748555 C 17.137039,25.204674 16.024857,23.62272 15.806384,22.134169 C 15.437248,19.619084 15.607025,19.505037 19.208931,19.848534 C 21.904729,20.10562 23.004424,19.81859 23.015313,18.855035 C 23.041339,16.551918 24.967204,20.203861 24.984687,22.589485 C 25.004496,25.292527 21.278913,27.065763 18.347453,25.748555 z M 23,22.5 C 23,21.8125 21.875,21.25 20.5,21.25 C 19.125,21.25 18,21.8125 18,22.5 C 18,23.1875 19.125,23.75 20.5,23.75 C 21.875,23.75 23,23.1875 23,22.5 z M 52.270833,26.395833 C 52.603125,26.063542 53.465625,26.028015 54.1875,26.316886 C 54.985233,26.636112 54.748276,26.873069 53.583333,26.921053 C 52.529167,26.964474 51.938542,26.728125 52.270833,26.395833 z M 3.0789474,25.404988 C 3.0355263,24.802731 4.0047451,23.452731 5.2327669,22.404988 C 6.6008215,21.237769 6.9914644,21.116558 6.2414428,22.092009 C 5.5681928,22.967614 5.3509477,24.052261 5.7586759,24.502335 C 6.1664042,24.952408 5.9759346,25.0207 5.3354102,24.654095 C 4.6948858,24.287489 3.9429121,24.552843 3.6643576,25.243769 C 3.3746791,25.962288 3.1241024,26.031295 3.0789474,25.404988 z M 36.078947,25.404988 C 36.035526,24.802731 37.004745,23.452731 38.232767,22.404988 C 39.600821,21.237769 39.991464,21.116558 39.241443,22.092009 C 38.568193,22.967614 38.350948,24.052261 38.758676,24.502335 C 39.166404,24.952408 38.975935,25.0207 38.33541,24.654095 C 37.694886,24.287489 36.942912,24.552843 36.664358,25.243769 C 36.374679,25.962288 36.124102,26.031295 36.078947,25.404988 z M 49.557528,24.75 C 48.260743,20.480918 48.203985,18.924403 49.38071,19.900998 C 50.053559,20.459413 51.705656,20.697438 53.052036,20.429941 L 55.5,19.943584 L 53.185755,20.963333 C 51.912921,21.524196 51.156515,22.44423 51.504854,23.007853 C 51.853192,23.571477 52.526008,23.792943 53,23.5 C 53.473992,23.207057 54.185016,23.490346 54.580055,24.129531 C 55.093241,24.959885 54.518036,25.095851 52.565364,24.605761 C 50.775818,24.156614 50.054315,24.278867 50.475228,24.959918 C 50.828771,25.531963 50.852353,26 50.527632,26 C 50.202911,26 49.766364,25.4375 49.557528,24.75 z M 56.272013,23.787812 C 56.447479,22.296109 56.908058,20.758609 57.295521,20.371146 C 58.387235,19.279432 58.09599,23.31162 56.961179,25 C 56.183422,26.157153 56.025903,25.88009 56.272013,23.787812 z M 7,23.622445 C 7,23.414789 7.7875,22.627289 8.75,21.872445 C 10.336056,20.628574 10.371426,20.663944 9.1275553,22.25 C 7.8211855,23.915748 7,24.445479 7,23.622445 z M 40,23.622445 C 40,23.414789 40.7875,22.627289 41.75,21.872445 C 43.336056,20.628574 43.371426,20.663944 42.127555,22.25 C 40.821186,23.915748 40,24.445479 40,23.622445 z "
       id="path1875" />
    <path
       style="fill:#8f8e8d"
       d="M 14.480369,81.968236 C 14.092012,81.339861 14.244807,80.355193 14.819915,79.780085 C 16.163814,78.436186 19.297053,79.6084 18.750292,81.250526 C 18.193688,82.922212 15.363921,83.397854 14.480369,81.968236 z M 46.480369,81.968236 C 46.092012,81.339861 46.244807,80.355193 46.819915,79.780085 C 48.163814,78.436186 51.297053,79.6084 50.750292,81.250526 C 50.193688,82.922212 47.363921,83.397854 46.480369,81.968236 z M 35.75,49.637327 C 34.2375,49.074451 33,48.287712 33,47.889017 C 33,46.707272 47.37671,46.315084 48.713003,47.460376 C 49.587145,48.209575 48.619724,48.585025 45.249965,48.804361 C 42.678142,48.97176 40.107291,49.457926 39.536962,49.88473 C 38.966633,50.311534 37.2625,50.200203 35.75,49.637327 z M 3.25,49.293708 C -0.76288889,48.521789 0.86685477,47.36244 6.25,47.159602 C 9.1375,47.050801 12.665796,46.725375 14.090658,46.436433 C 15.614659,46.127387 17.135847,46.458759 17.785262,47.241256 C 18.629546,48.258557 18.490616,48.577525 17.194603,48.597346 C 16.262572,48.611601 13.25,48.871496 10.5,49.174891 C 7.75,49.478286 4.4875,49.531754 3.25,49.293708 z M 56.403196,18.007751 C 55.906438,17.513499 53.38552,16.97206 50.801156,16.804555 C 43.14996,16.308644 47.105682,14.656852 55.717006,14.751842 C 61.486794,14.815488 63.5,15.182021 63.5,16.168848 C 63.5,16.900982 62.91927,17.381423 62.20949,17.236497 C 61.499709,17.09157 60.106147,17.408008 59.112686,17.939692 C 58.044147,18.511557 56.937494,18.539355 56.403196,18.007751 z M 19,17.001461 C 16.525,16.589947 14.05,16.507653 13.5,16.818586 C 12.95,17.129518 13.080807,16.666868 13.790683,15.790475 C 14.807046,14.535701 16.401084,14.299541 21.290683,14.679335 C 29.299195,15.301387 31.20517,15.924712 28.5,17.03705 C 26.148034,18.004154 25.004825,17.999871 19,17.001461 z "
       id="path1873" />
    <path
       style="fill:#916a52"
       d="M 14.5,88 C 14.160081,87.45 13.008524,87 11.940983,87 C 10.873442,87 10,86.577967 10,86.062149 C 10,85.116906 11.011432,84.942716 16.5,84.942716 C 21.988568,84.942716 23,85.116906 23,86.062149 C 23,86.577967 22.126558,87 21.059017,87 C 19.991476,87 18.839919,87.45 18.5,88 C 17.702985,89.289597 15.297015,89.289597 14.5,88 z M 46.5,88 C 46.160081,87.45 45.008524,87 43.940983,87 C 42.873442,87 42,86.577967 42,86.062149 C 42,85.116906 43.011432,84.942716 48.5,84.942716 C 53.988568,84.942716 55,85.116906 55,86.062149 C 55,86.577967 54.126558,87 53.059017,87 C 51.991476,87 50.839919,87.45 50.5,88 C 49.702985,89.289597 47.297015,89.289597 46.5,88 z M 40.00228,57.25 C 40.003535,56.8375 41.339746,56.452781 42.97164,56.395069 C 44.603533,56.337358 45.700949,56.674858 45.410342,57.145069 C 44.760322,58.196824 39.999121,58.289203 40.00228,57.25 z M 23.181714,54.037005 C 19.39229,51.468827 18.259439,51.181938 13.931714,51.694493 C 9.9118978,52.170581 9,51.994891 9,50.744326 C 9,48.691588 16.482473,47.94077 20.5,49.590377 C 22.15,50.267871 24.525972,52.212193 25.779937,53.911092 C 27.033903,55.609991 27.933903,56.991811 27.779937,56.981803 C 27.625972,56.971794 25.556771,55.646635 23.181714,54.037005 z M 54.099519,53.981803 C 49.626049,50.950542 47.903448,50.429885 46.614024,51.719309 C 46.218404,52.114929 44.324231,52.493155 42.40475,52.559811 C 39.715128,52.653212 38.984895,52.31626 39.220507,51.090503 C 39.642457,48.895334 47.544192,47.910944 51.489234,49.562077 C 53.145155,50.255136 55.525972,52.212193 56.779937,53.911092 C 58.033903,55.609991 58.933903,56.991811 58.779937,56.981803 C 58.625972,56.971794 56.519784,55.621794 54.099519,53.981803 z M 2.0808066e-17,26.559017 C 3.2252502e-17,26.316476 0.45,25.839919 1,25.5 C 1.55,25.160081 2,25.358524 2,25.940983 C 2,26.523442 1.55,27 1,27 C 0.45,27 9.3636295e-18,26.801558 2.0808066e-17,26.559017 z M 50.589658,25.145069 C 50.299051,24.674858 51.396467,24.337358 53.02836,24.395069 C 54.660254,24.452781 55.996465,24.8375 55.99772,25.25 C 56.000879,26.289203 51.239678,26.196824 50.589658,25.145069 z M 6.1145278,22.053835 C 7.4265375,20.276427 9.85,18.267871 11.5,17.590377 C 15.517527,15.94077 23,16.691588 23,18.744326 C 23,19.995251 22.087675,20.170531 18.0597,19.693476 C 13.98221,19.210558 12.54137,19.4994 9.8097,21.347337 C 3.9841493,25.288242 3.68477,25.345482 6.1145278,22.053835 z M 39.04228,22.161092 C 40.394026,20.324693 42.854845,18.255136 44.510766,17.562077 C 48.455808,15.910944 56.357543,16.895334 56.779493,19.090503 C 57.014445,20.312825 56.323022,20.637103 53.792608,20.491351 C 51.981673,20.387042 49.753116,19.976257 48.840257,19.578495 C 47.205383,18.866128 44.006951,20.229432 39.04228,23.754797 L 36.584561,25.5 L 39.04228,22.161092 z "
       id="path1871" />
  </g>
</svg>
