<?xml version="1.0" encoding="UTF-8" standalone="no"?>
<!-- Created with Inkscape (http://www.inkscape.org/) -->
<svg
   xmlns:dc="http://purl.org/dc/elements/1.1/"
   xmlns:cc="http://web.resource.org/cc/"
   xmlns:rdf="http://www.w3.org/1999/02/22-rdf-syntax-ns#"
   xmlns:svg="http://www.w3.org/2000/svg"
   xmlns="http://www.w3.org/2000/svg"
   xmlns:sodipodi="http://sodipodi.sourceforge.net/DTD/sodipodi-0.dtd"
   xmlns:inkscape="http://www.inkscape.org/namespaces/inkscape"
   id="svg2097"
   sodipodi:version="0.32"
   inkscape:version="0.44"
   width="32"
   height="96"
   version="1.0"
   sodipodi:docbase="/home/kde4/Developpements/C++/ksirk/ksirk/skins/default/Images/sprites"
   sodipodi:docname="cavalry.svg">
  <metadata
     id="metadata2102">
    <rdf:RDF>
      <cc:Work
         rdf:about="">
        <dc:format>image/svg+xml</dc:format>
        <dc:type
           rdf:resource="http://purl.org/dc/dcmitype/StillImage" />
      </cc:Work>
    </rdf:RDF>
  </metadata>
  <defs
     id="defs2100" />
  <sodipodi:namedview
     inkscape:window-height="582"
     inkscape:window-width="928"
     inkscape:pageshadow="2"
     inkscape:pageopacity="0.0"
     guidetolerance="10.0"
     gridtolerance="10.0"
     objecttolerance="10.0"
     borderopacity="1.0"
     bordercolor="#666666"
     pagecolor="#ffffff"
     id="base"
     inkscape:zoom="3.9479167"
     inkscape:cx="16"
     inkscape:cy="47.873351"
     inkscape:window-x="0"
     inkscape:window-y="0"
     inkscape:current-layer="svg2097" />
  <g
     id="g1869">
    <path
       style="fill:#e9e7e6"
       d="M 16.542857,92.75 C 15.639113,89.885507 15.406081,85 16.173193,85 C 16.627937,85 17,86.8 17,89 C 17,92.292792 17.343169,93 18.940983,93 C 20.008524,93 21.160081,92.55 21.5,92 C 21.839919,91.45 23.628976,91 25.475684,91 C 27.322391,91 29.060307,90.4375 29.337719,89.75 C 29.691294,88.87375 29.865711,88.851851 29.921053,89.676758 C 30.125626,92.726047 17.453715,95.637041 16.542857,92.75 z M 9.7309681,86.344063 C 10.408001,86.07014 11.758001,86.053466 12.730968,86.307009 C 13.703936,86.560553 13.15,86.784672 11.5,86.805051 C 9.85,86.825431 9.0539356,86.617986 9.7309681,86.344063 z M 3.9478405,83.444479 C 2.6274073,82.038942 2.2211466,81.147632 3.0450389,81.463789 C 4.3469498,81.963379 7.5840598,86 6.6827879,86 C 6.499,86 5.2682737,84.850015 3.9478405,83.444479 z M 28,82.059017 C 28,81.541476 28.375,80.886271 28.833333,80.603006 C 29.291667,80.31974 29.666667,80.743182 29.666667,81.543989 C 29.666667,82.344795 29.291667,83 28.833333,83 C 28.375,83 28,82.576558 28,82.059017 z M 6,77.942989 C 4.7633421,77.096798 4.8497288,76.967815 6.4920596,77.208302 C 8.0834684,77.441333 8.586278,76.796067 8.9920596,74 C 9.4086367,71.129545 9.9496753,70.470536 12,70.336195 C 14.203041,70.191848 14.232737,70.229805 12.25,70.655746 C 10.692529,70.99033 10,71.861998 10,73.487763 C 10,76.231972 9.0626702,79.006588 8.1430112,78.984687 C 7.789355,78.976265 6.825,78.507501 6,77.942989 z M 15.2,75.8 C 14.54,75.14 14.031628,73.9025 14.070285,73.05 C 14.11948,71.965109 14.37233,72.093174 14.912922,73.476784 C 15.337716,74.564015 16.768588,75.756659 18.092637,76.127104 C 20.182902,76.711922 20.229974,76.81377 18.45,76.90032 C 17.3225,76.955144 15.86,76.46 15.2,75.8 z M 26.078947,74.25 C 26.129153,73.137107 26.346587,72.970271 26.676193,73.791738 C 27.099764,74.847388 27.496561,74.847388 28.847246,73.791738 C 30.323988,72.637565 30.35384,72.686369 29.127555,74.25 C 27.370402,76.49054 25.97787,76.49054 26.078947,74.25 z M 20,72.313574 C 20,71.725798 20.697585,70.665945 21.550188,69.958347 C 22.837752,68.889764 23.38835,68.986803 24.800188,70.531134 C 26.41579,72.298351 26.407943,72.320736 24.641787,70.982978 C 23.008532,69.745885 22.615084,69.805919 21.391787,71.478876 C 20.626304,72.525737 20,72.901351 20,72.313574 z M 6.8724447,65.25 C 5.6109775,63.641507 5.6502573,63.61824 7.3582125,64.962253 C 9.0151951,66.266156 9.3671448,66.218385 10.608213,64.521124 C 11.373696,63.474263 12,63.063749 12,63.60887 C 12,64.735079 9.9445144,67 8.9224447,67 C 8.5497893,67 7.6272893,66.2125 6.8724447,65.25 z M 19.75,65.344254 C 21.39804,64.990214 22.004097,64.143777 22.015313,62.180449 C 22.038681,58.08996 23.363805,56.524306 25.630915,57.908564 C 27.422449,59.002444 27.417347,59.038389 25.50794,58.774897 C 23.920946,58.555898 23.412596,59.21169 23.00794,62 C 22.591363,64.870455 22.050325,65.529464 20,65.663805 C 17.796959,65.808152 17.767263,65.770195 19.75,65.344254 z M 16.791039,62.308932 C 16.47253,61.090955 15.212574,59.976252 13.865775,59.720905 C 11.72822,59.315634 11.70524,59.259227 13.627555,59.136182 C 16.035209,58.982071 18.400826,61.297521 17.769804,63.190587 C 17.535623,63.893132 17.103533,63.503913 16.791039,62.308932 z M 2.8724447,61.75 C 4.6295976,59.50946 6.0221296,59.50946 5.9210526,61.75 C 5.8708469,62.862893 5.653413,63.029729 5.3238067,62.208262 C 4.9002362,61.152612 4.5034388,61.152612 3.1527541,62.208262 C 1.6760124,63.362435 1.6461605,63.313631 2.8724447,61.75 z M 2.3333333,54.456011 C 2.3333333,53.655205 2.7083333,53 3.1666667,53 C 4.246671,53 4.246671,54.729515 3.1666667,55.396994 C 2.7083333,55.68026 2.3333333,55.256818 2.3333333,54.456011 z M 28.5,54.234687 C 27.171173,53.258415 24.634455,50 25.203241,50 C 25.449713,50 26.708255,51.125 28,52.5 C 30.289741,54.937318 30.513631,55.714076 28.5,54.234687 z M 15,47 C 15,43.707208 14.656831,43 13.059017,43 C 11.991476,43 10.839919,43.45 10.5,44 C 10.160081,44.55 8.3710237,45 6.5243163,45 C 4.677609,45 2.939693,45.5625 2.6622807,46.25 C 2.2654656,47.233411 2.1410576,47.228133 2.0789474,46.225249 C 2.0355263,45.524136 3.0309938,44.558515 4.2910973,44.079425 C 5.5512008,43.600334 7.1813009,42.486472 7.913542,41.604176 C 9.3368089,39.889244 12,39.419486 12,40.883369 C 12,41.369221 12.847405,41.988339 13.883122,42.259185 C 15.251202,42.616946 15.873814,43.879613 16.159548,46.875816 C 16.375865,49.144117 16.20346,51 15.776426,51 C 15.349392,51 15,49.2 15,47 z M 18.730968,49.344063 C 19.408001,49.07014 20.758001,49.053466 21.730968,49.307009 C 22.703936,49.560553 22.15,49.784672 20.5,49.805051 C 18.85,49.825431 18.053936,49.617986 18.730968,49.344063 z M 21.2,33.8 C 20.54,33.14 20,32.153992 20,31.60887 C 20,31.063749 20.626304,31.474263 21.391787,32.521124 C 22.632855,34.218385 22.984805,34.266156 24.641787,32.962253 C 26.349743,31.61824 26.389023,31.641507 25.127555,33.25 C 23.507376,35.315886 22.813108,35.413108 21.2,33.8 z M 9.5176504,32.75 C 9.2868814,32.0625 8.9635045,30.375 8.7990352,29 C 8.5777874,27.15032 7.9797439,26.571509 6.5,26.774897 C 4.5851275,27.038094 4.5795553,27.00122 6.369085,25.908564 C 8.6361945,24.524306 9.9613192,26.08996 9.9846872,30.180449 C 9.9959891,32.158809 10.589342,32.97441 12.25,33.294267 L 14.5,33.727636 L 12.218615,33.863818 C 10.963854,33.938718 9.7484194,33.4375 9.5176504,32.75 z M 14.063386,30.872445 C 13.977588,28.669411 16.497561,26.729402 18.701961,27.301423 C 20.095172,27.662948 19.986157,27.794115 18.217776,27.883999 C 16.854343,27.953299 15.571457,28.905818 15.031162,30.25 C 14.419146,31.772615 14.106281,31.973841 14.063386,30.872445 z M 26.078947,29.75 C 25.97787,27.50946 27.370402,27.50946 29.127555,29.75 C 30.35384,31.313631 30.323988,31.362435 28.847246,30.208262 C 27.496561,29.152612 27.099764,29.152612 26.676193,30.208262 C 26.346587,31.029729 26.129153,30.862893 26.078947,29.75 z M 28.666667,23.333333 C 27.734534,22.401201 27.83462,21 28.833333,21 C 29.291667,21 29.666667,21.675 29.666667,22.5 C 29.666667,24.199352 29.593586,24.260252 28.666667,23.333333 z M 3.9478405,20.555521 C 5.2682737,19.149985 6.499,18 6.6827879,18 C 7.5840598,18 4.3469498,22.036621 3.0450389,22.536211 C 2.2211466,22.852368 2.6274073,21.961058 3.9478405,20.555521 z M 15.840452,14.875816 C 16.126186,11.879613 16.748798,10.616946 18.116878,10.259185 C 19.152595,9.9883386 20,9.3692214 20,8.8833686 C 20,7.4194858 22.663191,7.8892439 24.086458,9.6041755 C 24.818699,10.486472 26.448799,11.600334 27.708903,12.079425 C 28.969006,12.558515 29.964474,13.524136 29.921053,14.225249 C 29.858942,15.228133 29.734534,15.233411 29.337719,14.25 C 29.060307,13.5625 27.322391,13 25.475684,13 C 23.628976,13 21.839919,12.55 21.5,12 C 21.160081,11.45 20.008524,11 18.940983,11 C 17.343169,11 17,11.707208 17,15 C 17,17.2 16.650608,19 16.223574,19 C 15.79654,19 15.624135,17.144117 15.840452,14.875816 z M 9.7309681,17.344063 C 10.408001,17.07014 11.758001,17.053466 12.730968,17.307009 C 13.703936,17.560553 13.15,17.784672 11.5,17.805051 C 9.85,17.825431 9.0539356,17.617986 9.7309681,17.344063 z "
       id="path1883" />
    <path
       style="fill:#d4cfcc"
       d="M 20.872445,91.75 C 21.784329,90.587259 23.462212,90.053705 25.872445,90.160037 L 29.5,90.320074 L 26.004015,90.741742 C 24.081223,90.973659 21.831223,91.689142 21.004015,92.331705 C 19.693957,93.349338 19.676989,93.274321 20.872445,91.75 z M 5.8724447,84.25 C 4.6798303,82.729301 4.6965437,82.646193 6,83.615727 C 6.825,84.229377 8.175,84.981351 9,85.28678 C 10.254749,85.751309 10.233894,85.855013 8.8724447,85.921053 C 7.9772893,85.964474 6.6272893,85.2125 5.8724447,84.25 z M 14,85 C 14.825,84.466844 15.95,84.030626 16.5,84.030626 C 17.05,84.030626 16.825,84.466844 16,85 C 15.175,85.533156 14.05,85.969374 13.5,85.969374 C 12.95,85.969374 13.175,85.533156 14,85 z M 27,82.289111 C 27,81.714789 27.7875,80.627289 28.75,79.872445 C 30.368755,78.602929 30.389977,78.649994 29.032968,80.5 C 28.2261,81.6 27.4386,82.6875 27.282968,82.916667 C 27.127335,83.145833 27,82.863433 27,82.289111 z M 2.3800024,80.547887 C 1.7041454,78.786632 2.6828178,76.994404 4.309017,77.015313 C 5.080906,77.025237 5.0088622,77.341612 4.1042827,77.914388 C 3.3366382,78.400457 2.9850151,79.518567 3.3228979,80.399075 C 3.6607808,81.279584 3.7122304,82 3.4372304,82 C 3.1622304,82 2.6864778,81.346549 2.3800024,80.547887 z M 26.083333,76.717032 C 26.3125,76.5614 27.4,75.7739 28.5,74.967032 C 30.350006,73.610023 30.397071,73.631245 29.127555,75.25 C 28.372711,76.2125 27.285211,77 26.710889,77 C 26.136567,77 25.854167,76.872665 26.083333,76.717032 z M 10.157895,73 C 10.157895,71.625 10.384868,71.0625 10.662281,71.75 C 10.939693,72.4375 10.939693,73.5625 10.662281,74.25 C 10.384868,74.9375 10.157895,74.375 10.157895,73 z M 21.116001,72.809017 C 21.052201,71.878976 21.469712,70.827736 22.043805,70.472927 C 23.269773,69.715237 26.013569,71.741757 25.969591,73.372445 C 25.952867,73.9926 25.480506,73.7125 24.919901,72.75 C 23.617955,70.514694 22.273472,70.514694 21.689326,72.75 C 21.277026,74.327715 21.220583,74.333525 21.116001,72.809017 z M 12.5,72 C 12.160081,71.45 12.358524,71 12.940983,71 C 13.523442,71 14,71.45 14,72 C 14,73.281385 13.291939,73.281385 12.5,72 z M 7.2125,64.8125 C 6.545625,64.145625 6.0136839,63.1275 6.0304087,62.55 C 6.0471335,61.9725 6.519494,62.2875 7.0800988,63.25 C 8.2737509,65.299376 9.6789817,65.519434 10.272967,63.75 C 10.543173,62.945079 10.658297,63.004589 10.596291,63.917134 C 10.466227,65.831312 8.698943,66.298943 7.2125,64.8125 z M 18,64 C 18,62.718615 18.708061,62.718615 19.5,64 C 19.839919,64.55 19.641476,65 19.059017,65 C 18.476558,65 18,64.55 18,64 z M 21.157895,63 C 21.157895,61.625 21.384868,61.0625 21.662281,61.75 C 21.939693,62.4375 21.939693,63.5625 21.662281,64.25 C 21.384868,64.9375 21.157895,64.375 21.157895,63 z M 3.2261905,60.421277 C 4.1755952,59.430051 5.16763,58.834297 5.4307121,59.097379 C 5.6937942,59.360461 4.9170085,60.171464 3.7045216,60.899609 C 1.5982128,62.164527 1.5769028,62.143217 3.2261905,60.421277 z M 27.895717,58.085612 C 28.762627,57.536688 29.024339,56.500574 28.586472,55.350925 C 28.04208,53.92159 28.15302,53.769405 29.073537,54.682783 C 30.486927,56.08521 29.609457,59.006533 27.781385,58.984687 C 26.823176,58.973236 26.852012,58.746482 27.895717,58.085612 z M 3.1003914,55.295478 C 3.8285357,54.082992 4.6395391,53.306206 4.9026213,53.569288 C 5.1657034,53.83237 4.569949,54.824405 3.5787226,55.77381 C 1.8567832,57.423097 1.8354732,57.401787 3.1003914,55.295478 z M 24,51.416694 C 22.318648,50.483738 22.032958,50.024656 23.127555,50.014742 C 24.022711,50.006634 25.315311,50.675 26,51.5 C 27.460276,53.259525 27.309817,53.253258 24,51.416694 z M 16,51 C 16.825,50.466844 17.95,50.030626 18.5,50.030626 C 19.05,50.030626 18.825,50.466844 18,51 C 17.175,51.533156 16.05,51.969374 15.5,51.969374 C 14.95,51.969374 15.175,51.533156 16,51 z M 5.995985,45.258258 C 7.9187768,45.026341 10.168777,44.310858 10.995985,43.668295 C 12.306043,42.650662 12.323011,42.725679 11.127555,44.25 C 10.215671,45.412741 8.5377883,45.946295 6.1275553,45.839963 L 2.5,45.679926 L 5.995985,45.258258 z M 21.345077,32.456872 C 21.019392,31.608151 21.033515,30.633151 21.376461,30.290205 C 21.719408,29.947259 22,30.416667 22,31.333333 C 22,33.513322 23.628711,33.466839 24.919901,31.25 C 25.480506,30.2875 25.952867,29.9725 25.969591,30.55 C 26.005526,31.790822 23.955809,34 22.768615,34 C 22.311354,34 21.670761,33.305592 21.345077,32.456872 z M 10.157895,31 C 10.157895,29.625 10.384868,29.0625 10.662281,29.75 C 10.939693,30.4375 10.939693,31.5625 10.662281,32.25 C 10.384868,32.9375 10.157895,32.375 10.157895,31 z M 12,32.559017 C 12,32.316476 12.45,31.839919 13,31.5 C 13.55,31.160081 14,31.358524 14,31.940983 C 14,32.523442 13.55,33 13,33 C 12.45,33 12,32.801558 12,32.559017 z M 27.55887,28.468197 C 26.491249,27.660688 26.098649,27 26.686426,27 C 27.274202,27 28.315311,27.675 29,28.5 C 30.557204,30.376316 30.067337,30.365506 27.55887,28.468197 z M 2.3358326,25.432783 C 2.0050639,24.570813 2.2708476,23.333313 2.9264631,22.682783 C 3.8469801,21.769405 3.9579201,21.92159 3.4135284,23.350925 C 2.9756609,24.500574 3.237373,25.536688 4.1042827,26.085612 C 5.1479884,26.746482 5.176824,26.973236 4.2186152,26.984687 C 3.5138536,26.993109 2.6666014,26.294752 2.3358326,25.432783 z M 27.979944,23.475834 C 27.284224,22.637543 26.908659,21.758008 27.145354,21.521312 C 27.38205,21.284617 28.124988,21.970492 28.796329,23.045478 C 30.248142,25.370201 29.763957,25.625438 27.979944,23.475834 z M 6.1741654,19.397263 C 7.0703387,18.50109 8.2830578,17.932589 8.8690968,18.133929 C 9.4551357,18.335268 8.721903,19.068501 7.2396908,19.763335 C 4.7490722,20.930891 4.6682907,20.903138 6.1741654,19.397263 z M 14,19 C 13.175,18.466844 12.95,18.030626 13.5,18.030626 C 14.05,18.030626 15.175,18.466844 16,19 C 16.825,19.533156 17.05,19.969374 16.5,19.969374 C 15.95,19.969374 14.825,19.533156 14,19 z M 20.872445,12.25 C 19.676989,10.725679 19.693957,10.650662 21.004015,11.668295 C 21.831223,12.310858 24.081223,13.026341 26.004015,13.258258 L 29.5,13.679926 L 25.872445,13.839963 C 23.462212,13.946295 21.784329,13.412741 20.872445,12.25 z "
       id="path1881" />
    <path
       style="fill:#cbb2aa"
       d="M 17.345077,91.456872 C 17.019392,90.608151 17.033515,89.633151 17.376461,89.290205 C 17.719408,88.947259 18,89.416667 18,90.333333 C 18,92.40466 19.356718,92.480033 21,90.5 C 21.684689,89.675 23.202289,89.061282 24.372445,89.136182 C 26.487318,89.271552 26.487021,89.274891 24.322621,89.696217 C 23.125062,89.929335 21.607462,90.768053 20.950176,91.560034 C 19.401586,93.425971 18.086247,93.388332 17.345077,91.456872 z M 17,85.5 C 17,84.675 17.435877,84 17.968615,84 C 18.501354,84 18.678209,84.675 18.361626,85.5 C 17.624596,87.42067 17,87.42067 17,85.5 z M 10.270833,85.395833 C 10.603125,85.063542 11.465625,85.028015 12.1875,85.316886 C 12.985233,85.636112 12.748276,85.873069 11.583333,85.921053 C 10.529167,85.964474 9.9385417,85.728125 10.270833,85.395833 z M 3.8724447,81.25 C 2.6285741,79.663944 2.6639444,79.628574 4.25,80.872445 C 5.2125,81.627289 6,82.414789 6,82.622445 C 6,83.445479 5.1788145,82.915748 3.8724447,81.25 z M 27.347961,80.313013 C 28.36434,79.110171 28.9195,77.678765 28.581649,77.132112 C 28.243799,76.585458 28.424717,75.855545 28.983688,75.510081 C 31.02495,74.248512 29.933758,78.746109 27.75,80.595012 L 25.5,82.5 L 27.347961,80.313013 z M 4.5,79 C 2.8695921,78.29939 2.812487,78.127582 4.190983,78.070285 C 5.1210237,78.031628 6.1600813,78.45 6.5,79 C 7.2106644,80.149879 7.1759129,80.149879 4.5,79 z M 17.270833,77.395833 C 17.603125,77.063542 18.465625,77.028015 19.1875,77.316886 C 19.985233,77.636112 19.748276,77.873069 18.583333,77.921053 C 17.529167,77.964474 16.938542,77.728125 17.270833,77.395833 z M 21.564293,75.706872 C 21.939824,74.720651 22.498985,74.165651 22.806872,74.473539 C 23.114759,74.781426 22.807506,75.588333 22.124088,76.266667 C 21.136472,77.246934 21.021608,77.13207 21.564293,75.706872 z M 9,61.059017 C 9,60.541476 9.4448455,59.843104 9.9885456,59.507079 C 10.555406,59.15674 10.723053,59.558137 10.381557,60.448062 C 9.7167659,62.180479 9,62.497449 9,61.059017 z M 2,59.214005 C 2,58.166788 3.0125,56.452731 4.25,55.404988 L 6.5,53.5 L 4.6520387,55.686987 C 3.6356599,56.889829 3.0805003,58.321235 3.4183506,58.867888 C 3.7562008,59.414542 3.5752834,60.144455 3.0163119,60.489919 C 2.4573404,60.835382 2,60.261221 2,59.214005 z M 12.270833,58.395833 C 12.603125,58.063542 13.465625,58.028015 14.1875,58.316886 C 14.985233,58.636112 14.748276,58.873069 13.583333,58.921053 C 12.529167,58.964474 11.938542,58.728125 12.270833,58.395833 z M 25.557637,57.093259 C 25.249419,56.594551 25.897861,56.422035 26.99862,56.70989 C 29.333607,57.320503 29.628767,58 27.559017,58 C 26.766476,58 25.865855,57.591966 25.557637,57.093259 z M 26.872445,54.25 C 25.628574,52.663944 25.663944,52.628574 27.25,53.872445 C 28.915748,55.178814 29.445479,56 28.622445,56 C 28.414789,56 27.627289,55.2125 26.872445,54.25 z M 13.638374,50.5 C 14.375404,48.57933 15,48.57933 15,50.5 C 15,51.325 14.564123,52 14.031385,52 C 13.498646,52 13.321791,51.325 13.638374,50.5 z M 19.270833,50.395833 C 19.603125,50.063542 20.465625,50.028015 21.1875,50.316886 C 21.985233,50.636112 21.748276,50.873069 20.583333,50.921053 C 19.529167,50.964474 18.938542,50.728125 19.270833,50.395833 z M 7.5,46.280761 C 8.6,46.012781 10.259144,45.120899 11.186987,44.298801 C 13.137553,42.570537 15.052496,43.352785 14.883999,45.809017 C 14.779417,47.333525 14.722974,47.327715 14.310674,45.75 C 13.749914,43.604184 12.642773,43.52058 11,45.5 C 10.315311,46.325 8.7977107,46.947799 7.6275553,46.883999 C 5.6078688,46.773879 5.6014017,46.743294 7.5,46.280761 z M 21.564293,28.293128 C 21.021608,26.86793 21.136472,26.753066 22.124088,27.733333 C 22.807506,28.411667 23.114759,29.218574 22.806872,29.526461 C 22.498985,29.834349 21.939824,29.279349 21.564293,28.293128 z M 28.99758,28.5 C 28.868648,27.95 28.835221,27.106178 28.923299,26.624841 C 29.011376,26.143503 28.293869,24.793503 27.328838,23.624841 L 25.574236,21.5 L 27.884487,23.625147 C 29.288158,24.916351 30.005841,26.486016 29.71337,27.625147 C 29.448618,28.656316 29.126513,29.05 28.99758,28.5 z M 17.270833,26.395833 C 17.603125,26.063542 18.465625,26.028015 19.1875,26.316886 C 19.985233,26.636112 19.748276,26.873069 18.583333,26.921053 C 17.529167,26.964474 16.938542,26.728125 17.270833,26.395833 z M 3,25.616631 C 3,25.405779 3.900621,24.997745 5.0013799,24.70989 C 6.1021389,24.422035 6.7505812,24.594551 6.4423629,25.093259 C 5.904112,25.964167 3,26.405705 3,25.616631 z M 3,23.622445 C 3,23.414789 3.7875,22.627289 4.75,21.872445 C 6.3360556,20.628574 6.3714259,20.663944 5.1275553,22.25 C 3.8211855,23.915748 3,24.445479 3,23.622445 z M 17,18.5 C 17,16.57933 17.624596,16.57933 18.361626,18.5 C 18.678209,19.325 18.501354,20 17.968615,20 C 17.435877,20 17,19.325 17,18.5 z M 10.270833,18.395833 C 10.603125,18.063542 11.465625,18.028015 12.1875,18.316886 C 12.985233,18.636112 12.748276,18.873069 11.583333,18.921053 C 10.529167,18.964474 9.9385417,18.728125 10.270833,18.395833 z M 17.116001,13.809017 C 16.947504,11.352785 18.862447,10.570537 20.813013,12.298801 C 21.740856,13.120899 23.4,14.012781 24.5,14.280761 C 26.398598,14.743294 26.392131,14.773879 24.372445,14.883999 C 23.202289,14.947799 21.684689,14.325 21,13.5 C 19.357227,11.52058 18.250086,11.604184 17.689326,13.75 C 17.277026,15.327715 17.220583,15.333525 17.116001,13.809017 z "
       id="path1879" />
    <path
       style="fill:#aa958d"
       d="M 18.175639,87.955447 L 18.561349,83.910893 L 13.530675,84.488407 C 8.2179937,85.098294 7.6759611,84.896422 4.5,81.125055 L 2.5,78.75011 L 5.6804665,79.439238 C 8.2592478,79.997996 9.0632688,79.750298 9.9304665,78.129925 C 10.51871,77.030782 11,75.201899 11,74.065741 C 11,71.561378 12.719364,71.304259 13.188159,73.738516 C 13.508312,75.400935 13.096852,76.084027 8.9114745,80.838525 C 6.4857369,83.594111 7.9044188,84.338357 13.987943,83.501658 C 19.179592,82.787624 23,83.479938 23,85.134775 C 23,85.684775 22.1,85.849126 21,85.5 C 19.440241,85.004952 19,85.3203 19,86.932612 C 19,88.172968 19.649038,89 20.622445,89 C 21.951235,89 22.019571,89.271492 21,90.5 C 18.838356,93.104621 17.775872,92.147397 18.175639,87.955447 z M 24.75,89.310674 C 23.7875,89.059147 23,88.436348 23,87.926676 C 23,86.650679 24.364993,86.764993 25.757618,88.157618 C 26.634443,89.034443 27.35,88.973802 28.707618,87.907618 C 30.341386,86.624565 30.378548,86.654863 29.127555,88.25 C 28.372711,89.2125 27.472711,89.947799 27.127555,89.883999 C 26.7824,89.820198 25.7125,89.562202 24.75,89.310674 z M 26.223794,82.823794 C 25.378799,81.978799 25.350445,81.282666 26.123101,80.351672 C 27.633446,78.531818 24.398563,75.201437 22.735714,76.864286 C 22.111071,77.488929 21.1275,77.993109 20.55,77.984687 C 19.9725,77.976265 20.175,77.540203 21,77.015661 C 21.825,76.491118 22.5,75.260509 22.5,74.280973 C 22.5,71.540847 24.45655,71.192902 24.834723,73.865775 C 25.019354,75.170726 26.028264,76.456136 27.084723,76.732406 C 29.392561,77.33592 29.514529,78.328089 27.487669,80.010234 C 26.337365,80.964901 26.246984,81.592672 27.110114,82.632679 C 28.498867,84.306024 27.846658,84.446658 26.223794,82.823794 z M 7.6394802,64.306147 C 7.2877661,63.954433 7,62.799538 7,61.739714 C 7,60.653765 6.1271153,59.584496 5,59.289749 C 2.6107215,58.664939 2.4663212,57.687803 4.5123312,55.989766 C 5.7476626,54.964532 5.7934528,54.438413 4.7623312,53.117321 C 3.6387898,51.67782 3.6937634,51.652022 5.2623312,52.882679 C 6.5954043,53.928573 6.7538961,54.591611 5.9130238,55.6048 C 4.3697571,57.464322 7.5670189,60.832981 9.2642857,59.135714 C 9.8889286,58.511071 10.8725,58.013684 11.45,58.030409 C 12.0275,58.047133 11.692776,58.530532 10.706169,59.104628 C 9.5656125,59.768305 9.1252029,60.819119 9.4968459,61.990062 C 10.091545,63.863793 8.8034038,65.47007 7.6394802,64.306147 z M 18.811841,62.261484 C 18.627696,61.305299 19.213451,59.674049 20.113516,58.636484 C 21.013582,57.598918 22.464836,55.922664 23.338525,54.911475 C 25.512152,52.395765 23.939208,51.68315 18.012057,52.498342 C 12.820408,53.212376 9,52.520062 9,50.865225 C 9,50.315225 9.9,50.150874 11,50.5 C 12.559759,50.995048 13,50.6797 13,49.067388 C 13,47.827032 12.350962,47 11.377555,47 C 10.048765,47 9.9804291,46.728508 11,45.5 C 13.161644,42.895379 14.224128,43.852603 13.824361,48.044553 L 13.438651,52.089107 L 18.469325,51.511593 C 23.782006,50.901706 24.324039,51.103578 27.5,54.874945 L 29.5,57.24989 L 26.319534,56.560762 C 23.740752,56.002004 22.936731,56.249702 22.069534,57.870075 C 21.48129,58.969218 21,60.798101 21,61.934259 C 21,64.438622 19.280636,64.695741 18.811841,62.261484 z M 3.0059224,47.725024 C 4.5309868,46.038414 9,46.330386 9,48.116631 C 9,49.354113 7.6165236,49.216524 6.2423816,47.842382 C 5.3655572,46.965557 4.6500001,47.012913 3.2923816,48.037613 C 1.6577661,49.271385 1.6325518,49.243871 3.0059224,47.725024 z M 22.510081,32.016312 C 22.164618,31.45734 22.202272,30.481733 22.593758,29.848296 C 22.985244,29.214859 22.475793,28.089859 21.461646,27.348296 C 20.447498,26.606733 20.063749,26 20.60887,26 C 21.153992,26 22.111071,26.511071 22.735714,27.135714 C 24.432981,28.832981 27.630243,25.464322 26.086976,23.6048 C 25.246104,22.591611 25.404596,21.928573 26.737669,20.882679 C 28.306237,19.652022 28.36121,19.67782 27.237669,21.117321 C 26.206547,22.438413 26.252337,22.964532 27.487669,23.989766 C 29.533679,25.687803 29.389279,26.664939 27,27.289749 C 25.826701,27.596574 25,28.653765 25,29.847363 C 25,32.175047 23.445222,33.529402 22.510081,32.016312 z M 11,29.934259 C 11,28.798101 10.51871,26.969218 9.9304665,25.870075 C 9.0632688,24.249702 8.2592478,24.002004 5.6804665,24.560762 L 2.5,25.24989 L 4.5,22.874945 C 7.6759611,19.103578 8.2179937,18.901706 13.530675,19.511593 L 18.561349,20.089107 L 18.175639,16.044553 C 17.775872,11.852603 18.838356,10.895379 21,13.5 C 22.019571,14.728508 21.951235,15 20.622445,15 C 19.649038,15 19,15.827032 19,17.067388 C 19,18.6797 19.440241,18.995048 21,18.5 C 22.1,18.150874 23,18.315225 23,18.865225 C 23,20.520062 19.179592,21.212376 13.987943,20.498342 C 8.0607921,19.68315 6.4878479,20.395765 8.6614745,22.911475 C 9.5351635,23.922664 10.986418,25.598918 11.886484,26.636484 C 13.562704,28.568775 13.588417,32 11.926676,32 C 11.417004,32 11,31.070416 11,29.934259 z M 23,16.116631 C 23,14.330386 27.469013,14.038414 28.994078,15.725024 C 30.367448,17.243871 30.342234,17.271385 28.707618,16.037613 C 27.35,15.012913 26.634443,14.965557 25.757618,15.842382 C 24.383476,17.216524 23,17.354113 23,16.116631 z "
       id="path1877" />
    <path
       style="fill:#926751"
       d="M 19,86.932612 C 19,85.3203 19.440241,85.004952 21,85.5 C 22.1,85.849126 23,85.684775 23,85.134775 C 23,83.479938 19.179592,82.787624 13.987943,83.501658 C 8.0545483,84.317709 6.4480794,83.58392 8.7864745,81.125777 C 9.7289135,80.135076 11.015893,78.463989 11.646429,77.412251 C 12.569098,75.873234 13.04729,75.743975 14.096429,76.75 C 15.72427,78.310944 21.216403,78.383597 22.735714,76.864286 C 24.452766,75.147234 27.628362,78.537944 26.066137,80.42031 C 25.181074,81.486746 25.541703,82.232 27.71683,83.831533 C 30.33976,85.760368 30.402134,85.977521 28.800188,87.6032 C 27.321248,89.104051 26.877816,89.144448 25.387567,87.914097 C 24.062756,86.820332 23.579454,86.78316 23.254045,87.75 C 22.528134,89.906795 19,89.228886 19,86.932612 z M 21.5,87 C 20.708061,85.718615 20,85.718615 20,87 C 20,87.55 20.476558,88 21.059017,88 C 21.641476,88 21.839919,87.55 21.5,87 z M 28.728392,86.314825 C 28.922757,85.731728 28.163382,85.014482 27.040892,84.720944 C 24.772436,84.12773 24.742258,84.164759 25.623207,86.460477 C 26.283433,88.180999 28.135288,88.094136 28.728392,86.314825 z M 23.994517,81.25 C 24.005179,78.819366 23.461904,78.503406 19.830258,78.828137 C 17.8119,79.008612 15.274073,78.681863 14.190642,78.102028 C 12.543259,77.220376 12.123075,77.412224 11.624038,79.273892 C 11.295837,80.498251 11.021165,81.745856 11.013655,82.046346 C 11.006145,82.346837 13.922532,82.571837 17.494517,82.546346 C 21.99569,82.514225 23.990716,82.116341 23.994517,81.25 z M 6.1666122,58.414902 C 5.1735376,57.291018 5.1181973,56.562507 5.9497823,55.560509 C 6.8140227,54.519163 6.4374049,53.752636 4.2831701,52.168467 C 1.6602401,50.239632 1.5978661,50.022479 3.1998116,48.3968 C 4.6787515,46.895949 5.122184,46.855552 6.612433,48.085903 C 7.9372439,49.179668 8.4205456,49.21684 8.7459547,48.25 C 9.4718662,46.093205 13,46.771114 13,49.067388 C 13,50.6797 12.559759,50.995048 11,50.5 C 9.9,50.150874 9,50.315225 9,50.865225 C 9,52.520062 12.820408,53.212376 18.012057,52.498342 C 23.945452,51.682291 25.551921,52.41608 23.213525,54.874223 C 22.271086,55.864924 20.984107,57.536011 20.353571,58.587749 C 19.430902,60.126766 18.95271,60.256025 17.903571,59.25 C 16.348152,57.758502 10.377073,57.580867 9.5,59 C 8.6579761,60.362423 7.7460191,60.202351 6.1666122,58.414902 z M 20.929715,54.453654 C 20.972212,53.820994 18.432312,53.425631 14.505483,53.453654 C 8.3066955,53.49789 7.3363971,54.009191 8.25,56.75 C 8.3875,57.1625 10.162656,57.351236 12.19479,57.169413 C 14.226925,56.98759 16.701925,57.295306 17.69479,57.853227 C 19.467403,58.849312 20.723089,57.529715 20.929715,54.453654 z M 6.4003315,49.600864 C 5.7134868,47.810975 3.8714039,47.885788 3.2571605,49.728518 C 3.0548488,50.335454 3.7017238,51.011997 4.6946605,51.231949 C 7.0332147,51.749978 7.1735332,51.615795 6.4003315,49.600864 z M 12,49 C 12,48.45 11.523442,48 10.940983,48 C 10.358524,48 10.160081,48.45 10.5,49 C 11.291939,50.281385 12,50.281385 12,49 z M 10.5,25 C 9.6467518,23.35 8.4836381,22 7.9153029,22 C 7.3469676,22 7.1879258,21.504947 7.5618767,20.899881 C 8.0069108,20.179801 10.096443,20.031487 13.610565,20.470547 C 19.265348,21.177066 23,20.538548 23,18.865225 C 23,18.315225 22.1,18.150874 21,18.5 C 19.440241,18.995048 19,18.6797 19,17.067388 C 19,14.771114 22.528134,14.093205 23.254045,16.25 C 23.579454,17.21684 24.062756,17.179668 25.387567,16.085903 C 26.877816,14.855552 27.321248,14.895949 28.800188,16.3968 C 30.402134,18.022479 30.33976,18.239632 27.71683,20.168467 C 25.541703,21.768 25.181074,22.513254 26.066137,23.57969 C 27.628362,25.462056 24.452766,28.852766 22.735714,27.135714 C 21.333574,25.733574 15.343698,25.634868 14.5,27 C 13.418978,28.74913 12.096918,28.0881 10.5,25 z M 19.830258,25.171863 C 21.848616,25.352339 23.6125,25.1625 23.75,24.75 C 24.665002,22.004993 23.693313,21.497816 17.430593,21.451553 C 11.297445,21.406248 10.907835,21.535942 11.422421,23.451553 C 11.725069,24.578199 11.978835,25.853333 11.986345,26.285184 C 11.993855,26.717035 12.936116,26.569373 14.080258,25.957047 C 15.2244,25.344721 17.8119,24.991388 19.830258,25.171863 z M 29,17.942386 C 29,16.350304 26.766995,15.758608 25.903509,17.121885 C 24.539791,19.274934 24.833802,19.856222 27,19.289749 C 28.1,19.002093 29,18.395779 29,17.942386 z M 22,16.440983 C 22,16.198442 21.55,16 21,16 C 20.45,16 20,16.476558 20,17.059017 C 20,17.641476 20.45,17.839919 21,17.5 C 21.55,17.160081 22,16.683524 22,16.440983 z "
       id="path1875" />
    <path
       style="fill:#8b5437"
       d="M 25.58345,86.356872 C 24.630724,83.874108 25.680824,83.535097 26.954163,85.914354 C 27.568464,87.062185 27.653003,88 27.142173,88 C 26.631665,88 25.93024,87.260592 25.58345,86.356872 z M 11.070285,81.546346 C 11.108942,80.970856 11.461138,79.687392 11.852943,78.694205 C 12.527264,76.984866 12.691928,76.99822 14.935667,78.944205 C 17.78834,81.418314 22,81.69999 22,79.416667 C 22,78.545833 22.5625,78.020833 23.25,78.25 C 23.9375,78.479167 24.3875,78.966667 24.25,79.333333 C 24.1125,79.7 23.997532,80.5625 23.994517,81.25 C 23.990716,82.116341 21.99569,82.514225 17.494517,82.546346 C 13.567688,82.574369 11.027788,82.179006 11.070285,81.546346 z M 17.064333,57.055795 C 14.21166,54.581686 10,54.30001 10,56.583333 C 10,57.454167 9.55,58.016667 9,57.833333 C 8.45,57.65 8,57.1625 8,56.75 C 8,56.3375 8.0024676,55.4375 8.0054835,54.75 C 8.009284,53.883659 10.00431,53.485775 14.505483,53.453654 C 21.064386,53.406848 21.55343,53.740775 20.147057,57.305795 C 19.472736,59.015134 19.308072,59.00178 17.064333,57.055795 z M 5.0458365,50.085646 C 4.4315357,48.937815 4.346997,48 4.8578274,48 C 5.8855888,48 7.3044559,51.028877 6.6045589,51.728774 C 6.3611738,51.972159 5.6597488,51.232752 5.0458365,50.085646 z M 11.986345,26.25 C 11.978835,25.8375 11.725069,24.578199 11.422421,23.451553 C 10.907835,21.535942 11.297445,21.406248 17.430593,21.451553 C 21.98178,21.485173 23.990711,21.882571 23.994517,22.75 C 23.997532,23.4375 24,24.3375 24,24.75 C 24,25.1625 23.55,25.65 23,25.833333 C 22.45,26.016667 22,25.454167 22,24.583333 C 22,22.322191 17.799235,22.572236 15,25 C 12.480559,27.185099 12.006946,27.381544 11.986345,26.25 z M 25.047116,19.5 C 25.022612,18.014058 26.807603,15.474269 27.435295,16.101961 C 27.734517,16.401183 27.323296,17.513151 26.521471,18.573001 C 25.719646,19.63285 25.056186,20.05 25.047116,19.5 z "
       id="path1873" />
    <path
       style="fill:#694638"
       d="M 27,86 C 27,85.45 27.45,85 28,85 C 28.55,85 29,85.45 29,86 C 29,86.55 28.55,87 28,87 C 27.45,87 27,86.55 27,86 z M 16,80 C 14.884248,79.278945 15.460619,79.026703 18.25,79.015313 C 20.3125,79.006891 22,79.45 22,80 C 22,81.273685 17.970888,81.273685 16,80 z M 10,56 C 10,54.726315 14.029112,54.726315 16,56 C 17.115752,56.721055 16.539381,56.973297 13.75,56.984687 C 11.6875,56.993109 10,56.55 10,56 z M 3,50 C 3,49.45 3.45,49 4,49 C 4.55,49 5,49.45 5,50 C 5,50.55 4.55,51 4,51 C 3.45,51 3,50.55 3,50 z M 16,24 C 17.970888,22.726315 22,22.726315 22,24 C 22,24.55 20.3125,24.993109 18.25,24.984687 C 15.460619,24.973297 14.884248,24.721055 16,24 z M 27,18 C 27,17.45 27.45,17 28,17 C 28.55,17 29,17.45 29,18 C 29,18.55 28.55,19 28,19 C 27.45,19 27,18.55 27,18 z "
       id="path1871" />
  </g>
</svg>
