<?xml version="1.0" encoding="UTF-8" standalone="no"?>
<!-- Created with Inkscape (http://www.inkscape.org/) -->
<svg
   xmlns:dc="http://purl.org/dc/elements/1.1/"
   xmlns:cc="http://web.resource.org/cc/"
   xmlns:rdf="http://www.w3.org/1999/02/22-rdf-syntax-ns#"
   xmlns:svg="http://www.w3.org/2000/svg"
   xmlns="http://www.w3.org/2000/svg"
   xmlns:sodipodi="http://sodipodi.sourceforge.net/DTD/sodipodi-0.dtd"
   xmlns:inkscape="http://www.inkscape.org/namespaces/inkscape"
   id="svg2"
   sodipodi:version="0.32"
   inkscape:version="0.44"
   width="128"
   height="92"
   version="1.0"
   sodipodi:docbase="/home/kde4/Developpements/C++/ksirk/ksirk/skins/default/Images/sprites"
   sodipodi:docname="exploding.svg">
  <metadata
     id="metadata7">
    <rdf:RDF>
      <cc:Work
         rdf:about="">
        <dc:format>image/svg+xml</dc:format>
        <dc:type
           rdf:resource="http://purl.org/dc/dcmitype/StillImage" />
      </cc:Work>
    </rdf:RDF>
  </metadata>
  <defs
     id="defs5" />
  <sodipodi:namedview
     inkscape:window-height="582"
     inkscape:window-width="928"
     inkscape:pageshadow="2"
     inkscape:pageopacity="0.0"
     guidetolerance="10.0"
     gridtolerance="10.0"
     objecttolerance="10.0"
     borderopacity="1.0"
     bordercolor="#666666"
     pagecolor="#ffffff"
     id="base"
     inkscape:zoom="4.1195652"
     inkscape:cx="64"
     inkscape:cy="45.878628"
     inkscape:window-x="666"
     inkscape:window-y="0"
     inkscape:current-layer="svg2" />
  <g
     id="g1927">
    <path
       style="fill:#fefe00"
       d="M 72.991419,65.983966 C 72.084388,64.289164 72.277956,63.821247 74.206235,63.047352 L 76.5,62.126773 L 74,61.904943 C 72.625,61.782936 70.729838,61.746035 69.788529,61.82294 C 68.67681,61.913767 68.272011,61.454724 68.633384,60.513002 C 68.939364,59.715631 69.484526,59.102298 69.844856,59.15004 C 72.437365,59.493531 73.022229,58.910052 72,57 C 71.216152,55.535366 71.23951,55 72.087261,55 C 72.925316,55 72.901227,54.585912 72,53.5 C 71.103092,52.419292 71.077638,52 71.90894,52 C 72.543546,52 73.3208,52.672415 73.63617,53.494256 C 74.489212,55.71725 75.994866,54.271836 76.035435,51.190983 L 76.070871,48.5 L 77.5,51 C 78.911107,53.468474 78.929576,53.471626 78.964565,51.25 C 78.984054,50.0125 79.45,49 80,49 C 80.55,49 80.8875,49.50625 80.75,50.125 C 80.289691,52.196391 82.884042,52.158291 84.674346,50.067368 C 85.647921,48.930316 87.00535,48 87.690856,48 C 88.376362,48 88.708577,47.40414 88.429113,46.675866 C 87.931189,45.378298 92.877968,39.544634 93.742821,40.409488 C 94.676431,41.343098 92.789054,45 91.373595,45 C 90.553199,45 90.149937,45.433586 90.477458,45.963525 C 90.804978,46.493465 90.24091,47.75909 89.223975,48.776025 C 88.207039,49.792961 87.563354,51.190062 87.793564,51.880693 C 88.023775,52.571325 87.6019,53.035838 86.856064,52.912944 C 86.110229,52.790051 84.375,53.18084 83,53.781365 C 81.412692,54.474614 81.094183,54.896368 82.127555,54.936614 C 84.954204,55.0467 86.301573,57.544243 84.816864,59.921639 C 83.3072,62.338997 81.506576,62.728224 82.381557,60.448062 C 82.709101,59.594496 82.571092,59.147046 82.074871,59.453727 C 81.57865,59.760409 80.573954,58.658781 79.842214,57.005665 C 79.110474,55.352549 77.946627,54 77.255889,54 C 75.509813,54 75.680404,54.740581 78,57.230375 C 80.006685,59.384298 80.676972,62 79.222241,62 C 78.794473,62 77.637251,61.057223 76.650635,59.904939 C 75.664019,58.752656 74.610439,58.056227 74.309346,58.35732 C 74.008253,58.658413 74.54038,59.683237 75.49185,60.634707 C 77.074859,62.217716 77.084971,62.464699 75.610897,63.542568 C 73.621603,64.997176 73.493143,66.408477 75.417241,65.670131 C 76.196724,65.371016 77.082601,65.772871 77.385856,66.563142 C 78.259961,68.841021 74.236683,68.310762 72.991419,65.983966 z M 81,67.014307 C 81,66.39152 81.444846,66.156896 81.988546,66.492921 C 82.542263,66.835137 82.730385,66.460968 82.416224,65.642279 C 81.846367,64.157256 85.568634,62.235301 86.742027,63.408694 C 87.067246,63.733912 86.633333,64 85.777778,64 C 84.922133,64 84.284714,64.770161 84.361111,65.711685 C 84.4375,66.653112 83.7125,67.586108 82.75,67.785009 C 81.7875,67.983911 81,67.637095 81,67.014307 z M 98,66 C 98,64.666667 98.666667,64 100,64 C 101.17819,64 102,64.666667 102,65.622445 C 102,67.020256 101.7664,67.05487 100.31277,65.872445 C 98.835246,64.670583 98.707054,64.71751 99.281384,66.25 C 99.6421,67.2125 99.501354,68 98.968615,68 C 98.435877,68 98,67.1 98,66 z M 110.36961,67.319098 C 110.73427,66.669602 110.56794,65.851008 110,65.5 C 109.43206,65.148992 109.22627,64.442898 109.54271,63.930902 C 109.85914,63.418906 109.68962,63 109.16601,63 C 108.64239,63 107.95748,62.331585 107.64399,61.514633 C 107.16629,60.269775 107.39376,60.228962 109.04884,61.262576 C 110.13501,61.940897 110.80748,63.059312 110.54323,63.747943 C 110.27898,64.436575 110.55111,65 111.14796,65 C 111.74482,65 112.03526,63.964769 111.79338,62.699486 C 111.45557,60.932308 111.83132,60.362987 113.4142,60.243753 C 114.9386,60.128923 115.11489,60.310962 114.09167,60.943342 C 113.1841,61.504251 112.98251,62.434533 113.50532,63.649075 C 114.92794,66.953904 114.96118,68.212669 113.59591,67.079601 C 112.72978,66.360776 111.95095,66.419708 111.0295,67.273794 C 110.09573,68.139309 109.90162,68.152635 110.36961,67.319098 z M 88.5,66 C 87.18126,65.433318 87.010945,65.121845 88,65.085598 C 88.825,65.055363 90.175,65.466844 91,66 C 92.827966,67.181322 91.249085,67.181322 88.5,66 z M 118,64.212804 C 118,63.779847 119.00683,63.349767 120.23739,63.257071 C 121.99579,63.124615 122.15636,63.289863 120.98739,64.028954 C 119.159,65.184973 118,65.2563 118,64.212804 z M 124,63.559017 C 124,63.316476 124.45,62.839919 125,62.5 C 125.55,62.160081 126,62.358524 126,62.940983 C 126,63.523442 125.55,64 125,64 C 124.45,64 124,63.801558 124,63.559017 z M 18.564549,61.75 C 18.359575,61.0625 17.954855,59.756891 17.665173,58.848646 C 17.115372,57.124849 19.256863,56.855799 20.721056,58.464714 C 21.149565,58.935578 20.868134,58.95407 20.095492,58.505817 C 19.129215,57.945226 18.92298,58.066362 19.434519,58.89405 C 19.953539,59.733842 20.553782,59.785291 21.422361,59.064435 C 22.333007,58.308665 22.670799,58.496756 22.682079,59.765876 C 22.706717,62.538034 19.290323,64.1843 18.564549,61.75 z M 41.580406,61 C 41.956586,59.625 42.607115,58.365924 43.026026,58.202053 C 43.444938,58.038182 43.557971,57.025682 43.277211,55.952053 C 42.920901,54.589523 43.272786,54 44.442386,54 C 45.363992,54 45.871431,54.399012 45.570027,54.886693 C 45.268624,55.374374 45.756977,56.383345 46.655256,57.128851 C 48.108586,58.335008 48.205967,58.224304 47.539307,56.123845 C 46.979481,54.35999 47.132587,53.877775 48.145061,54.215995 C 48.978034,54.494252 49.885232,53.485134 50.5,51.596488 C 51.09182,49.778341 52.316359,48.377123 53.5,48.163641 C 55.377498,47.825015 55.360827,47.93511 53.227826,49.961074 C 50.883909,52.18737 51.032544,54 53.559017,54 C 55.217431,54 55.485109,55.582152 53.983688,56.510081 C 52.497839,57.428386 53.807768,59 56.059017,59 C 57.828936,59 58.987397,60.968592 57.25,61.023857 C 56.8375,61.036978 54.87266,61.42602 52.883688,61.888394 C 49.938783,62.572994 49.288971,62.449301 49.383688,61.222166 C 49.568141,58.832434 46.93026,58.550681 46.3173,60.894644 C 45.65959,63.40973 44,63.706388 44,61.30887 C 44,59.828101 43.806973,59.859199 42.448221,61.55887 C 40.957575,63.423528 40.923387,63.401511 41.580406,61 z M 53.5,60 C 52.708061,58.718615 52,58.718615 52,60 C 52,60.55 52.476558,61 53.059017,61 C 53.641476,61 53.839919,60.55 53.5,60 z M 52,56.940983 C 52,56.358524 51.55,56.160081 51,56.5 C 49.718615,57.291939 49.718615,58 51,58 C 51.55,58 52,57.523442 52,56.940983 z M 64,62 C 64,61.45 64.675,61 65.5,61 C 66.325,61 67,61.45 67,62 C 67,62.55 66.325,63 65.5,63 C 64.675,63 64,62.55 64,62 z M 89,62 C 89,61.45 89.45,61 90,61 C 90.55,61 91,61.45 91,62 C 91,62.55 90.55,63 90,63 C 89.45,63 89,62.55 89,62 z M 99.878115,62.187934 C 100.63608,61.657554 100.96944,60.759574 100.61892,60.192423 C 99.77715,58.830404 102.69055,55.978727 104.82143,56.078947 C 105.87159,56.128339 106.0297,56.347501 105.24377,56.664358 C 104.55284,56.942912 104.28749,57.694886 104.65409,58.33541 C 105.0207,58.975935 104.95117,59.165167 104.49958,58.755926 C 104.048,58.346685 103.18835,58.986149 102.58926,60.176957 C 101.99017,61.367765 100.825,62.524357 100,62.747162 C 98.766831,63.0802 98.745149,62.98072 99.878115,62.187934 z M 92,60 C 92,59.45 92.701558,59 93.559017,59 C 94.416476,59 94.839919,59.45 94.5,60 C 93.700321,61.293907 92,61.293907 92,60 z M 119.981,59.477108 C 118.92422,58.203761 118.98608,58.05743 120.35856,58.584097 C 121.26135,58.930531 122,59.615833 122,60.106989 C 122,61.392948 121.42113,61.212353 119.981,59.477108 z M 35.5,59 C 33.823983,58.279791 34.026473,58.129185 36.75,58.070285 C 39.114594,58.019148 40,57.536865 40,56.3 C 40,55.012355 40.280794,54.880794 41.157618,55.757618 C 42.034443,56.634443 42.004742,57.289359 41.035174,58.457618 C 39.61767,60.165606 38.473432,60.277728 35.5,59 z M 84.270833,54.395833 C 84.603125,54.063542 85.465625,54.028015 86.1875,54.316886 C 86.985233,54.636112 86.748276,54.873069 85.583333,54.921053 C 84.529167,54.964474 83.938542,54.728125 84.270833,54.395833 z M 57.15805,52.117899 C 56.180874,51.499248 56.531429,51.131565 58.447685,50.76525 C 60.047103,50.459501 60.941155,50.676536 60.727135,51.318595 C 60.236807,52.78958 58.746254,53.123392 57.15805,52.117899 z M 66.070374,52.064655 C 65.28408,51.56706 64.531771,50.417429 64.398577,49.509921 C 64.184207,48.049322 64.39943,48.021267 66.273397,49.265535 C 69.887605,51.665279 69.692386,54.356796 66.070374,52.064655 z M 40.183333,48.783333 C 39.5325,48.1325 39,46.914872 39,46.077494 C 39,45.032366 39.502303,45.272126 40.601999,46.842161 C 42.35664,49.347263 42.071116,50.671116 40.183333,48.783333 z M 79.132617,47.103124 C 77.580554,46.119876 76.633421,40.261778 77.66083,38 C 78.115596,36.998862 78.541953,37.664011 78.942819,40 C 79.279588,41.962469 79.0946,43.822744 78.521717,44.234687 C 77.933183,44.657885 78.241956,44.975867 79.25,44.984687 C 80.2125,44.993109 81,45.675 81,46.5 C 81,48.237418 80.949072,48.253866 79.132617,47.103124 z M 75.5,35 C 75.160081,34.45 75.160081,33.55 75.5,33 C 75.839919,32.45 75.341476,32 74.39235,32 C 73.443224,32 72.932754,31.733912 73.257973,31.408694 C 74.431366,30.235301 78.153633,32.157256 77.583776,33.642279 C 77.269615,34.460968 77.457737,34.835137 78.011454,34.492921 C 78.555154,34.156896 79,34.358524 79,34.940983 C 79,36.284213 76.3216,36.329376 75.5,35 z M 82.614144,34.563142 C 82.917399,33.772871 83.803276,33.371016 84.582759,33.670131 C 86.506857,34.408477 86.378397,32.997176 84.389103,31.542568 C 82.915029,30.464699 82.925141,30.217716 84.50815,28.634707 C 85.45962,27.683237 85.991747,26.658413 85.690654,26.35732 C 85.389561,26.056227 84.335981,26.752656 83.349365,27.904939 C 82.362749,29.057223 81.205527,30 80.777759,30 C 79.323028,30 79.993315,27.384298 82,25.230375 C 84.319596,22.740581 84.490187,22 82.744111,22 C 82.053373,22 80.889526,23.352549 80.157786,25.005665 C 79.426046,26.658781 78.42135,27.760409 77.925129,27.453727 C 77.428908,27.147046 77.290899,27.594496 77.618443,28.448062 C 78.493424,30.728224 76.6928,30.338997 75.183136,27.921639 C 73.698427,25.544243 75.045796,23.0467 77.872445,22.936614 C 78.905817,22.896368 78.587308,22.474614 77,21.781365 C 75.625,21.18084 73.889771,20.790051 73.143936,20.912944 C 72.3981,21.035838 71.976225,20.571325 72.206436,19.880693 C 72.436646,19.190062 71.792961,17.792961 70.776025,16.776025 C 69.75909,15.75909 69.195022,14.493465 69.522542,13.963525 C 69.850063,13.433586 69.446801,13 68.626405,13 C 67.210946,13 65.323569,9.3430977 66.257179,8.409488 C 67.122032,7.5446344 72.068811,13.378298 71.570887,14.675866 C 71.291423,15.40414 71.623638,16 72.309144,16 C 72.99465,16 74.352079,16.930316 75.325654,18.067368 C 77.115958,20.158291 79.710309,20.196391 79.25,18.125 C 79.1125,17.50625 79.45,17 80,17 C 80.55,17 81.015946,18.0125 81.035435,19.25 C 81.070424,21.471626 81.088893,21.468474 82.5,19 L 83.929129,16.5 L 83.964565,19.190983 C 84.005134,22.271836 85.510788,23.71725 86.36383,21.494256 C 86.6792,20.672415 87.456454,20 88.09106,20 C 88.922362,20 88.896908,20.419292 88,21.5 C 87.098773,22.585912 87.074684,23 87.912739,23 C 88.76049,23 88.783848,23.535366 88,25 C 86.977771,26.910052 87.562635,27.493531 90.155144,27.15004 C 90.515474,27.102298 91.060636,27.715631 91.366616,28.513002 C 91.727989,29.454724 91.32319,29.913767 90.211471,29.82294 C 89.270162,29.746035 87.375,29.782936 86,29.904943 L 83.5,30.126773 L 85.793765,31.047352 C 87.722044,31.821247 87.915612,32.289164 87.008581,33.983966 C 85.763317,36.310762 81.740039,36.841021 82.614144,34.563142 z M 109.41826,34.880699 C 109.57207,34.121314 110.05646,32.667084 110.49468,31.649075 C 111.01749,30.434533 110.8159,29.504251 109.90833,28.943342 C 108.88511,28.310962 109.0614,28.128923 110.5858,28.243753 C 112.16868,28.362987 112.54443,28.932308 112.20662,30.699486 C 111.96474,31.964769 112.25518,33 112.85204,33 C 113.44889,33 113.72102,32.436575 113.45677,31.747943 C 113.19252,31.059312 113.86499,29.940897 114.95116,29.262576 C 116.60624,28.228962 116.83371,28.269775 116.35601,29.514633 C 116.04252,30.331585 115.35761,31 114.83399,31 C 114.31038,31 114.14086,31.418906 114.45729,31.930902 C 114.77373,32.442898 114.56794,33.148992 114,33.5 C 113.43206,33.851008 113.2861,34.669602 113.67565,35.319098 C 114.18302,36.165046 113.95398,36.152195 112.86816,35.273794 C 111.76007,34.377371 111.05471,34.345286 110.24551,35.154492 C 109.4363,35.963699 109.21382,35.890063 109.41826,34.880699 z M 124.71862,34.25 C 125.29295,32.71751 125.16475,32.670583 123.68723,33.872445 C 122.2336,35.05487 122,35.020256 122,33.622445 C 122,32.666667 122.82181,32 124,32 C 125.33333,32 126,32.666667 126,34 C 126,35.1 125.56412,36 125.03138,36 C 124.49865,36 124.3579,35.2125 124.71862,34.25 z M 69,34 C 69.825,33.466844 71.175,33.055363 72,33.085598 C 72.989055,33.121845 72.81874,33.433318 71.5,34 C 68.750915,35.181322 67.172034,35.181322 69,34 z M 103.01261,32.028954 C 101.84364,31.289863 102.00421,31.124615 103.76261,31.257071 C 104.99317,31.349767 106,31.779847 106,32.212804 C 106,33.2563 104.841,33.184973 103.01261,32.028954 z M 98,31 C 98,29.718615 98.708061,29.718615 99.5,31 C 99.839919,31.55 99.641476,32 99.059017,32 C 98.476558,32 98,31.55 98,31 z M 10.401254,30.233744 C 9.7969441,29.830185 9.3094441,28.719644 9.3179209,27.765876 C 9.3292005,26.496756 9.6669927,26.308665 10.577639,27.064435 C 11.446218,27.785291 12.046461,27.733842 12.565481,26.89405 C 13.07702,26.066362 12.870785,25.945226 11.904508,26.505817 C 11.131866,26.95407 10.850435,26.935578 11.278944,26.464714 C 11.707364,25.993949 12.668272,25.519193 13.414297,25.4097 C 14.403189,25.264561 14.583785,25.909539 14.080832,27.790151 C 13.332864,30.586905 12.128138,31.38696 10.401254,30.233744 z M 42.25,29.834059 C 37.927975,28.866172 36.407533,27 39.940983,27 C 42.192232,27 43.502161,25.428386 42.016312,24.510081 C 40.514891,23.582152 40.782569,22 42.440983,22 C 44.967456,22 45.116091,20.18737 42.772174,17.961074 C 40.639173,15.93511 40.622502,15.825015 42.5,16.163641 C 43.683641,16.377123 44.90818,17.778341 45.5,19.596488 C 46.114768,21.485134 47.021966,22.494252 47.854939,22.215995 C 48.867413,21.877775 49.020519,22.35999 48.460693,24.123845 C 47.794033,26.224304 47.891414,26.335008 49.344744,25.128851 C 50.243023,24.383345 50.731376,23.374374 50.429973,22.886693 C 50.128569,22.399012 50.636008,22 51.557614,22 C 52.727214,22 53.079099,22.589523 52.722789,23.952053 C 52.442029,25.025682 52.555062,26.038182 52.973974,26.202053 C 53.392885,26.365924 54.043414,27.625 54.419594,29 C 55.076613,31.401511 55.042425,31.423528 53.551779,29.55887 C 52.193027,27.859199 52,27.828101 52,29.30887 C 52,31.706388 50.34041,31.40973 49.6827,28.894644 C 49.049286,26.472468 46.428612,26.87109 46.638889,29.357629 C 46.715278,30.260933 46.715278,30.951809 46.638889,30.892908 C 46.5625,30.834007 44.5875,30.357525 42.25,29.834059 z M 44,27.940983 C 44,27.358524 43.55,27.160081 43,27.5 C 41.718615,28.291939 41.718615,29 43,29 C 43.55,29 44,28.523442 44,27.940983 z M 45.5,25 C 44.708061,23.718615 44,23.718615 44,25 C 44,25.55 44.476558,26 45.059017,26 C 45.641476,26 45.839919,25.55 45.5,25 z M 69,30 C 69,29.45 69.45,29 70,29 C 70.55,29 71,29.45 71,30 C 71,30.55 70.55,31 70,31 C 69.45,31 69,30.55 69,30 z M 93,30 C 93,29.45 93.675,29 94.5,29 C 95.325,29 96,29.45 96,30 C 96,30.55 95.325,31 94.5,31 C 93.675,31 93,30.55 93,30 z M 122.2,29.8 C 121.54,29.14 121,27.988442 121,27.240983 C 121,26.468364 120.50185,26.189843 119.84549,26.595492 C 119.16311,27.017227 118.96119,26.871819 119.35172,26.239919 C 119.71513,25.651915 119.44716,24.942912 118.75623,24.664358 C 117.9703,24.347501 118.12841,24.128339 119.17857,24.078947 C 121.30945,23.978727 124.22285,26.830404 123.38108,28.192423 C 123.03056,28.759574 123.36392,29.616405 124.12188,30.096491 C 124.87985,30.576577 125.0275,30.976265 124.45,30.984687 C 123.8725,30.993109 122.86,30.46 122.2,29.8 z M 65.5,28 C 65.160081,27.45 65.583524,27 66.440983,27 C 67.298442,27 68,27.45 68,28 C 68,29.293907 66.299679,29.293907 65.5,28 z M 102,28.106989 C 102,27.615833 102.73865,26.930531 103.64144,26.584097 C 105.01392,26.05743 105.07578,26.203761 104.019,27.477108 C 102.57887,29.212353 102,29.392948 102,28.106989 z M 54.964826,26.457618 C 53.995258,25.289359 53.965557,24.634443 54.842382,23.757618 C 55.719206,22.880794 56,23.012355 56,24.3 C 56,25.536865 56.885406,26.019148 59.25,26.070285 C 61.973527,26.129185 62.176017,26.279791 60.5,27 C 57.526568,28.277728 56.38233,28.165606 54.964826,26.457618 z M 73.270833,22.395833 C 73.603125,22.063542 74.465625,22.028015 75.1875,22.316886 C 75.985233,22.636112 75.748276,22.873069 74.583333,22.921053 C 73.529167,22.964474 72.938542,22.728125 73.270833,22.395833 z M 35.666667,20.333333 C 34.282416,18.949083 35.089961,18.294541 37.59195,18.772826 C 39.484579,19.134625 39.821835,19.497787 38.84195,20.118842 C 37.205762,21.155863 36.534538,21.201205 35.666667,20.333333 z M 91.221473,19.835582 C 91.434949,19.195153 92.562258,18.038631 93.726603,17.265535 C 95.60057,16.021267 95.815793,16.049322 95.601423,17.509921 C 95.363163,19.133287 93.300675,20.954662 91.666667,20.984687 C 91.208333,20.993109 91.007996,20.476012 91.221473,19.835582 z M 54.031803,17.372445 C 54.049295,16.8926 54.724295,15.626492 55.531803,14.55887 C 56.707155,13.004917 57,12.930629 57,14.186426 C 57,15.049202 56.325,16.315311 55.5,17 C 54.675,17.684689 54.014312,17.852289 54.031803,17.372445 z M 79,14.468615 C 79,13.660877 79.7875,12.993109 80.75,12.984687 C 81.758044,12.975867 82.066817,12.657885 81.478283,12.234687 C 80.9054,11.822744 80.720412,9.9624691 81.057181,8 C 81.449659,5.7128935 81.884636,5.0198115 82.312379,6 C 82.85031,7.2326905 82.772426,10.429973 82.11402,14.143011 C 81.860037,15.575337 79,15.874384 79,14.468615 z "
       id="path1941" />
    <path
       style="fill:#979797"
       d="M 70.507079,67.011454 C 70.15674,66.444594 70.558137,66.276947 71.448062,66.618443 C 73.180479,67.283234 73.497449,68 72.059017,68 C 71.541476,68 70.843104,67.555154 70.507079,67.011454 z M 70,63.968615 C 70,63.435877 70.675,63 71.5,63 C 73.42067,63 73.42067,63.624596 71.5,64.361626 C 70.675,64.678209 70,64.501354 70,63.968615 z M 87.5,61.487842 C 87.5,59.661195 87.65877,58.325437 87.852823,58.519489 C 88.046875,58.713542 89.262835,58.470369 90.554957,57.979106 C 92.448736,57.259092 92.792645,57.376784 92.328595,58.586078 C 92.011975,59.411176 91.512419,59.845753 91.218471,59.551804 C 90.286792,58.620126 88.096743,61.088534 88.627615,62.471962 C 88.907418,63.201117 88.768169,64.025245 88.318174,64.303358 C 87.868178,64.58147 87.5,63.314488 87.5,61.487842 z M 102.69951,63.659316 C 102.41655,62.92194 102.57713,61.68444 103.05636,60.909316 C 103.79269,59.718323 104.18051,59.752769 105.5598,61.131676 C 106.81778,62.389315 106.90527,62.940511 105.94145,63.536184 C 105.13245,64.036174 104.94289,63.901427 105.40451,63.154508 C 105.82491,62.474278 105.49048,62 104.5904,62 C 103.64335,62 103.28153,62.570078 103.63837,63.5 C 103.95496,64.325 103.98898,65 103.71398,65 C 103.43898,65 102.98247,64.396692 102.69951,63.659316 z M 123,62.528825 C 123,61.514275 125.92013,60.061757 126.39972,60.837752 C 126.7175,61.351929 126.08257,62.006651 124.98875,62.29269 C 123.89494,62.578729 123,62.68499 123,62.528825 z M 67.031803,58.40301 C 67.014312,57.799665 67.875053,56.297075 68.944562,55.063921 C 70.828586,52.891623 70.884325,52.885523 70.73499,54.868005 C 70.650216,55.993406 70.382158,56.715491 70.139305,56.472638 C 69.896452,56.229785 69.105071,56.811592 68.38068,57.765544 C 67.65629,58.719495 67.049295,59.006354 67.031803,58.40301 z M 121.69424,55.414928 C 120.15107,54.086718 119.33701,53 119.88522,53 C 120.43343,53 121.16462,53.45734 121.51008,54.016312 C 121.85554,54.575283 122.50995,54.802868 122.96431,54.522055 C 123.71381,54.058844 125.41766,56.918027 124.77354,57.558057 C 124.62309,57.707547 123.23741,56.743139 121.69424,55.414928 z M 87.294547,54.551857 C 86.339527,53.464836 86.417797,53.053654 87.671296,52.572641 C 88.541506,52.23871 89.800364,52.419354 90.468757,52.974071 C 91.137151,53.528788 92.077779,53.649052 92.559042,53.241324 C 93.040304,52.833596 92.8313,53.2875 92.094588,54.25 C 90.552782,56.264339 89.891464,56.488412 90.25,54.875 C 90.3875,54.25625 89.937194,53.543648 89.24932,53.29144 C 88.447935,52.997613 88.216939,53.401759 88.606309,54.41644 C 89.343876,56.338511 88.904125,56.383908 87.294547,54.551857 z M 106.52699,53.043674 C 106.20192,52.517695 105.2416,52.353793 104.39296,52.679449 C 103.30424,53.097231 102.94565,52.746906 103.17498,51.489519 C 103.35374,50.509401 102.89028,49.495062 102.14506,49.235431 C 101.15778,48.891465 100.95177,49.406005 101.38583,51.131687 C 101.71347,52.434259 101.72226,52.934696 101.40536,52.243769 C 101.08846,51.552843 100.53011,51.172371 100.16459,51.398278 C 99.799065,51.624184 99.5,50.546364 99.5,49.003121 C 99.5,46.743266 99.810746,46.363531 101.0968,47.051808 C 102.08487,47.580607 103.21015,47.447708 104.04858,46.703196 C 105.17434,45.703527 105.19204,45.780962 104.15321,47.160972 C 102.47888,49.385203 104.47529,50.651673 106.7938,48.83609 C 108.33059,47.632662 108.36373,47.673759 107.12756,49.25 C 106.02696,50.653366 106.00169,51.297115 107,52.5 C 107.68469,53.325 107.99135,54 107.68146,54 C 107.37158,54 106.85207,53.569653 106.52699,53.043674 z M 70.901014,50.25 C 70.772123,49.0125 70.629167,47.2125 70.583333,46.25 C 70.5375,45.2875 70.11691,44.220266 69.648688,43.878369 C 69.180467,43.536472 70.169201,43.055396 71.845875,42.809313 C 73.52255,42.563229 74.698202,42.679303 74.458435,43.067254 C 74.218668,43.455205 74.96332,44.018651 76.113218,44.319356 C 77.892305,44.784598 78.002421,45.084275 76.851971,46.329845 C 75.690743,47.587084 75.385515,47.593563 74.68854,46.375767 C 74.242236,45.595959 73.385208,45.261929 72.784031,45.633476 C 72.075024,46.071667 71.972488,45.815545 72.492196,44.904508 C 73.151875,43.748106 73.048158,43.728168 71.905064,44.791641 C 70.721441,45.892819 70.727321,46.213441 71.944939,46.96597 C 73.071979,47.662519 73.137208,48.339091 72.25426,50.174329 L 71.135361,52.5 L 70.901014,50.25 z M 90.608582,49.422364 C 90.286462,48.582932 90.42932,48.1473 90.926044,48.454293 C 91.422769,48.761285 92.031007,48.447157 92.277685,47.756231 C 92.524363,47.065304 93.066369,46.816071 93.482143,47.202381 C 93.897917,47.58869 93.553231,48.589626 92.716175,49.426682 C 91.353614,50.789243 91.132929,50.78879 90.608582,49.422364 z M 110.63948,49.306147 C 109.65702,48.32369 109.88125,46.808574 110.91459,47.447214 C 111.41761,47.7581 112.05709,47.447157 112.33564,46.756231 C 112.65047,45.97533 112.87198,46.13983 112.92105,47.190983 C 113.0079,49.051076 111.64651,50.313172 110.63948,49.306147 z M 84.813201,46.369308 C 86.101479,44.067283 89.062498,43.623041 88.283583,45.848646 C 87.813228,47.192596 87.956424,47.267309 89.052821,46.25 C 89.79377,45.5625 91.0975,45.028524 91.95,45.063386 C 93.840286,45.140688 89.449204,47.142259 86.175588,47.695515 C 84.227959,48.024673 84.007119,47.809697 84.813201,46.369308 z M 116.50708,47.011454 C 116.14418,46.424267 116.59283,46.290259 117.61211,46.681393 C 118.76852,47.125152 119.09461,46.962107 118.61211,46.181393 C 118.14489,45.425426 118.43335,45.229063 119.44232,45.616239 C 120.29273,45.942571 120.73954,46.612416 120.43524,47.104785 C 119.6953,48.302038 117.26908,48.244392 116.50708,47.011454 z M 107,45.559017 C 107,45.316476 107.45,44.839919 108,44.5 C 108.55,44.160081 109,44.358524 109,44.940983 C 109,45.523442 108.55,46 108,46 C 107.45,46 107,45.801558 107,45.559017 z M 83.268144,42.450964 C 82.278097,41.383883 82.42817,40.998879 84.032664,40.489633 C 85.130672,40.141139 85.750418,39.405185 85.409878,38.854179 C 85.069338,38.303174 85.726289,38.436627 86.86977,39.150743 C 88.784744,40.346664 88.812733,40.523318 87.224413,41.389104 C 86.275986,41.906087 85.275,42.655233 85,43.053872 C 84.725,43.452511 83.945665,43.181203 83.268144,42.450964 z M 87,35.606989 C 87,35.390833 87.698372,34.945987 88.551938,34.618443 C 89.441863,34.276947 89.84326,34.444594 89.492921,35.011454 C 88.905663,35.961658 87,36.416902 87,35.606989 z M 71.5,32 C 71.160081,31.45 71.128569,30.600988 71.429973,30.113307 C 72.053177,29.104941 69.600528,26.732805 68.781529,27.551804 C 68.487581,27.845753 67.988025,27.411176 67.671405,26.586078 C 67.207355,25.376784 67.551264,25.259092 69.445043,25.979106 C 70.737165,26.470369 71.953125,26.713542 72.147177,26.519489 C 72.34123,26.325437 72.5,27.704167 72.5,29.583333 C 72.5,33.303712 72.422095,33.491982 71.5,32 z M 88,32 C 86.718103,31.171574 86.754453,31.028399 88.25,31.015313 C 89.2125,31.006891 90,31.45 90,32 C 90,33.21961 89.887213,33.21961 88,32 z M 120.37428,31.75 C 120.74378,30.601369 120.41228,30 119.4096,30 C 118.50952,30 118.17509,30.474278 118.59549,31.154508 C 119.04785,31.886438 118.86866,32.036864 118.10595,31.565481 C 117.18473,30.996135 117.17722,30.491391 118.07389,29.410972 C 118.71794,28.634938 119.59164,28 120.01546,28 C 121.34786,28 121.85873,30.619794 120.81315,32.090684 C 120.01985,33.206676 119.9285,33.135768 120.37428,31.75 z M 98.566376,30.102217 C 97.396038,29.64391 97.055253,29.083885 97.70307,28.683513 C 98.291744,28.319692 99.329475,28.692066 100.00914,29.51101 C 101.37879,31.161343 101.3261,31.182934 98.566376,30.102217 z M 91.36383,25.505744 C 91.04846,24.683903 90.480997,24.202727 90.102801,24.436466 C 89.724605,24.670204 89.346705,23.952529 89.263024,22.841633 C 89.117139,20.904962 89.190918,20.914111 91.055438,23.063921 C 92.932898,25.22865 93.568868,27 92.468615,27 C 92.176354,27 91.6792,26.327585 91.36383,25.505744 z M 99.015313,25.326058 C 99.036477,24.184352 100.96571,21.290948 100.98469,22.372445 C 100.99311,22.852289 101.68587,22.675664 102.52417,21.979944 C 103.36246,21.284224 104.20315,20.891624 104.39238,21.107499 C 104.58161,21.323375 103.44574,22.546726 101.86822,23.826058 C 100.2907,25.105391 99.006891,25.780391 99.015313,25.326058 z M 67.905412,22.25 C 67.1687,21.2875 66.959696,20.833596 67.440958,21.241324 C 67.922221,21.649052 68.896324,21.501006 69.605633,20.912333 C 70.347282,20.296818 71.511063,20.194274 72.344441,20.671009 C 73.593408,21.385481 73.574346,21.702688 72.206447,22.967243 C 70.795754,24.271358 70.696124,24.234272 71.310328,22.633682 C 71.778981,21.412393 71.598881,20.980448 70.75068,21.29144 C 70.062806,21.543648 69.6125,22.25625 69.75,22.875 C 70.108536,24.488412 69.447218,24.264339 67.905412,22.25 z M 116.92067,20.75 C 118.02253,19.293857 118.01443,18.706143 116.87244,17.25 C 115.63627,15.673759 115.66941,15.632662 117.2062,16.83609 C 119.52471,18.651673 121.52112,17.385203 119.84679,15.160972 C 118.80796,13.780962 118.82566,13.703527 119.95142,14.703196 C 120.78985,15.447708 121.91513,15.580607 122.9032,15.051808 C 124.18925,14.363531 124.5,14.743266 124.5,17.003121 C 124.5,18.546364 124.20093,19.624184 123.83541,19.398278 C 123.46989,19.172371 122.91154,19.552843 122.59464,20.243769 C 122.27774,20.934696 122.28653,20.434259 122.61417,19.131687 C 123.04823,17.406005 122.84222,16.891465 121.85494,17.235431 C 121.10972,17.495062 120.64626,18.509401 120.82502,19.489519 C 121.04671,20.705063 120.68809,21.094286 119.69687,20.71392 C 118.89763,20.407224 117.64808,20.683625 116.92008,21.328145 C 115.8232,22.299258 115.8233,22.20022 116.92067,20.75 z M 87.555592,18.125154 C 87.034916,16.518477 87.222211,15.4807 88.134629,14.916795 C 89.261464,14.220372 89.254936,13.870841 88.094936,12.791641 C 86.951842,11.728168 86.848125,11.748106 87.507804,12.904508 C 88.027512,13.815545 87.924976,14.071667 87.215969,13.633476 C 86.614792,13.261929 85.757764,13.595959 85.31146,14.375767 C 84.614485,15.593563 84.309257,15.587084 83.148029,14.329845 C 81.997579,13.084275 82.107695,12.784598 83.886782,12.319356 C 85.03668,12.018651 85.781332,11.455205 85.541565,11.067254 C 85.301798,10.679303 86.54436,10.576601 88.302813,10.839027 C 90.061266,11.101454 90.96278,11.499102 90.306177,11.722691 C 89.649574,11.946279 89.309911,12.662642 89.551369,13.314608 C 89.792828,13.966573 89.61572,15.85 89.157797,17.5 C 88.336126,20.460664 88.315118,20.468861 87.555592,18.125154 z M 67.14912,17.396176 C 66.406136,16.555914 66.130243,15.560531 66.536024,15.184214 C 66.941806,14.807896 67.475637,15.065304 67.722315,15.756231 C 67.968993,16.447157 68.577231,16.761285 69.073956,16.454293 C 69.57068,16.1473 69.709101,16.594496 69.381557,17.448062 C 68.673721,19.292652 68.829235,19.296267 67.14912,17.396176 z M 111.3694,16.520254 C 111.03034,15.636673 111.03352,14.633151 111.37646,14.290205 C 111.71941,13.947259 112,14.218224 112,14.89235 C 112,15.566476 112.45,15.839919 113,15.5 C 113.55,15.160081 114,15.331966 114,15.881966 C 114,17.680837 112.00089,18.1659 111.3694,16.520254 z M 69,14.307035 C 67.519441,13.550439 67.132053,13.023472 68.05,13.014742 C 68.9025,13.006634 70.20623,13.5625 70.947179,14.25 C 72.043576,15.267309 72.186772,15.192596 71.716417,13.848646 C 70.947556,11.651769 73.890453,12.052865 75.157917,14.317699 C 75.918625,15.677008 75.666869,15.948125 73.79553,15.78486 C 72.532989,15.674709 70.375,15.009688 69,14.307035 z M 103.56476,15.104785 C 103.26046,14.612416 103.70727,13.942571 104.55768,13.616239 C 105.56665,13.229063 105.85511,13.425426 105.38789,14.181393 C 104.90539,14.962107 105.23148,15.125152 106.38789,14.681393 C 107.40717,14.290259 107.85582,14.424267 107.49292,15.011454 C 106.73092,16.244392 104.3047,16.302038 103.56476,15.104785 z M 115,13 C 115,11.718615 115.70806,11.718615 116.5,13 C 116.83992,13.55 116.64148,14 116.05902,14 C 115.47656,14 115,13.55 115,13 z M 75,11.192241 C 75,10.704604 74.091826,9.8993623 72.981834,9.4028144 C 70.996058,8.514489 71.00007,8.4778323 73.231834,7.1187211 C 74.479326,6.3590176 75.148386,6.1106314 74.718636,6.5667518 C 74.288886,7.0228721 74.805382,7.8694476 75.866406,8.4480307 C 77.5051,9.3416214 77.5851,9.6941288 76.39777,10.789427 C 75.628996,11.498611 75,11.679878 75,11.192241 z "
       id="path1939" />
    <path
       style="fill:#ef7f2f"
       d="M 77.385856,66.563142 C 77.082601,65.772871 76.196724,65.371016 75.417241,65.670131 C 73.493143,66.408477 73.621603,64.997176 75.610897,63.542568 C 77.084971,62.464699 77.074859,62.217716 75.49185,60.634707 C 74.54038,59.683237 74.008253,58.658413 74.309346,58.35732 C 74.610439,58.056227 75.664019,58.752656 76.650635,59.904939 C 78.7055,62.304847 80,62.599248 80,60.666667 C 80,59.933333 80.632097,59.333333 81.404659,59.333333 C 82.177222,59.333333 82.579077,59.933333 82.29767,60.666667 C 82.016264,61.4 82.246667,62 82.809678,62 C 83.372688,62 84.060307,61.4375 84.337719,60.75 C 84.634345,60.014883 84.874624,60.233764 84.921053,61.281385 C 84.964474,62.261146 84.299138,63.331715 83.442529,63.660427 C 82.585921,63.989139 82.130766,64.898388 82.431075,65.68098 C 82.733525,66.469153 82.536122,66.831342 81.988546,66.492921 C 81.444846,66.156896 81,66.358524 81,66.940983 C 81,68.52826 78.020409,68.216759 77.385856,66.563142 z M 80.320101,63.02896 C 79.579687,62.2157 78.100934,65.354298 78.738486,66.385878 C 79.072071,66.925631 79.660892,66.497116 80.046976,65.433624 C 80.43306,64.370131 80.555966,63.288032 80.320101,63.02896 z M 72.75,62.337719 C 73.4375,62.060307 74.5625,62.060307 75.25,62.337719 C 75.9375,62.615132 75.375,62.842105 74,62.842105 C 72.625,62.842105 72.0625,62.615132 72.75,62.337719 z M 52,60 C 52,58.718615 52.708061,58.718615 53.5,60 C 53.839919,60.55 53.641476,61 53.059017,61 C 52.476558,61 52,60.55 52,60 z M 40,59.559017 C 40,59.316476 40.45,58.839919 41,58.5 C 41.55,58.160081 42,58.358524 42,58.940983 C 42,59.523442 41.55,60 41,60 C 40.45,60 40,59.801558 40,59.559017 z M 83,53.653019 C 84.375,52.928395 85.711968,52.509497 85.97104,52.722134 C 86.674306,53.299349 83.724149,54.969289 82,54.969945 C 81.173235,54.97026 81.622058,54.379193 83,53.653019 z M 50,48.059017 C 50,47.541476 50.444846,46.843104 50.988546,46.507079 C 51.555406,46.15674 51.723053,46.558137 51.381557,47.448062 C 50.716766,49.180479 50,49.497449 50,48.059017 z M 44.5,45 C 44.160081,44.45 44.358524,44 44.940983,44 C 45.523442,44 46,44.45 46,45 C 46,46.281385 45.291939,46.281385 44.5,45 z M 79,34.940983 C 79,34.358524 78.555154,34.156896 78.011454,34.492921 C 77.463878,34.831342 77.266475,34.469153 77.568925,33.68098 C 77.869234,32.898388 77.414079,31.989139 76.557471,31.660427 C 75.700862,31.331715 75.035526,30.261146 75.078947,29.281385 C 75.125376,28.233764 75.365655,28.014883 75.662281,28.75 C 75.939693,29.4375 76.627312,30 77.190322,30 C 77.753333,30 77.983736,29.4 77.70233,28.666667 C 77.420923,27.933333 77.822778,27.333333 78.595341,27.333333 C 79.367903,27.333333 80,27.933333 80,28.666667 C 80,30.599248 81.2945,30.304847 83.349365,27.904939 C 84.335981,26.752656 85.389561,26.056227 85.690654,26.35732 C 85.991747,26.658413 85.45962,27.683237 84.50815,28.634707 C 82.925141,30.217716 82.915029,30.464699 84.389103,31.542568 C 86.378397,32.997176 86.506857,34.408477 84.582759,33.670131 C 83.803276,33.371016 82.917399,33.772871 82.614144,34.563142 C 81.979591,36.216759 79,36.52826 79,34.940983 z M 81.349337,32.467975 C 80.50241,30.260918 79.109491,30.702689 79.70731,32.988753 C 79.993349,34.082567 80.606566,34.743155 81.070016,34.456728 C 81.533466,34.1703 81.65916,33.275361 81.349337,32.467975 z M 84.75,30.337719 C 85.4375,30.060307 86.5625,30.060307 87.25,30.337719 C 87.9375,30.615132 87.375,30.842105 86,30.842105 C 84.625,30.842105 84.0625,30.615132 84.75,30.337719 z M 42,28.559017 C 42,28.316476 42.45,27.839919 43,27.5 C 43.55,27.160081 44,27.358524 44,27.940983 C 44,28.523442 43.55,29 43,29 C 42.45,29 42,28.801558 42,28.559017 z M 54,27 C 54,25.718615 54.708061,25.718615 55.5,27 C 55.839919,27.55 55.641476,28 55.059017,28 C 54.476558,28 54,27.55 54,27 z M 75.02896,22.03906 C 72.648352,20.533517 74.272205,20.215474 77,21.653019 C 78.377942,22.379193 78.826765,22.97026 78,22.969945 C 77.175,22.969631 75.838032,22.550733 75.02896,22.03906 z M 44.564293,15.293128 C 44.021608,13.86793 44.136472,13.753066 45.124088,14.733333 C 45.807506,15.411667 46.114759,16.218574 45.806872,16.526461 C 45.498985,16.834349 44.939824,16.279349 44.564293,15.293128 z M 50,13.059017 C 50,12.476558 50.45,12 51,12 C 52.281385,12 52.281385,12.708061 51,13.5 C 50.45,13.839919 50,13.641476 50,13.059017 z "
       id="path1937" />
    <path
       style="fill:#7f7f7f"
       d="M 77.722241,56.988569 C 75.673103,54.59535 75.578365,53.997368 77.25,54.007802 C 77.9375,54.012093 79.020162,55.137093 79.655915,56.507802 C 81.049551,59.512537 80.088022,59.751601 77.722241,56.988569 z M 23.100391,55.704522 C 21.835473,53.598213 21.856783,53.576903 23.578723,55.22619 C 24.569949,56.175595 25.165703,57.16763 24.902621,57.430712 C 24.639539,57.693794 23.828536,56.917008 23.100391,55.704522 z M 35.179647,56.716462 C 33.790193,55.042272 34.757863,53.659316 38.75,51.613852 C 40.5375,50.697985 42,49.333341 42,48.581309 C 42,46.850231 44.714852,45.774722 47.140877,46.544713 C 49.263322,47.218351 49.611406,50.247689 47.744406,51.797161 C 47.053829,52.370289 45.298298,53.138012 43.843227,53.503211 C 42.388156,53.868411 40.27199,55.029588 39.140635,56.083605 C 36.703828,58.353836 36.557898,58.377152 35.179647,56.716462 z M 56.25518,54.037 C 55.229788,52.395087 55.272227,52.167233 56.514633,52.643989 C 57.331585,52.957483 58,53.840833 58,54.606989 C 58,56.462031 57.710595,56.36749 56.25518,54.037 z M 13.753557,54.420224 C 13.434681,54.101347 10.547181,53.763847 7.3368907,53.670224 C 2.8908652,53.540562 1.5,53.142567 1.5,52 C 1.5,49.848737 15.853088,48.639703 17.954505,50.613953 C 19.221092,51.803893 19.156494,52.17139 17.454505,53.458416 C 15.284983,55.098987 14.608203,55.274869 13.753557,54.420224 z M 69.078947,53.583333 C 69.035526,52.529167 69.271875,51.938542 69.604167,52.270833 C 69.936458,52.603125 69.971985,53.465625 69.683114,54.1875 C 69.363888,54.985233 69.126931,54.748276 69.078947,53.583333 z M 76,47.5 C 76,45.816555 76.862695,45.626639 78.833846,46.876149 C 79.897865,47.550631 79.830748,47.850971 78.502058,48.360837 C 76.175273,49.253708 76,49.193405 76,47.5 z M 65.573001,46.478529 C 64.513151,45.676704 63.886903,44.779764 64.181338,44.485328 C 64.475773,44.190893 65.792923,44.846273 67.108337,45.941727 C 69.842987,48.219095 68.496119,48.690003 65.573001,46.478529 z M 68.177422,40.912491 C 67.453623,39.753504 67.053478,38.613188 67.288211,38.378455 C 67.981979,37.684688 70.220329,40.839013 69.841251,41.976247 C 69.649944,42.550167 68.901221,42.071477 68.177422,40.912491 z M 80,40 C 80,38.718615 80.708061,38.718615 81.5,40 C 81.839919,40.55 81.641476,41 81.059017,41 C 80.476558,41 80,40.55 80,40 z M 80.344085,24.507802 C 80.979838,23.137093 82.0625,22.012093 82.75,22.007802 C 84.421635,21.997368 84.326897,22.59535 82.277759,24.988569 C 79.911978,27.751601 78.950449,27.512537 80.344085,24.507802 z M 7,25.289111 C 7,24.714789 7.7875,23.627289 8.75,22.872445 C 10.368755,21.602929 10.389977,21.649994 9.0329677,23.5 C 8.2260999,24.6 7.4385999,25.6875 7.2829677,25.916667 C 7.1273354,26.145833 7,25.863433 7,25.289111 z M 56.667379,24.028238 C 55.659437,23.009146 53.636954,21.874713 52.172973,21.507277 C 50.708992,21.139842 48.946171,20.370289 48.255594,19.797161 C 46.477377,18.321372 46.698495,15.329676 48.640877,14.584314 C 50.909197,13.713878 54,14.842779 54,16.541708 C 54,17.31552 55.4625,18.697985 57.25,19.613852 C 61.242137,21.659316 62.209807,23.042272 60.820353,24.716462 C 59.448226,26.369773 58.892149,26.277621 56.667379,24.028238 z M 38,22.773655 C 38,21.915833 38.73865,20.930531 39.641444,20.584097 C 41.070483,20.035723 41.107099,20.18363 39.924411,21.727108 C 39.177249,22.702199 38.4386,23.6875 38.282968,23.916667 C 38.127335,24.145833 38,23.631478 38,22.773655 z M 14.545495,21.431419 C 12.843573,20.167951 12.778958,19.803846 14.045495,18.613953 C 16.146912,16.639703 30.5,17.848737 30.5,20 C 30.5,21.100062 29.288691,21.523908 25.956885,21.589667 C 23.458172,21.638984 20.308172,21.950024 18.956885,22.280866 C 17.498714,22.637878 15.705501,22.292581 14.545495,21.431419 z M 90.078947,21.583333 C 90.035526,20.529167 90.271875,19.938542 90.604167,20.270833 C 90.936458,20.603125 90.971985,21.465625 90.683114,22.1875 C 90.363888,22.985233 90.126931,22.748276 90.078947,21.583333 z M 81,16 C 80.175,15.466844 79.800696,15.023735 80.168213,15.015313 C 80.535729,15.006891 81.548229,14.726855 82.418213,14.393011 C 83.456196,13.9947 84,14.33849 84,15.393011 C 84,17.224139 83.157875,17.394526 81,16 z M 92.891663,13.941727 C 94.207077,12.846273 95.524227,12.190893 95.818662,12.485328 C 96.456306,13.122972 92.9333,15.937028 91.5,15.934927 C 90.95,15.934121 91.576248,15.037181 92.891663,13.941727 z M 90,9.8135744 C 90,8.9507976 90.675,7.6846892 91.5,7 C 93.408398,5.4161702 93.389047,6.9015388 91.468197,9.4411296 C 90.292845,10.995083 90,11.069371 90,9.8135744 z M 78,8.559017 C 78,8.3164763 78.45,7.8399187 79,7.5 C 79.55,7.1600813 80,7.3585237 80,7.940983 C 80,8.5234424 79.55,9 79,9 C 78.45,9 78,8.8015576 78,8.559017 z "
       id="path1935" />
    <path
       style="fill:#fe0000"
       d="M 78.738486,66.385878 C 78.100934,65.354298 79.579687,62.2157 80.320101,63.02896 C 80.555966,63.288032 80.43306,64.370131 80.046976,65.433624 C 79.660892,66.497116 79.072071,66.925631 78.738486,66.385878 z M 84.270833,64.395833 C 84.603125,64.063542 85.465625,64.028015 86.1875,64.316886 C 86.985233,64.636112 86.748276,64.873069 85.583333,64.921053 C 84.529167,64.964474 83.938542,64.728125 84.270833,64.395833 z M 46.172882,61.340813 C 46.594332,59.152401 49.5,58.842799 49.5,60.986305 C 49.5,61.803773 48.671634,62.632139 47.659187,62.827118 C 46.322791,63.084484 45.915516,62.677209 46.172882,61.340813 z M 50,57.559017 C 50,57.316476 50.45,56.839919 51,56.5 C 51.55,56.160081 52,56.358524 52,56.940983 C 52,57.523442 51.55,58 51,58 C 50.45,58 50,57.801558 50,57.559017 z M 74.157895,53 C 74.157895,51.625 74.384868,51.0625 74.662281,51.75 C 74.939693,52.4375 74.939693,53.5625 74.662281,54.25 C 74.384868,54.9375 74.157895,54.375 74.157895,53 z M 79.70731,32.988753 C 79.421271,31.894939 79.546965,31 79.986631,31 C 81.161559,31 82.05429,33.848413 81.070016,34.456728 C 80.606566,34.743155 79.993349,34.082567 79.70731,32.988753 z M 73.270833,32.395833 C 73.603125,32.063542 74.465625,32.028015 75.1875,32.316886 C 75.985233,32.636112 75.748276,32.873069 74.583333,32.921053 C 73.529167,32.964474 72.938542,32.728125 73.270833,32.395833 z M 46.446149,29.912868 C 45.573472,28.500846 47.500846,26.573472 48.912868,27.446149 C 50.498889,28.426364 50.242637,31 48.559017,31 C 47.766476,31 46.815686,30.51079 46.446149,29.912868 z M 44,25 C 44,23.718615 44.708061,23.718615 45.5,25 C 45.839919,25.55 45.641476,26 45.059017,26 C 44.476558,26 44,25.55 44,25 z M 85.157895,21 C 85.157895,19.625 85.384868,19.0625 85.662281,19.75 C 85.939693,20.4375 85.939693,21.5625 85.662281,22.25 C 85.384868,22.9375 85.157895,22.375 85.157895,21 z "
       id="path1933" />
    <path
       style="fill:#7f3f17"
       d="M 34.458881,62.933469 C 33.286253,61.036115 34.996499,60.567928 36.738095,62.309524 C 38.297037,63.868465 38.299776,64 36.773303,64 C 35.862905,64 34.821415,63.520061 34.458881,62.933469 z M 60.2,62.8 C 59.54,62.14 58.99785,61.1275 58.995222,60.55 C 58.992595,59.9725 57.39371,57.761385 55.442144,55.636411 C 51.56539,51.415184 51.565071,50.42304 55.44078,51.395781 C 58.420829,52.143725 60.885636,55.559054 61.994909,60.477428 C 62.819236,64.132386 62.258267,64.858267 60.2,62.8 z M 58,54.606989 C 58,53.840833 57.331585,52.957483 56.514633,52.643989 C 55.272227,52.167233 55.229788,52.395087 56.25518,54.037 C 57.710595,56.36749 58,56.462031 58,54.606989 z M 67.507079,63.011454 C 67.15674,62.444594 67.558137,62.276947 68.448062,62.618443 C 70.180479,63.283234 70.497449,64 69.059017,64 C 68.541476,64 67.843104,63.555154 67.507079,63.011454 z M 91.232073,62 C 90.540192,60.892122 90.417199,60 90.956342,60 C 91.491652,60 92.411298,60.9 93,62 C 94.394303,64.60528 92.859097,64.60528 91.232073,62 z M 7.5714286,61.428571 C 5.5768337,59.433977 5.5768337,57.566023 7.5714286,55.571429 C 10.558697,52.584161 17,54.584868 17,58.5 C 17,62.415132 10.558697,64.415839 7.5714286,61.428571 z M 11,60 C 11,59.45 10.298442,59 9.440983,59 C 8.5835237,59 8.1600813,59.45 8.5,60 C 8.8399187,60.55 9.5414763,61 10.059017,61 C 10.576558,61 11,60.55 11,60 z M 14.935698,60.060903 C 16.125538,59.308003 16.147382,58.88251 15.063253,57.576215 C 13.586009,55.796246 12,55.497908 12,57 C 12,57.55 12.7875,58.035526 13.75,58.078947 C 15.039183,58.137106 15.127976,58.305001 14.0872,58.716547 C 13.31016,59.023806 12.070974,58.449966 11.333453,57.441347 C 10.292828,56.018207 9.7245913,55.875409 8.7962534,56.803747 C 7.8679155,57.732084 7.9877647,58 9.3313848,58 C 10.283646,58 11.321791,58.675 11.638374,59.5 C 12.299929,61.223987 12.928615,61.330932 14.935698,60.060903 z M 27.499613,61.568717 C 25.8494,60.874474 23.8818,59.562504 23.127168,58.653228 C 22.372536,57.743953 21.328068,57 20.806127,57 C 19.418797,57 16.989638,54.343695 17.714286,53.619048 C 18.692828,52.640506 22.355026,52.926339 24,54.109645 C 25.269603,55.022929 25.233451,55.103059 23.764633,54.631332 C 22.274776,54.152848 22.199177,54.346072 23.230269,55.997111 C 24.098999,57.388169 24.644039,57.585429 25.200323,56.710111 C 25.728099,55.879649 25.974179,56.049029 25.984687,57.25 C 25.993109,58.2125 26.6199,59 27.377555,59 C 28.794058,59 31.594149,61.740112 30.892501,62.439655 C 30.676625,62.654883 29.149826,62.262961 27.499613,61.568717 z M 43.078947,61.583333 C 43.035526,60.529167 43.271875,59.938542 43.604167,60.270833 C 43.936458,60.603125 43.971985,61.465625 43.683114,62.1875 C 43.363888,62.985233 43.126931,62.748276 43.078947,61.583333 z M 37.270833,60.395833 C 37.603125,60.063542 38.465625,60.028015 39.1875,60.316886 C 39.985233,60.636112 39.748276,60.873069 38.583333,60.921053 C 37.529167,60.964474 36.938542,60.728125 37.270833,60.395833 z M 46.020056,56.524166 C 45.231307,55.573782 45.155445,55 45.818538,55 C 47.027093,55 48.436134,56.8972 47.742636,57.590697 C 47.490937,57.842396 46.715776,57.362457 46.020056,56.524166 z M 84.5,56 C 84.160081,55.45 84.331966,55 84.881966,55 C 85.431966,55 86.160081,55.45 86.5,56 C 86.839919,56.55 86.668034,57 86.118034,57 C 85.568034,57 84.839919,56.55 84.5,56 z M 90.515655,52.383548 C 89.41504,50.703798 89.250175,49.916725 90.055142,50.185047 C 90.744761,50.41492 91.67497,51.592324 92.122273,52.801499 C 93.206721,55.733041 92.60833,55.577374 90.515655,52.383548 z M 35,48.785714 C 35,48.353571 35.9,48 37,48 C 38.1,48 39,48.353571 39,48.785714 C 39,49.217857 38.1,49.571429 37,49.571429 C 35.9,49.571429 35,49.217857 35,48.785714 z M 33.993329,28.529578 C 35.113747,23.561791 37.569013,20.146275 40.55922,19.395781 C 44.330643,18.449214 44.41077,19.343254 40.909004,23.298564 C 39.172654,25.259805 37.245302,27.871918 36.626002,29.103259 C 34.699559,32.933561 33.079681,32.580576 33.993329,28.529578 z M 39.924411,21.727108 C 41.107099,20.18363 41.070483,20.035723 39.641444,20.584097 C 38.73865,20.930531 38,21.915833 38,22.773655 C 38,23.631478 38.127335,24.145833 38.282968,23.916667 C 38.4386,23.6875 39.177249,22.702199 39.924411,21.727108 z M 59.261905,30.309524 C 60.191667,29.379762 61.233156,28.899823 61.576326,29.242993 C 62.560509,30.227176 61.049639,32 59.226697,32 C 57.700224,32 57.702963,31.868465 59.261905,30.309524 z M 67,30 C 67.588702,28.9 68.508348,28 69.043658,28 C 69.582801,28 69.459808,28.892122 68.767927,30 C 67.140903,32.60528 65.605697,32.60528 67,30 z M 90,31.606989 C 90,31.390833 90.698372,30.945987 91.551938,30.618443 C 92.441863,30.276947 92.84326,30.444594 92.492921,31.011454 C 91.905663,31.961658 90,32.416902 90,31.606989 z M 1.2400224,29.724011 C 1.454172,29.050805 2.6127736,28.055792 3.8146927,27.512872 C 5.0166117,26.969951 6.0068907,25.844951 6.0153128,25.012872 C 6.0263407,23.92333 6.2458207,23.838612 6.799677,24.710111 C 7.3559606,25.585429 7.9010014,25.388169 8.7697313,23.997111 C 9.8008225,22.346072 9.7252235,22.152848 8.235367,22.631332 C 6.7665493,23.103059 6.7303973,23.022929 8,22.109645 C 9.6449743,20.926339 13.307172,20.640506 14.285714,21.619048 C 15.00111,22.334444 12.589148,25 11.226416,25 C 10.722374,25 9.5215422,25.871209 8.5579019,26.936019 C 6.3557715,29.369346 0.66291113,31.538232 1.2400224,29.724011 z M 16.571429,29.428571 C 14.576834,27.433977 14.576834,25.566023 16.571429,23.571429 C 19.558697,20.584161 26,22.584868 26,26.5 C 26,30.415132 19.558697,32.415839 16.571429,29.428571 z M 20,28 C 20,27.45 19.2125,26.947799 18.25,26.883999 C 16.583333,26.773521 16.583333,26.74622 18.25,26.310674 C 19.2125,26.059147 20,25.436348 20,24.926676 C 20,23.489454 18.384269,23.832058 16.936747,25.576215 C 15.852618,26.88251 15.874462,27.308003 17.064302,28.060903 C 18.952025,29.255404 20,29.233663 20,28 z M 23.5,28 C 23.839919,27.45 23.303976,26.968372 22.309017,26.929715 C 20.659588,26.86563 20.67058,26.79263 22.433624,26.102217 C 23.892432,25.530944 24.049146,25.148408 23.07182,24.544387 C 21.54038,23.597905 19.944897,25.69283 20.699509,27.659316 C 21.307399,29.243452 22.631921,29.404582 23.5,28 z M 52.078947,29.583333 C 52.035526,28.529167 52.271875,27.938542 52.604167,28.270833 C 52.936458,28.603125 52.971985,29.465625 52.683114,30.1875 C 52.363888,30.985233 52.126931,30.748276 52.078947,29.583333 z M 56.270833,28.395833 C 56.603125,28.063542 57.465625,28.028015 58.1875,28.316886 C 58.985233,28.636112 58.748276,28.873069 57.583333,28.921053 C 56.529167,28.964474 55.938542,28.728125 56.270833,28.395833 z M 48,25.181462 C 48,23.972907 49.8972,22.563866 50.590697,23.257364 C 50.842396,23.509063 50.362457,24.284224 49.524166,24.979944 C 48.573782,25.768693 48,25.844555 48,25.181462 z M 73.5,24 C 73.839919,23.45 74.568034,23 75.118034,23 C 75.668034,23 75.839919,23.45 75.5,24 C 75.160081,24.55 74.431966,25 73.881966,25 C 73.331966,25 73.160081,24.55 73.5,24 z M 67.877727,20.801499 C 68.32503,19.592324 69.255239,18.41492 69.944858,18.185047 C 70.749825,17.916725 70.58496,18.703798 69.484345,20.383548 C 67.39167,23.577374 66.793279,23.733041 67.877727,20.801499 z M 57,16.785714 C 57,16.353571 57.9,16 59,16 C 60.1,16 61,16.353571 61,16.785714 C 61,17.217857 60.1,17.571429 59,17.571429 C 57.9,17.571429 57,17.217857 57,16.785714 z "
       id="path1931" />
    <path
       style="fill:#3f3f3f"
       d="M 105.01531,66.190983 C 105.00686,65.468001 104.44039,65.171082 103.75,65.52776 C 103.0625,65.882946 103.625,65.195454 105,64 C 106.375,62.804546 106.94265,62.113868 106.26145,62.465161 C 105.4435,62.886976 105.22515,62.576856 105.61844,61.551938 C 106.02043,60.504381 105.61045,59.974342 104.35699,59.921053 C 103.29344,59.875837 103.03675,59.625708 103.75623,59.335642 C 104.44716,59.057088 104.7581,58.417614 104.44721,57.91459 C 104.13633,57.411565 104.35852,57 104.94098,57 C 105.52344,57 106,56.276855 106,55.393011 C 106,54.364569 106.54836,53.996448 107.52314,54.370506 C 108.7521,54.842103 108.84867,54.585757 108.02314,53.043236 C 106.59884,50.381904 106.71933,50.060784 108.97897,50.49595 C 110.06741,50.705564 111.2235,50.447385 111.54807,49.922221 C 111.87264,49.397056 112.52601,49.207057 113,49.5 C 113.47399,49.792943 114.16826,49.536773 114.54281,48.930732 C 115.39597,47.550296 118.97607,53.079108 118.14911,54.5 C 117.82901,55.05 117.49804,56.625 117.41362,58 C 117.1538,62.231847 117.05294,62.357883 115.23951,60.716752 C 114.27124,59.84048 112.26965,59.256284 110.79154,59.41854 C 109.22148,59.590889 107.88758,59.149418 107.58341,58.356775 C 107.29706,57.610549 107.57365,57 108.19805,57 C 108.82246,57 109.06327,56.729939 108.7332,56.399864 C 108.40312,56.06979 107.68,56.079737 107.12626,56.421969 C 105.90218,57.178492 107.5621,62.666151 109.79659,65.25 C 111.41978,67.126972 110.43907,67.56324 108.02639,66.037474 C 107.05452,65.422869 106.29365,65.513204 105.79171,66.302786 C 105.22111,67.200365 105.02679,67.172383 105.01531,66.190983 z M 114.67074,55.472121 C 115.83624,54.306622 115.92798,53.618152 115.05757,52.569367 C 114.19299,51.527618 114.22951,51.065122 115.20826,50.660556 C 116.35257,50.187558 112.25273,50.561232 111,51.044111 C 110.725,51.150113 110.05,51.146053 109.5,51.035088 C 108.95,50.924123 108.875,51.208333 109.33333,51.666667 C 110.1686,52.501933 110.66054,52.642604 113.55902,52.875 C 114.41648,52.94375 114.85701,53.42234 114.53799,53.938533 C 114.21896,54.454726 113.02735,54.697849 111.88995,54.478807 C 110.17523,54.148581 110.02891,54.329907 111.03342,55.540274 C 112.54416,57.360605 112.7868,57.356058 114.67074,55.472121 z M 114.20558,66.10189 C 114.26435,65.770851 113.82066,64.375 113.2196,63 L 112.12677,60.5 L 111.94738,63 C 111.82201,64.747327 111.63031,64.973129 111.31067,63.75 C 111.05915,62.7875 110.43635,62 109.92668,62 C 109.417,62 109,61.552824 109,61.006275 C 109,60.459726 110.0125,60.201286 111.25,60.431964 C 112.4875,60.662643 113.8375,60.884819 114.25,60.92569 C 114.6625,60.96656 115,61.926558 115,63.059017 C 115,64.191476 115.35899,64.896169 115.79775,64.625 C 116.23651,64.353831 117.17788,64.491904 117.8897,64.931828 C 118.79413,65.490798 118.41816,65.878072 116.64132,66.217736 C 115.2429,66.485061 114.14682,66.43293 114.20558,66.10189 z M 123.15844,63.882102 C 122.16781,62.295842 122.1223,61.480023 122.97714,60.632102 C 123.8304,59.785753 123.93444,59.983122 123.38931,61.414045 C 122.95294,62.559459 123.04658,63.089247 123.62248,62.733323 C 124.15177,62.406201 124.65028,63.007381 124.73027,64.069278 C 124.9132,66.497757 124.78221,66.482158 123.15844,63.882102 z M 118.39205,62.825329 C 117.98167,62.161317 118.19435,61.435216 118.86469,61.211771 C 119.80751,60.897497 119.79099,60.431281 118.79174,59.152754 C 117.63757,57.676012 117.68637,57.64616 119.25,58.872445 C 121.15537,60.366739 121.54459,62.545389 120.0691,63.457295 C 119.5571,63.773726 118.80243,63.489341 118.39205,62.825329 z M 67.404508,61.845492 C 66.967071,61.137702 67.129705,60.962128 67.824825,61.391736 C 68.448438,61.77715 69.857839,61.611266 70.956828,61.023105 C 72.592437,60.147754 72.848939,60.230084 72.370506,61.476861 C 71.683682,63.266694 68.432037,63.508067 67.404508,61.845492 z M 85.269735,60.930722 C 85.114917,58.875463 86.464548,58.324603 87.510081,60.016312 C 87.855545,60.575283 88.669602,60.728137 89.319098,60.355987 C 89.998372,59.966774 90.146013,60.066041 89.666667,60.589675 C 89.208333,61.090354 88.533333,61.506891 88.166667,61.515313 C 87.8,61.523735 87.030914,61.83006 86.457586,62.196035 C 85.875901,62.567344 85.350891,62.008097 85.269735,60.930722 z M 86.333333,56.5 C 86.333333,54.638594 86.45517,54.638594 88,56.5 C 89.009611,57.716507 88.969754,58 87.789111,58 C 86.988433,58 86.333333,57.325 86.333333,56.5 z M 70.439386,55.206195 C 70.842422,54.494602 70.628339,53.257102 69.963645,52.456195 C 69.250894,51.597382 69.171686,51 69.770566,51 C 71.375031,51 72.18858,54.221505 70.886078,55.417217 C 70.019407,56.212832 69.900938,56.156866 70.439386,55.206195 z M 77.259723,49.202191 C 77.363646,47.822578 78.047034,47.500058 80.197574,47.81569 C 82.372009,48.134829 83,47.828085 83,46.446833 C 83,44.381116 84.281331,45.309153 84.620576,47.620576 C 84.74672,48.480054 84.582714,48.916047 84.256116,48.58945 C 83.929519,48.262852 82.760932,48.784118 81.659257,49.747818 C 80.557582,50.711518 79.985122,50.9375 80.387123,50.25 C 80.789124,49.5625 80.641476,49 80.059017,49 C 79.476558,49 79,49.45 79,50 C 79,50.55 78.577967,51 78.062149,51 C 77.546331,51 77.185239,50.190986 77.259723,49.202191 z M 107,34 C 104.88744,33.323441 105.8116,32.496568 108.25,32.881579 C 108.6625,32.946711 109,32.1 109,31 C 109,29.9 109.45,29 110,29 C 111.30699,29 111.29444,31.699992 109.98369,32.510081 C 109.42472,32.855545 109.22627,33.557102 109.54271,34.069098 C 109.85914,34.581094 109.97898,34.955144 109.80902,34.90032 C 109.63906,34.845496 108.375,34.440352 107,34 z M 114.20341,33.25 C 116.4379,30.666151 118.09782,25.178492 116.87374,24.421969 C 116.32,24.079737 115.59688,24.06979 115.2668,24.399864 C 114.93673,24.729939 115.17754,25 115.80195,25 C 116.42635,25 116.70294,25.610549 116.41659,26.356775 C 116.11242,27.149418 114.77852,27.590889 113.20846,27.41854 C 111.73035,27.256284 109.72876,27.84048 108.76049,28.716752 C 106.94706,30.357883 106.8462,30.231847 106.58638,26 C 106.50196,24.625 106.17099,23.05 105.85089,22.5 C 105.02393,21.079108 108.60403,15.550296 109.45719,16.930732 C 109.83174,17.536773 110.52601,17.792943 111,17.5 C 111.47399,17.207057 112.12736,17.397056 112.45193,17.922221 C 112.7765,18.447385 113.93259,18.705564 115.02103,18.49595 C 117.28067,18.060784 117.40116,18.381904 115.97686,21.043236 C 115.15133,22.585757 115.2479,22.842103 116.47686,22.370506 C 117.45164,21.996448 118,22.364569 118,23.393011 C 118,24.276855 118.47656,25 119.05902,25 C 119.64148,25 119.86367,25.411565 119.55279,25.91459 C 119.2419,26.417614 119.55284,27.057088 120.24377,27.335642 C 120.96325,27.625708 120.70656,27.875837 119.64301,27.921053 C 118.38955,27.974342 117.97957,28.504381 118.38156,29.551938 C 118.77485,30.576856 118.5565,30.886976 117.73855,30.465161 C 117.05735,30.113868 117.625,30.804546 119,32 C 120.375,33.195454 120.9375,33.882946 120.25,33.52776 C 119.55961,33.171082 118.99314,33.468001 118.98469,34.190983 C 118.97321,35.172383 118.77889,35.200365 118.20829,34.302786 C 117.70635,33.513204 116.94548,33.422869 115.97361,34.037474 C 113.56093,35.56324 112.58022,35.126972 114.20341,33.25 z M 112.96658,23.540274 C 113.97109,22.329907 113.82477,22.148581 112.11005,22.478807 C 110.97265,22.697849 109.78104,22.454726 109.46201,21.938533 C 109.14299,21.42234 109.58352,20.94375 110.44098,20.875 C 113.33946,20.642604 113.8314,20.501933 114.66667,19.666667 C 115.125,19.208333 115.05,18.924123 114.5,19.035088 C 113.95,19.146053 113.275,19.150113 113,19.044111 C 111.74727,18.561232 107.64743,18.187558 108.79174,18.660556 C 109.76117,19.061267 109.80274,19.532758 108.95835,20.550185 C 108.11572,21.565496 108.16801,22.284759 109.16661,23.414902 C 110.85684,25.32777 111.46639,25.347881 112.96658,23.540274 z M 99.258443,32.219175 C 99.344644,31.074835 99.84823,30.406201 100.37752,30.733323 C 100.95342,31.089247 101.04706,30.559459 100.61069,29.414045 C 100.0534,27.951191 100.15848,27.774793 101.05648,28.665729 C 101.95591,29.558079 101.86447,30.355403 100.66659,32.065626 C 99.140784,34.244014 99.105628,34.247848 99.258443,32.219175 z M 111.87713,30.949486 C 111.47383,28.984672 111.77229,28.367434 113.17681,28.261635 C 114.17956,28.186099 115,28.546331 115,29.062149 C 115,29.577967 114.583,30 114.07332,30 C 113.56365,30 112.9788,30.7875 112.77365,31.75 C 112.50229,33.023159 112.258,32.805035 111.87713,30.949486 z M 103.39604,30.589676 C 102.97694,29.49753 103.41175,28.219347 104.55849,27.172459 C 106.21829,25.657183 106.27421,25.655331 105.15349,27.152754 C 104.16528,28.473132 104.1763,28.900479 105.20826,29.277754 C 106.22486,29.649412 106.24073,30.025242 105.28278,31.042217 C 104.29493,32.090937 103.9394,32.005663 103.39604,30.589676 z M 73.489919,29.983688 C 73.144455,29.424717 72.473992,29.207057 72,29.5 C 71.526008,29.792943 70.812574,29.505755 70.41459,28.861803 C 69.979107,28.157177 70.123168,27.958088 70.776393,28.361803 C 71.373369,28.730755 72.144455,28.575283 72.489919,28.016312 C 73.550177,26.300777 74.884149,26.887863 74.725047,29 C 74.553869,31.272441 74.374634,31.415188 73.489919,29.983688 z M 87.629494,29.476861 C 87.151061,28.230084 87.407563,28.147754 89.043172,29.023105 C 90.142161,29.611266 91.551562,29.77715 92.175175,29.391736 C 92.870295,28.962128 93.032929,29.137702 92.595492,29.845492 C 91.567963,31.508067 88.316318,31.266694 87.629494,29.476861 z M 71,25.622445 C 71,25.414789 71.6,24.746934 72.333333,24.138321 C 73.342582,23.300719 73.666667,23.392489 73.666667,24.515876 C 73.666667,25.332144 73.066667,26 72.333333,26 C 71.6,26 71,25.8301 71,25.622445 z M 88.555773,23.090242 C 87.796039,21.860968 88.966701,19 90.229434,19 C 90.828314,19 90.749106,19.597382 90.036355,20.456195 C 89.371661,21.257102 89.118118,22.382102 89.472927,22.956195 C 89.827736,23.530288 89.893034,24 89.618034,24 C 89.343034,24 88.865016,23.590609 88.555773,23.090242 z M 78.009138,17.51101 C 77.329475,16.692066 76.413878,16.24421 75.974478,16.515773 C 75.020043,17.105647 75.307358,14.359309 76.304389,13.362278 C 76.686975,12.979692 77,13.467741 77,14.446833 C 77,15.828085 77.627991,16.134829 79.802426,15.81569 C 81.952966,15.500058 82.636354,15.822578 82.740277,17.202191 C 82.814761,18.190986 82.453669,19 81.937851,19 C 81.422033,19 81,18.55 81,18 C 81,17.45 80.523442,17 79.940983,17 C 79.358524,17 79.160081,17.45 79.5,18 C 80.446277,19.531108 79.401188,19.188328 78.009138,17.51101 z "
       id="path1929" />
  </g>
</svg>
