<?xml version="1.0" encoding="UTF-8" standalone="no"?>
<!-- Created with Inkscape (http://www.inkscape.org/) -->
<svg
   xmlns:dc="http://purl.org/dc/elements/1.1/"
   xmlns:cc="http://web.resource.org/cc/"
   xmlns:rdf="http://www.w3.org/1999/02/22-rdf-syntax-ns#"
   xmlns:svg="http://www.w3.org/2000/svg"
   xmlns="http://www.w3.org/2000/svg"
   xmlns:sodipodi="http://sodipodi.sourceforge.net/DTD/sodipodi-0.dtd"
   xmlns:inkscape="http://www.inkscape.org/namespaces/inkscape"
   id="svg2"
   sodipodi:version="0.32"
   inkscape:version="0.44"
   width="80"
   height="20"
   version="1.0"
   sodipodi:docbase="/home/kde4/Developpements/C++/ksirk/ksirk/skins/default/Images/sprites"
   sodipodi:docname="france.svg">
  <metadata
     id="metadata7">
    <rdf:RDF>
      <cc:Work
         rdf:about="">
        <dc:format>image/svg+xml</dc:format>
        <dc:type
           rdf:resource="http://purl.org/dc/dcmitype/StillImage" />
      </cc:Work>
    </rdf:RDF>
  </metadata>
  <defs
     id="defs5" />
  <sodipodi:namedview
     inkscape:window-height="582"
     inkscape:window-width="928"
     inkscape:pageshadow="2"
     inkscape:pageopacity="0.0"
     guidetolerance="10.0"
     gridtolerance="10.0"
     objecttolerance="10.0"
     borderopacity="1.0"
     bordercolor="#666666"
     pagecolor="#ffffff"
     id="base"
     inkscape:zoom="10.525"
     inkscape:cx="40"
     inkscape:cy="9.9049882"
     inkscape:window-x="666"
     inkscape:window-y="0"
     inkscape:current-layer="g1933" />
  <g
     id="g1933">
    <path
       style="fill:#fee6e7"
       d="M 31.666667,14.333333 C 31.3,13.966667 31,11.74881 31,9.4047619 C 31,4.5668919 33.114129,1.7316165 36.374646,2.1967831 C 40.967887,2.8520849 38.851046,15 34.143614,15 C 33.147959,15 32.033333,14.7 31.666667,14.333333 z M 36.171259,12.345012 C 38.440633,10.291257 38.655186,4.1886489 36.487265,3.3567395 C 33.868799,2.3519399 32,4.9614011 32,9.6224447 C 32,14.351205 33.135496,15.09234 36.171259,12.345012 z M 12.2,11.8 C 10.889607,10.489607 10.541012,3.4031617 11.75,2.6521263 C 12.1625,2.3958771 12.5,4.2818195 12.5,6.8431093 C 12.5,11.143793 12.691226,11.5 15,11.5 C 17.308774,11.5 17.5,11.143793 17.5,6.8431093 C 17.5,4.2818195 17.8375,2.3958771 18.25,2.6521263 C 19.458988,3.4031617 19.110393,10.489607 17.8,11.8 C 16.264087,13.335913 13.735913,13.335913 12.2,11.8 z M 52.2,11.8 C 50.889607,10.489607 50.541012,3.4031617 51.75,2.6521263 C 52.1625,2.3958771 52.5,4.2818195 52.5,6.8431093 C 52.5,11.143793 52.691226,11.5 55,11.5 C 57.308774,11.5 57.5,11.143793 57.5,6.8431093 C 57.5,4.2818195 57.8375,2.3958771 58.25,2.6521263 C 59.458988,3.4031617 59.110393,10.489607 57.8,11.8 C 56.264087,13.335913 53.735913,13.335913 52.2,11.8 z M 72.571429,10.428571 C 71.633101,9.4902441 71.064476,7.3751103 71.160037,5.1785714 L 71.320074,1.5 L 71.741742,4.995985 C 72.263758,9.3239447 73.800048,11.285551 76.180143,10.663142 C 77.181065,10.401396 78,10.59511 78,11.09362 C 78,12.579237 74.264457,12.1216 72.571429,10.428571 z "
       id="path1947" />
    <path
       style="fill:#f0d7f0"
       d="M 8.25,11.694924 C 10.007733,10.27326 10.755306,3.586281 9.25,2.75 C 8.8375,2.5208333 8.95,2.4058076 9.5,2.4943872 C 10.05,2.5829668 10.636961,4.5040431 10.804357,6.7634457 C 11.060633,10.222477 10.744677,11.048297 8.8043572,11.990891 C 6.7347337,12.9963 6.678264,12.966152 8.25,11.694924 z M 28.25,12.369258 C 30.355373,11.748586 30.705265,5.1908962 28.75,2.9982282 C 27.681852,1.8003883 27.761795,1.7950829 29.299507,2.9617602 C 31.929325,4.9570286 31.317206,12.400532 28.5,12.683956 C 26.941077,12.84079 26.885942,12.771388 28.25,12.369258 z M 48.25,11.694924 C 50.007733,10.27326 50.755306,3.586281 49.25,2.75 C 48.8375,2.5208333 48.95,2.4058076 49.5,2.4943872 C 50.05,2.5829668 50.636961,4.5040431 50.804357,6.7634457 C 51.060633,10.222477 50.744677,11.048297 48.804357,11.990891 C 46.734734,12.9963 46.678264,12.966152 48.25,11.694924 z M 68.675487,10.98732 C 69.322004,10.155346 70.033858,7.6803461 70.257383,5.4873201 L 70.663794,1.5 L 70.831897,5.6275553 C 70.949559,8.5166005 70.474897,10.166925 69.25,11.127555 C 67.723199,12.324955 67.649924,12.307069 68.675487,10.98732 z "
       id="path1945" />
    <path
       style="fill:#e3e3e3"
       d="M 2.4226075,10.580254 C 2.4822696,4.4749017 2.8436461,2.5475918 4,2.1676328 C 5.2064843,1.7712018 5.2652732,1.9593325 4.3004384,3.1290672 C 3.6406795,3.9289377 2.9308529,7.7146173 2.7230459,11.541689 C 2.3488049,18.433888 2.3459504,18.424753 2.4226075,10.580254 z M 6.2320027,15 C 6.2320027,13.075 6.437798,12.2875 6.6893255,13.25 C 6.9408531,14.2125 6.9408531,15.7875 6.6893255,16.75 C 6.437798,17.7125 6.2320027,16.925 6.2320027,15 z M 22.422608,10.580254 C 22.48227,4.4749017 22.843646,2.5475918 24,2.1676328 C 25.206484,1.7712018 25.265273,1.9593325 24.300438,3.1290672 C 23.64068,3.9289377 22.930853,7.7146173 22.723046,11.541689 C 22.348805,18.433888 22.34595,18.424753 22.422608,10.580254 z M 26.194949,15.5 C 26.174569,13.85 26.382014,13.053936 26.655937,13.730968 C 26.92986,14.408001 26.946534,15.758001 26.692991,16.730968 C 26.439447,17.703936 26.215328,17.15 26.194949,15.5 z M 42.422608,10.580254 C 42.48227,4.4749017 42.843646,2.5475918 44,2.1676328 C 45.206484,1.7712018 45.265273,1.9593325 44.300438,3.1290672 C 43.64068,3.9289377 42.930853,7.7146173 42.723046,11.541689 C 42.348805,18.433888 42.34595,18.424753 42.422608,10.580254 z M 46.232003,15 C 46.232003,13.075 46.437798,12.2875 46.689326,13.25 C 46.940853,14.2125 46.940853,15.7875 46.689326,16.75 C 46.437798,17.7125 46.232003,16.925 46.232003,15 z M 62.422608,10.580254 C 62.48227,4.4749017 62.843646,2.5475918 64,2.1676328 C 65.206484,1.7712018 65.265273,1.9593325 64.300438,3.1290672 C 63.64068,3.9289377 62.930853,7.7146173 62.723046,11.541689 C 62.348805,18.433888 62.34595,18.424753 62.422608,10.580254 z M 66.232003,15 C 66.232003,13.075 66.437798,12.2875 66.689326,13.25 C 66.940853,14.2125 66.940853,15.7875 66.689326,16.75 C 66.437798,17.7125 66.232003,16.925 66.232003,15 z "
       id="path1943" />
    <path
       style="fill:#feacad"
       d="M 32,9.6224447 C 32,4.9614011 33.868799,2.3519399 36.487265,3.3567395 C 38.655186,4.1886489 38.440633,10.291257 36.171259,12.345012 C 33.135496,15.09234 32,14.351205 32,9.6224447 z M 35.8,11.8 C 36.46,11.14 37,9.0820041 37,7.2266758 C 37,4.5541953 36.636419,3.922318 35.25,4.1853027 C 33.973444,4.4274478 33.41681,5.6647128 33.192502,8.7586268 C 32.879897,13.070442 33.641375,13.958625 35.8,11.8 z M 12.425071,10.665333 C 12.113777,9.8541161 12.003289,7.6850545 12.179541,5.8451964 C 12.449313,3.0291092 12.895425,2.5 15,2.5 C 17.296296,2.5 17.5,2.8666667 17.5,7 C 17.5,10.907977 17.2034,11.542117 15.245529,11.820137 C 13.94352,12.005023 12.751942,11.517146 12.425071,10.665333 z M 16.5,6.9166667 C 16.5,4.5462963 16.04065,3.5 15,3.5 C 13.398967,3.5 12.461735,7.15492 13.421445,9.655884 C 14.435743,12.299102 16.5,10.462381 16.5,6.9166667 z M 52.425071,10.665333 C 52.113777,9.8541161 52.003289,7.6850545 52.179541,5.8451964 C 52.449313,3.0291092 52.895425,2.5 55,2.5 C 57.296296,2.5 57.5,2.8666667 57.5,7 C 57.5,10.907977 57.2034,11.542117 55.245529,11.820137 C 53.94352,12.005023 52.751942,11.517146 52.425071,10.665333 z M 56.5,6.9166667 C 56.5,4.5462963 56.04065,3.5 55,3.5 C 53.398967,3.5 52.461735,7.15492 53.421445,9.655884 C 54.435743,12.299102 56.5,10.462381 56.5,6.9166667 z M 73.229187,9.8291868 C 72.553134,9.1531341 72.063857,7.0025 72.141905,5.05 L 72.283811,1.5 L 72.891905,5.4903177 C 73.320037,8.2997212 74.051678,9.5856913 75.364124,9.8356201 C 76.983562,10.144009 77.17731,9.6564729 76.840183,6.1213617 C 76.626748,3.883278 76.833171,2.4331709 77.298902,2.8989015 C 77.764632,3.3646322 78.000406,5.2617203 77.822842,7.1146529 C 77.478873,10.704091 75.357611,11.957611 73.229187,9.8291868 z "
       id="path1941" />
    <path
       style="fill:#a7a4df"
       d="M 3,11.122445 C 3,3.6389019 4.3221557,1.3326976 7.9520122,2.4847693 C 10.8803,3.4141717 10.91841,10.573733 8,11.5 C 6.5989598,11.944673 6,13.013034 6,15.067388 C 6,17.007488 5.4923404,18 4.5,18 C 3.3120672,18 3,16.569161 3,11.122445 z M 7.8,9.8 C 9.3996256,8.2003744 9.3205372,5.5109116 7.6326787,4.1101135 C 5.6551515,2.4689118 3.5977024,5.2609828 4.4073847,8.487014 C 5.1042878,11.263697 5.9925383,11.607462 7.8,9.8 z M 23,11.122445 C 23,6.0672402 23.419667,3.8965971 24.583823,2.9304335 C 27.082408,0.85679183 29.449562,3.0307027 29.801145,7.7218385 C 30.052051,11.069648 29.760103,11.829472 28.051145,12.276374 C 26.648053,12.643291 26,13.632207 26,15.40638 C 26,17.045153 25.447772,18 24.5,18 C 23.312067,18 23,16.569161 23,11.122445 z M 28.816971,7.7357637 C 29.028134,5.9056458 28.588436,4.7792985 27.499754,4.3615318 C 25.130717,3.4524471 23.642947,5.4412506 24.408944,8.4932276 C 25.293218,12.016454 28.384342,11.485284 28.816971,7.7357637 z M 43,11.122445 C 43,3.6389019 44.322156,1.3326976 47.952012,2.4847693 C 50.8803,3.4141717 50.91841,10.573733 48,11.5 C 46.59896,11.944673 46,13.013034 46,15.067388 C 46,17.007488 45.49234,18 44.5,18 C 43.312067,18 43,16.569161 43,11.122445 z M 47.8,9.8 C 49.399626,8.2003744 49.320537,5.5109116 47.632679,4.1101135 C 45.655152,2.4689118 43.597702,5.2609828 44.407385,8.487014 C 45.104288,11.263697 45.992538,11.607462 47.8,9.8 z M 63,11.2 C 63,3.9017451 63.971544,2 67.7,2 C 69.715853,2 70,2.4931221 70,5.9915261 C 70,8.9000453 69.457347,10.321945 68,11.232073 C 66.784943,11.990888 66,13.5641 66,15.240547 C 66,17.026727 65.470943,18 64.5,18 C 63.313725,18 63,16.577778 63,11.2 z M 67.8,9.8 C 69.301011,8.2989894 69.365714,4.3440574 67.904039,3.4406926 C 66.006782,2.2681235 63.674927,5.5686682 64.389402,8.4153645 C 65.103573,11.260848 65.982376,11.617624 67.8,9.8 z "
       id="path1939" />
    <path
       style="fill:#fe5f61"
       d="M 33.192502,8.7586268 C 33.41681,5.6647128 33.973444,4.4274478 35.25,4.1853027 C 36.636419,3.922318 37,4.5541953 37,7.2266758 C 37,10.456531 35.564892,13 33.742502,13 C 33.270878,13 33.023378,11.091382 33.192502,8.7586268 z M 13.421445,9.655884 C 12.461735,7.15492 13.398967,3.5 15,3.5 C 16.04065,3.5 16.5,4.5462963 16.5,6.9166667 C 16.5,10.462381 14.435743,12.299102 13.421445,9.655884 z M 53.421445,9.655884 C 52.461735,7.15492 53.398967,3.5 55,3.5 C 56.04065,3.5 56.5,4.5462963 56.5,6.9166667 C 56.5,10.462381 54.435743,12.299102 53.421445,9.655884 z M 73.666667,9.3333333 C 73.3,8.9666667 73,6.6469223 73,4.1783458 C 73,-0.2466335 73.028225,-0.28443177 75,1.5 C 77.319974,3.5995475 77.82197,10 75.666667,10 C 74.933333,10 74.033333,9.7 73.666667,9.3333333 z "
       id="path1937" />
    <path
       style="fill:#1918e0"
       d="M 4.4073847,8.487014 C 3.5977024,5.2609828 5.6551515,2.4689118 7.6326787,4.1101135 C 9.3205372,5.5109116 9.3996256,8.2003744 7.8,9.8 C 5.9925383,11.607462 5.1042878,11.263697 4.4073847,8.487014 z M 24.408944,8.4932276 C 23.642947,5.4412506 25.130717,3.4524471 27.499754,4.3615318 C 29.695279,5.2040338 29.123666,10.364663 26.785728,10.807893 C 25.631078,11.026793 24.855181,10.271175 24.408944,8.4932276 z M 44.407385,8.487014 C 43.597702,5.2609828 45.655152,2.4689118 47.632679,4.1101135 C 49.320537,5.5109116 49.399626,8.2003744 47.8,9.8 C 45.992538,11.607462 45.104288,11.263697 44.407385,8.487014 z M 64.389402,8.4153645 C 63.674927,5.5686682 66.006782,2.2681235 67.904039,3.4406926 C 69.365714,4.3440574 69.301011,8.2989894 67.8,9.8 C 65.982376,11.617624 65.103573,11.260848 64.389402,8.4153645 z "
       id="path1935" />
  </g>
</svg>
