<?xml version="1.0" encoding="UTF-8" standalone="no"?>
<!-- Created with Inkscape (http://www.inkscape.org/) -->
<svg
   xmlns:dc="http://purl.org/dc/elements/1.1/"
   xmlns:cc="http://web.resource.org/cc/"
   xmlns:rdf="http://www.w3.org/1999/02/22-rdf-syntax-ns#"
   xmlns:svg="http://www.w3.org/2000/svg"
   xmlns="http://www.w3.org/2000/svg"
   xmlns:sodipodi="http://sodipodi.sourceforge.net/DTD/sodipodi-0.dtd"
   xmlns:inkscape="http://www.inkscape.org/namespaces/inkscape"
   id="svg56"
   sodipodi:version="0.32"
   inkscape:version="0.44"
   width="80"
   height="20"
   version="1.0"
   sodipodi:docbase="/home/kde4/Developpements/C++/games/ksirk/ksirk/skins/default/Images/sprites"
   sodipodi:docname="us.svg">
  <metadata
     id="metadata61">
    <rdf:RDF>
      <cc:Work
         rdf:about="">
        <dc:format>image/svg+xml</dc:format>
        <dc:type
           rdf:resource="http://purl.org/dc/dcmitype/StillImage" />
      </cc:Work>
    </rdf:RDF>
  </metadata>
  <defs
     id="defs59" />
  <sodipodi:namedview
     inkscape:window-height="582"
     inkscape:window-width="928"
     inkscape:pageshadow="2"
     inkscape:pageopacity="0.0"
     guidetolerance="10.0"
     gridtolerance="10.0"
     objecttolerance="10.0"
     borderopacity="1.0"
     bordercolor="#666666"
     pagecolor="#ffffff"
     id="base"
     inkscape:zoom="10.525"
     inkscape:cx="40"
     inkscape:cy="9.9524941"
     inkscape:window-x="666"
     inkscape:window-y="0"
     inkscape:current-layer="svg56" />
  <g
     id="g1869">
    <path
       style="fill:#e3e3e3"
       d="M 2.4279945,10.5 L 2.5,2.5 L 6,2.4105754 C 9.400494,2.3236931 9.4087679,2.3324473 6.2910216,2.7184951 L 3.0820432,3.1158394 L 2.7190161,10.80792 L 2.3559891,18.5 L 2.4279945,10.5 z M 6.2320027,15 C 6.2320027,13.075 6.437798,12.2875 6.6893255,13.25 C 6.9408531,14.2125 6.9408531,15.7875 6.6893255,16.75 C 6.437798,17.7125 6.2320027,16.925 6.2320027,15 z M 22.427995,10.5 C 22.493496,3.2225994 22.685321,2.4734836 24.551717,2.2064328 C 25.680162,2.0449708 27.930162,2.6046984 29.551717,3.450272 C 31.379861,4.4035726 31.857546,4.9900192 30.809017,4.9938393 C 29.878976,4.9972277 28.839919,4.55 28.5,4 C 28.160081,3.45 26.802453,3 25.483047,3 C 23.188832,3 23.068238,3.3382575 22.720059,10.75 L 22.355989,18.5 L 22.427995,10.5 z M 26.232003,15 C 26.232003,13.075 26.437798,12.2875 26.689326,13.25 C 26.940853,14.2125 26.940853,15.7875 26.689326,16.75 C 26.437798,17.7125 26.232003,16.925 26.232003,15 z M 42.427995,10.5 L 42.5,2.5 L 46,2.4105754 C 49.400494,2.3236931 49.408768,2.3324473 46.291022,2.7184951 L 43.082043,3.1158394 L 42.719016,10.80792 L 42.355989,18.5 L 42.427995,10.5 z M 46.232003,15 C 46.232003,13.075 46.437798,12.2875 46.689326,13.25 C 46.940853,14.2125 46.940853,15.7875 46.689326,16.75 C 46.437798,17.7125 46.232003,16.925 46.232003,15 z M 62.427995,10.510844 C 62.485248,4.1584254 62.807305,2.4997398 64,2.4145531 C 64.825,2.3556286 64.955899,2.4927012 64.290886,2.719159 C 63.531208,2.9778534 62.946883,5.9872987 62.718881,10.81545 L 62.355989,18.5 L 62.427995,10.510844 z M 66.232003,15 C 66.232003,13.075 66.437798,12.2875 66.689326,13.25 C 66.940853,14.2125 66.940853,15.7875 66.689326,16.75 C 66.437798,17.7125 66.232003,16.925 66.232003,15 z "
       id="path1883" />
    <path
       style="fill:#fbcdd0"
       d="M 28.661592,13.381704 C 27.100468,12.535682 26.027018,11.639648 26.276149,11.390518 C 26.525279,11.141387 28.124627,11.738468 29.830255,12.717364 C 32.691451,14.359465 33.05699,14.371581 34.554615,12.873957 C 36.333755,11.094817 37.106563,4.3933005 35.5,4.6759084 C 34.95,4.7726581 33.6,5.1468938 32.5,5.5075435 C 30.527908,6.15412 30.527087,6.1411997 32.44113,4.5816351 C 33.508751,3.7117358 35.196251,3 36.19113,3 C 39.367742,3 38.108617,11.892119 34.600296,14.234687 C 33.024077,15.287156 31.872399,15.121739 28.661592,13.381704 z M 6.55,11.063132 C 7.0725,10.547854 9.525,9.9853544 12,9.8131319 C 16.263748,9.5164395 16.5,9.342499 16.5,6.5 C 16.5,3.8630525 16.076439,3.4206094 13,2.8439744 L 9.5,2.1879489 L 13.5,2.3439744 C 17.295816,2.4920355 17.516779,2.6764081 17.828712,5.9558601 C 18.059598,8.3832418 17.630712,9.7968617 16.387582,10.70586 C 14.350512,12.195402 5.0597154,12.532816 6.55,11.063132 z M 46.55,11.063132 C 47.0725,10.547854 49.525,9.9853544 52,9.8131319 C 56.263748,9.5164395 56.5,9.342499 56.5,6.5 C 56.5,3.8630525 56.076439,3.4206094 53,2.8439744 L 49.5,2.1879489 L 53.5,2.3439744 C 57.295816,2.4920355 57.516779,2.6764081 57.828712,5.9558601 C 58.059598,8.3832418 57.630712,9.7968617 56.387582,10.70586 C 54.350512,12.195402 45.059715,12.532816 46.55,11.063132 z M 66.632807,10.514507 C 67.425751,8.4481263 71.346888,7.5800977 73.846171,8.9176731 C 76.478519,10.326463 77.347006,8.9614758 76.513421,4.7256011 C 76.040648,2.3231944 76.145433,1.8828098 76.924012,3 C 77.498961,3.825 77.976265,6.002054 77.984687,7.8378978 C 77.99997,11.169201 77.992245,11.174485 74.074864,10.512648 C 71.799664,10.128256 69.287016,10.31121 68.097369,10.94789 C 66.400412,11.856073 66.146798,11.781026 66.632807,10.514507 z "
       id="path1881" />
    <path
       style="fill:#c1c1c1"
       d="M 3.1498321,10.75 C 3.0674244,6.4875 3.3375,2.9997203 3.75,2.9993784 C 4.1625,2.9990365 4.3714252,5.3615365 4.2142781,8.2493784 C 3.6997781,17.704184 3.3023298,18.637879 3.1498321,10.75 z M 5.2521834,14.5 C 5.241084,12.3 5.4367876,11.282253 5.6870802,12.238341 C 5.9373728,13.194428 5.9464541,14.994428 5.7072609,16.238341 C 5.4680676,17.482253 5.2632828,16.7 5.2521834,14.5 z M 23.34281,10.5 C 23.339178,6.1 23.512015,4.1756051 23.726893,6.223567 C 23.94177,8.2715288 23.944742,11.871529 23.733497,14.223567 C 23.522251,16.575605 23.346443,14.9 23.34281,10.5 z M 25.252183,14.5 C 25.241084,12.3 25.436788,11.282253 25.68708,12.238341 C 25.937373,13.194428 25.946454,14.994428 25.707261,16.238341 C 25.468068,17.482253 25.263283,16.7 25.252183,14.5 z M 43.149832,10.75 C 43.067424,6.4875 43.3375,2.9997203 43.75,2.9993784 C 44.1625,2.9990365 44.371425,5.3615365 44.214278,8.2493784 C 43.699778,17.704184 43.30233,18.637879 43.149832,10.75 z M 45.252183,14.5 C 45.241084,12.3 45.436788,11.282253 45.68708,12.238341 C 45.937373,13.194428 45.946454,14.994428 45.707261,16.238341 C 45.468068,17.482253 45.263283,16.7 45.252183,14.5 z M 63.149832,10.75 C 63.067424,6.4875 63.3375,2.9997203 63.75,2.9993784 C 64.1625,2.9990365 64.371425,5.3615365 64.214278,8.2493784 C 63.699778,17.704184 63.30233,18.637879 63.149832,10.75 z M 65,14.559017 C 65,12.666476 65.345782,10.904329 65.768404,10.643134 C 66.191026,10.381939 66.36876,11.930382 66.163369,14.084117 C 65.702237,18.919535 65,19.206196 65,14.559017 z "
       id="path1879" />
    <path
       style="fill:#a999de"
       d="M 25.5,6 C 24.049816,3.195653 24.067706,3 25.77432,3 C 28.101394,3 30,4.8870683 30,7.2 C 30,10.042976 27.205322,9.2977289 25.5,6 z M 5.6258272,6.4673046 C 4.5490027,3.6611448 4.9196314,3 7.569551,3 C 9.6592449,3 10.079427,3.418274 9.819551,5.2397843 C 9.4375372,7.9173806 6.510987,8.773994 5.6258272,6.4673046 z M 45.625827,6.4673046 C 44.549003,3.6611448 44.919631,3 47.569551,3 C 49.659245,3 50.079427,3.418274 49.819551,5.2397843 C 49.437537,7.9173806 46.510987,8.773994 45.625827,6.4673046 z M 65.50284,6.0089486 C 64.761213,3.672289 65.574296,2 67.452028,2 C 69.328226,2 70.258584,4.9834992 68.894808,6.6267482 C 67.30997,8.5363614 66.243351,8.3420916 65.50284,6.0089486 z "
       id="path1877" />
    <path
       style="fill:#fc8a92"
       d="M 28.741941,12.168136 C 27.225009,11.167859 26.27277,10.060564 26.625853,9.7074801 C 26.978937,9.3543964 28.396179,9.953074 29.775279,11.037875 C 32.731312,13.36309 35,12.207922 35,8.3775553 C 35,5.7056462 34.680182,5.5656101 31.934259,7.0351838 C 30.870416,7.6045348 30,7.8410909 30,7.5608639 C 30,7.2806369 31.324462,6.3664543 32.943249,5.529347 C 36.395018,3.7443681 37.523418,4.778399 36.513749,8.8012411 C 35.149326,14.237537 33.176394,15.092249 28.741941,12.168136 z M 6,9.77776 C 6,9.349992 6.6526394,9 7.4503099,9 C 8.2479803,9 9.3592964,8.2125 9.9199012,7.25 C 10.880302,5.6010923 10.940939,5.6051101 10.969591,7.319551 C 10.991461,8.6281501 11.631827,9.0493682 13.25,8.819551 C 16.744833,8.3232055 16.284874,4.4883091 12.736639,4.5394207 C 11.231488,4.5611021 10,4.1950908 10,3.7260623 C 10,3.2570337 11.4625,3.0142943 13.25,3.1866415 C 16.124809,3.4638249 16.5,3.8463299 16.5,6.5 C 16.5,9.3853638 16.299387,9.5201668 11.25,10.02776 C 8.3625,10.318028 6,10.205528 6,9.77776 z M 46,9.77776 C 46,9.349992 46.652639,9 47.45031,9 C 48.24798,9 49.359296,8.2125 49.919901,7.25 C 50.880302,5.6010923 50.940939,5.6051101 50.969591,7.319551 C 50.991461,8.6281501 51.631827,9.0493682 53.25,8.819551 C 56.744833,8.3232055 56.284874,4.4883091 52.736639,4.5394207 C 51.231488,4.5611021 50,4.1950908 50,3.7260623 C 50,3.2570337 51.4625,3.0142943 53.25,3.1866415 C 56.124809,3.4638249 56.5,3.8463299 56.5,6.5 C 56.5,9.3853638 56.299387,9.5201668 51.25,10.02776 C 48.3625,10.318028 46,10.205528 46,9.77776 z M 67.5,8.4541575 C 68.775803,7.4473296 70.536743,7.0784887 72.363152,7.4355372 C 75.067653,7.9642458 75.201925,7.8291592 74.786344,4.9976303 C 74.2157,1.1095811 75.641482,1.091195 76.494641,4.9756011 C 77.390123,9.0527028 76.49514,10.182723 73.464289,8.8017752 C 71.624055,7.9633086 70.303591,7.9769735 68.25,8.8557356 C 65.645899,9.970069 65.606108,9.9487636 67.5,8.4541575 z "
       id="path1875" />
    <path
       style="fill:#f87986"
       d="M 30.417955,11.482388 C 28.54482,10.03334 28.555168,9.951946 30.860784,7.9993337 C 33.953272,5.3803239 35,5.4759688 35,8.3775553 C 35,11.849991 32.810752,13.333444 30.417955,11.482388 z M 10.707975,6.9912976 C 10.112956,4.7159398 11.965063,3.3888799 14.420595,4.3311557 C 16.498376,5.1284753 15.658546,8.449381 13.289835,8.8024691 C 11.917955,9.0069663 11.081672,8.4203148 10.707975,6.9912976 z M 50.707975,6.9912976 C 50.112956,4.7159398 51.965063,3.3888799 54.420595,4.3311557 C 56.498376,5.1284753 55.658546,8.449381 53.289835,8.8024691 C 51.917955,9.0069663 51.081672,8.4203148 50.707975,6.9912976 z M 71.75,7.3106745 C 68.723365,6.5197321 69.799211,0.39389429 72.951996,0.46654236 C 73.890052,0.48815752 74.53331,1.8273288 74.769343,4.25 C 74.970287,6.3125 74.766888,7.9477994 74.317347,7.8839986 C 73.867806,7.8201979 72.7125,7.562202 71.75,7.3106745 z "
       id="path1873" />
    <path
       style="fill:#a89eab"
       d="M 4.2277174,12 C 4.1524293,5.0709144 4.3415699,3.9285192 5.2511307,5.818658 C 5.9900611,7.3542134 6.9808876,7.9767549 8.1848303,7.6619168 C 9.1846916,7.4004472 9.7505812,7.5945511 9.4423629,8.0932588 C 9.1341446,8.5919664 8.2420971,9 7.460035,9 C 5.9891409,9 5.2981541,10.988412 4.6799804,17 C 4.482032,18.925 4.2785136,16.675 4.2277174,12 z M 24.176233,12 C 24.08047,4.2744137 24.19631,3.7266255 25.447699,5.9874515 C 26.204955,7.3555498 26.534526,8.9305498 26.180079,9.4874515 C 25.825632,10.044353 25.253472,12.75 24.908613,15.5 C 24.374681,19.757713 24.265954,19.238112 24.176233,12 z M 44.227717,12 C 44.152429,5.0709144 44.34157,3.9285192 45.251131,5.818658 C 45.990061,7.3542134 46.980888,7.9767549 48.18483,7.6619168 C 49.184692,7.4004472 49.750581,7.5945511 49.442363,8.0932588 C 49.134145,8.5919664 48.242097,9 47.460035,9 C 45.989141,9 45.298154,10.988412 44.67998,17 C 44.482032,18.925 44.278514,16.675 44.227717,12 z M 64.176233,12 C 64.08047,4.2744137 64.19631,3.7266255 65.447699,5.9874515 C 66.204955,7.3555498 66.534526,8.9305498 66.180079,9.4874515 C 65.825632,10.044353 65.253472,12.75 64.908613,15.5 C 64.374681,19.757713 64.265954,19.238112 64.176233,12 z "
       id="path1871" />
  </g>
</svg>
