<?xml version="1.0" encoding="UTF-8" standalone="no"?>
<!-- Created with Inkscape (http://www.inkscape.org/) -->
<svg
   xmlns:dc="http://purl.org/dc/elements/1.1/"
   xmlns:cc="http://web.resource.org/cc/"
   xmlns:rdf="http://www.w3.org/1999/02/22-rdf-syntax-ns#"
   xmlns:svg="http://www.w3.org/2000/svg"
   xmlns="http://www.w3.org/2000/svg"
   xmlns:xlink="http://www.w3.org/1999/xlink"
   xmlns:sodipodi="http://sodipodi.sourceforge.net/DTD/sodipodi-0.dtd"
   xmlns:inkscape="http://www.inkscape.org/namespaces/inkscape"
   id="svg47"
   sodipodi:version="0.32"
   inkscape:version="0.44"
   width="20"
   height="20"
   version="1.0"
   sodipodi:docbase="/home/kde4/Developpements/C++/ksirk/ksirk/skins/default/Images"
   sodipodi:docname="bluedice6.svg">
  <metadata
     id="metadata52">
    <rdf:RDF>
      <cc:Work
         rdf:about="">
        <dc:format>image/svg+xml</dc:format>
        <dc:type
           rdf:resource="http://purl.org/dc/dcmitype/StillImage" />
      </cc:Work>
    </rdf:RDF>
  </metadata>
  <defs
     id="defs50" />
  <sodipodi:namedview
     inkscape:window-height="582"
     inkscape:window-width="928"
     inkscape:pageshadow="2"
     inkscape:pageopacity="0.0"
     guidetolerance="10.0"
     gridtolerance="10.0"
     objecttolerance="10.0"
     borderopacity="1.0"
     bordercolor="#666666"
     pagecolor="#ffffff"
     id="base"
     inkscape:zoom="18.95"
     inkscape:cx="10"
     inkscape:cy="9.9736148"
     inkscape:window-x="666"
     inkscape:window-y="543"
     inkscape:current-layer="svg47" />
  <g
     id="g1972">
    <path
       style="fill:#fefefe"
       d="M 0.090188267,16.25 L 0.18037653,12.5 L 1.153967,15.88579 L 2.1275574,19.27158 L 8.2106287,18.635774 C 11.556318,18.28608 15.577618,17.359464 17.14685,16.576628 C 19.891041,15.207645 20,15.245835 20,17.576645 C 20,19.979561 19.91566,20 10,20 L 0,20 L 0.090188267,16.25 z M 17.909163,7.75 C 16.626826,2.1789073 16.184141,1.4666614 13.833818,1.1930863 C 12.383611,1.0242837 8.6777358,1.5440643 5.5985393,2.3481542 C 0.24804949,3.7453612 -2.2289304e-15,3.7257297 -1.1397133e-15,1.9050679 C -9.4912031e-17,0.15864855 0.83277109,0 10,0 L 20,0 L 20,7 C 20,10.85 19.853248,14 19.673884,14 C 19.49452,14 18.700396,11.1875 17.909163,7.75 z "
       id="path1988" />
    <path
       style="fill:#a0cacb"
       d="M 1.0525809,15.25 C 0.47979603,13.1875 0.056835733,10.6 0.11266912,9.5 C 0.16850251,8.4 0.66073719,9.525 1.206524,12 C 1.7523107,14.475 2.6592194,17.0625 3.2218765,17.75 C 3.9251288,18.609291 3.9087415,19 3.1694487,19 C 2.5779563,19 1.6253658,17.3125 1.0525809,15.25 z M 7.2708333,18.395833 C 7.603125,18.063542 8.465625,18.028015 9.1875,18.316886 C 9.9852327,18.636112 9.7482763,18.873069 8.5833333,18.921053 C 7.5291667,18.964474 6.9385417,18.728125 7.2708333,18.395833 z M 12.270833,17.395833 C 12.603125,17.063542 13.465625,17.028015 14.1875,17.316886 C 14.985233,17.636112 14.748276,17.873069 13.583333,17.921053 C 12.529167,17.964474 11.938542,17.728125 12.270833,17.395833 z M 18.513239,13.75 C 17.123765,9.6535884 15.244753,0.85903113 15.918981,1.6077979 C 16.826683,2.6158484 20.005872,15 19.356951,15 C 19.126105,15 18.746434,14.4375 18.513239,13.75 z M 0.73333333,3.8759123 C 1.4116667,3.1924939 2.2185743,2.885241 2.5264614,3.1931281 C 2.8343485,3.5010152 2.2793485,4.0601757 1.2931281,4.4357071 C -0.13207038,4.9783917 -0.24693394,4.8635281 0.73333333,3.8759123 z M 9.2708333,1.3958333 C 9.603125,1.0635417 10.465625,1.0280154 11.1875,1.316886 C 11.985233,1.6361123 11.748276,1.8730687 10.583333,1.9210526 C 9.5291667,1.9644737 8.9385417,1.728125 9.2708333,1.3958333 z "
       id="path1986" />
    <path
       style="fill:#57e6d4"
       d="M 7.5297156,16.048081 C 7.2562261,15.605566 8.431408,14.963718 10.141231,14.621754 C 13.949784,13.860043 15.503591,13.829743 14.802478,14.530856 C 13.702234,15.631099 8.0063876,16.819352 7.5297156,16.048081 z M 4,12 C 5.3021266,11.158501 5.3057535,11.028606 4.0274938,11.015313 C 1.5022071,10.989052 6.0903352,8.4158893 10.689688,7.2789499 C 14.118094,6.4314636 14.981188,6.5085926 15.439688,7.7034264 C 16.39484,10.192511 16.070835,10.831284 14.112859,10.319262 C 13.074931,10.047838 11.949483,10.272721 11.611863,10.819002 C 11.274243,11.365283 10.098456,11.577002 8.9990041,11.289489 C 7.8817048,10.997308 7,11.259252 7,11.883369 C 7,12.497516 5.9875,12.993109 4.75,12.984687 C 2.9305617,12.972305 2.7870411,12.783874 4,12 z "
       id="path1984" />
    <path
       style="fill:#49d7ca"
       d="M 5.8688793,15.657991 C 6.4814522,14.919886 6.7615523,14.019886 6.4913241,13.657991 C 6.2210958,13.296096 6.313025,13.238025 6.695611,13.528944 C 8.0735761,14.576752 7.7897587,17 6.2890714,17 C 5.1191947,17 5.0194625,16.681475 5.8688793,15.657991 z M 11.414767,15.956465 C 13.017889,15.477069 14.656421,14.555922 15.055949,13.909472 C 15.87488,12.584415 15.640433,8.5019066 14.573018,5.5 C 14.111085,4.2008978 14.399321,4.3761222 15.395495,6 C 18.661954,11.324703 16.064241,17.14877 10.527494,16.914047 C 9.0600085,16.851835 9.3050799,16.587344 11.414767,15.956465 z M 1.6065555,13.273222 C 1.27295,12.939617 1,11.729167 1,10.583333 C 1,9.0237303 1.6330887,8.5 3.5183472,8.5 C 5.6600147,8.5 5.8016611,8.6718606 4.4653445,9.6489991 C 3.6011021,10.280949 3.323511,10.955949 3.8484755,11.148999 C 4.37344,11.34205 4.2202412,12.03545 3.5080337,12.689889 C 2.7958262,13.344328 1.940161,13.606828 1.6065555,13.273222 z M 4.6157912,6.187354 C 3.9499171,5.1099472 10.725412,2.3920789 11.685001,3.3516674 C 11.988049,3.6547157 10.945398,4.2188523 9.3679988,4.6053043 C 7.7905995,4.9917563 6.21875,5.7367001 5.875,6.2607349 C 5.4874233,6.8515821 5.0090785,6.8237063 4.6157912,6.187354 z "
       id="path1982" />
    <path
       style="fill:#48b6b2"
       d="M 6,18.013915 C 6.825,17.473106 8.5875,17.023735 9.9166667,17.015313 C 13.126293,16.994976 12.312786,17.563575 8,18.354962 C 5.5375754,18.806812 4.9446752,18.705709 6,18.013915 z M 14.777494,15.443296 C 15.999872,14.587109 17,12.937109 17,11.776629 C 17,9.0484113 17.545177,9.7244865 18.3897,13.5 C 18.862045,15.611658 18.771574,16.064128 18.084172,15.028025 C 17.245,13.763165 17.014614,13.798341 16.446806,15.278025 C 16.083375,16.225111 15.05904,17 14.170505,17 C 12.943095,17 13.088916,16.626022 14.777494,15.443296 z M 11,12.059017 C 11,11.541476 11.444846,10.843104 11.988546,10.507079 C 12.555406,10.15674 12.723053,10.558137 12.381557,11.448062 C 11.716766,13.180479 11,13.497449 11,12.059017 z M 0,6.5 C 0,4.57933 0.62459615,4.57933 1.3616264,6.5 C 1.6782086,7.325 1.5013536,8 0.9686152,8 C 0.43587684,8 0,7.325 0,6.5 z M 15.530366,6.095674 C 15.17163,4.9653981 14.402819,4.1439859 13.821896,4.2703135 C 13.240973,4.3966411 12.641234,3.7671385 12.489141,2.8714188 C 12.003278,0.01002573 15.755672,1.9427586 16.312452,4.8406788 C 16.937294,8.0928412 16.425103,8.9147411 15.530366,6.095674 z "
       id="path1980" />
    <path
       style="fill:#39afb0"
       d="M 1,6.1518151 C 1,5.6466113 1.9,4.9979074 3,4.710251 C 5.5606,4.040639 5.5606,4.6296085 3,6 C 1.895077,6.5913368 1,6.6592799 1,6.1518151 z "
       id="path1978" />
    <path
       style="fill:#379490"
       d="M 3.0810203,17.151388 C 1.447514,14.099153 1.785765,13.249124 3.601999,15.842161 C 4.4830984,17.100107 4.9695576,18.363776 4.6830193,18.650314 C 4.396481,18.936852 3.6755815,18.262336 3.0810203,17.151388 z M 9.5642929,13.706872 C 9.9398243,12.720651 10.498985,12.165651 10.806872,12.473539 C 11.114759,12.781426 10.807506,13.588333 10.124088,14.266667 C 9.1364719,15.246934 9.0216083,15.13207 9.5642929,13.706872 z M 9.5427051,6.0690983 C 9.2262742,5.5571024 9.3497166,4.9018973 9.8170214,4.613087 C 10.284326,4.3242767 10.666667,4.7431824 10.666667,5.5439887 C 10.666667,7.2301561 10.35133,7.3774802 9.5427051,6.0690983 z M 2.5,4 C 3.6,3.5273138 5.175,3.1405705 6,3.1405705 C 6.9454791,3.1405705 6.7606388,3.4582849 5.5,4 C 4.4,4.4726862 2.825,4.8594295 2,4.8594295 C 1.0545209,4.8594295 1.2393612,4.5417151 2.5,4 z M 8.2708333,2.3958333 C 8.603125,2.0635417 9.465625,2.0280154 10.1875,2.316886 C 10.985233,2.6361123 10.748276,2.8730687 9.5833333,2.9210526 C 8.5291667,2.9644737 7.9385417,2.728125 8.2708333,2.3958333 z "
       id="path1976" />
    <path
       style="fill:#24635c"
       d="M 3,15 C 3,14.45 3.7015576,14 4.559017,14 C 5.4164763,14 5.8399187,14.45 5.5,15 C 5.1600813,15.55 4.4585237,16 3.940983,16 C 3.4234424,16 3,15.55 3,15 z M 8,13 C 8,12.45 8.45,12 9,12 C 9.55,12 10,12.45 10,13 C 10,13.55 9.55,14 9,14 C 8.45,14 8,13.55 8,13 z M 12.63948,13.306147 C 11.513296,12.179963 11.95359,11 13.5,11 C 14.325,11 15,11.423442 15,11.940983 C 15,13.201961 13.438411,14.105078 12.63948,13.306147 z M 2.6938532,8.3605198 C 2.3421391,8.0088057 2.2982333,7.3264654 2.5962848,6.8442079 C 3.2354671,5.8099892 5,6.7017632 5,8.059017 C 5,9.1341071 3.6446388,9.3113054 2.6938532,8.3605198 z M 7,6.3930112 C 7,5.3910006 7.5526441,4.9980918 8.467975,5.3493372 C 9.2753612,5.6591604 10.206455,5.474965 10.537073,4.9400142 C 11.247922,3.7898366 13,4.6619831 13,6.1660058 C 13,6.7423903 12.339411,6.9604859 11.532025,6.6506628 C 10.724639,6.3408396 9.7980811,6.5176946 9.473008,7.0436739 C 8.5361035,8.5596173 7,8.1554595 7,6.3930112 z "
       id="path1974" />
  </g>
</svg>
