<?xml version="1.0" encoding="UTF-8" standalone="no"?>
<!-- Created with Inkscape (http://www.inkscape.org/) -->
<svg
   xmlns:dc="http://purl.org/dc/elements/1.1/"
   xmlns:cc="http://web.resource.org/cc/"
   xmlns:rdf="http://www.w3.org/1999/02/22-rdf-syntax-ns#"
   xmlns:svg="http://www.w3.org/2000/svg"
   xmlns="http://www.w3.org/2000/svg"
   xmlns:xlink="http://www.w3.org/1999/xlink"
   xmlns:sodipodi="http://sodipodi.sourceforge.net/DTD/sodipodi-0.dtd"
   xmlns:inkscape="http://www.inkscape.org/namespaces/inkscape"
   id="svg2"
   sodipodi:version="0.32"
   inkscape:version="0.44"
   width="20"
   height="20"
   version="1.0"
   sodipodi:docbase="/home/kde4/Developpements/C++/ksirk/ksirk/skins/default/Images"
   sodipodi:docname="distributionArmees.svg">
  <metadata
     id="metadata7">
    <rdf:RDF>
      <cc:Work
         rdf:about="">
        <dc:format>image/svg+xml</dc:format>
        <dc:type
           rdf:resource="http://purl.org/dc/dcmitype/StillImage" />
      </cc:Work>
    </rdf:RDF>
  </metadata>
  <defs
     id="defs5" />
  <sodipodi:namedview
     inkscape:window-height="582"
     inkscape:window-width="928"
     inkscape:pageshadow="2"
     inkscape:pageopacity="0.0"
     guidetolerance="10.0"
     gridtolerance="10.0"
     objecttolerance="10.0"
     borderopacity="1.0"
     bordercolor="#666666"
     pagecolor="#ffffff"
     id="base"
     inkscape:zoom="18.95"
     inkscape:cx="10"
     inkscape:cy="9.9736148"
     inkscape:window-x="666"
     inkscape:window-y="0"
     inkscape:current-layer="svg2" />
  <g
     id="g1891">
    <path
       style="fill:#9ec5c6"
       d="M 17.979944,7.475834 C 17.284224,6.6375427 16.908659,5.758008 17.145354,5.5213124 C 17.38205,5.2846168 18.124988,5.9704915 18.796329,7.0454784 C 20.248142,9.370201 19.763957,9.6254382 17.979944,7.475834 z M 3,2.6069888 C 3,2.3908326 3.698372,1.9459871 4.5519378,1.6184432 C 5.4418629,1.2769469 5.8432596,1.4445943 5.4929208,2.0114544 C 4.9056629,2.9616577 3,3.4169019 3,2.6069888 z "
       id="path1907" />
    <path
       style="fill:#a4b7ce"
       d="M 1.25,18.441347 C -0.3213446,16.735578 -0.36337217,15 1.1666667,15 C 1.8083333,15 2.0372375,15.296096 1.6753426,15.657991 C 1.3134477,16.019886 1.527573,16.93076 2.1511766,17.682157 C 3.6576774,19.497379 2.8497814,20.177986 1.25,18.441347 z M 7,10.122445 C 7,8.6397517 9.8472355,6.7875523 11.016036,7.5099108 C 11.748698,7.9627209 11.511315,8.6532564 10.309841,9.5641973 C 8.204475,11.160456 7,11.363606 7,10.122445 z M -6.4615505e-19,3.059017 C 1.1157713e-19,0.6444519 0.55611148,0.40086176 1.3493372,2.467975 C 1.6591604,3.2753612 1.4823054,4.2019189 0.95632605,4.526992 C 0.43034672,4.8520651 -1.0015403e-18,4.1914763 -6.4615505e-19,3.059017 z M 18,1 C 18,-0.28138497 18.708061,-0.28138497 19.5,1 C 19.839919,1.55 19.641476,2 19.059017,2 C 18.476558,2 18,1.55 18,1 z "
       id="path1905" />
    <path
       style="fill:#9ab8c5"
       d="M 0.56598301,19.106763 C 0.18977366,18.498043 0.38508131,18 1,18 C 1.6175799,18 1.7908637,17.440475 1.3871227,16.75 C 0.98512151,16.0625 1.6363227,16.359741 2.8342365,17.410536 C 4.0321503,18.461331 4.7228956,19.586331 4.369226,19.910536 C 4.0155565,20.234741 3.5083247,19.886581 3.2420444,19.136847 C 2.8720069,18.094977 2.5801996,18.061217 2.0039491,18.99361 C 1.4658475,19.864277 1.0541733,19.896671 0.56598301,19.106763 z M 14.631675,18.521432 C 12.807241,17.139712 12.807241,17.108357 14.631675,17.186752 C 15.659254,17.230906 17.2875,16.933805 18.25,16.526527 C 19.597255,15.956442 20,16.270925 20,17.893011 C 20,20.359139 17.452032,20.657407 14.631675,18.521432 z M 11.203671,7.9545216 C 10.431107,6.7174492 10.364755,6 11.022911,6 C 11.594833,6 12.329239,6.6944076 12.654923,7.5431281 C 13.554929,9.8885045 12.583448,10.163895 11.203671,7.9545216 z M 7,7.8333333 C 7,6.753329 8.729515,6.753329 9.3969943,7.8333333 C 9.6802599,8.2916667 9.2568176,8.6666667 8.4560113,8.6666667 C 7.6552051,8.6666667 7,8.2916667 7,7.8333333 z M 18.131121,4.6579907 C 17.518548,3.9198856 17.313448,3.0198856 17.675343,2.6579907 C 18.935251,1.3980823 19.87471,2.013177 19.725047,4 C 19.546323,6.3726158 19.55214,6.3702144 18.131121,4.6579907 z M 1.6666667,3.3333333 C 0.57245964,2.2391263 0.90669387,1.3333333 2.4046592,1.3333333 C 3.1772218,1.3333333 3.5790768,1.9333333 3.2976704,2.6666667 C 2.7117838,4.1934628 2.5804701,4.2471368 1.6666667,3.3333333 z M 14.327341,1.5841782 C 13.388159,0.51563588 13.645331,0.25 15.619008,0.25 C 16.974387,0.25 17.923958,0.728125 17.729167,1.3125 C 17.186367,2.9408978 15.629122,3.0652632 14.327341,1.5841782 z "
       id="path1903" />
    <path
       style="fill:#96c4b7"
       d="M 5.3494623,18.756425 C 4.961133,18.128095 5.1646356,17.983716 5.8454915,18.404508 C 6.4804712,18.796948 7,18.737905 7,18.273303 C 7,17.808701 7.9,17.428571 9,17.428571 C 10.840665,17.428571 11.958463,18.902222 10.25,19.076511 C 9.8375,19.118592 8.7142869,19.303512 7.7539708,19.487445 C 6.7936547,19.671377 5.7116259,19.342418 5.3494623,18.756425 z M 9.9056093,13.176371 C 10.513439,12.04063 11.503231,10.80702 12.105146,10.435016 C 12.889272,9.9503998 12.886223,10.344078 12.094391,11.823629 C 11.486561,12.95937 10.496769,14.19298 9.8948543,14.564984 C 9.1107281,15.0496 9.1137772,14.655922 9.9056093,13.176371 z M 17.881162,11.218582 C 17.551718,9.231363 17.698469,8.2984688 18.253246,8.8532465 C 18.757092,9.3570923 19.001892,10.833731 18.797245,12.134665 C 18.482367,14.136345 18.341525,13.995504 17.881162,11.218582 z M 4.5645464,9.1044383 C 4.1438968,8.423813 3.95729,7.7695413 4.1498645,7.6505012 C 4.342439,7.5314611 5.2474375,6.8645489 6.1609723,6.168474 C 7.4461949,5.1891888 7.9901495,5.1750445 8.5654808,6.1059502 C 9.0387941,6.8717872 8.8863606,7.047801 8.1460499,6.5902638 C 7.4465997,6.1579798 6.6535265,6.7623865 6.1562234,8.1067248 C 5.576062,9.6750504 5.1011763,9.9727238 4.5645464,9.1044383 z M 2.6285955e-17,8.6224447 C 4.074323e-17,8.4147893 0.68530148,7.6761397 1.5228922,6.9810012 C 2.7962391,5.9242171 2.9425703,5.9860844 2.4159034,7.3585565 C 1.8780067,8.7602928 -5.1713333e-17,9.7427785 2.6285955e-17,8.6224447 z M 10.269735,3.9307219 C 10.09674,1.634157 10.568105,1.4321169 11.349337,3.467975 C 11.65916,4.2753612 11.575719,5.1441861 11.163912,5.3986969 C 10.752105,5.6532078 10.349725,4.992619 10.269735,3.9307219 z M 12.979944,2.475834 C 12.284224,1.6375427 11.908659,0.75800802 12.145354,0.52131242 C 12.38205,0.28461682 13.124988,0.97049151 13.796329,2.0454784 C 15.248142,4.370201 14.763957,4.6254382 12.979944,2.475834 z "
       id="path1901" />
    <path
       style="fill:#94b9b8"
       d="M 3.3102232,17.790299 C 1.7175447,16.030409 1.7172867,15.954282 3.3060669,16.563954 C 4.2377301,16.921467 5,17.64239 5,18.166006 C 5,18.689621 5.4189058,18.859136 5.9309017,18.542705 C 6.4428976,18.226274 7.0981027,18.349717 7.386913,18.817021 C 8.4243305,20.495598 4.9715079,19.625998 3.3102232,17.790299 z M 10,19 C 10.825,18.466844 12.4,18.055363 13.5,18.085598 C 15.5,18.140571 15.5,18.140571 13.5,19 C 12.4,19.472686 10.825,19.884167 10,19.914402 C 8.6666667,19.963266 8.6666667,19.861666 10,19 z M 12,15 C 12,12.436106 12.619276,12.436106 13.289749,15 C 13.577405,16.1 13.40489,17 12.90638,17 C 12.407871,17 12,16.1 12,15 z M 16.5,16 C 19.249085,14.818678 20.827966,14.818678 19,16 C 18.175,16.533156 16.825,16.944637 16,16.914402 C 15.010945,16.878155 15.18126,16.566682 16.5,16 z M 7.6509729,12.166823 C 6.0876005,10.439316 6.1218987,10.344116 8.2459854,10.51528 C 9.4856934,10.615179 10.871759,10.202609 11.326131,9.5984573 C 11.852523,8.898545 11.988582,9.0442337 11.701131,10 C 11.453009,10.825 10.688543,11.369098 10.002319,11.209106 C 9.2445828,11.032442 8.9868306,11.523298 9.345934,12.459106 C 10.121817,14.481024 9.6756713,14.40409 7.6509729,12.166823 z M 0.35223797,6.8058074 C 0.55502723,5.4241158 1.866663,4.5333297 2.6074993,5.274166 C 2.8499573,5.5166239 2.3985891,6.2542373 1.604459,6.9133067 C 0.46977249,7.8550129 0.20162585,7.8319933 0.35223797,6.8058074 z M 17.261025,5.0463605 C 16.299518,3.5067429 16.301522,2.9429576 17.270479,2.3860351 C 17.946715,1.9973579 18.161518,2.0524775 17.747818,2.5085231 C 17.334118,2.9645687 17.741363,4.1617151 18.652806,5.1688485 C 19.564249,6.1759818 19.898477,7 19.395534,7 C 18.892592,7 17.932063,6.1208622 17.261025,5.0463605 z "
       id="path1899" />
    <path
       style="fill:#88c5a7"
       d="M 3.6939672,15.973915 C 0.39148166,13.376179 -0.55622744,10.41337 1.3163469,8.5407959 C 2.5871061,7.2700368 3.0034463,7.3623586 4.6347082,9.2766301 C 6.1177433,11.016959 6.1503472,11.195259 4.7938049,10.146677 C 3.1075973,8.8432702 1,9.3073749 1,10.982094 C 1,11.457327 2.3846154,13.230769 4.0769231,14.923077 C 7.6099018,18.456056 7.4404885,18.920929 3.6939672,15.973915 z M 14.083333,15.640676 C 14.3125,15.443048 15.85,14.979379 17.5,14.6103 C 19.690916,14.120226 20.095458,14.213004 19,14.95431 C 17.64963,15.868118 13.079847,16.506059 14.083333,15.640676 z M 4.8724447,13.33628 C 3.6170432,11.814444 3.7132021,11.783355 6,12.971735 C 9.3524462,14.7139 9.6048121,15 7.7891114,15 C 6.9397893,15 5.6272893,14.251326 4.8724447,13.33628 z M 12.091875,11.870974 C 14.030092,9.1489987 14.148139,8.4660337 12.999313,6.6209741 C 11.786721,4.6735028 11.818714,4.6157374 13.39041,5.9148252 C 15.381105,7.560237 15.264479,13.652896 13.25,13.25 C 12.5625,13.1125 12,13.45 12,14 C 12,14.55 11.519358,15 10.931906,15 C 10.344454,15 10.86644,13.591938 12.091875,11.870974 z M 16.824504,11.325823 C 17.251232,9.232864 17.502694,8.981402 17.794107,10.35622 C 18.010506,11.377141 17.751239,12.648761 17.217958,13.182042 C 16.591821,13.808179 16.452446,13.150644 16.824504,11.325823 z M 5,6.6224447 C 5,6.4147893 5.7875,5.6272893 6.75,4.8724447 C 8.3360556,3.6285741 8.3714259,3.6639444 7.1275553,5.25 C 5.8211855,6.915748 5,7.4454789 5,6.6224447 z M 3,4.059017 C 3,3.4765576 3.45,3 4,3 C 5.281385,3 5.281385,3.7080605 4,4.5 C 3.45,4.8399187 3,4.6414763 3,4.059017 z M 15,4 C 15,2.718615 15.708061,2.718615 16.5,4 C 16.839919,4.55 16.641476,5 16.059017,5 C 15.476558,5 15,4.55 15,4 z M 6,2.059017 C 6,1.4765576 6.45,1 7,1 C 8.281385,1 8.281385,1.7080605 7,2.5 C 6.45,2.8399187 6,2.6414763 6,2.059017 z "
       id="path1897" />
    <path
       style="fill:#156e2c"
       d="M 6,16 C 6,15.45 7.35,15 9,15 C 10.65,15 12,15.45 12,16 C 12,16.55 10.65,17 9,17 C 7.35,17 6,16.55 6,16 z M 13.606989,13.418213 C 12.609624,10.819121 12.912346,10.497867 14.418239,12.557298 C 15.19827,13.624055 16.17327,14.160063 16.584906,13.748428 C 16.996541,13.336792 16.808333,13 16.166667,13 C 15.525,13 15,11.682143 15,10.071429 C 15,8.4607143 14.271429,6.4142857 13.380952,5.5238095 C 12.490476,4.6333333 12.019048,3.647619 12.333333,3.3333333 C 12.647619,3.0190476 13.633333,3.4904762 14.52381,4.3809524 C 15.414286,5.2714286 15.773214,6.0068907 15.321429,6.0153128 C 14.869643,6.0237348 14.992914,6.3612348 15.595365,6.7653128 C 16.197816,7.1693907 16.957025,9.1875 17.282495,11.25 C 17.784765,14.43288 17.597483,15 16.044118,15 C 15.037541,15 13.940833,14.288196 13.606989,13.418213 z M 1.2642349e-17,13.262558 C 1.9595641e-17,12.778394 0.64904752,11.508751 1.4423278,10.44113 C 2.8597264,8.5335505 2.9203165,8.538793 4.9478834,10.744444 C 6.0826586,11.978889 6.4686111,12.541389 5.8055556,11.994444 C 4.158541,10.635847 3.4042185,10.738639 1.5714286,12.571429 C 0.70714286,13.435714 5.6890571e-18,13.746723 1.2642349e-17,13.262558 z M 3.1538684,6.4879094 C 3.3442408,5.525987 4.5218116,4.0616236 5.7706926,3.2337684 C 7.8288502,1.8694619 7.9826347,1.8816784 7.4137038,3.3642886 C 7.068479,4.2639299 6.1326097,5 5.3339942,5 C 4.5353787,5 4.140864,5.4189058 4.4572949,5.9309017 C 4.7737258,6.4428976 4.5320242,7.171191 3.9201803,7.5493313 C 3.2307115,7.9754465 2.9393434,7.5718713 3.1538684,6.4879094 z M 8,1 C 7.0987081,0.41754043 6.9753674,0.024513628 7.690983,0.015312775 C 8.3460237,0.0068907485 9.1600813,0.45 9.5,1 C 10.267305,2.2415252 9.9211232,2.2415252 8,1 z "
       id="path1895" />
    <path
       style="fill:#0b7014"
       d="M 3.4559479,14.25 C 2.1338748,11.19784 2.1576349,10.12326 3.5355036,10.651998 C 4.2715201,10.934434 4.6289844,11.803276 4.3298689,12.582759 C 4.0307533,13.362241 4.2841674,14 4.8930112,14 C 5.501855,14 6,14.45 6,15 C 6,16.64224 4.2714362,16.13265 3.4559479,14.25 z M 7.7253027,4.7265337 C 7.4281584,3.952188 7.5691985,2.6970514 8.0387252,1.9373413 C 8.7291331,0.82023781 9.0237258,0.89825355 9.5789876,2.3452425 C 9.9566052,3.3292983 9.8155651,4.5844349 9.2655651,5.1344349 C 8.5988984,5.8011016 8.0854777,5.6651345 7.7253027,4.7265337 z "
       id="path1893" />
  </g>
</svg>
