<?xml version="1.0" encoding="UTF-8" standalone="no"?>
<!-- Created with Inkscape (http://www.inkscape.org/) -->
<svg
   xmlns:dc="http://purl.org/dc/elements/1.1/"
   xmlns:cc="http://web.resource.org/cc/"
   xmlns:rdf="http://www.w3.org/1999/02/22-rdf-syntax-ns#"
   xmlns:svg="http://www.w3.org/2000/svg"
   xmlns="http://www.w3.org/2000/svg"
   xmlns:xlink="http://www.w3.org/1999/xlink"
   xmlns:sodipodi="http://sodipodi.sourceforge.net/DTD/sodipodi-0.dtd"
   xmlns:inkscape="http://www.inkscape.org/namespaces/inkscape"
   id="svg2"
   sodipodi:version="0.32"
   inkscape:version="0.44"
   width="20"
   height="20"
   version="1.0"
   sodipodi:docbase="/home/kde4/Developpements/C++/ksirk/ksirk/skins/default/Images"
   sodipodi:docname="quitter.svg">
  <metadata
     id="metadata7">
    <rdf:RDF>
      <cc:Work
         rdf:about="">
        <dc:format>image/svg+xml</dc:format>
        <dc:type
           rdf:resource="http://purl.org/dc/dcmitype/StillImage" />
      </cc:Work>
    </rdf:RDF>
  </metadata>
  <defs
     id="defs5" />
  <sodipodi:namedview
     inkscape:window-height="582"
     inkscape:window-width="928"
     inkscape:pageshadow="2"
     inkscape:pageopacity="0.0"
     guidetolerance="10.0"
     gridtolerance="10.0"
     objecttolerance="10.0"
     borderopacity="1.0"
     bordercolor="#666666"
     pagecolor="#ffffff"
     id="base"
     inkscape:zoom="18.95"
     inkscape:cx="10"
     inkscape:cy="9.9736148"
     inkscape:window-x="666"
     inkscape:window-y="0"
     inkscape:current-layer="svg2" />
  <g
     id="g1891">
    <path
       style="fill:#fae5ac"
       d="M 7.6235386,17.461341 C 7.2805924,16.567637 7.0285238,15.310729 7.0633863,14.668213 C 7.0982488,14.025696 7.557916,14.577833 8.0848691,15.895184 C 8.6118222,17.212535 8.8638907,18.469443 8.6450214,18.688312 C 8.4261521,18.907181 7.9664848,18.355044 7.6235386,17.461341 z M 9.4123785,13.506911 C 9.0682295,12.135712 8.4756705,11.206019 8.0955807,11.440928 C 7.715491,11.675836 6.7509941,11.445542 5.9522542,10.929163 C 4.9032764,10.251006 5.382284,10.049166 7.6772268,10.202308 C 10.459544,10.387973 10.844584,10.761458 10.775047,13.207162 C 10.676795,16.662789 10.229167,16.761255 9.4123785,13.506911 z M -2.210174e-17,14.606989 C -3.4257698e-17,14.390833 0.675,13.954956 1.5,13.638374 C 2.325,13.321791 3,13.498646 3,14.031385 C 3,14.564123 2.325,15 1.5,15 C 0.675,15 -9.9457832e-18,14.823145 -2.210174e-17,14.606989 z M 18.020056,13.524166 C 17.324336,12.685875 15.637066,12 14.270566,12 C 12.472926,12 11.94516,11.585294 12.361626,10.5 C 12.73155,9.5359933 12.340986,9 11.268615,9 C 9.9397144,9 9.8527864,8.7472136 10.841641,7.7583592 C 11.830495,6.7695048 12.264961,6.8106819 12.975658,7.9606135 C 13.466465,8.7547557 13.646169,9.7634941 13.375,10.202254 C 13.103831,10.641014 13.696024,11.014312 14.690983,11.031803 C 16.748475,11.067975 20.629987,13.703346 19.8195,14.513834 C 19.525526,14.807808 18.715776,14.362457 18.020056,13.524166 z M 6.5600982,7.1828362 C 8.5119774,5.3259165 11,4.7016585 11,6.0688415 C 11,6.473371 9.5645442,7.3047523 7.8100982,7.9163555 C 4.6878102,9.0047909 4.661315,8.9892431 6.5600982,7.1828362 z M 12,5.6069888 C 12,5.3908326 12.698372,4.9459871 13.551938,4.6184432 C 14.441863,4.2769469 14.84326,4.4445943 14.492921,5.0114544 C 13.905663,5.9616577 12,6.4169019 12,5.6069888 z "
       id="path1907" />
    <path
       style="fill:#c6b6a7"
       d="M 11.333333,17.597069 C 11.333333,16.215023 13.489748,16.013878 14.471056,17.304389 C 14.761975,17.686975 14.703904,17.778904 14.342009,17.508676 C 13.980114,17.238448 13.155114,17.456303 12.508676,17.9928 C 11.705408,18.659453 11.333333,18.534178 11.333333,17.597069 z M 18.542705,17.069098 C 18.226274,16.557102 18.424717,15.855545 18.983688,15.510081 C 19.54266,15.164618 20,15.583524 20,16.440983 C 20,18.197509 19.399945,18.456142 18.542705,17.069098 z M 0.33333333,7.5 C 0.33333333,6.6444444 0.82083333,6.1069444 1.4166667,6.3055556 C 2.6243964,6.7081321 2.4586566,8.3471145 1.1666667,8.7777778 C 0.70833333,8.9305556 0.33333333,8.3555556 0.33333333,7.5 z M 18.206182,4.2645959 C 18.649635,4.0251169 18.7581,3.4176142 18.447214,2.9145898 C 18.136327,2.4115654 18.396024,2 19.024316,2 C 20.386988,2 19.808826,4.3036117 18.387451,4.5375061 C 17.844299,4.6268845 17.762728,4.5040749 18.206182,4.2645959 z M 3.4578664,2.9318263 C 3.0947742,2.3443308 2.0557165,2.1459914 1.1488494,2.491072 C -0.11015191,2.9701465 -0.22437908,2.8406844 0.6657294,1.9435163 C 1.5580277,1.0441409 2.3725315,1.1475233 4.1382356,2.3842706 C 5.4069629,3.2729218 5.9214423,4 5.2815232,4 C 4.6416042,4 3.8209586,3.5193219 3.4578664,2.9318263 z M 12.5,2.2122741 C 14.15,1.1457602 15.695,0.44419738 15.933333,0.65324562 C 16.661594,1.292022 14.639119,2.7369201 12,3.4633005 C 9.7151147,4.0921829 9.7581377,3.9845373 12.5,2.2122741 z "
       id="path1905" />
    <path
       style="fill:#b7b8b4"
       d="M 4,19 C 4,18.45 4.45,18 5,18 C 5.55,18 6,18.45 6,19 C 6,19.55 5.55,20 5,20 C 4.45,20 4,19.55 4,19 z M 12,19.606989 C 12,19.390833 12.698372,18.945987 13.551938,18.618443 C 14.441863,18.276947 14.84326,18.444594 14.492921,19.011454 C 13.905663,19.961658 12,20.416902 12,19.606989 z M -6.4615505e-19,12.559017 C 8.1860243e-20,10.802491 0.60005503,10.543858 1.4572949,11.930902 C 1.7737258,12.442898 1.5752834,13.144455 1.0163119,13.489919 C 0.45734035,13.835382 -1.0015403e-18,13.416476 -6.4615505e-19,12.559017 z M 17.229167,6.8125 C 17.847241,4.9582769 20,4.6507399 20,6.4166667 C 20,7.2875 19.2875,8 18.416667,8 C 17.545833,8 17.011458,7.465625 17.229167,6.8125 z M 2,1.4166935 L -0.5,0.029483605 L 2.25,0.014741802 C 4.0343297,0.0051766258 5,0.52672926 5,1.5 C 5,2.325 4.8875,2.9558783 4.75,2.9019517 C 4.6125,2.8480252 3.375,2.179659 2,1.4166935 z M 10,1.5 C 10,0.675 10.660877,-5.1179764e-17 11.468615,-1.1373281e-16 C 12.363208,-1.8301207e-16 12.71225,0.58628917 12.361626,1.5 C 11.616715,3.4412072 10,3.4412072 10,1.5 z "
       id="path1903" />
    <path
       style="fill:#bab4a8"
       d="M 0.56429294,18.293128 C 0.021608307,16.86793 0.13647186,16.753066 1.1240877,17.733333 C 1.8075061,18.411667 2.114759,19.218574 1.8068719,19.526461 C 1.4989848,19.834349 0.93982428,19.279349 0.56429294,18.293128 z M 5.6383736,18.5 C 5.3217914,17.675 5.4986464,17 6.0313848,17 C 6.5641232,17 7,17.675 7,18.5 C 7,20.42067 6.3754039,20.42067 5.6383736,18.5 z M 11.333398,18.416667 C 11.333363,17.820833 11.933333,17.333333 12.666667,17.333333 C 13.4,17.333333 14.006891,17.820833 14.015313,18.416667 C 14.023735,19.0125 14.466844,18.825 15,18 C 15.841275,16.69822 15.971398,16.717277 15.984687,18.144213 C 15.994939,19.244995 15.228827,19.740762 13.666732,19.644213 C 12.383434,19.564896 11.333434,19.0125 11.333398,18.416667 z M 16,7.059017 C 16,6.5414763 16.444846,5.8431043 16.988546,5.5070792 C 17.555406,5.1567404 17.723053,5.5581371 17.381557,6.4480622 C 16.716766,8.1804795 16,8.4974491 16,7.059017 z M 12.5,1 C 12.839919,0.45 13.568034,-3.3935528e-18 14.118034,-2.6888214e-17 C 14.668034,-5.0382875e-17 14.839919,0.45 14.5,1 C 14.160081,1.55 13.431966,2 12.881966,2 C 12.331966,2 12.160081,1.55 12.5,1 z M 18,1 C 18,-0.28138497 18.708061,-0.28138497 19.5,1 C 19.839919,1.55 19.641476,2 19.059017,2 C 18.476558,2 18,1.55 18,1 z "
       id="path1901" />
    <path
       style="fill:#c6b49a"
       d="M 7,19 C 7,17.718615 7.7080605,17.718615 8.5,19 C 8.8399187,19.55 8.6414763,20 8.059017,20 C 7.4765576,20 7,19.55 7,19 z M 10.151495,18.5 C 9.9897277,15.823271 11.517142,13.409703 12.434017,14.893237 C 12.810226,15.501957 12.672774,16 12.128568,16 C 11.584362,16 10.944086,17.0125 10.705733,18.25 C 10.331961,20.190578 10.255742,20.224958 10.151495,18.5 z M 4,16.559017 C 4,15.503542 5.9191133,15.060106 6.4899187,15.983688 C 6.8353821,16.54266 6.4164763,17 5.559017,17 C 4.7015576,17 4,16.801558 4,16.559017 z M 16.683333,16.35 C 16.3075,15.974167 16,14.745238 16,13.619048 C 16,11.688517 16.097619,11.669048 17.707143,13.278571 C 18.871705,14.443134 19.088889,15.311111 18.390476,16.009524 C 17.827381,16.572619 17.059167,16.725833 16.683333,16.35 z M 1.4411296,10.531803 C 0.37350834,9.7242952 -0.05,9.0636067 0.5,9.0636067 C 1.05,9.0636067 2.3735083,9.7242952 3.4411296,10.531803 C 4.5087509,11.339312 4.9322593,12 4.3822593,12 C 3.8322593,12 2.5087509,11.339312 1.4411296,10.531803 z M 8,1 C 8,-0.28138497 8.7080605,-0.28138497 9.5,1 C 9.8399187,1.55 9.6414763,2 9.059017,2 C 8.4765576,2 8,1.55 8,1 z "
       id="path1899" />
    <path
       style="fill:#c7aa97"
       d="M 14.725834,17.114723 C 12.269945,14.609652 12.129306,14.137575 13.5,13 C 14.351583,12.293249 15.337457,12.004124 15.690833,12.357499 C 16.044208,12.710875 15.808333,13 15.166667,13 C 12.929293,13 14.019217,15.788007 16.5,16.410644 C 17.875,16.755747 19,17.704531 19,18.519052 C 19,20.681033 17.852506,20.30401 14.725834,17.114723 z M 2,17.5 C 2,16.675 2.45,16 3,16 C 3.55,16 4,16.675 4,17.5 C 4,18.325 3.55,19 3,19 C 2.45,19 2,18.325 2,17.5 z M 16.25,9.504169 C 14.630671,7.6649273 14.630671,6.4485951 16.25,7.7925184 C 16.9375,8.3630928 17.9125,8.7556929 18.416667,8.6649631 C 18.920833,8.5742334 19.520833,9.0625 19.75,9.75 C 20.314622,11.443867 17.802421,11.267416 16.25,9.504169 z M 2,9.118034 C 2,8.568034 2.45,7.8399187 3,7.5 C 3.55,7.1600813 4,7.331966 4,7.881966 C 4,8.431966 3.55,9.1600813 3,9.5 C 2.45,9.8399187 2,9.668034 2,9.118034 z M 1.0738864,4.5890277 C -0.53902925,2.6455832 1.5796231,1.4062287 3.6200203,3.099608 C 4.8701768,4.1371458 5.3197618,4.1069552 6.0609026,2.9356979 C 6.8199068,1.7362102 6.9718938,1.7703187 6.9846872,3.1430112 C 6.9985328,4.6286005 5.1053364,6 3.0406572,6 C 2.6029849,6 1.7179381,5.3650625 1.0738864,4.5890277 z M 14.678087,4.2282665 C 12.915536,3.8387714 12.915536,3.7806562 14.678087,2.44463 C 17.009803,0.67717229 17.66027,0.6722937 18.329869,2.4172412 C 18.949179,4.0311379 17.357674,4.8204117 14.678087,4.2282665 z "
       id="path1897" />
    <path
       style="fill:#ceb06e"
       d="M 8.6105911,17.11686 C 8.0101432,14.663439 7.5476895,14.11382 6.9277767,15.11686 C 6.4576215,15.877587 5.8509067,16.5 5.5795216,16.5 C 4.84,16.5 2.0683282,12.639719 2.0318034,11.55887 C 2.0143115,11.041249 2.6428609,11.491249 3.4285799,12.55887 C 4.7378848,14.337931 4.9123684,14.357624 5.5184045,12.794729 C 6.6312355,9.9248715 10.248598,14.027228 9.7957857,17.645596 L 9.4385777,20.5 L 8.6105911,17.11686 z M 0.27083333,15.395833 C 0.603125,15.063542 1.465625,15.028015 2.1875,15.316886 C 2.9852327,15.636112 2.7482763,15.873069 1.5833333,15.921053 C 0.52916667,15.964474 -0.061458333,15.728125 0.27083333,15.395833 z M 11.20419,11.75 C 11.393001,10.5125 12.099299,9.6125 12.773741,9.75 C 14.442428,10.090199 14.328293,9.6845445 12,7 C 10.9,5.7316893 10,5.0143926 10,5.4060073 C 10,5.797622 9.5426596,5.8353821 8.9836881,5.4899187 C 8.4247166,5.1444553 8.2443914,4.4135834 8.5829655,3.865759 C 8.9538069,3.265725 9.9467925,3.5468603 11.08052,4.5728694 C 12.617372,5.9637017 13.240993,6.0448831 14.481242,5.0155674 C 15.389848,4.2614918 16,4.1725675 16,4.794222 C 16,5.3657332 15.489732,6.0034226 14.866071,6.2113095 C 14.122837,6.4590543 14.295112,7.1522544 15.366071,8.2232143 C 17.58746,10.444603 17.428729,10.87095 14.5,10.549457 C 12.877096,10.371307 12,10.773745 12,11.69653 C 12,12.516382 12.488646,12.816034 13.154508,12.404508 C 13.869808,11.962429 14.037571,12.130192 13.595492,12.845492 C 12.377097,14.816896 10.843457,14.114312 11.20419,11.75 z M 3.5228338,10.036946 C 3.2251649,9.5553074 3.639325,8.5035321 4.4431897,7.6996674 C 5.2470544,6.8958027 5.6261905,5.9595238 5.2857143,5.6190476 C 4.9452381,5.2785714 5.165109,5 5.7743163,5 C 7.7020107,5 8.0604516,6.7628249 6.2722815,7.4490102 C 4.9400601,7.9602315 4.8482299,8.288167 5.8618709,8.9146315 C 6.8960028,9.5537602 6.84482,9.8455705 5.6158708,10.317163 C 4.7623694,10.644682 3.8205027,10.518584 3.5228338,10.036946 z "
       id="path1895" />
    <path
       style="fill:#9d5724"
       d="M 3.264474,14.139114 C 3.3509369,12.991292 4.012214,11.825555 4.7339788,11.548588 C 5.7816258,11.146568 5.8126237,11.494232 4.8876845,13.272505 C 3.2574877,16.406696 3.0867977,16.497825 3.264474,14.139114 z M 14.564293,14.293128 C 14.021608,12.86793 14.136472,12.753066 15.124088,13.733333 C 15.807506,14.411667 16.114759,15.218574 15.806872,15.526461 C 15.498985,15.834349 14.939824,15.279349 14.564293,14.293128 z M 7.9030787,11.616783 C 8.7969769,10.539702 8.6580855,10.073303 7.2755234,9.5094476 C 5.6289255,8.8379093 5.6452254,8.7256139 7.5,7.9629498 C 10.284681,6.8179178 11.223402,6.8295111 10.5,8 C 10.160081,8.55 10.358524,9 10.940983,9 C 11.523442,9 11.1,9.9 10,11 C 7.7372153,13.262785 6.1494175,13.729815 7.9030787,11.616783 z M 18,12 C 16.718103,11.171574 16.754453,11.028399 18.25,11.015313 C 19.2125,11.006891 20,11.45 20,12 C 20,13.21961 19.887213,13.21961 18,12 z M 1.25,6.3377193 C 0.5625,6.060307 5.448658e-17,5.3657332 -1.8323017e-17,4.794222 C -1.082495e-16,4.0883535 0.40087489,4.0805685 1.25,4.7699469 C 1.9375,5.3281068 3.4,6.0060063 4.5,6.2763902 C 6.5,6.7679973 6.5,6.7679973 4.5,6.8050513 C 3.4,6.825431 1.9375,6.6151316 1.25,6.3377193 z M 14,6.6069888 C 14,6.3908326 14.698372,5.9459871 15.551938,5.6184432 C 16.441863,5.2769469 16.84326,5.4445943 16.492921,6.0114544 C 15.905663,6.9616577 14,7.4169019 14,6.6069888 z M 6.755249,3.5 C 6.4924011,2.125 6.6649414,1 7.1386719,1 C 7.6124023,1 8,2.125 8,3.5 C 8,6.7094136 7.3687673,6.7094136 6.755249,3.5 z "
       id="path1893" />
  </g>
</svg>
