<?xml version="1.0" encoding="UTF-8" standalone="no"?>
<!-- Created with Inkscape (http://www.inkscape.org/) -->
<svg
   xmlns:dc="http://purl.org/dc/elements/1.1/"
   xmlns:cc="http://web.resource.org/cc/"
   xmlns:rdf="http://www.w3.org/1999/02/22-rdf-syntax-ns#"
   xmlns:svg="http://www.w3.org/2000/svg"
   xmlns="http://www.w3.org/2000/svg"
   xmlns:xlink="http://www.w3.org/1999/xlink"
   xmlns:sodipodi="http://sodipodi.sourceforge.net/DTD/sodipodi-0.dtd"
   xmlns:inkscape="http://www.inkscape.org/namespaces/inkscape"
   id="svg11"
   sodipodi:version="0.32"
   inkscape:version="0.44"
   width="20"
   height="20"
   version="1.0"
   sodipodi:docbase="/home/kde4/Developpements/C++/ksirk/ksirk/skins/default/Images"
   sodipodi:docname="reddice2.svg">
  <metadata
     id="metadata16">
    <rdf:RDF>
      <cc:Work
         rdf:about="">
        <dc:format>image/svg+xml</dc:format>
        <dc:type
           rdf:resource="http://purl.org/dc/dcmitype/StillImage" />
      </cc:Work>
    </rdf:RDF>
  </metadata>
  <defs
     id="defs14" />
  <sodipodi:namedview
     inkscape:window-height="582"
     inkscape:window-width="928"
     inkscape:pageshadow="2"
     inkscape:pageopacity="0.0"
     guidetolerance="10.0"
     gridtolerance="10.0"
     objecttolerance="10.0"
     borderopacity="1.0"
     bordercolor="#666666"
     pagecolor="#ffffff"
     id="base"
     inkscape:zoom="18.95"
     inkscape:cx="10"
     inkscape:cy="9.9736148"
     inkscape:window-x="666"
     inkscape:window-y="543"
     inkscape:current-layer="svg11" />
  <g
     id="g2026">
    <path
       style="fill:#fefdfd"
       d="M 0.014741802,16.75 L 0.029483605,13.5 L 1.3199027,16 C 2.4907472,18.268342 3.1420388,18.481618 8.3484824,18.30163 C 11.504471,18.192527 15.417148,17.439517 17.043322,16.628275 C 19.911278,15.19755 20,15.226008 20,17.576645 C 20,19.979561 19.91566,20 10,20 L 0,20 L 0.014741802,16.75 z M 13,12.5 C 13,11.675 13.45,11 14,11 C 14.55,11 15,11.675 15,12.5 C 15,13.325 14.55,14 14,14 C 13.45,14 13,13.325 13,12.5 z M 18.062231,7.9133399 C 17.274647,4.363253 16.076995,1.58304 15.188393,1.2420515 C 13.718348,0.67794256 5.3442255,2.0981532 1.75,3.5211377 C 0.41782652,4.0485565 -8.3408812e-16,3.7109172 -4.7357951e-16,2.1069888 C -2.3556151e-17,0.10480299 0.49740647,0 10,0 L 20,0 L 20,7 C 20,10.85 19.867824,14 19.706276,14 C 19.544728,14 18.804908,11.261003 18.062231,7.9133399 z M 4.125,9.125 C 4.5432458,7.8702625 6,7.5789117 6,8.75 C 6,9.1625 5.49375,9.66875 4.875,9.875 C 4.25625,10.08125 3.91875,9.74375 4.125,9.125 z "
       id="path2042" />
    <path
       style="fill:#ebd0d0"
       d="M 1.979944,17.475834 C 1.284224,16.637543 0.90865865,15.758008 1.1453542,15.521312 C 1.3820498,15.284617 2.1249884,15.970492 2.7963288,17.045478 C 4.2481421,19.370201 3.7639571,19.625438 1.979944,17.475834 z M 7.2708333,18.395833 C 7.603125,18.063542 8.465625,18.028015 9.1875,18.316886 C 9.9852327,18.636112 9.7482763,18.873069 8.5833333,18.921053 C 7.5291667,18.964474 6.9385417,18.728125 7.2708333,18.395833 z M 12.078947,12.583333 C 12.035526,11.529167 12.271875,10.938542 12.604167,11.270833 C 12.936458,11.603125 12.971985,12.465625 12.683114,13.1875 C 12.363888,13.985233 12.126931,13.748276 12.078947,12.583333 z M 18.157895,11 C 18.157895,9.625 18.384868,9.0625 18.662281,9.75 C 18.939693,10.4375 18.939693,11.5625 18.662281,12.25 C 18.384868,12.9375 18.157895,12.375 18.157895,11 z M 15.564293,2.2931281 C 15.021608,0.86792962 15.136472,0.75306606 16.124088,1.7333333 C 16.807506,2.4116667 17.114759,3.2185743 16.806872,3.5264614 C 16.498985,3.8343485 15.939824,3.2793485 15.564293,2.2931281 z "
       id="path2040" />
    <path
       style="fill:#d38e90"
       d="M 2.8724447,17.25 C 1.6798303,15.729301 1.6965437,15.646193 3,16.615727 C 3.825,17.229377 5.175,17.981351 6,18.28678 C 7.2547492,18.751309 7.2338938,18.855013 5.8724447,18.921053 C 4.9772893,18.964474 3.6272893,18.2125 2.8724447,17.25 z M 18.078947,14.583333 C 18.035526,13.529167 18.271875,12.938542 18.604167,13.270833 C 18.936458,13.603125 18.971985,14.465625 18.683114,15.1875 C 18.363888,15.985233 18.126931,15.748276 18.078947,14.583333 z M 13,14.606989 C 13,14.390833 13.698372,13.945987 14.551938,13.618443 C 15.441863,13.276947 15.84326,13.444594 15.492921,14.011454 C 14.905663,14.961658 13,15.416902 13,14.606989 z M 0.078947368,10.583333 C 0.035526316,9.5291667 0.271875,8.9385417 0.60416667,9.2708333 C 0.93645833,9.603125 0.97198465,10.465625 0.68311404,11.1875 C 0.36388767,11.985233 0.12693129,11.748276 0.078947368,10.583333 z M 14,11 C 13.098708,10.41754 12.975367,10.024514 13.690983,10.015313 C 14.346024,10.006891 15.160081,10.45 15.5,11 C 16.267305,12.241525 15.921123,12.241525 14,11 z M 3.4588815,9.9334688 C 2.4328182,8.2732636 3.3537685,8.0430445 4.7894266,9.6008592 C 5.4986112,10.370387 5.6376688,11 5.0984436,11 C 4.5592183,11 3.8214154,10.520061 3.4588815,9.9334688 z M 2,4 C 2.825,3.4668441 3.95,3.0306255 4.5,3.0306255 C 5.05,3.0306255 4.825,3.4668441 4,4 C 3.175,4.5331559 2.05,4.9693745 1.5,4.9693745 C 0.95,4.9693745 1.175,4.5331559 2,4 z M 11.75,1.3377193 C 12.4375,1.060307 13.5625,1.060307 14.25,1.3377193 C 14.9375,1.6151316 14.375,1.8421053 13,1.8421053 C 11.625,1.8421053 11.0625,1.6151316 11.75,1.3377193 z "
       id="path2038" />
    <path
       style="fill:#c96f6f"
       d="M 2.8724447,16.25 C 1.6285741,14.663944 1.6639444,14.628574 3.25,15.872445 C 4.2125,16.627289 5,17.414789 5,17.622445 C 5,18.445479 4.1788145,17.915748 2.8724447,16.25 z M 0.15789474,7 C 0.15789474,5.625 0.38486842,5.0625 0.6622807,5.75 C 0.93969298,6.4375 0.93969298,7.5625 0.6622807,8.25 C 0.38486842,8.9375 0.15789474,8.375 0.15789474,7 z "
       id="path2036" />
    <path
       style="fill:#ba494d"
       d="M 3.4049876,15.75 C 1.5153616,13.518144 1.5161278,13.513377 3.5,15.158825 C 4.6,16.071179 6.625,17.022397 8,17.272643 L 10.5,17.727636 L 7.9049876,17.863818 C 6.3212548,17.94693 4.567599,17.123172 3.4049876,15.75 z M 14.506219,15.350924 C 15.41321,14.443933 15.930757,12.843215 15.656322,11.793773 C 15.24964,10.238621 15.420241,10.10388 16.578674,11.065294 C 18.562535,12.711752 18.349952,14.742344 16.065741,15.964816 C 13.242577,17.475728 12.624654,17.232489 14.506219,15.350924 z M 1.0007062,5.8666314 C 0.99982086,5.0725974 5.2487382,3.9154048 5.8729965,4.5396632 C 6.1261818,4.7928484 5.6958333,5.0068907 4.9166667,5.0153128 C 3.7044183,5.028416 3.7024885,5.1588239 4.9032924,5.9190697 C 5.9073946,6.5547809 5.5520118,6.7637751 3.6539986,6.6537569 C 2.1950762,6.5691906 1.0010946,6.2149841 1.0007062,5.8666314 z M 15,4.6076497 C 15,3.6585237 14.641014,3.1038313 14.202254,3.375 C 13.763494,3.6461687 12.750994,3.4546171 11.952254,2.9493298 C 10.821817,2.2342088 11.005551,2.0272323 12.781385,2.0153128 C 14.996653,2.0004438 16.882065,4.4512684 15.623539,5.7097947 C 15.280592,6.052741 15,5.5567757 15,4.6076497 z "
       id="path2034" />
    <path
       style="fill:#af2a32"
       d="M 3.4944517,14.993869 C 0.93815281,12.169191 2.0261545,11.906584 4.7142666,14.699447 C 5.9321132,15.964751 6.5643576,17 6.1192542,17 C 5.6741507,17 4.4929896,16.097241 3.4944517,14.993869 z M 11.5,16 C 14.249085,14.818678 15.827966,14.818678 14,16 C 13.175,16.533156 11.825,16.944637 11,16.914402 C 10.010945,16.878155 10.18126,16.566682 11.5,16 z M 1,9.0351838 C 1,7.9545348 1.8637228,6.6081171 2.919384,6.0431444 C 4.7515995,5.0625724 4.7709807,5.1518041 3.3461421,8.0079606 C 1.6060044,11.496149 1,11.761479 1,9.0351838 z M 13.936576,5.4235783 C 12.969458,4.2582731 11.698769,4.0207407 9.0641309,4.512763 C 7.1038589,4.8788465 5.8247289,4.8510074 6.2216197,4.4508984 C 6.6185105,4.0507893 8.7131253,3.5973624 10.876319,3.4432831 C 14.048595,3.2173292 14.906443,3.5342349 15.31108,5.0815694 C 15.920463,7.4118523 15.643824,7.4806865 13.936576,5.4235783 z "
       id="path2032" />
    <path
       style="fill:#a41526"
       d="M 4.4545455,14.545455 C 1.7457614,11.83667 0.91446187,8.8541939 3.4561951,10.963645 C 4.2571024,11.628339 5.3932519,11.874991 5.9809717,11.51176 C 6.5686915,11.148529 6.9259037,11.222289 6.7747766,11.67567 C 6.6236495,12.129052 6.95,12.5 7.5,12.5 C 8.05,12.5 8.4039635,11.775475 8.2865855,10.889944 C 8.1692075,10.004413 9.1685158,8.2508645 10.507271,6.9931697 C 12.525579,5.0970673 13.202606,4.9232589 14.470685,5.9756707 C 16.688169,7.8160189 16.346108,9.8117429 13.75,10.180449 C 11.268902,10.532821 9.8522614,14.946275 12.180449,15.070285 C 13.711704,15.151847 10.134041,16.825029 8.2045455,16.929715 C 7.4920455,16.968372 5.8045455,15.895455 4.4545455,14.545455 z M 13.489919,7.9836881 C 13.144455,7.4247166 12.442898,7.2262742 11.930902,7.5427051 C 10.543858,8.399945 10.802491,9 12.559017,9 C 13.416476,9 13.835382,8.5426596 13.489919,7.9836881 z M 5,5.6165772 C 5,5.4056946 6.111382,5.0207002 7.4697377,4.761034 C 8.8280935,4.5013679 9.7015358,4.6739081 9.4107207,5.1444569 C 8.8986409,5.9730195 5,6.3903272 5,5.6165772 z "
       id="path2030" />
    <path
       style="fill:#9d1625"
       d="M 6.5965558,13.156231 C 6.250507,12.596312 6.4546556,11.837041 7.0502193,11.468963 C 8.5877038,10.518745 9.579687,11.820313 8.296201,13.103799 C 7.5780209,13.821979 7.0186752,13.839234 6.5965558,13.156231 z M 11,8.559017 C 11,7.5035422 12.919113,7.0601055 13.489919,7.9836881 C 13.835382,8.5426596 13.416476,9 12.559017,9 C 11.701558,9 11,8.8015576 11,8.559017 z M 7.6822102,7.3488769 C 6.87054,6.5372067 10.005283,4.0748052 11.904988,4.0318034 C 12.970699,4.0076799 12.872902,4.4829598 11.5,6 C 9.5876117,8.1131653 8.7444124,8.411079 7.6822102,7.3488769 z "
       id="path2028" />
  </g>
</svg>
