<?xml version="1.0" encoding="UTF-8" standalone="no"?>
<!-- Created with Inkscape (http://www.inkscape.org/) -->
<svg
   xmlns:dc="http://purl.org/dc/elements/1.1/"
   xmlns:cc="http://web.resource.org/cc/"
   xmlns:rdf="http://www.w3.org/1999/02/22-rdf-syntax-ns#"
   xmlns:svg="http://www.w3.org/2000/svg"
   xmlns="http://www.w3.org/2000/svg"
   xmlns:xlink="http://www.w3.org/1999/xlink"
   xmlns:sodipodi="http://sodipodi.sourceforge.net/DTD/sodipodi-0.dtd"
   xmlns:inkscape="http://www.inkscape.org/namespaces/inkscape"
   id="svg47"
   sodipodi:version="0.32"
   inkscape:version="0.44"
   width="20"
   height="20"
   version="1.0"
   sodipodi:docbase="/home/kde4/Developpements/C++/ksirk/ksirk/skins/default/Images"
   sodipodi:docname="reddice6.svg">
  <metadata
     id="metadata52">
    <rdf:RDF>
      <cc:Work
         rdf:about="">
        <dc:format>image/svg+xml</dc:format>
        <dc:type
           rdf:resource="http://purl.org/dc/dcmitype/StillImage" />
      </cc:Work>
    </rdf:RDF>
  </metadata>
  <defs
     id="defs50" />
  <sodipodi:namedview
     inkscape:window-height="582"
     inkscape:window-width="928"
     inkscape:pageshadow="2"
     inkscape:pageopacity="0.0"
     guidetolerance="10.0"
     gridtolerance="10.0"
     objecttolerance="10.0"
     borderopacity="1.0"
     bordercolor="#666666"
     pagecolor="#ffffff"
     id="base"
     inkscape:zoom="18.95"
     inkscape:cx="10"
     inkscape:cy="9.9736148"
     inkscape:window-x="666"
     inkscape:window-y="543"
     inkscape:current-layer="svg47" />
  <g
     id="g2008">
    <path
       style="fill:#fefdfd"
       d="M 0.067680281,17.25 C 0.1341433,14.54946 0.15487727,14.540467 1.2204946,16.75 C 2.5233017,19.45134 6.7443053,19.709864 14.75,17.578644 C 19.738337,16.250683 20,16.276195 20,18.090512 C 20,19.84253 19.175329,20 10,20 L 0,20 L 0.067680281,17.25 z M 18.081457,7 L 16.750361,1 L 13.034111,1 C 10.990174,1 7.2213429,1.6309594 4.6589309,2.4021321 C 0.25514525,3.7274767 3.2563396e-16,3.7000943 1.6740082e-16,1.9021321 C 1.4031073e-17,0.15943145 0.83817233,0 10,0 L 20,0 L 20,6.5 C 20,10.075 19.867824,13 19.706276,13 C 19.544728,13 18.813559,10.3 18.081457,7 z "
       id="path2024" />
    <path
       style="fill:#f5eae9"
       d="M 18.731213,14.919841 C 19.084822,13.567637 19.538115,13.114344 19.787763,13.86329 C 20.028244,14.584731 19.749552,15.650448 19.16845,16.23155 C 18.426382,16.973618 18.296239,16.583186 18.731213,14.919841 z "
       id="path2022" />
    <path
       style="fill:#ebd0d0"
       d="M 7.2708333,18.395833 C 7.603125,18.063542 8.465625,18.028015 9.1875,18.316886 C 9.9852327,18.636112 9.7482763,18.873069 8.5833333,18.921053 C 7.5291667,18.964474 6.9385417,18.728125 7.2708333,18.395833 z M 8,13 C 8,12.45 8.45,12 9,12 C 9.55,12 10,12.45 10,13 C 10,13.55 9.55,14 9,14 C 8.45,14 8,13.55 8,13 z M 18.078947,11.583333 C 18.035526,10.529167 18.271875,9.9385417 18.604167,10.270833 C 18.936458,10.603125 18.971985,11.465625 18.683114,12.1875 C 18.363888,12.985233 18.126931,12.748276 18.078947,11.583333 z M 15.564293,2.2931281 C 15.021608,0.86792962 15.136472,0.75306606 16.124088,1.7333333 C 16.807506,2.4116667 17.114759,3.2185743 16.806872,3.5264614 C 16.498985,3.8343485 15.939824,3.2793485 15.564293,2.2931281 z "
       id="path2020" />
    <path
       style="fill:#d38e90"
       d="M 3.1311207,17.657991 C 1.9632262,16.250764 2.576869,14.989307 4.4166667,15.015313 C 5.0125,15.023735 4.8358325,15.450626 4.0240722,15.963961 C 2.8188088,16.726136 3.0021947,17.078475 5.0240722,17.885262 C 6.5486051,18.493594 6.874599,18.897584 5.8724447,18.936614 C 4.9772893,18.971476 3.7436935,18.396096 3.1311207,17.657991 z M 18.078947,14.583333 C 18.035526,13.529167 18.271875,12.938542 18.604167,13.270833 C 18.936458,13.603125 18.971985,14.465625 18.683114,15.1875 C 18.363888,15.985233 18.126931,15.748276 18.078947,14.583333 z M 13.564293,12.706872 C 13.939824,11.720651 14.498985,11.165651 14.806872,11.473539 C 15.114759,11.781426 14.807506,12.588333 14.124088,13.266667 C 13.136472,14.246934 13.021608,14.13207 13.564293,12.706872 z M 0.078947368,10.583333 C 0.035526316,9.5291667 0.271875,8.9385417 0.60416667,9.2708333 C 0.93645833,9.603125 0.97198465,10.465625 0.68311404,11.1875 C 0.36388767,11.985233 0.12693129,11.748276 0.078947368,10.583333 z M 7.0833333,7.7393432 C 7.3125,7.595982 8.5898524,6.583482 9.9218943,5.4893432 C 11.253936,4.3952045 12.038632,4.0240654 11.665664,4.6645898 C 11.292695,5.3051142 11.327843,6.0188614 11.743769,6.2506948 C 12.159696,6.4825281 11.951911,6.540616 11.282025,6.3797789 C 10.612139,6.2189419 9.7980811,6.5176946 9.473008,7.0436739 C 9.1479349,7.5696533 8.3835237,8 7.7743163,8 C 7.165109,8 6.8541667,7.8827045 7.0833333,7.7393432 z M 2,4 C 2.825,3.4668441 3.95,3.0306255 4.5,3.0306255 C 5.05,3.0306255 4.825,3.4668441 4,4 C 3.175,4.5331559 2.05,4.9693745 1.5,4.9693745 C 0.95,4.9693745 1.175,4.5331559 2,4 z M 11.75,1.3377193 C 12.4375,1.060307 13.5625,1.060307 14.25,1.3377193 C 14.9375,1.6151316 14.375,1.8421053 13,1.8421053 C 11.625,1.8421053 11.0625,1.6151316 11.75,1.3377193 z "
       id="path2018" />
    <path
       style="fill:#c86f71"
       d="M 2.3875946,15.468792 C 1.4754133,14.076627 0.91098896,12.755678 1.1333182,12.533348 C 1.3556474,12.311019 2.295674,13.450063 3.2222663,15.064557 C 5.2859362,18.660294 4.6731893,18.95705 2.3875946,15.468792 z M 0.15789474,7 C 0.15789474,5.625 0.38486842,5.0625 0.6622807,5.75 C 0.93969298,6.4375 0.93969298,7.5625 0.6622807,8.25 C 0.38486842,8.9375 0.15789474,8.375 0.15789474,7 z "
       id="path2016" />
    <path
       style="fill:#ba484c"
       d="M 4.6118296,17.180944 C 4.3334172,16.730463 5.4318595,16.556538 7.0528126,16.794443 C 8.6737657,17.032349 10,17.400924 10,17.613499 C 10,18.37548 5.1073447,17.982704 4.6118296,17.180944 z M 14.75,15.779505 C 15.9875,15.182682 17.035526,13.975638 17.078947,13.097186 C 17.141112,11.839526 17.276652,11.80033 17.716547,12.9128 C 18.284804,14.349887 15.486186,17.055509 13.55887,16.93232 C 12.976492,16.895096 13.5125,16.376329 14.75,15.779505 z M 9,11.890355 C 7.7032709,10.957558 7.7206363,10.881286 9.128145,11.327523 C 10.023625,11.611426 11.287785,11.316375 11.937391,10.671855 C 12.843058,9.7732777 12.963125,9.9081017 12.452257,11.25 C 11.682764,13.27123 11.076066,13.383765 9,11.890355 z M 1,6.6880599 C 1,4.886218 5.0969285,3.6935786 6.4827533,5.0919989 C 7.1760059,5.7915524 6.9836904,5.9220539 5.8789389,5.5017353 C 4.9811276,5.1601502 3.5311132,5.611744 2.6289389,6.5139183 C 1.2832893,7.8595679 1,7.8898529 1,6.6880599 z M 14.984687,4.4166667 C 14.973586,3.0272081 14.743007,2.8568514 14.146416,3.7973344 C 13.489098,4.8335493 13.064987,4.7832308 12.039284,3.5473344 C 10.947939,2.2323437 11.078524,2 12.90894,2 C 15.025936,2 16.846008,4.4873257 15.623539,5.7097947 C 15.280592,6.052741 14.993109,5.4708333 14.984687,4.4166667 z "
       id="path2014" />
    <path
       style="fill:#ae2a34"
       d="M 5.8688793,15.657991 C 6.4814522,14.919886 6.6490523,13.947739 6.2413241,13.497665 C 5.8335958,13.047592 6.0428467,12.990907 6.7063261,13.3717 C 8.0665383,14.15237 7.3321182,17 5.7705665,17 C 5.1321306,17 5.1686323,16.501737 5.8688793,15.657991 z M 10.270833,16.395833 C 10.603125,16.063542 11.465625,16.028015 12.1875,16.316886 C 12.985233,16.636112 12.748276,16.873069 11.583333,16.921053 C 10.529167,16.964474 9.9385417,16.728125 10.270833,16.395833 z M 14.849881,14.680883 C 15.472903,13.930187 15.720304,13.053637 15.39966,12.732994 C 15.079017,12.41235 15.294237,11.328754 15.877927,10.325003 C 16.790182,8.756232 16.943452,8.9412814 16.969591,11.643011 C 16.989058,13.655118 16.409383,15.012663 15.358556,15.415903 C 14.061295,15.913709 13.954635,15.759588 14.849881,14.680883 z M 1,9.6563804 C 1,9.0203712 2.0820288,8.5 3.4045085,8.5 C 6.1824464,8.5 5.9613,9.5153517 3.0155838,10.285674 C 1.852941,10.589712 1,10.323412 1,9.6563804 z M 14.345077,5.4568719 C 14.019392,4.6081515 13.976364,3.6903031 14.249458,3.4172088 C 14.522552,3.1441145 14.986016,3.8385221 15.279377,4.9603368 C 15.902527,7.3432661 15.210154,7.7112284 14.345077,5.4568719 z M 7.5,4 C 8.6,3.5273138 10.175,3.1158329 11,3.085598 C 12.333333,3.0367336 12.333333,3.1383338 11,4 C 10.175,4.5331559 8.6,4.9446368 7.5,4.914402 C 5.5,4.8594295 5.5,4.8594295 7.5,4 z "
       id="path2012" />
    <path
       style="fill:#a51727"
       d="M 7,16.247932 C 7,15.746894 9.0690885,14.86348 11.597974,14.284788 C 15.347862,13.426692 15.947318,13.469315 14.847974,14.515871 C 13.163145,16.119799 7,17.480016 7,16.247932 z M 2.6666667,12.333333 C 2.3,11.966667 2,11.401517 2,11.077445 C 2,9.7091902 14.396772,5.7301053 15.432561,6.7658947 C 15.744653,7.077986 16,8.1162045 16,9.0730471 C 16,10.285751 15.42833,10.663266 14.112859,10.319262 C 13.074931,10.047838 11.93552,10.295314 11.580834,10.869208 C 11.226148,11.443102 10.320879,11.676627 9.5691256,11.388152 C 8.8173722,11.099678 7.9052258,11.344331 7.5421336,11.931826 C 6.8097251,13.116888 3.7058347,13.372501 2.6666667,12.333333 z "
       id="path2010" />
  </g>
</svg>
