<?xml version="1.0" encoding="UTF-8" standalone="no"?>
<!-- Created with Inkscape (http://www.inkscape.org/) -->
<svg
   xmlns:dc="http://purl.org/dc/elements/1.1/"
   xmlns:cc="http://web.resource.org/cc/"
   xmlns:rdf="http://www.w3.org/1999/02/22-rdf-syntax-ns#"
   xmlns:svg="http://www.w3.org/2000/svg"
   xmlns="http://www.w3.org/2000/svg"
   xmlns:sodipodi="http://sodipodi.sourceforge.net/DTD/sodipodi-0.dtd"
   xmlns:inkscape="http://www.inkscape.org/namespaces/inkscape"
   id="svg2"
   sodipodi:version="0.32"
   inkscape:version="0.44"
   width="256"
   height="92"
   version="1.0"
   sodipodi:docbase="/home/kde4/Developpements/C++/ksirk/ksirk/skins/default/Images/sprites"
   sodipodi:docname="firing.svg">
  <metadata
     id="metadata7">
    <rdf:RDF>
      <cc:Work
         rdf:about="">
        <dc:format>image/svg+xml</dc:format>
        <dc:type
           rdf:resource="http://purl.org/dc/dcmitype/StillImage" />
      </cc:Work>
    </rdf:RDF>
  </metadata>
  <defs
     id="defs5" />
  <sodipodi:namedview
     inkscape:window-height="582"
     inkscape:window-width="928"
     inkscape:pageshadow="2"
     inkscape:pageopacity="0.0"
     guidetolerance="10.0"
     gridtolerance="10.0"
     objecttolerance="10.0"
     borderopacity="1.0"
     bordercolor="#666666"
     pagecolor="#ffffff"
     id="base"
     inkscape:zoom="3.2890625"
     inkscape:cx="128"
     inkscape:cy="45.695962"
     inkscape:window-x="666"
     inkscape:window-y="0"
     inkscape:current-layer="g1905" />
  <g
     id="g1905">
    <path
       style="fill:#fefe00"
       d="M 83,50.5 C 80.525,49.782993 78.8375,49.152171 79.25,49.098175 C 79.6625,49.044179 80.3375,48.957029 80.75,48.904508 C 81.1625,48.851988 81.81844,48.29377 82.207644,47.664024 C 83.091764,46.233489 94.099409,45.79687 96.055414,47.114752 C 97.021123,47.765409 95.547102,47.863672 91.608874,47.411173 C 87.331195,46.919672 85.909501,47.044552 86.417891,47.867144 C 86.802969,48.490215 89.453976,49.030103 92.309017,49.066896 L 97.5,49.133791 L 93,50.551715 C 90.525,51.331573 88.275,51.932291 88,51.886644 C 87.725,51.840997 85.475,51.217007 83,50.5 z M 26.595012,48.828106 C 27.642756,47.633564 27.9375,46.985122 27.25,47.387123 C 26.5625,47.789124 26,47.672175 26,47.127237 C 26,46.582298 27.2375,46.299735 28.75,46.49932 C 30.2625,46.698904 31.8375,46.893205 32.25,46.9311 C 32.6625,46.968995 33,47.61875 33,48.375 C 33,49.13125 31.59375,50.03125 29.875,50.375 C 24.984403,51.353119 24.557071,51.151582 26.595012,48.828106 z M 154.59501,48.828106 C 155.64276,47.633564 155.9375,46.985122 155.25,47.387123 C 154.5625,47.789124 154,47.672175 154,47.127237 C 154,46.582298 155.2375,46.299735 156.75,46.49932 C 158.2625,46.698904 159.8375,46.893205 160.25,46.9311 C 160.6625,46.968995 161,47.61875 161,48.375 C 161,49.13125 159.59375,50.03125 157.875,50.375 C 152.9844,51.353119 152.55707,51.151582 154.59501,48.828106 z M 98.5,18.471998 L 94.5,17.153703 L 99.690983,17.076852 C 102.54602,17.034583 105.19703,16.490215 105.58211,15.867144 C 106.0905,15.044552 104.6688,14.919672 100.39113,15.411173 C 96.452898,15.863672 94.978877,15.765409 95.944586,15.114752 C 98.226666,13.577173 108.92328,14.257832 110.00588,16.009516 C 110.51252,16.829282 111.16846,17.3875 111.46353,17.25 C 111.75859,17.1125 112.3375,17.040238 112.75,17.089417 C 113.1625,17.138597 111.25,17.804917 108.5,18.570128 C 105.75,19.335339 103.275,19.922917 103,19.875857 C 102.725,19.828797 100.7,19.19706 98.5,18.471998 z M 33.25,18.294267 C 31.209898,17.901326 29.958554,15.095674 31.75,14.9311 C 32.1625,14.893205 33.7375,14.698904 35.25,14.49932 C 36.7625,14.299735 38,14.582298 38,15.127237 C 38,15.672175 37.4375,15.789124 36.75,15.387123 C 36.0625,14.985122 36.357244,15.633564 37.404988,16.828106 C 39.278304,18.963892 39.278304,18.997736 37.404988,18.863818 C 36.357244,18.788918 34.4875,18.53262 33.25,18.294267 z M 161.25,18.294267 C 159.2099,17.901326 157.95855,15.095674 159.75,14.9311 C 160.1625,14.893205 161.7375,14.698904 163.25,14.49932 C 164.7625,14.299735 166,14.582298 166,15.127237 C 166,15.672175 165.4375,15.789124 164.75,15.387123 C 164.0625,14.985122 164.35724,15.633564 165.40499,16.828106 C 167.2783,18.963892 167.2783,18.997736 165.40499,18.863818 C 164.35724,18.788918 162.4875,18.53262 161.25,18.294267 z "
       id="path1919" />
    <path
       style="fill:#979797"
       d="M 222.07895,50.202034 C 222.03553,49.488153 220.7625,47.814873 219.25,46.483635 C 217.7375,45.152397 217.0625,44.048982 217.75,44.031601 C 218.4375,44.014221 219,44.476558 219,45.059017 C 219,45.641476 219.45,45.839919 220,45.5 C 220.55,45.160081 221,45.362337 221,45.949457 C 221,46.664286 221.62777,46.624901 222.90022,45.83024 C 223.94534,45.177551 224.57319,44.051323 224.29544,43.32751 C 224.01768,42.603697 223.481,42.202727 223.1028,42.436466 C 222.7246,42.670204 222.34972,41.992619 222.26973,40.930722 C 222.18974,39.868825 222.57289,39 223.12117,39 C 223.66944,39 223.79266,39.526472 223.39497,40.169939 C 222.91094,40.95312 223.21399,41.131863 224.31169,40.710636 C 225.64316,40.1997 225.88668,40.637784 225.6069,43.040697 C 225.351,45.238581 225.67886,46.00394 226.88117,46.015313 C 228.29164,46.028655 228.30693,46.155395 227,47 C 226.09871,47.58246 225.97537,47.975486 226.69098,47.984687 C 227.34602,47.993109 228.16008,47.55 228.5,47 C 229.18324,45.894495 234.24889,45.692026 237.75,46.630286 C 241.99761,47.768602 239.99256,48.565554 232.96347,48.532795 C 227.87421,48.509075 225.67521,48.092651 225.01727,47.028025 C 224.21636,45.732059 224.05084,45.732059 223.63302,47.028025 C 222.29378,51.182 222.1557,51.463992 222.07895,50.202034 z M 33.493457,49.160124 C 32.436553,48.10322 33.082454,47.000721 34.75,47.015313 C 36.245547,47.028399 36.281897,47.171574 35,48 C 34.098708,48.58246 33.975367,48.975486 34.690983,48.984687 C 35.346024,48.993109 36.160081,48.55 36.5,48 C 37.538686,46.31937 48,47.110755 48,48.86996 C 48,49.614462 34.223359,49.890025 33.493457,49.160124 z M 97.493457,49.160124 C 96.436553,48.10322 97.082454,47.000721 98.75,47.015313 C 100.24555,47.028399 100.2819,47.171574 99,48 C 98.098708,48.58246 97.975367,48.975486 98.690983,48.984687 C 99.346024,48.993109 100.16008,48.55 100.5,48 C 101.53869,46.31937 112,47.110755 112,48.86996 C 112,49.614462 98.223359,49.890025 97.493457,49.160124 z M 161.49346,49.160124 C 160.43655,48.10322 161.08245,47.000721 162.75,47.015313 C 164.24555,47.028399 164.2819,47.171574 163,48 C 162.09871,48.58246 161.97537,48.975486 162.69098,48.984687 C 163.34602,48.993109 164.16008,48.55 164.5,48 C 165.53869,46.31937 176,47.110755 176,48.86996 C 176,49.614462 162.22336,49.890025 161.49346,49.160124 z M 46,46.606989 C 46,46.390833 46.698372,45.945987 47.551938,45.618443 C 48.441863,45.276947 48.84326,45.444594 48.492921,46.011454 C 47.905663,46.961658 46,47.416902 46,46.606989 z M 110,46.606989 C 110,46.390833 110.69837,45.945987 111.55194,45.618443 C 112.44186,45.276947 112.84326,45.444594 112.49292,46.011454 C 111.90566,46.961658 110,47.416902 110,46.606989 z M 174,46.606989 C 174,46.390833 174.69837,45.945987 175.55194,45.618443 C 176.44186,45.276947 176.84326,45.444594 176.49292,46.011454 C 175.90566,46.961658 174,47.416902 174,46.606989 z M 238,45.606989 C 238,45.390833 238.69837,44.945987 239.55194,44.618443 C 240.44186,44.276947 240.84326,44.444594 240.49292,45.011454 C 239.90566,45.961658 238,46.416902 238,45.606989 z M 228.72996,44.356763 C 228.44394,43.885543 228.83769,42.919758 229.60496,42.210573 C 231.15089,40.781682 231.44674,41.746618 230.10969,43.856763 C 229.63686,44.602982 229.01598,44.827982 228.72996,44.356763 z M 233,40.059017 C 233,39.476558 233.45,39 234,39 C 235.28138,39 235.28138,39.708061 234,40.5 C 233.45,40.839919 233,40.641476 233,40.059017 z M 225.07895,18.309017 C 224.98846,15.797872 223.37735,14.367882 222.75212,16.243769 C 222.31285,17.561704 208,18.197837 208,16.899426 C 208,15.116729 218.44903,14.2995 219.5,16 C 219.83992,16.55 220.65398,16.993109 221.30902,16.984687 C 222.02463,16.975486 221.90129,16.58246 221,16 C 219.69307,15.155395 219.70836,15.028655 221.11883,15.015313 C 222.32114,15.00394 222.649,14.238581 222.3931,12.040697 C 222.11332,9.6377836 222.35684,9.1997004 223.68831,9.710636 C 224.78601,10.131863 225.08906,9.95312 224.60503,9.1699387 C 224.20734,8.5264724 224.33056,8 224.87883,8 C 225.42711,8 225.81026,8.8688249 225.73027,9.9307219 C 225.65028,10.992619 225.2754,11.670204 224.8972,11.436466 C 224.519,11.202727 223.98232,11.603697 223.70456,12.32751 C 223.42681,13.051323 224.05466,14.177551 225.09978,14.83024 C 226.37223,15.624901 227,15.664286 227,14.949457 C 227,14.362337 227.45,14.160081 228,14.5 C 228.55,14.839919 229,14.641476 229,14.059017 C 229,13.476558 229.5625,13.014221 230.25,13.031601 C 230.9375,13.048982 230.32516,14.098498 228.88925,15.36386 C 227.45333,16.629222 226.02636,18.302501 225.71819,19.082259 C 225.365,19.975943 225.12871,19.690121 225.07895,18.309017 z M 16,16.899426 C 16,15.116729 26.449033,14.2995 27.5,16 C 27.839919,16.55 28.653976,16.993109 29.309017,16.984687 C 30.024633,16.975486 29.901292,16.58246 29,16 C 27.73217,15.180666 27.783764,15.028255 29.333333,15.015313 C 30.359753,15.00674 30.983295,15.550169 30.750042,16.25 C 30.312615,17.562411 16,18.192577 16,16.899426 z M 80,16.899426 C 80,15.116729 90.449033,14.2995 91.5,16 C 91.839919,16.55 92.653976,16.993109 93.309017,16.984687 C 94.024633,16.975486 93.901292,16.58246 93,16 C 91.73217,15.180666 91.783764,15.028255 93.333333,15.015313 C 94.359753,15.00674 94.983295,15.550169 94.750042,16.25 C 94.312615,17.562411 80,18.192577 80,16.899426 z M 144,16.899426 C 144,15.116729 154.44903,14.2995 155.5,16 C 155.83992,16.55 156.65398,16.993109 157.30902,16.984687 C 158.02463,16.975486 157.90129,16.58246 157,16 C 155.73217,15.180666 155.78376,15.028255 157.33333,15.015313 C 158.35975,15.00674 158.9833,15.550169 158.75004,16.25 C 158.31261,17.562411 144,18.192577 144,16.899426 z M 15.507079,14.011454 C 15.15674,13.444594 15.558137,13.276947 16.448062,13.618443 C 18.180479,14.283234 18.497449,15 17.059017,15 C 16.541476,15 15.843104,14.555154 15.507079,14.011454 z M 79.507079,14.011454 C 79.15674,13.444594 79.558137,13.276947 80.448062,13.618443 C 82.180479,14.283234 82.497449,15 81.059017,15 C 80.541476,15 79.843104,14.555154 79.507079,14.011454 z M 143.50708,14.011454 C 143.15674,13.444594 143.55814,13.276947 144.44806,13.618443 C 146.18048,14.283234 146.49745,15 145.05902,15 C 144.54148,15 143.8431,14.555154 143.50708,14.011454 z M 207.50708,14.011454 C 207.15674,13.444594 207.55814,13.276947 208.44806,13.618443 C 210.18048,14.283234 210.49745,15 209.05902,15 C 208.54148,15 207.8431,14.555154 207.50708,14.011454 z M 217.58125,12.351128 C 216.75407,10.195541 217.20588,9.8824023 218.74004,11.547995 C 219.42207,12.288447 219.58172,13.140476 219.09483,13.441392 C 218.60794,13.742309 217.92682,13.25169 217.58125,12.351128 z M 213.5,9 C 213.16008,8.45 213.35852,8 213.94098,8 C 214.52344,8 215,8.45 215,9 C 215,10.281385 214.29194,10.281385 213.5,9 z "
       id="path1917" />
    <path
       style="fill:#676767"
       d="M 47.533665,49.772865 C 47.918559,48.769848 47.338666,48.055422 45.806558,47.645076 C 42.255229,46.693922 37.187761,46.887179 36.5,48 C 36.160081,48.55 35.346024,48.964474 34.690983,48.921053 C 33.939123,48.871214 34.002603,48.642228 34.863153,48.300002 C 36.014023,47.84232 36.014023,47.623405 34.863153,46.894262 C 34.003899,46.349875 35.595296,46.024965 39.168213,46.015313 C 42.285729,46.006891 45.660729,45.73255 46.668213,45.405668 C 48.228742,44.899346 48.277875,44.986234 47,45.992414 C 45.749817,46.976791 45.874726,47.091366 47.75,46.680366 C 50.37363,46.105352 50.805178,48.086872 48.477108,50.018999 C 47.217194,51.064634 47.054277,51.022131 47.533665,49.772865 z M 111.53367,49.772865 C 111.91856,48.769848 111.33867,48.055422 109.80656,47.645076 C 106.25523,46.693922 101.18776,46.887179 100.5,48 C 100.16008,48.55 99.346024,48.964474 98.690983,48.921053 C 97.939123,48.871214 98.002603,48.642228 98.863153,48.300002 C 100.01402,47.84232 100.01402,47.623405 98.863153,46.894262 C 98.003899,46.349875 99.595296,46.024965 103.16821,46.015313 C 106.28573,46.006891 109.66073,45.73255 110.66821,45.405668 C 112.22874,44.899346 112.27787,44.986234 111,45.992414 C 109.74982,46.976791 109.87473,47.091366 111.75,46.680366 C 114.37363,46.105352 114.80518,48.086872 112.47711,50.018999 C 111.21719,51.064634 111.05428,51.022131 111.53367,49.772865 z M 175.53367,49.772865 C 175.91856,48.769848 175.33867,48.055422 173.80656,47.645076 C 170.25523,46.693922 165.18776,46.887179 164.5,48 C 164.16008,48.55 163.34602,48.964474 162.69098,48.921053 C 161.93912,48.871214 162.0026,48.642228 162.86315,48.300002 C 164.01402,47.84232 164.01402,47.623405 162.86315,46.894262 C 162.0039,46.349875 163.5953,46.024965 167.16821,46.015313 C 170.28573,46.006891 173.66073,45.73255 174.66821,45.405668 C 176.22874,44.899346 176.27787,44.986234 175,45.992414 C 173.74982,46.976791 173.87473,47.091366 175.75,46.680366 C 178.37363,46.105352 178.80518,48.086872 176.47711,50.018999 C 175.21719,51.064634 175.05428,51.022131 175.53367,49.772865 z M 239.53367,48.772865 C 239.91856,47.769848 239.33867,47.055422 237.80656,46.645076 C 234.25523,45.693922 229.18776,45.887179 228.5,47 C 228.16008,47.55 227.34602,47.964474 226.69098,47.921053 C 225.93912,47.871214 226.0026,47.642228 226.86315,47.300002 C 228.01402,46.84232 228.01402,46.623405 226.86315,45.894262 C 226.0039,45.349875 227.5953,45.024965 231.16821,45.015313 C 234.28573,45.006891 237.66073,44.73255 238.66821,44.405668 C 240.22874,43.899346 240.27787,43.986234 239,44.992414 C 237.74982,45.976791 237.87473,46.091366 239.75,45.680366 C 242.37363,45.105352 242.80518,47.086872 240.47711,49.018999 C 239.21719,50.064634 239.05428,50.022131 239.53367,48.772865 z M 15.2,17.8 C 13.21891,15.81891 13.784026,14.139905 16.25,14.680366 C 18.125274,15.091366 18.250183,14.976791 17,13.992414 C 15.722125,12.986234 15.771258,12.899346 17.331787,13.405668 C 18.339271,13.73255 21.714271,14.035526 24.831787,14.078947 C 27.949304,14.122368 29.886581,14.401841 29.136847,14.699998 C 27.985977,15.15768 27.985977,15.376595 29.136847,16.105738 C 30.044171,16.68058 30.101743,16.974495 29.309017,16.984687 C 28.653976,16.993109 27.839919,16.55 27.5,16 C 26.120582,13.768055 15.527632,15.326646 16.412058,17.631422 C 17.058106,19.314997 16.756891,19.356891 15.2,17.8 z M 79.2,17.8 C 77.21891,15.81891 77.784026,14.139905 80.25,14.680366 C 82.125274,15.091366 82.250183,14.976791 81,13.992414 C 79.722125,12.986234 79.771258,12.899346 81.331787,13.405668 C 82.339271,13.73255 85.714271,14.035526 88.831787,14.078947 C 91.949304,14.122368 93.886581,14.401841 93.136847,14.699998 C 91.985977,15.15768 91.985977,15.376595 93.136847,16.105738 C 94.044171,16.68058 94.101743,16.974495 93.309017,16.984687 C 92.653976,16.993109 91.839919,16.55 91.5,16 C 90.120582,13.768055 79.527632,15.326646 80.412058,17.631422 C 81.058106,19.314997 80.756891,19.356891 79.2,17.8 z M 143.2,17.8 C 141.21891,15.81891 141.78403,14.139905 144.25,14.680366 C 146.12527,15.091366 146.25018,14.976791 145,13.992414 C 143.72213,12.986234 143.77126,12.899346 145.33179,13.405668 C 146.33927,13.73255 149.71427,14.035526 152.83179,14.078947 C 155.9493,14.122368 157.88658,14.401841 157.13685,14.699998 C 155.98598,15.15768 155.98598,15.376595 157.13685,16.105738 C 158.04417,16.68058 158.10174,16.974495 157.30902,16.984687 C 156.65398,16.993109 155.83992,16.55 155.5,16 C 154.12058,13.768055 143.52763,15.326646 144.41206,17.631422 C 145.05811,19.314997 144.75689,19.356891 143.2,17.8 z M 207.2,17.8 C 205.21891,15.81891 205.78403,14.139905 208.25,14.680366 C 210.12527,15.091366 210.25018,14.976791 209,13.992414 C 207.72213,12.986234 207.77126,12.899346 209.33179,13.405668 C 210.33927,13.73255 213.71427,14.035526 216.83179,14.078947 C 219.9493,14.122368 221.88658,14.401841 221.13685,14.699998 C 219.98598,15.15768 219.98598,15.376595 221.13685,16.105738 C 222.04417,16.68058 222.10174,16.974495 221.30902,16.984687 C 220.65398,16.993109 219.83992,16.55 219.5,16 C 218.12058,13.768055 207.52763,15.326646 208.41206,17.631422 C 209.05811,19.314997 208.75689,19.356891 207.2,17.8 z "
       id="path1915" />
    <path
       style="fill:#7f7f00"
       d="M 42.362278,58.304389 C 43.427397,57.239269 46.085562,57.052541 45.445746,58.087785 C 45.135667,58.589503 44.158524,59 43.274316,59 C 42.390109,59 41.979692,58.686975 42.362278,58.304389 z M 106.36228,58.304389 C 107.4274,57.239269 110.08556,57.052541 109.44575,58.087785 C 109.13567,58.589503 108.15852,59 107.27432,59 C 106.39011,59 105.97969,58.686975 106.36228,58.304389 z M 170.36228,58.304389 C 171.4274,57.239269 174.08556,57.052541 173.44575,58.087785 C 173.13567,58.589503 172.15852,59 171.27432,59 C 170.39011,59 169.97969,58.686975 170.36228,58.304389 z M 234.36228,57.304389 C 235.4274,56.239269 238.08556,56.052541 237.44575,57.087785 C 237.13567,57.589503 236.15852,58 235.27432,58 C 234.39011,58 233.97969,57.686975 234.36228,57.304389 z M 39,54.5 C 39,53.675 39.375,53 39.833333,53 C 40.291667,53 40.666667,53.675 40.666667,54.5 C 40.666667,55.325 40.291667,56 39.833333,56 C 39.375,56 39,55.325 39,54.5 z M 103,54.5 C 103,53.675 103.375,53 103.83333,53 C 104.29167,53 104.66667,53.675 104.66667,54.5 C 104.66667,55.325 104.29167,56 103.83333,56 C 103.375,56 103,55.325 103,54.5 z M 167,54.5 C 167,53.675 167.375,53 167.83333,53 C 168.29167,53 168.66667,53.675 168.66667,54.5 C 168.66667,55.325 168.29167,56 167.83333,56 C 167.375,56 167,55.325 167,54.5 z M 231,53.5 C 231,52.675 231.375,52 231.83333,52 C 232.29167,52 232.66667,52.675 232.66667,53.5 C 232.66667,54.325 232.29167,55 231.83333,55 C 231.375,55 231,54.325 231,53.5 z M 51,51.5 C 50.139896,50.463637 50.102049,50 50.877555,50 C 51.4949,50 52,50.476558 52,51.059017 C 52,51.641476 52.418906,51.859136 52.930902,51.542705 C 53.442898,51.226274 54.144455,51.424717 54.489919,51.983688 C 55.485109,53.59394 52.380738,53.163687 51,51.5 z M 115,51.5 C 114.1399,50.463637 114.10205,50 114.87756,50 C 115.4949,50 116,50.476558 116,51.059017 C 116,51.641476 116.41891,51.859136 116.9309,51.542705 C 117.4429,51.226274 118.14446,51.424717 118.48992,51.983688 C 119.48511,53.59394 116.38074,53.163687 115,51.5 z M 179,51.5 C 178.1399,50.463637 178.10205,50 178.87756,50 C 179.4949,50 180,50.476558 180,51.059017 C 180,51.641476 180.41891,51.859136 180.9309,51.542705 C 181.4429,51.226274 182.14446,51.424717 182.48992,51.983688 C 183.48511,53.59394 180.38074,53.163687 179,51.5 z M 45.489919,50.983688 C 45.144455,50.424717 44.473992,50.207057 44,50.5 C 43.526008,50.792943 42.879959,50.614787 42.564335,50.104097 C 41.752601,48.790683 44.776224,49.376224 46.210123,50.810123 C 46.864555,51.464555 47.111558,52 46.759017,52 C 46.406476,52 45.835382,51.54266 45.489919,50.983688 z M 109.48992,50.983688 C 109.14446,50.424717 108.47399,50.207057 108,50.5 C 107.52601,50.792943 106.87996,50.614787 106.56434,50.104097 C 105.7526,48.790683 108.77622,49.376224 110.21012,50.810123 C 110.86456,51.464555 111.11156,52 110.75902,52 C 110.40648,52 109.83538,51.54266 109.48992,50.983688 z M 173.48992,50.983688 C 173.14446,50.424717 172.47399,50.207057 172,50.5 C 171.52601,50.792943 170.87996,50.614787 170.56434,50.104097 C 169.7526,48.790683 172.77622,49.376224 174.21012,50.810123 C 174.86456,51.464555 175.11156,52 174.75902,52 C 174.40648,52 173.83538,51.54266 173.48992,50.983688 z M 243,50.5 C 242.1399,49.463637 242.10205,49 242.87756,49 C 243.4949,49 244,49.476558 244,50.059017 C 244,50.641476 244.41891,50.859136 244.9309,50.542705 C 245.4429,50.226274 246.14446,50.424717 246.48992,50.983688 C 247.48511,52.59394 244.38074,52.163687 243,50.5 z M 237.48992,49.983688 C 237.14446,49.424717 236.47399,49.207057 236,49.5 C 235.52601,49.792943 234.87996,49.614787 234.56434,49.104097 C 233.7526,47.790683 236.77622,48.376224 238.21012,49.810123 C 238.86456,50.464555 239.11156,51 238.75902,51 C 238.40648,51 237.83538,50.54266 237.48992,49.983688 z M 18.554254,26.087785 C 18.244175,25.586066 18.654592,25.273041 19.466293,25.392174 C 21.607518,25.706439 22.620749,27 20.725684,27 C 19.841476,27 18.864333,26.589503 18.554254,26.087785 z M 82.554254,26.087785 C 82.244175,25.586066 82.654592,25.273041 83.466293,25.392174 C 85.607518,25.706439 86.620749,27 84.725684,27 C 83.841476,27 82.864333,26.589503 82.554254,26.087785 z M 146.55425,26.087785 C 146.24417,25.586066 146.65459,25.273041 147.46629,25.392174 C 149.60752,25.706439 150.62075,27 148.72568,27 C 147.84148,27 146.86433,26.589503 146.55425,26.087785 z M 210.55425,26.087785 C 210.24417,25.586066 210.65459,25.273041 211.46629,25.392174 C 213.60752,25.706439 214.62075,27 212.72568,27 C 211.84148,27 210.86433,26.589503 210.55425,26.087785 z M 23.333333,22.5 C 23.333333,21.675 23.708333,21 24.166667,21 C 24.625,21 25,21.675 25,22.5 C 25,23.325 24.625,24 24.166667,24 C 23.708333,24 23.333333,23.325 23.333333,22.5 z M 87.333333,22.5 C 87.333333,21.675 87.708333,21 88.166667,21 C 88.625,21 89,21.675 89,22.5 C 89,23.325 88.625,24 88.166667,24 C 87.708333,24 87.333333,23.325 87.333333,22.5 z M 151.33333,22.5 C 151.33333,21.675 151.70833,21 152.16667,21 C 152.625,21 153,21.675 153,22.5 C 153,23.325 152.625,24 152.16667,24 C 151.70833,24 151.33333,23.325 151.33333,22.5 z M 215.33333,22.5 C 215.33333,21.675 215.70833,21 216.16667,21 C 216.625,21 217,21.675 217,22.5 C 217,23.325 216.625,24 216.16667,24 C 215.70833,24 215.33333,23.325 215.33333,22.5 z M 9.5100813,19.983688 C 9.8555447,19.424717 10.557102,19.226274 11.069098,19.542705 C 11.581094,19.859136 12,19.641476 12,19.059017 C 12,18.476558 12.5051,18 13.122445,18 C 13.897951,18 13.860104,18.463637 13,19.5 C 11.619262,21.163687 8.514891,21.59394 9.5100813,19.983688 z M 73.510081,19.983688 C 73.855545,19.424717 74.557102,19.226274 75.069098,19.542705 C 75.581094,19.859136 76,19.641476 76,19.059017 C 76,18.476558 76.5051,18 77.122445,18 C 77.897951,18 77.860104,18.463637 77,19.5 C 75.619262,21.163687 72.514891,21.59394 73.510081,19.983688 z M 137.51008,19.983688 C 137.85554,19.424717 138.5571,19.226274 139.0691,19.542705 C 139.58109,19.859136 140,19.641476 140,19.059017 C 140,18.476558 140.5051,18 141.12244,18 C 141.89795,18 141.8601,18.463637 141,19.5 C 139.61926,21.163687 136.51489,21.59394 137.51008,19.983688 z M 201.51008,19.983688 C 201.85554,19.424717 202.5571,19.226274 203.0691,19.542705 C 203.58109,19.859136 204,19.641476 204,19.059017 C 204,18.476558 204.5051,18 205.12244,18 C 205.89795,18 205.8601,18.463637 205,19.5 C 203.61926,21.163687 200.51489,21.59394 201.51008,19.983688 z M 17.739877,18.956827 C 18.42181,18.221707 19.700544,17.514456 20.581509,17.385158 C 21.462473,17.25586 21.879529,17.453805 21.508298,17.825035 C 21.137067,18.196266 20.533333,18.506891 20.166667,18.515313 C 19.8,18.523735 18.825,18.927252 18,19.412017 C 16.784287,20.126363 16.734987,20.040094 17.739877,18.956827 z M 81.739877,18.956827 C 82.42181,18.221707 83.700544,17.514456 84.581509,17.385158 C 85.462473,17.25586 85.879529,17.453805 85.508298,17.825035 C 85.137067,18.196266 84.533333,18.506891 84.166667,18.515313 C 83.8,18.523735 82.825,18.927252 82,19.412017 C 80.784287,20.126363 80.734987,20.040094 81.739877,18.956827 z M 145.73988,18.956827 C 146.42181,18.221707 147.70054,17.514456 148.58151,17.385158 C 149.46247,17.25586 149.87953,17.453805 149.5083,17.825035 C 149.13707,18.196266 148.53333,18.506891 148.16667,18.515313 C 147.8,18.523735 146.825,18.927252 146,19.412017 C 144.78429,20.126363 144.73499,20.040094 145.73988,18.956827 z M 209.73988,18.956827 C 210.42181,18.221707 211.70054,17.514456 212.58151,17.385158 C 213.46247,17.25586 213.87953,17.453805 213.5083,17.825035 C 213.13707,18.196266 212.53333,18.506891 212.16667,18.515313 C 211.8,18.523735 210.825,18.927252 210,19.412017 C 208.78429,20.126363 208.73499,20.040094 209.73988,18.956827 z "
       id="path1913" />
    <path
       style="fill:#97471b"
       d="M 41,58.2 C 41,57.54 41.45,57 42,57 C 43.782593,57 43.056375,55.002042 41.25,54.936614 C 39.980082,54.890616 40.157076,54.610391 41.895184,53.915131 C 43.212535,53.388178 44.525035,53.191702 44.811851,53.478517 C 45.098666,53.765333 44.792501,54 44.131483,54 C 43.247111,54 43.207114,54.518479 43.980071,55.962762 C 44.645126,57.20543 45.666948,57.721138 46.765254,57.368429 C 48.197135,56.908597 48.243974,56.992406 47.033538,57.848465 C 46.13258,58.485653 45.140063,58.531205 44.459745,57.966591 C 43.770261,57.39437 42.908575,57.491425 42.176206,58.223794 C 41.274598,59.125402 41,59.119847 41,58.2 z M 105,58.2 C 105,57.54 105.45,57 106,57 C 107.78259,57 107.05637,55.002042 105.25,54.936614 C 103.98008,54.890616 104.15708,54.610391 105.89518,53.915131 C 107.21253,53.388178 108.52503,53.191702 108.81185,53.478517 C 109.09867,53.765333 108.7925,54 108.13148,54 C 107.24711,54 107.20711,54.518479 107.98007,55.962762 C 108.64513,57.20543 109.66695,57.721138 110.76525,57.368429 C 112.19713,56.908597 112.24397,56.992406 111.03354,57.848465 C 110.13258,58.485653 109.14006,58.531205 108.45974,57.966591 C 107.77026,57.39437 106.90858,57.491425 106.17621,58.223794 C 105.2746,59.125402 105,59.119847 105,58.2 z M 169,58.2 C 169,57.54 169.45,57 170,57 C 171.78259,57 171.05637,55.002042 169.25,54.936614 C 167.98008,54.890616 168.15708,54.610391 169.89518,53.915131 C 171.21253,53.388178 172.52503,53.191702 172.81185,53.478517 C 173.09867,53.765333 172.7925,54 172.13148,54 C 171.24711,54 171.20711,54.518479 171.98007,55.962762 C 172.64513,57.20543 173.66695,57.721138 174.76525,57.368429 C 176.19713,56.908597 176.24397,56.992406 175.03354,57.848465 C 174.13258,58.485653 173.14006,58.531205 172.45974,57.966591 C 171.77026,57.39437 170.90858,57.491425 170.17621,58.223794 C 169.2746,59.125402 169,59.119847 169,58.2 z M 233,57.2 C 233,56.54 233.45,56 234,56 C 235.78259,56 235.05637,54.002042 233.25,53.936614 C 231.98008,53.890616 232.15708,53.610391 233.89518,52.915131 C 235.21253,52.388178 236.52503,52.191702 236.81185,52.478517 C 237.09867,52.765333 236.7925,53 236.13148,53 C 235.24711,53 235.20711,53.518479 235.98007,54.962762 C 236.64513,56.20543 237.66695,56.721138 238.76525,56.368429 C 240.19713,55.908597 240.24397,55.992406 239.03354,56.848465 C 238.13258,57.485653 237.14006,57.531205 236.45974,56.966591 C 235.77026,56.39437 234.90858,56.491425 234.17621,57.223794 C 233.2746,58.125402 233,58.119847 233,57.2 z M 43.25,52.276604 C 41.4625,52.054778 40,51.425237 40,50.877625 C 40,50.330012 40.418906,50.140864 40.930902,50.457295 C 41.442898,50.773726 42.162572,50.545969 42.530179,49.951169 C 42.981009,49.221711 43.762252,49.379854 44.930429,50.437039 C 45.88296,51.299068 46.963285,51.703382 47.331152,51.335515 C 47.699018,50.967648 48,51.191667 48,51.833333 C 48,52.475 47.6625,52.927983 47.25,52.839963 C 46.8375,52.751943 45.0375,52.498431 43.25,52.276604 z M 54.5,52 C 54.160081,51.45 54.358524,51 54.940983,51 C 55.523442,51 56,51.45 56,52 C 56,53.281385 55.291939,53.281385 54.5,52 z M 107.25,52.276604 C 105.4625,52.054778 104,51.425237 104,50.877625 C 104,50.330012 104.41891,50.140864 104.9309,50.457295 C 105.4429,50.773726 106.16257,50.545969 106.53018,49.951169 C 106.98101,49.221711 107.76225,49.379854 108.93043,50.437039 C 109.88296,51.299068 110.96328,51.703382 111.33115,51.335515 C 111.69902,50.967648 112,51.191667 112,51.833333 C 112,52.475 111.6625,52.927983 111.25,52.839963 C 110.8375,52.751943 109.0375,52.498431 107.25,52.276604 z M 118.5,52 C 118.16008,51.45 118.35852,51 118.94098,51 C 119.52344,51 120,51.45 120,52 C 120,53.281385 119.29194,53.281385 118.5,52 z M 171.25,52.276604 C 169.4625,52.054778 168,51.425237 168,50.877625 C 168,50.330012 168.41891,50.140864 168.9309,50.457295 C 169.4429,50.773726 170.16257,50.545969 170.53018,49.951169 C 170.98101,49.221711 171.76225,49.379854 172.93043,50.437039 C 173.88296,51.299068 174.96328,51.703382 175.33115,51.335515 C 175.69902,50.967648 176,51.191667 176,51.833333 C 176,52.475 175.6625,52.927983 175.25,52.839963 C 174.8375,52.751943 173.0375,52.498431 171.25,52.276604 z M 182.5,52 C 182.16008,51.45 182.35852,51 182.94098,51 C 183.52344,51 184,51.45 184,52 C 184,53.281385 183.29194,53.281385 182.5,52 z M 235.25,51.276604 C 233.4625,51.054778 232,50.425237 232,49.877625 C 232,49.330012 232.41891,49.140864 232.9309,49.457295 C 233.4429,49.773726 234.16257,49.545969 234.53018,48.951169 C 234.98101,48.221711 235.76225,48.379854 236.93043,49.437039 C 237.88296,50.299068 238.96328,50.703382 239.33115,50.335515 C 239.69902,49.967648 240,50.191667 240,50.833333 C 240,51.475 239.6625,51.927983 239.25,51.839963 C 238.8375,51.751943 237.0375,51.498431 235.25,51.276604 z M 246.5,51 C 246.16008,50.45 246.35852,50 246.94098,50 C 247.52344,50 248,50.45 248,51 C 248,52.281385 247.29194,52.281385 246.5,51 z M 86.5,48 C 85.790539,46.852068 89.988694,46.852068 94.5,48 C 97.076673,48.655652 96.767506,48.780066 92.309017,48.881685 C 89.453976,48.946758 86.839919,48.55 86.5,48 z M 16.991641,25.864027 C 15.740939,24.981373 15.780207,24.901321 17.234746,25.368429 C 18.333052,25.721138 19.354874,25.20543 20.019929,23.962762 C 20.792886,22.518479 20.752889,22 19.868517,22 C 19.207499,22 18.901334,21.765333 19.188149,21.478517 C 19.474965,21.191702 20.787465,21.388178 22.104816,21.915131 C 23.842924,22.610391 24.019918,22.890616 22.75,22.936614 C 20.943625,23.002042 20.217407,25 22,25 C 22.55,25 23,25.5051 23,26.122445 C 23,26.940388 22.640876,26.946843 21.676206,26.146238 C 20.855468,25.465086 19.997268,25.402732 19.417847,25.982153 C 18.838426,26.561574 17.916442,26.516685 16.991641,25.864027 z M 80.991641,25.864027 C 79.740939,24.981373 79.780207,24.901321 81.234746,25.368429 C 82.333052,25.721138 83.354874,25.20543 84.019929,23.962762 C 84.792886,22.518479 84.752889,22 83.868517,22 C 83.207499,22 82.901334,21.765333 83.188149,21.478517 C 83.474965,21.191702 84.787465,21.388178 86.104816,21.915131 C 87.842924,22.610391 88.019918,22.890616 86.75,22.936614 C 84.943625,23.002042 84.217407,25 86,25 C 86.55,25 87,25.5051 87,26.122445 C 87,26.940388 86.640876,26.946843 85.676206,26.146238 C 84.855468,25.465086 83.997268,25.402732 83.417847,25.982153 C 82.838426,26.561574 81.916442,26.516685 80.991641,25.864027 z M 144.99164,25.864027 C 143.74094,24.981373 143.78021,24.901321 145.23475,25.368429 C 146.33305,25.721138 147.35487,25.20543 148.01993,23.962762 C 148.79289,22.518479 148.75289,22 147.86852,22 C 147.2075,22 146.90133,21.765333 147.18815,21.478517 C 147.47497,21.191702 148.78747,21.388178 150.10482,21.915131 C 151.84292,22.610391 152.01992,22.890616 150.75,22.936614 C 148.94363,23.002042 148.21741,25 150,25 C 150.55,25 151,25.5051 151,26.122445 C 151,26.940388 150.64088,26.946843 149.67621,26.146238 C 148.85547,25.465086 147.99727,25.402732 147.41785,25.982153 C 146.83843,26.561574 145.91644,26.516685 144.99164,25.864027 z M 208.99164,25.864027 C 207.74094,24.981373 207.78021,24.901321 209.23475,25.368429 C 210.33305,25.721138 211.35487,25.20543 212.01993,23.962762 C 212.79289,22.518479 212.75289,22 211.86852,22 C 211.2075,22 210.90133,21.765333 211.18815,21.478517 C 211.47497,21.191702 212.78747,21.388178 214.10482,21.915131 C 215.84292,22.610391 216.01992,22.890616 214.75,22.936614 C 212.94363,23.002042 212.21741,25 214,25 C 214.55,25 215,25.5051 215,26.122445 C 215,26.940388 214.64088,26.946843 213.67621,26.146238 C 212.85547,25.465086 211.99727,25.402732 211.41785,25.982153 C 210.83843,26.561574 209.91644,26.516685 208.99164,25.864027 z M 8,20.059017 C 8,19.476558 8.45,19 9,19 C 10.281385,19 10.281385,19.708061 9,20.5 C 8.45,20.839919 8,20.641476 8,20.059017 z M 16,19.940322 C 16,19.239812 16.300982,18.967648 16.668848,19.335515 C 17.036715,19.703382 18.11704,19.299068 19.069571,18.437039 C 20.237748,17.379854 21.018991,17.221711 21.469821,17.951169 C 21.837428,18.545969 22.557102,18.773726 23.069098,18.457295 C 23.581094,18.140864 24,18.358524 24,18.940983 C 24,19.523442 22.911804,20 21.581787,20 C 20.251771,20 18.451771,20.273145 17.581787,20.606989 C 16.649641,20.964687 16,20.690887 16,19.940322 z M 72,20.059017 C 72,19.476558 72.45,19 73,19 C 74.281385,19 74.281385,19.708061 73,20.5 C 72.45,20.839919 72,20.641476 72,20.059017 z M 80,19.940322 C 80,19.239812 80.300982,18.967648 80.668848,19.335515 C 81.036715,19.703382 82.11704,19.299068 83.069571,18.437039 C 84.237748,17.379854 85.018991,17.221711 85.469821,17.951169 C 85.837428,18.545969 86.557102,18.773726 87.069098,18.457295 C 87.581094,18.140864 88,18.358524 88,18.940983 C 88,19.523442 86.911804,20 85.581787,20 C 84.251771,20 82.451771,20.273145 81.581787,20.606989 C 80.649641,20.964687 80,20.690887 80,19.940322 z M 136,20.059017 C 136,19.476558 136.45,19 137,19 C 138.28138,19 138.28138,19.708061 137,20.5 C 136.45,20.839919 136,20.641476 136,20.059017 z M 144,19.940322 C 144,19.239812 144.30098,18.967648 144.66885,19.335515 C 145.03672,19.703382 146.11704,19.299068 147.06957,18.437039 C 148.23775,17.379854 149.01899,17.221711 149.46982,17.951169 C 149.83743,18.545969 150.5571,18.773726 151.0691,18.457295 C 151.58109,18.140864 152,18.358524 152,18.940983 C 152,19.523442 150.9118,20 149.58179,20 C 148.25177,20 146.45177,20.273145 145.58179,20.606989 C 144.64964,20.964687 144,20.690887 144,19.940322 z M 200,20.059017 C 200,19.476558 200.45,19 201,19 C 202.28138,19 202.28138,19.708061 201,20.5 C 200.45,20.839919 200,20.641476 200,20.059017 z M 208,19.940322 C 208,19.239812 208.30098,18.967648 208.66885,19.335515 C 209.03672,19.703382 210.11704,19.299068 211.06957,18.437039 C 212.23775,17.379854 213.01899,17.221711 213.46982,17.951169 C 213.83743,18.545969 214.5571,18.773726 215.0691,18.457295 C 215.58109,18.140864 216,18.358524 216,18.940983 C 216,19.523442 214.9118,20 213.58179,20 C 212.25177,20 210.45177,20.273145 209.58179,20.606989 C 208.64964,20.964687 208,20.690887 208,19.940322 z M 97.5,16 C 102.01131,14.852068 106.20946,14.852068 105.5,16 C 105.16008,16.55 102.54602,16.946758 99.690983,16.881685 C 95.232494,16.780066 94.923327,16.655652 97.5,16 z "
       id="path1911" />
    <path
       style="fill:#673717"
       d="M 58.460673,56.936368 C 58.142384,56.421366 58.781966,56 59.881966,56 C 62.489132,56 63.441601,57.541127 60.950412,57.728782 C 59.899345,57.807957 58.778962,57.45137 58.460673,56.936368 z M 122.46067,56.936368 C 122.14238,56.421366 122.78197,56 123.88197,56 C 126.48913,56 127.4416,57.541127 124.95041,57.728782 C 123.89934,57.807957 122.77896,57.45137 122.46067,56.936368 z M 186.46067,56.936368 C 186.14238,56.421366 186.78197,56 187.88197,56 C 190.48913,56 191.4416,57.541127 188.95041,57.728782 C 187.89934,57.807957 186.77896,57.45137 186.46067,56.936368 z M 39.270833,56.395833 C 39.603125,56.063542 40.465625,56.028015 41.1875,56.316886 C 41.985233,56.636112 41.748276,56.873069 40.583333,56.921053 C 39.529167,56.964474 38.938542,56.728125 39.270833,56.395833 z M 46.5,56 C 46.839919,55.45 47.568034,55 48.118034,55 C 48.668034,55 48.839919,55.45 48.5,56 C 48.160081,56.55 47.431966,57 46.881966,57 C 46.331966,57 46.160081,56.55 46.5,56 z M 103.27083,56.395833 C 103.60313,56.063542 104.46563,56.028015 105.1875,56.316886 C 105.98523,56.636112 105.74828,56.873069 104.58333,56.921053 C 103.52917,56.964474 102.93854,56.728125 103.27083,56.395833 z M 110.5,56 C 110.83992,55.45 111.56803,55 112.11803,55 C 112.66803,55 112.83992,55.45 112.5,56 C 112.16008,56.55 111.43197,57 110.88197,57 C 110.33197,57 110.16008,56.55 110.5,56 z M 167.27083,56.395833 C 167.60313,56.063542 168.46562,56.028015 169.1875,56.316886 C 169.98523,56.636112 169.74828,56.873069 168.58333,56.921053 C 167.52917,56.964474 166.93854,56.728125 167.27083,56.395833 z M 174.5,56 C 174.83992,55.45 175.56803,55 176.11803,55 C 176.66803,55 176.83992,55.45 176.5,56 C 176.16008,56.55 175.43197,57 174.88197,57 C 174.33197,57 174.16008,56.55 174.5,56 z M 250.46067,55.936368 C 250.14238,55.421366 250.78197,55 251.88197,55 C 254.48913,55 255.4416,56.541127 252.95041,56.728782 C 251.89934,56.807957 250.77896,56.45137 250.46067,55.936368 z M 231.27083,55.395833 C 231.60313,55.063542 232.46562,55.028015 233.1875,55.316886 C 233.98523,55.636112 233.74828,55.873069 232.58333,55.921053 C 231.52917,55.964474 230.93854,55.728125 231.27083,55.395833 z M 238.5,55 C 238.83992,54.45 239.56803,54 240.11803,54 C 240.66803,54 240.83992,54.45 240.5,55 C 240.16008,55.55 239.43197,56 238.88197,56 C 238.33197,56 238.16008,55.55 238.5,55 z M 54.498136,53.996983 C 54.142751,53.421959 54.746629,53.126493 55.913349,53.304547 C 58.784528,53.74272 59.757703,55 57.225684,55 C 56.066476,55 54.83908,54.548643 54.498136,53.996983 z M 118.49814,53.996983 C 118.14275,53.421959 118.74663,53.126493 119.91335,53.304547 C 122.78453,53.74272 123.7577,55 121.22568,55 C 120.06648,55 118.83908,54.548643 118.49814,53.996983 z M 182.49814,53.996983 C 182.14275,53.421959 182.74663,53.126493 183.91335,53.304547 C 186.78453,53.74272 187.7577,55 185.22568,55 C 184.06648,55 182.83908,54.548643 182.49814,53.996983 z M 246.49814,52.996983 C 246.14275,52.421959 246.74663,52.126493 247.91335,52.304547 C 250.78453,52.74272 251.7577,54 249.22568,54 C 248.06648,54 246.83908,53.548643 246.49814,52.996983 z M 39.270833,52.395833 C 39.603125,52.063542 40.465625,52.028015 41.1875,52.316886 C 41.985233,52.636112 41.748276,52.873069 40.583333,52.921053 C 39.529167,52.964474 38.938542,52.728125 39.270833,52.395833 z M 103.27083,52.395833 C 103.60313,52.063542 104.46563,52.028015 105.1875,52.316886 C 105.98523,52.636112 105.74828,52.873069 104.58333,52.921053 C 103.52917,52.964474 102.93854,52.728125 103.27083,52.395833 z M 167.27083,52.395833 C 167.60313,52.063542 168.46562,52.028015 169.1875,52.316886 C 169.98523,52.636112 169.74828,52.873069 168.58333,52.921053 C 167.52917,52.964474 166.93854,52.728125 167.27083,52.395833 z M 231.27083,51.395833 C 231.60313,51.063542 232.46562,51.028015 233.1875,51.316886 C 233.98523,51.636112 233.74828,51.873069 232.58333,51.921053 C 231.52917,51.964474 230.93854,51.728125 231.27083,51.395833 z M 49.655017,49.75 C 50.282893,48.732959 54.180081,48.827982 55.875125,49.901661 C 56.773475,50.470697 55.853298,50.725423 53.221124,50.636348 C 51.005106,50.561357 49.400357,50.1625 49.655017,49.75 z M 113.65502,49.75 C 114.28289,48.732959 118.18008,48.827982 119.87512,49.901661 C 120.77348,50.470697 119.8533,50.725423 117.22112,50.636348 C 115.00511,50.561357 113.40036,50.1625 113.65502,49.75 z M 177.65502,49.75 C 178.28289,48.732959 182.18008,48.827982 183.87512,49.901661 C 184.77348,50.470697 183.8533,50.725423 181.22112,50.636348 C 179.00511,50.561357 177.40036,50.1625 177.65502,49.75 z M 241.65502,48.75 C 242.28289,47.732959 246.18008,47.827982 247.87512,48.901661 C 248.77348,49.470697 247.8533,49.725423 245.22112,49.636348 C 243.00511,49.561357 241.40036,49.1625 241.65502,48.75 z M 1.628295,24.792414 C 1.8976515,24.356586 3.018034,24 4.118034,24 C 5.218034,24 5.8576158,24.421366 5.5393268,24.936368 C 5.2210378,25.45137 4.1006553,25.807957 3.0495879,25.728782 C 1.9985204,25.649608 1.3589386,25.228242 1.628295,24.792414 z M 65.628295,24.792414 C 65.897651,24.356586 67.018034,24 68.118034,24 C 69.218034,24 69.857616,24.421366 69.539327,24.936368 C 69.221038,25.45137 68.100655,25.807957 67.049588,25.728782 C 65.99852,25.649608 65.358939,25.228242 65.628295,24.792414 z M 129.6283,24.792414 C 129.89765,24.356586 131.01803,24 132.11803,24 C 133.21803,24 133.85762,24.421366 133.53933,24.936368 C 133.22104,25.45137 132.10066,25.807957 131.04959,25.728782 C 129.99852,25.649608 129.35894,25.228242 129.6283,24.792414 z M 193.6283,24.792414 C 193.89765,24.356586 195.01803,24 196.11803,24 C 197.21803,24 197.85762,24.421366 197.53933,24.936368 C 197.22104,25.45137 196.10066,25.807957 195.04959,25.728782 C 193.99852,25.649608 193.35894,25.228242 193.6283,24.792414 z M 15.5,24 C 15.160081,23.45 15.331966,23 15.881966,23 C 16.431966,23 17.160081,23.45 17.5,24 C 17.839919,24.55 17.668034,25 17.118034,25 C 16.568034,25 15.839919,24.55 15.5,24 z M 22.270833,24.395833 C 22.603125,24.063542 23.465625,24.028015 24.1875,24.316886 C 24.985233,24.636112 24.748276,24.873069 23.583333,24.921053 C 22.529167,24.964474 21.938542,24.728125 22.270833,24.395833 z M 79.5,24 C 79.160081,23.45 79.331966,23 79.881966,23 C 80.431966,23 81.160081,23.45 81.5,24 C 81.839919,24.55 81.668034,25 81.118034,25 C 80.568034,25 79.839919,24.55 79.5,24 z M 86.270833,24.395833 C 86.603125,24.063542 87.465625,24.028015 88.1875,24.316886 C 88.985233,24.636112 88.748276,24.873069 87.583333,24.921053 C 86.529167,24.964474 85.938542,24.728125 86.270833,24.395833 z M 143.5,24 C 143.16008,23.45 143.33197,23 143.88197,23 C 144.43197,23 145.16008,23.45 145.5,24 C 145.83992,24.55 145.66803,25 145.11803,25 C 144.56803,25 143.83992,24.55 143.5,24 z M 150.27083,24.395833 C 150.60313,24.063542 151.46562,24.028015 152.1875,24.316886 C 152.98523,24.636112 152.74828,24.873069 151.58333,24.921053 C 150.52917,24.964474 149.93854,24.728125 150.27083,24.395833 z M 207.5,24 C 207.16008,23.45 207.33197,23 207.88197,23 C 208.43197,23 209.16008,23.45 209.5,24 C 209.83992,24.55 209.66803,25 209.11803,25 C 208.56803,25 207.83992,24.55 207.5,24 z M 214.27083,24.395833 C 214.60313,24.063542 215.46562,24.028015 216.1875,24.316886 C 216.98523,24.636112 216.74828,24.873069 215.58333,24.921053 C 214.52917,24.964474 213.93854,24.728125 214.27083,24.395833 z M 5.359103,22.307564 C 6.4943791,21.172288 10.182435,20.895796 9.5018644,21.996983 C 9.1609203,22.548643 7.9335237,23 6.7743163,23 C 5.615109,23 4.978263,22.688404 5.359103,22.307564 z M 69.359103,22.307564 C 70.494379,21.172288 74.182435,20.895796 73.501864,21.996983 C 73.16092,22.548643 71.933524,23 70.774316,23 C 69.615109,23 68.978263,22.688404 69.359103,22.307564 z M 133.3591,22.307564 C 134.49438,21.172288 138.18244,20.895796 137.50186,21.996983 C 137.16092,22.548643 135.93352,23 134.77432,23 C 133.61511,23 132.97826,22.688404 133.3591,22.307564 z M 197.3591,22.307564 C 198.49438,21.172288 202.18244,20.895796 201.50186,21.996983 C 201.16092,22.548643 199.93352,23 198.77432,23 C 197.61511,23 196.97826,22.688404 197.3591,22.307564 z M 22.270833,20.395833 C 22.603125,20.063542 23.465625,20.028015 24.1875,20.316886 C 24.985233,20.636112 24.748276,20.873069 23.583333,20.921053 C 22.529167,20.964474 21.938542,20.728125 22.270833,20.395833 z M 86.270833,20.395833 C 86.603125,20.063542 87.465625,20.028015 88.1875,20.316886 C 88.985233,20.636112 88.748276,20.873069 87.583333,20.921053 C 86.529167,20.964474 85.938542,20.728125 86.270833,20.395833 z M 150.27083,20.395833 C 150.60313,20.063542 151.46562,20.028015 152.1875,20.316886 C 152.98523,20.636112 152.74828,20.873069 151.58333,20.921053 C 150.52917,20.964474 149.93854,20.728125 150.27083,20.395833 z M 214.27083,20.395833 C 214.60313,20.063542 215.46562,20.028015 216.1875,20.316886 C 216.98523,20.636112 216.74828,20.873069 215.58333,20.921053 C 214.52917,20.964474 213.93854,20.728125 214.27083,20.395833 z M 8.1248753,17.901661 C 9.8199186,16.827982 13.717107,16.732959 14.344983,17.75 C 14.599643,18.1625 12.994894,18.561357 10.778876,18.636348 C 8.1467016,18.725423 7.2265245,18.470697 8.1248753,17.901661 z M 72.124875,17.901661 C 73.819919,16.827982 77.717107,16.732959 78.344983,17.75 C 78.599643,18.1625 76.994894,18.561357 74.778876,18.636348 C 72.146702,18.725423 71.226525,18.470697 72.124875,17.901661 z M 136.12488,17.901661 C 137.81992,16.827982 141.71711,16.732959 142.34498,17.75 C 142.59964,18.1625 140.99489,18.561357 138.77888,18.636348 C 136.1467,18.725423 135.22652,18.470697 136.12488,17.901661 z M 200.12488,17.901661 C 201.81992,16.827982 205.71711,16.732959 206.34498,17.75 C 206.59964,18.1625 204.99489,18.561357 202.77888,18.636348 C 200.1467,18.725423 199.22652,18.470697 200.12488,17.901661 z "
       id="path1909" />
    <path
       style="fill:#161616"
       d="M 219.87244,48.25 C 218.62857,46.663944 218.66394,46.628574 220.25,47.872445 C 221.91575,49.178814 222.44548,50 221.62244,50 C 221.41479,50 220.62729,49.2125 219.87244,48.25 z M 221.116,45.809017 C 221.0522,44.878976 221.45734,43.835382 222.01631,43.489919 C 222.57528,43.144455 222.77373,42.442898 222.45729,41.930902 C 222.14086,41.418906 222.11769,41 222.4058,41 C 222.69391,41 223.40588,41.889873 223.98796,42.977495 C 224.83488,44.559995 224.75951,44.844946 223.6106,44.404069 C 222.75396,44.075342 221.98478,44.58856 221.70347,45.676575 C 221.29916,47.240274 221.21548,47.259138 221.116,45.809017 z M 159.18833,45.116396 C 158.46315,44.66821 158.74162,44.017947 159.99353,43.236114 C 161.04609,42.578778 162.10591,42.369242 162.34868,42.770479 C 163.04655,43.923886 160.41703,45.875773 159.18833,45.116396 z M 226.15492,43.095746 C 225.17771,42.4918 225.21716,42.064662 226.33588,41.136205 C 227.46125,40.202236 227.8887,40.267569 228.33954,41.442452 C 229.03684,43.259576 227.86047,44.149835 226.15492,43.095746 z M 226,18.622445 C 226,18.414789 226.7875,17.627289 227.75,16.872445 C 229.33606,15.628574 229.37143,15.663944 228.12756,17.25 C 226.82119,18.915748 226,19.445479 226,18.622445 z M 226,14.559678 C 226,13.381962 225.48823,12.982406 224.47686,13.370506 C 223.2342,13.847358 223.14861,13.590839 224.01204,11.977495 C 225.05653,10.025862 226.14983,9.2921957 225.84124,10.75 C 225.75392,11.1625 226.03452,12.306908 226.46478,13.293128 C 226.89504,14.279349 226.96648,15.366849 226.62354,15.709795 C 226.28059,16.052741 226,15.535188 226,14.559678 z M 158.25469,12.427565 C 156.5579,10.611144 158.11444,9.8792928 160.29042,11.470409 C 161.5918,12.422005 161.71954,12.893646 160.77413,13.256434 C 160.06757,13.527566 158.93382,13.154575 158.25469,12.427565 z M 219.59801,12.15858 C 219.34168,11.743841 219.4795,10.842194 219.90425,10.15492 C 220.5082,9.1777149 220.93534,9.2171609 221.86379,10.335883 C 222.79776,11.461247 222.73243,11.888698 221.55755,12.339543 C 220.73612,12.654753 219.85433,12.57332 219.59801,12.15858 z "
       id="path1907" />
  </g>
</svg>
