<?xml version="1.0" encoding="UTF-8" standalone="no"?>
<!-- Created with Inkscape (http://www.inkscape.org/) -->
<svg
   xmlns:dc="http://purl.org/dc/elements/1.1/"
   xmlns:cc="http://web.resource.org/cc/"
   xmlns:rdf="http://www.w3.org/1999/02/22-rdf-syntax-ns#"
   xmlns:svg="http://www.w3.org/2000/svg"
   xmlns="http://www.w3.org/2000/svg"
   xmlns:sodipodi="http://sodipodi.sourceforge.net/DTD/sodipodi-0.dtd"
   xmlns:inkscape="http://www.inkscape.org/namespaces/inkscape"
   id="svg2"
   sodipodi:version="0.32"
   inkscape:version="0.45.1"
   width="80"
   height="20"
   version="1.0"
   sodipodi:docbase="/home/kde-devel/kde/src/KDE/playground/games/ksirk/ksirk/skins/default/Images/sprites"
   sodipodi:docname="belgium.svg"
   inkscape:output_extension="org.inkscape.output.svg.inkscape">
  <metadata
     id="metadata7">
    <rdf:RDF>
      <cc:Work
         rdf:about="">
        <dc:format>image/svg+xml</dc:format>
        <dc:type
           rdf:resource="http://purl.org/dc/dcmitype/StillImage" />
      </cc:Work>
    </rdf:RDF>
  </metadata>
  <defs
     id="defs5" />
  <sodipodi:namedview
     inkscape:window-height="656"
     inkscape:window-width="928"
     inkscape:pageshadow="2"
     inkscape:pageopacity="0.0"
     guidetolerance="10.0"
     gridtolerance="10.0"
     objecttolerance="10.0"
     borderopacity="1.0"
     bordercolor="#666666"
     pagecolor="#ffffff"
     id="base"
     inkscape:zoom="10.525"
     inkscape:cx="59.218527"
     inkscape:cy="9.9049882"
     inkscape:window-x="464"
     inkscape:window-y="320"
     inkscape:current-layer="g1903" />
  <g
     id="g1903">
    <path
       style="fill:#e4e4e3"
       d="M 2.4348677,10.714005 C 2.35246,6.4839644 3.31155,2.4113399 3.7951306,2.3671511 C 9.7183195,1.8258994 3.0556583,5.1280061 3.2174064,7.8431697 C 3.9611561,20.32803 2.5903176,18.693352 2.4348677,10.714005 z M 6.1498321,15.725249 C 9.8626938,6.7435085 -5.0930466,1.5448781 16.693011,2 C 17.294167,2 18.059167,2.7118044 18.393011,3.5817875 C 20.268707,8.4697727 17.530544,13.600958 13.576095,12.608455 C 9.9067671,11.687512 7.1458541,12.991022 6.7064282,15.851831 L 6.2996642,18.5 L 6.1498321,15.725249 z M 23.285826,17.726717 C 22.648964,6.0468047 19.844588,0.87502323 28.451668,2.2149986 C 28.726668,1.9399986 29.656614,2.3000522 30.518216,3.0151177 C 31.704779,3.9998776 32.365557,4.0344428 33.242382,3.1576184 C 34.899512,1.5004877 37.682282,1.7296568 38.393011,3.5817875 C 39.543623,6.5802326 38.994002,9.7379072 36.846228,12.46836 C 34.969222,14.854586 34.207152,15.128835 30.915868,14.602537 C 27.563418,14.066459 26.478893,14.632094 25.185632,17.484473 C 24.935983,18.035092 25.488299,18.376018 23.285826,17.726717 z M 42.919428,18.385582 C 43.680623,1.6285422 36.995203,1.3283809 56.693011,2 C 57.294167,2 58.059167,2.7118044 58.393011,3.5817875 C 60.268707,8.4697727 57.530544,13.600958 53.576095,12.608455 C 49.906767,11.687512 46.765806,12.230927 46.32638,15.091736 L 45.634581,18.309976 L 42.919428,18.385582 z M 63.01444,18.394623 C 62.921713,16.800607 60.870685,4.1887587 62.415623,2.7373647 C 64.625107,0.66166235 70.911984,0.17320695 73.306018,0.065797546 C 75.595742,-0.036931902 76.207191,1.71511 77.949778,3.3380284 C 78.468041,3.8207008 78,10.358524 78,10.940983 C 78,12.329389 74.705465,12.305465 73.306902,10.906902 C 71.663203,9.2632028 67.204617,12.58748 66.708891,15.826313 L 66.299664,18.5 L 63.01444,18.394623 z M 10.270833,2.3958333 C 10.603125,2.0635417 11.465625,2.0280154 12.1875,2.316886 C 12.985233,2.6361123 12.748276,2.8730687 11.583333,2.9210526 C 10.529167,2.9644737 9.9385417,2.728125 10.270833,2.3958333 z M 50.270833,2.3958333 C 50.603125,2.0635417 51.465625,2.0280154 52.1875,2.316886 C 52.985233,2.6361123 52.748276,2.8730687 51.583333,2.9210526 C 50.529167,2.9644737 49.938542,2.728125 50.270833,2.3958333 z "
       id="path1917"
       sodipodi:nodetypes="csscccsscccccsssssscccssccccsssssccccssccssc" />
    <path
       style="fill:#c3c3c3"
       d="M 3.2320027,15 C 3.2320027,13.075 3.437798,12.2875 3.6893255,13.25 C 3.9408531,14.2125 3.9408531,15.7875 3.6893255,16.75 C 3.437798,17.7125 3.2320027,16.925 3.2320027,15 z M 23.232003,15 C 23.232003,13.075 22.615471,5.5179442 23.40429,6.1241093 C 25.610891,7.8197619 23.94653,15.789629 23.689326,16.75 C 23.431965,17.710957 23.232003,16.925 23.232003,15 z M 26.796079,11.735718 C 27.260026,11.652656 25.661498,16.23306 25.027908,17.586075 C 24.55322,15.883148 24.171905,11.659596 26.796079,11.735718 z M 43.384798,16.319112 C 43.535636,10.848486 46.30166,11.013609 45.35045,15.337849 C 44.825914,18.911737 43.384798,19.672752 43.384798,16.319112 z M 63.232003,15 C 63.232003,13.075 63.437798,12.2875 63.689326,13.25 C 63.940853,14.2125 63.940853,15.7875 63.689326,16.75 C 63.437798,17.7125 63.232003,16.925 63.232003,15 z M 65.136182,15.872445 C 65.061117,14.424103 65.785378,12.628953 66.75,11.872445 C 68.272597,10.678342 68.35002,10.694917 67.345818,12 C 66.711018,12.825 65.9848,14.625 65.732,16 L 65.272364,18.5 L 65.136182,15.872445 z M 53.745892,2.7497522 C 54.078184,2.4174612 58.0439,1.3951394 57.562797,6.9463392 C 57.439693,8.3667801 58.408609,10.542903 54.583333,11.921053 C 53.590727,12.278664 49.993174,1.8468898 53.745892,2.7497522 z M 72.653882,9.6725416 C 71.324226,9.0953701 63.623659,15.327022 65.859117,10.565321 L 76.905933,3.6900238 L 77.63052,6.9918106 C 77.483284,10.930818 75.735301,12.025944 72.653882,9.6725416 z M 17.232003,7 C 16.851955,2.9847387 17.428853,4.289882 17.689326,5.25 C 18.130877,6.8775831 18.372805,7.7578676 17.689326,8.75 C 13.803225,14.391033 17.232003,8.925 17.232003,7 z M 31.518173,4.8063761 C 31.234835,4.5230381 32.592514,5.2553646 33.521713,3.9883796 C 35.090362,1.8494897 36.958852,3.0713136 37.541547,4.3796113 C 37.868654,5.1140475 37.94027,6.2050907 37.72801,7.6281777 C 34.392864,13.266234 35.108207,7.6251123 31.518173,4.8063761 z M 13.270833,2.3958333 C 13.603125,2.0635417 14.469269,2.0190703 15.1875,2.316886 C 17.790459,3.3962073 18.693644,6.2934963 14.583333,2.9210526 C 13.767683,2.2518247 9.9931738,2.4430894 13.270833,2.3958333 z "
       id="path1915"
       sodipodi:nodetypes="cssccssccccccccssccssccccsscccccccssccsscccssc" />
    <path
       style="fill:#aeaead"
       d="M 3.5731213,11.743652 C 2.7178521,4.5873974 3.6188498,2.0811283 6.8724447,2.0633863 C 16.429898,2.011269 7.7726153,2.4191455 6.25,3.0311621 C 4.5120214,3.7297441 4,4.7393624 4,7.4677758 C 4,10.436037 4.3498406,11 6.1911296,11 C 8.1415741,11 6.8807952,10.432185 6.7618704,12.25 C 6.250704,20.063391 5.8253892,18.140439 4.0009438,18.185273 C 2.6105336,18.219441 4.0172324,15.459644 3.5731213,11.743652 z M 23.58664,11.743652 C 22.759471,4.9364879 25.073325,2.2155346 25.61235,2.4104562 C 29.966072,2.8106929 28.086832,6.1173203 25.691928,14.00159 C 25.326592,15.204315 24.949255,16.513565 24.580215,17.935273 C 23.858691,18.006909 23.797965,17.294334 23.786526,15.91543 C 23.777955,14.882337 23.79705,13.475219 23.58664,11.743652 z M 43.573121,11.743652 C 42.717852,4.5873974 43.526254,2.4118262 46.777433,2.5384457 C 51.138564,8.6413113 41.936325,8.0027441 46.19113,11 C 48.141574,11 48.299279,10.567236 45.24168,13.675178 C 44.452304,14.477551 44.590234,17.190321 44.095956,18.090261 C 43.426405,19.309322 44.017232,15.459644 43.573121,11.743652 z M 63.573121,11.743652 C 62.759971,4.9398171 63.619847,1.9561747 66.372445,2.0304087 C 74.068678,1.8438 61.734379,8.574802 65.622445,11 C 70.791767,7.4845606 66.421941,11.092519 66.218263,12.25 C 64.893523,19.778355 65.294188,17.475356 64.406068,17.900238 C 63.110467,18.520061 64.031025,15.575049 63.573121,11.743652 z "
       id="path1913"
       sodipodi:nodetypes="csssssscccscsccccssccccssc" />
    <path
       style="fill:#f0e50b"
       d="M 30.2125,12.8125 C 28.63536,11.96798 27.713328,10.978841 27.235495,9.9887343 C 25.978194,7.3835057 27.79632,4.7715728 28.847627,4.7698931 C 32.293853,4.7645387 33.468466,3.8776919 33.149742,9.9158925 C 32.960723,13.553189 37.731875,11.020711 30.2125,12.8125 z M 11.5,3.21321 C 13.229164,3.3508082 13.5,3.4974899 13.5,6.96321 C 13.5,10.168199 13.989924,10.977886 11.718615,11 C 5.7869091,11.129953 4.9910883,2.9403327 11.5,3.21321 z M 48.914475,9.2876904 C 47.868456,6.5618092 47.155856,3.2568962 51.5,3.21321 C 56.078659,3.1671654 53.5,3.4974899 53.5,6.96321 C 53.5,10.168199 54.662222,10.833307 51.718615,11 C 48.368146,11.189733 49.215708,10.072691 48.914475,9.2876904 z M 68.647647,8.7394917 C 67.345031,7.4368757 67.037598,1.4730848 70.676799,0.89202443 C 74.28781,0.31546511 72.622524,-0.26264596 73,3.8930112 C 73.475059,9.1229701 72.985034,7.5661894 68.647647,8.7394917 z "
       id="path1911"
       sodipodi:nodetypes="csssccscccsssccssc" />
    <path
       style="fill:#fe2116"
       d="M 33,8.6069888 C 32.334917,3.6769425 35.60315,1.377073 36.645701,5.5190948 C 37.247034,7.9081727 37.652021,11.049881 34.480948,12 C 33.506784,12.29188 33,10.936932 33,8.6069888 z M 13.421445,9.655884 C 12.461735,7.15492 12.733884,3.1199525 15,3.5 C 16.026317,3.6721223 17.152058,4.5561911 17.165084,7.1066905 C 17.196404,13.239367 13.200589,12.67915 13.421445,9.655884 z M 53.421445,10.606003 C 53.031806,4.6846112 53.398967,3.5 55,3.5 C 56.515709,3.5 56.976861,3.1175957 57.070071,7.0116786 C 57.182132,11.693314 56.145957,10.398864 53.421445,10.606003 z M 74.25,9.2817212 C 71.300294,8.2474162 73.012924,7.0205506 73.033269,4.1666667 L 72.971527,0.54513064 L 75.033269,1.860784 C 77.494194,2.458689 77.540432,10.462033 74.25,9.2817212 z "
       id="path1909"
       sodipodi:nodetypes="cssccssccsscccccc" />
    <path
       style="fill:#61615e"
       d="M 24.175426,6.3344727 C 24.411272,4.2748579 24.919489,2.6024327 26.309976,3.0249406 C 29.903515,3.6779076 30.46236,4.350463 28.807498,7.75 C 29.078223,11.491751 30.670416,13.52019 27.026113,12 C 24.300732,12.316757 23.858171,9.2054224 24.175426,6.3344727 z M 4.1896347,7.25 C 4.4389379,4.2377848 4.9426709,3.4371307 6.75,3.180449 C 8.7670906,2.8939765 9,3.2821589 9,6.930449 C 9,10.630223 8.7673539,11 6.4396347,11 C 4.0924811,11 3.9051148,10.687723 4.1896347,7.25 z M 44.189635,7.25 C 44.438938,4.2377848 44.924535,3.181333 46.75,3.180449 C 49.71721,3.1790121 49,3.2821589 49,6.930449 C 49,10.630223 50.09752,11 46.439635,11 C 44.092481,11 43.905115,10.687723 44.189635,7.25 z M 64,7.6047347 C 64,5.1338653 64.582022,3.7588788 65.934259,3.0351838 C 68.912635,1.4412051 69.137243,1.692515 68.807498,6.25 C 68.551875,9.7830239 70.97078,6.9434567 66.25,10.819551 C 64.712805,12.081697 64,10.698019 64,7.6047347 z M 67.816422,6.6728811 C 68.040671,4.7786111 67.676545,4 66.566422,4 C 65.483212,4 65,4.9511503 65,7.0833333 C 65,10.909299 67.355544,10.566013 67.816422,6.6728811 z "
       id="path1907"
       sodipodi:nodetypes="ccccccsssccsssccsssccssc" />
    <path
       style="fill:#10100a"
       d="M 5,7 C 5,5 5.5,4 6.5,4 C 7.5,4 8,5 8,7 C 8,9 7.5,10 6.5,10 C 5.5,10 5,9 5,7 z M 25,6.9166667 C 25,3.0907009 27.355544,3.4339868 27.816422,7.3271189 C 28.040671,9.2213889 27.676545,10 26.566422,10 C 25.483212,10 25,9.0488497 25,6.9166667 z M 45,7 C 45,5 45.5,4 46.5,4 C 47.5,4 48,5 48,7 C 48,9 47.5,10 46.5,10 C 45.5,10 45,9 45,7 z M 65,7.0833333 C 65,4.9511503 65.483212,4 66.566422,4 C 67.676545,4 68.040671,4.7786111 67.816422,6.6728811 C 67.355544,10.566013 65,10.909299 65,7.0833333 z "
       id="path1905" />
  </g>
</svg>
