<?xml version="1.0" encoding="UTF-8" standalone="no"?>
<!-- Created with Inkscape (http://www.inkscape.org/) -->
<svg
   xmlns:dc="http://purl.org/dc/elements/1.1/"
   xmlns:cc="http://web.resource.org/cc/"
   xmlns:rdf="http://www.w3.org/1999/02/22-rdf-syntax-ns#"
   xmlns:svg="http://www.w3.org/2000/svg"
   xmlns="http://www.w3.org/2000/svg"
   xmlns:xlink="http://www.w3.org/1999/xlink"
   xmlns:sodipodi="http://sodipodi.sourceforge.net/DTD/sodipodi-0.dtd"
   xmlns:inkscape="http://www.inkscape.org/namespaces/inkscape"
   id="svg2"
   sodipodi:version="0.32"
   inkscape:version="0.44"
   width="20"
   height="20"
   version="1.0"
   sodipodi:docbase="/home/kde4/Developpements/C++/ksirk/ksirk/skins/default/Images"
   sodipodi:docname="attackOne.svg">
  <metadata
     id="metadata7">
    <rdf:RDF>
      <cc:Work
         rdf:about="">
        <dc:format>image/svg+xml</dc:format>
        <dc:type
           rdf:resource="http://purl.org/dc/dcmitype/StillImage" />
      </cc:Work>
    </rdf:RDF>
  </metadata>
  <defs
     id="defs5" />
  <sodipodi:namedview
     inkscape:window-height="582"
     inkscape:window-width="928"
     inkscape:pageshadow="2"
     inkscape:pageopacity="0.0"
     guidetolerance="10.0"
     gridtolerance="10.0"
     objecttolerance="10.0"
     borderopacity="1.0"
     bordercolor="#666666"
     pagecolor="#ffffff"
     id="base"
     inkscape:zoom="18.95"
     inkscape:cx="10"
     inkscape:cy="9.9736148"
     inkscape:window-x="666"
     inkscape:window-y="0"
     inkscape:current-layer="svg2" />
  <g
     id="g1927">
    <path
       style="fill:#a6c1cc"
       d="M 13,15.39235 C 13,14.564723 14.941729,14.096699 15.386913,14.817021 C 15.675723,15.284326 15.256818,15.666667 14.456011,15.666667 C 13.655205,15.666667 13,15.543224 13,15.39235 z M 4.0789474,11.583333 C 4.0355263,10.529167 4.271875,9.9385417 4.6041667,10.270833 C 4.9364583,10.603125 4.9719846,11.465625 4.683114,12.1875 C 4.3638877,12.985233 4.1269313,12.748276 4.0789474,11.583333 z M 13,4.2891114 C 13,3.7147893 13.7875,2.6272893 14.75,1.8724447 C 16.368755,0.60292915 16.389977,0.64999388 15.032968,2.5 C 14.2261,3.6 13.4386,4.6875 13.282968,4.9166667 C 13.127335,5.1458333 13,4.8634335 13,4.2891114 z "
       id="path1943" />
    <path
       style="fill:#a4b8c6"
       d="M 2.2781448,18.75 C 0.48418388,16.43041 -0.12250783,14.999957 0.69098301,15.007802 C 1.1359424,15.012093 2.0201617,16.137093 2.655915,17.507802 C 3.9205654,20.234438 3.7810375,20.693239 2.2781448,18.75 z M 5,19.031385 C 5,18.498646 5.675,18.321791 6.5,18.638374 C 8.42067,19.375404 8.42067,20 6.5,20 C 5.675,20 5,19.564123 5,19.031385 z M 4.5642929,15.293128 C 4.0216083,13.86793 4.1364719,13.753066 5.1240877,14.733333 C 5.8075061,15.411667 6.114759,16.218574 5.8068719,16.526461 C 5.4989848,16.834349 4.9398243,16.279349 4.5642929,15.293128 z M 2.7137767,11.986518 C 3.0921263,10.539707 2.8439903,10.122636 1.8351765,10.509754 C 0.92091971,10.860588 0.37319619,10.304208 0.26882521,8.9186491 C 0.11452053,6.8702039 0.18334944,6.8559538 2.0541666,8.5490201 C 4.1308584,10.4284 4.5762432,12.525828 3.0932588,13.442363 C 2.5945511,13.750581 2.4237841,13.095451 2.7137767,11.986518 z M 11.666667,9.3333333 C 10.560198,8.2268646 10.91285,7.3333333 12.456011,7.3333333 C 13.256818,7.3333333 13.68026,7.7083333 13.396994,8.1666667 C 13.113729,8.625 13.325528,9 13.867659,9 C 14.40979,9 14.998848,8.416529 15.176676,7.7033978 C 15.4379,6.6558303 15.980168,6.6717326 18,7.7861934 C 20.321375,9.0670332 20.339309,9.1306581 18.250996,8.6766756 C 17.014044,8.4077721 15.749986,8.5955141 15.441979,9.0938801 C 14.786615,10.154282 12.624735,10.291401 11.666667,9.3333333 z M 9,3.9945711 C 7.8454328,3.2442537 8.1166911,3.0663453 10.177907,3.2220251 C 11.650755,3.3332666 12.636697,3.7788189 12.36889,4.2121412 C 11.730954,5.2443429 10.833974,5.186414 9,3.9945711 z M 16,4.059017 C 16,3.5414763 16.375,2.8862712 16.833333,2.6030057 C 17.291667,2.3197401 17.666667,2.7431824 17.666667,3.5439887 C 17.666667,4.3447949 17.291667,5 16.833333,5 C 16.375,5 16,4.5765576 16,4.059017 z M 12.5,1 C 12.160081,0.45 12.331966,4.6615272e-17 12.881966,8.4242509e-17 C 13.431966,1.2186975e-16 14.160081,0.45 14.5,1 C 14.839919,1.55 14.668034,2 14.118034,2 C 13.568034,2 12.839919,1.55 12.5,1 z "
       id="path1941" />
    <path
       style="fill:#9ab7c7"
       d="M 13.291557,18.25 C 12.936436,17.2875 12.163059,16.169391 11.572942,15.765313 C 10.874927,15.287354 10.979585,15.025275 11.872445,15.015313 C 12.940347,15.003398 12.985046,14.686908 12.073886,13.589028 C 10.495015,11.686604 12.559001,10.389114 14.543805,12.036355 C 15.753442,13.040264 16,12.816717 16,10.716064 C 16,8.6795686 16.389374,8.2890628 18,8.710251 C 19.687555,9.1515565 20,10.074267 20,14.616631 C 20,19.943871 19.968394,20 16.968615,20 C 14.99422,20 13.712096,19.389807 13.291557,18.25 z M 15.75,16.662483 C 15.75,15.360901 14.808248,13.738581 13.625,13.001828 C 11.693188,11.798979 11.624772,11.829663 12.872445,13.339345 C 13.627289,14.252705 13.909689,15 13.5,15 C 13.090311,15 13.256307,15.603904 13.868879,16.342009 C 14.481452,17.080114 14.686552,17.980114 14.324657,18.342009 C 13.962762,18.703904 14.135417,19 14.708333,19 C 15.28125,19 15.75,17.948117 15.75,16.662483 z M 7,17.833333 C 7,16.753329 8.729515,16.753329 9.3969943,17.833333 C 9.6802599,18.291667 9.2568176,18.666667 8.4560113,18.666667 C 7.6552051,18.666667 7,18.291667 7,17.833333 z M -6.4615505e-19,13.559017 C 8.1860243e-20,11.802491 0.60005503,11.543858 1.4572949,12.930902 C 1.7737258,13.442898 1.5752834,14.144455 1.0163119,14.489919 C 0.45734035,14.835382 -1.0015403e-18,14.416476 -6.4615505e-19,13.559017 z M 0.5,7 C 0.16008131,6.45 0.18977366,5.5019568 0.56598301,4.8932373 C 1.2380969,3.8057341 2.9483904,5.4722281 2.9846872,7.25 C 3.0070671,8.3461366 1.2208858,8.1664177 0.5,7 z M 15.50294,3.5799496 C 15.813579,2.5239219 15.489998,1.2933126 14.78387,0.84526237 C 13.9934,0.34369587 14.845073,0.069320835 17,0.13131412 C 18.925,0.18669284 19.771624,0.42641173 18.881387,0.66402277 C 17.991149,0.9016338 16.739731,2.0869332 16.100456,3.2980214 C 15.24042,4.9273389 15.085025,5.000659 15.50294,3.5799496 z M 0.69385316,2.3605198 C 0.34213906,2.0088057 0.29369671,1.3338057 0.58620349,0.86051983 C 1.3466807,-0.36995819 5,-0.20566119 5,1.059017 C 5,1.6414763 4.55,1.8399187 4,1.5 C 3.45,1.1600813 3,1.3585237 3,1.940983 C 3,3.1146603 1.6868782,3.3535449 0.69385316,2.3605198 z M 6,1 C 6,0.45 7.3765576,4.6837534e-17 9.059017,1.0408341e-16 C 10.843718,1.6480806e-16 11.860575,0.41657707 11.5,1 C 10.695303,2.3020273 6,2.3020273 6,1 z "
       id="path1939" />
    <path
       style="fill:#a4b4bb"
       d="M 0.27083333,19.395833 C 0.603125,19.063542 1.465625,19.028015 2.1875,19.316886 C 2.9852327,19.636112 2.7482763,19.873069 1.5833333,19.921053 C 0.52916667,19.964474 -0.061458333,19.728125 0.27083333,19.395833 z M 8.5396391,8.6526433 C 7.2075047,7.6785628 7.0294846,7.0998115 7.8970678,6.5636156 C 8.8110197,5.9987622 8.8201229,5.4881876 7.9352515,4.4219828 C 7.2962257,3.6520038 6.3048456,3.3115951 5.7321847,3.665519 C 5.1076773,4.0514858 4.992652,3.8209063 5.4447689,3.0893658 C 6.0120323,2.1715143 6.6630489,2.2900759 8.0756961,3.5685041 C 9.1081239,4.5028383 9.693387,5.6870932 9.3762809,6.2001817 C 9.0591748,6.7132701 9.6322864,7.7638175 10.649862,8.5347315 C 11.667438,9.3056455 12.023508,9.9507048 11.44113,9.9681966 C 10.858751,9.9856885 9.5530802,9.3936895 8.5396391,8.6526433 z "
       id="path1937" />
    <path
       style="fill:#a5adb7"
       d="M 8.5572981,12.581761 C 10.651862,11.050179 11.601053,11.218459 10.541119,12.933469 C 10.178585,13.520061 9.1475153,14 8.2498534,14 C 6.8848893,14 6.9352127,13.767859 8.5572981,12.581761 z M 7,10 C 7,9.45 7.7015576,9 8.559017,9 C 9.4164763,9 9.8399187,9.45 9.5,10 C 8.7003212,11.293907 7,11.293907 7,10 z M 4.0789474,8.5833333 C 4.0355263,7.5291667 4.271875,6.9385417 4.6041667,7.2708333 C 4.9364583,7.603125 4.9719846,8.465625 4.683114,9.1875 C 4.3638877,9.9852327 4.1269313,9.7482763 4.0789474,8.5833333 z M 4,5.075604 C 4,4.6017095 4.675,3.9549558 5.5,3.6383736 C 6.325,3.3217914 7,3.4505015 7,3.924396 C 7,4.3982905 6.325,5.0450442 5.5,5.3616264 C 4.675,5.6782086 4,5.5494985 4,5.075604 z "
       id="path1935" />
    <path
       style="fill:#98b4bb"
       d="M 2,15 C 2,14.45 2.45,14 3,14 C 3.55,14 4,14.45 4,15 C 4,15.55 3.55,16 3,16 C 2.45,16 2,15.55 2,15 z M 11.603006,14.166667 C 11.31974,13.708333 11.723388,13.333333 12.5,13.333333 C 13.276612,13.333333 13.68026,13.708333 13.396994,14.166667 C 12.745454,15.220881 12.254546,15.220881 11.603006,14.166667 z M 2.5,6 C 2.1600813,5.45 2.3585237,5 2.940983,5 C 3.5234424,5 4,5.45 4,6 C 4,7.281385 3.2919395,7.281385 2.5,6 z M 1.25,3.3106745 C 2.2125,3.0591469 3,2.4097899 3,1.8676588 C 3,1.3255278 3.4573404,1.1646179 4.0163119,1.5100813 C 5.6057824,2.4924281 4.1168837,4.0124377 1.690983,3.8839986 C -0.00081160294,3.7944268 -0.10128413,3.6638019 1.25,3.3106745 z "
       id="path1933" />
    <path
       style="fill:#98acb8"
       d="M 1,18.622445 C 1,18.414789 1.7875,17.627289 2.75,16.872445 C 4.3360556,15.628574 4.3714259,15.663944 3.1275553,17.25 C 1.8211855,18.915748 1,19.445479 1,18.622445 z M 10,18.031385 C 10,17.498646 10.675,17.321791 11.5,17.638374 C 13.42067,18.375404 13.42067,19 11.5,19 C 10.675,19 10,18.564123 10,18.031385 z M 11.542705,4.0690983 C 10.877733,2.9931508 12.834987,1.5016534 13.733198,2.3998645 C 14.063272,2.729939 13.781776,3 13.10765,3 C 12.433524,3 12.160081,3.45 12.5,4 C 12.839919,4.55 12.893034,5 12.618034,5 C 12.343034,5 11.859136,4.5810942 11.542705,4.0690983 z "
       id="path1931" />
    <path
       style="fill:#030107"
       d="M 5.791444,18.309841 C 5.5711375,17.864428 5.2651412,14.750149 5.1114523,11.389219 C 4.8906239,6.5600543 5.164229,5.150957 6.416009,4.670604 C 7.4182115,4.2860228 8,4.6021814 8,5.5313848 C 8,6.3391232 7.55,7 7,7 C 6.45,7 6,7.4765576 6,8.059017 C 6,8.6414763 6.4448455,8.8431043 6.9885456,8.5070792 C 7.5485419,8.1609825 7.7269915,8.5478739 7.4001798,9.3995314 C 6.9325764,10.618086 7.5505277,10.820069 10.661634,10.465564 C 14.523324,10.025533 13.797343,10.59275 8,12.54513 L 5.5,13.387059 L 7.925861,13.971113 C 9.2600846,14.292342 10.555964,15.167892 10.805593,15.916779 C 11.105588,16.816763 10.825017,17.009889 9.978028,16.486421 C 9.1955865,16.002845 8.2089452,16.361347 7.4442968,17.407066 C 6.7555343,18.349005 6.0117506,18.755253 5.791444,18.309841 z M 17.463776,7.0586116 C 17.783772,6.5408479 16.122829,5.9444662 13.772793,5.7333188 L 9.5,5.3494144 L 13.809017,5.1747072 C 16.960099,5.046948 17.916229,4.6640955 17.367059,3.75 C 16.863652,2.9120792 17.177925,2.9558185 18.320373,3.8826787 C 19.625517,4.9415331 19.758897,5.5855849 18.889886,6.6326787 C 17.603336,8.1828776 16.580058,8.4884974 17.463776,7.0586116 z "
       id="path1929" />
  </g>
</svg>
