<?xml version="1.0" encoding="UTF-8" standalone="no"?>
<!-- Created with Inkscape (http://www.inkscape.org/) -->
<svg
   xmlns:dc="http://purl.org/dc/elements/1.1/"
   xmlns:cc="http://web.resource.org/cc/"
   xmlns:rdf="http://www.w3.org/1999/02/22-rdf-syntax-ns#"
   xmlns:svg="http://www.w3.org/2000/svg"
   xmlns="http://www.w3.org/2000/svg"
   xmlns:xlink="http://www.w3.org/1999/xlink"
   xmlns:sodipodi="http://sodipodi.sourceforge.net/DTD/sodipodi-0.dtd"
   xmlns:inkscape="http://www.inkscape.org/namespaces/inkscape"
   id="svg2"
   sodipodi:version="0.32"
   inkscape:version="0.44"
   width="20"
   height="20"
   version="1.0"
   sodipodi:docbase="/home/kde4/Developpements/C++/ksirk/ksirk/skins/default/Images"
   sodipodi:docname="bluedice1.svg">
  <metadata
     id="metadata7">
    <rdf:RDF>
      <cc:Work
         rdf:about="">
        <dc:format>image/svg+xml</dc:format>
        <dc:type
           rdf:resource="http://purl.org/dc/dcmitype/StillImage" />
      </cc:Work>
    </rdf:RDF>
  </metadata>
  <defs
     id="defs5" />
  <sodipodi:namedview
     inkscape:window-height="582"
     inkscape:window-width="928"
     inkscape:pageshadow="2"
     inkscape:pageopacity="0.0"
     guidetolerance="10.0"
     gridtolerance="10.0"
     objecttolerance="10.0"
     borderopacity="1.0"
     bordercolor="#666666"
     pagecolor="#ffffff"
     id="base"
     inkscape:zoom="18.95"
     inkscape:cx="10"
     inkscape:cy="9.9736148"
     inkscape:window-x="666"
     inkscape:window-y="0"
     inkscape:current-layer="svg2" />
  <g
     id="g2008">
    <path
       style="fill:#fefefe"
       d="M 0.090188267,16.25 L 0.18037653,12.5 L 1.153967,15.88579 L 2.1275574,19.27158 L 8.2106287,18.635774 C 11.556318,18.28608 15.577618,17.359464 17.14685,16.576628 C 19.891041,15.207645 20,15.245835 20,17.576645 C 20,19.979561 19.91566,20 10,20 L 0,20 L 0.090188267,16.25 z M 17.909163,7.75 C 16.626826,2.1789073 16.184141,1.4666614 13.833818,1.1930863 C 12.383611,1.0242837 8.6777358,1.5440643 5.5985393,2.3481542 C 0.24804949,3.7453612 -2.2289304e-15,3.7257297 -1.1397133e-15,1.9050679 C -9.4912031e-17,0.15864855 0.83277109,0 10,0 L 20,0 L 20,7 C 20,10.85 19.853248,14 19.673884,14 C 19.49452,14 18.700396,11.1875 17.909163,7.75 z "
       id="path2024" />
    <path
       style="fill:#a0cacb"
       d="M 1.4760815,16.924639 C 0.5304271,13.945146 1.3166618,13.71278 2.6663985,16.57285 C 3.2963858,17.907782 3.4344927,19 2.9733027,19 C 2.5121126,19 1.8383631,18.066088 1.4760815,16.924639 z M 7.2708333,18.395833 C 7.603125,18.063542 8.465625,18.028015 9.1875,18.316886 C 9.9852327,18.636112 9.7482763,18.873069 8.5833333,18.921053 C 7.5291667,18.964474 6.9385417,18.728125 7.2708333,18.395833 z M 12.270833,17.395833 C 12.603125,17.063542 13.465625,17.028015 14.1875,17.316886 C 14.985233,17.636112 14.748276,17.873069 13.583333,17.921053 C 12.529167,17.964474 11.938542,17.728125 12.270833,17.395833 z M 18.513239,13.75 C 17.123765,9.6535884 15.244753,0.85903113 15.918981,1.6077979 C 16.826683,2.6158484 20.005872,15 19.356951,15 C 19.126105,15 18.746434,14.4375 18.513239,13.75 z M 0.15789474,11 C 0.15789474,9.625 0.38486842,9.0625 0.6622807,9.75 C 0.93969298,10.4375 0.93969298,11.5625 0.6622807,12.25 C 0.38486842,12.9375 0.15789474,12.375 0.15789474,11 z M 0.73333333,3.8759123 C 1.4116667,3.1924939 2.2185743,2.885241 2.5264614,3.1931281 C 2.8343485,3.5010152 2.2793485,4.0601757 1.2931281,4.4357071 C -0.13207038,4.9783917 -0.24693394,4.8635281 0.73333333,3.8759123 z M 9.2708333,1.3958333 C 9.603125,1.0635417 10.465625,1.0280154 11.1875,1.316886 C 11.985233,1.6361123 11.748276,1.8730687 10.583333,1.9210526 C 9.5291667,1.9644737 8.9385417,1.728125 9.2708333,1.3958333 z "
       id="path2022" />
    <path
       style="fill:#57e6d4"
       d="M 4.3787404,14.544598 C 3.4093783,12.018481 5.3647606,10.586339 7.7496366,12.075718 C 10.501463,13.794262 13.218307,12.55598 12.820137,9.7646864 C 12.413046,6.9108586 9.423252,6.306987 6.9194654,8.5728828 C 4.7901313,10.499904 3.4206612,9.9521161 4.3450766,7.5431281 C 4.6707612,6.6944076 5.8513536,6 6.9686152,6 C 8.0858768,6 9,5.55 9,5 C 9,3.4982446 12.586931,3.7973555 13.925946,5.4107702 C 15.445733,7.2420012 16.472851,13.59028 15.360212,14.275497 C 14.887095,14.566865 12.367685,15.124391 9.761523,15.514444 C 5.8288941,16.103024 4.9134722,15.938087 4.3787404,14.544598 z "
       id="path2020" />
    <path
       style="fill:#52dbd1"
       d="M 8,16 C 11.41917,14.90499 14.048225,14.90499 11.5,16 C 10.4,16.472686 8.6,16.846202 7.5,16.830035 C 5.8922149,16.806404 5.9902686,16.643629 8,16 z M 1.4970274,11.5 C 1.8593644,9.85 2.8249061,7.7573627 3.6426758,6.849695 C 5.3132333,4.9954917 9,3.7391447 9,5.0240687 C 9,5.4843248 7.9920971,6.004696 6.7602157,6.180449 C 5.5150023,6.3581041 4.3598463,7.3418738 4.1587921,8.3959087 C 3.8900112,9.8050031 4.2166675,10.130834 5.4309618,9.664866 C 6.8622973,9.1156111 6.8438846,9.3339133 5.2823854,11.4264 C 4.3020734,12.740067 3.3330271,13.355617 3.1289491,12.79429 C 2.9128969,12.200027 2.3569484,12.343123 1.7980656,13.136847 C 1.1441051,14.065601 1.0481726,13.543983 1.4970274,11.5 z "
       id="path2018" />
    <path
       style="fill:#4ad6cc"
       d="M 12.680873,15.538198 C 15.164919,14.457764 15.951365,13.425765 16.270836,10.82734 L 16.679926,7.5 L 16.839963,10.693296 C 17.00642,14.014703 14.198823,17.042123 11.027494,16.960858 C 10.187372,16.93933 10.931393,16.299133 12.680873,15.538198 z M 2.4588815,13.933469 C 2.0963476,13.346877 2.0141976,12.652469 2.2763259,12.390341 C 2.5384542,12.128212 3.019392,12.608151 3.3450766,13.456872 C 4.0212606,15.218979 3.4449308,15.52893 2.4588815,13.933469 z M 1.0789474,9.2851838 C 1.031396,7.9511627 1.8947871,6.6008258 3.25,5.8896746 C 5.3922986,4.7654981 5.4224784,4.7997145 3.8804878,6.6044908 C 2.9897561,7.6470209 2.0127824,9.175 1.7094352,10 C 1.343202,10.996028 1.1313699,10.755863 1.0789474,9.2851838 z M 9.2708333,3.3958333 C 9.603125,3.0635417 10.465625,3.0280154 11.1875,3.316886 C 11.985233,3.6361123 11.748276,3.8730687 10.583333,3.9210526 C 9.5291667,3.9644737 8.9385417,3.728125 9.2708333,3.3958333 z "
       id="path2016" />
    <path
       style="fill:#48b4b0"
       d="M 4.2708333,18.395833 C 4.603125,18.063542 5.465625,18.028015 6.1875,18.316886 C 6.9852327,18.636112 6.7482763,18.873069 5.5833333,18.921053 C 4.5291667,18.964474 3.9385417,18.728125 4.2708333,18.395833 z M 9.2708333,17.395833 C 9.603125,17.063542 10.465625,17.028015 11.1875,17.316886 C 11.985233,17.636112 11.748276,17.873069 10.583333,17.921053 C 9.5291667,17.964474 8.9385417,17.728125 9.2708333,17.395833 z M 2,15.333333 C 2,14.416667 2.3375,14.073932 2.75,14.5717 C 3.1625,15.069468 3.95,15.812577 4.5,16.223054 C 5.070676,16.648961 4.7486831,16.975949 3.75,16.984687 C 2.7772082,16.993199 2,16.259802 2,15.333333 z M 13.270833,16.395833 C 13.603125,16.063542 14.465625,16.028015 15.1875,16.316886 C 15.985233,16.636112 15.748276,16.873069 14.583333,16.921053 C 13.529167,16.964474 12.938542,16.728125 13.270833,16.395833 z M 17.623539,14.461341 C 17.280592,13.567637 17.038679,12.085729 17.085953,11.168213 C 17.133227,10.250696 17.568347,10.82738 18.052886,12.449733 C 18.995547,15.605987 18.662167,17.167963 17.623539,14.461341 z M -1.3484975e-17,6.559017 C -2.0901711e-17,5.7664763 0.40803356,4.8658554 0.90674124,4.5576371 C 1.4054489,4.2494188 1.5779648,4.8978611 1.2901099,5.9986201 C 0.67949697,8.3336074 5.8841113e-18,8.6287668 -1.3484975e-17,6.559017 z M 15.158187,5.4478379 C 14.516505,4.0395 13.618407,3.1178033 13.162413,3.3996231 C 12.706419,3.6814429 12.333333,3.2382654 12.333333,2.4147842 C 12.333333,-0.21167938 15.325634,1.3858241 16.145018,4.4497332 C 17.156724,8.2327909 16.657265,8.7379556 15.158187,5.4478379 z M 4,4 C 3.0987081,3.4175404 2.9753674,3.0245136 3.690983,3.0153128 C 4.3460237,3.0068907 5.1600813,3.45 5.5,4 C 6.2673048,5.2415252 5.9211232,5.2415252 4,4 z "
       id="path2014" />
    <path
       style="fill:#39b1b2"
       d="M 4.25,17.310674 C 5.2125,17.059147 6.7875,17.059147 7.75,17.310674 C 8.7125,17.562202 7.925,17.767997 6,17.767997 C 4.075,17.767997 3.2875,17.562202 4.25,17.310674 z M 15.5,15 C 16.299679,13.706093 18,13.706093 18,15 C 18,15.55 17.298442,16 16.440983,16 C 15.583524,16 15.160081,15.55 15.5,15 z M 1.1742057,5.9670085 C 1.7735489,4.1561732 11.719418,1.314937 12.982754,2.5936607 C 13.515917,3.133317 12.336843,3.5575374 10.068409,3.6422167 C 7.9730302,3.7204359 5.0053867,4.6055897 3.4736453,5.6092252 C 1.3022706,7.0319646 0.79564001,7.1107942 1.1742057,5.9670085 z "
       id="path2012" />
    <path
       style="fill:#102c29"
       d="M 8,10 C 8,8.4938514 8.522151,7.9539088 9.75,8.1903709 C 12.021113,8.6277472 12.021113,11.372253 9.75,11.809629 C 8.522151,12.046091 8,11.506149 8,10 z "
       id="path2010" />
  </g>
</svg>
