<?xml version="1.0" encoding="UTF-8" standalone="no"?>
<!-- Created with Inkscape (http://www.inkscape.org/) -->
<svg
   xmlns:dc="http://purl.org/dc/elements/1.1/"
   xmlns:cc="http://web.resource.org/cc/"
   xmlns:rdf="http://www.w3.org/1999/02/22-rdf-syntax-ns#"
   xmlns:svg="http://www.w3.org/2000/svg"
   xmlns="http://www.w3.org/2000/svg"
   xmlns:xlink="http://www.w3.org/1999/xlink"
   xmlns:sodipodi="http://sodipodi.sourceforge.net/DTD/sodipodi-0.dtd"
   xmlns:inkscape="http://www.inkscape.org/namespaces/inkscape"
   id="svg38"
   sodipodi:version="0.32"
   inkscape:version="0.44"
   width="20"
   height="20"
   version="1.0"
   sodipodi:docbase="/home/kde4/Developpements/C++/ksirk/ksirk/skins/default/Images"
   sodipodi:docname="moveFinish.svg">
  <metadata
     id="metadata43">
    <rdf:RDF>
      <cc:Work
         rdf:about="">
        <dc:format>image/svg+xml</dc:format>
        <dc:type
           rdf:resource="http://purl.org/dc/dcmitype/StillImage" />
      </cc:Work>
    </rdf:RDF>
  </metadata>
  <defs
     id="defs41" />
  <sodipodi:namedview
     inkscape:window-height="582"
     inkscape:window-width="928"
     inkscape:pageshadow="2"
     inkscape:pageopacity="0.0"
     guidetolerance="10.0"
     gridtolerance="10.0"
     objecttolerance="10.0"
     borderopacity="1.0"
     bordercolor="#666666"
     pagecolor="#ffffff"
     id="base"
     inkscape:zoom="18.95"
     inkscape:cx="10"
     inkscape:cy="9.9736148"
     inkscape:window-x="0"
     inkscape:window-y="0"
     inkscape:current-layer="svg38" />
  <g
     id="g2062">
    <path
       style="fill:#9ec2ca"
       d="M 6.7333333,18.875912 C 7.4116667,18.192494 8.2185743,17.885241 8.5264614,18.193128 C 8.8343485,18.501015 8.2793485,19.060176 7.2931281,19.435707 C 5.8679296,19.978392 5.7530661,19.863528 6.7333333,18.875912 z M 3.5,11 C 3.1600813,10.45 3.3585237,10 3.940983,10 C 4.5234424,10 5,10.45 5,11 C 5,12.281385 4.2919395,12.281385 3.5,11 z M 8.1432373,3.1096872 C 7.3089796,2.5810756 7.1723479,2.0115171 7.7884525,1.6307436 C 8.3395403,1.2901525 9.0484604,1.6839025 9.3638304,2.5057436 C 10.02646,4.2325287 9.9640482,4.2634098 8.1432373,3.1096872 z "
       id="path2078" />
    <path
       style="fill:#cca8af"
       d="M 0,18.454545 C 0,17.604545 1.125,15.784091 2.5,14.409091 C 3.875,13.034091 5,12.309801 5,12.799558 C 5,13.289315 4.1,14.504514 3,15.5 C 0.99464711,17.314819 0.18382509,19.622458 1.9309017,18.542705 C 2.4428976,18.226274 3.1444553,18.424717 3.4899187,18.983688 C 3.8377024,19.546414 3.1990826,20 2.059017,20 C 0.86853108,20 0,19.348099 0,18.454545 z M 14.642413,16.418565 C 12.252509,13.42333 11.35236,12.943136 9.1424132,13.484535 C 6.6046171,14.106252 6.579183,14.07232 8.5,12.627483 C 10.359399,11.228844 10.798776,11.414596 14.75,15.26975 C 19.714559,20.113601 20.52088,19.20865 15.75,14.14743 C 12.406712,10.600681 13.745752,10.718282 17.75,14.32308 C 20.174026,16.505294 20.789631,20.000019 18.75,19.999971 C 18.0625,19.999954 16.214086,18.388322 14.642413,16.418565 z M 4,17.059017 C 4,16.541476 4.4448455,15.843104 4.9885456,15.507079 C 5.5554057,15.15674 5.7230531,15.558137 5.3815568,16.448062 C 4.7167659,18.180479 4,18.497449 4,17.059017 z M 6.5070792,9.0114544 C 6.1567404,8.4445943 6.5581371,8.2769469 7.4480622,8.6184432 C 9.1804795,9.2832341 9.4974491,10 8.059017,10 C 7.5414763,10 6.8431043,9.5551545 6.5070792,9.0114544 z M 12,8.5 C 12.684689,7.675 13.671932,7 14.193873,7 C 14.715814,7 14.467857,7.675 13.642857,8.5 C 11.693436,10.449421 10.382124,10.449421 12,8.5 z M 8.6666667,7.3333333 C 7.3583315,6.0249982 8.0325705,5.1957566 9.9887526,5.7073097 C 11.082567,5.9933485 11.731009,6.6262197 11.429736,7.1136901 C 10.779692,8.1654835 9.5931389,8.2598056 8.6666667,7.3333333 z M 2.1090914,4.1532048 C -0.39692183,0.6338337 -0.48987719,0 1.5,0 C 3.0702289,0 7.4767346,3.8565988 6.7438692,4.5894641 C 6.5113306,4.8220027 5.5040862,4.1095027 4.5055483,3.0061308 C 3.5070104,1.9027589 2.231328,1 1.6706984,1 C 1.1100689,1 1.7065876,2.1232256 2.9962957,3.4960569 C 4.2860038,4.8688883 5.0885362,6.2447971 4.7797011,6.5536322 C 4.4708661,6.8624673 3.2690917,5.7822749 2.1090914,4.1532048 z M 16.816116,3.9612165 C 18.089979,2.7719412 18.875705,1.5423714 18.562172,1.2288391 C 18.24864,0.91530692 16.952385,1.6355549 15.681606,2.8293903 C 14.410826,4.0232256 12.99689,5 12.539526,5 C 12.082162,5 12.92185,3.875 14.405499,2.5 C 16.850342,0.23419627 20,-0.85477545 20,0.56574145 C 20,2.0449965 17.871052,4.8352155 16.27778,5.4441186 C 14.962471,5.9467922 15.102513,5.5610309 16.816116,3.9612165 z "
       id="path2076" />
    <path
       style="fill:#a5b5c8"
       d="M 10,19.616631 C 10,19.405779 10.9,18.997907 12,18.710251 C 13.1,18.422595 14,18.59511 14,19.09362 C 14,19.592129 13.1,20 12,20 C 10.9,20 10,19.827484 10,19.616631 z M 8.5,17 C 8.1600813,16.45 8.3585237,16 8.940983,16 C 9.5234424,16 10,16.45 10,17 C 10,18.281385 9.2919395,18.281385 8.5,17 z M 10.656295,15.79367 C 10.338962,14.580189 10.32327,13.343396 10.621424,13.045242 C 11.405482,12.261185 14.036168,16.132462 13.40895,17.147322 C 12.474059,18.660008 11.248217,18.057185 10.656295,15.79367 z M 2.5642929,12.706872 C 2.9398243,11.720651 3.4989848,11.165651 3.8068719,11.473539 C 4.114759,11.781426 3.8075061,12.588333 3.1240877,13.266667 C 2.1364719,14.246934 2.0216083,14.13207 2.5642929,12.706872 z M 17.603006,12.833333 C 18.270485,11.753329 20,11.753329 20,12.833333 C 20,13.291667 19.344795,13.666667 18.543989,13.666667 C 17.743182,13.666667 17.31974,13.291667 17.603006,12.833333 z M 13.573089,10.118261 C 13.337193,9.7365728 14.236745,9.3338596 15.572093,9.2233427 C 16.907442,9.1128259 18,9.1898782 18,9.3945702 C 18,10.137931 13.990354,10.793409 13.573089,10.118261 z M 2.4899187,5.9836881 C 2.1444553,5.4247166 1.4428976,5.2262742 0.9309017,5.5427051 C 0.41890576,5.859136 8.7603536e-18,5.893034 1.4615045e-16,5.618034 C 8.229911e-16,4.2632699 1.9170199,4.1950888 3.0091379,5.5110105 C 3.6888012,6.3299547 3.991347,7 3.6814617,7 C 3.3715765,7 2.8353821,6.5426596 2.4899187,5.9836881 z M 6.9394109,3.272578 C 5.794572,1.7614946 5.8032488,1.6844028 6.9982282,2.75 C 9.0578556,4.5866286 9.9900335,4.2840441 10.078947,1.75 C 10.122368,0.5125 10.384868,0.0625 10.662281,0.75 C 10.939693,1.4375 11.894167,2 12.783333,2 C 14.814852,2 13.288596,3.5377617 10.391183,4.4101834 C 8.9848743,4.833628 7.8349881,4.4546584 6.9394109,3.272578 z "
       id="path2074" />
    <path
       style="fill:#99b8c5"
       d="M 16.729167,12.395833 C 15.403115,11.069781 15.970564,10 18,10 C 19.1,10 20,10.476558 20,11.059017 C 20,11.641476 19.588435,11.863673 19.08541,11.552786 C 18.582386,11.2419 18.010511,11.468468 17.814577,12.056269 C 17.618643,12.644071 17.130208,12.796875 16.729167,12.395833 z M 0,8 C 0,6.9 0.47655765,6 1.059017,6 C 1.6414763,6 1.7926561,6.5264724 1.3949721,7.1699387 C 0.91337208,7.9491839 1.2106004,8.1331626 2.2850276,7.7208663 C 3.4177342,7.2862059 3.7325415,7.5334108 3.3420837,8.5509275 C 2.5119644,10.714184 0,10.300098 0,8 z M 17.584097,7.3585565 C 17.05743,5.9860844 17.203761,5.9242171 18.477108,6.9810012 C 20.212353,8.4211268 20.392948,9 19.106989,9 C 18.615833,9 17.930531,8.2613504 17.584097,7.3585565 z M 4.5,1 C 4.1349439,0.40932687 5.2364356,0.00626793 7.190983,0.015312775 C 9.6953551,0.026901982 10.135249,0.26634577 9,1 C 7.0560738,2.2562616 5.2764124,2.2562616 4.5,1 z "
       id="path2072" />
    <path
       style="fill:#a6b4b8"
       d="M 15,18 C 14.411298,16.9 14.154632,16 14.429632,16 C 14.704632,16 15.411298,16.9 16,18 C 16.588702,19.1 16.845368,20 16.570368,20 C 16.295368,20 15.588702,19.1 15,18 z M 18.458881,14.933469 C 18.096348,14.346877 18.014198,13.652469 18.276326,13.390341 C 18.538454,13.128212 19.019392,13.608151 19.345077,14.456872 C 20.021261,16.218979 19.444931,16.52893 18.458881,14.933469 z M 0.15789474,12 C 0.15789474,10.625 0.38486842,10.0625 0.6622807,10.75 C 0.93969298,11.4375 0.93969298,12.5625 0.6622807,13.25 C 0.38486842,13.9375 0.15789474,13.375 0.15789474,12 z M 13.506739,9.0109047 C 12.784683,7.8425925 16.172148,6.7721478 17.233304,7.833304 C 17.76513,8.3651296 17.288915,8.95269 16.067083,9.2722065 C 14.931283,9.5692249 13.779128,9.4516391 13.506739,9.0109047 z M 19.078947,3.5833333 C 19.035526,2.5291667 19.271875,1.9385417 19.604167,2.2708333 C 19.936458,2.603125 19.971985,3.465625 19.683114,4.1875 C 19.363888,4.9852327 19.126931,4.7482763 19.078947,3.5833333 z M 13.63948,2.3061468 C 12.548109,1.2147754 12.932584,0.33333333 14.5,0.33333333 C 15.325,0.33333333 16,0.68177569 16,1.1076497 C 16,2.2339621 14.386507,3.0531741 13.63948,2.3061468 z "
       id="path2070" />
    <path
       style="fill:#99aab7"
       d="M 8.3333333,18.418982 C 8.3333333,17.723892 9.1983967,17.345625 10.301973,17.558155 C 13.23162,18.122353 13.373192,18.695506 10.708718,19.204852 C 9.2412017,19.485386 8.3333333,19.185027 8.3333333,18.418982 z M 1,11.622445 C 1,11.414789 1.7875,10.627289 2.75,9.8724447 C 4.3360556,8.6285741 4.3714259,8.6639444 3.1275553,10.25 C 1.8211855,11.915748 1,12.445479 1,11.622445 z M 0.87244472,5.25 C -0.37142595,3.6639444 -0.33605562,3.6285741 1.25,4.8724447 C 2.915748,6.1788145 3.4454789,7 2.6224447,7 C 2.4147893,7 1.6272893,6.2125 0.87244472,5.25 z "
       id="path2068" />
    <path
       style="fill:#952931"
       d="M 1,18.348628 C 1,17.798628 2.1506659,16.267634 3.5570353,14.946418 C 4.9634046,13.625203 5.9204516,11.803808 5.6838062,10.898875 C 5.3562267,9.6462089 5.7602611,9.3825486 7.376771,9.7940991 C 9.0106964,10.210084 8.5288683,9.3275843 5.2859805,5.964681 C 0.95358758,1.4719515 0.17758355,-1.0606994 4.3281301,2.8385366 C 5.6042643,4.0374024 7.0246363,4.6766768 7.4845124,4.2591463 C 7.9443884,3.8416158 8.028459,4.0115119 7.6713358,4.6366932 C 7.3142126,5.2618744 7.7121207,6.3461183 8.5555759,7.0461239 C 9.8451972,8.1164145 10.685239,7.7367771 13.836728,4.6594308 C 19.23074,-0.60768077 20.262525,0.13787755 15,5.5 C 11.758307,8.8030444 11.053648,10 12.350809,10 C 13.322783,10 13.882477,10.381139 13.594575,10.846975 C 13.306672,11.312811 14.405114,12.972002 16.035558,14.534066 C 17.666001,16.09613 19,17.833685 19,18.395299 C 19,18.956913 17.065298,17.517649 14.700662,15.196935 L 10.401324,10.977453 L 7.9506619,13.155346 C 6.6027978,14.353186 4.4875,16.2367 3.25,17.340933 C 2.0125,18.445165 1,18.898628 1,18.348628 z "
       id="path2066" />
    <path
       style="fill:#090305"
       d="M 5.6280337,18.207163 C 4.6675086,16.653001 7.5659851,13.619475 9.3553924,14.306135 C 10.259927,14.653238 11,15.427911 11,16.027632 C 11,16.627353 10.481733,16.797728 9.8482961,16.406242 C 9.214859,16.014756 8.1330593,16.465127 7.4442968,17.407066 C 6.7555343,18.349005 5.9382159,18.709048 5.6280337,18.207163 z M 5.2984906,9.5 C 5.3179236,7.3 5.51777,6.2930093 5.7425936,7.262243 C 5.982294,8.2956114 6.6370691,8.7332239 7.3256819,8.3202846 C 8.2045407,7.7932607 8.2192822,7.9788809 7.3842726,9.0580416 C 6.7706225,9.8511187 6.0423331,11.175 5.7658515,12 C 5.48937,12.825 5.2790576,11.7 5.2984906,9.5 z M 17.566212,6.8928661 C 18.029985,6.1424659 17.485127,5.9948002 15.875229,6.4345812 L 13.5,7.0834304 L 15.781364,5.7397459 C 17.036114,5.0007194 17.711114,3.9842831 17.281364,3.4809984 C 16.851614,2.9777137 17.293049,3.1733053 18.262331,3.9156463 C 19.615095,4.951683 19.760939,5.5831244 18.889886,6.6326787 C 17.529667,8.2716435 16.6013,8.4541274 17.566212,6.8928661 z M 9.75,5.3377193 C 10.4375,5.060307 11.5625,5.060307 12.25,5.3377193 C 12.9375,5.6151316 12.375,5.8421053 11,5.8421053 C 9.625,5.8421053 9.0625,5.6151316 9.75,5.3377193 z "
       id="path2064" />
  </g>
</svg>
