<?xml version="1.0" encoding="UTF-8" standalone="no"?>
<!-- Created with Inkscape (http://www.inkscape.org/) -->
<svg
   xmlns:dc="http://purl.org/dc/elements/1.1/"
   xmlns:cc="http://web.resource.org/cc/"
   xmlns:rdf="http://www.w3.org/1999/02/22-rdf-syntax-ns#"
   xmlns:svg="http://www.w3.org/2000/svg"
   xmlns="http://www.w3.org/2000/svg"
   xmlns:xlink="http://www.w3.org/1999/xlink"
   xmlns:sodipodi="http://sodipodi.sourceforge.net/DTD/sodipodi-0.dtd"
   xmlns:inkscape="http://www.inkscape.org/namespaces/inkscape"
   id="svg11"
   sodipodi:version="0.32"
   inkscape:version="0.44"
   width="80"
   height="20"
   version="1.0"
   sodipodi:docbase="/home/kde4/Developpements/C++/games/ksirk/ksirk/skins/realpol/Images/sprites"
   sodipodi:docname="belgium.svg">
  <metadata
     id="metadata16">
    <rdf:RDF>
      <cc:Work
         rdf:about="">
        <dc:format>image/svg+xml</dc:format>
        <dc:type
           rdf:resource="http://purl.org/dc/dcmitype/StillImage" />
      </cc:Work>
    </rdf:RDF>
  </metadata>
  <defs
     id="defs14" />
  <sodipodi:namedview
     inkscape:window-height="593"
     inkscape:window-width="928"
     inkscape:pageshadow="2"
     inkscape:pageopacity="0.0"
     guidetolerance="10.0"
     gridtolerance="10.0"
     objecttolerance="10.0"
     borderopacity="1.0"
     bordercolor="#666666"
     pagecolor="#ffffff"
     id="base"
     inkscape:zoom="10.525"
     inkscape:cx="40"
     inkscape:cy="9.9524941"
     inkscape:window-x="0"
     inkscape:window-y="0"
     inkscape:current-layer="g2195" />
  <g
     id="g2195">
    <path
       style="fill:#e4e4e3"
       d="M 3.1778325,18.345286 C 2.3348709,17.442893 2.0105994,14.572534 2.2062831,9.7454072 L 2.5,2.5 L 9.9118878,2.2029229 C 17.946322,1.8808934 18.957572,2.4354766 18.984687,7.1785714 C 19.004316,10.612081 16.335947,13.321115 13.631073,12.613774 C 10.272121,11.735389 7,13.001619 7,15.179837 C 7,18.189207 4.7628084,20.042009 3.1778325,18.345286 z M 23.177833,18.345286 C 22.334871,17.442893 22.010599,14.572534 22.206283,9.7454072 L 22.5,2.5 L 25.815324,2.1817695 C 27.638752,2.0067427 29.795324,2.4151709 30.607706,3.0893878 C 31.726486,4.0178927 32.365557,4.0344428 33.242382,3.1576184 C 34.899512,1.5004877 37.682282,1.7296568 38.393011,3.5817875 C 39.543623,6.5802326 38.994002,9.7379072 36.846228,12.46836 C 34.958298,14.868475 34.217712,15.130524 30.846228,14.591401 C 27.745167,14.095522 27,14.283103 27,15.559611 C 27,16.430396 26.424697,17.71816 25.721549,18.421308 C 24.683615,19.459242 24.205063,19.44494 23.177833,18.345286 z M 43.177833,18.345286 C 42.334871,17.442893 42.010599,14.572534 42.206283,9.7454072 L 42.5,2.5 L 49.911888,2.2029229 C 57.946322,1.8808934 58.957572,2.4354766 58.984687,7.1785714 C 59.004316,10.612081 56.335947,13.321115 53.631073,12.613774 C 50.272121,11.735389 47,13.001619 47,15.179837 C 47,18.189207 44.762808,20.042009 43.177833,18.345286 z M 63.112239,18.069368 C 62.299757,17.567226 62.002847,14.90819 62.202923,9.9257914 L 62.5,2.5278072 L 66.033965,1.9564374 C 67.977646,1.642184 70.125668,1.0403668 70.807347,0.61906594 C 71.489026,0.19776505 73.386242,0.44597496 75.023382,1.1706435 C 77.723591,2.3658723 78,2.9298546 78,7.2441114 C 78,11.157189 77.681015,12 76.2,12 C 75.21,12 73.908106,11.508106 73.306902,10.906902 C 71.664409,9.2644087 67,12.667268 67,15.508021 C 67,17.976155 65.045215,19.264012 63.112239,18.069368 z "
       id="path2209" />
    <path
       style="fill:#c3c3c3"
       d="M 3.5153023,17.916992 C 3.1731398,16.553708 3.0297212,12.527177 3.1965943,8.9691468 L 3.5,2.5 L 9.5,2.4178209 C 16.422518,2.3230065 18,3.1733954 18,7 C 18,10.315411 15.805372,12.39039 13.18007,11.557152 C 10.057774,10.566174 6.0021327,12.633678 5.9846872,15.225249 C 5.9762652,16.476362 5.5571838,18.15153 5.0533952,18.947845 C 4.3267773,20.096376 4.0088058,19.883266 3.5153023,17.916992 z M 23.515302,17.916992 C 23.17314,16.553708 23.029721,12.531697 23.196594,8.97919 C 23.446389,3.6613944 23.822368,2.4586494 25.324404,2.1723902 C 26.327826,1.9811573 28.019698,2.6128388 29.084119,3.576127 C 30.73677,5.0717553 31.369222,5.1403578 33.414363,4.0458317 C 34.731575,3.3408811 36.302203,3.0687377 36.904647,3.4410686 C 38.518434,4.4384437 38.236395,9.2174866 36.409848,11.825248 C 35.018763,13.8113 34.26764,14.012722 30.409848,13.43421 C 26.256684,12.811405 25.999109,12.910487 25.984687,15.136456 C 25.976265,16.436405 25.557184,18.15153 25.053395,18.947845 C 24.326777,20.096376 24.008806,19.883266 23.515302,17.916992 z M 43.515302,17.916992 C 43.17314,16.553708 43.029721,12.527177 43.196594,8.9691468 L 43.5,2.5 L 49.5,2.4178209 C 56.422518,2.3230065 58,3.1733954 58,7 C 58,10.315411 55.805372,12.39039 53.18007,11.557152 C 50.057774,10.566174 46.002133,12.633678 45.984687,15.225249 C 45.976265,16.476362 45.557184,18.15153 45.053395,18.947845 C 44.326777,20.096376 44.008806,19.883266 43.515302,17.916992 z M 63.44381,17.714167 C 63.145675,16.937239 63.036353,13.213141 63.200873,9.4383939 C 63.493289,2.7291888 63.567303,2.5592502 66.5,1.8634961 C 68.15,1.4720495 70.402257,0.86897073 71.505015,0.5233211 C 74.317985,-0.35837872 78,3.301886 78,6.9799382 C 78,10.628151 76.491822,11.601175 73.40103,9.9470327 C 71.269536,8.8062921 70.705867,8.9276956 68.496383,11.003398 C 67.123372,12.293275 66,14.368629 66,15.615297 C 66,18.287837 64.223647,19.746389 63.44381,17.714167 z "
       id="path2207" />
    <path
       style="fill:#aeaead"
       d="M 3.6347139,12.632084 C 2.5998916,2.7923742 3.1989309,2.0137292 11.25,2.7335622 L 17,3.2476603 L 17,7.1238301 L 17,11 L 12.69113,11 C 7.260158,11 5.1987445,12.564823 4.787052,17 C 4.573163,19.304233 4.1794692,17.811944 3.6347139,12.632084 z M 23.642744,12.632084 C 22.941371,6.0271076 23.061086,4.5103423 24.388552,3.1828769 C 25.830272,1.7411562 26.244593,1.8047182 29.082696,3.9030185 C 31.350398,5.5796034 32.494808,5.9051925 33.297775,5.1022253 C 35.43021,2.9697903 37,3.9207604 37,7.3450124 C 37,11.391205 33.968311,14.635106 31.287245,13.457648 C 29.612385,12.72209 28.30517,12.576373 26.060365,12.875 C 25.543566,12.94375 24.976167,14.6875 24.799479,16.75 C 24.570707,19.420472 24.237713,18.23503 23.642744,12.632084 z M 43.634714,12.632084 C 42.599892,2.7923742 43.198931,2.0137292 51.25,2.7335622 L 57,3.2476603 L 57,7.1238301 L 57,11 L 52.69113,11 C 47.260158,11 45.198745,12.564823 44.787052,17 C 44.573163,19.304233 44.179469,17.811944 43.634714,12.632084 z M 63.612214,12.147499 C 62.669004,3.8499609 62.980179,3.2482726 69.321262,1.1084851 C 72.689749,-0.028205239 73.371056,0.025826052 75.071262,1.564491 C 76.243967,2.6257749 77,4.6211633 77,6.6549876 C 77,10.087001 75.429469,11.029469 73.284589,8.8845893 C 71.418617,7.0186171 65.186831,12.471482 64.781793,16.324607 C 64.569654,18.34269 64.143387,16.820292 63.612214,12.147499 z "
       id="path2205" />
    <path
       style="fill:#f0e50b"
       d="M 30.45,13.084676 C 29.9275,12.581248 28.375,12.018748 27,11.834676 C 24.905054,11.554225 24.449637,10.891117 24.189156,7.7419634 C 23.842031,3.545311 26.35772,1.4113507 28.394608,4.1746434 C 29.429708,5.5788869 31.46666,5.7985573 35,4.8869868 C 37.557835,4.2270878 37.459507,9.4939942 34.868933,11.90748 C 32.352412,14.251977 31.81117,14.396162 30.45,13.084676 z M 4.1916039,7.2169702 L 4.5,3.5 L 10.5,3.5 L 16.5,3.5 L 16.5,7 L 16.5,10.5 L 10.191604,10.71697 L 3.8832077,10.93394 L 4.1916039,7.2169702 z M 44.191604,7.2169702 L 44.5,3.5 L 50.5,3.5 L 56.5,3.5 L 56.5,7 L 56.5,10.5 L 50.191604,10.71697 L 43.883208,10.93394 L 44.191604,7.2169702 z M 64,7.4870032 C 64,4.3034838 64.430759,3.7647276 68.592891,1.7426075 L 73.185782,-0.48879142 L 75.142689,1.9278861 C 77.426668,4.7484804 77.328333,9.7076626 75,9.123951 C 71.140281,8.1563221 69.096149,8.3070562 68.601625,9.5957665 C 68.305254,10.368095 67.148646,11 66.031385,11 C 64.375037,11 64,10.351425 64,7.4870032 z "
       id="path2203" />
    <path
       style="fill:#fe2116"
       d="M 24.394042,10.584473 C 24.095288,9.8059327 23.996911,7.8934327 24.175426,6.3344727 C 24.411272,4.2748579 25.046739,3.5 26.5,3.5 C 28.13804,3.5 28.555651,4.2691659 28.807498,7.75 C 29.078223,11.491751 28.86519,12 27.026113,12 C 25.877228,12 24.692795,11.363013 24.394042,10.584473 z M 33,8.6069888 C 33,5.0071088 35.60315,2.8022511 36.645701,5.5190948 C 37.528317,7.8191565 36.131831,12 34.480948,12 C 33.463997,12 33,10.936932 33,8.6069888 z M 4.1896347,7.25 C 4.4389379,4.2377848 4.9426709,3.4371307 6.75,3.180449 C 8.7670906,2.8939765 9,3.2821589 9,6.930449 C 9,10.630223 8.7673539,11 6.4396347,11 C 4.0924811,11 3.9051148,10.687723 4.1896347,7.25 z M 13.421445,9.655884 C 12.461735,7.15492 13.398967,3.5 15,3.5 C 16.04065,3.5 16.5,4.5462963 16.5,6.9166667 C 16.5,10.462381 14.435743,12.299102 13.421445,9.655884 z M 44.189635,7.25 C 44.438938,4.2377848 44.942671,3.4371307 46.75,3.180449 C 48.767091,2.8939765 49,3.2821589 49,6.930449 C 49,10.630223 48.767354,11 46.439635,11 C 44.092481,11 43.905115,10.687723 44.189635,7.25 z M 53.421445,9.655884 C 52.461735,7.15492 53.398967,3.5 55,3.5 C 56.04065,3.5 56.5,4.5462963 56.5,6.9166667 C 56.5,10.462381 54.435743,12.299102 53.421445,9.655884 z M 64,7.6047347 C 64,5.1338653 64.582022,3.7588788 65.934259,3.0351838 C 68.912635,1.4412051 69.137243,1.692515 68.807498,6.25 C 68.551875,9.7830239 68.120424,10.553908 66.25,10.819551 C 64.280796,11.099223 64,10.698019 64,7.6047347 z M 74.25,9.2817212 C 73.485567,9.0075112 73.012924,7.0205506 73.033269,4.1666667 L 73.066539,-0.5 L 75.033269,1.860784 C 78.064265,5.499069 77.540432,10.462033 74.25,9.2817212 z "
       id="path2201" />
    <path
       style="fill:#61615e"
       d="M 24.394042,10.584473 C 24.095288,9.8059327 23.996911,7.8934327 24.175426,6.3344727 C 24.411272,4.2748579 25.046739,3.5 26.5,3.5 C 28.13804,3.5 28.555651,4.2691659 28.807498,7.75 C 29.078223,11.491751 28.86519,12 27.026113,12 C 25.877228,12 24.692795,11.363013 24.394042,10.584473 z M 4.1896347,7.25 C 4.4389379,4.2377848 4.9426709,3.4371307 6.75,3.180449 C 8.7670906,2.8939765 9,3.2821589 9,6.930449 C 9,10.630223 8.7673539,11 6.4396347,11 C 4.0924811,11 3.9051148,10.687723 4.1896347,7.25 z M 44.189635,7.25 C 44.438938,4.2377848 44.942671,3.4371307 46.75,3.180449 C 48.767091,2.8939765 49,3.2821589 49,6.930449 C 49,10.630223 48.767354,11 46.439635,11 C 44.092481,11 43.905115,10.687723 44.189635,7.25 z M 64,7.6047347 C 64,5.1338653 64.582022,3.7588788 65.934259,3.0351838 C 68.912635,1.4412051 69.137243,1.692515 68.807498,6.25 C 68.551875,9.7830239 68.120424,10.553908 66.25,10.819551 C 64.280796,11.099223 64,10.698019 64,7.6047347 z "
       id="path2199" />
    <path
       style="fill:#10100a"
       d="M 5,7 C 5,5 5.5,4 6.5,4 C 7.5,4 8,5 8,7 C 8,9 7.5,10 6.5,10 C 5.5,10 5,9 5,7 z M 25,6.9166667 C 25,3.0907009 27.355544,3.4339868 27.816422,7.3271189 C 28.040671,9.2213889 27.676545,10 26.566422,10 C 25.483212,10 25,9.0488497 25,6.9166667 z M 45,7 C 45,5 45.5,4 46.5,4 C 47.5,4 48,5 48,7 C 48,9 47.5,10 46.5,10 C 45.5,10 45,9 45,7 z M 65,7.0833333 C 65,4.9511503 65.483212,4 66.566422,4 C 67.676545,4 68.040671,4.7786111 67.816422,6.6728811 C 67.355544,10.566013 65,10.909299 65,7.0833333 z "
       id="path2197" />
  </g>
</svg>
