<?xml version="1.0" encoding="UTF-8" standalone="no"?>
<!-- Created with Inkscape (http://www.inkscape.org/) -->
<svg
   xmlns:dc="http://purl.org/dc/elements/1.1/"
   xmlns:cc="http://web.resource.org/cc/"
   xmlns:rdf="http://www.w3.org/1999/02/22-rdf-syntax-ns#"
   xmlns:svg="http://www.w3.org/2000/svg"
   xmlns="http://www.w3.org/2000/svg"
   xmlns:xlink="http://www.w3.org/1999/xlink"
   xmlns:sodipodi="http://sodipodi.sourceforge.net/DTD/sodipodi-0.dtd"
   xmlns:inkscape="http://www.inkscape.org/namespaces/inkscape"
   id="svg20"
   sodipodi:version="0.32"
   inkscape:version="0.44"
   width="35"
   height="59"
   version="1.0"
   sodipodi:docbase="/home/kde4/Developpements/C++/games/ksirk/ksirk/skins/realpol/Images/sprites"
   sodipodi:docname="cannon.svg">
  <metadata
     id="metadata25">
    <rdf:RDF>
      <cc:Work
         rdf:about="">
        <dc:format>image/svg+xml</dc:format>
        <dc:type
           rdf:resource="http://purl.org/dc/dcmitype/StillImage" />
      </cc:Work>
    </rdf:RDF>
  </metadata>
  <defs
     id="defs23" />
  <sodipodi:namedview
     inkscape:window-height="593"
     inkscape:window-width="928"
     inkscape:pageshadow="2"
     inkscape:pageopacity="0.0"
     guidetolerance="10.0"
     gridtolerance="10.0"
     objecttolerance="10.0"
     borderopacity="1.0"
     bordercolor="#666666"
     pagecolor="#ffffff"
     id="base"
     inkscape:zoom="6.4237288"
     inkscape:cx="17.5"
     inkscape:cy="29.422164"
     inkscape:window-x="0"
     inkscape:window-y="524"
     inkscape:current-layer="g2285" />
  <g
     id="g2285">
    <path
       style="fill:#e7e8e6"
       d="M 10.33281,53.914052 C 9.609501,50.297505 8.2818484,49.562144 4.8389751,50.871122 C 0.57157366,52.493585 -0.35698383,51.036556 0.94562185,44.761938 C 2.4246343,37.637573 3.8081907,35.88359 8.5816862,35.081427 C 12.19281,34.474596 12.475023,34.195023 12.181408,31.51538 C 12.006183,29.916204 10.543683,27.105376 8.9314081,25.269097 C 7.3191336,23.432818 6,21.256943 6,20.433819 C 6,19.610695 5.2125,18.639033 4.25,18.274569 C -1.8674185,15.958125 -0.98321053,9 5.4285714,9 C 7.3072713,9 8,8.4771099 8,7.059017 C 8,5.9914763 7.55,4.8399187 7,4.5 C 6.45,4.1600813 6,3.18474 6,2.332575 C 6,1.1896183 6.6397206,0.94374358 8.4387146,1.3952623 C 9.7800076,1.7319055 11.156565,1.5556891 11.497732,1.0036704 C 11.838898,0.45165167 13.666476,4.9447425e-15 15.559017,3.1901565e-15 C 18.715665,2.6360893e-16 19,0.24789592 19,3 C 19,5.6879202 19.322357,6 22.09879,6 C 27.353073,6 32,12.579063 32,20.018011 C 32,22.431474 29.672224,23.130299 25.952413,21.833566 C 24.185064,21.217465 22.485557,21.127983 22.005682,21.625764 C 20.568422,23.116648 20.365478,29.453506 21.75,29.609323 C 22.4375,29.686695 23.45,29.80625 24,29.875 C 24.55,29.94375 25,30.9 25,32 C 25,33.1 24.55,34 24,34 C 22.552481,34 22.768971,36.990559 24.25,37.453472 C 24.9375,37.668358 27.144052,38.116474 29.153449,38.449287 C 35.446738,39.491631 35.504088,45.028592 29.237629,46.576657 C 26.529522,47.245667 25.414964,48.096988 25.191282,49.667335 C 25.021487,50.85937 23.805474,52.99687 22.489031,54.417335 C 20.587857,56.468736 19.154865,57 15.522749,57 C 11.213615,57 10.91442,56.822098 10.33281,53.914052 z "
       id="path2299" />
    <path
       style="fill:#d6d8d5"
       d="M 11.354485,54.022426 C 10.532372,49.911858 8.8603116,48.722412 5.6303205,49.950452 C 1.5538015,51.500342 -0.22934028,50.326552 0.5757954,46.623208 C 2.1664817,39.306603 5.2351531,35.623174 9.8044874,35.545702 C 12.123703,35.50638 12.544993,35.029568 12.822295,32.130179 C 13.062917,29.614305 12.508866,28.093843 10.635913,26.130179 C 9.2561413,24.68358 7.6511883,22.239991 7.0693513,20.699979 C 6.4223652,18.98753 4.8439918,17.492974 3.0057329,16.852154 C 0.82218796,16.090966 -1.434263e-15,15.165692 -1.7880662e-15,13.469563 C -2.3168479e-15,10.934588 2.3513149,9.6135393 7.75,9.1153497 C 9.2370654,8.9781237 9.431703,5.3848411 8,4.5 C 6.1744133,3.3717254 6.9650665,2 9.440983,2 C 10.783524,2 12.160081,1.55 12.5,1 C 12.839919,0.45 14.216476,4.9447425e-15 15.559017,3.1901565e-15 C 17.604554,5.1681461e-16 18,0.48600871 18,3 C 18,5.6967675 18.862046,6.5101923 21.29051,6.1049177 C 22.713933,5.8673696 26.46852,8.2735904 28,10.404861 C 28.825,11.552965 30.011302,14.168941 30.636226,16.218141 C 32.129076,21.113374 30.473513,22.85299 26.061261,21.025375 C 23.002535,19.758409 21.004415,20.264559 20.993839,22.309017 C 20.990451,22.964058 20.358641,24.70569 19.589817,26.179311 C 18.05799,29.115395 18.409414,30 21.10765,30 C 23.585388,30 24.287149,31.567339 22.844041,33.878122 C 21.870384,35.437194 21.886615,36.158453 22.923471,37.407788 C 23.640199,38.271393 24.555356,38.774805 24.957153,38.526481 C 25.35895,38.278157 27.332962,38.529263 29.343846,39.084495 C 32.26379,39.890731 33,40.580186 33,42.50846 C 33,44.472979 32.265839,45.120601 29.060308,45.983761 C 26.381089,46.7052 24.905407,47.757342 24.447964,49.272305 C 23.211372,53.367658 18.90576,57 15.287909,57 C 12.384708,57 11.872444,56.61222 11.354485,54.022426 z "
       id="path2297" />
    <path
       style="fill:#c7cac5"
       d="M 12.059916,54.75 C 11.566453,53.5125 10.90888,51.695969 10.598643,50.713264 C 10.116409,49.185742 9.3066826,49.023086 5.0172878,49.592095 C 0.84232129,50.145923 1.5567972e-15,49.994115 1.526123e-15,48.687848 C 1.5058484e-15,47.82445 0.45,46.839919 1,46.5 C 1.55,46.160081 2,45.04305 2,44.017708 C 2,40.847987 6.7407353,36.153459 10.287963,35.810527 C 13.131628,35.535613 13.537026,35.112682 13.822848,32.122767 C 14.071936,29.517115 13.486339,28.03209 11.259673,25.622767 C 9.6723608,23.905245 7.8783929,21.326513 7.2730778,19.89225 C 6.5436422,18.163891 5.131753,17.076351 3.0862525,16.66725 C 0.65900374,16.181801 1.3535031e-15,15.533685 -7.9363599e-17,13.631989 C -1.994796e-15,11.089833 1.6381579,10 5.4593428,10 C 8.8651108,10 10.717947,7.3792621 9.1205478,4.82142 C 8.4280298,3.7125224 8.0051037,2.7213442 8.1807121,2.6188018 C 8.3563204,2.5162595 10.184877,1.8569009 12.24417,1.1535606 C 16.000449,-0.12937556 18.537651,0.32104511 17.451764,2.0780469 C 16.11474,4.2413985 18.141184,7 21.067388,7 C 24.47961,7 27.579196,9.748626 29.587649,14.55553 C 32.049594,20.447795 31.650826,21.094569 25.75,20.779933 C 20.81795,20.516953 20.479338,20.651405 20.158825,23 C 19.971179,24.375 19.105325,26.297014 18.234705,27.271141 C 16.765539,28.914976 16.869102,29.12432 19.675533,30.183629 C 22.296368,31.172884 22.686026,31.800785 22.599653,34.8956 C 22.502931,38.361188 22.625605,38.483484 26.769868,39.05298 C 34.138281,40.065532 35.294853,44.291256 28.549901,45.556616 C 25.571593,46.11535 24.685844,46.921774 23.091407,50.526265 C 20.243754,56.963857 13.909762,59.389015 12.059916,54.75 z "
       id="path2295" />
    <path
       style="fill:#b5bbb5"
       d="M 13.260332,55.75 C 12.718826,55.0625 11.99261,53.312136 11.646519,51.860301 C 10.876651,48.630738 8.7647443,47.694437 5.5519204,49.158297 C 2.5418906,50.529759 -0.91172268,49.511723 0.83278256,47.767217 C 1.4747522,47.125248 2,45.824526 2,44.876725 C 2,41.774685 6.9032969,37 10.088894,37 C 11.690002,37 13,37.45 13,38 C 13,38.55 13.675,39 14.5,39 C 15.325,39 16,38.55 16,38 C 16,37.45 15.55,37 15,37 C 13.784627,37 13.652762,30.332639 14.853458,29.590568 C 15.32286,29.300461 17.144804,29.605843 18.902222,30.269194 C 21.478612,31.241673 21.991407,31.898103 21.549655,33.658181 C 20.685482,37.101322 21.92675,39 25.041889,39 C 29.032325,39 33,40.691107 33,42.391916 C 33,43.200566 31.134294,44.450328 28.75,45.238821 C 25.49731,46.314495 24.095936,47.489432 22.778097,50.245771 C 20.130336,55.783717 15.428566,58.502803 13.260332,55.75 z M 12.655078,26.880218 C 11.640371,26.283006 9.9796749,23.939438 8.9646421,21.672289 C 7.6060246,18.637719 6.2459753,17.257565 3.809564,16.441005 C 1.6717959,15.724535 0.38950151,14.585109 0.18791337,13.222865 C -0.070501742,11.47661 0.53141545,11.004738 3.6879134,10.479047 C 9.8763867,9.4484046 10.174758,9.2290438 9.8320569,5.9619128 C 9.4723809,2.5329537 11.068126,1.0390079 15.115726,1.0153128 C 17.649951,1.0004771 17.707181,1.132422 16.952504,5.25 C 16.219459,9.2495526 16.744123,11.983123 17.720238,9.25 C 17.965774,8.5625 19.652412,8 21.468323,8 C 23.952211,8 25.231025,8.6811323 26.631399,10.75 C 31.959292,18.621255 31.641198,22.435416 25.839492,20.245517 C 22.036297,18.809971 21.419569,19.142364 19.220342,23.812987 C 17.363528,27.756406 15.568591,28.594985 12.655078,26.880218 z "
       id="path2293" />
    <path
       style="fill:#8c958d"
       d="M 14.244834,54.75 C 13.694803,54.0625 12.93471,52.488546 12.555739,51.252324 C 11.706784,48.482996 8.0290445,47.445623 4.0176503,48.844002 C 1.7532568,49.633374 1.0079387,49.596925 1.0318034,48.69798 C 1.1186743,45.425696 8.5442171,40 12.935755,40 C 16.316186,40 18.065334,37.665334 16.132783,35.732783 C 14.741029,34.341029 14.652596,31.332742 15.979333,30.512773 C 17.638572,29.487307 21.216515,31.993389 20.554874,33.717597 C 19.550224,36.335672 22.691937,40 25.941266,40 C 32.362442,40 34.415916,43.310465 28.764667,44.551688 C 24.387276,45.513124 21,47.864037 21,49.940696 C 21,51.501407 17.145313,56 15.807993,56 C 15.498286,56 14.794864,55.4375 14.244834,54.75 z M 12.0478,24.550881 C 10.782345,23.203866 9.987039,21.476159 10.280454,20.711533 C 10.872242,19.169357 7.1506951,16.665413 2.6835565,15.600163 C -1.8493221,14.519236 -0.46438169,11.571193 4.7540965,11.192724 C 9.3382584,10.860258 11.610289,8.4417503 10.680094,4.8846793 C 10.1734,2.9470778 12.469473,1 15.261066,1 C 16.775212,1 16.49164,6.5781155 14.928378,7.5442647 C 13.048034,8.7063812 15.360632,11 18.412709,11 C 22.523655,11 29.923396,16.270674 29.984687,19.242467 C 29.993109,19.650824 27.8625,19.875824 25.25,19.742467 C 20.666773,19.508513 20.435666,19.631663 18.667642,23.25 C 16.524067,27.63692 15.192761,27.898538 12.0478,24.550881 z "
       id="path2291" />
    <path
       style="fill:#6a7669"
       d="M 11.637426,48.804093 C 10.177856,47.213917 8.9985515,46.900828 6.1870031,47.357079 L 2.5991544,47.939307 L 5.6429574,44.895504 C 7.735425,42.803037 10.027382,41.671886 12.976087,41.276382 C 16.007387,40.869799 17.407345,40.158316 17.749338,38.850531 C 18.346699,36.566217 18.933152,36.526321 20.496023,38.663674 C 21.165102,39.578695 23.689712,40.591195 26.106265,40.913674 C 28.522819,41.236153 30.5,41.894981 30.5,42.377736 C 30.5,42.860491 28.025,43.996347 25,44.90186 C 21.244325,46.026096 19.186932,47.254184 18.512872,48.774124 C 17.291406,51.528408 14.150552,51.542098 11.637426,48.804093 z M 16,32.416667 C 16,31.545833 16.534375,31.011458 17.1875,31.229167 C 19.041723,31.847241 19.34926,34 17.583333,34 C 16.7125,34 16,33.2875 16,32.416667 z M 13.054108,19.642314 C 12.345328,17.778083 10.885437,17.002374 6.0788587,15.936038 C -1.0060184,14.364263 -2.2547279,12 4,12 C 6.7250913,12 8.6666667,11.333333 10.091653,9.9083469 C 12.160306,7.8396942 12.198386,7.8382238 13.554698,9.7746292 C 14.308963,10.851494 16.630219,12.028419 18.713044,12.390019 C 20.79587,12.751619 24.075,14.406665 26,16.0679 L 29.5,19.088325 L 25.360188,18.433974 C 21.942645,17.893787 20.852215,18.147785 19.110188,19.889812 C 16.347376,22.652624 14.164712,22.563424 13.054108,19.642314 z M 12.675343,4.3420093 C 11.947696,3.6143625 13.788761,1 15.028825,1 C 15.45999,1 15.577405,1.9 15.289749,3 C 14.754907,5.0452402 13.845423,5.51209 12.675343,4.3420093 z "
       id="path2289" />
    <path
       style="fill:#566656"
       d="M 14.608688,49.175861 C 14.255967,48.605146 14.454656,47.837041 15.050219,47.468963 C 16.536318,46.550503 17.062424,47.280962 16.070627,48.885723 C 15.539285,49.745453 15.023927,49.847731 14.608688,49.175861 z M 9.7330061,46.634121 C 8.2111594,46.066434 7.1228683,45.131395 7.3145814,44.556256 C 8.1868193,41.939542 25.211775,39.899879 28.909296,41.969116 C 30.054735,42.610136 29.504235,43.00238 26.728258,43.523156 C 24.685999,43.906286 22.318882,43.952608 21.467997,43.626093 C 20.015936,43.068885 17.471527,44.076375 14,46.583139 C 12.949992,47.341342 11.669916,47.356636 9.7330061,46.634121 z M 15,19 C 15,17.718615 15.708061,17.718615 16.5,19 C 16.839919,19.55 16.641476,20 16.059017,20 C 15.476558,20 15,19.55 15,19 z M 17.407184,17.849821 C 16.288517,16.039779 11.527758,14.771895 5.75,14.745282 C 1.3761745,14.725136 1.5611026e-15,14.36784 9.3761804e-16,13.25241 C 4.8680678e-16,12.445897 0.5681504,12.004042 1.2625564,12.270511 C 1.9569625,12.536979 4.5444625,12.458525 7.0125564,12.096167 C 11.833856,11.38832 23.076418,13.702858 23.678944,15.527324 C 24.140849,16.925985 18.196639,19.127186 17.407184,17.849821 z "
       id="path2287" />
  </g>
</svg>
