<?xml version="1.0" encoding="UTF-8" standalone="no"?>
<!-- Created with Inkscape (http://www.inkscape.org/) -->
<svg
   xmlns:dc="http://purl.org/dc/elements/1.1/"
   xmlns:cc="http://web.resource.org/cc/"
   xmlns:rdf="http://www.w3.org/1999/02/22-rdf-syntax-ns#"
   xmlns:svg="http://www.w3.org/2000/svg"
   xmlns="http://www.w3.org/2000/svg"
   xmlns:xlink="http://www.w3.org/1999/xlink"
   xmlns:sodipodi="http://sodipodi.sourceforge.net/DTD/sodipodi-0.dtd"
   xmlns:inkscape="http://www.inkscape.org/namespaces/inkscape"
   id="svg29"
   sodipodi:version="0.32"
   inkscape:version="0.44"
   width="30"
   height="80"
   version="1.0"
   sodipodi:docbase="/home/kde4/Developpements/C++/games/ksirk/ksirk/skins/realpol/Images/sprites"
   sodipodi:docname="cavalry.svg">
  <metadata
     id="metadata34">
    <rdf:RDF>
      <cc:Work
         rdf:about="">
        <dc:format>image/svg+xml</dc:format>
        <dc:type
           rdf:resource="http://purl.org/dc/dcmitype/StillImage" />
      </cc:Work>
    </rdf:RDF>
  </metadata>
  <defs
     id="defs32" />
  <sodipodi:namedview
     inkscape:window-height="593"
     inkscape:window-width="928"
     inkscape:pageshadow="2"
     inkscape:pageopacity="0.0"
     guidetolerance="10.0"
     gridtolerance="10.0"
     objecttolerance="10.0"
     borderopacity="1.0"
     bordercolor="#666666"
     pagecolor="#ffffff"
     id="base"
     inkscape:zoom="4.7375"
     inkscape:cx="15"
     inkscape:cy="39.894459"
     inkscape:window-x="666"
     inkscape:window-y="0"
     inkscape:current-layer="g2159" />
  <g
     id="g2159">
    <path
       style="fill:#e9e7e8"
       d="M 10.531021,78.050194 C 10.144144,77.424213 10.56975,75.779397 11.476812,74.395046 C 13.687144,71.021653 13.007746,69.586472 9.1076335,69.390325 C 6.5302085,69.2607 5.6777913,69.717274 4.9568093,71.6136 C 3.9622088,74.229598 3.8778293,74.274085 1.5817875,73.393011 C 0.39056856,72.935898 -8.9716953e-16,71.35152 2.9230091e-16,66.976345 C 1.1610071e-15,63.781022 0.38038112,61.016667 0.84529138,60.833333 C 2.6791115,60.110182 3.018268,55.161125 1.3484378,53.491295 C -0.0096734454,52.133184 -0.14376529,51.004174 0.59753881,47.168967 C 1.3297005,43.38106 1.9354978,42.438269 3.8078161,42.172873 C 5.0771149,41.992953 7.2536586,42.591409 8.6445799,43.502775 C 11.617615,45.450783 12.471595,44.962548 11.628936,41.79657 C 10.7118,38.350775 8.9676448,36.20449 8.3405357,37.75 C 7.5102389,39.796266 3.212332,39.24436 2.5,37 C 2.1508736,35.9 1.4455491,35 0.93261233,35 C -0.34759042,35 -0.25227881,25.273951 1.0357247,24.477921 C 1.6053733,24.125859 1.9672822,22.072392 1.8399667,19.914662 C 1.7126511,17.756932 2.130916,15.469084 2.7694441,14.830556 C 3.6507245,13.949276 3.5175717,13.367725 2.216723,12.416521 C 0.61893407,11.248189 0.65510127,10.957775 2.7515208,8.1222159 C 3.9881844,6.4495389 5,4.6645179 5,4.1555024 C 5,2.7991819 9.6194913,1.537903e-14 11.857828,8.600759e-15 C 14.009286,2.0855782e-15 15.239789,2.2115448 14.361626,4.5 C 13.637608,6.3867605 14.9221,6.373495 17.44113,4.4681966 C 18.508751,3.6606885 20.787905,3 22.505917,3 C 25.108598,3 25.916312,3.6012931 27.348782,6.6052135 C 29.305939,10.709415 28.791968,13.613864 25.948848,14.516235 C 23.449163,15.309604 23.46541,17.46541 25.990101,19.990101 C 28.228516,22.228516 29.691239,31.61963 28.154369,33.885347 C 26.847641,35.81178 22.300453,34.522004 21.499262,31.997676 C 21.030532,30.520836 19.985658,30 17.491629,30 C 15.636152,30 13.834847,30.458207 13.488729,31.018237 C 12.718279,32.264851 15.962837,37.677008 19.437593,40.941372 C 20.846917,42.265363 22,43.941373 22,44.66584 C 22,45.390307 22.9,46.545112 24,47.232073 C 26.373505,48.714352 26.635051,51.819078 24.456828,52.65494 C 23.114503,53.170039 23.099601,53.458794 24.342331,54.873555 C 25.128101,55.7681 26.022551,58.075 26.329997,60 C 26.637443,61.925 27.315736,65.75 27.837314,68.5 C 28.821732,73.690299 28.064224,76 25.377555,76 C 24.6199,76 24,76.460871 24,77.024158 C 24,77.587444 22.3125,78.000076 20.25,77.941117 C 18.1875,77.882159 15.315248,78.138664 13.867217,78.51113 C 12.275922,78.920446 10.956175,78.738107 10.531021,78.050194 z "
       id="path2173" />
    <path
       style="fill:#d8d6d7"
       d="M 11.554716,78.088533 C 11.244892,77.587226 11.777854,75.806746 12.739078,74.131911 C 14.821574,70.50337 13.97462,69.302557 9.0005675,68.831445 C 6.1568752,68.562108 5.3160559,68.921616 4.5134391,70.75 C 3.9702063,71.9875 2.7324509,73 1.7628715,73 C -0.89789799,73 -0.81073495,61.987406 1.8632518,60.317474 C 4.9470936,58.391582 5.2313899,55.062551 2.4213571,53.782214 C -0.20214172,52.586868 -0.6743258,49.903811 0.97524915,45.5651 C 2.1811816,42.393257 5.6579182,42.156478 9.2728706,45 C 10.671294,46.1 12.08198,47 12.407729,47 C 13.56394,47 12.976095,42.853664 11.372824,39.70034 C 9.1952311,35.417439 9.2600038,35.45583 7.2561308,37.260372 C 5.6429107,38.713121 5.2762101,38.648711 2.75,36.468874 C 0.51082283,34.536715 2.2875605e-15,33.262093 1.3765031e-15,29.606983 C 7.6110993e-16,27.138061 0.45,24.839919 1,24.5 C 1.55,24.160081 2,22.094401 2,19.909598 C 2,17.301095 2.515007,15.739604 3.5,15.361626 C 5.7026577,14.516387 5.3283765,12 3,12 C 0.33373046,12 0.47896623,10.838114 3.5,8 C 4.875,6.7082546 6,5.1065677 6,4.4406959 C 6,2.9327132 10.355889,1.7676567e-14 12.595659,5.0411064e-15 C 13.941207,-2.5496786e-15 14.152429,0.67326251 13.693713,3.5 C 13.079316,7.2860874 14.21396,8.016577 16.921259,5.5779109 C 18.917782,3.7794945 23.188962,2.7437232 24.5,3.7400484 C 25.05,4.1580218 26.273469,5.8956796 27.218821,7.6015102 C 29.151923,11.089678 28.14062,13.545943 24.511484,14.177124 C 21.363153,14.724682 21.61478,17.538609 25.103646,20.799238 C 27.536166,23.072625 28.35666,24.734217 28.486685,27.650267 C 28.71825,32.843517 28.184031,34 25.553526,34 C 24.128661,34 22.899064,33.073886 22.15461,31.439987 C 21.159187,29.255272 20.439305,28.925422 17.244095,29.189987 C 11.764171,29.643728 11.660274,32.782451 16.918749,39.018691 C 19.163437,41.680758 21,44.270835 21,44.774419 C 21,45.278002 21.9,46.504514 23,47.5 C 25.564458,49.820803 25.564458,52 23,52 C 20.444276,52 20.444276,53.171851 23,54.767927 C 24.316981,55.590396 25.010861,57.123959 25.031803,59.258474 C 25.049295,61.041313 25.724295,63.373508 26.531803,64.44113 C 27.339312,65.508751 28,68.321251 28,70.69113 C 28,74.296739 27.681685,75 26.04969,75 C 24.97702,75 23.667079,75.77248 23.13871,76.716622 C 22.278283,78.25412 21.898596,78.283689 19.5,77 C 17.101404,75.716311 16.721717,75.74588 15.86129,77.283378 C 14.827429,79.130784 12.471127,79.571317 11.554716,78.088533 z "
       id="path2171" />
    <path
       style="fill:#b8b5b7"
       d="M 12,78.08104 C 12,77.575611 12.786864,75.791047 13.748587,74.115341 C 15.299927,71.412288 15.328128,70.90866 13.998587,69.65072 C 13.174364,68.870885 10.783184,67.929558 8.6848528,67.558884 C 5.1009851,66.925787 4.7997431,67.070282 3.7156152,69.942465 C 1.8240785,74.953718 5.6709749e-17,73.765975 -4.0549161e-16,67.523053 C -7.5631843e-16,62.78446 0.33702793,61.825277 2.5,60.408043 C 5.7494254,58.278938 6.0833584,53 2.9686152,53 C 0.60110645,53 -0.54286339,50.75264 0.55073048,48.25 C 0.97131993,47.2875 1.2364965,45.988703 1.1400118,45.363784 C 0.77131913,42.975809 4.3852357,43.03572 8.5678959,45.486922 C 13.283745,48.250593 14.526849,47.675211 13.540681,43.185221 C 12.803092,39.826998 9.3714617,34 8.1313298,34 C 7.6373929,34 6.9731315,34.994743 6.6551933,36.210541 L 6.0771238,38.421082 L 3.7143749,36.201395 C 2.414863,34.980567 1.0475101,34.285823 0.67581298,34.65752 C 0.30411584,35.029217 4.7887042e-15,33.323333 3.5388359e-15,30.866667 C 2.2889676e-15,28.41 0.52353251,25.876467 1.1634056,25.236594 C 1.8032787,24.596721 2.2668075,22.477086 2.1934697,20.526293 C 2.0978943,17.983979 2.6180702,16.630957 4.0300641,15.749152 C 6.4606311,14.231238 6.5184025,13.099556 4.25,11.440834 C 2.6055075,10.238333 2.6356524,10.016786 4.75,7.7661403 C 5.9875,6.4488668 7,4.907345 7,4.3405363 C 7,2.9921588 10.328704,-2.9672938e-15 11.828741,-1.3010426e-15 C 12.528543,-5.2369731e-16 13,1.610085 13,4 C 13,8.492458 14.013402,8.9212181 17.727129,6 C 21.543842,2.9977735 24.243028,3.4389158 26.384223,7.4148745 C 28.376223,11.113794 27.930165,13 25.063428,13 C 22.15829,13 20.801257,15.347068 21.953754,18.378363 C 22.501963,19.820264 23.379493,21 23.903821,21 C 26.159169,21 28,24.354535 28,28.46444 C 28,34.714694 24.723309,35.448865 22.653033,29.662474 C 22.097622,28.110111 21.336388,27.932097 17.747798,28.515394 C 15.411509,28.895139 13.105447,29.576579 12.623216,30.029704 C 11.165774,31.399179 12.723908,35.317451 16.463037,39.685783 C 18.408367,41.958463 20,44.23915 20,44.753977 C 20,45.268803 20.9,46.504514 22,47.5 C 24.520047,49.780611 24.520047,50.630742 22,51.289749 C 19.440302,51.959125 19.440302,53.630091 22,55 C 23.256581,55.672502 24,57.093823 24,58.823742 C 24,60.338098 24.9,63.342414 26,65.5 C 28.481227,70.366782 28.621743,74 26.328741,74 C 25.409548,74 23.827391,74.751221 22.812837,75.66938 C 21.086104,77.232052 20.882281,77.221269 19.62416,75.500686 C 18.345073,73.75143 18.168004,73.791566 15.959728,76.331306 C 13.604627,79.039911 12,79.748967 12,78.08104 z "
       id="path2169" />
    <path
       style="fill:#918b8e"
       d="M 20.689375,72.92017 C 20.098983,70.662509 20.041435,70.652527 18.04293,72.461149 C 16.424731,73.925599 16,74.005635 16,72.846117 C 16,70.514147 13.704211,68.015761 11.103511,67.517526 C 9.7854425,67.265014 7.1444744,66.542726 5.2346934,65.912441 C 2.44412,64.991469 1.5923597,65.034819 0.89649484,66.133234 C 0.27864575,67.108503 0.026239347,66.758266 0.015312775,64.910515 C 0.0047123722,63.117921 0.76086325,61.974358 2.4724124,61.194524 C 5.0346052,60.02711 6.6434494,56.119185 5.6392316,53.502236 C 5.3221775,52.676006 3.9236464,52 2.5313848,52 C -0.54687324,52 -0.80224051,49.601424 1.901558,46.084256 L 3.7586443,43.668513 L 8.3933272,46.384618 C 13.864041,49.590669 15.425773,49.083104 14.544494,44.385479 C 14.078423,41.901108 14.267454,41 15.254687,41 C 17.108721,41 19,43.059052 19,45.077555 C 19,46.000211 19.703435,47.338909 20.563188,48.052441 C 21.980772,49.228932 21.980772,49.431256 20.563188,50.224576 C 18.257937,51.51466 18.657172,53.54535 21.594424,55.469912 C 23.432251,56.674103 24.033663,57.763272 23.656707,59.204753 C 23.364029,60.323953 23.996539,62.866574 25.062283,64.855022 C 27.703414,69.782799 27.673568,73.409405 24.997643,72.709635 C 23.800241,72.396507 22.653101,72.797457 22.144088,73.707012 C 21.450461,74.946455 21.18117,74.800799 20.689375,72.92017 z M 0,71.5 C 0,70.675 0.45,70 1,70 C 1.55,70 2,70.675 2,71.5 C 2,72.325 1.55,73 1,73 C 0.45,73 0,72.325 0,71.5 z M 4.6423821,34.209323 C 4.1827338,33.477535 3.0020875,33.18195 1.9158431,33.52671 C 0.2862826,34.043913 -2.2982454e-16,33.630264 8.6302493e-17,30.758517 C 2.9071797e-16,28.901575 0.66068848,26.508751 1.4681966,25.44113 C 2.2757048,24.373508 2.9507048,22.089254 2.9681966,20.36501 C 2.9909421,18.122898 3.7319333,16.750439 5.5698969,15.546159 C 7.9875295,13.962065 8.048973,13.723688 6.606933,11.522856 C 5.2639361,9.473184 5.2552785,9.0330271 6.5370361,7.9692628 C 7.3416662,7.3014791 8,5.9799551 8,5.0325428 C 8,3.4610357 10.89253,-1.6305783e-15 12.205903,-2.0834029e-15 C 12.507536,-2.1873996e-15 12.526079,2.025 12.24711,4.5 C 11.819828,8.2908379 12.011848,9 13.465577,9 C 14.414702,9 16.500827,8.0675051 18.101411,6.9277892 C 21.690601,4.3720605 23.652917,4.6998218 25.77551,8.2095769 C 27.606586,11.237303 27.139329,12.21581 23.781649,12.385018 C 21.977602,12.475932 21.435346,13.167705 21.191129,15.689832 C 20.947646,18.204375 21.529822,19.456645 23.941129,21.605129 C 26.633692,24.004214 28.393495,27.979261 26.148887,26.592017 C 25.680775,26.302708 22.456491,26.594392 18.983812,27.240204 C 13.475272,28.264625 12.535379,28.770663 11.615687,31.207204 C 10.590347,33.92364 9,35.013667 9,33 C 9,31.257134 6.1620557,31.922249 5.7998632,33.75 C 5.5377659,35.072635 5.2550994,35.184806 4.6423821,34.209323 z M 25,31.559017 C 25,30.701558 25.45,30 26,30 C 27.293907,30 27.293907,31.700321 26,32.5 C 25.45,32.839919 25,32.416476 25,31.559017 z "
       id="path2167" />
    <path
       style="fill:#736a70"
       d="M 15.144727,68.860137 C 14.505806,67.837062 13.21441,67 12.274959,67 C 11.335508,67 8.6003588,66.248984 6.1968505,65.331076 C 2.4580909,63.903231 1.6971029,63.867118 0.92873052,65.081076 C 0.19256964,66.244143 0.027864387,66.194283 0.015312775,64.804566 C 0.0068907485,63.872077 1.2213625,62.522077 2.7141389,61.804566 C 7.902805,59.310605 7.9978957,49.98277 2.8208524,51.336597 C 0.042770323,52.063082 -0.49289718,50.048453 1.8542649,47.701291 L 3.9512414,45.604314 L 8.0210907,47.891697 C 10.259508,49.149758 12.690644,49.948953 13.423615,49.667685 C 14.771583,49.150422 17,50.728287 17,52.2 C 17,52.64 16.148145,53 15.106989,53 C 12.820551,53 11.724412,55.324412 13.278145,56.878145 C 14.719646,58.319646 17.285495,58.314505 18.732783,56.867217 C 20.699259,54.900741 22.997628,56.692487 23.031803,60.218615 C 23.049295,62.023377 23.724295,64.373508 24.531803,65.44113 C 26.422799,67.941249 26.569437,71.71748 24.715787,70.179088 C 23.909331,69.509788 22.106211,69.412204 19.868988,69.91678 C 16.934936,70.578516 16.101451,70.392096 15.144727,68.860137 z M 16,44.559017 C 16,42.802491 16.600055,42.543858 17.457295,43.930902 C 17.773726,44.442898 17.575283,45.144455 17.016312,45.489919 C 16.45734,45.835382 16,45.416476 16,44.559017 z M 0.32641407,30.375972 C 0.64986842,28.382756 1.6087475,25.984823 2.4572564,25.047231 C 3.3057654,24.109639 4,21.952952 4,20.254593 C 4,16.621339 5.7731514,15.626991 8.3085358,17.83845 C 9.6670213,19.023372 10.537989,19.150864 11.808536,18.350778 C 14.38805,16.726413 14.51875,13.948417 12.046082,13.3018 C 9.1044072,12.532535 10.041106,10.57157 13.545643,10.162491 C 15.135917,9.976861 17.64568,8.964361 19.122895,7.912491 C 22.525518,5.4896097 23.215643,5.514398 24.841555,8.1178978 C 26.28357,10.42693 25.597927,11.610849 22.5,12.161125 C 19.210576,12.745415 19.241434,18.392482 22.55081,21.459508 L 25.226806,23.939538 L 22.863403,24.935625 C 21.563531,25.483473 18.564327,26.420661 16.198503,27.018267 C 13.83268,27.615872 11.659329,28.7242 11.368834,29.481218 C 10.994794,30.455949 9.5507002,30.736695 6.4203302,30.443254 C 2.5382616,30.079349 2,30.270673 2,32.014446 C 2,33.106501 1.4911209,34 0.86915762,34 C 0.12787613,34 -0.059092157,32.751568 0.32641407,30.375972 z M 9,5.059017 C 9,4.5414763 9.45,3.8399187 10,3.5 C 10.55,3.1600813 11,3.5835237 11,4.440983 C 11,5.2984424 10.55,6 10,6 C 9.45,6 9,5.5765576 9,5.059017 z "
       id="path2165" />
    <path
       style="fill:#554a4f"
       d="M 15.62779,68.206768 C 15.280464,67.644783 12.506767,66.401926 9.4640186,65.444865 C 6.4212704,64.487803 4.0833352,63.433683 4.2686068,63.102376 C 7.0202456,58.181835 7.8903578,54.841819 7.0181855,52.547832 C 6.4854094,51.146524 5.3633638,50 4.5247508,50 C 3.6861379,50 3,49.55 3,49 C 3,47.666295 3.3425814,47.718856 7.4660731,49.685212 C 10.222527,50.999673 11,51.964383 11,54.070202 C 11,55.83107 11.851211,57.327715 13.447604,58.373712 C 15.841382,59.942175 19,59.668717 19,57.893011 C 19,57.401855 19.675,57 20.5,57 C 21.518001,57 22,58.019029 22,60.171259 C 22,61.915452 22.747241,64.168211 23.660536,65.17739 C 24.573831,66.186569 25.060995,67.272338 24.743123,67.59021 C 23.614157,68.719176 16.252231,69.217135 15.62779,68.206768 z M 0.60889936,30.534034 C 0.94442964,28.169425 1.9848052,25.998517 3.1855221,25.157502 C 4.6964697,24.099193 5.057807,23.039035 4.6324483,20.912241 C 3.9246227,17.373114 5.5219733,16.257417 8.0374924,18.53393 C 9.6994783,20.038007 10.355616,20.09534 13.064688,18.973205 C 15.650335,17.902195 16.113444,17.226304 15.786757,15.000443 C 15.459143,12.768266 16.021638,11.956517 19.139403,10.162159 C 21.199872,8.9763032 23.14296,8.4222965 23.457376,8.9310326 C 23.771792,9.4397686 23.123553,10.143398 22.016845,10.494654 C 18.930783,11.474132 18.333332,15.783703 20.687723,20.081965 L 22.696388,23.749058 L 18.598194,25.443167 C 16.344187,26.374926 13.375,27.634919 12,28.24315 C 9.1870429,29.487461 9.5776461,29.461585 5.3800319,28.681688 C 2.5606379,28.157858 2.1534206,28.4102 1.1531028,31.301006 C 0.050763379,34.486644 0.048491246,34.483441 0.60889936,30.534034 z "
       id="path2163" />
    <path
       style="fill:#37292e"
       d="M 15,67.119599 C 14.175,66.677285 12.6,65.781364 11.5,65.128663 C 10.4,64.475963 8.7125,63.677516 7.75,63.354336 C 5.6681557,62.655314 5.5771755,61.960506 7.2652036,59.65199 C 8.4634781,58.013252 8.7852766,58.016182 13.34836,59.70738 C 17.950483,61.413047 18.224117,61.413987 19.456681,59.728355 C 20.572613,58.202227 20.730102,58.608248 20.621683,62.731835 C 20.517016,66.712715 20.166395,67.534988 18.498158,67.711903 C 17.399171,67.82845 15.825,67.561913 15,67.119599 z M 1.0789474,28.583333 C 1.0355263,27.529167 1.271875,26.938542 1.6041667,27.270833 C 1.9364583,27.603125 1.9719846,28.465625 1.683114,29.1875 C 1.3638877,29.985233 1.1269313,29.748276 1.0789474,28.583333 z M 7.4629873,28.013954 C 5.7741836,27.357399 5.4924916,26.524531 5.8150969,23.141694 C 6.1573721,19.5526 6.3811128,19.238256 7.6735381,20.530681 C 9.5066777,22.363821 9.3186123,22.375889 13.974645,20.126339 C 16.737375,18.791533 18.161457,18.561457 18.926339,19.326339 C 20.511811,20.911811 20.230102,24 18.5,24 C 17.675,24 17,24.45 17,25 C 17,25.55 16.309168,26 15.464817,26 C 14.620466,26 12.932966,26.631323 11.714817,27.402941 C 10.318654,28.287318 8.747067,28.513164 7.4629873,28.013954 z "
       id="path2161" />
  </g>
</svg>
