<?xml version="1.0" encoding="UTF-8" standalone="no"?>
<!-- Created with Inkscape (http://www.inkscape.org/) -->
<svg
   xmlns:dc="http://purl.org/dc/elements/1.1/"
   xmlns:cc="http://web.resource.org/cc/"
   xmlns:rdf="http://www.w3.org/1999/02/22-rdf-syntax-ns#"
   xmlns:svg="http://www.w3.org/2000/svg"
   xmlns="http://www.w3.org/2000/svg"
   xmlns:xlink="http://www.w3.org/1999/xlink"
   xmlns:sodipodi="http://sodipodi.sourceforge.net/DTD/sodipodi-0.dtd"
   xmlns:inkscape="http://www.inkscape.org/namespaces/inkscape"
   id="svg38"
   sodipodi:version="0.32"
   inkscape:version="0.44"
   width="128"
   height="92"
   version="1.0"
   sodipodi:docbase="/home/kde4/Developpements/C++/games/ksirk/ksirk/skins/realpol/Images/sprites"
   sodipodi:docname="exploding.svg">
  <metadata
     id="metadata43">
    <rdf:RDF>
      <cc:Work
         rdf:about="">
        <dc:format>image/svg+xml</dc:format>
        <dc:type
           rdf:resource="http://purl.org/dc/dcmitype/StillImage" />
      </cc:Work>
    </rdf:RDF>
  </metadata>
  <defs
     id="defs41" />
  <sodipodi:namedview
     inkscape:window-height="593"
     inkscape:window-width="928"
     inkscape:pageshadow="2"
     inkscape:pageopacity="0.0"
     guidetolerance="10.0"
     gridtolerance="10.0"
     objecttolerance="10.0"
     borderopacity="1.0"
     bordercolor="#666666"
     pagecolor="#ffffff"
     id="base"
     inkscape:zoom="4.1195652"
     inkscape:cx="64"
     inkscape:cy="45.878628"
     inkscape:window-x="666"
     inkscape:window-y="524"
     inkscape:current-layer="g2249" />
  <g
     id="g2249">
    <path
       style="fill:#e9e8e7"
       d="M 75.5,69.318244 C 71.173371,68.742684 67.224498,67.027416 66.624111,65.462834 C 66.267809,64.534323 65.052125,64.27956 62.755868,64.652191 C 60.446662,65.026924 59.014264,64.722113 58.141266,63.670215 C 57.006671,62.303112 56.340777,62.303568 51.723967,63.674614 C 47.754657,64.853372 45.779528,64.960989 43.116273,64.143613 C 40.275343,63.271706 39.45406,63.364358 38.503764,64.663965 C 37.661937,65.815232 36.68864,66.021982 34.923804,65.424426 C 33.590712,64.973054 32.15446,64.695586 31.732134,64.80783 C 31.309808,64.920074 29.47061,64.38782 27.645028,63.625043 C 25.628738,62.782584 23.728361,62.572512 22.803856,63.089891 C 21.966794,63.558335 19.980992,63.927182 18.390963,63.909552 C 16.800933,63.891922 14.064201,64.177216 12.309336,64.543539 C 9.6814149,65.09211 8.6493098,64.740219 6.4574595,62.548369 C 4.7466422,60.837551 3.9777599,59.193048 4.3045037,57.943578 C 4.6209633,56.733435 4.3074744,56 3.4737681,56 C 1.6167261,56 0.67673333,52.472546 1.9164798,50.156059 C 3.4662467,47.260293 15.647699,46.518893 18.564451,49.142813 C 19.699899,50.164266 21.159786,51 21.808645,51 C 22.457503,51 25.066906,53.049093 27.607319,55.553541 C 30.147732,58.057988 32.452562,59.880771 32.729165,59.604169 C 33.005767,59.327566 33.425285,56.527454 33.661428,53.381696 C 34.185491,46.400414 34.239874,46.307455 38.261468,45.518698 C 40.04266,45.169351 42.49716,44.391898 43.715911,43.791025 C 45.409247,42.95617 46.325567,43.025307 47.601447,44.084193 C 48.51974,44.846309 49.77258,45.52448 50.385535,45.591239 C 52.753442,45.849138 56,47.271034 56,48.050209 C 56,48.499529 57.232172,49.009545 58.738159,49.183578 C 61.006548,49.445713 61.573681,50.100475 62.043815,53 C 62.355938,54.925 63.118504,57.4 63.738406,58.5 C 65.573637,61.756569 66.471156,57.816085 64.685866,54.340257 C 63.883503,52.778116 63.204149,49.5875 63.176192,47.25 C 63.133898,43.7139 63.446584,43 65.03768,43 C 66.629147,43 66.849331,42.496653 66.35,40 C 65.621611,36.358053 66.912736,36.136276 71.047358,39.193134 C 73.382427,40.919526 74.273512,41.126488 75.234389,40.165611 C 77.135316,38.264684 74.796228,35.457014 71.515033,35.701166 C 66.843529,36.04877 63.370675,30.583444 65.350582,26 C 65.706957,25.175 65.886365,20.675 65.749268,16 L 65.5,7.5 L 68.154489,7.8090493 C 69.614457,7.9790265 71.103515,7.6415265 71.463506,7.0590493 C 71.823496,6.4765722 73.864919,6 76,6 C 78.135081,6 80.147935,5.5696533 80.473008,5.0436739 C 81.280422,3.7372499 84,4.8971774 84,6.5479718 C 84,9.0090216 86.166228,9.2532195 89.054575,7.117772 C 93.088565,4.135314 94.373597,4.3820139 93.65,8 C 93.150669,10.496653 93.370853,11 94.96232,11 C 96.553416,11 96.866102,11.7139 96.823808,15.25 C 96.795851,17.5875 96.116497,20.778116 95.314134,22.340257 C 93.799712,25.288725 94.233855,28.591538 95.992937,27.504365 C 96.546822,27.162046 97,25.516395 97,23.847363 C 97,21.659485 97.554908,20.667649 98.988753,20.29269 C 100.08257,20.006651 100.71986,19.355744 100.40496,18.846228 C 100.07363,18.310123 100.92097,18.193044 102.41621,18.568326 C 103.99667,18.964995 105,18.798587 105,18.139793 C 105,17.54743 104.32879,17.320336 103.50843,17.635139 C 101.73974,18.313849 100.28362,15.316379 101.69594,13.904062 C 102.92918,12.670818 109.59339,12.130668 111.21449,13.132561 C 111.90983,13.562306 113.18905,13.233898 114.12734,12.384758 C 115.57515,11.074505 115.97984,11.062827 117.13367,12.298007 C 118.12898,13.363493 118.90061,13.45451 120.17755,12.657047 C 121.49181,11.836278 122.36445,12.019848 123.94406,13.449376 C 126.56585,15.822064 126.55712,18.442877 123.91864,21.081359 C 121.99447,23.005525 121.95904,23.297263 123.44951,24.944213 C 124.33624,25.924035 125.32218,28.924923 125.6405,31.612854 L 126.21925,36.5 L 116.35963,36.249728 C 102.17753,35.889737 101.72891,35.867265 99.25,35.392667 C 98.0125,35.155743 97,34.295469 97,33.480948 C 97,31.626717 94.373064,31.536605 93.29969,33.354015 C 92.859861,34.098724 91.460156,35.254191 90.189235,35.92172 C 87.155559,37.515105 87.917318,39.488169 91.588253,39.545376 L 94.5,39.590752 L 94.250732,48.045376 C 94.113635,52.695419 94.293043,57.175 94.649418,58 C 96.572407,62.451681 92.797961,68.705426 88.929249,67.477544 C 87.815375,67.124015 86.363119,67.269979 85.702012,67.801909 C 84.105596,69.086395 79.21801,69.812841 75.5,69.318244 z M 97.416775,68.083333 C 96.589305,67.256078 97.023046,63.103791 98,62.5 C 98.55,62.160081 99,61.156457 99,60.269724 C 99,59.38299 99.711611,57.87116 100.58136,56.9101 C 102.03116,55.308089 101.98956,54.989561 100.08136,53.081359 C 97.442877,50.442877 97.434148,47.822064 100.05594,45.449376 C 101.63555,44.019848 102.50819,43.836278 103.82245,44.657047 C 105.09939,45.45451 105.87102,45.363493 106.86633,44.298007 C 108.02016,43.062827 108.42485,43.074505 109.87266,44.384758 C 110.81095,45.233898 112.09017,45.562306 112.78551,45.132561 C 114.40661,44.130668 121.07082,44.670818 122.30406,45.904062 C 123.71638,47.316379 122.26026,50.313849 120.49157,49.635139 C 119.67121,49.320336 119,49.54743 119,50.139793 C 119,50.798587 120.00333,50.964995 121.58379,50.568326 C 123.25922,50.14782 123.94159,50.285488 123.52477,50.959918 C 123.17123,51.531963 123.58352,52 124.44098,52 C 126.18836,52 126.26338,52.338824 126.18257,59.865984 C 126.10463,67.12632 125.62672,68.007419 121.78069,67.981618 C 119.97631,67.969513 113.85005,68.081197 108.16677,68.229804 C 102.4835,68.378412 97.646001,68.3125 97.416775,68.083333 z M 57.273824,32.524812 C 56.602439,31.325115 55.792692,31.250826 52.93782,32.127011 C 50.210476,32.964057 48.278226,32.863137 44.276033,31.674614 C 39.81971,30.351228 38.96484,30.337439 37.939901,31.572415 C 37.288266,32.357587 35.637945,33 34.27252,33 C 31.97474,33 31.829992,32.720839 32.328098,29.25 C 33.803121,18.97193 34.399079,17.514399 37.261841,17.183578 C 38.767828,17.009545 40,16.499529 40,16.050209 C 40,15.271034 43.246558,13.849138 45.614465,13.591239 C 46.22742,13.52448 47.48026,12.846309 48.398553,12.084193 C 49.674433,11.025307 50.590753,10.95617 52.284089,11.791025 C 53.50284,12.391898 55.95734,13.169351 57.738532,13.518698 C 59.519725,13.868044 61.18204,14.48553 61.432566,14.890889 C 61.912915,15.66811 63.164858,27.15418 63.1241,30.410023 C 63.082777,33.710962 58.803345,35.257915 57.273824,32.524812 z M 17.008308,32.026296 C 16.187877,31.507603 14.54229,31.327758 13.351448,31.62664 C 12.160607,31.925522 10.345248,31.719955 9.3173178,31.169823 C 8.0951251,30.515726 6.8447044,30.507404 5.7039977,31.145775 C 4.7446018,31.68268 3.1115577,31.852795 2.075011,31.523808 C 0.3426311,30.973972 0.30742002,30.691038 1.6391513,28.021519 C 3.5910488,24.108848 8.4651964,19 10.246222,19 C 11.040314,19 12.471645,18.13632 13.426958,17.08071 C 14.868922,15.487358 16.12645,15.243271 20.831946,15.643399 C 29.32047,16.365215 30.838726,16.83014 32.040529,19.07573 C 33.344356,21.511953 31.793528,24 28.971175,24 C 27.696831,24 27.332426,24.555195 27.695496,25.943578 C 28.811532,30.211304 21.089388,34.606438 17.008308,32.026296 z "
       id="path2263" />
    <path
       style="fill:#d3d1ce"
       d="M 70.5,66.44572 C 68.3,65.075197 65.318758,64.066032 63.875018,64.203131 C 62.431279,64.34023 60.562095,63.881461 59.721278,63.183644 C 58.498756,62.169042 56.875034,62.157643 51.61554,63.126743 C 46.411304,64.085661 44.469043,64.07911 42.309935,63.095354 C 39.983698,62.03545 39.401807,62.097593 38.364093,63.516751 C 37.484208,64.720066 36.502977,64.96336 34.823439,64.394647 C 33.545547,63.961937 31.948441,63.713338 31.274314,63.842204 C 30.600186,63.971071 28.713224,63.385943 27.081065,62.54192 C 25.171602,61.554499 23.889769,61.36934 23.48602,62.022621 C 23.140905,62.581028 21.202867,63.002755 19.179269,62.95979 C 17.155671,62.916826 14.082038,63.177835 12.348973,63.53981 C 8.2383639,64.398369 4.508468,61.094555 5.4323938,57.413342 C 5.9251758,55.449942 5.655822,55 3.9876672,55 C 1.416146,55 0.27082364,52.274097 2.1132557,50.538842 C 2.8759651,49.820501 6.5161983,49.008923 10.202663,48.735336 C 15.888681,48.313354 17.163531,48.523218 18.607651,50.118953 C 19.543929,51.153529 20.941526,52 21.713422,52 C 22.485318,52 24.975011,54.041735 27.246075,56.537188 C 33.542315,63.455521 34.780864,62.37075 34.941056,49.797612 C 34.970723,47.469124 35.496028,47.001417 38.737743,46.417222 C 40.806985,46.044321 43.043169,45.308838 43.707042,44.782817 C 44.507622,44.148476 45.676962,44.360755 47.179548,45.413207 C 48.425554,46.285943 50.414785,47 51.600062,47 C 52.785339,47 54.315311,47.675 55,48.5 C 55.684689,49.325 57.314789,50 58.622445,50 C 60.398438,50 61,50.551325 61,52.179002 C 61,55.386746 63.26012,61.07996 64.384728,60.705091 C 66.899309,59.866897 67.46069,57.010524 65.748718,53.76495 C 64.801513,51.969227 64.1868,49.15 64.38269,47.5 C 64.676371,45.026292 65.137221,44.559052 67.009652,44.836614 C 68.590114,45.070896 69.114983,44.766889 68.73616,43.836614 C 68.436799,43.101476 67.875553,41.7125 67.488945,40.75 C 66.536536,38.378877 68.54557,38.497385 71.727129,41 C 75.116123,43.665783 75.694226,43.536727 76.213534,39.998455 C 76.752268,36.327829 74.40539,33.819721 71.213124,34.654518 C 69.579206,35.081797 69,34.794722 69,33.557614 C 69,32.636008 68.551914,32.158898 68.004253,32.497371 C 67.456593,32.835844 66.454855,31.897643 65.77817,30.412481 C 64.681887,28.006402 64.787071,27.553336 66.743541,26.254289 C 68.579113,25.035514 68.719394,24.576537 67.598817,23.455959 C 66.795126,22.652269 66.360822,20.39059 66.514209,17.807763 C 66.654913,15.438493 66.330088,12.664188 65.792377,11.642641 C 64.070405,8.3712315 66.53805,7.2823488 69.952642,9.8068656 C 73.127328,12.154012 75.182561,12.782561 73.2,10.8 C 70.914391,8.5143913 71.774961,6.7049922 74.854681,7.3209361 C 76.614425,7.672885 78.532889,7.315051 79.856435,6.3880034 C 82.493333,4.5410481 84,5.3304637 84,8.559017 C 84,11.522963 84.941866,11.620169 88.272871,9 C 91.45443,6.4973851 93.463464,6.3788771 92.511055,8.75 C 92.124447,9.7125 91.563201,11.101476 91.26384,11.836614 C 90.885113,12.766652 91.40946,13.070836 92.987624,12.836614 C 94.902272,12.552454 95.31375,13.018967 95.628234,15.830407 C 95.842071,17.742074 95.361611,20.073341 94.500385,21.302914 C 91.490354,25.600334 93.855224,30.218217 97.945089,28.029388 C 99.508488,27.192681 99.866259,26.315313 99.400603,24.459994 C 98.902528,22.475506 99.160771,22 100.7366,22 C 102.8325,22 106,19.094078 106,17.171259 C 106,16.527067 105.325,16 104.5,16 C 103.675,16 103,15.534501 103,14.965557 C 103,13.722194 113.32581,14.848319 113.83333,16.147032 C 114.4292,17.671809 119.86775,17.058739 120.81863,15.359602 C 121.32354,14.457383 122.2459,14.033941 122.86832,14.418619 C 124.50359,15.429268 124.25852,19.540556 122.47477,21.020938 C 121.1078,22.155423 121.1078,22.461637 122.47477,23.972123 C 123.31365,24.89907 124,26.60799 124,27.769724 C 124,28.931457 124.45,30.160081 125,30.5 C 125.55,30.839919 126,32.207868 126,33.539887 C 126,35.804563 125.72418,35.92777 121.75,35.438322 C 119.4125,35.150443 116.15,35.313916 114.5,35.801596 C 112.45758,36.40526 110.2498,36.254626 107.58327,35.329675 C 105.42906,34.582438 102.77081,34.255354 101.67604,34.602821 C 100.28601,35.043999 99.166395,34.546325 97.964604,32.953074 L 96.243661,30.671569 L 90.636979,33.835785 C 87.553304,35.576103 83.89848,37 82.515149,37 C 79.854684,37 79.098872,38.440227 81.313381,39.290014 C 82.03574,39.567209 83.83574,39.562894 85.313381,39.280426 C 88.22636,38.723574 89.013313,40.586687 86.8,42.8 C 84.817439,44.782561 86.872672,44.154012 90.047358,41.806866 C 93.46195,39.282349 95.929595,40.371232 94.207623,43.642641 C 93.669912,44.664188 93.345087,47.438493 93.485791,49.807763 C 93.639178,52.39059 93.204874,54.652269 92.401183,55.455959 C 91.280606,56.576537 91.420887,57.035514 93.256459,58.254289 C 95.212929,59.553336 95.318113,60.006402 94.22183,62.412481 C 93.545145,63.897643 92.543407,64.835844 91.995747,64.497371 C 91.448086,64.158898 91,64.632307 91,65.549391 C 91,66.807307 90.414117,67.069769 88.614422,66.618074 C 87.104805,66.239184 85.77468,66.566568 84.991978,67.509666 C 82.981517,69.932124 75.176668,69.359121 70.5,66.44572 z M 82,43 C 82,42.45 81.523442,42 80.940983,42 C 80.358524,42 80.160081,42.45 80.5,43 C 81.291939,44.281385 82,44.281385 82,43 z M 103,24.940983 C 103,24.358524 102.55,24.160081 102,24.5 C 100.71862,25.291939 100.71862,26 102,26 C 102.55,26 103,25.523442 103,24.940983 z M 80,10.440983 C 80,10.198442 79.55,10 79,10 C 78.45,10 78,10.476558 78,11.059017 C 78,11.641476 78.45,11.839919 79,11.5 C 79.55,11.160081 80,10.683524 80,10.440983 z M 109.5,67.795158 C 107.85,67.311019 104.60708,67.14776 102.29351,67.432359 C 97.357961,68.039496 96.202638,66.865874 98.413804,63.491207 C 99.286212,62.159745 100,60.209634 100,59.157628 C 100,58.105622 100.68635,56.675267 101.52523,55.979062 C 102.8922,54.844577 102.8922,54.538363 101.52523,53.027877 C 99.733406,51.047935 99.517167,47.416441 101.13168,46.418619 C 101.7541,46.033941 102.67646,46.457383 103.18137,47.359602 C 104.13225,49.058739 109.5708,49.671809 110.16667,48.147032 C 110.67419,46.848319 121,45.722194 121,46.965557 C 121,47.534501 120.325,48 119.5,48 C 118.675,48 118,48.605256 118,49.345012 C 118,51.195832 121.27534,54 123.43715,54 C 124.81335,54 125.08108,54.540826 124.61807,56.385578 C 124.25082,57.848851 124.5578,59.218041 125.41209,59.927044 C 126.36352,60.716661 126.56981,61.941196 126.0631,63.791466 C 125.49586,65.862732 124.75415,66.457934 122.91067,66.321209 C 121.5848,66.222873 118.7,66.71234 116.5,67.408913 C 113.85728,68.245661 111.48204,68.376722 109.5,67.795158 z M 122.5,57 C 121.70806,55.718615 121,55.718615 121,57 C 121,57.55 121.47656,58 122.05902,58 C 122.64148,58 122.83992,57.55 122.5,57 z M 33.40746,31.619441 C 33.058629,30.710402 33.081353,28.736649 33.457957,27.233322 C 33.834561,25.729995 34.384819,23.0375 34.680752,21.25 C 35.103462,18.69674 35.705062,18 37.486961,18 C 38.734443,18 40.315311,17.325 41,16.5 C 41.684689,15.675 43.214661,15 44.399938,15 C 45.585215,15 47.574446,14.285943 48.820452,13.413207 C 50.323038,12.360755 51.492378,12.148476 52.292958,12.782817 C 52.956831,13.308838 55.193015,14.044321 57.262257,14.417222 C 60.503972,15.001417 61.029277,15.469124 61.058944,17.797612 C 61.134649,23.739585 61.586961,27.563379 62.359669,28.793805 C 63.225952,30.173234 61.463927,33 59.737798,33 C 59.178276,33 58.202582,32.291725 57.569588,31.426055 C 56.599258,30.099049 55.99059,30.047165 53.690065,31.095354 C 51.528741,32.080119 49.589204,32.085755 44.361217,31.12246 C 38.498861,30.042279 37.553097,30.094466 35.901346,31.58928 C 34.177481,33.149357 33.995389,33.151559 33.40746,31.619441 z M 1.239348,31.147925 C -0.23873834,30.234418 6.1968152,21.895092 9.4665449,20.486951 C 10.76032,19.929774 12.647119,18.739657 13.659432,17.842248 C 15.175114,16.498603 16.791025,16.33226 22.814021,16.899869 C 27.511111,17.342523 30.457116,18.109891 31.047765,19.044572 C 32.42822,21.229091 31.649969,22.463993 28.670556,22.816647 C 26.41398,23.083743 26.087517,23.500515 26.584333,25.479988 C 27.491059,29.092672 23.719045,32.389473 19.651027,31.53981 C 17.917962,31.177835 14.844329,30.916826 12.820731,30.95979 C 10.797133,31.002755 8.8590952,30.581028 8.5139802,30.022621 C 8.1070405,29.364178 6.919114,29.507588 5.134116,30.430646 C 3.6203056,31.213468 1.86766,31.536243 1.239348,31.147925 z "
       id="path2261" />
    <path
       style="fill:#e6e0a4"
       d="M 72.155564,66.936604 C 69.208937,63.773771 58.307977,61.80431 51.412858,63.189048 C 47.122408,64.050693 45.03214,64.000697 41.88208,62.961083 C 38.553117,61.862426 37.705034,61.85923 37.035339,62.94282 C 35.798336,64.944333 34.485289,63.532944 34.61888,60.345377 C 34.79142,56.228469 36.11095,49.794356 37.223837,47.643442 C 37.947612,46.244578 38.891715,45.928343 41.053438,46.360688 C 42.631396,46.676279 44.212374,46.465388 44.566723,45.89204 C 44.963535,45.249985 46.1307,45.71361 47.605496,47.099109 C 48.922473,48.336344 50,48.820187 50,48.174314 C 50,46.493485 53.525316,46.723114 55,48.5 C 55.684689,49.325 57.321937,50 58.638329,50 C 60.619498,50 61.005614,50.473688 60.879926,52.75 C 60.725764,55.542003 62.47562,61 63.524909,61 C 63.840835,61 65.458816,60.296977 67.120423,59.437727 C 69.756482,58.074568 69.973193,57.660351 68.820763,56.187727 C 68.094343,55.259477 66.7125,53.911983 65.75,53.193296 C 64.7875,52.474609 64,51.035952 64,49.99628 C 64,48.42049 64.707143,48.125654 68.25,48.224284 C 70.5875,48.289359 73.022438,48.737367 73.660972,49.219859 C 74.88381,50.143863 76.469995,48.587777 75.668933,47.25 C 75.421928,46.8375 75.548338,44.367056 75.949845,41.760125 C 76.792705,36.287537 75.037435,33.654438 71.213124,34.654518 C 69.832176,35.015644 69,34.779657 69,34.026924 C 69,33.363438 68.024959,32.031045 66.833241,31.06605 C 64.305628,29.019314 64.918535,26 67.861626,26 C 68.920044,26 70.088214,25.2125 70.45756,24.25 C 71.299769,22.055239 70.949111,21.410439 69.139347,21.826034 C 68.049158,22.076385 67.865111,21.424445 68.34649,19.017548 C 68.810425,16.697876 68.426318,15.143069 66.868925,13.036582 C 64.91235,10.390172 64.966149,8 66.982292,8 C 67.457633,8 69.118576,9.0535798 70.673275,10.341289 C 76.015751,14.766295 80,13.797136 80,8.0725858 C 80,5.80378 81.780332,4.3803319 83.041101,5.6411011 C 83.517861,6.1178613 84.107031,8.9811517 84.350367,12.003969 C 84.89837,18.811467 84.760381,18.427219 86.25,17.293745 C 86.9375,16.770616 89.4125,16.289359 91.75,16.224284 C 97.053831,16.07663 97.43558,18.151538 92.893347,22.438677 C 89.938603,25.227481 89.877481,25.437262 91.643347,26.728859 C 92.664506,27.475759 94.498597,28.33761 95.719105,28.644083 C 98.609022,29.369751 105,25.465378 105,22.974204 C 105,21.949732 106.07684,19.859621 107.39299,18.329513 C 109.48339,15.899273 110.08401,15.691087 112.14299,16.683072 C 113.43934,17.307637 115.2875,18.070327 116.25,18.377938 C 117.2125,18.685549 118,19.712362 118,20.659745 C 118,22.230336 118.11883,22.219743 119.34736,20.539639 C 120.28094,19.262892 120.91327,19.050644 121.40637,19.84851 C 121.79779,20.481829 121.87143,21.399012 121.57003,21.886693 C 121.26862,22.374374 121.69207,23.329475 122.51101,24.009138 C 123.32995,24.688801 124,26.288232 124,27.563428 C 124,28.838624 124.45,30.160081 125,30.5 C 125.55,30.839919 126,32.26896 126,33.675648 C 126,35.882495 125.69142,36.130889 123.75,35.486805 C 121.05519,34.592778 117.65483,34.610636 113.24084,35.541998 C 111.22903,35.966495 109.43913,35.779412 108.56407,35.053175 C 107.78439,34.406093 105.21079,33.849948 102.84497,33.817297 C 100.40003,33.783554 98.102492,33.160001 97.52174,32.372567 C 96.191438,30.568827 90.491451,32.095367 87.810067,34.973494 C 86.734941,36.127506 84.647238,37 82.961045,37 C 80.465001,37 80,37.39473 80,39.513569 C 80,45.793648 83.776273,46.938556 89.326725,42.341289 C 90.881424,41.05358 92.542367,40 93.017708,40 C 95.033851,40 95.08765,42.390172 93.131075,45.036582 C 91.573682,47.143069 91.189575,48.697876 91.65351,51.017548 C 92.129642,53.398209 91.946066,54.075288 90.890207,53.83282 C 89.08631,53.418573 88.712904,54.088265 89.54244,56.25 C 89.911786,57.2125 91.079956,58 92.138374,58 C 95.081465,58 95.694372,61.019314 93.166759,63.06605 C 91.975041,64.031045 91,65.359737 91,66.018701 C 91,66.782022 90.134278,66.999534 88.614422,66.618074 C 87.104805,66.239184 85.77468,66.566568 84.991978,67.509666 C 83.035238,69.867394 74.532361,69.487796 72.155564,66.936604 z M 97.526663,67.043142 C 97.142183,66.42104 97.541397,64.82267 98.413804,63.491207 C 99.286212,62.159745 100,60.209634 100,59.157628 C 100,58.105622 100.67005,56.688801 101.48899,56.009138 C 102.30793,55.329475 102.73138,54.374374 102.42997,53.886693 C 102.12857,53.399012 102.20221,52.481829 102.59363,51.84851 C 103.08673,51.050644 103.71906,51.262892 104.65264,52.539639 C 105.88117,54.219743 106,54.230336 106,52.659745 C 106,51.712362 106.7875,50.685549 107.75,50.377938 C 108.7125,50.070327 110.56066,49.307637 111.85701,48.683072 C 113.91599,47.691087 114.51661,47.899273 116.60701,50.329513 C 117.92316,51.859621 119,53.972997 119,55.025904 C 119,56.194673 120.491,57.798389 122.82819,59.143506 C 125.83189,60.872218 126.56402,61.829875 126.22754,63.590032 C 125.85979,65.513797 125.16535,65.833333 121.35223,65.833333 C 118.90666,65.833333 116.25608,66.372513 115.46203,67.03151 C 114.56155,67.778843 112.79198,67.970927 110.75916,67.541998 C 106.38587,66.619224 102.94464,66.591186 100.36286,67.457292 C 99.100104,67.880907 97.939708,67.711462 97.526663,67.043142 z M 7.5828775,61.786443 C 6.3978643,61.123276 5.9652581,59.848402 6.1837355,57.663226 C 6.4637232,54.862835 6.184564,54.463705 3.75,54.183578 C 0.19127155,53.774101 0.19127155,51.323699 3.75,50.598565 C 14.250622,48.458935 21.336523,50.708351 27.958632,58.283586 C 31.679097,62.539541 31.560002,63.54361 27.517052,62.006483 C 25.921837,61.399984 24.280454,61.324751 23.628363,61.828246 C 22.094915,63.012258 9.7156578,62.980006 7.5828775,61.786443 z M 43,30.923103 C 41.075,30.443407 38.207688,30.312263 36.628195,30.631673 C 33.785101,31.20661 33.762723,31.173864 34.389924,27.356208 C 34.738368,25.235294 35.011032,22.2625 34.995845,20.75 C 34.973335,18.508291 35.410618,18 37.361671,18 C 38.678063,18 40.315311,17.325 41,16.5 C 42.474684,14.723114 46,14.493485 46,16.174314 C 46,16.820187 47.077527,16.336344 48.394504,15.099109 C 49.8693,13.71361 51.036465,13.249985 51.433277,13.89204 C 51.787626,14.465388 53.368604,14.676279 54.946562,14.360688 C 57.108285,13.928343 58.052388,14.244578 58.776163,15.643442 C 59.88905,17.794356 61.20858,24.228469 61.38112,28.345377 C 61.515691,31.556306 60.198934,32.939916 58.942817,30.907476 C 58.264085,29.809264 57.482189,29.785466 54.733622,30.779361 C 50.928071,32.155466 48.085182,32.190293 43,30.923103 z M 3.5816034,26.75 C 9.541369,20.109511 14.384882,17.716594 21.425521,17.934289 C 29.9372,18.197468 33.956262,20.998708 27.5,22.168131 C 25.915584,22.455116 25.565447,23.181952 25.814964,25.666028 C 25.997134,27.479621 25.575515,29.151406 24.814964,29.631184 C 22.975401,30.791635 9.7422105,30.986602 8.3716366,29.873446 C 7.6829302,29.314091 6.1964097,29.355026 4.5565369,29.978505 C -0.1345624,31.762057 -0.33146356,31.110017 3.5816034,26.75 z "
       id="path2259" />
    <path
       style="fill:#e8df63"
       d="M 72.717009,66.006361 C 71.94899,64.90986 71.081625,64.251709 70.789531,64.543802 C 70.119818,65.213515 65,62.929311 65,61.960805 C 65,61.565815 66.35,60.683452 68,60 C 71.301349,58.632537 71.797733,57.520097 69.5,56.638374 C 68.675,56.321791 68,55.421791 68,54.638374 C 68,53.854956 67.325,52.954956 66.5,52.638374 C 65.675,52.321791 65,51.325501 65,50.424396 C 65,49.360208 65.539546,48.993066 66.539533,49.376797 C 67.386276,49.701722 68.924735,49.439441 69.958331,48.79395 C 71.40848,47.888317 72.178325,47.903107 73.329771,48.858723 C 75.077882,50.309526 76.306098,48.961253 75.396256,46.590242 C 75.060627,45.715609 75.284167,45 75.893011,45 C 76.501855,45 77,43.65 77,42 C 77,38.88084 78.973052,37.669151 79.035435,40.75 C 79.09059,43.473828 81.595519,47.463482 82.416504,46.1351 C 82.802345,45.510795 84.341468,45 85.836776,45 C 87.336912,45 89.339411,44.08448 90.304404,42.95745 C 92.642188,40.227118 94.644941,41.467879 92.544569,44.345295 C 90.054929,47.755992 89.54866,49.349553 90.82009,49.773363 C 92.128149,50.209383 92.468868,54 91.2,54 C 90.76,54 89.86,53.46 89.2,52.8 C 88.266667,51.866667 88,51.960684 88,53.223077 C 88,54.115769 89.274279,56.120433 90.831731,57.677885 C 93.777458,60.623612 93.969158,63 91.261058,63 C 90.396306,63 88.213831,64.125 86.411113,65.5 C 82.15275,68.748012 74.827067,69.018891 72.717009,66.006361 z M 84.5,50 C 84.839919,49.45 84.668034,49 84.118034,49 C 83.568034,49 82.839919,49.45 82.5,50 C 82.160081,50.55 82.331966,51 82.881966,51 C 83.431966,51 84.160081,50.55 84.5,50 z M 105.2065,66.288566 C 103.46748,65.955647 103.06106,65.382972 103.52545,63.919822 C 103.9227,62.668195 103.58661,61.778596 102.56895,61.388085 C 100.40008,60.55581 100.60732,58.6637 103.11476,56.404988 C 104.27788,55.357244 105.61674,53.4875 106.09001,52.25 C 106.56328,51.0125 107.64274,50 108.48882,50 C 109.33489,50 110.94945,49.4375 112.07672,48.75 C 113.87096,47.655726 114.42988,47.849544 116.56315,50.305764 C 118.64067,52.697795 119.52255,55.378637 119.14763,58.162359 C 119.09857,58.526656 120.39528,59.290747 122.02921,59.860339 C 123.85924,60.498289 125,61.596352 125,62.719927 C 125,65.450781 112.55275,67.694938 105.2065,66.288566 z M 99,65 C 99,64.45 99.45,64 100,64 C 100.55,64 101,64.45 101,65 C 101,65.55 100.55,66 100,66 C 99.45,66 99,65.55 99,65 z M 34.693853,63.36052 C 33.894922,62.561589 34.798039,61 36.059017,61 C 36.576558,61 37,61.675 37,62.5 C 37,64.04641 35.820037,64.486704 34.693853,63.36052 z M 7.6837355,61.882818 C 6.4012389,61.1369 5.9604155,59.896837 6.1837355,57.663226 C 6.4637232,54.862835 6.184564,54.463705 3.75,54.183578 C 0.19068293,53.774033 0.19068293,51.31931 3.75,50.613884 C 10.868412,49.203076 15.830735,49.632282 20.394869,52.053549 C 22.927691,53.397208 25,54.81203 25,55.197597 C 25,55.583164 26.446209,57.250228 28.213798,58.902183 C 32.048977,62.48647 31.38856,63.839189 26.897333,61.598669 C 23.97791,60.142269 23.506275,60.13684 21.953857,61.541759 C 20.400825,62.947233 20.08384,62.940983 18.618854,61.475997 C 17.147169,60.004311 16.857143,60 15.428571,61.428571 C 13.628776,63.228367 10.32988,63.421852 7.6837355,61.882818 z M 19,57 C 19,56.45 18.523442,56 17.940983,56 C 17.358524,56 17.160081,56.45 17.5,57 C 18.291939,58.281385 19,58.281385 19,57 z M 40.044365,61.569388 C 37.751178,60.704576 36.275167,59.3255 35.656593,57.469779 C 34.828028,54.984083 35.100879,54.361165 38.112228,51.863584 C 39.975503,50.318204 41.05,49.03145 40.5,49.004131 C 39.95,48.976812 40.961658,48.233908 42.748129,47.353233 C 46.49657,45.505368 48.976863,46.697112 49.031803,50.372445 C 49.063229,52.474745 49.081329,52.476555 50.55661,50.524945 C 51.813496,48.862244 52.359843,48.743632 54.011238,49.774945 C 55.090131,50.448725 56.769403,51 57.742953,51 C 58.932159,51 59.92111,52.307496 60.756521,54.984251 C 62.89959,61.850896 62.023661,65.143289 59.01744,61.521013 C 58.138236,60.461638 57.282185,60.313795 56.000152,60.999919 C 52.952733,62.630848 43.731667,62.959952 40.044365,61.569388 z M 56.36383,57.505744 C 56.04846,56.683903 55.380243,56.264997 54.878903,56.574842 C 53.830318,57.222903 54.672078,59 56.027632,59 C 56.527911,59 56.6792,58.327585 56.36383,57.505744 z M 73.5,33.469004 C 71.85,32.116516 69.75,31.007699 68.833333,31.004967 C 66.037651,30.996635 66.184459,28.661695 69.168269,25.677885 C 70.725721,24.120433 72,22.115769 72,21.223077 C 72,19.960684 71.733333,19.866667 70.8,20.8 C 70.14,21.46 69.24,22 68.8,22 C 67.531132,22 67.871851,18.209383 69.17991,17.773363 C 70.45134,17.349553 69.945071,15.755992 67.455431,12.345295 C 65.355059,9.4678785 67.357812,8.2271176 69.695596,10.95745 C 70.660589,12.08448 72.663088,13 74.163224,13 C 75.658532,13 77.197655,13.510795 77.583496,14.1351 C 78.404481,15.463482 80.90941,11.473828 80.964565,8.75 C 81.026948,5.6691507 83,6.8808398 83,10 C 83,11.65 83.498145,13 84.106989,13 C 84.715833,13 84.939373,13.715609 84.603744,14.590242 C 83.678944,17.000235 84.862634,18.102735 86.965159,16.789686 C 88.40139,15.892744 89.17643,15.901535 90.292051,16.827417 C 91.092,17.491316 92.47854,17.753597 93.373252,17.410264 C 94.467655,16.990302 95,17.322171 95,18.424396 C 95,19.325501 94.325,20.321791 93.5,20.638374 C 92.675,20.954956 92,21.854956 92,22.638374 C 92,23.421791 91.325,24.321791 90.5,24.638374 C 88.202267,25.520097 88.698651,26.632537 92,28 C 93.65,28.683452 95,29.565815 95,29.960805 C 95,30.929311 89.880182,33.213515 89.210469,32.543802 C 88.918375,32.251709 88.05101,32.90986 87.282991,34.006361 C 85.175782,37.014823 77.45876,36.71396 73.5,33.469004 z M 77.5,18 C 77.160081,17.45 76.431966,17 75.881966,17 C 75.331966,17 75.160081,17.45 75.5,18 C 75.839919,18.55 76.568034,19 77.118034,19 C 77.668034,19 77.839919,18.55 77.5,18 z M 104.25,33.66261 C 100.15523,32.861136 99,32.223645 99,30.765492 C 99,29.591389 100.10507,28.510731 101.97079,27.860339 C 103.60472,27.290747 104.90143,26.526656 104.85237,26.162359 C 104.47745,23.378637 105.35933,20.697795 107.43685,18.305764 C 109.57012,15.849544 110.12904,15.655726 111.92328,16.75 C 113.05055,17.4375 114.66511,18 115.51118,18 C 116.35726,18 117.43672,19.0125 117.90999,20.25 C 118.38326,21.4875 119.72212,23.357244 120.88524,24.404988 C 123.39268,26.6637 123.59992,28.55581 121.43105,29.388085 C 120.433,29.771074 120.07861,30.672305 120.45711,31.864862 C 121.44973,34.992333 114.80774,35.729085 104.25,33.66261 z M 123,33 C 123,32.45 123.45,32 124,32 C 124.55,32 125,32.45 125,33 C 125,33.55 124.55,34 124,34 C 123.45,34 123,33.55 123,33 z M 59,30.5 C 59,29.583333 59.5625,29.020833 60.25,29.25 C 61.665672,29.721891 61.510051,31.329983 60,31.833333 C 59.45,32.016667 59,31.416667 59,30.5 z M 3.25,27.428348 C 5.3125,25.47348 7,23.564111 7,23.185304 C 7,22.806498 9.0587871,21.404382 11.575082,20.06949 C 15.139392,18.178628 17.397357,17.700187 21.795358,17.903912 C 30.110058,18.289066 33.778156,21.030968 27.5,22.168131 C 25.911238,22.455903 25.565359,23.180825 25.817866,25.693691 C 26.053745,28.041081 25.619324,29.133364 24.133608,29.928495 C 21.294534,31.447922 18.399385,31.256528 16.571429,29.428571 C 15.142857,28 14.852831,28.004311 13.381146,29.475997 C 11.910632,30.946511 11.603707,30.951335 10.031652,29.528645 C 8.4789673,28.123484 8.0027678,28.117974 5.4005068,29.475059 C 0.28364861,32.14351 -0.71849007,31.189741 3.25,27.428348 z M 15,24.440983 C 15,24.198442 14.55,24 14,24 C 13.45,24 13,24.476558 13,25.059017 C 13,25.641476 13.45,25.839919 14,25.5 C 14.55,25.160081 15,24.683524 15,24.440983 z M 34,28.984251 C 34,24.76303 36.457219,19 38.257047,19 C 39.230597,19 40.909869,18.448725 41.988762,17.774945 C 43.640157,16.743632 44.186504,16.862244 45.44339,18.524945 C 46.918671,20.476555 46.936771,20.474745 46.968197,18.372445 C 47.023137,14.697112 49.50343,13.505368 53.251871,15.353233 C 55.038342,16.233908 56.05,16.976812 55.5,17.004131 C 54.95,17.03145 56.024497,18.318204 57.887772,19.863584 C 60.887376,22.351424 61.169814,22.990559 60.35277,25.44169 C 59.118037,29.145889 53.27195,31.282965 46.577027,30.477503 C 43.869392,30.151749 40.879145,29.470504 39.932033,28.963625 C 38.730581,28.320628 37.83895,28.489127 36.98256,29.521013 C 35.265237,31.590261 34,31.36256 34,28.984251 z M 41.457295,26.069098 C 41.773726,25.557102 41.622437,24.884687 41.121097,24.574842 C 40.619757,24.264997 39.95154,24.683903 39.63617,25.505744 C 39.01447,27.125865 40.516929,27.590642 41.457295,26.069098 z "
       id="path2257" />
    <path
       style="fill:#a5a197"
       d="M 73.962231,65.454491 C 73.256769,64.604461 72.076669,64.140338 71.339786,64.423106 C 69.469495,65.140804 67,64.041273 67,62.490836 C 67,61.778484 68.35,60.725038 70,60.149845 C 73.561246,58.908388 74.141023,55.902778 70.75,56.26179 C 68.755499,56.47295 68.532452,56.104172 68.785782,53.014218 C 69.154578,48.515887 70.464867,47.18471 72.978599,48.754562 C 75.128238,50.097034 76.329331,49.021798 75.396256,46.590242 C 74.655142,44.658931 77.965574,44.365574 79.8,46.2 C 80.733333,47.133333 81.266667,47.133333 82.2,46.2 C 83.65964,44.74036 88,44.602799 88,46.016179 C 88,46.575077 86.425,47.783422 84.5,48.701391 C 82.575,49.619359 81,50.737079 81,51.185212 C 81,52.73551 84.904419,51.993211 85.875307,50.25833 C 87.25999,47.78404 88.396099,49.391366 87.045837,51.914354 C 86.344152,53.225462 86.300676,54 86.928765,54 C 87.937928,54 93,60.837618 93,62.20075 C 93,62.605814 92.366871,62.694276 91.593048,62.397332 C 90.819224,62.100388 88.353166,63.014511 86.11292,64.428717 C 81.524018,67.325563 75.908523,67.799629 73.962231,65.454491 z M 105.41667,66.345645 C 103.85658,66.015357 103.31116,65.100294 103.24505,62.70229 C 103.1965,60.94103 103.56221,58.6 104.05775,57.5 C 104.55329,56.4 105.40688,54.2625 105.95461,52.75 C 106.50235,51.2375 107.64274,50 108.48882,50 C 109.33489,50 110.94945,49.4375 112.07672,48.75 C 113.87096,47.655726 114.42988,47.849544 116.56315,50.305764 C 117.90342,51.848934 119.05625,53.986434 119.125,55.055764 C 119.19375,56.125094 119.30625,57.542212 119.375,58.204915 C 119.44375,58.867618 120.625,59.673566 122,59.99591 C 123.52217,60.352755 124.61874,61.398316 124.80357,62.669077 C 125.12224,64.859906 125.60841,64.731523 110.5,66.44623 C 108.85,66.633494 106.5625,66.588231 105.41667,66.345645 z M 34.693853,63.36052 C 33.894922,62.561589 34.798039,61 36.059017,61 C 36.576558,61 37,61.675 37,62.5 C 37,64.04641 35.820037,64.486704 34.693853,63.36052 z M 7.6837355,61.882818 C 6.4012389,61.1369 5.9604155,59.896837 6.1837355,57.663226 C 6.4637232,54.862835 6.184564,54.463705 3.75,54.183578 C 0.19068293,53.774033 0.19068293,51.31931 3.75,50.613884 C 10.868412,49.203076 15.830735,49.632282 20.394869,52.053549 C 22.927691,53.397208 25,54.81203 25,55.197597 C 25,55.583164 26.446209,57.250228 28.213798,58.902183 C 33.80654,64.129056 29.448002,63.824034 22.102117,58.474472 C 17.824367,55.359247 17.372228,55.380788 16.529124,58.739983 C 15.473738,62.944976 11.771597,64.260375 7.6837355,61.882818 z M 45.5,62.148584 C 44.4,61.791863 42.530381,60.856034 41.345292,60.068964 L 39.190583,58.637928 L 41.503021,56.818964 C 42.774862,55.818534 45.137236,55 46.752742,55 C 48.420033,55 50.472603,54.135261 51.5,53 C 54.045954,50.186753 56.408473,50.508299 59.411106,54.076725 C 61.877507,57.007876 63.035802,63 61.136001,63 C 60.660801,63 59.030067,61.207888 57.512147,59.017529 C 54.631248,54.860389 52.426686,54.5796 53.409382,58.494971 C 53.817437,60.120792 53.483212,60.914901 52.240409,61.272423 C 51.283184,61.547791 49.825,62.003509 49,62.28513 C 48.175,62.56675 46.6,62.505304 45.5,62.148584 z M 35.332438,56.423936 C 34.924848,55.361773 36.320863,53.419988 39.613823,50.468748 C 44.938908,45.696262 46.141262,45.260357 47.954319,47.444958 C 49.888816,49.775885 48.842258,53.451574 46.135028,53.834617 C 44.834293,54.018657 42.359293,55.029475 40.635028,56.080879 C 36.823702,58.40491 36.110319,58.451063 35.332438,56.423936 z M 89.666667,53.333333 C 88.448738,52.115404 88.977589,50 90.5,50 C 91.333333,50 92,50.888889 92,52 C 92,53.992243 90.934458,54.601124 89.666667,53.333333 z M 73.659082,32.369065 C 71.546576,30.986769 69.184076,30.099122 68.409082,30.396515 C 67.634087,30.693909 67,30.605814 67,30.20075 C 67,28.837618 72.062072,22 73.071235,22 C 73.699324,22 73.655848,21.225462 72.954163,19.914354 C 71.603901,17.391366 72.74001,15.78404 74.124693,18.25833 C 75.095581,19.993211 79,20.73551 79,19.185212 C 79,18.737079 77.425,17.619359 75.5,16.701391 C 73.575,15.783422 72,14.575077 72,14.016179 C 72,12.602799 76.34036,12.74036 77.8,14.2 C 78.733333,15.133333 79.266667,15.133333 80.2,14.2 C 82.034426,12.365574 85.344858,12.658931 84.603744,14.590242 C 83.670669,17.021798 84.871762,18.097034 87.021401,16.754562 C 89.535133,15.18471 90.845422,16.515887 91.214218,21.014218 C 91.467548,24.104172 91.244501,24.47295 89.25,24.26179 C 85.858977,23.902778 86.438754,26.908388 90,28.149845 C 91.65,28.725038 93,29.778484 93,30.490836 C 93,32.041273 90.530505,33.140804 88.660214,32.423106 C 87.923331,32.140338 86.743231,32.604461 86.037769,33.454491 C 84.100536,35.788714 78.078158,35.260642 73.659082,32.369065 z M 106.19371,33.764747 C 99.578376,32.889093 98.916383,32.598295 99.193709,30.689811 C 99.381449,29.397827 100.46763,28.355145 102,27.99591 C 103.375,27.673566 104.55625,26.867618 104.625,26.204915 C 104.69375,25.542212 104.80625,24.125094 104.875,23.055764 C 104.94375,21.986434 106.09658,19.848934 107.43685,18.305764 C 109.57012,15.849544 110.12904,15.655726 111.92328,16.75 C 113.05055,17.4375 114.66511,18 115.51118,18 C 116.35726,18 117.49765,19.2375 118.04539,20.75 C 118.59312,22.2625 119.44671,24.4 119.94225,25.5 C 120.43779,26.6 120.8035,28.92125 120.75495,30.658333 C 120.68029,33.329202 120.21007,33.907986 117.70833,34.408333 C 116.08125,34.73375 114.46875,34.939669 114.125,34.86593 C 113.78125,34.792192 110.21217,34.296659 106.19371,33.764747 z M 59,30.5 C 59,29.583333 59.5625,29.020833 60.25,29.25 C 61.665672,29.721891 61.510051,31.329983 60,31.833333 C 59.45,32.016667 59,31.416667 59,30.5 z M 3.25,27.537543 C 5.3125,25.522618 7,23.564111 7,23.185304 C 7,22.806498 9.0587871,21.404382 11.575082,20.06949 C 15.139392,18.178628 17.397357,17.700187 21.795358,17.903912 C 30.110058,18.289066 33.778156,21.030968 27.5,22.168131 C 25.902188,22.457542 25.56517,23.178415 25.824075,25.752883 C 26.088546,28.382689 25.688284,29.184905 23.647817,30.114604 C 19.789695,31.872482 16.275184,30.529388 15.500207,27.000942 C 15.137692,25.350424 14.622261,24 14.354803,24 C 13.346653,24 9.424893,26.317557 7.5,28.050834 C 6.4,29.041333 4.15,30.155334 2.5,30.526392 L -0.5,31.201044 L 3.25,27.537543 z M 34,28.076725 C 34,24.673476 38.334091,19 40.933906,19 C 41.899771,19 43.504514,19.9 44.5,21 C 45.527397,22.135261 47.579967,23 49.247258,23 C 50.862764,23 53.225138,23.818534 54.496979,24.818964 L 56.809417,26.637928 L 54.654708,28.066672 C 51.146209,30.39309 48.188099,30.897271 45.03345,29.706524 C 42.672426,28.815337 42.177784,28.139832 42.613887,26.40226 C 43.576016,22.568833 41.339701,22.90231 38.487853,27.017529 C 35.206404,31.75266 34,32.037389 34,28.076725 z M 55.364972,24.08065 C 53.640707,23.029372 51.165707,22.018657 49.864972,21.834617 C 48.000867,21.570867 47.5,20.887725 47.5,18.608986 C 47.5,13.323511 50.149287,13.158111 55.890028,18.085182 C 62.644963,23.882699 62.259498,28.284218 55.364972,24.08065 z M 68,20.083333 C 68,18.854996 68.645689,18 69.573324,18 C 70.504563,18 71.014697,18.68037 70.823324,19.667134 C 70.336773,22.175903 68,22.520378 68,20.083333 z "
       id="path2255" />
    <path
       style="fill:#ebd31d"
       d="M 74.049265,65.559361 C 73.391672,64.767009 71.683775,63.979509 70.253939,63.809361 C 66.542743,63.367734 66.381975,61.411095 69.954556,60.165687 C 73.466427,58.941442 73.87234,57.025879 71,55.232073 C 69.9,54.545112 69,53.311865 69,52.491526 C 69,50.687609 71.655058,50.491603 72.27166,52.25 C 72.849746,53.898559 76.921509,49.128728 76.966731,46.75 C 77.005916,44.68882 77.868853,44.584002 80.202089,46.357013 C 81.294802,47.187358 81.700567,48.42903 81.335458,49.825209 C 80.886966,51.540245 81.203692,52 82.833679,52 C 83.970496,52 85.339229,51.216249 85.875307,50.25833 C 87.238735,47.82202 88.406911,49.371162 87.078316,51.853665 C 86.362159,53.191817 86.334679,54.088809 86.997296,54.498329 C 87.548783,54.839167 88,56.174348 88,57.465397 C 88,59.262483 88.436519,59.698608 89.862094,59.325812 C 90.9794,59.03363 91.966781,59.471049 92.330709,60.419432 C 92.716172,61.423931 92.394722,62 91.448743,62 C 90.630075,62 88.178141,63.125 86,64.5 C 81.5986,67.278482 75.895569,67.784021 74.049265,65.559361 z M 107.59348,65.697826 C 105.82253,65.107511 105.05962,64.287006 105.41664,63.356644 C 105.71894,62.56885 105.29887,61.668181 104.48314,61.355157 C 102.2963,60.515989 102.70453,58.889233 106.01522,55.25 C 108.92327,52.053349 110.93025,51.270413 112.42369,52.75 C 112.84005,53.1625 114.15255,53.5 115.34036,53.5 C 117.04593,53.5 117.56588,54.183317 117.81336,56.75 C 118.02951,58.99183 118.64992,60.009866 119.81336,60.031803 C 121.66035,60.06663 125,62.278682 125,63.467231 C 125,63.877942 124.33941,63.960486 123.53203,63.650663 C 122.72464,63.34084 121.79808,63.517695 121.47301,64.043674 C 120.53936,65.554351 118,65.156833 118,63.5 C 118,62.675 117.55,62 117,62 C 116.45,62 116,62.848925 116,63.886501 C 116,66.148278 111.71479,67.071597 107.59348,65.697826 z M 8.6165628,61.510382 C 7.2300783,60.46063 6.8859686,59.320157 7.3123962,57.188019 C 7.6378479,55.560761 7.3895972,53.789597 6.7458333,53.145833 C 5.1490851,51.549085 17.607116,51.678518 21.113214,53.295104 C 23.806562,54.536948 30.875357,62.002012 29.353592,61.997429 C 28.884116,61.996015 25.9125,60.434591 22.75,58.527597 C 19.5875,56.620603 16.9625,55.15926 16.916667,55.280168 C 16.870833,55.401076 16.720422,56.520851 16.582419,57.768557 C 16.335148,60.004162 13.451383,62.936393 11.5,62.936393 C 10.95,62.936393 9.6524533,62.294688 8.6165628,61.510382 z M 14,58.5 C 14,57.8125 12.875,57.25 11.5,57.25 C 10.125,57.25 9,57.8125 9,58.5 C 9,59.1875 10.125,59.75 11.5,59.75 C 12.875,59.75 14,59.1875 14,58.5 z M 45.5,62.148584 C 44.4,61.791863 42.530381,60.856034 41.345292,60.068964 L 39.190583,58.637928 L 41.503021,56.818964 C 42.774862,55.818534 45.137236,55 46.752742,55 C 48.441119,55 50.476548,54.130901 51.539838,52.95598 C 52.557235,51.831769 54.269333,51.044269 55.344499,51.20598 C 57.668522,51.555526 60.651734,55.414324 61.56328,59.25 C 62.513472,63.248294 60.02836,62.790792 57.215925,58.449664 C 54.779692,54.689222 52.461126,54.716819 53.409382,58.494971 C 53.817437,60.120792 53.483212,60.914901 52.240409,61.272423 C 51.283184,61.547791 49.825,62.003509 49,62.28513 C 48.175,62.56675 46.6,62.505304 45.5,62.148584 z M 37.354231,56.519273 C 37.709404,55.593707 38,54.423229 38,53.918213 C 38,53.413196 39.376558,53 41.059017,53 C 44.657548,53 44.188695,54.333942 39.790819,56.608172 C 36.929173,58.087986 36.754702,58.081621 37.354231,56.519273 z M 1.0789474,52.583333 C 1.0355263,51.529167 1.271875,50.938542 1.6041667,51.270833 C 1.9364583,51.603125 1.9719846,52.465625 1.683114,53.1875 C 1.3638877,53.985233 1.1269313,53.748276 1.0789474,52.583333 z M 45.456231,50.92918 C 45.081149,50.322285 45.215303,49.384697 45.75435,48.84565 C 46.394463,48.205537 46.938785,48.398092 47.323543,49.400758 C 48.023125,51.223839 46.439465,52.520087 45.456231,50.92918 z M 74,32.5 C 72.075,31.18841 69.726623,30.089351 68.781385,30.057646 C 67.635207,30.019201 67.26479,29.473544 67.669291,28.419432 C 68.033219,27.471049 69.0206,27.03363 70.137906,27.325812 C 71.563481,27.698608 72,27.262483 72,25.465397 C 72,24.174348 72.451217,22.839167 73.002704,22.498329 C 73.665321,22.088809 73.637841,21.191817 72.921684,19.853665 C 71.593089,17.371162 72.761265,15.82202 74.124693,18.25833 C 74.660771,19.216249 76.029504,20 77.166321,20 C 78.796308,20 79.113034,19.540245 78.664542,17.825209 C 78.299433,16.42903 78.705198,15.187358 79.797911,14.357013 C 82.131147,12.584002 82.994084,12.68882 83.033269,14.75 C 83.078491,17.128728 87.150254,21.898559 87.72834,20.25 C 88.344942,18.491603 91,18.687609 91,20.491526 C 91,21.311865 90.1,22.545112 89,23.232073 C 86.12766,25.025879 86.533573,26.941442 90.045444,28.165687 C 93.618025,29.411095 93.457257,31.367734 89.746061,31.809361 C 88.316225,31.979509 86.608328,32.767009 85.950735,33.559361 C 84.13049,35.752621 77.972682,35.206769 74,32.5 z M 110.75,34.2092 C 108.81609,33.96866 108,33.293348 108,31.933578 C 108,30.87011 107.55,30 107,30 C 106.45,30 106,30.675 106,31.5 C 106,33.156833 103.46064,33.554351 102.52699,32.043674 C 102.20192,31.517695 101.27536,31.34084 100.46797,31.650663 C 99.660589,31.960486 99,31.877942 99,31.467231 C 99,30.278682 102.33965,28.06663 104.18664,28.031803 C 105.35008,28.009866 105.97049,26.99183 106.18664,24.75 C 106.43412,22.183317 106.95407,21.5 108.65964,21.5 C 109.84745,21.5 111.15995,21.1625 111.57631,20.75 C 113.06975,19.270413 115.07673,20.053349 117.98478,23.25 C 121.29547,26.889233 121.7037,28.515989 119.51686,29.355157 C 118.70113,29.668181 118.2787,30.562696 118.57811,31.342967 C 119.23932,33.066042 114.75626,34.707498 110.75,34.2092 z M 4.6087078,26.443924 C 10.142205,20.910427 12.354211,20 20.2651,20 C 24.87557,20 26.115278,20.284722 25.254167,21.145833 C 24.610403,21.789597 24.362152,23.560761 24.687604,25.188019 C 25.2556,28.028001 23.136881,30.936393 20.5,30.936393 C 18.548617,30.936393 15.664852,28.004162 15.417581,25.768557 C 15.279578,24.520851 15.129167,23.41666 15.083333,23.314801 C 15.0375,23.212942 11.969642,24.900442 8.2658701,27.064801 C 4.5620986,29.22916 1.1989407,31 0.79218585,31 C 0.385431,31 2.1028659,28.949766 4.6087078,26.443924 z M 23,26.5 C 23,25.8125 21.875,25.25 20.5,25.25 C 19.125,25.25 18,25.8125 18,26.5 C 18,27.1875 19.125,27.75 20.5,27.75 C 21.875,27.75 23,27.1875 23,26.5 z M 44.777014,29.684181 C 42.6408,28.859452 42.173411,28.157256 42.608041,26.425553 C 43.541548,22.706163 41.199766,22.720929 38.784075,26.449664 C 35.97164,30.790792 33.486528,31.248294 34.43672,27.25 C 35.348266,23.414324 38.331478,19.555526 40.655501,19.20598 C 41.730667,19.044269 43.442765,19.831769 44.460162,20.95598 C 45.523452,22.130901 47.558881,23 49.247258,23 C 50.862764,23 53.199978,23.798743 54.441068,24.774984 L 56.697594,26.549968 L 54.598797,28.115649 C 51.639807,30.323025 47.955695,30.911375 44.777014,29.684181 z M 55.203689,23.977676 C 51.251912,21.574457 51.190115,21 54.883369,21 C 57.015615,21 57.917038,21.574753 58.343705,23.20633 C 59.120897,26.178315 58.908247,26.230552 55.203689,23.977676 z M 48.678851,19.289387 C 48.378064,18.802704 48.496024,17.815451 48.940983,17.095492 C 49.555643,16.100951 49.927264,16.073294 50.487868,16.98037 C 50.893695,17.637012 50.775735,18.624265 50.225735,19.174265 C 49.666276,19.733724 48.98481,19.78444 48.678851,19.289387 z "
       id="path2253" />
    <path
       style="fill:#a39665"
       d="M 107.6835,65.741038 C 105.91742,65.144066 105.06278,64.278775 105.39196,63.420945 C 105.6807,62.668517 105.1774,61.639027 104.27352,61.133191 C 102.53068,60.157851 102.86476,59.349852 107.32624,53.75 C 108.78064,51.924502 111.12604,51.464389 112.42369,52.75 C 112.84005,53.1625 114.15255,53.5 115.34036,53.5 C 117.04593,53.5 117.56588,54.183317 117.81336,56.75 C 118.02951,58.99183 118.64992,60.009866 119.81336,60.031803 C 121.66035,60.06663 125,62.278682 125,63.467231 C 125,63.877942 124.33941,63.960486 123.53203,63.650663 C 122.72464,63.34084 121.79808,63.517695 121.47301,64.043674 C 120.53936,65.554351 118,65.156833 118,63.5 C 118,62.675 117.55,62 117,62 C 116.45,62 116,62.9 116,64 C 116,66.109085 114.54512,66.691037 113.5,65 C 112.62166,63.578814 111.2037,63.762392 110.82332,65.346539 C 110.57802,66.368152 109.82036,66.463347 107.6835,65.741038 z M 67.666667,63.333333 C 66.563646,62.230312 66.906779,61.24975 68.626748,60.589736 C 70.282157,59.954496 73,61.528497 73,63.122445 C 73,64.144438 68.649786,64.316452 67.666667,63.333333 z M 85.398157,62.595196 C 84.56838,60.432832 85.375902,54.5 86.5,54.5 C 87.05,54.5 87.637689,55.688784 87.805976,57.141742 C 88.03628,59.130147 88.558629,59.666676 89.91807,59.311174 C 90.976587,59.034366 91.975244,59.493104 92.330709,60.419432 C 92.753089,61.520136 92.357472,62 91.027632,62 C 89.977353,62 88.839919,62.45 88.5,63 C 87.611374,64.437828 86.025838,64.230909 85.398157,62.595196 z M 8.6165628,61.510382 C 7.2300783,60.46063 6.8859686,59.320157 7.3123962,57.188019 C 7.6378479,55.560761 7.3895972,53.789597 6.7458333,53.145833 C 5.1490851,51.549085 17.607116,51.678518 21.113214,53.295104 C 23.806562,54.536948 30.875357,62.002012 29.353592,61.997429 C 28.884116,61.996015 25.9125,60.434591 22.75,58.527597 C 19.5875,56.620603 16.9625,55.15926 16.916667,55.280168 C 16.870833,55.401076 16.720422,56.520851 16.582419,57.768557 C 16.335148,60.004162 13.451383,62.936393 11.5,62.936393 C 10.95,62.936393 9.6524533,62.294688 8.6165628,61.510382 z M 14,58.5 C 14,57.8125 12.875,57.25 11.5,57.25 C 10.125,57.25 9,57.8125 9,58.5 C 9,59.1875 10.125,59.75 11.5,59.75 C 12.875,59.75 14,59.1875 14,58.5 z M 47,62 C 47,61.45 47.45,61 48,61 C 48.55,61 49,61.45 49,62 C 49,62.55 48.55,63 48,63 C 47.45,63 47,62.55 47,62 z M 57.641053,58.969497 C 56.656464,57.30272 54.913605,55.065779 53.768033,53.998517 C 51.90886,52.266433 51.86317,51.989737 53.342588,51.422031 C 56.672142,50.144361 60.108708,53.425773 61.540685,59.25 C 62.483758,63.085721 59.965567,62.904586 57.641053,58.969497 z M 37.354231,56.519273 C 37.709404,55.593707 38,54.423229 38,53.918213 C 38,53.413196 39.376558,53 41.059017,53 C 44.657548,53 44.188695,54.333942 39.790819,56.608172 C 36.929173,58.087986 36.754702,58.081621 37.354231,56.519273 z M 70.2,54.8 C 68.531461,53.131461 68.699734,51 70.5,51 C 71.433333,51 72,51.944444 72,53.5 C 72,56.350647 71.855214,56.455214 70.2,54.8 z M 1.0789474,52.583333 C 1.0355263,51.529167 1.271875,50.938542 1.6041667,51.270833 C 1.9364583,51.603125 1.9719846,52.465625 1.683114,53.1875 C 1.3638877,53.985233 1.1269313,53.748276 1.0789474,52.583333 z M 74,52.122445 C 74,51.639789 74.675,50.684689 75.5,50 C 76.325,49.315311 77,47.906397 77,46.869081 C 77,45.206985 77.267148,45.132474 79.25,46.241526 C 80.4875,46.933687 81.623092,47.548092 81.773539,47.606872 C 81.923985,47.665651 81.76334,48.453151 81.41655,49.356872 C 81.06976,50.260592 79.709167,51 78.393011,51 C 77.076855,51 76,51.45 76,52 C 76,52.55 75.55,53 75,53 C 74.45,53 74,52.6051 74,52.122445 z M 45.456231,50.92918 C 45.081149,50.322285 45.215303,49.384697 45.75435,48.84565 C 46.394463,48.205537 46.938785,48.398092 47.323543,49.400758 C 48.023125,51.223839 46.439465,52.520087 45.456231,50.92918 z M 113,33.44798 C 113,31.792208 111.42129,31.509316 110.5,33 C 109.45488,34.691037 108,34.109085 108,32 C 108,30.9 107.55,30 107,30 C 106.45,30 106,30.675 106,31.5 C 106,33.156833 103.46064,33.554351 102.52699,32.043674 C 102.20192,31.517695 101.27536,31.34084 100.46797,31.650663 C 99.660589,31.960486 99,31.877942 99,31.467231 C 99,30.278682 102.33965,28.06663 104.18664,28.031803 C 105.35008,28.009866 105.97049,26.99183 106.18664,24.75 C 106.43412,22.183317 106.95407,21.5 108.65964,21.5 C 109.84745,21.5 111.15995,21.1625 111.57631,20.75 C 112.87396,19.464389 115.21936,19.924502 116.67376,21.75 C 121.13524,27.349852 121.46932,28.157851 119.72648,29.133191 C 118.8226,29.639027 118.31694,30.662362 118.60279,31.407268 C 118.92993,32.259791 117.98819,33.157069 116.06126,33.828802 C 113.56435,34.699227 113,34.629021 113,33.44798 z M 71.532624,31.052786 C 71.174762,30.473754 70.022647,30 68.972368,30 C 67.642528,30 67.246911,29.520136 67.669291,28.419432 C 68.024756,27.493104 69.023413,27.034366 70.08193,27.311174 C 71.441371,27.666676 71.96372,27.130147 72.194024,25.141742 C 72.678366,20.96002 74.5,22.559634 74.5,27.166667 C 74.5,31.162706 72.897555,33.261292 71.532624,31.052786 z M 87,31.188867 C 87,30.669679 87.617963,29.732025 88.373252,29.105192 C 89.979723,27.771939 93.254383,28.728278 92.715145,30.373207 C 92.262339,31.75448 87,32.505516 87,31.188867 z M 4.6087078,26.443924 C 10.142205,20.910427 12.354211,20 20.2651,20 C 24.87557,20 26.115278,20.284722 25.254167,21.145833 C 24.610403,21.789597 24.362152,23.560761 24.687604,25.188019 C 25.2556,28.028001 23.136881,30.936393 20.5,30.936393 C 18.548617,30.936393 15.664852,28.004162 15.417581,25.768557 C 15.279578,24.520851 15.129167,23.41666 15.083333,23.314801 C 15.0375,23.212942 11.969642,24.900442 8.2658701,27.064801 C 4.5620986,29.22916 1.1989407,31 0.79218585,31 C 0.385431,31 2.1028659,28.949766 4.6087078,26.443924 z M 23,26.5 C 23,25.8125 21.875,25.25 20.5,25.25 C 19.125,25.25 18,25.8125 18,26.5 C 18,27.1875 19.125,27.75 20.5,27.75 C 21.875,27.75 23,27.1875 23,26.5 z M 47,30 C 47,29.45 47.45,29 48,29 C 48.55,29 49,29.45 49,30 C 49,30.55 48.55,31 48,31 C 47.45,31 47,30.55 47,30 z M 34.459315,27.25 C 35.891292,21.425773 39.327858,18.144361 42.657412,19.422031 C 44.13683,19.989737 44.09114,20.266433 42.231967,21.998517 C 41.086395,23.065779 39.343536,25.30272 38.358947,26.969497 C 36.034433,30.904586 33.516242,31.085721 34.459315,27.25 z M 55.203689,23.977676 C 51.251912,21.574457 51.190115,21 54.883369,21 C 57.015615,21 57.917038,21.574753 58.343705,23.20633 C 59.120897,26.178315 58.908247,26.230552 55.203689,23.977676 z M 88,21.622445 C 88,19.958049 88.54799,19 89.5,19 C 91.434153,19 91.434153,21.394796 89.5,23 C 88.23152,24.052745 88,23.840124 88,21.622445 z M 84,20 C 84,19.45 82.923145,19 81.606989,19 C 80.290833,19 78.93024,18.260592 78.58345,17.356872 C 78.23666,16.453151 78.076015,15.665651 78.226461,15.606872 C 78.376908,15.548092 79.5125,14.933687 80.75,14.241526 C 82.732852,13.132474 83,13.206985 83,14.869081 C 83,15.906397 83.675,17.315311 84.5,18 C 86.21443,19.42285 86.477288,21 85,21 C 84.45,21 84,20.55 84,20 z M 48.678851,19.289387 C 48.378064,18.802704 48.496024,17.815451 48.940983,17.095492 C 49.555643,16.100951 49.927264,16.073294 50.487868,16.98037 C 50.893695,17.637012 50.775735,18.624265 50.225735,19.174265 C 49.666276,19.733724 48.98481,19.78444 48.678851,19.289387 z "
       id="path2251" />
  </g>
</svg>
