<?xml version="1.0" encoding="UTF-8" standalone="no"?>
<!-- Created with Inkscape (http://www.inkscape.org/) -->
<svg
   xmlns:dc="http://purl.org/dc/elements/1.1/"
   xmlns:cc="http://web.resource.org/cc/"
   xmlns:rdf="http://www.w3.org/1999/02/22-rdf-syntax-ns#"
   xmlns:svg="http://www.w3.org/2000/svg"
   xmlns="http://www.w3.org/2000/svg"
   xmlns:xlink="http://www.w3.org/1999/xlink"
   xmlns:sodipodi="http://sodipodi.sourceforge.net/DTD/sodipodi-0.dtd"
   xmlns:inkscape="http://www.inkscape.org/namespaces/inkscape"
   id="svg47"
   sodipodi:version="0.32"
   inkscape:version="0.44"
   width="256"
   height="92"
   version="1.0"
   sodipodi:docbase="/home/kde4/Developpements/C++/games/ksirk/ksirk/skins/realpol/Images/sprites"
   sodipodi:docname="firing.svg">
  <metadata
     id="metadata52">
    <rdf:RDF>
      <cc:Work
         rdf:about="">
        <dc:format>image/svg+xml</dc:format>
        <dc:type
           rdf:resource="http://purl.org/dc/dcmitype/StillImage" />
      </cc:Work>
    </rdf:RDF>
  </metadata>
  <defs
     id="defs50" />
  <sodipodi:namedview
     inkscape:window-height="593"
     inkscape:window-width="928"
     inkscape:pageshadow="2"
     inkscape:pageopacity="0.0"
     guidetolerance="10.0"
     gridtolerance="10.0"
     objecttolerance="10.0"
     borderopacity="1.0"
     bordercolor="#666666"
     pagecolor="#ffffff"
     id="base"
     inkscape:zoom="3.2890625"
     inkscape:cx="128"
     inkscape:cy="45.847981"
     inkscape:window-x="0"
     inkscape:window-y="0"
     inkscape:current-layer="g2177" />
  <g
     id="g2177">
    <path
       style="fill:#f7f6ea"
       d="M 39.222506,59.443296 C 37.754872,58.415325 37,56.854391 37,54.84757 L 37,51.808549 L 30.75,52.154274 C 24.546806,52.497411 24.497587,52.478952 24.177742,49.689528 C 23.790079,46.308643 25.649521,43.753987 27.963455,44.488401 C 28.888055,44.781858 34.104412,44.559494 39.55536,43.99426 C 48.713432,43.044616 49.581386,43.107618 50.983087,44.823758 C 51.817389,45.845217 53.9625,47.257335 55.75,47.961798 C 57.5375,48.666262 59,49.852673 59,50.598267 C 59,51.343862 60.143273,52.702995 61.540607,53.618564 C 64.710829,55.695773 66.108514,58.206387 65.049043,59.920648 C 64.045952,61.543682 58.469865,59.944036 54.646163,56.936312 L 52.167361,54.986486 L 49.160603,57.993243 C 45.828528,61.325318 42.585116,61.798559 39.222506,59.443296 z M 103.22251,59.443296 C 101.78184,58.434211 101,56.851197 101,54.943296 C 101,52.271163 100.6913,52 97.649223,52 C 95.806296,52 92.993796,52.443146 91.399223,52.984768 C 87.094879,54.446809 78.60186,52.072539 78.194086,49.2932 C 77.77619,46.444869 85.127724,43.588538 91.185419,44.245608 C 93.558439,44.503006 99.542631,44.32084 104.48362,43.840794 C 112.64118,43.048242 113.60668,43.138694 114.98362,44.82447 C 115.81763,45.845537 117.9625,47.257335 119.75,47.961798 C 121.5375,48.666262 123,49.852673 123,50.598267 C 123,51.343862 124.14327,52.702995 125.54061,53.618564 C 128.71083,55.695773 130.10851,58.206387 129.04904,59.920648 C 128.04595,61.543682 122.46987,59.944036 118.64616,56.936312 L 116.16736,54.986486 L 113.1606,57.993243 C 109.82853,61.325318 106.58512,61.798559 103.22251,59.443296 z M 167.22251,59.443296 C 165.75487,58.415325 165,56.854391 165,54.84757 L 165,51.808549 L 158.75,52.154274 L 152.5,52.5 L 152.5,49.108986 C 152.5,46.754302 153.11122,45.379055 154.5,44.608986 C 155.6,43.999044 156.725,43.229867 157,42.899704 C 157.60162,42.177403 161.65298,40 162.3953,40 C 162.68504,40 163.82102,40.964884 164.9197,42.144187 C 166.63091,43.980949 167.64077,44.202693 171.96311,43.690775 C 176.01484,43.210907 177.35278,43.443785 178.75445,44.872858 C 179.7145,45.851683 181.9625,47.235312 183.75,47.94759 C 185.5375,48.659868 187,49.852673 187,50.598267 C 187,51.343862 188.14327,52.702995 189.54061,53.618564 C 192.71083,55.695773 194.10851,58.206387 193.04904,59.920648 C 192.04595,61.543682 186.46987,59.944036 182.64616,56.936312 L 180.16736,54.986486 L 177.1606,57.993243 C 173.82853,61.325318 170.58512,61.798559 167.22251,59.443296 z M 231.22251,58.443296 C 229.75004,57.41194 229,55.854986 229,53.829752 C 229,50.792973 228.97168,50.777159 224.68529,51.419943 C 219.82009,52.149525 217.69793,50.671912 216.45413,45.68875 C 215.87075,43.351517 216.11054,42.783854 217.87622,42.322118 C 219.0929,42.003949 220,40.962323 220,39.883369 C 220,38.529974 220.77384,37.959928 222.75,37.857595 C 224.2625,37.779273 227.05819,37.589654 228.96266,37.436221 C 233.67201,37.056811 236.27661,38.553106 235.44851,41.162222 C 234.86793,42.991481 235.11197,43.134318 237.80667,42.542463 C 240.046,42.050623 241.28256,42.362967 242.65621,43.767414 C 243.6703,44.804233 245.91965,46.217564 247.65478,46.908149 C 249.38991,47.598734 251.0711,48.914413 251.39077,49.831879 C 251.71043,50.749346 252.85613,52.939207 253.93675,54.698238 C 255.86541,57.837681 255.86637,57.907638 253.98854,58.503637 C 252.03119,59.124876 248.77155,57.849037 245.87174,55.326685 C 244.43862,54.080108 243.87857,54.275277 241.19866,56.955184 C 237.83098,60.322866 234.5951,60.805552 231.22251,58.443296 z M 14.801338,25.955184 C 12.121431,23.275277 11.561383,23.080108 10.128261,24.326685 C 7.228452,26.849037 3.9688093,28.124876 2.0114603,27.503637 C 0.13363402,26.907638 0.13458603,26.837681 2.0632456,23.698238 C 3.1438744,21.939207 4.2895683,19.749346 4.6092321,18.831879 C 4.9288959,17.914413 6.6100902,16.605128 8.3452195,15.922357 C 10.080349,15.239586 12.182611,13.845217 13.016913,12.823758 C 14.418614,11.107618 15.286568,11.044616 24.44464,11.99426 C 29.895588,12.559494 35.111945,12.781858 36.036545,12.488401 C 38.350479,11.753987 40.209921,14.308643 39.822258,17.689528 C 39.502413,20.478952 39.453194,20.497411 33.25,20.154274 L 27,19.808549 L 27,22.84757 C 27,29.095962 19.781127,30.934973 14.801338,25.955184 z M 62.597522,27.393542 C 62.191652,26.335863 63.17993,24.688967 65.490533,22.572537 C 67.42074,20.804536 69,18.882037 69,18.300316 C 69,17.718594 70.4625,16.666262 72.25,15.961798 C 74.0375,15.257335 76.182369,13.845537 77.016376,12.82447 C 78.393317,11.138694 79.358824,11.048242 87.516376,11.840794 C 92.457369,12.32084 98.441561,12.503006 100.81458,12.245608 C 106.87228,11.588538 114.22381,14.444869 113.80591,17.2932 C 113.39814,20.072539 104.90512,22.446809 100.60078,20.984768 C 99.006204,20.443146 96.193704,20 94.350777,20 C 91.308704,20 91,20.271163 91,22.943296 C 91,29.097212 83.736698,30.890545 78.801338,25.955184 C 76.054893,23.20874 75.593378,23.058013 74.091663,24.417046 C 72.381538,25.964688 65.789913,29 64.139107,29 C 63.630286,29 62.936572,28.277094 62.597522,27.393542 z M 126.59752,27.393542 C 126.19165,26.335863 127.17993,24.688967 129.49053,22.572537 C 131.42074,20.804536 133,18.882037 133,18.300316 C 133,17.718594 134.4625,16.659868 136.25,15.94759 C 138.0375,15.235312 140.2855,13.851683 141.24555,12.872858 C 142.64722,11.443785 143.98516,11.210907 148.03689,11.690775 C 152.35923,12.202693 153.36909,11.980949 155.0803,10.144187 C 156.17898,8.9648842 157.31496,8 157.6047,8 C 158.34702,8 162.39838,10.177403 163,10.899704 C 163.275,11.229867 164.4,11.999044 165.5,12.608986 C 166.88878,13.379055 167.5,14.754302 167.5,17.108986 L 167.5,20.5 L 161.25,20.154274 L 155,19.808549 L 155,22.84757 C 155,29.095962 147.78113,30.934973 142.80134,25.955184 C 140.05489,23.20874 139.59338,23.058013 138.09166,24.417046 C 136.38154,25.964688 129.78991,29 128.13911,29 C 127.63029,29 126.93657,28.277094 126.59752,27.393542 z M 190.59752,27.393542 C 190.19165,26.335863 191.17993,24.688967 193.49053,22.572537 C 195.42074,20.804536 197,18.882037 197,18.300316 C 197,17.718594 198.4625,16.659868 200.25,15.94759 C 202.0375,15.235312 204.3297,13.804233 205.34379,12.767414 C 206.71744,11.362967 207.954,11.050623 210.19333,11.542463 C 212.88803,12.134318 213.13207,11.991481 212.55149,10.162222 C 211.72339,7.5531065 214.32799,6.0568111 219.03734,6.436221 C 220.94181,6.5896541 223.7375,6.7792725 225.25,6.8575952 C 227.22616,6.9599277 228,7.5299737 228,8.8833686 C 228,9.962323 228.9071,11.003949 230.12378,11.322118 C 231.88946,11.783854 232.12925,12.351517 231.54587,14.68875 C 230.30207,19.671912 228.17991,21.149525 223.31471,20.419943 C 219.02832,19.777159 219,19.792973 219,22.829752 C 219,29.095738 211.78934,30.943188 206.80134,25.955184 C 204.05489,23.20874 203.59338,23.058013 202.09166,24.417046 C 200.38154,25.964688 193.78991,29 192.13911,29 C 191.63029,29 190.93657,28.277094 190.59752,27.393542 z "
       id="path2191" />
    <path
       style="fill:#d3d0cd"
       d="M 39.571429,58.428571 C 38.707143,57.564286 38,55.493877 38,53.827664 L 38,50.798185 L 31.75,51.149093 C 25.902594,51.477396 25.479378,51.354778 25.179863,49.245529 C 24.777729,46.413618 25.239704,46.265354 38,45.131103 C 47.672365,44.271335 48.662725,44.347618 50.564451,46.098884 C 51.699899,47.144498 53.251967,48 54.013491,48 C 55.897464,48 65.137753,57.968093 64.384133,59.187477 C 63.511328,60.599705 58.998093,59.223281 55.316722,56.422142 C 51.744239,53.703856 50,53.350486 50,55.345012 C 50,59.282429 42.610301,61.467443 39.571429,58.428571 z M 103.57143,58.428571 C 102.70714,57.564286 102,55.539286 102,53.928571 C 102,51.197486 101.74033,51 98.149223,51 C 96.031296,51 92.993796,51.454397 91.399223,52.00977 C 88.071439,53.168804 79.932538,51.297614 79.237935,49.213806 C 78.555229,47.165688 85.894743,44.712119 90.984719,45.286905 C 93.468124,45.567343 99.325,45.439042 104,45.00179 C 111.61156,44.289884 112.71578,44.405026 114.56445,46.103394 C 115.6999,47.146527 117.25197,48 118.01349,48 C 119.89746,48 129.13775,57.968093 128.38413,59.187477 C 127.51133,60.599705 122.99809,59.223281 119.31672,56.422142 C 115.74424,53.703856 114,53.350486 114,55.345012 C 114,59.282429 106.6103,61.467443 103.57143,58.428571 z M 167.57143,58.428571 C 166.70714,57.564286 166,55.493877 166,53.827664 L 166,50.798185 L 159.75,51.149093 C 153.85142,51.480269 153.4815,51.369388 153.17089,49.177068 C 152.93632,47.521388 153.42562,46.701458 154.87432,46.322615 C 155.99222,46.030278 157.61319,44.713098 158.47648,43.395547 C 160.42009,40.429231 163.00327,40.296492 163.74292,43.124926 C 164.25417,45.079932 164.80265,45.209392 170.60196,44.743878 C 175.90695,44.318045 177.17495,44.535841 178.60765,46.118953 C 179.54393,47.153529 181.0048,48 181.85403,48 C 183.85055,48 193.17547,57.90706 192.38413,59.187477 C 191.51133,60.599705 186.99809,59.223281 183.31672,56.422142 C 179.74424,53.703856 178,53.350486 178,55.345012 C 178,59.282429 170.6103,61.467443 167.57143,58.428571 z M 231.57143,57.428571 C 230.70714,56.564286 230,54.480762 230,52.798519 C 230,49.760402 229.96952,49.743331 225.4538,50.252318 C 222.25286,50.61311 220.47741,50.334549 219.4538,49.310942 C 217.78853,47.645669 217.49401,44 219.02475,44 C 219.58836,44 220.47503,42.880772 220.99512,41.512828 C 221.8707,39.209893 222.39206,39.038094 228.03342,39.193572 C 233.97305,39.35727 234.11061,39.423167 233.50978,41.81707 C 232.9165,44.180864 233.03956,44.24929 236.802,43.647653 C 239.94234,43.145492 241.06425,43.41351 242.51025,45.011327 C 243.5001,46.105097 245.11975,47 246.10947,47 C 248.39855,47 256.32675,57.180022 254.78146,58.135068 C 253.33997,59.025954 251.21825,58.23495 247.31672,55.352118 C 243.72265,52.696467 242,52.370158 242,54.345012 C 242,58.282429 234.6103,60.467443 231.57143,57.428571 z M 1.2185441,27.135068 C -0.25986442,26.221361 7.554153,16 9.7310712,16 C 10.633086,16 12.300101,15.144498 13.435549,14.098884 C 15.337275,12.347618 16.327635,12.271335 26,13.131103 C 38.760296,14.265354 39.222271,14.413618 38.820137,17.245529 C 38.520622,19.354778 38.097406,19.477396 32.25,19.149093 L 26,18.798185 L 26,21.827664 C 26,25.604516 23.703829,28 20.083559,28 C 17.307683,28 14,25.374573 14,23.171259 C 14,21.365867 12.176716,21.770824 8.6832781,24.352118 C 4.781749,27.23495 2.6600292,28.025954 1.2185441,27.135068 z M 63.615867,27.187477 C 62.862247,25.968093 72.102536,16 73.986509,16 C 74.748033,16 76.300101,15.146527 77.435549,14.103394 C 79.284218,12.405026 80.388442,12.289884 88,13.00179 C 92.675,13.439042 98.531876,13.567343 101.01528,13.286905 C 106.10526,12.712119 113.44477,15.165688 112.76206,17.213806 C 112.06746,19.297614 103.92856,21.168804 100.60078,20.00977 C 99.006204,19.454397 95.968704,19 93.850777,19 C 90.259674,19 90,19.197486 90,21.928571 C 90,25.611797 87.672761,28 84.083559,28 C 81.307683,28 78,25.374573 78,23.171259 C 78,21.346033 76.155783,21.779928 72.683278,24.422142 C 69.001907,27.223281 64.488672,28.599705 63.615867,27.187477 z M 127.61587,27.187477 C 126.82453,25.90706 136.14945,16 138.14597,16 C 138.9952,16 140.45607,15.153529 141.39235,14.118953 C 142.82505,12.535841 144.09305,12.318045 149.39804,12.743878 C 155.19735,13.209392 155.74583,13.079932 156.25708,11.124926 C 156.99673,8.2964918 159.57991,8.429231 161.52352,11.395547 C 162.38681,12.713098 164.00778,14.030278 165.12568,14.322615 C 166.57438,14.701458 167.06368,15.521388 166.82911,17.177068 C 166.5185,19.369388 166.14858,19.480269 160.25,19.149093 L 154,18.798185 L 154,21.827664 C 154,25.604516 151.70383,28 148.08356,28 C 145.30768,28 142,25.374573 142,23.171259 C 142,21.346033 140.15578,21.779928 136.68328,24.422142 C 133.00191,27.223281 128.48867,28.599705 127.61587,27.187477 z M 191.61587,27.187477 C 190.82453,25.90706 200.14945,16 202.14597,16 C 202.9952,16 204.4999,15.105097 205.48975,14.011327 C 206.93575,12.41351 208.05766,12.145492 211.198,12.647653 C 214.96044,13.24929 215.0835,13.180864 214.49022,10.81707 C 213.88939,8.4231671 214.02695,8.3572702 219.96658,8.1935715 C 225.60794,8.0380936 226.1293,8.209893 227.00488,10.512828 C 227.52497,11.880772 228.41164,13 228.97525,13 C 230.50599,13 230.21147,16.645669 228.5462,18.310942 C 227.52259,19.334549 225.74714,19.61311 222.5462,19.252318 C 218.03048,18.743331 218,18.760402 218,21.798519 C 218,25.602435 215.71264,28 212.08356,28 C 209.30768,28 206,25.374573 206,23.171259 C 206,21.346033 204.15578,21.779928 200.68328,24.422142 C 197.00191,27.223281 192.48867,28.599705 191.61587,27.187477 z "
       id="path2189" />
    <path
       style="fill:#e5ddac"
       d="M 40.44113,58.580611 C 39.197706,57.671398 38.496061,55.964091 38.48904,53.830611 C 38.477141,50.214907 38.008381,50.080148 29,51.102708 C 25.827389,51.462837 25.5,51.266151 25.5,49 C 25.5,46.588223 25.747024,46.493777 32.5,46.323659 C 36.35,46.226671 41.658791,45.907851 44.297314,45.61517 C 47.81558,45.224902 49.234614,45.44782 49.619672,46.451264 C 49.908446,47.203797 51.31777,48.113923 52.751503,48.473767 C 54.185236,48.833611 57.077675,50.899738 59.179145,53.065159 C 65.767776,59.854294 63.636694,61.070032 54.966278,55.468514 L 49.5,51.937027 L 49.184631,54.457596 C 48.879046,56.89997 45.681914,60 43.468623,60 C 42.871123,60 41.508751,59.361275 40.44113,58.580611 z M 103.91334,57.913342 C 102.44353,56.443533 102.00737,55.106769 102.43791,53.391383 C 103.30083,49.953231 101.00932,49.391484 94.033178,51.331022 C 89.132467,52.693542 87.564455,52.746927 83.869255,51.677067 C 78.294261,50.062956 78.234366,47.937526 83.710527,46.044434 C 86.89918,44.942126 89.083433,44.820778 92.710527,45.544434 C 95.344737,46.069995 100.875,46.216341 105,45.869646 C 110.39707,45.416037 112.78147,45.585529 113.50384,46.47413 C 114.05595,47.15329 115.63095,48.06396 117.00384,48.497839 C 118.37673,48.931719 121.1875,51.022716 123.25,53.1445 C 129.77456,59.8566 127.5916,61.040901 118.96628,55.468514 L 113.5,51.937027 L 113.18463,54.457596 C 112.86779,56.989916 109.65962,60 107.27749,60 C 106.57487,60 105.061,59.061004 103.91334,57.913342 z M 168.44113,58.580611 C 167.19771,57.671398 166.49606,55.964091 166.48904,53.830611 C 166.47714,50.214943 166.00804,50.080078 157.00061,51.102708 C 153.97809,51.44586 153.45712,51.189767 153.17758,49.223439 C 152.92676,47.459118 153.52735,46.712127 155.84679,45.903563 C 157.49286,45.32974 159.08661,44.216692 159.38844,43.430124 C 160.25025,41.184291 163,41.720485 163,44.134367 C 163,46.160259 163.35985,46.242988 170.08041,45.762134 C 175.29592,45.388966 177.2904,45.593194 177.65277,46.537519 C 177.92334,47.242611 179.31777,48.113923 180.7515,48.473767 C 182.18524,48.833611 185.07767,50.899738 187.17914,53.065159 C 193.76778,59.854294 191.63669,61.070032 182.96628,55.468514 L 177.5,51.937027 L 177.18463,54.457596 C 176.87905,56.89997 173.68191,60 171.46862,60 C 170.87112,60 169.50875,59.361275 168.44113,58.580611 z M 232.44113,57.580611 C 231.19505,56.669458 230.5,54.973546 230.5,52.844306 C 230.5,50.310075 230.02806,49.44526 228.5,49.179335 C 227.4,48.987905 225.9375,48.108234 225.25,47.224511 C 224.11179,45.761432 223.87942,45.782638 222.6517,47.461646 C 221.34423,49.249718 219,48.889481 219,46.90049 C 219,44.862169 223.45554,40 225.32339,40 C 226.39439,40 228.36599,41.181885 229.70473,42.626411 C 231.85611,44.947785 232.65766,45.181705 236.6062,44.640499 C 239.93688,44.183977 241.20985,44.383293 241.60915,45.42384 C 241.90371,46.191456 243.34965,47.121297 244.82236,47.490153 C 247.16331,48.076474 250.32922,50.872059 254.92944,56.414979 C 257.37352,59.359917 252.81147,58.244799 246.96628,54.468514 L 241.5,50.937027 L 241.18463,53.457596 C 240.87905,55.89997 237.68191,59 235.46862,59 C 234.87112,59 233.50875,58.361275 232.44113,57.580611 z M 17.287875,26.489082 C 16.101449,25.658077 14.988822,23.843908 14.815369,22.457596 L 14.5,19.937027 L 9.0337222,23.468514 C 3.1885284,27.244799 -1.3735206,28.359917 1.070561,25.414979 C 5.6707764,19.872059 8.8366873,17.076474 11.177642,16.490153 C 12.650346,16.121297 14.091554,15.203797 14.380328,14.451264 C 14.765386,13.44782 16.18442,13.224902 19.702686,13.61517 C 22.341209,13.907851 27.65,14.226671 31.5,14.323659 C 38.252976,14.493777 38.5,14.588223 38.5,17 C 38.5,19.266151 38.172611,19.462837 35,19.102708 C 25.991619,18.080148 25.522859,18.214907 25.51096,21.830611 C 25.503939,23.964091 24.802294,25.671398 23.55887,26.580611 C 21.095798,28.381654 19.966364,28.365169 17.287875,26.489082 z M 81.287875,26.489082 C 80.101449,25.658077 78.988822,23.843908 78.815369,22.457596 L 78.5,19.937027 L 73.033722,23.468514 C 64.408397,29.040901 62.225441,27.8566 68.75,21.1445 C 70.8125,19.022716 73.623273,16.931719 74.996162,16.497839 C 76.36905,16.06396 77.94405,15.15329 78.496162,14.47413 C 79.218534,13.585529 81.602926,13.416037 87,13.869646 C 91.125,14.216341 96.655263,14.069995 99.289473,13.544434 C 102.91657,12.820778 105.10082,12.942126 108.28947,14.044434 C 113.76563,15.937526 113.70574,18.062956 108.13075,19.677067 C 104.43555,20.746927 102.86753,20.693542 97.966822,19.331022 C 90.990684,17.391484 88.699174,17.953231 89.562095,21.391383 C 89.992629,23.106769 89.556467,24.443533 88.086658,25.913342 C 85.605746,28.394254 84.180235,28.51497 81.287875,26.489082 z M 145.28788,26.489082 C 144.10145,25.658077 142.98882,23.843908 142.81537,22.457596 L 142.5,19.937027 L 137.03372,23.468514 C 128.36331,29.070032 126.23222,27.854294 132.82086,21.065159 C 134.92233,18.899738 137.81476,16.833611 139.2485,16.473767 C 140.68223,16.113923 142.07666,15.242611 142.34723,14.537519 C 142.7096,13.593194 144.70408,13.388966 149.91959,13.762134 C 156.64015,14.242988 157,14.160259 157,12.134367 C 157,9.720485 159.74975,9.1842914 160.61156,11.430124 C 160.91339,12.216692 162.50714,13.32974 164.15321,13.903563 C 166.47265,14.712127 167.07324,15.459118 166.82242,17.223439 C 166.54288,19.189767 166.02191,19.44586 162.99939,19.102708 C 153.99196,18.080078 153.52286,18.214943 153.51096,21.830611 C 153.50394,23.964091 152.80229,25.671398 151.55887,26.580611 C 149.0958,28.381654 147.96636,28.365169 145.28788,26.489082 z M 209.28788,26.489082 C 208.10145,25.658077 206.98882,23.843908 206.81537,22.457596 L 206.5,19.937027 L 201.03372,23.468514 C 192.36331,29.070032 190.23222,27.854294 196.82086,21.065159 C 198.92233,18.899738 201.81476,16.833611 203.2485,16.473767 C 204.68223,16.113923 206.09629,15.191456 206.39085,14.42384 C 206.79015,13.383293 208.06312,13.183977 211.3938,13.640499 C 215.34234,14.181705 216.14389,13.947785 218.29527,11.626411 C 219.63401,10.181885 221.60561,9 222.67661,9 C 224.54446,9 229,13.862169 229,15.90049 C 229,17.889481 226.65577,18.249718 225.3483,16.461646 C 224.12058,14.782638 223.88821,14.761432 222.75,16.224511 C 222.0625,17.108234 220.6,17.987905 219.5,18.179335 C 217.97194,18.44526 217.5,19.310075 217.5,21.844306 C 217.5,23.973546 216.80495,25.669458 215.55887,26.580611 C 213.0958,28.381654 211.96636,28.365169 209.28788,26.489082 z "
       id="path2187" />
    <path
       style="fill:#b0aead"
       d="M 40.21093,57.75 C 39.642252,57.0625 39.024652,55.153848 38.838485,53.508551 C 38.604051,51.436683 37.885193,50.419624 36.5,50.200001 C 32.120213,49.505586 31.519102,49.045491 33.072459,47.576531 C 35.067791,45.689609 48.992549,44.817009 49.652771,46.537519 C 49.92334,47.242611 51.31777,48.113923 52.751503,48.473767 C 55.413599,49.141911 63,56.194506 63,58.001145 C 63,60.186155 58.633128,58.477321 53.673275,54.351432 C 50.076608,51.359519 49,51.38564 49,54.464816 C 49,58.30147 42.63501,60.680579 40.21093,57.75 z M 104.2,57.8 C 103.54,57.14 103,55.366558 103,53.859017 C 103,50.180798 101.79318,49.632514 93.53968,49.560998 C 89.553892,49.526462 86.5,49.066189 86.5,48.5 C 86.5,47.95 88.75,47.482155 91.5,47.460345 C 94.25,47.438535 97.175,47.136339 98,46.7888 C 98.825,46.44126 102.57049,45.945775 106.32331,45.687722 C 111.34872,45.342164 113.27812,45.561207 113.64567,46.51902 C 113.92015,47.234287 115.31777,48.113923 116.7515,48.473767 C 119.4136,49.141911 127,56.194506 127,58.001145 C 127,60.186155 122.63313,58.477321 117.67327,54.351432 C 114.07661,51.359519 113,51.38564 113,54.464816 C 113,58.296306 106.97846,60.578459 104.2,57.8 z M 168.21093,57.75 C 167.64225,57.0625 167.02465,55.152136 166.83849,53.504748 C 166.56255,51.063005 165.94561,50.414405 163.5,49.994927 C 161.85,49.711914 160.46114,49.034778 160.41363,48.490179 C 160.36613,47.945581 159.98876,46.734049 159.57502,45.797887 C 158.66968,43.749374 159.58355,42 161.55902,42 C 162.36357,42 163,42.94267 163,44.134367 C 163,46.160259 163.35985,46.242988 170.08041,45.762134 C 175.29592,45.388966 177.2904,45.593194 177.65277,46.537519 C 177.92334,47.242611 179.31777,48.113923 180.7515,48.473767 C 183.4136,49.141911 191,56.194506 191,58.001145 C 191,60.186155 186.63313,58.477321 181.67327,54.351432 C 178.07661,51.359519 177,51.38564 177,54.464816 C 177,58.30147 170.63501,60.680579 168.21093,57.75 z M 232.21093,56.75 C 231.64225,56.0625 231.02465,54.153848 230.83849,52.508551 C 230.60537,50.448311 229.87742,49.410357 228.5,49.174191 C 227.4,48.98559 225.9375,48.108234 225.25,47.224511 C 224.11179,45.761432 223.87942,45.782638 222.6517,47.461646 C 221.34423,49.249718 219,48.889481 219,46.90049 C 219,44.862169 223.45554,40 225.32339,40 C 226.39439,40 228.36599,41.181885 229.70473,42.626411 C 231.85611,44.947785 232.65766,45.181705 236.6062,44.640499 C 239.93688,44.183977 241.20985,44.383293 241.60915,45.42384 C 241.90371,46.191456 243.34965,47.119935 244.82236,47.487126 C 247.30991,48.107352 256.40967,56.923668 255.50059,57.832747 C 254.57591,58.757427 250.08851,56.851792 246.52843,54.022596 C 241.91605,50.357136 241,50.264713 241,53.464816 C 241,57.30147 234.63501,59.680579 232.21093,56.75 z M 1.070561,25.414979 C 5.6707764,19.872059 8.8366873,17.076474 11.177642,16.490153 C 12.650346,16.121297 14.07666,15.242611 14.347229,14.537519 C 15.007451,12.817009 28.932209,13.689609 30.927541,15.576531 C 32.480561,17.045173 31.885148,17.501394 27.5,18.202804 C 26.084928,18.429147 25.353768,19.512723 25,21.907794 C 24.366355,26.197683 22.062558,27.757827 18.302769,26.443194 C 16.303225,25.744041 15.409319,24.680362 15.183578,22.731595 C 14.796494,19.390002 13.964988,19.324917 10.326725,22.351432 C 6.7075302,25.362085 3.5774695,27 1.4432967,27 C 0.015822786,27 -0.041740035,26.75522 1.070561,25.414979 z M 65,26.001145 C 65,24.194506 72.586401,17.141911 75.248497,16.473767 C 76.68223,16.113923 78.079854,15.234287 78.354328,14.51902 C 78.721875,13.561207 80.65128,13.342164 85.676685,13.687722 C 89.429508,13.945775 93.175,14.44126 94,14.7888 C 94.825,15.136339 97.75,15.438535 100.5,15.460345 C 103.25,15.482155 105.5,15.95 105.5,16.5 C 105.5,17.069274 102.37262,17.52615 98.239289,17.560711 C 90.265519,17.627384 89.309664,18.118743 88.826947,22.399138 C 88.397551,26.206725 85.955555,27.720413 82.302769,26.443194 C 80.303225,25.744041 79.409319,24.680362 79.183578,22.731595 C 78.796494,19.390002 77.964988,19.324917 74.326725,22.351432 C 69.366872,26.477321 65,28.186155 65,26.001145 z M 129,26.001145 C 129,24.194506 136.5864,17.141911 139.2485,16.473767 C 140.68223,16.113923 142.07666,15.242611 142.34723,14.537519 C 142.7096,13.593194 144.70408,13.388966 149.91959,13.762134 C 156.64015,14.242988 157,14.160259 157,12.134367 C 157,10.884377 157.63453,10 158.53138,10 C 160.49448,10 161.53164,12.654487 160.19691,14.262735 C 159.63215,14.943231 159.21879,15.95 159.27834,16.5 C 159.33789,17.05 158.06212,17.728404 156.4433,18.007564 C 154.00048,18.42882 153.41498,19.091377 153,21.904004 C 152.36655,26.197353 150.06364,27.758204 146.30277,26.443194 C 144.30322,25.744041 143.40932,24.680362 143.18358,22.731595 C 142.79649,19.390002 141.96499,19.324917 138.32673,22.351432 C 133.36687,26.477321 129,28.186155 129,26.001145 z M 193,26.001145 C 193,24.194506 200.5864,17.141911 203.2485,16.473767 C 204.68223,16.113923 206.09629,15.191456 206.39085,14.42384 C 206.79015,13.383293 208.06312,13.183977 211.3938,13.640499 C 215.34234,14.181705 216.14389,13.947785 218.29527,11.626411 C 219.63401,10.181885 221.60561,9 222.67661,9 C 224.54446,9 229,13.862169 229,15.90049 C 229,17.889481 226.65577,18.249718 225.3483,16.461646 C 224.12058,14.782638 223.88821,14.761432 222.75,16.224511 C 222.0625,17.108234 220.6,17.986851 219.5,18.176994 C 218.09259,18.420273 217.35185,19.525695 217,21.907794 C 216.36635,26.197683 214.06256,27.757827 210.30277,26.443194 C 208.30322,25.744041 207.40932,24.680362 207.18358,22.731595 C 206.79649,19.390002 205.96499,19.324917 202.32673,22.351432 C 197.36687,26.477321 193,28.186155 193,26.001145 z "
       id="path2185" />
    <path
       style="fill:#91908e"
       d="M 40.747098,57.75 C 39.84776,57.0625 38.974251,54.925 38.805969,53 C 38.531137,49.856179 38.143821,49.441557 35,48.925711 C 31.756957,48.393584 31.683541,48.306269 34,47.736399 C 39.959197,46.270381 48.915775,46.193589 50.081762,47.598517 C 50.721482,48.369333 51.977289,49.00074 52.872445,49.001644 C 54.694662,49.003485 62.502616,56.830717 61.591304,57.74203 C 60.892803,58.440531 57.724743,56.851079 53.12718,53.495481 C 49.451117,50.812454 47.911856,50.946934 48.679923,53.884025 C 48.996874,55.096047 48.350233,56.341707 46.863537,57.383029 C 44.08785,59.327196 42.903247,59.398269 40.747098,57.75 z M 104.7471,57.75 C 103.84776,57.0625 102.97425,54.925 102.80597,53 L 102.5,49.5 L 94.5,49.5 C 90.1,49.5 86.275,49.05 86,48.5 C 85.685203,47.870407 89.347281,47.439126 95.886638,47.335657 C 101.59929,47.245269 107.72447,46.899069 109.49815,46.566325 C 111.74767,46.144312 113.10439,46.42085 113.98396,47.480668 C 114.67747,48.3163 115.97729,49.00074 116.87244,49.001644 C 118.69466,49.003485 126.50262,56.830717 125.5913,57.74203 C 124.8928,58.440531 121.72474,56.851079 117.12718,53.495481 C 113.45112,50.812454 111.91186,50.946934 112.67992,53.884025 C 112.99687,55.096047 112.35023,56.341707 110.86354,57.383029 C 108.08785,59.327196 106.90325,59.398269 104.7471,57.75 z M 168.7471,57.75 C 167.84776,57.0625 166.97425,54.925 166.80597,53 C 166.53123,49.857247 166.14275,49.440911 163,48.921102 C 158.20279,48.127646 160.8745,47.251164 169.73902,46.710298 C 175.07168,46.384927 177.27652,46.628259 178.11146,47.634306 C 178.73485,48.385438 179.97729,49.00074 180.87244,49.001644 C 182.69466,49.003485 190.50262,56.830717 189.5913,57.74203 C 188.8928,58.440531 185.72474,56.851079 181.12718,53.495481 C 177.45112,50.812454 175.91186,50.946934 176.67992,53.884025 C 176.99687,55.096047 176.35023,56.341707 174.86354,57.383029 C 172.08785,59.327196 170.90325,59.398269 168.7471,57.75 z M 232.7471,56.75 C 231.84776,56.0625 230.97425,53.925 230.80597,52 C 230.56523,49.246125 230.02035,48.431879 228.25,48.180449 C 226.19339,47.888364 224.99214,46.089096 226.75,45.933699 C 234.13588,45.280772 241.28888,45.643156 242.17872,46.715344 C 242.76511,47.421905 243.97729,48.011556 244.87244,48.025681 C 245.7676,48.039806 248.75,50.352131 251.5,53.164181 C 255.64149,57.399117 256.07074,58.14949 254,57.534375 C 252.625,57.125931 250.43112,56.051106 249.12471,55.145875 C 241.09268,49.580366 239.71984,49.212666 240.67992,52.884025 C 240.99687,54.096047 240.35023,55.341707 238.86354,56.383029 C 236.08785,58.327196 234.90325,58.398269 232.7471,56.75 z M 159.59656,45.156231 C 159.25051,44.596312 159.45466,43.837041 160.05022,43.468963 C 161.5877,42.518745 162.57969,43.820313 161.2962,45.103799 C 160.57802,45.821979 160.01868,45.839234 159.59656,45.156231 z M 222.59781,44.158257 C 222.3416,43.743695 222.4937,42.819217 222.93581,42.103861 C 223.84688,40.629717 227.66632,40.99764 227.19033,42.513695 C 226.77773,43.827864 223.18806,45.113307 222.59781,44.158257 z M 4.5,22.164181 C 7.25,19.352131 10.2324,17.039806 11.127555,17.025681 C 12.022711,17.011556 13.278518,16.369333 13.918238,15.598517 C 15.084225,14.193589 24.040803,14.270381 30,15.736399 C 32.316459,16.306269 32.243043,16.393584 29,16.925711 C 25.789401,17.452514 25.474089,17.814233 25.186635,21.30031 C 24.773578,26.309639 21.41459,28.156895 17.44654,25.556929 C 15.650075,24.37984 14.97049,23.220847 15.311696,21.916074 C 16.280712,18.21055 14.923236,18.569341 6.8752935,24.145875 C 5.5688821,25.051106 3.375,26.125931 2,26.534375 C -0.070743914,27.14949 0.35851217,26.399117 4.5,22.164181 z M 81.136463,25.383029 C 79.649767,24.341707 79.003126,23.096047 79.320077,21.884025 C 80.088144,18.946934 78.548883,18.812454 74.87282,21.495481 C 70.275257,24.851079 67.107197,26.440531 66.408696,25.74203 C 65.497384,24.830717 73.305338,17.003485 75.127555,17.001644 C 76.022711,17.00074 77.322531,16.3163 78.016044,15.480668 C 78.895615,14.42085 80.252326,14.144312 82.501851,14.566325 C 84.275531,14.899069 90.400711,15.245269 96.113362,15.335657 C 102.65272,15.439126 106.3148,15.870407 106,16.5 C 105.725,17.05 101.9,17.5 97.5,17.5 L 89.5,17.5 L 89.194031,21 C 88.901159,24.350192 86.841969,27 84.531377,27 C 83.933876,27 82.406165,26.272363 81.136463,25.383029 z M 145.13646,25.383029 C 143.64977,24.341707 143.00313,23.096047 143.32008,21.884025 C 144.08814,18.946934 142.54888,18.812454 138.87282,21.495481 C 134.27526,24.851079 131.1072,26.440531 130.4087,25.74203 C 129.49738,24.830717 137.30534,17.003485 139.12756,17.001644 C 140.02271,17.00074 141.26515,16.385438 141.88854,15.634306 C 142.72348,14.628259 144.92832,14.384927 150.26098,14.710298 C 159.1255,15.251164 161.79721,16.127646 157,16.921102 C 153.85725,17.440911 153.46877,17.857247 153.19403,21 C 152.90116,24.350192 150.84197,27 148.53138,27 C 147.93388,27 146.40617,26.272363 145.13646,25.383029 z M 209.13646,25.383029 C 207.64977,24.341707 207.00313,23.096047 207.32008,21.884025 C 208.08814,18.946934 206.54888,18.812454 202.87282,21.495481 C 198.27526,24.851079 195.1072,26.440531 194.4087,25.74203 C 193.49738,24.830717 201.30534,17.003485 203.12756,17.001644 C 204.02271,17.00074 205.23489,16.421905 205.82128,15.715344 C 206.71112,14.643156 213.86412,14.280772 221.25,14.933699 C 223.00786,15.089096 221.80661,16.888364 219.75,17.180449 C 217.97965,17.431879 217.43477,18.246125 217.19403,21 C 216.90116,24.350192 214.84197,27 212.53138,27 C 211.93388,27 210.40617,26.272363 209.13646,25.383029 z M 158.46896,12.949781 C 157.51875,11.412296 158.82031,10.420313 160.1038,11.703799 C 160.82198,12.421979 160.83923,12.981325 160.15623,13.403444 C 159.59631,13.749493 158.83704,13.545344 158.46896,12.949781 z M 222.18576,12.891045 C 219.60393,11.915847 220.11173,10 222.95203,10 C 224.79433,10 226.52703,12.57531 225.20633,13.350562 C 224.81785,13.578598 223.45859,13.371816 222.18576,12.891045 z "
       id="path2183" />
    <path
       style="fill:#ad906e"
       d="M 40.75,57.919901 C 38.810777,56.790408 38.450229,52.895774 40.014331,49.973222 C 40.908877,48.301747 41.824093,48.147998 47.764331,48.67128 C 53.90454,49.212178 54.831515,49.603135 58.25,53.093679 C 60.3125,55.199655 62,57.165112 62,57.461363 C 62,58.762594 58.919181,57.809975 56.326725,55.707131 C 54.772026,54.446053 52.218073,52.60657 50.651274,51.61939 L 47.802547,49.824518 L 48.459341,52.814883 C 48.989429,55.228353 48.676173,56.113409 46.835562,57.402624 C 44.205931,59.244489 43.174677,59.332146 40.75,57.919901 z M 104.75,57.919901 C 102.81078,56.790408 102.45023,52.895774 104.01433,49.973222 C 104.90888,48.301747 105.82409,48.147998 111.76433,48.67128 C 117.90454,49.212178 118.83152,49.603135 122.25,53.093679 C 124.3125,55.199655 126,57.165112 126,57.461363 C 126,58.762594 122.91918,57.809975 120.32673,55.707131 C 118.77203,54.446053 116.21807,52.60657 114.65127,51.61939 L 111.80255,49.824518 L 112.45934,52.814883 C 112.98943,55.228353 112.67617,56.113409 110.83556,57.402624 C 108.20593,59.244489 107.17468,59.332146 104.75,57.919901 z M 168.75,57.919901 C 166.81078,56.790408 166.45023,52.895774 168.01433,49.973222 C 168.90888,48.301747 169.82409,48.147998 175.76433,48.67128 C 181.90454,49.212178 182.83152,49.603135 186.25,53.093679 C 188.3125,55.199655 190,57.165112 190,57.461363 C 190,58.762594 186.91918,57.809975 184.32673,55.707131 C 182.77203,54.446053 180.21807,52.60657 178.65127,51.61939 L 175.80255,49.824518 L 176.45934,52.814883 C 176.98943,55.228353 176.67617,56.113409 174.83556,57.402624 C 172.20593,59.244489 171.17468,59.332146 168.75,57.919901 z M 232.75,56.919901 C 230.81078,55.790408 230.45023,51.895774 232.01433,48.973222 C 232.91018,47.299319 233.81546,47.149019 239.76433,47.686527 C 246.19679,48.267731 246.72508,48.519536 251.5,53.280243 C 255.60431,57.372331 256.05215,58.133369 254,57.528555 C 252.625,57.123312 250.42481,56.051106 249.11069,55.145875 C 247.79656,54.240644 245.16587,52.453609 243.26469,51.174686 L 239.80801,48.849371 L 240.46207,51.827309 C 240.98906,54.226668 240.67305,55.115599 238.83556,56.402624 C 236.20593,58.244489 235.17468,58.332146 232.75,56.919901 z M 85.542705,49.069098 C 84.471194,47.335357 87.128841,46.785395 92.82565,47.561999 L 98.5,48.335541 L 94.5,49.110141 C 88.982601,50.178585 86.220584,50.165929 85.542705,49.069098 z M 160,48.559017 C 160,48.316476 160.45,47.839919 161,47.5 C 161.55,47.160081 162,47.358524 162,47.940983 C 162,48.523442 161.55,49 161,49 C 160.45,49 160,48.801558 160,48.559017 z M 4.5,22.280243 C 9.2749215,17.519536 9.8032109,17.267731 16.235669,16.686527 C 22.184537,16.149019 23.089823,16.299319 23.985669,17.973222 C 27.122526,23.834493 22.700327,28.999342 17.475931,25.576186 C 15.291339,24.144787 14.976826,23.381993 15.530964,20.859021 L 16.191994,17.849371 L 12.73531,20.174686 C 10.834134,21.453609 8.203435,23.240644 6.8893129,24.145875 C 5.5751908,25.051106 3.375,26.123312 2,26.528555 C -0.052152559,27.133369 0.39569488,26.372331 4.5,22.280243 z M 81.164438,25.402624 C 79.323827,24.113409 79.010571,23.228353 79.540659,20.814883 L 80.197453,17.824518 L 77.348726,19.61939 C 75.781927,20.60657 73.227974,22.446053 71.673275,23.707131 C 69.080819,25.809975 66,26.762594 66,25.461363 C 66,25.165112 67.6875,23.199655 69.75,21.093679 C 73.168485,17.603135 74.09546,17.212178 80.235669,16.67128 C 86.175907,16.147998 87.091123,16.301747 87.985669,17.973222 C 89.622209,21.031125 89.184831,24.830714 87.065741,25.964816 C 84.491394,27.342565 83.846361,27.281115 81.164438,25.402624 z M 145.16444,25.402624 C 143.32383,24.113409 143.01057,23.228353 143.54066,20.814883 L 144.19745,17.824518 L 141.34873,19.61939 C 139.78193,20.60657 137.22797,22.446053 135.67327,23.707131 C 133.08082,25.809975 130,26.762594 130,25.461363 C 130,25.165112 131.6875,23.199655 133.75,21.093679 C 137.16848,17.603135 138.09546,17.212178 144.23567,16.67128 C 150.17591,16.147998 151.09112,16.301747 151.98567,17.973222 C 153.62221,21.031125 153.18483,24.830714 151.06574,25.964816 C 148.49139,27.342565 147.84636,27.281115 145.16444,25.402624 z M 209.16444,25.402624 C 207.32383,24.113409 207.01057,23.228353 207.54066,20.814883 L 208.19745,17.824518 L 205.34873,19.61939 C 203.78193,20.60657 201.22797,22.446053 199.67327,23.707131 C 197.08082,25.809975 194,26.762594 194,25.461363 C 194,25.165112 195.6875,23.199655 197.75,21.093679 C 201.16848,17.603135 202.09546,17.212178 208.23567,16.67128 C 214.17591,16.147998 215.09112,16.301747 215.98567,17.973222 C 217.62221,21.031125 217.18483,24.830714 215.06574,25.964816 C 212.49139,27.342565 211.84636,27.281115 209.16444,25.402624 z M 97,17.052683 C 93.614121,16.390953 93.685018,16.342888 99.17435,15.578553 C 104.86623,14.786016 107.53123,15.331441 106.45729,17.069098 C 105.82001,18.100241 102.32904,18.094182 97,17.052683 z M 158,16 C 158,14.718615 158.70806,14.718615 159.5,16 C 159.83992,16.55 159.64148,17 159.05902,17 C 158.47656,17 158,16.55 158,16 z "
       id="path2181" />
    <path
       style="fill:#907554"
       d="M 254,57 C 254,55.718615 254.70806,55.718615 255.5,57 C 255.83992,57.55 255.64148,58 255.05902,58 C 254.47656,58 254,57.55 254,57 z M 56.884859,55.141395 C 53.560397,52.550524 48,49.789516 48,50.729629 C 48,51.683227 41.231751,53.898417 40.513297,53.179963 C 39.634621,52.301288 39.950629,49.148547 40.981219,48.511608 C 41.520889,48.178073 44.783389,48.415014 48.231219,49.038143 C 53.323759,49.958521 55.088211,50.811773 57.63487,53.585552 C 61.050288,57.305567 60.671106,58.092152 56.884859,55.141395 z M 120.88486,55.141395 C 117.5604,52.550524 112,49.789516 112,50.729629 C 112,51.683227 105.23175,53.898417 104.5133,53.179963 C 103.63462,52.301288 103.95063,49.148547 104.98122,48.511608 C 105.52089,48.178073 108.78339,48.415014 112.23122,49.038143 C 117.32376,49.958521 119.08821,50.811773 121.63487,53.585552 C 125.05029,57.305567 124.67111,58.092152 120.88486,55.141395 z M 184.88486,55.141395 C 181.5604,52.550524 176,49.789516 176,50.729629 C 176,51.683227 169.23175,53.898417 168.5133,53.179963 C 167.63462,52.301288 167.95063,49.148547 168.98122,48.511608 C 169.52089,48.178073 172.78339,48.415014 176.23122,49.038143 C 181.32376,49.958521 183.08821,50.811773 185.63487,53.585552 C 189.05029,57.305567 188.67111,58.092152 184.88486,55.141395 z M 248.88486,54.141395 C 245.5604,51.550524 240,48.789516 240,49.729629 C 240,50.683227 233.23175,52.898417 232.5133,52.179963 C 231.63462,51.301288 231.95063,48.148547 232.98122,47.511608 C 233.52089,47.178073 236.78339,47.415014 240.23122,48.038143 C 245.32376,48.958521 247.08821,49.811773 249.63487,52.585552 C 253.05029,56.305567 252.67111,57.092152 248.88486,54.141395 z M 2.0808066e-17,26.559017 C 3.2252502e-17,26.316476 0.45,25.839919 1,25.5 C 1.55,25.160081 2,25.358524 2,25.940983 C 2,26.523442 1.55,27 1,27 C 0.45,27 9.3636295e-18,26.801558 2.0808066e-17,26.559017 z M 6.3651297,21.585552 C 8.9117894,18.811773 10.676241,17.958521 15.768781,17.038143 C 19.216611,16.415014 22.479111,16.178073 23.018781,16.511608 C 24.049371,17.148547 24.365379,20.301288 23.486703,21.179963 C 22.768249,21.898417 16,19.683227 16,18.729629 C 16,17.789516 10.439603,20.550524 7.1151413,23.141395 C 3.3288941,26.092152 2.9497122,25.305567 6.3651297,21.585552 z M 70.36513,21.585552 C 72.911789,18.811773 74.676241,17.958521 79.768781,17.038143 C 83.216611,16.415014 86.479111,16.178073 87.018781,16.511608 C 88.049371,17.148547 88.365379,20.301288 87.486703,21.179963 C 86.768249,21.898417 80,19.683227 80,18.729629 C 80,17.789516 74.439603,20.550524 71.115141,23.141395 C 67.328894,26.092152 66.949712,25.305567 70.36513,21.585552 z M 134.36513,21.585552 C 136.91179,18.811773 138.67624,17.958521 143.76878,17.038143 C 147.21661,16.415014 150.47911,16.178073 151.01878,16.511608 C 152.04937,17.148547 152.36538,20.301288 151.4867,21.179963 C 150.76825,21.898417 144,19.683227 144,18.729629 C 144,17.789516 138.4396,20.550524 135.11514,23.141395 C 131.32889,26.092152 130.94971,25.305567 134.36513,21.585552 z M 198.36513,21.585552 C 200.91179,18.811773 202.67624,17.958521 207.76878,17.038143 C 211.21661,16.415014 214.47911,16.178073 215.01878,16.511608 C 216.04937,17.148547 216.36538,20.301288 215.4867,21.179963 C 214.76825,21.898417 208,19.683227 208,18.729629 C 208,17.789516 202.4396,20.550524 199.11514,23.141395 C 195.32889,26.092152 194.94971,25.305567 198.36513,21.585552 z "
       id="path2179" />
  </g>
</svg>
