<?xml version="1.0" encoding="UTF-8" standalone="no"?>
<!-- Created with Inkscape (http://www.inkscape.org/) -->
<svg
   xmlns:dc="http://purl.org/dc/elements/1.1/"
   xmlns:cc="http://web.resource.org/cc/"
   xmlns:rdf="http://www.w3.org/1999/02/22-rdf-syntax-ns#"
   xmlns:svg="http://www.w3.org/2000/svg"
   xmlns="http://www.w3.org/2000/svg"
   xmlns:xlink="http://www.w3.org/1999/xlink"
   xmlns:sodipodi="http://sodipodi.sourceforge.net/DTD/sodipodi-0.dtd"
   xmlns:inkscape="http://www.inkscape.org/namespaces/inkscape"
   id="svg56"
   sodipodi:version="0.32"
   inkscape:version="0.44"
   width="80"
   height="20"
   version="1.0"
   sodipodi:docbase="/home/kde4/Developpements/C++/games/ksirk/ksirk/skins/realpol/Images/sprites"
   sodipodi:docname="france.svg">
  <metadata
     id="metadata61">
    <rdf:RDF>
      <cc:Work
         rdf:about="">
        <dc:format>image/svg+xml</dc:format>
        <dc:type
           rdf:resource="http://purl.org/dc/dcmitype/StillImage" />
      </cc:Work>
    </rdf:RDF>
  </metadata>
  <defs
     id="defs59" />
  <sodipodi:namedview
     inkscape:window-height="593"
     inkscape:window-width="928"
     inkscape:pageshadow="2"
     inkscape:pageopacity="0.0"
     guidetolerance="10.0"
     gridtolerance="10.0"
     objecttolerance="10.0"
     borderopacity="1.0"
     bordercolor="#666666"
     pagecolor="#ffffff"
     id="base"
     inkscape:zoom="10.525"
     inkscape:cx="40"
     inkscape:cy="9.9524941"
     inkscape:window-x="0"
     inkscape:window-y="524"
     inkscape:current-layer="g2267" />
  <g
     id="g2267">
    <path
       style="fill:#fee6e7"
       d="M 3.1778325,18.245286 C 2.3348709,17.342893 2.0105994,14.472534 2.2062831,9.6454072 L 2.5,2.4 L 10.5,2.4 L 18.5,2.4 L 18.5,6.7910135 C 18.5,12.041137 16.282486,14.18202 12.980424,12.119848 C 10.38047,10.496149 7,12.12791 7,15.006612 C 7,18.077945 4.7792837,19.959646 3.1778325,18.245286 z M 23.177833,18.245286 C 22.334871,17.342893 22.010599,14.472534 22.206283,9.6454072 L 22.5,2.4 L 25.585175,2.0989346 C 27.442937,1.9176457 29.173275,2.403857 29.934482,3.3210558 C 31.066636,4.6852172 31.357865,4.6849926 32.723953,3.3189043 C 33.562889,2.4799683 35.205701,1.9300137 36.374646,2.0967831 C 41.109412,2.7722758 38.808487,14.9 33.945562,14.9 C 32.84098,14.9 31.697291,14.274729 31.404032,13.510508 C 30.62086,11.469594 27,12.766609 27,15.08806 C 27,18.090477 24.76094,19.940009 23.177833,18.245286 z M 43.177833,18.245286 C 42.334871,17.342893 42.010599,14.472534 42.206283,9.6454072 L 42.5,2.4 L 50.5,2.4 L 58.5,2.4 L 58.5,6.7910135 C 58.5,12.041137 56.282486,14.18202 52.980424,12.119848 C 50.38047,10.496149 47,12.12791 47,15.006612 C 47,18.077945 44.779284,19.959646 43.177833,18.245286 z M 63.177833,18.245286 C 62.334871,17.342893 62.010599,14.472534 62.206283,9.6454072 L 62.5,2.4 L 67.75,2.0977404 C 70.6375,1.9314976 73,1.4113359 73,0.9418254 C 73,0.47231494 74.121489,0.60833175 75.492198,1.244085 C 77.634452,2.2376911 77.985492,3.0669757 77.992198,7.15 C 77.998813,11.177388 77.706609,11.9 76.071429,11.9 C 75.010714,11.9 73.525781,11.282924 72.771577,10.52872 C 71.609871,9.3670138 71.064048,9.429719 69.200149,10.939013 C 67.990067,11.918878 67,13.693096 67,14.881721 C 67,18.05893 64.806737,19.989034 63.177833,18.245286 z "
       id="path2281" />
    <path
       style="fill:#f0d7f0"
       d="M 3.1778325,18.245286 C 2.3348709,17.342893 2.0105994,14.472534 2.2062831,9.6454072 L 2.5,2.4 L 6.5,2.4 C 10.481105,2.4 10.501438,2.419772 10.804357,6.5857252 C 11.05038,9.969195 10.714967,10.982178 9.0543572,11.870909 C 7.9244607,12.475611 7,13.886678 7,15.006612 C 7,18.077945 4.7792837,19.959646 3.1778325,18.245286 z M 23.177833,18.245286 C 22.334871,17.342893 22.010599,14.472534 22.206283,9.6454072 C 22.494806,2.5281361 22.549704,2.3943008 25.310472,2.0777424 C 29.257348,1.625181 31,3.4746654 31,8.1160643 C 31,11.246235 30.576446,12.198001 29,12.610251 C 27.860451,12.90825 27,13.974267 27,15.08806 C 27,18.090477 24.76094,19.940009 23.177833,18.245286 z M 43.177833,18.245286 C 42.334871,17.342893 42.010599,14.472534 42.206283,9.6454072 L 42.5,2.4 L 46.5,2.4 C 50.481105,2.4 50.501438,2.419772 50.804357,6.5857252 C 51.05038,9.969195 50.714967,10.982178 49.054357,11.870909 C 47.924461,12.475611 47,13.886678 47,15.006612 C 47,18.077945 44.779284,19.959646 43.177833,18.245286 z M 63.177833,18.245286 C 62.334871,17.342893 62.010599,14.472534 62.206283,9.6454072 L 62.5,2.4 L 66.75,2.0925022 L 71,1.7850043 L 71,5.8340283 C 71,8.8000453 70.465053,10.217132 69,11.132073 C 67.9,11.819034 67,13.42999 67,14.711975 C 67,18.033465 64.842798,20.027638 63.177833,18.245286 z M 32,9.5224447 C 32,4.8614011 33.868799,2.2519399 36.487265,3.2567395 C 38.655186,4.0886489 38.440633,10.191257 36.171259,12.245012 C 33.135496,14.99234 32,14.251205 32,9.5224447 z M 12.425071,10.565333 C 12.113777,9.7541161 12.003289,7.5850545 12.179541,5.7451964 C 12.449313,2.9291092 12.895425,2.4 15,2.4 C 17.296296,2.4 17.5,2.7666667 17.5,6.9 C 17.5,10.807977 17.2034,11.442117 15.245529,11.720137 C 13.94352,11.905023 12.751942,11.417146 12.425071,10.565333 z M 52.425071,10.565333 C 52.113777,9.7541161 52.003289,7.5850545 52.179541,5.7451964 C 52.449313,2.9291092 52.895425,2.4 55,2.4 C 57.296296,2.4 57.5,2.7666667 57.5,6.9 C 57.5,10.807977 57.2034,11.442117 55.245529,11.720137 C 53.94352,11.905023 52.751942,11.417146 52.425071,10.565333 z M 73.229187,9.7291868 C 71.931203,8.4312027 71.596509,4.115055 72.592562,1.5193834 C 73.12339,0.13606856 73.4413,0.14304507 75.644059,1.5863481 C 77.6279,2.8862106 78.044742,3.8916997 77.801497,6.7904355 C 77.481723,10.60117 75.423833,11.923833 73.229187,9.7291868 z "
       id="path2279" />
    <path
       style="fill:#e3e3e3"
       d="M 3.2215494,18.292085 C 2.4978558,17.517369 2,14.101493 2,9.910821 C 2,2.2288924 2.7956645,1.129931 7.502236,2.3112052 C 9.6282005,2.8447883 10,3.5147542 10,6.8120632 C 10,9.3330918 9.4761442,10.887045 8.5,11.261626 C 7.675,11.578209 7,13.008496 7,14.440044 C 7,17.949808 4.9008784,20.089813 3.2215494,18.292085 z M 23.177833,18.245286 C 22.334871,17.342893 22.010599,14.472534 22.206283,9.6454072 C 22.477967,2.9435138 22.672913,2.3754878 24.805042,2.0732361 C 28.210671,1.5904525 30,3.6395722 30,8.0224447 C 30,10.802494 29.575439,11.9 28.5,11.9 C 27.555556,11.9 27,12.852381 27,14.471429 C 27,17.998088 24.89158,20.079859 23.177833,18.245286 z M 43.221549,18.292085 C 42.497856,17.517369 42,14.101493 42,9.910821 C 42,2.2288924 42.795665,1.129931 47.502236,2.3112052 C 49.6282,2.8447883 50,3.5147542 50,6.8120632 C 50,9.3330918 49.476144,10.887045 48.5,11.261626 C 47.675,11.578209 47,13.008496 47,14.440044 C 47,17.949808 44.900878,20.089813 43.221549,18.292085 z M 63.177833,18.245286 C 62.334871,17.342893 62.010599,14.472534 62.206283,9.6454072 L 62.5,2.4 L 66.25,2.0896347 L 70,1.7792695 L 70,5.71719 C 70,7.997613 69.36864,10.179093 68.5,10.9 C 67.675,11.584689 67,13.246932 67,14.593873 C 67,18.015995 64.867078,20.053629 63.177833,18.245286 z M 32,9.5224447 C 32,4.8614011 33.868799,2.2519399 36.487265,3.2567395 C 38.655186,4.0886489 38.440633,10.191257 36.171259,12.245012 C 33.135496,14.99234 32,14.251205 32,9.5224447 z M 12.425071,10.565333 C 12.113777,9.7541161 12.003289,7.5850545 12.179541,5.7451964 C 12.449313,2.9291092 12.895425,2.4 15,2.4 C 17.296296,2.4 17.5,2.7666667 17.5,6.9 C 17.5,10.807977 17.2034,11.442117 15.245529,11.720137 C 13.94352,11.905023 12.751942,11.417146 12.425071,10.565333 z M 52.425071,10.565333 C 52.113777,9.7541161 52.003289,7.5850545 52.179541,5.7451964 C 52.449313,2.9291092 52.895425,2.4 55,2.4 C 57.296296,2.4 57.5,2.7666667 57.5,6.9 C 57.5,10.807977 57.2034,11.442117 55.245529,11.720137 C 53.94352,11.905023 52.751942,11.417146 52.425071,10.565333 z M 73.229187,9.7291868 C 71.931203,8.4312027 71.596509,4.115055 72.592562,1.5193834 C 73.12339,0.13606856 73.4413,0.14304507 75.644059,1.5863481 C 77.6279,2.8862106 78.044742,3.8916997 77.801497,6.7904355 C 77.481723,10.60117 75.423833,11.923833 73.229187,9.7291868 z "
       id="path2277" />
    <path
       style="fill:#feacad"
       d="M 3.6391635,18.402058 C 3.2876236,17.48596 3,13.90333 3,10.440657 C 3,3.5596658 4.4127325,1.2614455 7.9520122,2.3847693 C 10.8803,3.3141717 10.91841,10.473733 8,11.4 C 6.6609893,11.824986 5.9949392,12.921364 5.9846872,14.717388 C 5.9637462,18.386009 4.5096005,20.670381 3.6391635,18.402058 z M 23.639163,18.402058 C 22.294903,14.898973 22.944511,4.1909415 24.583823,2.8304335 C 27.082408,0.75679183 29.449562,2.9307027 29.801145,7.6218385 C 30.052051,10.969648 29.760103,11.729472 28.051145,12.176374 C 26.725766,12.522969 25.994582,13.542014 25.984687,15.05638 C 25.962528,18.447823 24.47238,20.573386 23.639163,18.402058 z M 43.639163,18.402058 C 43.287624,17.48596 43,13.90333 43,10.440657 C 43,3.5596658 44.412732,1.2614455 47.952012,2.3847693 C 50.8803,3.3141717 50.91841,10.473733 48,11.4 C 46.660989,11.824986 45.994939,12.921364 45.984687,14.717388 C 45.963746,18.386009 44.5096,20.670381 43.639163,18.402058 z M 63.639163,18.402058 C 62.530019,15.511675 62.938692,4.3613081 64.2,3.1 C 64.86,2.44 66.435,1.9 67.7,1.9 C 69.715853,1.9 70,2.3931221 70,5.8915261 C 70,8.8000453 69.457347,10.221945 68,11.132073 C 66.873077,11.835848 65.993315,13.476567 65.984687,14.890547 C 65.963166,18.417371 64.490868,20.621566 63.639163,18.402058 z M 32,9.5224447 C 32,4.8614011 33.868799,2.2519399 36.487265,3.2567395 C 38.655186,4.0886489 38.440633,10.191257 36.171259,12.245012 C 33.135496,14.99234 32,14.251205 32,9.5224447 z M 12.425071,10.565333 C 12.113777,9.7541161 12.003289,7.5850545 12.179541,5.7451964 C 12.449313,2.9291092 12.895425,2.4 15,2.4 C 17.296296,2.4 17.5,2.7666667 17.5,6.9 C 17.5,10.807977 17.2034,11.442117 15.245529,11.720137 C 13.94352,11.905023 12.751942,11.417146 12.425071,10.565333 z M 52.425071,10.565333 C 52.113777,9.7541161 52.003289,7.5850545 52.179541,5.7451964 C 52.449313,2.9291092 52.895425,2.4 55,2.4 C 57.296296,2.4 57.5,2.7666667 57.5,6.9 C 57.5,10.807977 57.2034,11.442117 55.245529,11.720137 C 53.94352,11.905023 52.751942,11.417146 52.425071,10.565333 z M 73.229187,9.7291868 C 71.931203,8.4312027 71.596509,4.115055 72.592562,1.5193834 C 73.12339,0.13606856 73.4413,0.14304507 75.644059,1.5863481 C 77.6279,2.8862106 78.044742,3.8916997 77.801497,6.7904355 C 77.481723,10.60117 75.423833,11.923833 73.229187,9.7291868 z "
       id="path2275" />
    <path
       style="fill:#a7a4df"
       d="M 3.6391635,18.402058 C 3.2876236,17.48596 3,13.90333 3,10.440657 C 3,3.5596658 4.4127325,1.2614455 7.9520122,2.3847693 C 10.8803,3.3141717 10.91841,10.473733 8,11.4 C 6.6609893,11.824986 5.9949392,12.921364 5.9846872,14.717388 C 5.9637462,18.386009 4.5096005,20.670381 3.6391635,18.402058 z M 23.639163,18.402058 C 22.294903,14.898973 22.944511,4.1909415 24.583823,2.8304335 C 27.082408,0.75679183 29.449562,2.9307027 29.801145,7.6218385 C 30.052051,10.969648 29.760103,11.729472 28.051145,12.176374 C 26.725766,12.522969 25.994582,13.542014 25.984687,15.05638 C 25.962528,18.447823 24.47238,20.573386 23.639163,18.402058 z M 43.639163,18.402058 C 43.287624,17.48596 43,13.90333 43,10.440657 C 43,3.5596658 44.412732,1.2614455 47.952012,2.3847693 C 50.8803,3.3141717 50.91841,10.473733 48,11.4 C 46.660989,11.824986 45.994939,12.921364 45.984687,14.717388 C 45.963746,18.386009 44.5096,20.670381 43.639163,18.402058 z M 63.639163,18.402058 C 62.530019,15.511675 62.938692,4.3613081 64.2,3.1 C 64.86,2.44 66.435,1.9 67.7,1.9 C 69.715853,1.9 70,2.3931221 70,5.8915261 C 70,8.8000453 69.457347,10.221945 68,11.132073 C 66.873077,11.835848 65.993315,13.476567 65.984687,14.890547 C 65.963166,18.417371 64.490868,20.621566 63.639163,18.402058 z M 33.192502,8.6586268 C 33.41681,5.5647128 33.973444,4.3274478 35.25,4.0853027 C 36.636419,3.822318 37,4.4541953 37,7.1266758 C 37,10.356531 35.564892,12.9 33.742502,12.9 C 33.270878,12.9 33.023378,10.991382 33.192502,8.6586268 z M 13.421445,9.555884 C 12.461735,7.05492 13.398967,3.4 15,3.4 C 16.04065,3.4 16.5,4.4462963 16.5,6.8166667 C 16.5,10.362381 14.435743,12.199102 13.421445,9.555884 z M 53.421445,9.555884 C 52.461735,7.05492 53.398967,3.4 55,3.4 C 56.04065,3.4 56.5,4.4462963 56.5,6.8166667 C 56.5,10.362381 54.435743,12.199102 53.421445,9.555884 z M 73.666667,9.2333333 C 73.3,8.8666667 73,6.5469223 73,4.0783458 C 73,-0.3466335 73.028225,-0.38443177 75,1.4 C 77.319974,3.4995475 77.82197,9.9 75.666667,9.9 C 74.933333,9.9 74.033333,9.6 73.666667,9.2333333 z "
       id="path2273" />
    <path
       style="fill:#fe5f61"
       d="M 33.192502,8.6586268 C 33.41681,5.5647128 33.973444,4.3274478 35.25,4.0853027 C 36.636419,3.822318 37,4.4541953 37,7.1266758 C 37,10.356531 35.564892,12.9 33.742502,12.9 C 33.270878,12.9 33.023378,10.991382 33.192502,8.6586268 z M 4.4073847,8.387014 C 3.5977024,5.1609828 5.6551515,2.3689118 7.6326787,4.0101135 C 9.3205372,5.4109116 9.3996256,8.1003744 7.8,9.7 C 5.9925383,11.507462 5.1042878,11.163697 4.4073847,8.387014 z M 13.421445,9.555884 C 12.461735,7.05492 13.398967,3.4 15,3.4 C 16.04065,3.4 16.5,4.4462963 16.5,6.8166667 C 16.5,10.362381 14.435743,12.199102 13.421445,9.555884 z M 24.408944,8.3932276 C 23.642947,5.3412506 25.130717,3.3524471 27.499754,4.2615318 C 29.695279,5.1040338 29.123666,10.264663 26.785728,10.707893 C 25.631078,10.926793 24.855181,10.171175 24.408944,8.3932276 z M 44.407385,8.387014 C 43.597702,5.1609828 45.655152,2.3689118 47.632679,4.0101135 C 49.320537,5.4109116 49.399626,8.1003744 47.8,9.7 C 45.992538,11.507462 45.104288,11.163697 44.407385,8.387014 z M 53.421445,9.555884 C 52.461735,7.05492 53.398967,3.4 55,3.4 C 56.04065,3.4 56.5,4.4462963 56.5,6.8166667 C 56.5,10.362381 54.435743,12.199102 53.421445,9.555884 z M 64.389402,8.3153645 C 63.674927,5.4686682 66.006782,2.1681235 67.904039,3.3406926 C 69.365714,4.2440574 69.301011,8.1989894 67.8,9.7 C 65.982376,11.517624 65.103573,11.160848 64.389402,8.3153645 z M 73.666667,9.2333333 C 73.3,8.8666667 73,6.5469223 73,4.0783458 C 73,-0.3466335 73.028225,-0.38443177 75,1.4 C 77.319974,3.4995475 77.82197,9.9 75.666667,9.9 C 74.933333,9.9 74.033333,9.6 73.666667,9.2333333 z "
       id="path2271" />
    <path
       style="fill:#1918e0"
       d="M 4.4073847,8.387014 C 3.5977024,5.1609828 5.6551515,2.3689118 7.6326787,4.0101135 C 9.3205372,5.4109116 9.3996256,8.1003744 7.8,9.7 C 5.9925383,11.507462 5.1042878,11.163697 4.4073847,8.387014 z M 24.408944,8.3932276 C 23.642947,5.3412506 25.130717,3.3524471 27.499754,4.2615318 C 29.695279,5.1040338 29.123666,10.264663 26.785728,10.707893 C 25.631078,10.926793 24.855181,10.171175 24.408944,8.3932276 z M 44.407385,8.387014 C 43.597702,5.1609828 45.655152,2.3689118 47.632679,4.0101135 C 49.320537,5.4109116 49.399626,8.1003744 47.8,9.7 C 45.992538,11.507462 45.104288,11.163697 44.407385,8.387014 z M 64.389402,8.3153645 C 63.674927,5.4686682 66.006782,2.1681235 67.904039,3.3406926 C 69.365714,4.2440574 69.301011,8.1989894 67.8,9.7 C 65.982376,11.517624 65.103573,11.160848 64.389402,8.3153645 z "
       id="path2269" />
  </g>
</svg>
