<?xml version="1.0" encoding="UTF-8" standalone="no"?>
<!-- Created with Inkscape (http://www.inkscape.org/) -->
<svg
   xmlns:dc="http://purl.org/dc/elements/1.1/"
   xmlns:cc="http://web.resource.org/cc/"
   xmlns:rdf="http://www.w3.org/1999/02/22-rdf-syntax-ns#"
   xmlns:svg="http://www.w3.org/2000/svg"
   xmlns="http://www.w3.org/2000/svg"
   xmlns:sodipodi="http://sodipodi.sourceforge.net/DTD/sodipodi-0.dtd"
   xmlns:inkscape="http://www.inkscape.org/namespaces/inkscape"
   id="svg65"
   sodipodi:version="0.32"
   inkscape:version="0.44"
   width="40"
   height="86"
   version="1.0"
   sodipodi:docbase="/home/kde4/Developpements/C++/games/ksirk/ksirk/skins/realpol/Images/sprites"
   sodipodi:docname="infantry.svg">
  <metadata
     id="metadata70">
    <rdf:RDF>
      <cc:Work
         rdf:about="">
        <dc:format>image/svg+xml</dc:format>
        <dc:type
           rdf:resource="http://purl.org/dc/dcmitype/StillImage" />
      </cc:Work>
    </rdf:RDF>
  </metadata>
  <defs
     id="defs68" />
  <sodipodi:namedview
     inkscape:window-height="619"
     inkscape:window-width="1167"
     inkscape:pageshadow="2"
     inkscape:pageopacity="0.0"
     guidetolerance="10.0"
     gridtolerance="10.0"
     objecttolerance="10.0"
     borderopacity="1.0"
     bordercolor="#666666"
     pagecolor="#ffffff"
     id="base"
     inkscape:zoom="4.4069767"
     inkscape:cx="20"
     inkscape:cy="42.773087"
     inkscape:window-x="424"
     inkscape:window-y="0"
     inkscape:current-layer="g2117" />
  <g
     id="g2117">
    <path
       style="fill:#f4f3f3"
       d="M 27.479172,82.065624 C 28.06609,80.216408 27.721477,80 24.189832,80 C 21.799459,80 19.723479,79.371739 18.921735,78.405697 C 17.794298,77.047218 17.941207,76.55295 19.914924,75.064173 C 21.987238,73.501024 22.159453,72.794798 21.549602,68.360651 C 21.174686,65.634686 20.557514,62.902077 20.178109,62.288187 C 19.798704,61.674297 15.907491,59.540204 11.530968,57.545759 C 2.6008618,53.476178 -1.1636923,50.353862 1.1123653,48.904584 C 1.8755644,48.418618 3.175,48.305573 4,48.653374 C 6.679361,49.782931 18.458284,54.142168 20,54.574781 C 21.600358,55.023849 27,48.057211 27,45.543356 C 27,43.665928 30.872752,41 33.600062,41 C 36.74058,41 38.042967,43.156585 37.898826,48.118201 C 37.828812,50.52819 38.272935,53.766795 38.885764,55.3151 C 40.301185,58.89114 40.316254,63.283746 38.917898,64.682102 C 38.141761,65.458239 38.212449,66.371671 39.167898,67.912615 C 40.0308,69.3043 40.147213,70.314447 39.498406,70.780513 C 37.978749,71.872146 35.881663,76.340337 35.114607,80.120925 C 34.496539,83.167198 34.054489,83.531086 30.626292,83.815624 C 27.179269,84.101726 26.884892,83.938034 27.479172,82.065624 z M 5.8420551,41.778904 C 4.951462,41.075507 3.9187725,38.767177 3.5471895,36.649281 C 3.1756065,34.531386 2.1313508,31.246278 1.2266214,29.34904 C -0.10407296,26.558545 -0.18571163,25.527018 0.79930323,23.949759 C 1.5315328,22.777273 1.6149189,22 1.0084739,22 C -0.34890557,22 -0.28663593,11.295185 1.075641,10.453251 C 1.6672436,10.087621 2.0543438,8.1485631 1.9358637,6.1442343 C 1.5988004,0.44213156 1.8134065,4.3369714e-17 4.9182125,-6.7827688e-16 C 9.2899442,-1.6943936e-15 10.854038,0.89599773 12.527123,4.3587961 C 13.36186,6.0864583 14.890706,8.6007003 15.924558,9.9460008 C 17.768514,12.345448 17.877525,12.361461 21.652145,10.787329 C 36.615417,4.5471919 39.315263,4.0784298 38.317522,7.8937948 C 38.008133,9.0769022 35.140045,10.974002 30.661402,12.957942 C 18.388525,18.394558 18.604904,18.203208 17.571388,24.533862 C 16.69708,29.889316 16.781914,30.326895 19.022098,32.016668 C 21.051373,33.547354 21.206756,34.045947 20.078265,35.405697 C 19.290888,36.354428 17.211891,37 14.943978,37 C 11.532874,37 11.099632,37.287752 10.816422,39.741449 C 10.461841,42.813506 8.2822988,43.706226 5.8420551,41.778904 z "
       id="path2155" />
    <path
       style="fill:#ecebeb"
       d="M 28.5,81 C 29.217145,77.734859 28.872609,77.442111 26.236431,79.076675 C 25.012008,79.83588 23.68913,79.843178 21.75,79.101426 C 18.72827,77.94556 18.164202,76.257956 20.5,75.361626 C 21.591366,74.94283 22,73.228121 22,69.067325 C 22,62.630023 20.128225,59.986466 14.07656,57.876844 C 6.8034233,55.341415 -2.4593719,48.994148 1.1275553,49.003627 C 1.8823999,49.005622 6.1,50.390853 10.5,52.081919 C 14.9,53.772985 19.175,55.351318 20,55.589325 C 21.644087,56.063634 28,47.481413 28,44.787136 C 28,41.862283 34.826514,40.881109 36.995231,43.494254 C 37.689277,44.330528 37.989883,46.201971 37.677898,47.744254 C 37.371299,49.259914 37.848249,52.855281 38.737788,55.733958 C 40.107192,60.16555 40.151502,61.348398 39.026829,63.449869 C 37.974524,65.41612 37.953201,66.238684 38.924208,67.408676 C 39.918526,68.606756 39.663837,69.600816 37.574944,72.674899 C 36.158725,74.759053 35,77.448004 35,78.650347 C 35,82.595582 33.900954,84 30.813556,84 C 28.031058,84 27.8832,83.808272 28.5,81 z M 5.0676611,40.126426 C 4.4804475,39.029207 4,37.150669 4,35.951896 C 4,34.753123 3.0051135,32.002147 1.7891412,29.838617 C -0.022138644,26.615879 -0.20657461,25.560425 0.76866246,23.998822 C 1.5209578,22.794206 1.5985582,21.869929 0.9795213,21.487343 C -0.3508694,20.665117 -0.2691523,11.284379 1.075641,10.453251 C 1.6672436,10.087621 2.0543438,8.1485631 1.9358637,6.1442343 C 1.8173836,4.1399054 1.7833451,1.9375 1.8602227,1.25 C 2.1358768,-1.215118 11,0.48787042 11,3.0059475 C 11,4.5799693 17.312463,13 18.4925,13 C 19.101625,13 20.034959,12.565041 20.566576,12.033424 C 22.142287,10.457713 36.431016,6.0898359 37.292382,6.9205649 C 38.526199,8.1104982 34.542174,10.600184 22.796168,15.9795 C 17.629478,18.345688 16.663963,20.094596 16.761221,26.911045 C 16.803166,29.850859 17.353783,31.618483 18.412079,32.210735 C 20.762829,33.526281 20.347582,34.916545 17.25,36.101426 C 15.31087,36.843178 13.987992,36.83588 12.763569,36.076675 C 10.14818,34.455002 9.8441731,34.711334 10.18603,38.25 C 10.446611,40.947352 10.128903,41.552831 8.3176611,41.810684 C 6.9400603,42.006804 5.7416218,41.385733 5.0676611,40.126426 z "
       id="path2153" />
    <path
       style="fill:#e4e3e2"
       d="M 29,80.628568 C 29,76.888003 27.588684,75.023532 26.63617,77.505744 C 25.965495,79.253493 21.437881,79.517523 20.418619,77.868323 C 20.033941,77.2459 20.466266,76.318568 21.379342,75.807585 C 22.732742,75.050185 22.93791,73.832641 22.489759,69.217978 C 21.809832,62.216687 20.11888,59.524368 15.429532,57.976743 C 10.892898,56.479519 1,50.85699 1,49.775864 C 1,49.334377 2.6875,49.715898 4.75,50.623689 C 6.8125,51.53148 9.85,52.499288 11.5,52.774374 C 13.15,53.04946 15.387628,53.887761 16.472506,54.637265 C 17.557385,55.386769 19.23924,56 20.209962,56 C 21.981544,56 27.023574,49.247026 28.042967,45.508971 C 28.341599,44.413905 29.827845,43.081185 31.345736,42.547371 C 35.298882,41.157124 37.550957,42.891523 37.306156,47.137693 C 37.199542,48.986962 37.727372,52.602428 38.479111,55.172062 C 39.873919,59.939866 39.88198,61.160133 38.539165,64.262735 C 38.093938,65.291441 38.289423,66.643807 39.008612,67.510377 C 40.013883,68.721655 39.757642,69.628966 37.618063,72.434099 C 36.175461,74.325447 34.640416,77.589008 34.206851,79.686457 C 33.61428,82.553127 32.870005,83.579342 31.209276,83.819551 C 29.289109,84.097285 29,83.679708 29,80.628568 z M 6.265558,40.783305 C 5.696521,40.077487 4.8980309,37.925 4.4911354,36 C 4.0842399,34.075 2.9072771,31.305533 1.8756627,29.84563 C -0.25437779,26.831273 -0.48883747,24.888837 1.0871323,23.312868 C 1.8699753,22.530025 1.8699753,22.037674 1.0871323,21.553851 C -0.27783205,20.710256 -0.3517295,11.335415 1,10.5 C 1.55,10.160081 2,7.8694005 2,5.4095982 C 2,0.50916642 3.2656204,-0.65211762 7.4592385,0.40041351 C 8.8964145,0.76112172 10.554846,2.3603403 11.459927,4.2582603 C 12.310184,6.0412172 14.074692,8.8347189 15.381056,10.466042 C 17.612614,13.252702 17.92995,13.352019 20.628132,12.108226 C 22.207659,11.380105 25.525,10.221153 28,9.5327773 C 30.475,8.8444019 33.2875,7.9447739 34.25,7.533604 C 35.324445,7.0746123 36,7.2216307 36,7.91445 C 36,8.5350852 34.7625,9.5702428 33.25,10.2148 C 31.7375,10.859358 29.825,11.917818 29,12.566934 C 28.175,13.21605 25.866914,14.270978 23.870919,14.911218 C 18.726138,16.56147 17.163489,18.757619 16.377877,25.441948 C 15.797306,30.381705 15.964518,31.500887 17.444843,32.583327 C 18.410331,33.289309 18.903656,34.346871 18.541121,34.933465 C 17.62387,36.417608 12.264327,36.273449 11.720238,34.75 C 10.985015,32.691376 9.7071006,34.740632 9.6,38.15 C 9.4917418,41.596221 7.9210055,42.836676 6.265558,40.783305 z "
       id="path2151" />
    <path
       style="fill:#e1dddc"
       d="M 29.33101,81.75 C 29.632314,80.5125 29.247043,78.375 28.474853,77 C 27.45743,75.188327 27.061114,74.96558 27.035435,76.190983 C 26.986376,78.5321 25.366711,79.308855 22.194373,78.512648 C 19.629049,77.868793 19.591545,77.771838 21.39712,76.451569 C 23.041529,75.249148 23.206114,74.246096 22.643009,68.858596 C 21.893846,61.690996 20.479669,59.730506 14.377536,57.400081 C 11.969891,56.480593 10,55.408187 10,55.016956 C 10,54.625726 8.9875,53.823158 7.75,53.233471 C 5.8710418,52.33812 6.1596298,52.253982 9.5,52.723255 C 11.7,53.032322 15.169573,54.121027 17.210162,55.142598 C 19.250751,56.164169 21.124652,57 21.374387,57 C 22.218046,57 28,46.981922 28,45.520161 C 28,43.503183 31.724775,41.714107 34.48284,42.406337 C 37.225476,43.094695 38.223678,45.221121 37.15734,48.103707 C 36.676162,49.404454 37.031062,52.137835 38.085564,55.25275 C 39.37623,59.06527 39.54844,60.996899 38.791305,63.168819 C 38.070235,65.23728 38.128195,66.449539 38.998285,67.497934 C 39.975477,68.675378 39.612792,69.761793 37.103393,73.174046 C 35.396527,75.495024 34,78.16855 34,79.115215 C 34,82.210949 32.822362,84 30.784603,84 C 29.213405,84 28.900944,83.516344 29.33101,81.75 z M 5.552138,39.75 C 5.3403371,39.0625 4.8745401,37.177448 4.5170335,35.560995 C 4.1595268,33.944542 2.9969416,31.400075 1.9335107,29.906624 C -0.21106394,26.894847 -0.54640982,24.455734 1.0485583,23.469989 C 1.7675199,23.025647 1.7352706,22.385947 0.94596246,21.434889 C 0.21637651,20.555791 0.025318348,18.29956 0.42424997,15.273916 C 0.77044288,12.648262 1.3121737,8.3308928 1.6280962,5.6797618 C 1.9582084,2.9095556 2.7983355,0.63088032 3.6034864,0.32191494 C 6.6629667,-0.8521178 9.8349033,1.0268518 11.9163,5.2462011 C 13.070414,7.5857905 14.836526,10.559836 15.840992,11.855191 L 17.667294,14.210382 L 21.583647,12.247789 C 23.737641,11.168363 27.3,10.032322 29.5,9.7232548 C 32.84037,9.253982 33.128958,9.3381205 31.25,10.233471 C 30.0125,10.823158 29,11.668799 29,12.112673 C 29,12.556547 27.216039,13.454205 25.035643,14.107467 C 19.025138,15.908258 16.922722,18.760686 16.265747,26.005917 C 15.862231,30.455965 16.063323,32.421102 16.980198,32.987762 C 18.699597,34.050408 17.358912,36 14.908759,36 C 13.785541,36 12.582917,35.046737 12.116928,33.787049 L 11.298304,31.574097 L 10.12495,33.766529 C 9.4796051,34.972367 9.2362704,37.093195 9.5842059,38.479481 C 10.112737,40.585316 9.8647703,41 8.0770232,41 C 6.9001372,41 5.7639388,40.4375 5.552138,39.75 z "
       id="path2149" />
    <path
       style="fill:#dcdada"
       d="M 29.415794,81.479481 C 29.76373,80.093195 29.561917,78.049952 28.967322,76.938941 C 27.887462,74.921204 27.884316,74.921296 26.184363,77.020649 C 25.068676,78.398464 23.882737,78.892232 22.741243,78.4542 C 20.796024,77.707749 20.375501,76 22.13691,76 C 22.926818,76 23.109227,73.949514 22.734551,69.281838 C 22.259061,63.358233 21.827058,62.234668 19.081864,59.781838 C 17.369485,58.251827 15.130646,57 14.106668,57 C 13.08269,57 11.689108,56.330325 11.009821,55.511833 C 8.8923082,52.960387 12.527963,52.545146 16.34265,54.902752 C 18.20903,56.056238 20.158827,57 20.675533,57 C 21.943167,57 28,48.312105 28,46.493817 C 28,45.697576 29.102967,44.323415 30.451037,43.440125 C 34.796797,40.592673 39.234729,43.82437 36.919486,48.150442 C 36.101468,49.678923 36.250005,51.007073 37.543913,53.733782 C 38.752904,56.281542 39.077459,58.698166 38.671255,62.127923 C 38.357521,64.77692 38.528142,67.208376 39.050414,67.531158 C 40.538259,68.450697 40.191061,69.536211 37.571129,72.156143 C 36.235251,73.492022 34.843425,75.915886 34.478184,77.542507 C 33.15661,83.428212 32.833063,84 30.824204,84 C 29.142029,84 28.894407,83.556851 29.415794,81.479481 z M 5.461848,38.316444 C 4.6359021,34.500504 1.675328,28.025628 0.75,28.011473 C -0.39188778,27.994005 -0.14437114,24.544371 1.0871323,23.312868 C 1.8699753,22.530025 1.8699753,22.037674 1.0871323,21.553851 C -0.33526481,20.674761 -0.31982818,12.719828 1.1070437,11.292956 C 1.7159177,10.684082 2.2784177,8.0065823 2.3570437,5.3429563 C 2.4802592,1.1687619 2.8035783,0.45680681 4.6984152,0.18720891 C 7.4939622,-0.21054226 11,1.6359175 11,3.5059475 C 11,5.159699 17.010886,14 18.13534,14 C 18.548027,14 20.490197,13.053311 22.451274,11.896248 C 26.442479,9.5413791 30.116553,9.94971 27.990179,12.511833 C 27.310892,13.330325 26.112864,14 25.327895,14 C 22.493243,14 18.258577,16.964497 17.181613,19.702842 C 15.4284,24.16065 15.348435,31.973229 17.044854,33.064196 C 18.312907,33.879681 18.30714,34.126604 17,34.984687 C 14.602316,36.558666 12.996524,36.164824 12.116928,33.787049 L 11.298304,31.574097 L 10.092948,33.826326 C 9.4300018,35.065051 9.0253835,37.062287 9.1937958,38.264627 C 9.6820862,41.75066 6.2155891,41.798791 5.461848,38.316444 z "
       id="path2147" />
    <path
       style="fill:#d4d3d3"
       d="M 29.884846,83.25 C 29.821511,82.8375 29.846802,81.730175 29.94105,80.789277 C 30.15334,78.66992 28.266656,75 26.964816,75 C 26.434167,75 26,75.675 26,76.5 C 26,77.45201 25.041951,78 23.377555,78 C 21.08727,78 20.923264,77.797388 22.082701,76.400352 C 23.572837,74.604848 23.454895,68.268096 21.835995,63.145408 C 20.975069,60.421179 19.716434,59.304343 15.137929,57.201955 C 10.742294,55.183539 9.9808641,54.532177 11.682315,54.245866 C 12.882589,54.04389 15.222742,54.580944 16.882655,55.439319 C 18.542569,56.297693 20.286402,57 20.75784,57 C 21.965086,57 28,48.245166 28,46.493817 C 28,45.697576 29.094824,44.32875 30.432942,43.451981 C 32.383058,42.174216 33.298949,42.089625 35.048076,43.025729 C 36.836274,43.982744 37.131167,44.804287 36.681385,47.575968 C 36.343041,49.660938 36.731023,52.158093 37.69287,54.086163 C 38.767363,56.240034 39.07783,58.695035 38.689923,61.970301 C 38.360893,64.748449 38.564937,67.164937 39.180528,67.780528 C 39.919087,68.519087 39.441955,69.682088 37.585975,71.667224 C 36.129315,73.225251 34.695421,75.625 34.399544,77 C 33.521711,81.079459 32.112298,84 31.021439,84 C 30.459647,84 29.94818,83.6625 29.884846,83.25 z M 6.252835,39.75 C 5.707205,39.0625 4.9715048,36.891342 4.6179456,34.925204 C 4.2643864,32.959066 3.0807108,30.390382 1.9875554,29.217017 C -0.27147142,26.792237 -0.59385388,24.384413 1.25,23.708333 C 2.25,23.341667 2.25,22.985 1.25,21.925 C -0.38272596,20.19431 -0.29014236,14.151704 1.4162994,11.07122 C 2.2128325,9.633311 2.5536256,7.0909204 2.2516366,4.8394242 C 1.860837,1.9257955 2.123085,0.88999825 3.3730086,0.41035757 C 5.7924926,-0.51808554 10,0.81926468 10,2.5167373 C 10,4.348305 16.836336,14 18.133643,14 C 18.653961,14 20.806029,13.11928 22.916017,12.042845 C 26.502678,10.213067 28,10.237712 28,12.126525 C 28,12.562781 26.207248,13.456839 24.016106,14.113321 C 18.181088,15.861534 16.62145,18.129369 15.952758,25.838053 C 15.634917,29.502124 15.740521,32.65 16.187433,32.833333 C 17.769268,33.482238 16.972273,35 15.04969,35 C 13.97702,35 12.660771,34.216249 12.124693,33.25833 C 10.808831,30.907016 9.9403554,32.025794 9.2842517,36.917413 C 8.7156446,41.156695 7.94256,41.879073 6.252835,39.75 z "
       id="path2145" />
    <path
       style="fill:#cdcbcc"
       d="M 30,80.774463 C 30,78.908751 29.332395,76.508751 28.516434,75.44113 C 27.063634,73.540254 27.019741,73.54666 26.399803,75.75 C 25.575208,78.680719 23.086729,78.680719 23.244921,75.75 C 23.694474,67.421439 22.900721,63.035464 20.407718,60.072698 C 18.925507,58.311191 18.460391,57.239438 19.32156,57.5699 C 20.964315,58.200284 28.482329,48.926567 29.153393,45.44201 C 29.438377,43.962207 30.357146,43.5 33.013695,43.5 C 36.414384,43.5 36.5,43.598231 36.5,47.5 C 36.5,49.7 36.938086,52.175 37.473525,53 C 38.008963,53.825 38.47909,57.206008 38.51825,60.513351 C 38.557411,63.820693 38.930044,67.077792 39.346324,67.751348 C 39.797183,68.480851 39.05925,70.092713 37.521181,71.737997 C 36.101071,73.257099 34.350239,76.500871 33.630442,78.94638 C 32.006518,84.46366 30,85.474027 30,80.774463 z M 12.75,56.310674 C 11.7875,56.059147 11,55.436348 11,54.926676 C 11,53.441627 14.637897,53.858766 16,55.5 C 17.329433,57.101869 16.535456,57.299917 12.75,56.310674 z M 6.5445712,39.75 C 6.3286087,39.0625 5.6570551,36.885893 5.05223,34.913095 C 4.4474049,32.940297 3.0632247,30.371613 1.976274,29.204908 C -0.27265672,26.790964 -0.59078793,24.383289 1.25,23.708333 C 2.25,23.341667 2.25,22.985 1.25,21.925 C -0.43716856,20.136601 -0.32964233,14.538138 1.4582802,11.080677 C 2.3766387,9.3047676 2.6995051,6.9231191 2.3303135,4.6480577 C 1.8786404,1.8647226 2.118282,0.89184135 3.3742693,0.40987381 C 5.7619003,-0.5063462 10,0.81070749 10,2.46892 C 10,3.9983342 15.716454,13.037299 17.414299,14.192551 C 17.974103,14.573454 20.084232,13.956566 22.103474,12.821688 C 24.122716,11.686811 26.387988,10.978662 27.137412,11.248026 C 27.985634,11.5529 27.367525,12.205086 25.5,12.97571 C 17.387334,16.323356 16.021064,18.391038 15.726824,27.766204 C 15.570153,32.75813 15.113398,34.994386 14.25,34.99668 C 13.5625,34.998506 13,34.351558 13,33.559017 C 13,32.766476 12.569165,31.851763 12.042588,31.526321 C 10.633626,30.655535 8.0147359,36.340346 8.6701835,38.846782 C 9.2651059,41.121768 7.2451093,41.980108 6.5445712,39.75 z "
       id="path2143" />
    <path
       style="fill:#cab5b7"
       d="M 30.683557,81.102078 C 31.306524,78.71985 28.141689,73.731651 26.425193,74.390332 C 24.383238,75.173904 23.234758,72.860351 23.151858,67.796364 C 23.109508,65.209364 22.543593,62.242038 21.894269,61.202306 C 20.893574,59.599937 21.344996,58.382233 24.856841,53.210811 C 27.135578,49.855222 29,46.418621 29,45.573921 C 29,43.836455 33.168027,42.466764 35.607074,43.402714 C 36.834155,43.87359 37.069569,44.81563 36.593849,47.351435 C 36.207807,49.409216 36.548144,52.067646 37.484539,54.308755 C 39.216801,58.454641 39.475054,63.588366 37.997296,64.501671 C 37.327023,64.915923 37.327023,65.742531 37.997296,66.994947 C 39.328152,69.481674 39.410123,69.208918 36.068066,73.41435 C 34.455502,75.443498 32.844748,78.430375 32.488611,80.051855 C 32.132474,81.673335 31.468973,83 31.014164,83 C 30.559356,83 30.410582,82.145935 30.683557,81.102078 z M 6.5840915,38.5 C 5.3540073,35.130346 3.1732483,30.645117 1.29157,27.614722 C -0.04757075,25.45807 -0.18433466,24.616295 0.75,24.281389 C 2.2329973,23.749817 2.4424983,21 1,21 C -0.4733903,21 -0.21585238,15.59646 1.4637299,11.270236 C 2.2687813,9.1966064 2.8312813,5.925 2.7137299,4 C 2.5323816,1.0302755 2.8492307,0.45049289 4.8050421,0.17323613 C 7.4132176,-0.19650008 10,1.5422642 10,3.6651444 C 10,4.4462847 11.815145,7.5424702 14.033655,10.545557 C 17.377265,15.071635 17.886151,16.344212 17.008346,17.984405 C 16.425917,19.072685 15.794831,22.16881 15.605935,24.864684 C 15.19024,30.797341 14.56558,31.960663 12.136718,31.325501 C 10.273635,30.838295 9.7477304,31.687769 8.0045748,38 C 7.3597639,40.334958 7.2659881,40.367966 6.5840915,38.5 z "
       id="path2141" />
    <path
       style="fill:#b4aeb1"
       d="M 29.545705,76.088383 C 28.4265,73.92408 27.521577,73.31235 26.020025,73.705014 C 24.255341,74.166489 23.994452,73.744501 23.956107,70.366631 C 23.931966,68.239984 23.285122,64.740155 22.518676,62.589234 C 21.166122,58.793483 21.21888,58.547341 24.312569,54.219863 C 27.507636,49.750577 28.715314,47.796191 30.009823,45 C 30.983512,42.896793 34.421755,42.598331 35.984528,44.481357 C 36.937616,45.629759 37.018177,46.66469 36.280508,48.283696 C 35.506126,49.983281 35.707394,51.329378 37.133486,53.988481 C 39.147858,57.744493 39.620624,63.4984 37.997296,64.501671 C 37.332446,64.912571 37.351336,65.787961 38.05336,67.099704 C 38.907157,68.695038 38.630666,69.650217 36.625164,72.03362 C 35.257334,73.659194 33.851781,75.891637 33.501712,76.994604 C 32.612995,79.794706 31.307694,79.495695 29.545705,76.088383 z M 5,33 C 4.3165476,31.35 3.4701995,30 3.1192264,30 C 2.7682534,30 1.9190343,29.1 1.2320729,28 C 0.23246469,26.399373 0.23435237,25.574537 1.2415261,23.869347 C 2.2469026,22.167199 2.2486068,21.647653 1.25,21.286013 C -0.48587928,20.657375 -0.30292778,15.104598 1.5721469,11.508505 C 2.5384333,9.6553221 2.909249,7.3297927 2.5466538,5.3969939 C 1.7678911,1.2458318 3.9835289,-0.78416526 7.5296139,0.83153917 C 8.8883262,1.45061 10,2.6609847 10,3.5212609 C 10,4.3815371 11.815145,7.5424702 14.033655,10.545557 C 17.328736,15.005944 17.878354,16.358781 17.035345,17.933957 C 16.467765,18.994491 15.64683,22.255705 15.211045,25.1811 C 14.523847,29.794217 14.137254,30.470466 12.297618,30.277429 C 10.747598,30.114781 9.8975342,30.855176 9.140283,33.027429 C 7.8238361,36.803791 6.5721469,36.795498 5,33 z "
       id="path2139" />
    <path
       style="fill:#af8e92"
       d="M 29.802961,75.466891 C 29.019338,73.747026 27.982822,73.024672 26.574399,73.216891 C 24.754449,73.465273 24.422038,72.825363 23.864412,68 C 23.514839,64.975 22.916505,61.744581 22.534781,60.821291 C 22.076039,59.711717 23.223859,57.060251 25.920368,53.000577 C 28.164166,49.622474 30,46.245718 30,45.496674 C 30,43.891617 33.491656,42.567792 35.101263,43.562584 C 35.754027,43.966014 35.996846,45.632009 35.68393,47.560284 C 35.329623,49.743625 35.801576,52.14936 37.073718,54.644594 C 39.290895,58.993458 39.526213,62.073787 37.775041,63.824959 C 36.808428,64.791572 36.81394,65.472424 37.801175,67.053238 C 38.897956,68.809463 38.591229,69.608107 35.314372,73.528278 C 33.258529,75.987725 31.437121,78 31.266799,78 C 31.096477,78 30.43775,76.860101 29.802961,75.466891 z M 6,34.034796 C 6,33.503934 4.628396,31.507422 2.951991,29.598102 C 0.25322032,26.524372 0.052706795,25.886704 1.201991,24.032793 C 2.2787457,22.29588 2.2621711,21.790972 1.1047549,21.070704 C -0.75806765,19.911456 0.21500406,12.524892 2.573918,9.9183215 C 4.0448299,8.2929822 4.128045,7.5764439 3.1063181,5.3339977 C 2.1185362,3.1660526 2.1609011,2.4105275 3.336147,1.2352816 C 5.0392554,-0.46782687 9,0.44012243 9,2.5336464 C 9,3.3030254 10.813411,6.7382166 13.029802,10.167404 C 15.583183,14.117981 16.804021,16.969754 16.362006,17.951146 C 15.978328,18.803016 15.402417,21.975 15.082204,25 C 14.570313,29.835763 14.245604,30.474303 12.393554,30.287225 C 11.00274,30.146737 9.9058872,30.911139 9.1649929,32.537225 C 8.0630984,34.95562 6,35.931811 6,34.034796 z "
       id="path2137" />
    <path
       style="fill:#8f8c92"
       d="M 29.974473,74.432859 C 29.228336,72.470369 28.52756,72.015171 26.999224,72.500246 C 25.298832,73.03993 25,72.679306 25,70.087624 C 25,68.411691 24.292144,65.271367 23.426987,63.109126 C 21.886713,59.259602 21.91271,59.087475 24.676064,54.83889 C 26.228213,52.4525 28.023107,50.05 28.664717,49.5 C 29.306327,48.95 29.987905,47.6 30.179335,46.5 C 30.417823,45.129597 31.310075,44.5 33.013695,44.5 C 35.28134,44.5 35.478798,44.845725 35.258921,48.431117 C 35.110196,50.856275 35.605429,53.01151 36.551664,54.057089 C 38.930964,56.686185 39.513846,62.328656 37.572572,63.93977 C 36.076529,65.181376 36.079477,65.430339 37.61024,67.121814 C 39.173559,68.849261 39.072423,69.187711 35.885468,72.893786 C 34.023461,75.059093 32.151362,76.868799 31.725249,76.915354 C 31.299136,76.961909 30.511287,75.844786 29.974473,74.432859 z M 3.197574,29.985733 C 0.25876265,26.564109 0.038551999,25.909438 1.197574,24.039866 C 2.2796386,22.294431 2.2639342,21.79207 1.1047549,21.070704 C -0.78379889,19.895444 0.26790409,11.989206 2.4772642,10.752786 C 3.7536462,10.038486 3.9625288,8.93293 3.4574598,5.5648891 C 2.9325581,2.0645932 3.1288083,1.1645492 4.5345537,0.6251141 C 6.6524004,-0.18757992 9,1.6200297 9,4.0634277 C 9,5.0636238 9.493998,6.1872736 10.097773,6.5604273 C 10.701549,6.933581 12.46875,9.2465223 14.024888,11.700297 C 16.748024,15.994237 16.80066,16.313538 15.427115,20.206579 C 14.642202,22.43126 14,25.575201 14,27.193114 C 14,29.67932 13.690461,30.036532 12.000776,29.500246 C 10.47244,29.015171 9.7716642,29.470369 9.0255271,31.432859 C 8.4887131,32.844786 7.7008638,33.961909 7.2747508,33.915354 C 6.8486379,33.868799 5.0139083,32.100469 3.197574,29.985733 z "
       id="path2135" />
    <path
       style="fill:#926168"
       d="M 30.026501,74.569702 C 29.23236,72.480955 28.543564,72.010092 26.999224,72.500246 C 25.346905,73.024672 25,72.679361 25,70.510208 C 25,69.066696 24.493749,65.875135 23.874998,63.417852 C 22.785036,59.08922 22.869747,58.771748 26.594765,53.225032 C 28.709387,50.076264 30.509388,47.1625 30.594767,46.75 C 30.680145,46.3375 30.80625,45.55 30.875,45 C 31.029516,43.763872 34.679137,43.671815 35.429007,44.885131 C 35.72988,45.371953 35.498795,47.139311 34.915486,48.812593 C 34.010838,51.407667 34.15961,52.15961 35.927462,53.927462 C 37.067358,55.067358 38.03443,56.7875 38.076511,57.75 C 38.118592,58.7125 38.299208,60.256387 38.47788,61.18086 C 38.656551,62.105332 38.172121,63.103709 37.401368,63.399475 C 35.540485,64.113563 35.614473,66.684868 37.526697,67.755002 C 38.785138,68.459261 38.350655,69.370587 35.053974,72.941536 L 31.054554,77.273687 L 30.026501,74.569702 z M 5.5082792,32.026085 C 5.1637063,30.940432 3.6738344,29.101998 2.1974528,27.940676 C -0.29149159,25.982872 -0.3599768,25.73639 1.2565613,24.554348 C 3.4412696,22.956851 3.4865882,21.400699 1.3720333,20.589268 C -0.81497675,19.750034 0.16391889,13.51887 2.9483952,10.554931 C 4.7419904,8.6457362 4.8347071,8.0223478 3.751776,5.1533355 C 2.7270757,2.4385945 2.7697755,1.7570254 4.0137801,0.97126481 C 6.1709612,-0.3912928 7.455357,0.31959002 7.8207408,3.0783279 C 7.9971482,4.4102476 8.6721482,5.9551333 9.3207408,6.5114074 C 11.844017,8.6755287 15.224913,14.327714 15.212961,16.362025 C 15.206052,17.537911 14.86632,21.097515 14.458,24.272255 C 13.813369,29.28435 13.471045,29.966892 11.858576,29.455114 C 10.497347,29.023076 9.7409701,29.551101 9.0255271,31.432859 C 7.8606682,34.49667 6.3720973,34.747735 5.5082792,32.026085 z "
       id="path2133" />
    <path
       style="fill:#6d6871"
       d="M 30.5,73 C 30.150874,71.9 28.995549,71 27.932612,71 C 26.705717,71 26,70.311416 26,69.114307 C 26,68.077176 25.327772,65.939676 24.506161,64.364307 C 22.324835,60.181804 22.585561,58.923196 26.913051,52.745501 C 29.065229,49.673165 30.575822,46.909155 30.269923,46.603257 C 29.4067,45.740034 32.821795,44.717639 34.463768,45.347723 C 35.648819,45.802469 35.721455,46.500587 34.845242,49.014095 C 33.921245,51.664675 34.060265,52.439168 35.79574,54.309383 C 38.37273,57.086448 39.355673,62.649538 37.401838,63.399295 C 35.488417,64.133543 35.634601,66.696132 37.654387,67.826461 C 39.090811,68.630325 38.860251,69.160004 35.904387,71.846838 C 31.869252,75.514713 31.334363,75.628845 30.5,73 z M 3.0791936,28.832167 C -0.0025183584,26.031168 -0.17599068,25.601856 1.3291936,24.501238 C 3.4466139,22.952943 3.4637085,21.391919 1.3720333,20.589268 C -0.8602852,19.732647 0.13742861,13.862571 3.0022694,10.997731 C 4.3849219,9.6150781 4.9060194,8.2471892 4.4594226,7.1726812 C 4.0770543,6.2527065 3.6289787,4.4610137 3.4636989,3.1911416 C 3.2210621,1.3269221 3.5788134,0.94176297 5.3213795,1.1911416 C 6.5545458,1.36762 7.6272574,2.3572213 7.8241441,3.5 C 8.0136605,4.6 8.6932576,5.9551333 9.3343597,6.5114074 C 14.398617,10.905583 16.969112,19.430888 14.09603,22.30397 C 13.493214,22.906786 13,24.435 13,25.7 C 13,27.367616 12.42436,28 10.90638,28 C 9.6537647,28 8.6026677,28.803397 8.289749,30 C 7.6038339,32.622944 7.1340268,32.517646 3.0791936,28.832167 z "
       id="path2131" />
    <path
       style="fill:#575667"
       d="M 30.5,73 C 30.150874,71.9 29.088373,71 28.138889,71 C 26.841642,71 26.078486,69.494172 25.068515,64.941667 C 23.592387,58.287923 24.120957,56.319566 28.71497,51.362544 C 29.971737,50.006471 31,48.020141 31,46.948478 C 31,45.666667 31.684295,45 33,45 C 35.514198,45 35.527969,46.62185 33.0483,50.688599 L 31.104077,53.877198 L 33.802039,54.188599 C 36.009194,54.443351 36.673591,55.202942 37.454233,58.364077 C 38.274795,61.686863 38.138206,62.425773 36.479178,63.638884 C 34.834748,64.841321 34.73631,65.348118 35.812474,67.071331 C 36.891869,68.799717 36.743159,69.51354 34.787529,71.991195 C 32.045572,75.465071 31.335416,75.632163 30.5,73 z M 4.8227215,30.105922 C 3.9307534,29.064179 2.368245,27.703269 1.3504806,27.081677 C -0.41527433,26.003255 -0.39698203,25.878356 1.75,24.353783 C 4.338901,22.515402 4.6777874,21 2.5,21 C 1.675,21 0.94818049,20.2125 0.88484554,19.25 C 0.53362744,13.912546 2.0296519,11 5.1224447,11 C 7.1972056,11 7.5441588,9.9441588 5.9825486,8.3825486 C 5.4229503,7.8229503 4.5543629,5.9329503 4.0523542,4.1825486 C 3.2513992,1.3897816 3.3760112,1 5.0698057,1 C 6.1314125,1 7.0344301,1.3375 7.0765113,1.75 C 7.3695533,4.6225373 8.0381304,6.3242027 9.2704726,7.3340799 C 10.05299,7.9753359 11.684671,10.164385 12.896429,12.198633 C 14.958459,15.660281 15.019541,16.285001 13.849737,21.948633 C 12.85186,26.779876 12.218056,28 10.706304,28 C 9.6537647,28 8.5804688,28.888286 8.289749,30 C 7.6378424,32.492895 6.8861742,32.515859 4.8227215,30.105922 z "
       id="path2129" />
    <path
       style="fill:#4f4955"
       d="M 30.5,73 C 30.150874,71.9 29.070792,71 28.099819,71 C 26.740905,71 26.097642,69.693727 25.306113,65.326824 C 23.700741,56.469924 24.050553,55.924611 32.220943,54.547457 C 35.570463,53.982881 36.00297,54.163651 36.553823,56.358425 C 36.890388,57.699407 37.015964,59.854845 36.83288,61.148287 C 36.547388,63.165214 36.02174,63.453215 33.140453,63.17136 C 30.691547,62.931801 29.9017,63.202861 30.226541,64.17136 C 30.47164,64.902112 31.409866,65.505001 32.311487,65.511114 C 33.213109,65.517227 34.699274,66.270702 35.614076,67.185504 C 37.165111,68.73654 37.11616,69.052595 34.888676,71.869061 C 32.04275,75.467495 31.340582,75.64844 30.5,73 z M 30.345012,50.171259 C 31.255256,49.165452 32,47.590452 32,46.671259 C 32,45.752067 32.675,45 33.5,45 C 34.325,45 35,45.590147 35,46.311439 C 35,47.952877 31.304773,52 29.806057,52 C 29.181157,52 29.418334,51.195227 30.345012,50.171259 z M 4.703315,29.468575 C 3.7151383,28.110859 2.2526383,27 1.453315,27 C 0.65399176,27 0,26.55 0,26 C 0,25.45 0.65263945,25 1.4503099,25 C 2.2479803,25 3.2608463,24.356311 3.7011231,23.56958 C 4.1413999,22.782849 5.3528275,22.220349 6.3931844,22.31958 C 7.4335413,22.418811 8.4917453,21.91179 8.7447488,21.192867 C 9.0911931,20.208427 8.1919987,20.002085 5.1023775,20.357036 L 1,20.828338 L 1,17.114169 C 1,12.20145 2.2975457,11.102529 7.3424441,11.742608 C 12.694351,12.421639 14.002517,13.529696 13.988994,17.372445 C 13.964873,24.227119 12.824066,28 10.775538,28 C 9.6537647,28 8.5886625,28.856953 8.289749,30 C 7.6121976,32.590961 6.8989356,32.485272 4.703315,29.468575 z M 6.7361573,7.75 C 5.8308012,7.0625 4.6309307,5.2625 4.0697785,3.75 C 3.1733444,1.3337992 3.2892604,1 5.0247508,1 C 6.3852663,1 7,1.6757357 7,3.1712593 C 7,4.365452 7.7447444,6.165452 8.6549876,7.1712593 C 10.533189,9.2466483 9.2261884,9.6408543 6.7361573,7.75 z "
       id="path2127" />
    <path
       style="fill:#493648"
       d="M 30.580705,72.465532 C 30.088979,70.506339 29.480813,70.030008 28.050645,70.483926 C 26.379377,71.014366 26.088333,70.338371 25.459383,64.465315 C 25.06969,60.826424 25.14441,57.491423 25.625426,57.054203 C 26.106442,56.616982 28.594899,55.990371 31.155331,55.661734 C 36.185758,55.016068 37,55.707528 37,60.62507 C 37,62.854936 36.647122,63.058966 33.25,62.793282 C 28.539575,62.424887 27.879593,65.199682 32.487789,65.997885 C 36.372712,66.670807 36.874375,69.398352 33.697521,72.575207 L 31.228033,75.044694 L 30.580705,72.465532 z M 32.125,47.125 C 32.543246,45.870263 34,45.578912 34,46.75 C 34,47.1625 33.49375,47.66875 32.875,47.875 C 32.25625,48.08125 31.91875,47.74375 32.125,47.125 z M 5.1554303,29.665448 C 2.2116121,26.531897 2.6338829,23.505615 6.0178791,23.484547 C 7.8188881,23.473335 8.5876871,22.855919 8.819551,21.234547 C 9.178811,18.722323 8.8157884,18.61885 4.2433981,19.930194 C 1.051753,20.845546 1,20.807609 1,17.552639 C 1,13.138489 2.5769916,12.077357 8.1903364,12.714379 C 13.782081,13.34895 14.293754,14.281366 13.397489,22.203308 C 12.810383,27.392637 12.491385,28.046449 10.671619,27.790205 C 9.2144301,27.585017 8.4467893,28.181479 8.0512685,29.826237 L 7.4918698,32.152474 L 5.1554303,29.665448 z M 4.0458365,3.0856464 C 3.092032,1.3034463 3.2128631,1 4.8763324,1 C 6.0208879,1 6.7340678,1.6061535 6.6071272,2.4710556 C 6.2352199,5.0050221 5.2053149,5.2521514 4.0458365,3.0856464 z "
       id="path2125" />
    <path
       style="fill:#5b2433"
       d="M 30.886485,73.5 C 30.818587,72.4 30.842988,70.907412 30.940708,70.183138 C 31.081051,69.142962 30.667731,69.107458 28.973545,70.014159 C 27.793884,70.645494 26.678624,71.011958 26.49519,70.828523 C 26.183474,70.516807 25.737063,60.01308 25.9181,57.25 C 25.97194,56.428266 27.706536,56 30.980948,56 C 35.429071,56 36.027491,56.261352 36.575091,58.443165 C 37.481456,62.054411 36.465608,62.872138 31.843254,62.25215 C 27.843645,61.71569 27.711137,61.78528 28.329791,64.097332 C 28.683386,65.4188 28.978835,66.791352 28.986345,67.147448 C 28.993855,67.503545 30.41455,67.728545 32.143445,67.647448 C 36.175501,67.458318 36.530155,68.758955 33.466625,72.5 C 31.300771,75.144844 30.99532,75.263229 30.886485,73.5 z M 5.2042235,29.075796 C 2.5639862,25.489228 3.1479536,23.603967 6.6894416,24.280965 C 8.5992627,24.64605 9.3504813,24.208364 10.072225,22.310035 C 10.582501,20.967906 11,19.635401 11,19.348912 C 11,18.414909 2.520688,19.471841 1.7653128,20.5 C 1.3612348,21.05 1.0237348,19.860645 1.0153128,17.856989 C 0.99771711,13.670863 2.0428224,13 8.5817875,13 L 13,13 L 13,20.5 C 13,26.36348 12.685574,28 11.559017,28 C 10.766476,28 9.7568846,27.4375 9.3154798,26.75 C 8.7944398,25.938466 8.3352722,26.674114 8.0064628,28.847219 L 7.5,32.194439 L 5.2042235,29.075796 z M 4,2 C 2.7932282,1.2201242 2.9513793,1.0276321 4.809017,1.0153128 C 6.096585,1.006774 6.8446319,1.442374 6.5,2 C 5.7568143,3.2024997 5.8607356,3.2024997 4,2 z "
       id="path2123" />
    <path
       style="fill:#252b45"
       d="M 31.246727,70.642162 C 30.00653,67.920225 30.476708,67 33.10765,67 C 35.864603,67 36.441566,69.002878 34.301186,71.143258 C 32.379152,73.065293 32.348487,73.060262 31.246727,70.642162 z M 26.82712,64.5 C 26.19478,63.489805 25.685441,59.552222 25.889309,57.25 C 25.961735,56.432119 27.721891,56 30.980948,56 C 35.429071,56 36.027491,56.261352 36.575091,58.443165 C 37.471425,62.014442 36.470906,62.872849 32.096005,62.286051 C 28.84372,61.849828 28.130715,62.074275 27.822736,63.631234 C 27.619424,64.659055 27.171397,65.05 26.82712,64.5 z M 4.0363548,27.543805 C 2.562189,25.767544 3.487904,24 5.8923503,24 C 8.4338393,24 9.0767099,24.988149 7.9296325,27.131483 C 6.7271897,29.378268 5.6532196,29.492008 4.0363548,27.543805 z M 10.696374,20.348854 C 11.188877,19.065412 10.536661,18.859659 6.8954462,19.149782 C 4.4779508,19.342402 2.1693907,19.95 1.7653128,20.5 C 1.3612348,21.05 1.0237348,19.860645 1.0153128,17.856989 C 0.99771711,13.670863 2.0428224,13 8.5817875,13 L 13,13 L 13,16.893011 C 13,19.370166 12.472984,20.988257 11.550928,21.342084 C 10.551241,21.7257 10.286227,21.41768 10.696374,20.348854 z "
       id="path2121" />
    <path
       style="fill:#2d2938"
       d="M 31.225385,70.595321 C 30.237619,68.42741 30.356558,68.021608 32.146218,67.453592 C 35.41943,66.414715 36.806022,68.638422 34.390941,71.053503 L 32.35966,73.084784 L 31.225385,70.595321 z M 26.582949,64.134215 C 26.152178,63.437212 26.06979,62.596877 26.399864,62.266802 C 27.294825,61.371841 28.270632,62.688105 27.787251,64.138246 C 27.448526,65.154421 27.212984,65.153632 26.582949,64.134215 z M 30,60 C 31.938759,58.747078 33,58.747078 33,60 C 33,60.55 31.9875,60.993109 30.75,60.984687 C 28.930562,60.972305 28.787041,60.783874 30,60 z M 4.0363548,27.543805 C 3.3716608,26.742898 3.1181183,25.617898 3.4729271,25.043805 C 4.3151952,23.680986 7,23.692566 7,25.059017 C 7,25.641476 7.4948957,25.812172 8.0997682,25.43834 C 8.8727178,24.960631 8.8622622,25.388848 8.0645844,26.879323 C 6.7307551,29.371606 5.6950803,29.542447 4.0363548,27.543805 z M 10.657916,20.449072 C 11.264884,18.867341 13,18.455387 13,19.893011 C 13,20.384167 12.347917,21.03625 11.550928,21.342084 C 10.582406,21.71374 10.28626,21.417594 10.657916,20.449072 z M 1.0789474,19.583333 C 1.0355263,18.529167 1.271875,17.938542 1.6041667,18.270833 C 1.9364583,18.603125 1.9719846,19.465625 1.683114,20.1875 C 1.3638877,20.985233 1.1269313,20.748276 1.0789474,19.583333 z M 6,17 C 6,15.706093 7.7003212,15.706093 8.5,17 C 8.8399187,17.55 8.4164763,18 7.559017,18 C 6.7015576,18 6,17.55 6,17 z "
       id="path2119" />
  </g>
</svg>
