<?xml version="1.0" encoding="UTF-8" standalone="no"?>
<!-- Created with Inkscape (http://www.inkscape.org/) -->
<svg
   xmlns:dc="http://purl.org/dc/elements/1.1/"
   xmlns:cc="http://web.resource.org/cc/"
   xmlns:rdf="http://www.w3.org/1999/02/22-rdf-syntax-ns#"
   xmlns:svg="http://www.w3.org/2000/svg"
   xmlns="http://www.w3.org/2000/svg"
   xmlns:sodipodi="http://sodipodi.sourceforge.net/DTD/sodipodi-0.dtd"
   xmlns:inkscape="http://www.inkscape.org/namespaces/inkscape"
   id="svg2040"
   sodipodi:version="0.32"
   inkscape:version="0.45.1"
   width="32"
   height="92"
   version="1.0"
   sodipodi:docbase="/home/kde-devel/kde/src/KDE/playground/games/ksirk/ksirk/skins/default/Images/sprites"
   sodipodi:docname="infantry1.svg"
   inkscape:output_extension="org.inkscape.output.svg.inkscape">
  <metadata
     id="metadata2045">
    <rdf:RDF>
      <cc:Work
         rdf:about="">
        <dc:format>image/svg+xml</dc:format>
        <dc:type
           rdf:resource="http://purl.org/dc/dcmitype/StillImage" />
      </cc:Work>
    </rdf:RDF>
  </metadata>
  <defs
     id="defs2043" />
  <sodipodi:namedview
     inkscape:window-height="656"
     inkscape:window-width="928"
     inkscape:pageshadow="2"
     inkscape:pageopacity="0.0"
     guidetolerance="10.0"
     gridtolerance="10.0"
     objecttolerance="10.0"
     borderopacity="1.0"
     bordercolor="#666666"
     pagecolor="#ffffff"
     id="base"
     inkscape:zoom="23.30378"
     inkscape:cx="18.157566"
     inkscape:cy="9.5177342"
     inkscape:window-x="463"
     inkscape:window-y="319"
     inkscape:current-layer="g1887" />
  <g
     id="g1887">
    <path
       style="fill:#c7c7c7"
       d="M 14.872377,79.661516 C 14.802184,79.572682 14.638625,78.4875 14.508913,77.25 C 14.317498,75.423842 14.76538,75.005991 16.886536,75.031803 C 19.450071,75.062999 19.461791,75.094226 17.5,76.666336 C 15.739624,78.077039 15.719683,78.192959 17.33356,77.633852 C 18.499432,77.229951 19.025915,77.422256 18.779351,78.161947 C 18.466832,79.099505 15.36808,80.288864 14.872377,79.661516 z M 15,72.166667 C 15,71.708333 15.675,71.333333 16.5,71.333333 C 17.325,71.333333 18,71.708333 18,72.166667 C 18,72.625 17.325,73 16.5,73 C 15.675,73 15,72.625 15,72.166667 z M 21.313416,45.415345 C 21.313416,42.532198 24.530297,42.409601 24.205772,45.314624 C 24.057013,46.646255 25.586754,48.723734 22.731329,48.772407 C 20.539702,48.809212 21.313416,46.482886 21.313416,45.415345 z M 17.785443,38.490041 C 17.785443,37.298375 18.127335,36.854167 18.282968,37.083333 C 18.4386,37.3125 20.23404,36.395311 20.506173,37.576452 C 21.266548,40.876716 20.983367,40.723157 19.622445,41 C 17.723925,41.386203 17.785443,39.821975 17.785443,38.490041 z M 8.9546722,11.33073 C 11.103632,11.032532 12.714191,15.656708 9.0970245,16.171646 C 7.936004,16.648178 6.5356443,11.586892 8.9546722,11.33073 z M 11.665473,7.2070885 C 12.402185,6.2445885 12.746082,4.8404736 13.717032,5.0833333 C 13.985771,5.1505518 13.629866,5.4300045 13.957089,6.5758643 C 14.901141,9.8817265 13.374934,9 12.377555,9 C 10.98876,9 10.175602,7.6751944 11.665473,7.2070885 z "
       id="path1901"
       sodipodi:nodetypes="csssssccsssccssccssscccccsssc" />
    <path
       style="fill:#979797"
       d="M 7.9912616,43.473167 C 9.954367,43.498913 14.071597,43.455694 14.7197,43.465439 C 16.320546,43.489511 16.34267,44.057907 16.376168,44.30426 C 16.496145,45.18659 14.866981,44.46348 10.892163,44.226167 C 2.812406,43.743771 5.2037993,43.535063 7.9912616,43.473167 z M 15.58092,12.261348 C 15.930548,11.350234 15.293251,11.103307 16.422071,11.122147 C 17.070156,11.132963 25.277796,11.093403 25.296083,11.301521 C 25.344119,11.848222 25.680155,11.788175 22.781385,11.839963 C 18.848607,11.910224 14.945837,13.023023 15.58092,12.261348 z "
       id="path1899"
       sodipodi:nodetypes="csssccsssc" />
    <path
       style="fill:#9e5e3e"
       d="M 12.63617,90.494256 C 12.287868,89.586597 12.639301,89 13.531385,89 C 15.148774,89 15.516708,90.562623 14.104785,91.435239 C 13.612416,91.73954 12.95154,91.316097 12.63617,90.494256 z M 17.638374,90.5 C 17.291266,89.595452 17.633305,89 18.5,89 C 19.366695,89 19.708734,89.595452 19.361626,90.5 C 18.640381,92.379536 18.359619,92.379536 17.638374,90.5 z M 12,75.059017 C 12,74.476558 12.45,74 13,74 C 14.281385,74 14.281385,74.708061 13,75.5 C 12.45,75.839919 12,75.641476 12,75.059017 z M 15.510081,71.016312 C 15.164618,70.45734 15.583524,70 16.440983,70 C 18.197509,70 18.456142,70.600055 17.069098,71.457295 C 16.557102,71.773726 15.855545,71.575283 15.510081,71.016312 z M 15.615699,44.386203 C 15.189957,43.278354 14.703493,43.385373 16.343291,43.30038 C 18.105386,43.20905 18.055017,43.31743 17.5,44.429115 C 17.060572,45.309278 16.107257,45.152651 15.615699,44.386203 z M 19.597697,38.434843 C 19.229618,37.839279 18.89966,37.726501 18.884926,37.352625 C 18.836148,36.114895 20.205421,37.527509 20.772407,37.162855 C 21.458991,36.721282 21.878727,37.281885 21.686584,37.899239 C 21.378354,38.889576 21.267583,38.925413 21.184682,39.326019 C 20.939179,40.512373 20.21651,39.436103 19.597697,38.434843 z M 20.078947,26.583333 C 20.035526,25.529167 19.95775,24.063047 20.775813,25.614125 C 21.301719,26.611262 25.99263,27.280943 22.657043,27.230411 C 21.79791,27.217227 20.126931,27.748276 20.078947,26.583333 z M 4.5647606,26.104785 C 4.0888142,24.797098 5.4313743,24.320002 6.1413999,24.655712 C 8.6794565,25.855741 6.3527299,25.262877 6.4708182,26.237512 C 6.9055876,29.825854 6.1035936,29.147171 4.5647606,26.104785 z M 13.255567,11.485062 C 12.915648,10.935062 14.835081,11 16,11 C 17.164919,11 15.608521,12.179495 15.268602,12.729495 C 14.476663,14.01088 14.047506,12.766447 13.255567,11.485062 z M 10.596556,7.1562306 C 10.250507,6.5963119 10.403189,5.7364116 11.050219,5.4689628 C 13.660491,4.3900106 13.837155,5.2624636 12.510758,6.5459496 C 11.780868,7.2522259 10.417914,9.3840479 10.596556,7.1562306 z "
       id="path1895"
       sodipodi:nodetypes="cssccssccssccssccssccssssccssccssccssccssc" />
    <path
       style="fill:#2727c7"
       d="M 13.291966,87.663395 C 12.922465,87.065528 13.344324,86.918152 14.335955,87.298676 C 15.25118,87.649881 16,87.501354 16,86.968615 C 16,86.435877 15.298442,86 14.440983,86 C 13.583524,86 13.156198,85.556284 13.49137,85.013964 C 14.148516,83.950679 17.492281,84.158948 18.669841,85.336508 C 19.066601,85.733267 19.477372,86.644864 19.582666,87.362278 C 19.810837,88.91691 14.231731,89.183965 13.291966,87.663395 z M 19.268223,58.119572 C 19.123948,57.632004 18.785902,56.861773 18.811099,55.526461 C 18.840566,53.964935 18.968589,53.919585 17.772372,53.375186 C 16.960098,53.00552 13.352161,53.031935 13.082019,54.136865 C 11.563746,60.346867 10.413156,54.526843 10.770364,53.923548 C 11.891569,52.029929 15.187082,51.451465 16.723321,51.046936 C 17.442692,50.857507 19.062609,50.398352 19.635207,50.752238 C 20.207806,51.106123 21.876389,52.329509 21.559958,52.841505 C 21.243527,53.353501 21.324831,54.458182 21.042175,54.931017 C 20.606091,55.660513 21.206166,56.151617 21.615699,56.287345 C 22.79788,56.679145 24.772746,56.459859 24.919452,56.957089 C 25.223315,57.986964 22.441032,58.945036 22,58.820297 C 20.455186,58.383371 20.02658,58.877929 19.268223,58.119572 z M 9.1973397,24.569513 C 11.816551,24.715067 11.157267,24.622632 11.56092,20.75 C 11.837817,18.093463 14,16.846538 14,19 C 14,19.55 15.364123,20 17.031385,20 C 18.841113,20 20.147277,20.696986 20.654923,21.543128 C 22.002059,23.78853 20.151536,24.863224 19.133903,23.216659 C 18.717359,22.542678 17.253372,22.084196 15.880598,22.19781 C 14.090046,22.346001 13.400946,22.974309 13.442323,24.420983 C 13.476326,25.609842 12.37778,26.497693 11.267235,26.510332 C 5.3219393,26.577997 7.9238088,23.860016 9.1973397,24.569513 z "
       id="path1893"
       sodipodi:nodetypes="cssssssccsssssssssssccssssssssc" />
    <path
       style="fill:#9e5e3e"
       d="M 12.417388,58.652901 C 12.460809,57.598735 12.281116,55.746412 11.463053,57.29749 C 10.937147,58.294627 5.6025632,59.350511 9.8392915,59.299979 C 10.698465,59.289732 12.369404,59.817844 12.417388,58.652901 z M 27.073344,58.345999 C 27.377645,56.265905 26.203321,56.554097 25.496705,56.896926 C 19.396994,59.856326 24.882224,56.854252 25.167287,58.478726 C 25.458245,60.136787 25.963626,61.602942 27.073344,58.345999 z "
       id="path2164"
       sodipodi:nodetypes="cssccszc" />
    <path
       style="fill:#fe0000"
       d="M 15.63948,84.306147 C 14.403271,83.069938 15.016753,80 16.5,80 C 17.325,80 18,80.873442 18,81.940983 C 18,84.028211 16.682069,85.348735 15.63948,84.306147 z M 11.581246,78.351128 C 11.235668,77.450567 11.188515,76.478151 11.476461,76.190205 C 11.764408,75.902259 12.006891,76.304167 12.015313,77.083333 C 12.027921,78.249797 12.201831,78.235079 13,77 C 13.835399,75.707313 13.971491,75.733708 13.984687,77.190983 C 14.005933,79.537176 12.344182,80.339307 11.581246,78.351128 z M 19.453574,49.604223 C 18.900141,46.654166 18.502821,46.167733 17.396561,47.085847 C 15.828407,48.387299 12.613797,47.587257 12.613797,45.866029 C 12.613797,45.054956 13.286343,44.763601 14.167012,45.494491 C 15.659379,46.733046 18.982819,45.064719 19.030409,42.889757 C 19.051107,41.943784 19.950881,42.156672 20.659032,43.373499 C 21.303204,45.496416 21.293015,47.427171 21.742706,49.486093 C 22.366345,50.695812 21.819429,52.912888 21.162389,52.237611 C 18.834562,49.845173 19.92109,52.096295 19.453574,49.604223 z M 11.570913,20.65687 C 10.679644,20.495674 10.660806,18.802382 10.732805,17.099021 C 10.390638,14.223057 11.365493,10.072111 13.012502,10.417731 C 13.060092,12.592693 16.254798,15.033426 17.747165,13.794871 C 18.627834,13.063981 19,13.097867 19,13.90894 C 19,15.616014 16.043298,16.443298 14.709437,15.109437 C 13.834599,14.234599 13.308763,14.847768 13.393812,17.812477 C 13.404895,18.198811 12.700056,17.663598 11.570913,20.65687 z "
       id="path1891"
       sodipodi:nodetypes="cssccssssccssssccsccccssssc" />
    <path
       style="fill:black"
       d="M 14.5,87 C 14.160081,86.45 14.358524,86 14.940983,86 C 15.523442,86 16,86.45 16,87 C 16,88.281385 15.291939,88.281385 14.5,87 z M 13.768968,82.428234 C 14.089932,80.749219 13.834934,80.013597 12.999511,80.208496 C 10.684931,80.748474 10.888284,78.241181 13.392745,75.360012 C 15.446837,72.996955 16.193424,72.693404 17.689408,73.613054 C 19.057221,74.453912 19.5,75.981631 19.5,79.860141 C 19.5,82.683859 19.103249,84.995485 18.618331,84.997087 C 18.133413,84.998689 17.973772,83.232213 18.263573,81.071584 C 18.710705,77.737966 18.541379,77.228404 17.145242,77.706117 C 15.963888,78.110338 16.063915,77.817164 17.5,76.666336 C 19.453071,75.101214 19.434087,75.06286 16.690983,75.031803 C 14.817058,75.010587 14.119491,75.384324 14.595492,76.154508 C 15.012152,76.828679 14.872275,77.039096 14.259293,76.660252 C 13.681945,76.303431 12.937416,76.720707 12.604785,77.587531 C 11.740534,79.839733 11.823842,80.004829 13.5,79.361626 C 14.591469,78.942791 15,79.479973 15,81.333994 C 15,82.735379 14.615006,84.119906 14.144457,84.410721 C 13.673908,84.701536 13.504938,83.809417 13.768968,82.428234 z M 14,68 C 13.022531,66.173583 13.23951,66 16.5,66 C 19.76049,66 19.977469,66.173583 19,68 C 17.629966,70.559931 15.370034,70.559931 14,68 z M 25,60.059017 C 25,59.476558 25.45,59 26,59 C 27.281385,59 27.281385,59.708061 26,60.5 C 25.45,60.839919 25,60.641476 25,60.059017 z M 10.048221,59.070885 C 9.6079464,57.128713 10.205948,53.485602 11.129242,52.358778 C 12.251445,50.989198 18,49.997255 18,51.173193 C 18,51.627937 16.61247,52.278391 14.968615,52 C 11.927989,51.485062 9.2521176,55.438307 12.104283,56.085612 C 12.511412,56.178011 12.651324,56.996002 12.323324,56.984687 C 11.505787,56.956484 10.940853,57.7875 10.689326,58.75 C 10.437798,59.7125 10.172902,59.620885 10.048221,59.070885 z M 22.863153,58.105738 C 24.014023,57.376595 24.014023,57.165087 22.863153,56.747557 C 22.113419,56.475558 22.74476,56.308585 24.266134,56.376507 C 26.731607,56.486577 26.846699,56.635867 25.325004,57.75 C 24.386009,58.4375 23.141249,58.993109 22.55887,58.984687 C 21.976492,58.976265 22.113419,58.580738 22.863153,58.105738 z M 18.759371,56.025434 C 18.029876,52.506113 16.083766,53.825154 15.121266,53.573627 C 13.543551,53.161327 14.696351,53.147796 16.220859,53.043214 C 18.025007,52.91945 18.513045,52.945219 18.844569,54.244331 C 18.959993,54.696632 19.059752,54.524108 18.759371,56.025434 z M 20.881579,48.718615 C 20.816447,48.048377 20.831981,47.115899 20.916098,46.646442 C 21.211739,44.996479 19.846804,41.976646 19.032788,42.479736 C 18.105774,43.052662 17.521398,40.518436 17.73393,39.061471 C 17.79271,38.658517 17.927045,39.195828 18,39.833333 C 18.171646,41.33323 18.675,41 19.5,41 C 20.325,41 21,41.469727 21,42.043837 C 21,42.617947 21.7875,42.955447 22.75,42.793837 C 23.972002,42.588654 24.92711,43.247383 24.79347,45 C 24.416067,49.992361 24.166828,48.569126 24.109453,46.047746 C 24.087549,45.085177 24.091394,44.134674 23.720492,43.643237 C 23.357597,43.162408 22.008657,43.32989 21.910075,43.576154 C 21.181293,45.3967 21.175756,48.780481 22.770323,48.533526 C 23.649287,48.397399 25.82216,47.632762 22.699438,49.285095 C 21.74474,49.790257 20.951848,49.441717 20.881579,48.718615 z M 14.477262,45.963209 C 14.13876,45.415501 13.673749,45.140511 13.076773,45.509463 C 12.401762,45.926643 12.066955,46.397396 12.458359,45.067376 C 12.749439,44.078263 13.537956,44.137956 14.289074,44.889074 C 15.040192,45.640192 15.748204,45.623935 16.700372,44.833706 C 17.44175,44.218417 18.241992,43.908659 18.478688,44.145354 C 18.715383,44.38205 18.050371,45.11196 17.000882,45.767376 C 15.770228,46.535932 14.874197,46.605464 14.477262,45.963209 z M 18.048478,37.25094 C 17.066219,32.291891 16.371201,33 20,33 C 23.093043,33 22.769848,32.381893 22.093892,35.310106 C 21.456485,38.071325 21.706222,37.538667 18.048478,37.25094 z M 5.6287345,27.914177 C 5.6829394,26.366219 6.80184,27.394861 6.914177,28 C 6.6137966,29.624677 6.420674,29.195562 5.6287345,27.914177 z M 19.895717,24.085612 C 22.209562,22.620495 20.372391,20 17.031385,20 C 15.364123,20 14,19.612402 14,19.138672 C 14,18.111152 20.574669,19.968411 20.641222,20.166362 C 22.33666,25.209168 22.104594,27.505702 21.833269,27.603045 C 20.878783,24.011471 19.826597,27.2176 19.895717,24.085612 z M 7.2328454,25.578354 C 5.7111502,24.464221 5.2683929,24.486577 7.7338664,24.376507 C 9.2552399,24.308585 8.642148,24.733027 7.8924141,25.005026 C 7.5245002,26.12721 7.624606,26.477122 7.2328454,25.578354 z M 14.128001,22.583921 C 14.873288,22.11019 15.921758,21.989638 17.042911,22.238463 C 16.217911,22.586234 14.647773,21.918611 13.429436,23.927918 C 13.387752,23.996664 13.478737,23.119582 14.128001,22.583921 z M 8.9736068,16.962526 C 7.9774515,16.332563 7.9908255,15.682372 9.3507609,16.058224 C 10.865891,16.476969 10.954895,11.505192 8.8454915,11.404508 C 8.099877,11.368919 8.0968175,12.035823 8.0220395,12.973493 C 7.8198973,15.508233 8.4129864,15.354156 8.5342193,15.89294 C 9.0116915,18.014926 7.2835524,15.246025 7.5069105,13.343292 C 7.7118368,11.597574 8.0279976,10.588654 9.25,10.793837 C 10.2125,10.955447 10.545926,10.395147 11,10.043837 C 11.686584,9.512638 11.012999,8.8554162 12.242531,9 C 14.277089,8.9367096 14.177978,9.0801741 14.26607,7.2760283 C 15.122274,7.5314718 13.894226,11.052662 12.967212,10.479736 C 12.008017,9.8869208 10.632568,13.596465 11.369469,14.788797 C 12.313967,16.317026 10.522732,17.942185 8.9736068,16.962526 z M 14.556036,13.417316 C 13.489973,12.637792 13.127191,12 13.749853,12 C 14.372515,12 15.173586,12.471851 15.530011,13.048558 C 15.978227,13.773787 16.698049,13.876723 17.5,13 C 17.911593,12.605162 18.845627,10.711312 19.07322,13.672853 C 18.623146,13.265125 18.191339,13.42624 17.589174,13.925992 C 16.909701,14.489905 15.758966,14.29692 14.556036,13.417316 z M 10.171646,4.9637403 C 10.171646,4.4764467 9.3193425,2.9640215 9.1355422,1.8952036 C 9.0574845,1.4412896 14.425189,1.4114428 14.41229,1.4720264 C 13.675528,4.9324764 13.941727,5.1273191 13.493068,5.0830988 C 9.8225563,4.721329 10.514938,8.3127353 10.171646,4.9637403 z "
       id="path1889"
       sodipodi:nodetypes="cssccsssssssssssssssccssccssccssssssccssssccsssccsssssssssssssccssssssccsscccccssscccsccccsccsssssssccssccssccsccsssc" />
    <g
       id="g5110"
       transform="translate(0.5578495,1.029876)">
      <path
         transform="matrix(1.4897959,0,0,1.43,-30.87701,-63.425657)"
         d="M 31.32539 53.894592 A 4.2053261 4.2911491 0 1 1  22.914738,53.894592 A 4.2053261 4.2911491 0 1 1  31.32539 53.894592 z"
         sodipodi:ry="4.2911491"
         sodipodi:rx="4.2053261"
         sodipodi:cy="53.894592"
         sodipodi:cx="27.120064"
         id="path2166"
         style="fill:#000000;fill-opacity:1;fill-rule:nonzero"
         sodipodi:type="arc" />
      <path
         transform="matrix(1.5236548,0,0,1.43,-31.795268,-63.425655)"
         d="M 30.646827 53.894592 A 3.5267627 3.7329996 0 1 1  23.593301,53.894592 A 3.5267627 3.7329996 0 1 1  30.646827 53.894592 z"
         sodipodi:ry="3.7329996"
         sodipodi:rx="3.5267627"
         sodipodi:cy="53.894592"
         sodipodi:cx="27.120064"
         id="path4110"
         style="fill:#ffffff;fill-opacity:1;fill-rule:nonzero"
         sodipodi:type="arc" />
      <text
         id="text5089"
         y="17.505648"
         x="5.3210244"
         style="font-size:11px;font-style:normal;font-weight:normal;fill:#000000;fill-opacity:1;stroke:none;stroke-width:1px;stroke-linecap:butt;stroke-linejoin:miter;stroke-opacity:1;font-family:Arial Black"
         xml:space="preserve"><tspan
           y="17.505648"
           x="5.3210244"
           id="tspan5091"
           sodipodi:role="line">1</tspan></text>
    </g>
    <g
       id="g5116"
       transform="translate(11.802285,33.098838)">
      <path
         transform="matrix(1.4897959,0,0,1.43,-30.87701,-63.425657)"
         d="M 31.32539 53.894592 A 4.2053261 4.2911491 0 1 1  22.914738,53.894592 A 4.2053261 4.2911491 0 1 1  31.32539 53.894592 z"
         sodipodi:ry="4.2911491"
         sodipodi:rx="4.2053261"
         sodipodi:cy="53.894592"
         sodipodi:cx="27.120064"
         id="path5118"
         style="fill:#000000;fill-opacity:1;fill-rule:nonzero"
         sodipodi:type="arc" />
      <path
         transform="matrix(1.5236548,0,0,1.43,-31.795268,-63.425655)"
         d="M 30.646827 53.894592 A 3.5267627 3.7329996 0 1 1  23.593301,53.894592 A 3.5267627 3.7329996 0 1 1  30.646827 53.894592 z"
         sodipodi:ry="3.7329996"
         sodipodi:rx="3.5267627"
         sodipodi:cy="53.894592"
         sodipodi:cx="27.120064"
         id="path5120"
         style="fill:#ffffff;fill-opacity:1;fill-rule:nonzero"
         sodipodi:type="arc" />
      <text
         id="text5122"
         y="17.505648"
         x="5.3210244"
         style="font-size:11px;font-style:normal;font-weight:normal;fill:#000000;fill-opacity:1;stroke:none;stroke-width:1px;stroke-linecap:butt;stroke-linejoin:miter;stroke-opacity:1;font-family:Arial Black"
         xml:space="preserve"><tspan
           y="17.505648"
           x="5.3210244"
           id="tspan5124"
           sodipodi:role="line">1</tspan></text>
    </g>
    <g
       id="g5126"
       transform="translate(6.306369,67.333002)">
      <path
         transform="matrix(1.4897959,0,0,1.43,-30.87701,-63.425657)"
         d="M 31.32539 53.894592 A 4.2053261 4.2911491 0 1 1  22.914738,53.894592 A 4.2053261 4.2911491 0 1 1  31.32539 53.894592 z"
         sodipodi:ry="4.2911491"
         sodipodi:rx="4.2053261"
         sodipodi:cy="53.894592"
         sodipodi:cx="27.120064"
         id="path5128"
         style="fill:#000000;fill-opacity:1;fill-rule:nonzero"
         sodipodi:type="arc" />
      <path
         transform="matrix(1.5236548,0,0,1.43,-31.795268,-63.425655)"
         d="M 30.646827 53.894592 A 3.5267627 3.7329996 0 1 1  23.593301,53.894592 A 3.5267627 3.7329996 0 1 1  30.646827 53.894592 z"
         sodipodi:ry="3.7329996"
         sodipodi:rx="3.5267627"
         sodipodi:cy="53.894592"
         sodipodi:cx="27.120064"
         id="path5130"
         style="fill:#ffffff;fill-opacity:1;fill-rule:nonzero"
         sodipodi:type="arc" />
      <text
         id="text5132"
         y="17.505648"
         x="5.3210244"
         style="font-size:11px;font-style:normal;font-weight:normal;fill:#000000;fill-opacity:1;stroke:none;stroke-width:1px;stroke-linecap:butt;stroke-linejoin:miter;stroke-opacity:1;font-family:Arial Black"
         xml:space="preserve"><tspan
           y="17.505648"
           x="5.3210244"
           id="tspan5134"
           sodipodi:role="line">1</tspan></text>
    </g>
  </g>
</svg>
