<?xml version="1.0" encoding="UTF-8" standalone="no"?>
<!-- Created with Inkscape (http://www.inkscape.org/) -->
<svg
   xmlns:dc="http://purl.org/dc/elements/1.1/"
   xmlns:cc="http://web.resource.org/cc/"
   xmlns:rdf="http://www.w3.org/1999/02/22-rdf-syntax-ns#"
   xmlns:svg="http://www.w3.org/2000/svg"
   xmlns="http://www.w3.org/2000/svg"
   xmlns:xlink="http://www.w3.org/1999/xlink"
   xmlns:sodipodi="http://sodipodi.sourceforge.net/DTD/sodipodi-0.dtd"
   xmlns:inkscape="http://www.inkscape.org/namespaces/inkscape"
   id="svg83"
   sodipodi:version="0.32"
   inkscape:version="0.44"
   width="80"
   height="20"
   version="1.0"
   sodipodi:docbase="/home/kde4/Developpements/C++/games/ksirk/ksirk/skins/realpol/Images/sprites"
   sodipodi:docname="japan.svg">
  <metadata
     id="metadata88">
    <rdf:RDF>
      <cc:Work
         rdf:about="">
        <dc:format>image/svg+xml</dc:format>
        <dc:type
           rdf:resource="http://purl.org/dc/dcmitype/StillImage" />
      </cc:Work>
    </rdf:RDF>
  </metadata>
  <defs
     id="defs86" />
  <sodipodi:namedview
     inkscape:window-height="593"
     inkscape:window-width="928"
     inkscape:pageshadow="2"
     inkscape:pageopacity="0.0"
     guidetolerance="10.0"
     gridtolerance="10.0"
     objecttolerance="10.0"
     borderopacity="1.0"
     bordercolor="#666666"
     pagecolor="#ffffff"
     id="base"
     inkscape:zoom="10.525"
     inkscape:cx="40"
     inkscape:cy="9.9524941"
     inkscape:window-x="0"
     inkscape:window-y="0"
     inkscape:current-layer="svg83" />
  <g
     id="g1972">
    <path
       style="fill:#e4e4e4"
       d="M 3.2215494,18.392085 C 1.5303609,16.581662 1.6109303,4.5677886 3.3237936,3.1462383 C 4.2918247,2.3428439 4.9698535,2.3698535 5.8467413,3.2467413 C 6.506276,3.906276 8.5777953,4.3139145 10.450117,4.1526046 C 14.631849,3.7923276 16.792867,6.6499981 14.94696,10.099106 C 14.062867,11.751049 13.096756,12.113363 10.411776,11.799907 C 7.229248,11.428365 7,11.594488 7,14.272229 C 7,18.010585 4.9515814,20.244091 3.2215494,18.392085 z M 23.221549,18.392085 C 21.530361,16.581662 21.61093,4.5677886 23.323794,3.1462383 C 24.820235,1.9043021 27,3.4298227 27,5.719052 C 27,6.6052365 27.773238,6.8440336 29.356244,6.4467245 C 31.869944,5.8158258 35,8.0637929 35,10.5 C 35,11.79258 32.407571,15 31.36283,15 C 31.090958,15 29.998101,14.534167 28.934259,13.964816 C 27.306438,13.093633 27,13.263376 27,15.036245 C 27,18.125098 24.798576,20.080298 23.221549,18.392085 z M 43.221549,18.392085 C 41.530361,16.581662 41.61093,4.5677886 43.323794,3.1462383 C 44.291825,2.3428439 44.969854,2.3698535 45.846741,3.2467413 C 46.506276,3.906276 48.577795,4.3139145 50.450117,4.1526046 C 54.631849,3.7923276 56.792867,6.6499981 54.94696,10.099106 C 54.062867,11.751049 53.096756,12.113363 50.411776,11.799907 C 47.229248,11.428365 47,11.594488 47,14.272229 C 47,18.010585 44.951581,20.244091 43.221549,18.392085 z M 63.177833,18.345286 C 62.334871,17.442893 62.010599,14.572534 62.206283,9.7454072 L 62.5,2.5 L 68.486305,2.5 C 73.222533,2.5 74.538106,2.8400936 74.786254,4.1286224 C 75.272199,6.651932 72.095205,9.240711 69.356244,8.5532755 C 67.13756,7.9964213 67,8.2298928 67,12.552377 C 67,17.8277 65.217699,20.528971 63.177833,18.345286 z "
       id="path1986" />
    <path
       style="fill:#f4cbd6"
       d="M 3.6391635,18.502058 C 2.798865,16.312276 2.8135607,5.5197726 3.6579907,4.6753426 C 4.0198856,4.3134477 4.8846233,4.4892827 5.5796299,5.066087 C 6.4725527,5.807147 7.4540361,5.7333975 8.9250952,4.8147059 C 11.609473,3.1382844 14.5,4.7898246 14.5,8 C 14.5,11.158102 11.614311,12.864737 9.0170249,11.242705 C 6.1630855,9.4603905 6.0016584,9.5938669 5.9846872,13.75 C 5.9661026,18.301249 4.6136077,21.041419 3.6391635,18.502058 z M 23.639163,18.502058 C 22.59155,15.772021 22.914748,5.1707224 24.067308,4.4584013 C 24.654327,4.0956034 25.376407,4.7233798 25.67193,5.85346 C 26.114805,7.5470178 26.744513,7.8010975 29.254689,7.2990622 C 31.518156,6.8463687 32.636807,7.1504006 33.611321,8.4831269 C 36.35434,12.234429 30.545584,16.145584 27.2,12.8 C 26.266667,11.866667 25.996597,12.255556 25.984687,14.55 C 25.964503,18.438401 24.537436,20.842919 23.639163,18.502058 z M 43.639163,18.502058 C 42.798865,16.312276 42.813561,5.5197726 43.657991,4.6753426 C 44.019886,4.3134477 44.884623,4.4892827 45.57963,5.066087 C 46.472553,5.807147 47.454036,5.7333975 48.925095,4.8147059 C 51.609473,3.1382844 54.5,4.7898246 54.5,8 C 54.5,11.158102 51.614311,12.864737 49.017025,11.242705 C 46.163086,9.4603905 46.001658,9.5938669 45.984687,13.75 C 45.966103,18.301249 44.613608,21.041419 43.639163,18.502058 z M 63.512588,17.906177 C 62.510579,13.913856 63.344833,3.5 64.666667,3.5 C 65.308333,3.5 66.170833,3.1625 66.583333,2.75 C 67.898441,1.4348923 73.758815,1.9290997 74.324328,3.4028008 C 75.350195,6.0761688 72.5801,8.36602 69.150067,7.6800134 L 66,7.05 L 65.984687,12.275 C 65.96655,18.463896 64.494283,21.817561 63.512588,17.906177 z "
       id="path1984" />
    <path
       style="fill:#fea5ae"
       d="M 3.5191745,17.93242 C 2.6032099,14.282926 3.3175521,4.5 4.5,4.5 C 5.8314551,4.5 6.3605251,16.53336 5.1260555,18.739235 C 4.2708,20.267492 4.0813682,20.172378 3.5191745,17.93242 z M 23.509632,17.894399 C 22.601137,14.274668 23.323866,4.5 24.5,4.5 C 25.05,4.5 25.646179,5.7767653 25.824842,7.3372563 C 26.141147,10.099945 26.201819,10.127331 28.133378,8.3792946 C 30.440127,6.2917155 33.5,7.5008727 33.5,10.5 C 33.5,13.546664 30.434527,14.703216 28.058536,12.552974 C 26.018911,10.707139 25.999859,10.721305 25.984687,14.095012 C 25.976265,15.967756 25.557184,18.15153 25.053395,18.947845 C 24.327702,20.094913 24.006999,19.87607 23.509632,17.894399 z M 43.519174,17.93242 C 42.60321,14.282926 43.317552,4.5 44.5,4.5 C 45.831455,4.5 46.360525,16.53336 45.126055,18.739235 C 44.2708,20.267492 44.081368,20.172378 43.519174,17.93242 z M 63.522131,17.944198 C 62.599002,14.266159 63.327868,3.5 64.5,3.5 C 65.827096,3.5 66.360719,16.533014 65.124097,18.742734 C 64.271089,20.266975 64.081376,20.172408 63.522131,17.944198 z M 8.3885404,9.5701368 C 7.3928718,6.975466 8.7884232,4.830952 11.245529,5.1798632 C 14.450129,5.6349192 14.450129,10.365081 11.245529,10.820137 C 9.89325,11.012162 8.7499435,10.511938 8.3885404,9.5701368 z M 48.38854,9.5701368 C 47.392872,6.975466 48.788423,4.830952 51.245529,5.1798632 C 52.898262,5.4145526 53.5,6.1672724 53.5,8 C 53.5,9.8327276 52.898262,10.585447 51.245529,10.820137 C 49.89325,11.012162 48.749943,10.511938 48.38854,9.5701368 z M 68.010569,6.5127349 C 66.224694,4.3608875 67.527068,2 70.5,2 C 73.472932,2 74.775306,4.3608875 72.989431,6.5127349 C 71.417463,8.4068407 69.582537,8.4068407 68.010569,6.5127349 z "
       id="path1982" />
    <path
       style="fill:#d5b9c2"
       d="M 3.5191745,17.93242 C 2.6032099,14.282926 3.3175521,4.5 4.5,4.5 C 5.8314551,4.5 6.3605251,16.53336 5.1260555,18.739235 C 4.2708,20.267492 4.0813682,20.172378 3.5191745,17.93242 z M 23.648992,18.527671 C 22.659145,15.948172 22.875914,5.1947234 23.930902,4.5427051 C 25.49008,3.57908 26.208383,5.8712643 26.140048,11.592329 C 26.066223,17.77295 24.757531,21.416477 23.648992,18.527671 z M 43.519174,17.93242 C 42.60321,14.282926 43.317552,4.5 44.5,4.5 C 45.831455,4.5 46.360525,16.53336 45.126055,18.739235 C 44.2708,20.267492 44.081368,20.172378 43.519174,17.93242 z M 63.522131,17.944198 C 62.599002,14.266159 63.327868,3.5 64.5,3.5 C 65.827096,3.5 66.360719,16.533014 65.124097,18.742734 C 64.271089,20.266975 64.081376,20.172408 63.522131,17.944198 z M 29.104283,12.084669 C 27.213502,10.888712 28.531721,7.7631694 30.746976,8.1897885 C 31.711139,8.3754694 32.5,9.3837273 32.5,10.430362 C 32.5,12.649101 31.08584,13.338044 29.104283,12.084669 z M 9,8 C 9,6.6666667 9.6666667,6 11,6 C 12.333333,6 13,6.6666667 13,8 C 13,9.3333333 12.333333,10 11,10 C 9.6666667,10 9,9.3333333 9,8 z M 49,8 C 49,6.6666667 49.666667,6 51,6 C 52.333333,6 53,6.6666667 53,8 C 53,9.3333333 52.333333,10 51,10 C 49.666667,10 49,9.3333333 49,8 z M 68.351259,5.4729818 C 67.982635,4.512363 68.303753,3.4216823 69.104283,2.9153311 C 71.08584,1.6619564 72.5,2.3508993 72.5,4.5696383 C 72.5,6.9851746 69.20671,7.7022528 68.351259,5.4729818 z "
       id="path1980" />
    <path
       style="fill:#c2c1c2"
       d="M 3.5191745,17.93242 C 2.6032099,14.282926 3.3175521,4.5 4.5,4.5 C 5.8314551,4.5 6.3605251,16.53336 5.1260555,18.739235 C 4.2708,20.267492 4.0813682,20.172378 3.5191745,17.93242 z M 23.519174,17.93242 C 22.60321,14.282926 23.317552,4.5 24.5,4.5 C 25.831455,4.5 26.360525,16.53336 25.126055,18.739235 C 24.2708,20.267492 24.081368,20.172378 23.519174,17.93242 z M 43.519174,17.93242 C 42.60321,14.282926 43.317552,4.5 44.5,4.5 C 45.831455,4.5 46.360525,16.53336 45.126055,18.739235 C 44.2708,20.267492 44.081368,20.172378 43.519174,17.93242 z M 63.522131,17.944198 C 62.599002,14.266159 63.327868,3.5 64.5,3.5 C 65.827096,3.5 66.360719,16.533014 65.124097,18.742734 C 64.271089,20.266975 64.081376,20.172408 63.522131,17.944198 z M 29.104283,12.084669 C 27.213502,10.888712 28.531721,7.7631694 30.746976,8.1897885 C 31.711139,8.3754694 32.5,9.3837273 32.5,10.430362 C 32.5,12.649101 31.08584,13.338044 29.104283,12.084669 z M 9,8 C 9,6.6666667 9.6666667,6 11,6 C 12.333333,6 13,6.6666667 13,8 C 13,9.3333333 12.333333,10 11,10 C 9.6666667,10 9,9.3333333 9,8 z M 49,8 C 49,6.6666667 49.666667,6 51,6 C 52.333333,6 53,6.6666667 53,8 C 53,9.3333333 52.333333,10 51,10 C 49.666667,10 49,9.3333333 49,8 z M 68.351259,5.4729818 C 67.982635,4.512363 68.303753,3.4216823 69.104283,2.9153311 C 71.08584,1.6619564 72.5,2.3508993 72.5,4.5696383 C 72.5,6.9851746 69.20671,7.7022528 68.351259,5.4729818 z "
       id="path1978" />
    <path
       style="fill:#b0adb0"
       d="M 4.3428103,12.5 C 4.3391781,8.1 4.5120151,6.1756051 4.7268925,8.223567 C 4.94177,10.271529 4.9447418,13.871529 4.7334966,16.223567 C 4.5222514,18.575605 4.3464426,16.9 4.3428103,12.5 z M 24.34281,12.5 C 24.339178,8.1 24.512015,6.1756051 24.726893,8.223567 C 24.94177,10.271529 24.944742,13.871529 24.733497,16.223567 C 24.522251,18.575605 24.346443,16.9 24.34281,12.5 z M 44.34281,12.5 C 44.339178,8.1 44.512015,6.1756051 44.726893,8.223567 C 44.94177,10.271529 44.944742,13.871529 44.733497,16.223567 C 44.522251,18.575605 44.346443,16.9 44.34281,12.5 z M 64.349414,12 C 64.349414,7.325 64.52167,5.4125 64.732205,7.75 C 64.94274,10.0875 64.94274,13.9125 64.732205,16.25 C 64.52167,18.5875 64.349414,16.675 64.349414,12 z M 29.104283,12.084669 C 27.213502,10.888712 28.531721,7.7631694 30.746976,8.1897885 C 31.711139,8.3754694 32.5,9.3837273 32.5,10.430362 C 32.5,12.649101 31.08584,13.338044 29.104283,12.084669 z M 9,8 C 9,6.6666667 9.6666667,6 11,6 C 12.333333,6 13,6.6666667 13,8 C 13,9.3333333 12.333333,10 11,10 C 9.6666667,10 9,9.3333333 9,8 z M 49,8 C 49,6.6666667 49.666667,6 51,6 C 52.333333,6 53,6.6666667 53,8 C 53,9.3333333 52.333333,10 51,10 C 49.666667,10 49,9.3333333 49,8 z M 68.351259,5.4729818 C 67.982635,4.512363 68.303753,3.4216823 69.104283,2.9153311 C 71.08584,1.6619564 72.5,2.3508993 72.5,4.5696383 C 72.5,6.9851746 69.20671,7.7022528 68.351259,5.4729818 z "
       id="path1976" />
    <path
       style="fill:#fe484c"
       d="M 29.104283,12.084669 C 27.213502,10.888712 28.531721,7.7631694 30.746976,8.1897885 C 31.711139,8.3754694 32.5,9.3837273 32.5,10.430362 C 32.5,12.649101 31.08584,13.338044 29.104283,12.084669 z M 9,8 C 9,6.6666667 9.6666667,6 11,6 C 12.333333,6 13,6.6666667 13,8 C 13,9.3333333 12.333333,10 11,10 C 9.6666667,10 9,9.3333333 9,8 z M 49,8 C 49,6.6666667 49.666667,6 51,6 C 52.333333,6 53,6.6666667 53,8 C 53,9.3333333 52.333333,10 51,10 C 49.666667,10 49,9.3333333 49,8 z M 68.351259,5.4729818 C 67.982635,4.512363 68.303753,3.4216823 69.104283,2.9153311 C 71.08584,1.6619564 72.5,2.3508993 72.5,4.5696383 C 72.5,6.9851746 69.20671,7.7022528 68.351259,5.4729818 z "
       id="path1974" />
  </g>
</svg>
