<?xml version="1.0" encoding="UTF-8" standalone="no"?>
<!-- Created with Inkscape (http://www.inkscape.org/) -->
<svg
   xmlns:dc="http://purl.org/dc/elements/1.1/"
   xmlns:cc="http://web.resource.org/cc/"
   xmlns:rdf="http://www.w3.org/1999/02/22-rdf-syntax-ns#"
   xmlns:svg="http://www.w3.org/2000/svg"
   xmlns="http://www.w3.org/2000/svg"
   xmlns:xlink="http://www.w3.org/1999/xlink"
   xmlns:sodipodi="http://sodipodi.sourceforge.net/DTD/sodipodi-0.dtd"
   xmlns:inkscape="http://www.inkscape.org/namespaces/inkscape"
   id="svg92"
   sodipodi:version="0.32"
   inkscape:version="0.44"
   width="80"
   height="20"
   version="1.0"
   sodipodi:docbase="/home/kde4/Developpements/C++/games/ksirk/ksirk/skins/realpol/Images/sprites"
   sodipodi:docname="uk.svg">
  <metadata
     id="metadata97">
    <rdf:RDF>
      <cc:Work
         rdf:about="">
        <dc:format>image/svg+xml</dc:format>
        <dc:type
           rdf:resource="http://purl.org/dc/dcmitype/StillImage" />
      </cc:Work>
    </rdf:RDF>
  </metadata>
  <defs
     id="defs95" />
  <sodipodi:namedview
     inkscape:window-height="593"
     inkscape:window-width="928"
     inkscape:pageshadow="2"
     inkscape:pageopacity="0.0"
     guidetolerance="10.0"
     gridtolerance="10.0"
     objecttolerance="10.0"
     borderopacity="1.0"
     bordercolor="#666666"
     pagecolor="#ffffff"
     id="base"
     inkscape:zoom="10.525"
     inkscape:cx="40"
     inkscape:cy="9.9524941"
     inkscape:window-x="0"
     inkscape:window-y="524"
     inkscape:current-layer="g2213" />
  <g
     id="g2213">
    <path
       style="fill:#e3e3e3"
       d="M 3.1778325,18.345286 C 2.3348709,17.442893 2.0105994,14.572534 2.2062831,9.7454072 L 2.5,2.5 L 10,2.5 L 17.5,2.5 L 17.804791,7.25 L 18.109582,12 L 12.554791,12 C 7.2552007,12 7,12.118138 7,14.571429 C 7,18.098088 4.89158,20.179859 3.1778325,18.345286 z M 23.177833,18.345286 C 22.334871,17.442893 22.010599,14.572534 22.206283,9.7454072 L 22.5,2.5 L 25.585175,2.1989346 C 27.403707,2.021474 29.171894,2.5021939 29.891968,3.3698295 C 30.963519,4.6609699 31.467208,4.6388387 33.992236,3.1896714 C 37.511904,1.1696598 38.224333,1.778235 38.359155,6.9200056 C 38.509232,12.643544 35.181435,15.698155 30.395986,14.229459 C 27.328043,13.28788 27,13.378254 27,15.165029 C 27,18.186923 24.766163,20.0456 23.177833,18.345286 z M 43.177833,18.345286 C 42.334871,17.442893 42.010599,14.572534 42.206283,9.7454072 L 42.5,2.5 L 50,2.5 L 57.5,2.5 L 57.804791,7.25 L 58.109582,12 L 52.554791,12 C 47.255201,12 47,12.118138 47,14.571429 C 47,18.098088 44.89158,20.179859 43.177833,18.345286 z M 63.221549,18.392085 C 61.848659,16.922401 61.506864,3.4228087 62.821965,2.6100316 C 63.274046,2.3306303 65.524046,1.9910941 67.821965,1.8555068 C 70.119884,1.7199195 72,1.246963 72,0.80449223 C 72,0.3620215 72.476558,-1.8735014e-16 73.059017,-4.1633363e-16 C 73.641476,-6.4531713e-16 73.839919,0.45 73.5,1 C 73.149477,1.5671581 73.989616,2 75.440983,2 C 77.845137,2 78,2.3025835 78,7 C 78,12.356246 77.040008,13.117179 73.452608,10.604466 C 71.713132,9.3860893 71.1771,9.4381745 69.230102,11.014758 C 68.003546,12.007963 67,13.793096 67,14.981721 C 67,18.116647 64.810393,20.092948 63.221549,18.392085 z "
       id="path2227" />
    <path
       style="fill:#d8a7ce"
       d="M 3.6235386,18.461341 C 2.4754594,15.469494 2.9394386,4.2875868 4.25,3.3636076 C 5.2942114,2.627412 10.202819,2.4272537 15.75,2.8946721 C 16.524112,2.9599006 17,4.5228415 17,7 C 17,11.257459 17.004422,11.254448 10.528435,11.406655 C 6.7364587,11.495779 6.5287071,11.670069 5.9340582,15.261043 C 5.1984825,19.703048 4.4812462,20.696491 3.6235386,18.461341 z M 23.639163,18.502058 C 23.287624,17.58596 23,13.934106 23,10.386828 C 23,3.0191551 24.378203,1.6107661 28.946972,4.3096043 C 31.420655,5.7708448 31.875885,5.7752346 33.900173,4.3573679 C 36.475258,2.5537081 36.616171,2.6225219 37.491803,6.1113179 C 37.979041,8.0526274 37.531715,9.4328869 35.740397,11.515418 C 33.564704,14.044812 33.039836,14.209537 30.252322,13.237805 C 26.779219,12.027074 26.006702,12.421487 25.984687,15.416667 C 25.976265,16.5625 25.588889,18.100231 25.123851,18.833846 C 24.449369,19.897865 24.149029,19.830748 23.639163,18.502058 z M 43.623539,18.461341 C 42.475459,15.469494 42.939439,4.2875868 44.25,3.3636076 C 45.294211,2.627412 50.202819,2.4272537 55.75,2.8946721 C 56.524112,2.9599006 57,4.5228415 57,7 C 57,11.257459 57.004422,11.254448 50.528435,11.406655 C 46.736459,11.495779 46.528707,11.670069 45.934058,15.261043 C 45.198483,19.703048 44.481246,20.696491 43.623539,18.461341 z M 63.639163,18.502058 C 62.70057,16.056124 62.859615,3.2047967 63.835946,2.601391 C 64.295716,2.3172373 66.320716,1.9737056 68.335946,1.837987 C 70.351176,1.7022685 72,1.2332002 72,0.79561303 C 72,0.35802586 72.476558,-1.8735014e-16 73.059017,-4.1633363e-16 C 73.641476,-6.4531713e-16 73.839919,0.45 73.5,1 C 73.160081,1.55 73.567691,2 74.405799,2 C 76.547541,2 78.167049,5.4862421 77.415794,8.4794806 C 76.672941,11.439243 76.621002,11.453002 73.618157,9.4854624 C 71.501147,8.0983444 71.083452,8.1465161 68.65334,10.058043 C 66.974752,11.378421 65.994375,13.128758 65.984687,14.82258 C 65.96373,18.486943 64.509047,20.768939 63.639163,18.502058 z "
       id="path2225" />
    <path
       style="fill:#da94b1"
       d="M 3.6391635,18.502058 C 2.7473274,16.177971 2.8368297,4.2123965 3.75,3.6843039 C 4.1625,3.4457524 7.0450191,3.4713955 10.155598,3.7412885 C 14.970317,4.1590433 15.872921,4.5548994 16.22635,6.403744 C 16.956257,10.222003 16.057499,11 10.916667,11 C 6.0394659,11 5.9998771,11.026088 5.9846872,14.25 C 5.9651995,18.386088 4.5671895,20.920456 3.6391635,18.502058 z M 23.623539,18.461341 C 22.616885,15.838044 22.909026,4.174259 23.998246,3.5010842 C 24.547281,3.1617619 25.997409,3.5852042 27.220752,4.4420672 C 29.856988,6.2885591 33.141392,6.4586079 34.767217,4.8327826 C 36.509667,3.0903335 37.323191,6.0197452 36.036607,9.4037164 C 35.093259,11.884909 34.579824,12.1226 30.759409,11.846758 C 26.574274,11.544581 26.520475,11.58276 25.91924,15.281636 C 25.201017,19.700234 24.481416,20.696932 23.623539,18.461341 z M 43.639163,18.502058 C 42.747327,16.177971 42.83683,4.2123965 43.75,3.6843039 C 44.1625,3.4457524 47.045019,3.4713955 50.155598,3.7412885 C 54.970317,4.1590433 55.872921,4.5548994 56.22635,6.403744 C 56.956257,10.222003 56.057499,11 50.916667,11 C 46.039466,11 45.999877,11.026088 45.984687,14.25 C 45.9652,18.386088 44.56719,20.920456 43.639163,18.502058 z M 63.512588,17.906177 C 63.168933,16.536945 63.025514,12.804083 63.19388,9.6109291 C 63.495062,3.8988425 63.559903,3.7846718 67.213663,2.532927 C 69.256178,1.8331801 71.168678,1.5020115 71.463663,1.7969967 C 71.758649,2.0919818 72,1.8083333 72,1.1666667 C 72,0.525 72.476558,-1.8735014e-16 73.059017,-4.1633363e-16 C 73.641476,-6.4531713e-16 73.839919,0.45 73.5,1 C 73.160081,1.55 73.369662,2 73.965734,2 C 75.399848,2 77.236514,6.9412707 76.508031,8.8396661 C 76.070851,9.9789406 75.656841,10.056841 74.767217,9.1672174 C 73.113466,7.513466 69.422031,7.720826 67.571429,9.5714286 C 66.707143,10.435714 65.993109,12.573214 65.984687,14.321429 C 65.976265,16.069643 65.557184,18.15153 65.053395,18.947845 C 64.327222,20.095672 64.007941,19.879821 63.512588,17.906177 z "
       id="path2223" />
    <path
       style="fill:#b6b0b4"
       d="M 3.4925478,17.826331 C 3.1599145,16.501014 3.025514,12.735415 3.19388,9.4583321 C 3.4356157,4.7531794 3.8154858,3.5801229 5,3.8809503 C 5.825,4.090473 8.3553671,4.1851959 10.623038,4.0914456 C 14.146107,3.9457946 14.835322,4.2541508 15.359383,6.2104953 C 16.324506,9.813343 16.262383,9.8735814 11.25,10.195209 L 6.5,10.5 L 5.9352392,14.731427 C 5.2495045,19.869243 4.3054832,21.065323 3.4925478,17.826331 z M 23.639163,18.502058 C 22.659723,15.949677 22.880068,4.1921558 23.91938,3.5498258 C 24.425039,3.2373113 25.49568,3.6385368 26.298581,4.4414381 C 28.467793,6.6106499 32.784226,7.4239661 34.512986,5.9892226 C 35.761721,4.9528649 36,5.1566426 36,7.2609239 C 36,10.044954 33.379083,11.424878 28.75,11.078082 C 26.26444,10.891871 25.998528,11.190731 25.984687,14.18603 C 25.965331,18.375075 24.573343,20.93649 23.639163,18.502058 z M 43.492548,17.826331 C 43.159915,16.501014 43.025514,12.735415 43.19388,9.4583321 C 43.435616,4.7531794 43.815486,3.5801229 45,3.8809503 C 45.825,4.090473 48.355367,4.1851959 50.623038,4.0914456 C 54.146107,3.9457946 54.835322,4.2541508 55.359383,6.2104953 C 56.324506,9.813343 56.262383,9.8735814 51.25,10.195209 L 46.5,10.5 L 45.935239,14.731427 C 45.249505,19.869243 44.305483,21.065323 43.492548,17.826331 z M 63.512588,17.906177 C 63.168933,16.536945 63.025514,12.735415 63.19388,9.4583321 C 63.497951,3.5398865 63.521756,3.4979023 66.75,3.1866415 C 68.5375,3.0142943 70,2.3820499 70,1.781654 C 70,1.181258 70.822933,1.4347693 71.828741,2.3450124 C 72.834548,3.2552556 74.184548,4 74.828741,4 C 75.472933,4 76,5.1801001 76,6.6224447 C 76,8.8299457 75.764713,9.0496186 74.512986,8.0107774 C 72.841278,6.6233827 67.968389,7.4537292 66.77533,9.329284 C 66.365742,9.9731778 66.016844,12.075 66,14 C 65.958078,18.791038 64.363257,21.295511 63.512588,17.906177 z M 72,1.059017 C 72,0.47655765 72.45,0 73,0 C 74.281385,0 74.281385,0.70806053 73,1.5 C 72.45,1.8399187 72,1.6414763 72,1.059017 z "
       id="path2221" />
    <path
       style="fill:#d7709c"
       d="M 24.41709,11.083333 C 24.187691,10.854167 24,9.1666667 24,7.3333333 C 24,5.037037 24.466667,4 25.5,4 C 26.325,4 27,4.4142451 27,4.9205447 C 27,6.4711634 32.940013,7.2946738 34.540959,5.9660067 C 35.753662,4.9595531 36,5.1781813 36,7.2609239 C 36,8.9781386 35.291908,9.9948208 33.75,10.491485 C 31.182933,11.318362 25.042172,11.70778 24.41709,11.083333 z M 4,7.5592798 L 4,4.2630651 L 9.3933979,4.138728 C 14.417693,4.0229 14.83164,4.1930639 15.442066,6.6251943 C 15.802464,8.0611361 15.962935,9.3457741 15.798668,9.4799453 C 15.634401,9.6141165 12.9125,9.9785032 9.75,10.289694 L 4,10.855494 L 4,7.5592798 z M 44,7.5592798 L 44,4.2630651 L 49.393398,4.138728 C 54.417693,4.0229 54.83164,4.1930639 55.442066,6.6251943 C 55.802464,8.0611361 55.962935,9.3457741 55.798668,9.4799453 C 55.634401,9.6141165 52.9125,9.9785032 49.75,10.289694 L 44,10.855494 L 44,7.5592798 z M 64.189635,7.25 C 64.459088,3.9943173 64.862499,3.4582899 67.25,3.1835777 C 68.7625,3.0095454 70,2.377301 70,1.7785901 C 70,1.1798792 70.822933,1.4347693 71.828741,2.3450124 C 72.834548,3.2552556 74.184548,4 74.828741,4 C 75.472933,4 76,5.1801001 76,6.6224447 C 76,8.8074045 75.756598,9.0428837 74.540959,8.0339933 C 72.729453,6.5305764 67.382525,7.560772 66.614925,9.5611068 C 65.489553,12.493778 63.882391,10.962282 64.189635,7.25 z M 72,1.059017 C 72,0.47655765 72.45,0 73,0 C 74.281385,0 74.281385,0.70806053 73,1.5 C 72.45,1.8399187 72,1.6414763 72,1.059017 z "
       id="path2219" />
    <path
       style="fill:#ee5569"
       d="M 24.681695,11.348362 C 24.306763,10.973429 24,9.1666667 24,7.3333333 C 24,5.037037 24.466667,4 25.5,4 C 26.473409,4 26.994624,4.9654165 26.984687,6.75 C 26.967381,9.8580437 25.707323,12.373989 24.681695,11.348362 z M 4,7.5833333 C 4,5.0002716 4.4364046,4 5.5633585,4 C 6.7185362,4 7.0449015,4.8284426 6.8133585,7.1729883 C 6.3606175,11.757328 4,12.101638 4,7.5833333 z M 28.666667,10.333333 C 27.290103,8.9567692 28.07281,7 30,7 C 31.333333,7 32,7.6666667 32,9 C 32,10.92719 30.043231,11.709897 28.666667,10.333333 z M 44,7.5833333 C 44,5.0002716 44.436405,4 45.563358,4 C 46.718536,4 47.044901,4.8284426 46.813358,7.1729883 C 46.360618,11.757328 44,12.101638 44,7.5833333 z M 64,7.5833333 C 64,5.0002716 64.436405,4 65.563358,4 C 66.718536,4 67.044901,4.8284426 66.813358,7.1729883 C 66.360618,11.757328 64,12.101638 64,7.5833333 z M 8.3800024,8.5478871 C 7.118214,5.2597192 10.714207,3.7457883 13.063253,6.5762154 C 14.147382,7.8825102 14.125538,8.308003 12.935698,9.0609026 C 10.821565,10.39867 9.0120198,10.194898 8.3800024,8.5478871 z M 48.380002,8.5478871 C 47.118214,5.2597192 50.714207,3.7457883 53.063253,6.5762154 C 54.147382,7.8825102 54.125538,8.308003 52.935698,9.0609026 C 50.821565,10.39867 49.01202,10.194898 48.380002,8.5478871 z M 68.188159,5.2614835 C 68.690171,2.6547472 72,2.364033 72,4.9266758 C 72,6.3577747 71.357775,7 69.926676,7 C 68.495577,7 67.95706,6.4614835 68.188159,5.2614835 z M 72,1.059017 C 72,0.47655765 72.45,0 73,0 C 74.281385,0 74.281385,0.70806053 73,1.5 C 72.45,1.8399187 72,1.6414763 72,1.059017 z "
       id="path2217" />
    <path
       style="fill:#a56b96"
       d="M 24.681695,11.348362 C 24.306763,10.973429 24,9.1666667 24,7.3333333 C 24,5.037037 24.466667,4 25.5,4 C 26.473409,4 26.994624,4.9654165 26.984687,6.75 C 26.967381,9.8580437 25.707323,12.373989 24.681695,11.348362 z M 4,7.5833333 C 4,5.0002716 4.4364046,4 5.5633585,4 C 6.7185362,4 7.0449015,4.8284426 6.8133585,7.1729883 C 6.3606175,11.757328 4,12.101638 4,7.5833333 z M 44,7.5833333 C 44,5.0002716 44.436405,4 45.563358,4 C 46.718536,4 47.044901,4.8284426 46.813358,7.1729883 C 46.360618,11.757328 44,12.101638 44,7.5833333 z M 64,7.5833333 C 64,5.0002716 64.436405,4 65.563358,4 C 66.718536,4 67.044901,4.8284426 66.813358,7.1729883 C 66.360618,11.757328 64,12.101638 64,7.5833333 z M 72,1.059017 C 72,0.47655765 72.45,0 73,0 C 74.281385,0 74.281385,0.70806053 73,1.5 C 72.45,1.8399187 72,1.6414763 72,1.059017 z "
       id="path2215" />
  </g>
</svg>
