<?xml version="1.0" encoding="UTF-8" standalone="no"?>
<!-- Created with Inkscape (http://www.inkscape.org/) -->
<svg
   xmlns:dc="http://purl.org/dc/elements/1.1/"
   xmlns:cc="http://web.resource.org/cc/"
   xmlns:rdf="http://www.w3.org/1999/02/22-rdf-syntax-ns#"
   xmlns:svg="http://www.w3.org/2000/svg"
   xmlns="http://www.w3.org/2000/svg"
   xmlns:xlink="http://www.w3.org/1999/xlink"
   xmlns:sodipodi="http://sodipodi.sourceforge.net/DTD/sodipodi-0.dtd"
   xmlns:inkscape="http://www.inkscape.org/namespaces/inkscape"
   id="svg101"
   sodipodi:version="0.32"
   inkscape:version="0.44"
   width="80"
   height="20"
   version="1.0"
   sodipodi:docbase="/home/kde4/Developpements/C++/games/ksirk/ksirk/skins/realpol/Images/sprites"
   sodipodi:docname="us.svg">
  <metadata
     id="metadata106">
    <rdf:RDF>
      <cc:Work
         rdf:about="">
        <dc:format>image/svg+xml</dc:format>
        <dc:type
           rdf:resource="http://purl.org/dc/dcmitype/StillImage" />
      </cc:Work>
    </rdf:RDF>
  </metadata>
  <defs
     id="defs104" />
  <sodipodi:namedview
     inkscape:window-height="593"
     inkscape:window-width="928"
     inkscape:pageshadow="2"
     inkscape:pageopacity="0.0"
     guidetolerance="10.0"
     gridtolerance="10.0"
     objecttolerance="10.0"
     borderopacity="1.0"
     bordercolor="#666666"
     pagecolor="#ffffff"
     id="base"
     inkscape:zoom="10.525"
     inkscape:cx="40"
     inkscape:cy="9.9524941"
     inkscape:window-x="666"
     inkscape:window-y="0"
     inkscape:current-layer="g1991" />
  <g
     id="g1991">
    <path
       style="fill:#e3e3e3"
       d="M 3.1778325,18.345286 C 2.3348709,17.442893 2.0105994,14.572534 2.2062831,9.7454072 L 2.5,2.5 L 10.25,2.2079357 L 18,1.9158715 L 18,6.3509469 C 18,11.333938 17.165009,12 10.918213,12 C 7.3764287,12 7,12.247041 7,14.571429 C 7,18.098088 4.89158,20.179859 3.1778325,18.345286 z M 23.177833,18.345286 C 22.33512,17.44316 22.010657,14.574648 22.206283,9.756012 C 22.529087,1.8047469 23.796831,0.48294054 28.622894,3.0657709 C 30.45971,4.048805 31.555657,4.0678558 33.566393,3.1517033 C 34.987306,2.5042919 36.56615,2.2318661 37.074936,2.5463128 C 38.563765,3.4664602 38.138336,10.357485 36.443296,12.777494 C 34.846871,15.05671 30.613722,15.80204 29.5,14 C 28.440565,12.285799 27,12.903184 27,15.071429 C 27,18.172563 24.787099,20.068012 23.177833,18.345286 z M 43.177833,18.345286 C 42.334871,17.442893 42.010599,14.572534 42.206283,9.7454072 L 42.5,2.5 L 50.25,2.2079357 L 58,1.9158715 L 58,6.3509469 C 58,11.333938 57.165009,12 50.918213,12 C 47.376429,12 47,12.247041 47,14.571429 C 47,18.098088 44.89158,20.179859 43.177833,18.345286 z M 63.177833,18.345286 C 62.334871,17.442893 62.010599,14.572534 62.206283,9.7454072 L 62.5,2.5 L 66.75,2.1925022 C 69.0875,2.0233784 71,1.4057782 71,0.82005745 C 71,0.18795546 71.687692,0.31293715 72.691958,1.1275553 C 74.085801,2.2581814 74.240303,2.2614794 73.568835,1.1462733 C 73.031252,0.25343063 73.64681,0.37770034 75.376876,1.5112833 C 77.451149,2.8703989 78,4.0305497 78,7.0559929 C 78,11.487486 76.893492,12.54855 73.927526,10.961213 C 72.764932,10.339012 70.730632,10.101775 69.406859,10.434021 C 67.521997,10.907091 67,11.700101 67,14.090481 C 67,18.029653 64.981735,20.27637 63.177833,18.345286 z "
       id="path2005" />
    <path
       style="fill:#fbcdd0"
       d="M 3.6391635,18.502058 C 3.2876236,17.58596 3,13.775653 3,10.03471 L 3,3.232994 L 9.4716229,2.539942 C 13.031015,2.1587634 16.406015,2.1328974 16.971623,2.482462 C 17.53723,2.8320266 18,4.6506436 18,6.5238332 C 18,10.592635 15.960911,12 10.065741,12 C 6.300766,12 5.9988672,12.203433 5.9846872,14.75 C 5.9639514,18.473919 4.5167377,20.78898 3.6391635,18.502058 z M 23.639163,18.502058 C 23.287624,17.58596 23,13.723229 23,9.9182125 C 23,3.3658748 23.121637,3 25.3,3 C 26.565,3 28.127793,3.5277934 28.772874,4.1728743 C 29.67004,5.0700401 30.550863,5.0700401 32.519927,4.1728743 C 36.700599,2.2680327 38,2.6901125 38,5.952947 C 38,9.8875844 36.11588,13.828446 33.898222,14.532303 C 32.909176,14.846214 30.727467,14.393308 29.049979,13.525845 C 26.004504,11.950969 25.999977,11.952739 25.984687,14.72432 C 25.964027,18.469329 24.519436,20.796011 23.639163,18.502058 z M 43.639163,18.502058 C 43.287624,17.58596 43,13.775653 43,10.03471 L 43,3.232994 L 49.471623,2.539942 C 53.031015,2.1587634 56.406015,2.1328974 56.971623,2.482462 C 57.53723,2.8320266 58,4.6506436 58,6.5238332 C 58,10.592635 55.960911,12 50.065741,12 C 46.300766,12 45.998867,12.203433 45.984687,14.75 C 45.963951,18.473919 44.516738,20.78898 43.639163,18.502058 z M 63.639163,18.502058 C 63.287624,17.58596 63,13.728547 63,9.9300301 L 63,3.0236352 L 67,2.3840094 C 69.2,2.0322152 71,1.2967971 71,0.74974706 C 71,0.20269699 71.761381,0.37271069 72.691958,1.1275553 C 74.151316,2.3113238 74.262401,2.2937882 73.5,1 C 72.714296,-0.33333333 72.831856,-0.33333333 74.558042,1 C 77.499697,3.2721823 77.968029,4.206742 77.984687,7.8378978 C 77.99997,11.169201 77.992245,11.174485 74.074864,10.512648 C 68.979741,9.6518327 66.00478,11.222951 65.984687,14.785184 C 65.963846,18.480224 64.513022,20.779297 63.639163,18.502058 z "
       id="path2003" />
    <path
       style="fill:#c1c1c1"
       d="M 3.6235386,18.461341 C 3.2805924,17.567637 3,13.702669 3,9.8725226 L 3,2.9086202 L 9.75,3.2043101 L 16.5,3.5 L 16.5,6.5 C 16.5,9.3666667 16.277778,9.5222222 11.5,10 L 6.5,10.5 L 5.9352392,14.731427 C 5.2895809,19.568974 4.5231297,20.805637 3.6235386,18.461341 z M 23.639163,18.502058 C 23.287624,17.58596 23,13.723229 23,9.9182125 C 23,3.6268004 23.184391,3 25.035183,3 C 26.154534,3 28.149358,3.7069824 29.468126,4.571072 C 31.297018,5.7694085 32.341894,5.8873915 33.872254,5.0683677 C 36.438262,3.6950816 37.365146,5.0610149 36.509818,8.9553009 C 35.549302,13.328501 33.542931,14.596173 30.220386,12.929109 C 28.724174,12.178395 27.1625,11.399735 26.75,11.198754 C 26.3375,10.997773 25.993109,12.333333 25.984687,14.166667 C 25.96537,18.371751 24.575192,20.94131 23.639163,18.502058 z M 43.623539,18.461341 C 43.280592,17.567637 43,13.702669 43,9.8725226 L 43,2.9086202 L 49.75,3.2043101 L 56.5,3.5 L 56.5,6.5 C 56.5,9.3666667 56.277778,9.5222222 51.5,10 L 46.5,10.5 L 45.935239,14.731427 C 45.289581,19.568974 44.52313,20.805637 43.623539,18.461341 z M 63.639163,18.502058 C 63.287624,17.58596 63,13.728547 63,9.9300301 L 63,3.0236352 L 67,2.3840094 C 69.2,2.0322152 71,1.2967971 71,0.74974706 C 71,0.20269699 71.761381,0.37271069 72.691958,1.1275553 C 74.150045,2.3102929 74.268799,2.2926615 73.551092,1 C 72.897475,-0.17722715 73.090484,-0.15040886 74.44805,1.1246308 C 76.700124,3.2398028 77.144123,9.66605 75,9.1133118 C 70.371201,7.9200438 69.161574,7.9812836 67.657834,9.4850233 C 66.746025,10.396832 65.993109,12.573214 65.984687,14.321429 C 65.965046,18.398443 64.560241,20.902348 63.639163,18.502058 z "
       id="path2001" />
    <path
       style="fill:#a999de"
       d="M 4.4080153,12 L 4.5,3.5 L 10.5,3.5 C 16.5,3.5 16.5,3.5 16.5,6.5 C 16.5,9.210487 16.162235,9.5260507 13,9.7699433 C 5.5370285,10.345537 5.1408236,10.631688 4.7125878,15.755355 C 4.4944813,18.36491 4.3574237,16.675 4.4080153,12 z M 24.180248,11.75 C 24.02407,4.1684807 24.223181,3 25.671259,3 C 26.590452,3 28.16728,3.7463988 29.175322,4.658664 C 30.65698,5.999546 31.479478,6.1025654 33.468351,5.1963739 C 36.481168,3.8236428 37.390172,4.9470744 36.509818,8.9553009 C 35.495793,13.572127 33.383255,14.756506 29.815082,12.708656 C 25.531206,10.250048 25.150757,10.477817 24.735039,15.75 C 24.510798,18.593857 24.288164,16.988684 24.180248,11.75 z M 44.408015,12 L 44.5,3.5 L 50.5,3.5 C 56.5,3.5 56.5,3.5 56.5,6.5 C 56.5,9.210487 56.162235,9.5260507 53,9.7699433 C 45.537028,10.345537 45.140824,10.631688 44.712588,15.755355 C 44.494481,18.36491 44.357424,16.675 44.408015,12 z M 64.180248,12.45 C 63.98682,3.811364 64.770257,2 68.7,2 C 69.965,2 71,1.4948999 71,0.87755528 C 71,0.14613418 71.589424,0.23322613 72.691958,1.1275553 C 74.151316,2.3113238 74.262401,2.2937882 73.5,1 C 72.748621,-0.27508346 72.860145,-0.30220868 74.243763,0.81909806 C 76.017829,2.25683 77.496869,7.3870328 76.569773,8.887105 C 76.217479,9.4571288 74.859689,9.3958524 73.096606,8.7303628 C 68.454795,6.978275 65.21124,9.6963337 64.735579,15.736799 C 64.483213,18.941614 64.301524,17.866265 64.180248,12.45 z "
       id="path1999" />
    <path
       style="fill:#fc8a92"
       d="M 4.2479285,12 C 4.1570914,5.1408944 4.3483237,3.9421576 5.2385311,5.7904213 C 6.6084216,8.6346109 9.3880062,8.2661586 9.8271001,5.1821762 C 10.101239,3.2567547 10.667925,2.9345886 13.3271,3.1923919 C 16.11752,3.4629191 16.5,3.8616373 16.5,6.5 C 16.5,9.210487 16.162235,9.5260507 13,9.7699433 C 5.5300273,10.346077 5.1392546,10.629064 4.7348207,15.755355 C 4.520623,18.47036 4.3123427,16.863913 4.2479285,12 z M 24.220286,12 C 24.087327,3.9396269 24.157238,3.6422322 25.571975,6.25 C 27.097461,9.0619089 30,10.024984 30,7.7192376 C 30,6.1027644 35.767454,3.8147155 36.569773,5.112895 C 37.473384,6.5749685 36.037859,11.723691 34.331843,13.139558 C 33.068243,14.188253 32.258537,14.111007 29.815082,12.708656 C 25.531206,10.250048 25.150757,10.477817 24.735039,15.75 C 24.512271,18.575177 24.30368,17.05558 24.220286,12 z M 44.247929,12 C 44.157091,5.1408944 44.348324,3.9421576 45.238531,5.7904213 C 46.608422,8.6346109 49.388006,8.2661586 49.8271,5.1821762 C 50.101239,3.2567547 50.667925,2.9345886 53.3271,3.1923919 C 56.11752,3.4629191 56.5,3.8616373 56.5,6.5 C 56.5,9.210487 56.162235,9.5260507 53,9.7699433 C 45.530027,10.346077 45.139255,10.629064 44.734821,15.755355 C 44.520623,18.47036 44.312343,16.863913 44.247929,12 z M 64.247929,12 C 64.158261,5.2292335 64.356119,3.9577383 65.220495,5.75 C 65.817318,6.9875 66.631762,8 67.03037,8 C 68.359547,8 70.181251,5.1022871 69.522332,4.0361341 C 69.164916,3.4578225 69.515104,2.3420389 70.300528,1.5566149 C 71.407008,0.45013454 72.017343,0.39556748 73.01099,1.3142857 C 74.023427,2.2503768 74.116849,2.1842117 73.454746,1 C 72.742665,-0.27360021 72.861754,-0.30090431 74.243763,0.81909806 C 76.017829,2.25683 77.496869,7.3870328 76.569773,8.887105 C 76.217479,9.4571288 74.859689,9.3958524 73.096606,8.7303628 C 68.454795,6.978275 65.21124,9.6963337 64.735579,15.736799 C 64.519098,18.485901 64.312898,16.905811 64.247929,12 z "
       id="path1997" />
    <path
       style="fill:#f87986"
       d="M 4.2277174,12 C 4.1524293,5.0709144 4.3415699,3.9285192 5.2511307,5.818658 C 5.9900611,7.3542134 6.9808876,7.9767549 8.1848303,7.6619168 C 9.1846916,7.4004472 9.7505812,7.5945511 9.4423629,8.0932588 C 9.1341446,8.5919664 8.2420971,9 7.460035,9 C 5.9891409,9 5.2981541,10.988412 4.6799804,17 C 4.482032,18.925 4.2785136,16.675 4.2277174,12 z M 24.214745,12 C 24.085602,3.8488468 24.142742,3.6156058 25.607001,6.3168505 C 26.646853,8.2351531 26.815509,9.5173722 26.135719,10.336469 C 25.586704,10.997992 24.960188,13.555409 24.743462,16.019619 C 24.520344,18.556504 24.290998,16.812877 24.214745,12 z M 44.227717,12 C 44.152429,5.0709144 44.34157,3.9285192 45.251131,5.818658 C 45.990061,7.3542134 46.980888,7.9767549 48.18483,7.6619168 C 49.184692,7.4004472 49.750581,7.5945511 49.442363,8.0932588 C 49.134145,8.5919664 48.242097,9 47.460035,9 C 45.989141,9 45.298154,10.988412 44.67998,17 C 44.482032,18.925 44.278514,16.675 44.227717,12 z M 64.176233,12 C 64.08047,4.2744137 64.19631,3.7266255 65.447699,5.9874515 C 66.204955,7.3555498 66.534526,8.9305498 66.180079,9.4874515 C 65.825632,10.044353 65.253472,12.75 64.908613,15.5 C 64.374681,19.757713 64.265954,19.238112 64.176233,12 z M 30.059995,11.329468 C 28.016924,9.898446 27.942161,9.6118725 29.399177,8.7964851 C 30.302765,8.2908118 30.850782,7.5672364 30.616992,7.1885396 C 30.383201,6.8098428 31.273737,6.435104 32.595959,6.3557867 C 34.471518,6.2432759 35,6.7109781 35,8.483342 C 35,11.999931 32.814721,13.258954 30.059995,11.329468 z M 10.707975,6.9912976 C 10.112956,4.7159398 11.965063,3.3888799 14.420595,4.3311557 C 16.498376,5.1284753 15.658546,8.449381 13.289835,8.8024691 C 11.917955,9.0069663 11.081672,8.4203148 10.707975,6.9912976 z M 50.707975,6.9912976 C 50.112956,4.7159398 51.965063,3.3888799 54.420595,4.3311557 C 56.498376,5.1284753 55.658546,8.449381 53.289835,8.8024691 C 51.917955,9.0069663 51.081672,8.4203148 50.707975,6.9912976 z M 69.175843,6.2938049 C 69.723828,5.6303976 69.879748,4.6144457 69.522332,4.0361341 C 68.729666,2.7535738 70.95525,0.44344827 72.951996,0.47619048 C 73.879718,0.49140306 74.529829,1.7916007 74.752501,4.0771311 C 75.092812,7.5701091 75.019595,7.6524477 71.640258,7.5771311 C 69.059863,7.5196208 68.432957,7.1931645 69.175843,6.2938049 z "
       id="path1995" />
    <path
       style="fill:#a89eab"
       d="M 4.2277174,12 C 4.1524293,5.0709144 4.3415699,3.9285192 5.2511307,5.818658 C 5.9900611,7.3542134 6.9808876,7.9767549 8.1848303,7.6619168 C 9.1846916,7.4004472 9.7505812,7.5945511 9.4423629,8.0932588 C 9.1341446,8.5919664 8.2420971,9 7.460035,9 C 5.9891409,9 5.2981541,10.988412 4.6799804,17 C 4.482032,18.925 4.2785136,16.675 4.2277174,12 z M 24.176233,12 C 24.08047,4.2744137 24.19631,3.7266255 25.447699,5.9874515 C 26.204955,7.3555498 26.534526,8.9305498 26.180079,9.4874515 C 25.825632,10.044353 25.253472,12.75 24.908613,15.5 C 24.374681,19.757713 24.265954,19.238112 24.176233,12 z M 44.227717,12 C 44.152429,5.0709144 44.34157,3.9285192 45.251131,5.818658 C 45.990061,7.3542134 46.980888,7.9767549 48.18483,7.6619168 C 49.184692,7.4004472 49.750581,7.5945511 49.442363,8.0932588 C 49.134145,8.5919664 48.242097,9 47.460035,9 C 45.989141,9 45.298154,10.988412 44.67998,17 C 44.482032,18.925 44.278514,16.675 44.227717,12 z M 64.176233,12 C 64.08047,4.2744137 64.19631,3.7266255 65.447699,5.9874515 C 66.204955,7.3555498 66.534526,8.9305498 66.180079,9.4874515 C 65.825632,10.044353 65.253472,12.75 64.908613,15.5 C 64.374681,19.757713 64.265954,19.238112 64.176233,12 z "
       id="path1993" />
  </g>
</svg>
