<?xml version="1.0" encoding="UTF-8" standalone="no"?>
<!-- Created with Inkscape (http://www.inkscape.org/) -->
<svg
   xmlns:dc="http://purl.org/dc/elements/1.1/"
   xmlns:cc="http://web.resource.org/cc/"
   xmlns:rdf="http://www.w3.org/1999/02/22-rdf-syntax-ns#"
   xmlns:svg="http://www.w3.org/2000/svg"
   xmlns="http://www.w3.org/2000/svg"
   xmlns:xlink="http://www.w3.org/1999/xlink"
   xmlns:sodipodi="http://sodipodi.sourceforge.net/DTD/sodipodi-0.dtd"
   xmlns:inkscape="http://www.inkscape.org/namespaces/inkscape"
   id="svg2"
   sodipodi:version="0.32"
   inkscape:version="0.44"
   width="20"
   height="20"
   version="1.0"
   sodipodi:docbase="/home/kde4/Developpements/C++/ksirk/ksirk/skins/default/Images"
   sodipodi:docname="annuler.svg">
  <metadata
     id="metadata7">
    <rdf:RDF>
      <cc:Work
         rdf:about="">
        <dc:format>image/svg+xml</dc:format>
        <dc:type
           rdf:resource="http://purl.org/dc/dcmitype/StillImage" />
      </cc:Work>
    </rdf:RDF>
  </metadata>
  <defs
     id="defs5" />
  <sodipodi:namedview
     inkscape:window-height="582"
     inkscape:window-width="928"
     inkscape:pageshadow="2"
     inkscape:pageopacity="0.0"
     guidetolerance="10.0"
     gridtolerance="10.0"
     objecttolerance="10.0"
     borderopacity="1.0"
     bordercolor="#666666"
     pagecolor="#ffffff"
     id="base"
     inkscape:zoom="18.95"
     inkscape:cx="10"
     inkscape:cy="9.9736148"
     inkscape:window-x="666"
     inkscape:window-y="0"
     inkscape:current-layer="svg2" />
  <g
     id="g1945">
    <path
       style="fill:#f2fbfd"
       d="M 6.1048161,16.915131 C 4.787465,16.388178 3.9614241,15.705243 4.2691698,15.397497 C 4.5769154,15.089751 5.7080808,15.308586 6.7828707,15.883796 C 7.8576606,16.459006 9.0212015,16.645465 9.3685171,16.29815 C 9.7158327,15.950834 10,16.191667 10,16.833333 C 10,18.199881 9.3507012,18.213516 6.1048161,16.915131 z M 11.733333,16.875912 C 12.411667,16.192494 13.218574,15.885241 13.526461,16.193128 C 13.834349,16.501015 13.279349,17.060176 12.293128,17.435707 C 10.86793,17.978392 10.753066,17.863528 11.733333,16.875912 z M 2.6666667,13.333333 C 1.6405052,12.307172 1.8771923,8 2.9597433,8 C 3.6421735,8 4.0978593,13.981768 3.4166667,13.998013 C 3.3708333,13.999106 3.0333333,13.7 2.6666667,13.333333 z M 12.6,12.4 C 12.244108,11.472559 12.177923,10.488744 12.452923,10.213744 C 12.727923,9.9387439 13.244108,10.472559 13.6,11.4 C 13.955892,12.327441 14.022077,13.311256 13.747077,13.586256 C 13.472077,13.861256 12.955892,13.327441 12.6,12.4 z M 6.6841489,12.25 C 6.445512,11.8375 6.612326,10.6 7.0548466,9.5 C 7.757247,7.7540011 7.8683557,7.8492515 7.9297147,10.25 C 7.9990544,12.963003 7.5312147,13.714211 6.6841489,12.25 z M 16.428571,8 C 16.428571,6.7047619 16.766667,6.3666667 17.414286,7.0142857 C 18.061905,7.6619048 18.061905,8.3380952 17.414286,8.9857143 C 16.766667,9.6333333 16.428571,9.2952381 16.428571,8 z M 13.44113,3.4448338 C 11.577105,1.9514416 11.589374,1.9329783 13.75,2.9800175 C 14.9875,3.57971 16,4.2795348 16,4.5351838 C 16,5.3004038 15.481392,5.0794218 13.44113,3.4448338 z "
       id="path1961" />
    <path
       style="fill:#eaf8fd"
       d="M 10,16.833333 C 10,15.753329 11.729515,15.753329 12.396994,16.833333 C 12.68026,17.291667 12.256818,17.666667 11.456011,17.666667 C 10.655205,17.666667 10,17.291667 10,16.833333 z M 13.666773,16.33344 C 13.366287,16.032954 13.988585,14.855252 15.049657,13.716324 C 16.11073,12.577397 17.283632,11.950299 17.656107,12.322773 C 18.028581,12.695248 17.781776,13 17.10765,13 C 16.433524,13 16.086291,13.3375 16.336023,13.75 C 16.900159,14.681827 14.417758,17.084425 13.666773,16.33344 z M 3.2749532,13 C 3.1093294,10.80129 3.7470655,10.554421 5.9664615,11.95811 C 6.9063612,12.552563 7.9835703,12.476963 8.9664615,11.747566 C 10.021539,10.964599 9.9696623,11.189643 8.8001884,12.468866 C 7.3767712,14.025862 6.8445891,14.11591 5.5272962,13.022654 C 4.1921182,11.914555 4.0494748,11.965354 4.5840966,13.358556 C 4.9305312,14.26135 4.8115946,15 4.3197931,15 C 3.8279916,15 3.3578137,14.1 3.2749532,13 z M 6.3074176,9.6071833 C 6.7684866,5.0755175 13.081203,5.0755175 13.800398,9.6071833 C 14.061423,11.251906 13.85943,11.198696 12.259302,9.2012207 C 10.24584,6.6877691 7.4649594,7.0000592 6.6143445,9.8351439 C 6.2333904,11.104857 6.1605433,11.050753 6.3074176,9.6071833 z M 16.118421,10.25 C 16.978492,4.8028853 8.9766024,1.6686345 5.2679717,6 C 3.0490412,8.5915222 1.6146585,8.5898921 3.2335168,5.997688 C 3.9212723,4.8964163 5.9058368,3.5261213 7.64366,2.9525879 C 10.210544,2.1054398 11.337721,2.2475011 13.651669,3.7097943 C 15.218251,4.6997912 16.579159,5.9575862 16.675908,6.5048943 C 16.772658,7.0522024 17.158303,8.2875 17.532897,9.25 C 17.931009,10.272927 17.754056,11 17.106989,11 C 16.498145,11 16.053289,10.6625 16.118421,10.25 z "
       id="path1959" />
    <path
       style="fill:#a4b9c5"
       d="M 2,19.225684 C 2,18.616476 2.4573404,17.835382 3.0163119,17.489919 C 3.5752834,17.144455 3.7307546,16.373369 3.3618034,15.776393 C 2.9517607,15.11293 3.1586686,14.980029 3.8940498,15.434519 C 4.8249555,16.009851 4.8108112,16.553805 3.831526,17.839028 C 3.1354511,18.752562 2.4385999,19.6875 2.2829677,19.916667 C 2.1273354,20.145833 2,19.834891 2,19.225684 z M 5.0176883,18.478687 C 5.8156476,17.517205 6.6680846,17.307851 7.3826787,17.897857 C 8.0768619,18.471012 9.9201534,18.330954 12.25,17.528026 C 16.139132,16.187728 16.6431,16.457483 15,19 C 14.138334,20.333333 14.027223,20.333333 14,19 C 13.981974,18.11712 13.667114,17.911413 13.234687,18.5 C 12.830609,19.05 10.535754,19.608458 8.1350096,19.741018 C 4.3504735,19.949986 3.9359337,19.782121 5.0176883,18.478687 z M 1.4271599e-17,18.059017 C 2.2120978e-17,17.541476 0.44484552,16.843104 0.9885456,16.507079 C 1.5554057,16.15674 1.7230531,16.558137 1.3815568,17.448062 C 0.71676593,19.180479 -7.5446568e-18,19.497449 1.4271599e-17,18.059017 z M 17,15.212013 C 17,14.813144 17.416847,13.033335 17.926327,11.256883 C 18.501752,9.250493 18.495573,7.8062809 17.910015,7.4443863 C 17.391564,7.1239657 17.226274,6.4428976 17.542705,5.9309017 C 17.859136,5.4189058 17.566476,5 16.89235,5 C 16.218224,5 15.950834,4.7158327 16.29815,4.3685171 C 16.645465,4.0212015 16.421791,2.7837015 15.801096,1.6185171 C 14.784275,-0.29028668 14.837253,-0.36414084 16.33628,0.87244472 C 17.251326,1.6272893 18,2.8647893 18,3.6224447 C 18,4.3801001 18.5625,5.0355263 19.25,5.0789474 C 20.243357,5.1416857 20.242078,5.2618788 19.243769,5.6643576 C 18.552843,5.9429121 18.317106,6.6948858 18.719911,7.3354102 C 20.111774,9.548698 19.927322,14.813912 18.4379,15.385456 C 17.647055,15.688932 17,15.610883 17,15.212013 z M 0.58996595,7.8647528 C 0.63944722,6.2451762 1.2019472,4.3980528 1.839966,3.760034 C 3.3412707,2.2587293 3.3453301,0.6685403 1.8454915,1.5954915 C 1.1629663,2.0173153 0.96119115,1.871811 1.3519335,1.2395766 C 2.0980615,0.032316171 9.6138407,0.23972272 10.756442,1.4991048 C 11.165399,1.9498595 10.635977,2.0067193 9.5799496,1.6254598 C 8.4247836,1.2084082 7.3353749,1.4437118 6.8452624,2.2161303 C 6.2078597,3.2206786 6.0272941,3.1870235 6.0153128,2.0614386 C 6.0049635,1.0891754 5.2773985,1.3984987 3.7707263,3.0157215 C 2.5340383,4.3431503 1.6698287,6.388209 1.8297757,7.6087715 C 1.9883533,8.8188845 1.7540265,10.034081 1.3090493,10.309207 C 0.8640722,10.584334 0.54048468,9.4843295 0.58996595,7.8647528 z M 13,1.5 C 12.282451,0.63540693 12.185262,-2.8551458e-16 12.770566,-2.4264445e-16 C 13.329067,-2.017375e-16 14.045044,0.675 14.361626,1.5 C 15.094934,3.4109698 14.585964,3.4109698 13,1.5 z M 18.564293,1.2931281 C 18.021608,-0.13207038 18.136472,-0.24693394 19.124088,0.73333333 C 19.807506,1.4116667 20.114759,2.2185743 19.806872,2.5264614 C 19.498985,2.8343485 18.939824,2.2793485 18.564293,1.2931281 z "
       id="path1957" />
    <path
       style="fill:#9bb6c4"
       d="M 1.3336015,17.57285 C 1.9635888,16.237917 2.6373383,15.304005 2.8308227,15.497489 C 3.4514728,16.118139 1.8960378,20 1.0266973,20 C 0.5655073,20 0.70361417,18.907782 1.3336015,17.57285 z M 15.393011,18.418213 C 15.726855,17.548229 16,16.518991 16,16.131017 C 16,15.743042 16.9,15.357814 18,15.274953 C 19.494269,15.162393 20,15.740746 20,17.562149 C 20,19.522536 19.48941,20 17.393011,20 C 15.426621,20 14.935174,19.611318 15.393011,18.418213 z M 1.25,4.3377193 C 0.5625,4.060307 0.035526316,2.8583333 0.078947368,1.6666667 C 0.12236842,0.475 0.38580301,0.065303765 0.66435757,0.75623059 C 0.94291212,1.4471574 1.5772313,1.7612854 2.0739558,1.4542928 C 2.5706803,1.1473002 2.6791218,1.6726204 2.3149369,2.6216709 C 1.8018228,3.9588247 2.0411753,4.1981772 3.3783291,3.6850631 C 4.4051484,3.2910356 4.8564811,3.4232015 4.4929208,4.0114544 C 3.838247,5.0707389 3.2206112,5.1328782 1.25,4.3377193 z M 18.118421,4.25 C 18.587002,1.2823234 16.607595,-0.37312235 15.727033,2.25 C 15.485707,2.9688894 15.354019,2.8626673 15.417097,2 C 15.477421,1.175 16.420752,0.45439818 17.513388,0.39866261 C 18.923997,0.32670721 19.541814,0.97907721 19.644213,2.6486626 C 19.723531,3.9418982 19.386031,5 18.894213,5 C 18.402396,5 18.053289,4.6625 18.118421,4.25 z "
       id="path1955" />
    <path
       style="fill:#99b3bb"
       d="M 3,19.059017 C 3,18.476558 3.45,18 4,18 C 5.281385,18 5.281385,18.708061 4,19.5 C 3.45,19.839919 3,19.641476 3,19.059017 z M 1.5642929,14.706872 C 1.9398243,13.720651 2.4989848,13.165651 2.8068719,13.473539 C 3.114759,13.781426 2.8075061,14.588333 2.1240877,15.266667 C 1.1364719,16.246934 1.0216083,16.13207 1.5642929,14.706872 z M 0.33333333,10.543989 C 0.33333333,9.7431824 0.70833333,9.3197401 1.1666667,9.6030057 C 2.246671,10.270485 2.246671,12 1.1666667,12 C 0.70833333,12 0.33333333,11.344795 0.33333333,10.543989 z "
       id="path1953" />
    <path
       style="fill:#94abb5"
       d="M 4,2.6224447 C 4,2.4147893 4.6853015,1.6761397 5.5228922,0.98100118 C 6.7962391,-0.075782863 6.9425703,-0.013915612 6.4159034,1.3585565 C 5.8780067,2.7602928 4,3.7427785 4,2.6224447 z "
       id="path1951" />
    <path
       style="fill:#0707cb"
       d="M 8.5157131,15.025424 C 8.2141278,14.537449 8.4263682,13.854524 8.9873585,13.507813 C 9.5483487,13.161102 9.7171803,11.721338 9.3625398,10.308338 C 8.8986078,8.4598852 9.0773612,7.8591204 9.9997992,8.1665997 C 11.87953,8.7931768 12.298847,14.671344 10.512706,15.356751 C 9.7159451,15.662496 8.8172984,15.5134 8.5157131,15.025424 z M 14,9.559017 C 14,7.8024909 14.600055,7.5438584 15.457295,8.9309017 C 15.773726,9.4428976 15.575283,10.144455 15.016312,10.489919 C 14.45734,10.835382 14,10.416476 14,9.559017 z M 8.9093162,5.0772074 C 9.6844401,4.5865155 10.92194,4.4165512 11.659316,4.699509 C 13.773944,5.5109678 13.236233,6.0013154 10.25,5.9846872 C 8.2486128,5.9735429 7.8836481,5.7265062 8.9093162,5.0772074 z "
       id="path1949" />
    <path
       style="fill:#0706b9"
       d="M 6.1581766,15.11892 C 4.0227932,13.765504 3.5964579,7.5463992 5.5080189,5.6348382 C 6.40718,4.7356772 7.7813099,4 8.5616411,4 C 9.7012284,4 9.6520698,4.383491 8.3118337,5.9487728 C 7.3941085,7.0205979 6.3860129,7.7384744 6.0716212,7.544054 C 5.7572295,7.3496336 5.5432023,8.6101859 5.5960051,10.345281 C 5.6567498,12.341347 6.207664,13.5 7.0960051,13.5 C 8.0263394,13.5 8.3957372,12.604465 8.1909507,10.845511 C 7.8391865,7.8241362 9.6031891,6.1986486 11.337132,7.9463779 C 12.22423,8.8405285 12.049925,8.947039 10.602123,8.3955111 C 8.9675229,7.772824 8.7755168,8.0453598 9.2180136,10.360133 C 9.5005858,11.838314 9.3347901,13.293088 8.8495787,13.592965 C 8.3643673,13.892843 8.2262742,14.557102 8.5427051,15.069098 C 9.2577099,16.226 7.9480705,16.253364 6.1581766,15.11892 z M 11.75,14.779505 C 12.9875,14.182682 14,13.114695 14,12.406203 C 14,11.69771 14.45,10.839919 15,10.5 C 16.612982,9.5031226 16.146422,12.710721 14.428571,14.428571 C 13.564286,15.292857 12.101786,15.969544 11.178571,15.93232 C 9.9180592,15.881496 10.060377,15.59438 11.75,14.779505 z M 13.44113,7.5318034 C 12.373508,6.7242952 11.95,6.0424045 12.5,6.0164906 C 13.05,5.9905767 12.825,5.5331559 12,5 C 11.1207,4.4317528 10.987693,4.0242891 11.678571,4.0153128 C 13.07355,3.9971883 16,6.7439701 16,8.0714286 C 16,9.3127319 15.716755,9.253 13.44113,7.5318034 z "
       id="path1947" />
  </g>
</svg>
