<?xml version="1.0" encoding="UTF-8" standalone="no"?>
<!-- Created with Inkscape (http://www.inkscape.org/) -->
<svg
   xmlns:dc="http://purl.org/dc/elements/1.1/"
   xmlns:cc="http://web.resource.org/cc/"
   xmlns:rdf="http://www.w3.org/1999/02/22-rdf-syntax-ns#"
   xmlns:svg="http://www.w3.org/2000/svg"
   xmlns="http://www.w3.org/2000/svg"
   xmlns:xlink="http://www.w3.org/1999/xlink"
   xmlns:sodipodi="http://sodipodi.sourceforge.net/DTD/sodipodi-0.dtd"
   xmlns:inkscape="http://www.inkscape.org/namespaces/inkscape"
   id="svg29"
   sodipodi:version="0.32"
   inkscape:version="0.44"
   width="20"
   height="20"
   version="1.0"
   sodipodi:docbase="/home/kde4/Developpements/C++/ksirk/ksirk/skins/default/Images"
   sodipodi:docname="bluedice4.svg">
  <metadata
     id="metadata34">
    <rdf:RDF>
      <cc:Work
         rdf:about="">
        <dc:format>image/svg+xml</dc:format>
        <dc:type
           rdf:resource="http://purl.org/dc/dcmitype/StillImage" />
      </cc:Work>
    </rdf:RDF>
  </metadata>
  <defs
     id="defs32" />
  <sodipodi:namedview
     inkscape:window-height="582"
     inkscape:window-width="928"
     inkscape:pageshadow="2"
     inkscape:pageopacity="0.0"
     guidetolerance="10.0"
     gridtolerance="10.0"
     objecttolerance="10.0"
     borderopacity="1.0"
     bordercolor="#666666"
     pagecolor="#ffffff"
     id="base"
     inkscape:zoom="18.95"
     inkscape:cx="10"
     inkscape:cy="9.9736148"
     inkscape:window-x="0"
     inkscape:window-y="543"
     inkscape:current-layer="svg29" />
  <g
     id="g1954">
    <path
       style="fill:#fefefe"
       d="M 0.090188267,16.25 L 0.18037653,12.5 L 1.153967,15.88579 L 2.1275574,19.27158 L 8.2106287,18.635774 C 11.556318,18.28608 15.577618,17.359464 17.14685,16.576628 C 19.891041,15.207645 20,15.245835 20,17.576645 C 20,19.979561 19.91566,20 10,20 L 0,20 L 0.090188267,16.25 z M 17.909163,7.75 C 16.626826,2.1789073 16.184141,1.4666614 13.833818,1.1930863 C 12.383611,1.0242837 8.6777358,1.5440643 5.5985393,2.3481542 C 0.24804949,3.7453612 -2.2289304e-15,3.7257297 -1.1397133e-15,1.9050679 C -9.4912031e-17,0.15864855 0.83277109,0 10,0 L 20,0 L 20,7 C 20,10.85 19.853248,14 19.673884,14 C 19.49452,14 18.700396,11.1875 17.909163,7.75 z "
       id="path1970" />
    <path
       style="fill:#a0cacb"
       d="M 1.0525809,15.25 C 0.47979603,13.1875 0.056835733,10.6 0.11266912,9.5 C 0.16850251,8.4 0.66073719,9.525 1.206524,12 C 1.7523107,14.475 2.6592194,17.0625 3.2218765,17.75 C 3.9251288,18.609291 3.9087415,19 3.1694487,19 C 2.5779563,19 1.6253658,17.3125 1.0525809,15.25 z M 7.2708333,18.395833 C 7.603125,18.063542 8.465625,18.028015 9.1875,18.316886 C 9.9852327,18.636112 9.7482763,18.873069 8.5833333,18.921053 C 7.5291667,18.964474 6.9385417,18.728125 7.2708333,18.395833 z M 12.270833,17.395833 C 12.603125,17.063542 13.465625,17.028015 14.1875,17.316886 C 14.985233,17.636112 14.748276,17.873069 13.583333,17.921053 C 12.529167,17.964474 11.938542,17.728125 12.270833,17.395833 z M 18.513239,13.75 C 17.123765,9.6535884 15.244753,0.85903113 15.918981,1.6077979 C 16.826683,2.6158484 20.005872,15 19.356951,15 C 19.126105,15 18.746434,14.4375 18.513239,13.75 z M 0.73333333,3.8759123 C 1.4116667,3.1924939 2.2185743,2.885241 2.5264614,3.1931281 C 2.8343485,3.5010152 2.2793485,4.0601757 1.2931281,4.4357071 C -0.13207038,4.9783917 -0.24693394,4.8635281 0.73333333,3.8759123 z M 9.2708333,1.3958333 C 9.603125,1.0635417 10.465625,1.0280154 11.1875,1.316886 C 11.985233,1.6361123 11.748276,1.8730687 10.583333,1.9210526 C 9.5291667,1.9644737 8.9385417,1.728125 9.2708333,1.3958333 z "
       id="path1968" />
    <path
       style="fill:#57e6d4"
       d="M 8.564775,14.795912 C 9.0119683,13.386931 8.6200265,12.713395 7.1254921,12.322566 C 5.3501559,11.858305 5.2644388,11.592704 6.4933427,10.3638 C 7.2752656,9.5818773 7.6886619,8.352241 7.4120013,7.6312749 C 7.1353407,6.9103089 7.5266755,5.8077876 8.2816343,5.1812275 C 9.3773228,4.2718868 9.6387211,4.4917758 9.5771433,6.2710136 C 9.5116468,8.1634758 9.9906731,8.4777388 12.75,8.3525518 C 15.475319,8.2289077 15.987255,8.5517884 15.921053,10.352552 C 15.877632,11.533648 15.615132,11.9375 15.337719,11.25 C 14.606179,9.437052 11.046114,9.716254 10.306135,11.644608 C 9.9304937,12.623514 10.358148,13.788716 11.362651,14.523226 C 12.880432,15.633055 12.793645,15.806293 10.500246,16.244704 C 8.3407132,16.657525 8.0443354,16.435672 8.564775,14.795912 z "
       id="path1966" />
    <path
       style="fill:#4ad7ca"
       d="M 5.2708333,16.395833 C 5.603125,16.063542 6.465625,16.028015 7.1875,16.316886 C 7.9852327,16.636112 7.7482763,16.873069 6.5833333,16.921053 C 5.5291667,16.964474 4.9385417,16.728125 5.2708333,16.395833 z M 10.741204,16.29542 C 11.973866,16.057701 13.661366,14.893855 14.491204,13.709095 C 16.330329,11.083377 16.496147,7.5956329 14.75,8.2656924 C 13.966444,8.5663709 13.5,7.8599835 13.5,6.3726812 C 13.5,3.2926481 14.386795,3.3587447 15.839485,6.547053 C 18.379635,12.122076 15.757296,17.215092 10.527494,16.863818 C 8.7188977,16.742339 8.7419709,16.680972 10.741204,16.29542 z M 7.5642929,13.293128 C 7.0216083,11.86793 7.1364719,11.753066 8.1240877,12.733333 C 8.8075061,13.411667 9.114759,14.218574 8.8068719,14.526461 C 8.4989848,14.834349 7.9398243,14.279349 7.5642929,13.293128 z M 1.6666667,13.333333 C 0.63762571,12.304292 0.878637,7.1930404 1.9885456,6.5070792 C 2.5735295,6.1455393 2.7113179,6.5887185 2.3260657,7.5926698 C 1.9223725,8.6446773 2.3446796,9.7788675 3.4376579,10.578073 C 4.4070976,11.286944 4.9036559,12.346871 4.5411208,12.933465 C 3.7899823,14.148833 2.6418798,14.308546 1.6666667,13.333333 z M 5.1307874,6.080831 C 4.188749,5.4986193 4.7427644,4.9367212 7.05285,4.131421 C 10.578567,2.9023495 12.675687,2.6576467 11.75,3.5833333 C 11.429167,3.9041667 10.951411,4.0166667 10.688321,3.8333333 C 10.425231,3.65 9.364953,4.2647345 8.3321482,5.19941 C 7.1786589,6.2433035 5.9437922,6.5832956 5.1307874,6.080831 z "
       id="path1964" />
    <path
       style="fill:#48b5b0"
       d="M 9.2708333,17.395833 C 9.603125,17.063542 10.465625,17.028015 11.1875,17.316886 C 11.985233,17.636112 11.748276,17.873069 10.583333,17.921053 C 9.5291667,17.964474 8.9385417,17.728125 9.2708333,17.395833 z M 2,15.5 C 2,14.675 2.4358768,14 2.9686152,14 C 3.5013536,14 3.6782086,14.675 3.3616264,15.5 C 2.6245961,17.42067 2,17.42067 2,15.5 z M 13.270833,16.395833 C 13.603125,16.063542 14.465625,16.028015 15.1875,16.316886 C 15.985233,16.636112 15.748276,16.873069 14.583333,16.921053 C 13.529167,16.964474 12.938542,16.728125 13.270833,16.395833 z M 17.623539,14.461341 C 17.280592,13.567637 17.038679,12.085729 17.085953,11.168213 C 17.133227,10.250696 17.568347,10.82738 18.052886,12.449733 C 18.995547,15.605987 18.662167,17.167963 17.623539,14.461341 z M 0.078947368,6.5833333 C 0.035526316,5.5291667 0.271875,4.9385417 0.60416667,5.2708333 C 0.93645833,5.603125 0.97198465,6.465625 0.68311404,7.1875 C 0.36388767,7.9852327 0.12693129,7.7482763 0.078947368,6.5833333 z M 9.0789474,6.5833333 C 9.0355263,5.5291667 9.271875,4.9385417 9.6041667,5.2708333 C 9.9364583,5.603125 9.9719846,6.465625 9.683114,7.1875 C 9.3638877,7.9852327 9.1269313,7.7482763 9.0789474,6.5833333 z M 15.031329,5.2542261 C 14.285714,3.6666655 13.54622,3.0294888 13.285555,3.75 C 13.036833,4.4375 12.365733,5 11.794222,5 C 11.112494,5 11.138171,4.5384402 11.868879,3.6579907 C 12.481452,2.9198856 12.717041,2.0503745 12.392411,1.7257439 C 12.06778,1.4011132 12.702025,1.3708228 13.801844,1.6584319 C 14.965428,1.9627162 16.015144,3.2932512 16.312452,4.8406788 C 17.0019,8.4291018 16.585563,8.5634955 15.031329,5.2542261 z "
       id="path1962" />
    <path
       style="fill:#3ab1b0"
       d="M 5.75,17.337719 C 6.4375,17.060307 7.5625,17.060307 8.25,17.337719 C 8.9375,17.615132 8.375,17.842105 7,17.842105 C 5.625,17.842105 5.0625,17.615132 5.75,17.337719 z M 15.5,15 C 15.839919,14.45 16.568034,14 17.118034,14 C 17.668034,14 17.839919,14.45 17.5,15 C 17.160081,15.55 16.431966,16 15.881966,16 C 15.331966,16 15.160081,15.55 15.5,15 z M 1.6666667,7.3333333 C 0.51398059,6.1806473 0.93475041,5.2503259 2.8333333,4.7538353 C 3.8989724,4.4751644 4.6666667,4.805145 4.6666667,5.5418631 C 4.6666667,6.2566611 4.0137544,6.5587725 3.1692884,6.2347205 C 2.1959006,5.8611965 1.9249374,6.0695292 2.3949721,6.8300613 C 3.1803198,8.1007806 2.7390437,8.4057103 1.6666667,7.3333333 z M 12,3 C 11.098708,2.4175404 10.975367,2.0245136 11.690983,2.0153128 C 12.346024,2.0068907 13.160081,2.45 13.5,3 C 14.267305,4.2415252 13.921123,4.2415252 12,3 z "
       id="path1960" />
    <path
       style="fill:#379390"
       d="M 3.5570775,18.092353 C 3.2485514,17.593148 3.4041524,16.130648 3.9028574,14.842353 C 4.7342452,12.694647 4.8048592,12.770071 4.752617,15.75 C 4.6927631,19.164106 4.4786827,19.583542 3.5570775,18.092353 z M 7.0789474,14.583333 C 7.0355263,13.529167 7.271875,12.938542 7.6041667,13.270833 C 7.9364583,13.603125 7.9719846,14.465625 7.683114,15.1875 C 7.3638877,15.985233 7.1269313,15.748276 7.0789474,14.583333 z M 14.078947,12.583333 C 14.035526,11.529167 14.271875,10.938542 14.604167,11.270833 C 14.936458,11.603125 14.971985,12.465625 14.683114,13.1875 C 14.363888,13.985233 14.126931,13.748276 14.078947,12.583333 z M 4.6000559,10.326131 C 5.2050867,9.8717589 5.9846513,8.825 6.3324218,8 C 6.7767043,6.9460489 6.8956341,7.0700903 6.7323659,8.4171337 C 6.6045646,9.4715572 5.825,10.518316 5,10.743265 C 4.0352236,11.006325 3.8925173,10.857485 4.6000559,10.326131 z M 13.078947,6.5833333 C 13.035526,5.5291667 13.271875,4.9385417 13.604167,5.2708333 C 13.936458,5.603125 13.971985,6.465625 13.683114,7.1875 C 13.363888,7.9852327 13.126931,7.7482763 13.078947,6.5833333 z M 2.5,4 C 3.6,3.5273138 5.175,3.1405705 6,3.1405705 C 6.9454791,3.1405705 6.7606388,3.4582849 5.5,4 C 4.4,4.4726862 2.825,4.8594295 2,4.8594295 C 1.0545209,4.8594295 1.2393612,4.5417151 2.5,4 z M 8.2708333,2.3958333 C 8.603125,2.0635417 9.465625,2.0280154 10.1875,2.316886 C 10.985233,2.6361123 10.748276,2.8730687 9.5833333,2.9210526 C 8.5291667,2.9644737 7.9385417,2.728125 8.2708333,2.3958333 z "
       id="path1958" />
    <path
       style="fill:#091b19"
       d="M 5,14.5 C 5,13.675 5.45,13 6,13 C 6.55,13 7,13.675 7,14.5 C 7,15.325 6.55,16 6,16 C 5.45,16 5,15.325 5,14.5 z M 11.693853,13.36052 C 10.894922,12.561589 11.798039,11 13.059017,11 C 13.576558,11 14,11.675 14,12.5 C 14,14.04641 12.820037,14.486704 11.693853,13.36052 z M 3.2291667,8.8125 C 3.847241,6.9582769 6,6.6507399 6,8.4166667 C 6,9.2875 5.2875,10 4.4166667,10 C 3.5458333,10 3.0114583,9.465625 3.2291667,8.8125 z M 10.693853,7.3605198 C 9.8949225,6.5615892 10.798039,5 12.059017,5 C 12.576558,5 13,5.675 13,6.5 C 13,8.0464103 11.820037,8.4867038 10.693853,7.3605198 z "
       id="path1956" />
  </g>
</svg>
