<?xml version="1.0" encoding="UTF-8" standalone="no"?>
<!-- Created with Inkscape (http://www.inkscape.org/) -->
<svg
   xmlns:dc="http://purl.org/dc/elements/1.1/"
   xmlns:cc="http://web.resource.org/cc/"
   xmlns:rdf="http://www.w3.org/1999/02/22-rdf-syntax-ns#"
   xmlns:svg="http://www.w3.org/2000/svg"
   xmlns="http://www.w3.org/2000/svg"
   xmlns:xlink="http://www.w3.org/1999/xlink"
   xmlns:sodipodi="http://sodipodi.sourceforge.net/DTD/sodipodi-0.dtd"
   xmlns:inkscape="http://www.inkscape.org/namespaces/inkscape"
   id="svg38"
   sodipodi:version="0.32"
   inkscape:version="0.44"
   width="20"
   height="20"
   version="1.0"
   sodipodi:docbase="/home/kde4/Developpements/C++/ksirk/ksirk/skins/default/Images"
   sodipodi:docname="bluedice5.svg">
  <metadata
     id="metadata43">
    <rdf:RDF>
      <cc:Work
         rdf:about="">
        <dc:format>image/svg+xml</dc:format>
        <dc:type
           rdf:resource="http://purl.org/dc/dcmitype/StillImage" />
      </cc:Work>
    </rdf:RDF>
  </metadata>
  <defs
     id="defs41" />
  <sodipodi:namedview
     inkscape:window-height="582"
     inkscape:window-width="928"
     inkscape:pageshadow="2"
     inkscape:pageopacity="0.0"
     guidetolerance="10.0"
     gridtolerance="10.0"
     objecttolerance="10.0"
     borderopacity="1.0"
     bordercolor="#666666"
     pagecolor="#ffffff"
     id="base"
     inkscape:zoom="18.95"
     inkscape:cx="10"
     inkscape:cy="9.9736148"
     inkscape:window-x="0"
     inkscape:window-y="0"
     inkscape:current-layer="svg38" />
  <g
     id="g1936">
    <path
       style="fill:#fefefe"
       d="M 0.090188267,15.75 L 0.18037653,11.5 L 1.1309678,14.797033 C 1.6537929,16.610402 2.7431154,18.34793 3.5516843,18.658207 C 5.4855695,19.400308 17.851922,17.048612 18.629213,15.79093 C 19.302007,14.702326 17.246198,4.0163912 15.965227,1.9437354 C 15.308793,0.88160349 13.994878,0.8379103 9.3234542,1.7228686 C 6.1205544,2.3296285 2.7125,3.138348 1.75,3.520023 C 0.41747383,4.0484303 1.5994151e-16,3.7113418 9.0801382e-17,2.1069888 C 4.5165194e-18,0.10480299 0.49740647,0 10,0 L 20,0 L 20,10 L 20,20 L 10,20 L 0,20 L 0.090188267,15.75 z "
       id="path1952" />
    <path
       style="fill:#53e3d2"
       d="M 8.3735186,15.469009 C 8.7180834,14.571088 9,13.644416 9,13.409739 C 9,13.175061 9.8634594,13.522292 10.918799,14.181362 C 12.439298,15.13093 13.217713,15.092163 14.668799,13.994604 C 16.320502,12.745303 16.352967,12.763537 15,14.180618 C 14.175,15.044712 12.205583,16.055425 10.623519,16.426646 C 8.2276601,16.988819 7.8517142,16.82881 8.3735186,15.469009 z M 2.473008,11.956326 C 2.1479349,11.430347 2.8085237,11 3.940983,11 C 6.3555481,11 6.5991382,11.556111 4.532025,12.349337 C 3.7246388,12.65916 2.7980811,12.482305 2.473008,11.956326 z M 0.078947368,10.583333 C 0.035526316,9.5291667 0.271875,8.9385417 0.60416667,9.2708333 C 0.93645833,9.603125 0.97198465,10.465625 0.68311404,11.1875 C 0.36388767,11.985233 0.12693129,11.748276 0.078947368,10.583333 z M 15.078947,11.25 C 15.035526,10.5625 13.9875,9.9644737 12.75,9.9210526 C 11.246558,9.8683003 10.997705,9.6526465 12,9.2711085 C 12.825,8.9570604 13.813292,8.217698 14.196205,7.628081 C 15.086286,6.2575159 16.391541,9.4289707 15.673277,11.217011 C 15.275215,12.207944 15.139923,12.215454 15.078947,11.25 z M 6.6127994,7.1246419 C 5.0025477,5.3453338 5.0330224,5.2268417 7.2078118,4.8111043 C 9.0631468,4.4564346 9.5,4.8138469 9.5,6.6864624 C 9.5,9.4903382 8.8438456,9.5899202 6.6127994,7.1246419 z "
       id="path1950" />
    <path
       style="fill:#4dd3ca"
       d="M 11,17 C 9.7181026,16.171574 9.754453,16.028399 11.25,16.015313 C 12.2125,16.006891 13,16.45 13,17 C 13,18.21961 12.887213,18.21961 11,17 z M 5.2708333,16.395833 C 5.603125,16.063542 6.465625,16.028015 7.1875,16.316886 C 7.9852327,16.636112 7.7482763,16.873069 6.5833333,16.921053 C 5.5291667,16.964474 4.9385417,16.728125 5.2708333,16.395833 z M 14.532721,15 C 16.152278,12.349731 16.108004,9.0944689 14.417307,6.5141387 C 13.414352,4.9834357 13.20613,4 13.88499,4 C 14.498246,4 15,4.4765576 15,5.059017 C 15,5.6414763 15.398839,5.8715377 15.88631,5.5702644 C 18.432791,3.9964524 17.780802,13.127232 15.197302,15.219461 C 13.866873,16.296899 13.761467,16.262092 14.532721,15 z M 1,12.081787 C 1,11.026771 0.74913823,9.5098396 0.44252939,8.7108298 C 0.13592055,7.91182 0.47690052,7.0309737 1.2002626,6.7533936 C 2.1151808,6.4023066 2.5131129,7.2000019 2.5077333,9.3743513 C 2.5026154,11.442905 2.9478887,12.40707 3.8243298,12.225223 C 4.5527111,12.074096 4.8636535,12.411596 4.5153128,12.975223 C 3.4359896,14.721605 1,14.102485 1,12.081787 z M 10.458881,9.9334688 C 10.096348,9.3468767 10.014198,8.6524691 10.276326,8.3903408 C 10.538454,8.1282125 11.019392,8.6081515 11.345077,9.4568719 C 12.021261,11.218979 11.444931,11.52893 10.458881,9.9334688 z M 7.5,4.0348454 C 9.9337543,2.9466227 12.600052,2.7332814 11.628854,3.704479 C 11.241391,4.0919425 9.7038909,4.5259945 8.2121877,4.6690392 C 5.8736642,4.8932884 5.7755445,4.8059141 7.5,4.0348454 z "
       id="path1948" />
    <path
       style="fill:#48b4b0"
       d="M 2.6666667,18.333333 C 1.7554231,17.42209 1.8212325,14 2.75,14 C 3.1625,14 3.5,15.125 3.5,16.5 C 3.5,17.875 3.4625,19 3.4166667,19 C 3.3708333,19 3.0333333,18.7 2.6666667,18.333333 z M 5.2708333,18.395833 C 5.603125,18.063542 6.465625,18.028015 7.1875,18.316886 C 7.9852327,18.636112 7.7482763,18.873069 6.5833333,18.921053 C 5.5291667,18.964474 4.9385417,18.728125 5.2708333,18.395833 z M 9.2708333,17.395833 C 9.603125,17.063542 10.465625,17.028015 11.1875,17.316886 C 11.985233,17.636112 11.748276,17.873069 10.583333,17.921053 C 9.5291667,17.964474 8.9385417,17.728125 9.2708333,17.395833 z M 13.75,16.337719 C 14.4375,16.060307 15.5625,16.060307 16.25,16.337719 C 16.9375,16.615132 16.375,16.842105 15,16.842105 C 13.625,16.842105 13.0625,16.615132 13.75,16.337719 z M 17.623539,14.461341 C 17.280592,13.567637 17.038679,12.085729 17.085953,11.168213 C 17.133227,10.250696 17.568347,10.82738 18.052886,12.449733 C 18.995547,15.605987 18.662167,17.167963 17.623539,14.461341 z M 5.6383736,11.5 C 5.9549558,10.675 6.3908326,10 6.6069888,10 C 6.823145,10 7,10.675 7,11.5 C 7,12.325 6.5641232,13 6.0313848,13 C 5.4986464,13 5.3217914,12.325 5.6383736,11.5 z M 9.0789474,6.5833333 C 9.0355263,5.5291667 9.271875,4.9385417 9.6041667,5.2708333 C 9.9364583,5.603125 9.9719846,6.465625 9.683114,7.1875 C 9.3638877,7.9852327 9.1269313,7.7482763 9.0789474,6.5833333 z M 0.078947368,5.5833333 C 0.035526316,4.5291667 0.271875,3.9385417 0.60416667,4.2708333 C 0.93645833,4.603125 0.97198465,5.465625 0.68311404,6.1875 C 0.36388767,6.9852327 0.12693129,6.7482763 0.078947368,5.5833333 z M 14.490564,4.25 C 13.999593,3.0622993 13.617126,2.9016423 13.300242,3.75 C 13.043442,4.4375 12.365733,5 11.794222,5 C 11.134848,5 11.180554,4.487372 11.919293,3.5972459 C 12.813466,2.5198335 12.783882,2.085313 11.791738,1.7237524 C 11.081282,1.4648458 11.737182,1.3085851 13.249294,1.3765065 C 15.396925,1.4729744 15.998742,1.9923956 15.999294,3.75 C 16.000141,6.4493395 15.472069,6.624345 14.490564,4.25 z "
       id="path1946" />
    <path
       style="fill:#3ab1b0"
       d="M 5.75,17.337719 C 6.4375,17.060307 7.5625,17.060307 8.25,17.337719 C 8.9375,17.615132 8.375,17.842105 7,17.842105 C 5.625,17.842105 5.0625,17.615132 5.75,17.337719 z M 15.5,15 C 15.839919,14.45 16.568034,14 17.118034,14 C 17.668034,14 17.839919,14.45 17.5,15 C 17.160081,15.55 16.431966,16 15.881966,16 C 15.331966,16 15.160081,15.55 15.5,15 z M 1.6666667,7.3333333 C 0.51398059,6.1806473 0.93475041,5.2503259 2.8333333,4.7538353 C 3.8989724,4.4751644 4.6666667,4.805145 4.6666667,5.5418631 C 4.6666667,6.2566611 4.0137544,6.5587725 3.1692884,6.2347205 C 2.1959006,5.8611965 1.9249374,6.0695292 2.3949721,6.8300613 C 3.1803198,8.1007806 2.7390437,8.4057103 1.6666667,7.3333333 z M 12,3 C 11.098708,2.4175404 10.975367,2.0245136 11.690983,2.0153128 C 12.346024,2.0068907 13.160081,2.45 13.5,3 C 14.267305,4.2415252 13.921123,4.2415252 12,3 z "
       id="path1944" />
    <path
       style="fill:#379490"
       d="M 3.4461493,17.912868 C 3.0766127,17.314945 3.1796967,16.420303 3.6752249,15.924775 C 4.2098388,15.390161 4.6370798,15.832209 4.7259438,17.011907 C 4.8931539,19.231676 4.4528074,19.541675 3.4461493,17.912868 z M 5,10 C 5.825,9.4668441 6.95,9.0306255 7.5,9.0306255 C 8.05,9.0306255 7.825,9.4668441 7,10 C 6.175,10.533156 5.05,10.969374 4.5,10.969374 C 3.95,10.969374 4.175,10.533156 5,10 z M 2.5,4 C 3.6,3.5273138 5.175,3.1405705 6,3.1405705 C 6.9454791,3.1405705 6.7606388,3.4582849 5.5,4 C 4.4,4.4726862 2.825,4.8594295 2,4.8594295 C 1.0545209,4.8594295 1.2393612,4.5417151 2.5,4 z M 8.2708333,2.3958333 C 8.603125,2.0635417 9.465625,2.0280154 10.1875,2.316886 C 10.985233,2.6361123 10.748276,2.8730687 9.5833333,2.9210526 C 8.5291667,2.9644737 7.9385417,2.728125 8.2708333,2.3958333 z "
       id="path1942" />
    <path
       style="fill:#25655d"
       d="M 4.5070792,15.011454 C 4.1567404,14.444594 4.5581371,14.276947 5.4480622,14.618443 C 6.9216732,15.183921 7.4400927,14.145431 7.0919624,11.325407 C 7.0122109,10.679381 7.3456365,9.9044189 7.8329082,9.6032684 C 8.8106613,8.9989838 8.5729595,13.263915 7.5353109,14.942866 C 6.714403,16.271123 5.3053217,16.303038 4.5070792,15.011454 z "
       id="path1940" />
    <path
       style="fill:#091a18"
       d="M 5,14 C 5,13.45 5.45,13 6,13 C 6.55,13 7,13.45 7,14 C 7,14.55 6.55,15 6,15 C 5.45,15 5,14.55 5,14 z M 11.693853,13.36052 C 10.894922,12.561589 11.798039,11 13.059017,11 C 13.576558,11 14,11.675 14,12.5 C 14,14.04641 12.820037,14.486704 11.693853,13.36052 z M 8,11 C 8,10.45 8.45,10 9,10 C 9.55,10 10,10.45 10,11 C 10,11.55 9.55,12 9,12 C 8.45,12 8,11.55 8,11 z M 3.6938532,9.3605198 C 2.8949225,8.5615892 3.7980393,7 5.059017,7 C 5.5765576,7 6,7.675 6,8.5 C 6,10.04641 4.8200371,10.486704 3.6938532,9.3605198 z M 10.693853,7.3605198 C 9.8949225,6.5615892 10.798039,5 12.059017,5 C 12.576558,5 13,5.675 13,6.5 C 13,8.0464103 11.820037,8.4867038 10.693853,7.3605198 z "
       id="path1938" />
  </g>
</svg>
