<?xml version="1.0" encoding="UTF-8" standalone="no"?>
<!-- Created with Inkscape (http://www.inkscape.org/) -->
<svg
   xmlns:dc="http://purl.org/dc/elements/1.1/"
   xmlns:cc="http://web.resource.org/cc/"
   xmlns:rdf="http://www.w3.org/1999/02/22-rdf-syntax-ns#"
   xmlns:svg="http://www.w3.org/2000/svg"
   xmlns="http://www.w3.org/2000/svg"
   xmlns:xlink="http://www.w3.org/1999/xlink"
   xmlns:sodipodi="http://sodipodi.sourceforge.net/DTD/sodipodi-0.dtd"
   xmlns:inkscape="http://www.inkscape.org/namespaces/inkscape"
   id="svg20"
   sodipodi:version="0.32"
   inkscape:version="0.44"
   width="20"
   height="20"
   version="1.0"
   sodipodi:docbase="/home/kde4/Developpements/C++/ksirk/ksirk/skins/default/Images"
   sodipodi:docname="bluedice3.svg">
  <metadata
     id="metadata25">
    <rdf:RDF>
      <cc:Work
         rdf:about="">
        <dc:format>image/svg+xml</dc:format>
        <dc:type
           rdf:resource="http://purl.org/dc/dcmitype/StillImage" />
      </cc:Work>
    </rdf:RDF>
  </metadata>
  <defs
     id="defs23" />
  <sodipodi:namedview
     inkscape:window-height="582"
     inkscape:window-width="928"
     inkscape:pageshadow="2"
     inkscape:pageopacity="0.0"
     guidetolerance="10.0"
     gridtolerance="10.0"
     objecttolerance="10.0"
     borderopacity="1.0"
     bordercolor="#666666"
     pagecolor="#ffffff"
     id="base"
     inkscape:zoom="18.95"
     inkscape:cx="10"
     inkscape:cy="9.9736148"
     inkscape:window-x="666"
     inkscape:window-y="0"
     inkscape:current-layer="svg20" />
  <g
     id="g1990">
    <path
       style="fill:#fefefe"
       d="M 0.090188267,16.25 L 0.18037653,12.5 L 1.153967,15.88579 L 2.1275574,19.27158 L 8.2106287,18.635774 C 11.556318,18.28608 15.577618,17.359464 17.14685,16.576628 C 19.891041,15.207645 20,15.245835 20,17.576645 C 20,19.979561 19.91566,20 10,20 L 0,20 L 0.090188267,16.25 z M 17.909163,7.75 C 16.626826,2.1789073 16.184141,1.4666614 13.833818,1.1930863 C 12.383611,1.0242837 8.6777358,1.5440643 5.5985393,2.3481542 C 0.24804949,3.7453612 -2.2289304e-15,3.7257297 -1.1397133e-15,1.9050679 C -9.4912031e-17,0.15864855 0.83277109,0 10,0 L 20,0 L 20,7 C 20,10.85 19.853248,14 19.673884,14 C 19.49452,14 18.700396,11.1875 17.909163,7.75 z "
       id="path2006" />
    <path
       style="fill:#a0cacb"
       d="M 1.4760815,16.924639 C 0.5304271,13.945146 1.3166618,13.71278 2.6663985,16.57285 C 3.2963858,17.907782 3.4344927,19 2.9733027,19 C 2.5121126,19 1.8383631,18.066088 1.4760815,16.924639 z M 7.2708333,18.395833 C 7.603125,18.063542 8.465625,18.028015 9.1875,18.316886 C 9.9852327,18.636112 9.7482763,18.873069 8.5833333,18.921053 C 7.5291667,18.964474 6.9385417,18.728125 7.2708333,18.395833 z M 12.270833,17.395833 C 12.603125,17.063542 13.465625,17.028015 14.1875,17.316886 C 14.985233,17.636112 14.748276,17.873069 13.583333,17.921053 C 12.529167,17.964474 11.938542,17.728125 12.270833,17.395833 z M 18.513239,13.75 C 17.123765,9.6535884 15.244753,0.85903113 15.918981,1.6077979 C 16.826683,2.6158484 20.005872,15 19.356951,15 C 19.126105,15 18.746434,14.4375 18.513239,13.75 z M 0.15789474,11 C 0.15789474,9.625 0.38486842,9.0625 0.6622807,9.75 C 0.93969298,10.4375 0.93969298,11.5625 0.6622807,12.25 C 0.38486842,12.9375 0.15789474,12.375 0.15789474,11 z M 0.73333333,3.8759123 C 1.4116667,3.1924939 2.2185743,2.885241 2.5264614,3.1931281 C 2.8343485,3.5010152 2.2793485,4.0601757 1.2931281,4.4357071 C -0.13207038,4.9783917 -0.24693394,4.8635281 0.73333333,3.8759123 z M 9.2708333,1.3958333 C 9.603125,1.0635417 10.465625,1.0280154 11.1875,1.316886 C 11.985233,1.6361123 11.748276,1.8730687 10.583333,1.9210526 C 9.5291667,1.9644737 8.9385417,1.728125 9.2708333,1.3958333 z "
       id="path2004" />
    <path
       style="fill:#58e5d4"
       d="M 6.3891001,15.965514 C 3.9111219,15.028565 2.5875894,12.318 4.3061771,11.699735 C 4.9627797,11.463521 6.2968,11.680258 7.2706667,12.181372 C 8.2445334,12.682486 9.4348803,12.849263 9.9158819,12.551988 C 10.396884,12.254712 11.045826,12.677038 11.357977,13.490489 C 12.110746,15.452176 9.0558459,16.973839 6.3891001,15.965514 z M 13.25,10.512872 C 12.0125,9.9699509 11,9.1824509 11,8.7628715 C 11,8.3432922 10.175,8 9.1666667,8 C 6.4223228,8 5.8139335,6.8626511 7.7655435,5.3806803 C 10.412901,3.3703879 12.786301,3.744221 14.55974,6.4508311 C 16.787703,9.8511326 16.162356,11.790591 13.25,10.512872 z "
       id="path2002" />
    <path
       style="fill:#54d8c9"
       d="M 1.1578947,12 C 1.1578947,10.625 1.3848684,10.0625 1.6622807,10.75 C 1.939693,11.4375 1.939693,12.5625 1.6622807,13.25 C 1.3848684,13.9375 1.1578947,13.375 1.1578947,12 z M 11.270833,10.395833 C 11.603125,10.063542 12.465625,10.028015 13.1875,10.316886 C 13.985233,10.636112 13.748276,10.873069 12.583333,10.921053 C 11.529167,10.964474 10.938542,10.728125 11.270833,10.395833 z M 14.814913,7.0257424 C 13.223027,4.2279341 13.225555,4.1239135 14.860618,5.1450274 C 15.812553,5.739521 16.655376,7.0750917 16.733556,8.1129624 C 16.919771,10.585032 16.802137,10.518373 14.814913,7.0257424 z "
       id="path2000" />
    <path
       style="fill:#4ad8cb"
       d="M 3.7662813,15.25 C 2.9172497,14.2875 1.9098511,12.028853 1.5276178,10.230783 C 0.85928656,7.0868771 1.0115277,6.8824399 5.4994332,4.8972259 C 8.066165,3.7618384 10.406919,3.0735853 10.701108,3.3677746 C 10.995297,3.661964 10.057898,4.1983485 8.6179988,4.5597402 C 7.1780995,4.9211319 6,5.6180324 6,6.108408 C 6,6.5987836 5.1,7 4,7 C 1.5030669,7 1.4764917,8.5502851 3.8922008,13.288558 C 6.0149039,17.452117 5.9941373,17.775597 3.7662813,15.25 z M 10.722642,15.481716 C 11.914851,14.64666 13.417703,14.08416 14.062311,14.231716 C 14.70692,14.379272 15.372837,13.671266 15.542128,12.658369 C 15.995917,9.943268 17,9.3359859 17,11.776629 C 17,14.182507 13.523551,17 10.554988,17 C 8.6286031,17 8.6347741,16.944115 10.722642,15.481716 z "
       id="path1998" />
    <path
       style="fill:#49b5b1"
       d="M 4.2708333,18.395833 C 4.603125,18.063542 5.465625,18.028015 6.1875,18.316886 C 6.9852327,18.636112 6.7482763,18.873069 5.5833333,18.921053 C 4.5291667,18.964474 3.9385417,18.728125 4.2708333,18.395833 z M 9.2708333,17.395833 C 9.603125,17.063542 10.465625,17.028015 11.1875,17.316886 C 11.985233,17.636112 11.748276,17.873069 10.583333,17.921053 C 9.5291667,17.964474 8.9385417,17.728125 9.2708333,17.395833 z M 2,15.333333 C 2,13.649798 2.4644684,13.649798 3.861679,15.333333 C 4.6992809,16.342582 4.6075109,16.666667 3.4841237,16.666667 C 2.6678557,16.666667 2,16.066667 2,15.333333 z M 13.270833,16.395833 C 13.603125,16.063542 14.465625,16.028015 15.1875,16.316886 C 15.985233,16.636112 15.748276,16.873069 14.583333,16.921053 C 13.529167,16.964474 12.938542,16.728125 13.270833,16.395833 z M 17.623539,14.461341 C 17.280592,13.567637 17.038679,12.085729 17.085953,11.168213 C 17.133227,10.250696 17.568347,10.82738 18.052886,12.449733 C 18.995547,15.605987 18.662167,17.167963 17.623539,14.461341 z M 5.6383736,9.5 C 6.3754039,7.57933 7,7.57933 7,9.5 C 7,10.325 6.5641232,11 6.0313848,11 C 5.4986464,11 5.3217914,10.325 5.6383736,9.5 z M 14.690583,4.6360564 C 14.318532,3.6665051 13.635947,3.1069629 13.173729,3.3926293 C 12.711512,3.6782956 12.333333,3.2568176 12.333333,2.4560113 C 12.333333,1.6552051 12.947456,1 13.698051,1 C 15.241425,1 16.395809,3.3125717 15.77785,5.1664493 C 15.514489,5.9565335 15.124247,5.7661647 14.690583,4.6360564 z "
       id="path1996" />
    <path
       style="fill:#39b1b1"
       d="M 3,17.173193 C 3,16.718449 4.35,16.544524 6,16.786692 C 9.8564287,17.352696 9.8564287,18 6,18 C 4.35,18 3,17.627937 3,17.173193 z M 15.5,15 C 16.299679,13.706093 18,13.706093 18,15 C 18,15.55 17.298442,16 16.440983,16 C 15.583524,16 15.160081,15.55 15.5,15 z M 10.345077,11.456872 C 10.019392,10.608151 9.9763636,9.6903031 10.249458,9.4172088 C 10.522552,9.1441145 10.986016,9.8385221 11.279377,10.960337 C 11.902527,13.343266 11.210154,13.711228 10.345077,11.456872 z M 1.9752492,8.4349003 C 1.4388621,7.0240955 1,5.4809995 1,5.0057981 C 1,3.7856693 12.035886,1.6346742 13.051205,2.6569081 C 13.511768,3.1206087 12.344126,3.5335339 10.456443,3.5745197 C 3.8295615,3.7184043 0.41652302,7.4885085 4.4270585,10.234687 C 5.1432262,10.725077 5.0761207,10.974466 4.2252492,10.984687 C 3.5241362,10.993109 2.5116362,9.8457052 1.9752492,8.4349003 z "
       id="path1994" />
    <path
       style="fill:#153d38"
       d="M 12,12.5 C 12,11.583333 12.5625,11.020833 13.25,11.25 C 14.665672,11.721891 14.510051,13.329983 13,13.833333 C 12.45,14.016667 12,13.416667 12,12.5 z M 7.6938532,11.36052 C 6.8949225,10.561589 7.7980393,9 9.059017,9 C 9.5765576,9 10,9.675 10,10.5 C 10,12.04641 8.8200371,12.486704 7.6938532,11.36052 z M 3,8.4166667 C 3,7.5458333 3.534375,7.0114583 4.1875,7.2291667 C 6.0417231,7.847241 6.3492601,10 4.5833333,10 C 3.7125,10 3,9.2875 3,8.4166667 z "
       id="path1992" />
  </g>
</svg>
