<?xml version="1.0" encoding="UTF-8" standalone="no"?>
<!-- Created with Inkscape (http://www.inkscape.org/) -->
<svg
   xmlns:dc="http://purl.org/dc/elements/1.1/"
   xmlns:cc="http://web.resource.org/cc/"
   xmlns:rdf="http://www.w3.org/1999/02/22-rdf-syntax-ns#"
   xmlns:svg="http://www.w3.org/2000/svg"
   xmlns="http://www.w3.org/2000/svg"
   xmlns:xlink="http://www.w3.org/1999/xlink"
   xmlns:sodipodi="http://sodipodi.sourceforge.net/DTD/sodipodi-0.dtd"
   xmlns:inkscape="http://www.inkscape.org/namespaces/inkscape"
   id="svg11"
   sodipodi:version="0.32"
   inkscape:version="0.44"
   width="20"
   height="20"
   version="1.0"
   sodipodi:docbase="/home/kde4/Developpements/C++/ksirk/ksirk/skins/default/Images"
   sodipodi:docname="bluedice2.svg">
  <metadata
     id="metadata16">
    <rdf:RDF>
      <cc:Work
         rdf:about="">
        <dc:format>image/svg+xml</dc:format>
        <dc:type
           rdf:resource="http://purl.org/dc/dcmitype/StillImage" />
      </cc:Work>
    </rdf:RDF>
  </metadata>
  <defs
     id="defs14" />
  <sodipodi:namedview
     inkscape:window-height="582"
     inkscape:window-width="928"
     inkscape:pageshadow="2"
     inkscape:pageopacity="0.0"
     guidetolerance="10.0"
     gridtolerance="10.0"
     objecttolerance="10.0"
     borderopacity="1.0"
     bordercolor="#666666"
     pagecolor="#ffffff"
     id="base"
     inkscape:zoom="18.95"
     inkscape:cx="10"
     inkscape:cy="9.9736148"
     inkscape:window-x="666"
     inkscape:window-y="543"
     inkscape:current-layer="svg11" />
  <g
     id="g2026">
    <path
       style="fill:#fefefe"
       d="M 0.090188267,16.25 L 0.18037653,12.5 L 1.153967,15.88579 L 2.1275574,19.27158 L 8.2106287,18.635774 C 11.556318,18.28608 15.577618,17.359464 17.14685,16.576628 C 19.891041,15.207645 20,15.245835 20,17.576645 C 20,19.979561 19.91566,20 10,20 L 0,20 L 0.090188267,16.25 z M 17.909163,7.75 C 16.626826,2.1789073 16.184141,1.4666614 13.833818,1.1930863 C 12.383611,1.0242837 8.6777358,1.5440643 5.5985393,2.3481542 C 0.24804949,3.7453612 -2.2289304e-15,3.7257297 -1.1397133e-15,1.9050679 C -9.4912031e-17,0.15864855 0.83277109,0 10,0 L 20,0 L 20,7 C 20,10.85 19.853248,14 19.673884,14 C 19.49452,14 18.700396,11.1875 17.909163,7.75 z "
       id="path2042" />
    <path
       style="fill:#a0cacb"
       d="M 1.0525809,15.25 C 0.47979603,13.1875 0.056835733,10.6 0.11266912,9.5 C 0.16850251,8.4 0.66073719,9.525 1.206524,12 C 1.7523107,14.475 2.6592194,17.0625 3.2218765,17.75 C 3.9251288,18.609291 3.9087415,19 3.1694487,19 C 2.5779563,19 1.6253658,17.3125 1.0525809,15.25 z M 7.2708333,18.395833 C 7.603125,18.063542 8.465625,18.028015 9.1875,18.316886 C 9.9852327,18.636112 9.7482763,18.873069 8.5833333,18.921053 C 7.5291667,18.964474 6.9385417,18.728125 7.2708333,18.395833 z M 12.270833,17.395833 C 12.603125,17.063542 13.465625,17.028015 14.1875,17.316886 C 14.985233,17.636112 14.748276,17.873069 13.583333,17.921053 C 12.529167,17.964474 11.938542,17.728125 12.270833,17.395833 z M 17.151659,15.974935 C 18.680954,15.082125 18.667248,14.48169 16.966646,7.8703306 C 15.956476,3.943134 15.488262,1.1282291 15.92617,1.6149865 C 16.364078,2.1017439 17.401587,5.2807473 18.231745,8.6794384 C 19.726475,14.798907 19.270148,17.048369 16.55,16.969591 C 15.9725,16.952867 16.243247,16.505271 17.151659,15.974935 z M 0.73333333,3.8759123 C 1.4116667,3.1924939 2.2185743,2.885241 2.5264614,3.1931281 C 2.8343485,3.5010152 2.2793485,4.0601757 1.2931281,4.4357071 C -0.13207038,4.9783917 -0.24693394,4.8635281 0.73333333,3.8759123 z M 9.2708333,1.3958333 C 9.603125,1.0635417 10.465625,1.0280154 11.1875,1.316886 C 11.985233,1.6361123 11.748276,1.8730687 10.583333,1.9210526 C 9.5291667,1.9644737 8.9385417,1.728125 9.2708333,1.3958333 z "
       id="path2040" />
    <path
       style="fill:#58e6d4"
       d="M 6.3518047,15.934438 C 3.8632845,15.013874 2.414083,12 4.4599562,12 C 6.7626889,12 9.2220228,8.9724474 8.058311,7.5702604 C 7.3686287,6.7392441 7.4211918,5.9788082 8.2237936,5.1762064 C 10.061728,3.3382722 12.738511,3.7885844 14.443296,6.2225062 C 16.125878,8.624729 16.444555,10.070193 15.25,9.8815789 C 11.822481,9.3403917 10.790352,10.118221 11.203224,12.931296 C 11.681399,16.189307 9.9455364,17.263845 6.3518047,15.934438 z "
       id="path2038" />
    <path
       style="fill:#4ad5cb"
       d="M 3.4091857,14.75 C -0.29509032,10.479088 1.1313286,6.265381 6.8752294,4.5111466 C 8.5037206,4.0137921 9.0353415,4.1337992 8.5662124,4.8928661 C 8.1898769,5.5017897 7.0985237,6 6.140983,6 C 4.3173603,6 2,7.8088043 2,9.2322242 C 2,9.6899475 3.0125,10.471424 4.25,10.968838 C 5.9248077,11.642028 6.0606515,11.889432 4.7813848,11.936614 C 2.47111,12.021822 3.6019034,14.894096 6.3891001,16.020294 C 7.8107642,16.594734 7.9874845,16.893924 6.9303355,16.936614 C 6.06702,16.971476 4.4825026,15.9875 3.4091857,14.75 z M 10.262243,16.308317 C 11.231477,16.055492 11.770605,15.437847 11.460305,14.935772 C 11.150006,14.433697 11.632227,14.305378 12.531908,14.650618 C 13.841084,15.152996 13.90137,15.447148 12.833846,16.123851 C 12.100231,16.588889 10.825,16.924065 10,16.868686 C 8.9488482,16.798127 9.0273197,16.630446 10.262243,16.308317 z "
       id="path2036" />
    <path
       style="fill:#47c9c5"
       d="M 1.4736068,10.042705 C 1.9157134,9.3273616 1.7289101,8.4504912 1.0442695,8.0273601 C 0.12583015,7.4597333 0.16636183,7.1501386 1.2116261,6.749033 C 2.8772553,6.1098711 3.3949816,9.6378539 1.7818594,10.634818 C 1.094321,11.05974 0.98034845,10.840814 1.4736068,10.042705 z M 15.638374,7.5 C 15.321791,6.675 15.498646,6 16.031385,6 C 16.564123,6 17,6.675 17,7.5 C 17,9.42067 16.375404,9.42067 15.638374,7.5 z M 9.2708333,3.3958333 C 9.603125,3.0635417 10.465625,3.0280154 11.1875,3.316886 C 11.985233,3.6361123 11.748276,3.8730687 10.583333,3.9210526 C 9.5291667,3.9644737 8.9385417,3.728125 9.2708333,3.3958333 z "
       id="path2034" />
    <path
       style="fill:#44b9b7"
       d="M 6,18.013915 C 6.825,17.473106 8.5875,17.023735 9.9166667,17.015313 C 13.126293,16.994976 12.312786,17.563575 8,18.354962 C 5.5375754,18.806812 4.9446752,18.705709 6,18.013915 z M 2.3333333,15.333333 C 2.3333333,13.673788 2.4843785,13.673788 3.861679,15.333333 C 4.6885862,16.329696 4.6352887,16.666667 3.6507903,16.666667 C 2.926189,16.666667 2.3333333,16.066667 2.3333333,15.333333 z M 15.036475,14.963525 C 16.156535,13.843465 16.804978,12.493465 16.477458,11.963525 C 16.149937,11.433586 16.30604,11 16.824352,11 C 17.342664,11 18.002255,11.900621 18.29011,13.00138 C 18.577965,14.102139 18.402271,14.748617 17.899678,14.437998 C 17.397086,14.127379 16.715908,14.576758 16.385948,15.436618 C 16.055989,16.296478 15.159167,17 14.393011,17 C 13.412976,17 13.603739,16.396261 15.036475,14.963525 z M 15,4.5313848 C 15,3.7183815 14.40478,3.2911769 13.666667,3.5744176 C 12.933333,3.855824 12.333333,3.4534426 12.333333,2.6802367 C 12.333333,1.8093381 13.030933,1.4568342 14.166667,1.7538353 C 15.730028,2.1626635 16.934986,6 15.5,6 C 15.225,6 15,5.3391232 15,4.5313848 z "
       id="path2032" />
    <path
       style="fill:#39b1b0"
       d="M 2.8515346,16.712762 C 1.8569905,14.846148 1.8937124,14.674536 3.0862802,15.615727 C 3.8638261,16.229377 5.1522473,16.934293 5.9494384,17.182207 C 7.1231977,17.547227 7.0785497,17.75588 5.7146928,18.279241 C 4.5771427,18.71576 3.6478502,18.207329 2.8515346,16.712762 z M 14.188851,15.286254 C 11.519729,14.776506 10.241478,12.358522 11.811268,10.788732 C 12.580378,10.019622 12.727877,10.324596 12.327419,11.85595 C 11.944558,13.320014 12.226594,14 13.216702,14 C 15.400056,14 16.117246,12.846199 14.868879,11.342009 C 14.049645,10.354892 14.051939,10 14.877555,10 C 16.000226,10 16.400117,11.311464 16.051601,13.850352 C 15.949651,14.593046 16.346333,14.903988 16.933118,14.541335 C 17.519903,14.178682 18,14.358524 18,14.940983 C 18,15.523442 17.6625,15.938718 17.25,15.863818 C 16.8375,15.788918 15.459983,15.529014 14.188851,15.286254 z M 3.3450766,9.4568719 C 3.019392,8.6081515 2.9763636,7.6903031 3.2494579,7.4172088 C 3.5225522,7.1441145 3.9860157,7.8385221 4.2793769,8.9603368 C 4.9025269,11.343266 4.2101543,11.711228 3.3450766,9.4568719 z M 6.7312131,8.9198409 C 7.0848224,7.5676368 7.5381148,7.1143444 7.7877635,7.8632904 C 8.0282436,8.5847307 7.7495523,9.6504477 7.1684496,10.23155 C 6.4263824,10.973618 6.2962385,10.583186 6.7312131,8.9198409 z M 0.55428623,5.0457138 C 1.6224542,3.9775458 14.182837,0.84950385 14.825051,1.4917178 C 15.051072,1.7177384 13.945398,2.1807739 12.367999,2.5206857 C 10.790599,2.8605974 7.6849552,3.782498 5.4665672,4.5693535 C 0.75172957,6.2416922 -0.79132764,6.3913276 0.55428623,5.0457138 z "
       id="path2030" />
    <path
       style="fill:#020908"
       d="M 12,12.559017 C 12,11.766476 12.399012,10.871431 12.886693,10.570027 C 13.987843,9.8894795 16.228989,12.437678 15.324657,13.342009 C 14.134889,14.531778 12,14.028989 12,12.559017 z M 4.6394802,10.306147 C 3.4443242,9.1109909 3.9937703,7 5.5,7 C 6.325,7 7,7.6484424 7,8.440983 C 7,10.111627 5.5727228,11.239389 4.6394802,10.306147 z "
       id="path2028" />
  </g>
</svg>
