<?xml version="1.0" encoding="UTF-8" standalone="no"?>
<!-- Created with Inkscape (http://www.inkscape.org/) -->
<svg
   xmlns:dc="http://purl.org/dc/elements/1.1/"
   xmlns:cc="http://web.resource.org/cc/"
   xmlns:rdf="http://www.w3.org/1999/02/22-rdf-syntax-ns#"
   xmlns:svg="http://www.w3.org/2000/svg"
   xmlns="http://www.w3.org/2000/svg"
   xmlns:xlink="http://www.w3.org/1999/xlink"
   xmlns:sodipodi="http://sodipodi.sourceforge.net/DTD/sodipodi-0.dtd"
   xmlns:inkscape="http://www.inkscape.org/namespaces/inkscape"
   id="svg2"
   sodipodi:version="0.32"
   inkscape:version="0.44"
   width="20"
   height="20"
   version="1.0"
   sodipodi:docbase="/home/kde4/Developpements/C++/ksirk/ksirk/skins/default/Images"
   sodipodi:docname="joueurSuivant.svg">
  <metadata
     id="metadata7">
    <rdf:RDF>
      <cc:Work
         rdf:about="">
        <dc:format>image/svg+xml</dc:format>
        <dc:type
           rdf:resource="http://purl.org/dc/dcmitype/StillImage" />
      </cc:Work>
    </rdf:RDF>
  </metadata>
  <defs
     id="defs5" />
  <sodipodi:namedview
     inkscape:window-height="582"
     inkscape:window-width="928"
     inkscape:pageshadow="2"
     inkscape:pageopacity="0.0"
     guidetolerance="10.0"
     gridtolerance="10.0"
     objecttolerance="10.0"
     borderopacity="1.0"
     bordercolor="#666666"
     pagecolor="#ffffff"
     id="base"
     inkscape:zoom="18.95"
     inkscape:cx="10"
     inkscape:cy="9.9736148"
     inkscape:window-x="666"
     inkscape:window-y="0"
     inkscape:current-layer="svg2" />
  <g
     id="g1891">
    <path
       style="fill:#a7b8cd"
       d="M 14.489919,18.983688 C 14.144455,18.424717 13.466421,18.211736 12.983175,18.510398 C 11.73272,19.283222 12.722338,14.86498 14.088985,13.573409 C 14.922859,12.785344 15.068065,13.031659 14.635223,14.5 C 14.310962,15.6 14.471653,17.175 14.992316,18 C 15.775112,19.240356 16.290448,19.282163 17.969487,18.241526 C 19.66897,17.188218 20,17.228975 20,18.491526 C 20,20.208079 15.495307,20.61044 14.489919,18.983688 z M 10.078947,15.583333 C 10.035526,14.529167 10.271875,13.938542 10.604167,14.270833 C 10.936458,14.603125 10.971985,15.465625 10.683114,16.1875 C 10.363888,16.985233 10.126931,16.748276 10.078947,15.583333 z M 7.3928728,13.528944 C 7.7349407,11.198287 8.5665286,10.895619 8.7282788,13.042906 C 8.8093617,14.119308 8.493487,15 8.026335,15 C 7.559183,15 7.274125,14.338025 7.3928728,13.528944 z M 10.720866,10.285028 C 11.130345,9.2179427 10.947736,8.9142669 10.181393,9.3878929 C 9.4286965,9.853085 9.2280551,9.5692728 9.6085817,8.5776365 C 10.111158,7.2679433 10.393297,7.2504399 11.597127,8.4542701 C 13.361765,10.218908 13.354871,10.649846 11.550928,11.342084 C 10.533411,11.732541 10.286206,11.417734 10.720866,10.285028 z M 6.5427051,6.0690983 C 6.2262742,5.5571024 6.3497166,4.9018973 6.8170214,4.613087 C 7.2843263,4.3242767 7.6666667,4.7431824 7.6666667,5.5439887 C 7.6666667,7.2301561 7.3513296,7.3774802 6.5427051,6.0690983 z M 16,1 C 14.718103,0.17157426 14.754453,0.028399045 16.25,0.015312775 C 17.2125,0.0068907485 18,0.45 18,1 C 18,2.2196105 17.887213,2.2196105 16,1 z "
       id="path1907" />
    <path
       style="fill:#99b7c5"
       d="M 8.4706214,18.254763 C 8.6328998,17.289643 9.2683967,16.6125 9.8828366,16.75 C 11.607984,17.136055 11.203298,14.29199 9.4366179,13.614052 C 8.5615239,13.278247 8.1892914,12.502737 8.5911264,11.852554 C 9.0410374,11.124583 8.8719644,10.961096 8.1381966,11.41459 C 7.4942454,11.812574 7.2262742,12.557102 7.5427051,13.069098 C 7.859136,13.581094 7.6414763,14 7.059017,14 C 5.6186404,14 5.7282648,12.752384 7.4623299,9.4099702 C 9.1924221,6.0752141 8.7352016,5.1825627 6.274166,7.0902662 C 4.8113096,8.2242181 4.8380168,8.0696082 6.4263713,6.2091381 C 7.710407,4.7051225 8.6861308,4.2861308 9.3525777,4.9525777 C 10.012114,5.6121136 10.757815,5.6159588 11.543528,4.9638752 C 12.354838,4.2905474 13.123265,4.4435989 13.953411,5.4438639 C 15.244432,6.9994489 14.474196,9.411103 12.981075,8.4883037 C 11.308701,7.4547198 10.001495,11.548735 11.350397,13.595394 C 12.833782,15.846101 12.914288,18.493656 11.5,18.515313 C 10.95,18.523735 9.9770032,18.863378 9.3377848,19.270076 C 8.5890281,19.746466 8.2805344,19.385268 8.4706214,18.254763 z M 11,7.940983 C 11,7.4234424 10.625,7 10.166667,7 C 9.7083333,7 9.3333333,7.6552051 9.3333333,8.4560113 C 9.3333333,9.2568176 9.7083333,9.6802599 10.166667,9.3969943 C 10.625,9.1137288 11,8.4585237 11,7.940983 z M 0.60300566,4.1666667 C 0.31974009,3.7083333 0.72338754,3.3333333 1.5,3.3333333 C 2.2766125,3.3333333 2.6802599,3.7083333 2.3969943,4.1666667 C 1.7454539,5.2208813 1.2545461,5.2208813 0.60300566,4.1666667 z M 18.666667,3.3333333 C 18.3,2.9666667 18.013684,1.9541667 18.030409,1.0833333 C 18.055382,-0.21697355 18.25052,-0.17377427 19.122073,1.3250028 C 20.198846,3.1766926 19.886679,4.5533454 18.666667,3.3333333 z M 2.5,1 C 2.1600813,0.45 2.3585237,1.2267748e-17 2.940983,7.9146759e-18 C 3.5234424,3.5616041e-18 4,0.45 4,1 C 4,2.281385 3.2919395,2.281385 2.5,1 z "
       id="path1905" />
    <path
       style="fill:#a7b3b7"
       d="M 0.69944047,19.366107 C -0.70516305,17.961504 0.045495883,16.792869 1.5501884,18.041653 C 2.8307605,19.104433 3.3898046,19.038767 4.7644741,17.664097 C 6.3166039,16.111968 6.3166039,15.888032 4.7644741,14.335903 C 3.316048,12.887477 2.8670677,12.855076 1.3001884,14.085903 C -0.34237234,15.376179 -0.37982633,15.346767 0.87244472,13.75 C 1.6272893,12.7875 2.5549367,12 2.9338833,12 C 4.4725597,12 8.0907599,16.290205 7.8047197,17.775493 C 7.4874853,19.422758 1.9873686,20.654035 0.69944047,19.366107 z M 13,19.606989 C 13,19.390833 13.698372,18.945987 14.551938,18.618443 C 15.441863,18.276947 15.84326,18.444594 15.492921,19.011454 C 14.905663,19.961658 13,20.416902 13,19.606989 z M 8,15.559017 C 8,15.316476 8.45,14.839919 9,14.5 C 9.55,14.160081 10,14.358524 10,14.940983 C 10,15.523442 9.55,16 9,16 C 8.45,16 8,15.801558 8,15.559017 z M 18,13.059017 C 18,12.476558 18.45,12 19,12 C 20.281385,12 20.281385,12.708061 19,13.5 C 18.45,13.839919 18,13.641476 18,13.059017 z M 5,9.575604 C 5,8.8267095 5.675,7.9549558 6.5,7.6383736 C 7.3807393,7.3004022 8,7.6249041 8,8.424396 C 8,9.1732905 7.325,10.045044 6.5,10.361626 C 5.6192607,10.699598 5,10.375096 5,9.575604 z "
       id="path1903" />
    <path
       style="fill:#97b8ba"
       d="M 8.6290859,19.208865 C 8.3601645,18.773741 9.4165871,18.434702 10.976692,18.455444 C 12.536796,18.476187 13.603708,18.832197 13.347606,19.246579 C 12.731751,20.243053 9.2510554,20.215233 8.6290859,19.208865 z M 11.657991,14.324657 C 11.296096,13.962762 11,13.011567 11,12.210889 C 11,11.016792 11.275356,10.983636 12.531854,12.026436 C 13.876865,13.142697 13.93822,12.967704 13.034876,10.591732 C 12.46902,9.1034159 12.400368,8.1294068 12.882316,8.4272675 C 14.413051,9.3733135 14.840571,12.887425 13.554756,13.954556 C 12.87343,14.520007 12.019886,14.686552 11.657991,14.324657 z M 0.30691922,3.3926595 C 0.19438946,1.3875902 0.51741664,0.20174708 1.0812153,0.55019384 C 1.6132726,0.87902334 1.9046745,2.2227353 1.7287751,3.5362205 C 1.2306973,7.2554932 0.51968259,7.1837039 0.30691922,3.3926595 z M 18.443639,4.6491408 C 17.862641,4.0171133 16.287641,2.7023624 14.943639,1.727472 C 12.523004,-0.028369658 12.529998,-0.030790075 15.686588,1.4703604 C 18.708198,2.9073199 20.616057,4.7380883 19.850136,5.4656719 C 19.657561,5.6486072 19.024638,5.2811682 18.443639,4.6491408 z M 8.3969943,3.8333333 C 8.1137288,3.375 8.556966,3 9.381966,3 C 10.206966,3 11.113729,3.375 11.396994,3.8333333 C 11.68026,4.2916667 11.237023,4.6666667 10.412023,4.6666667 C 9.5870227,4.6666667 8.6802599,4.2916667 8.3969943,3.8333333 z M 3.5642929,1.7068719 C 3.9398243,0.72065149 4.4989848,0.16565149 4.8068719,0.4735386 C 5.114759,0.7814257 4.8075061,1.5883333 4.1240877,2.2666667 C 3.1364719,3.2469339 3.0216083,3.1320704 3.5642929,1.7068719 z "
       id="path1901" />
    <path
       style="fill:#8dc8b0"
       d="M 0.40566776,11.668213 C 0.73255049,10.660729 1,8.938614 1,7.8412895 C 1,4.7251599 6.3414813,6.1408253e-16 9.8640599,-5.7245875e-16 C 11.523908,-1.1315601e-15 13.101958,0.35595455 13.370837,0.79101012 C 13.639716,1.2260657 12.342044,1.4048414 10.48712,1.1882896 C 7.8796733,0.88388485 6.5343634,1.3747275 4.557266,3.3518249 C 3.1507697,4.7583212 1.9931093,6.9420455 1.9846872,8.2045455 C 1.9762652,9.4670455 1.4838157,11.175 0.89035499,12 C -0.0070393952,13.247514 -0.088623981,13.191666 0.40566776,11.668213 z M 4.6069888,11.418213 C 2.9469333,7.0921773 5.8627912,2 10,2 C 12.600188,2 16,5.4332526 16,8.059017 C 16,9.1914763 15.569653,9.8520651 15.043674,9.526992 C 14.517695,9.2019189 14.287968,8.3878612 14.533169,7.717975 C 15.206098,5.8795494 13.77986,4.2338364 10.883739,3.5069564 C 7.1321258,2.5653614 4.6318627,5.3440097 5.3345282,9.6740298 C 5.9121675,13.233603 5.5952085,13.993472 4.6069888,11.418213 z M 18,8.4225062 C 18,7.3348847 17.274895,5.4097805 16.388656,4.144497 C 14.831293,1.9210497 14.845892,1.8868103 16.824442,3.1224353 C 19.203131,4.6079512 20.366388,8.0336118 18.967247,9.4327533 C 18.344251,10.055749 18,9.6961937 18,8.4225062 z "
       id="path1899" />
    <path
       style="fill:#c4161a"
       d="M 0.95834736,17.449812 C -0.1044331,16.16924 -0.038766856,15.610195 1.3359026,14.235526 C 2.8880325,12.683396 3.1119675,12.683396 4.6640974,14.235526 C 6.0387669,15.610195 6.1044331,16.16924 5.0416526,17.449812 C 3.4229817,19.400191 2.5770183,19.400191 0.95834736,17.449812 z "
       id="path1897" />
    <path
       style="fill:#62126b"
       d="M 14.958347,17.449812 C 13.895567,16.16924 13.961233,15.610195 15.335903,14.235526 C 16.888032,12.683396 17.111968,12.683396 18.664097,14.235526 C 20.038767,15.610195 20.104433,16.16924 19.041653,17.449812 C 17.422982,19.400191 16.577018,19.400191 14.958347,17.449812 z "
       id="path1895" />
    <path
       style="fill:#146b25"
       d="M 0.8362802,12.315741 C 1.4763261,11.114399 2,9.1814447 2,8.0202869 C 2,4.8392444 6.3750285,1 10,1 C 13.621785,1 18,4.838361 18,8.0135624 C 18,9.1710218 18.45,9.8399187 19,9.5 C 20.581976,8.5222849 20.162361,10.620363 18.5,12 C 17.303284,12.993186 16.696716,12.993186 15.5,12 C 13.837639,10.620363 13.418024,8.5222849 15,9.5 C 15.55,9.8399187 16,9.1914763 16,8.059017 C 16,5.4332526 12.600188,2 10,2 C 7.3970321,2 4,5.4342531 4,8.0657415 C 4,9.2018993 4.5236739,11.114399 5.1637198,12.315741 C 6.2156919,14.290254 6.1676787,14.368209 4.6637198,13.127555 C 3.2535806,11.964296 2.7464194,11.964296 1.3362802,13.127555 C -0.16767869,14.368209 -0.21569185,14.290254 0.8362802,12.315741 z "
       id="path1893" />
  </g>
</svg>
