<?xml version="1.0" encoding="UTF-8" standalone="no"?>
<!-- Created with Inkscape (http://www.inkscape.org/) -->
<svg
   xmlns:dc="http://purl.org/dc/elements/1.1/"
   xmlns:cc="http://web.resource.org/cc/"
   xmlns:rdf="http://www.w3.org/1999/02/22-rdf-syntax-ns#"
   xmlns:svg="http://www.w3.org/2000/svg"
   xmlns="http://www.w3.org/2000/svg"
   xmlns:xlink="http://www.w3.org/1999/xlink"
   xmlns:sodipodi="http://sodipodi.sourceforge.net/DTD/sodipodi-0.dtd"
   xmlns:inkscape="http://www.inkscape.org/namespaces/inkscape"
   id="svg2"
   sodipodi:version="0.32"
   inkscape:version="0.44"
   width="64"
   height="64"
   version="1.0"
   sodipodi:docbase="/home/kde4/Developpements/C++/ksirk/ksirk/skins/default/Images"
   sodipodi:docname="logoRight.svg">
  <metadata
     id="metadata7">
    <rdf:RDF>
      <cc:Work
         rdf:about="">
        <dc:format>image/svg+xml</dc:format>
        <dc:type
           rdf:resource="http://purl.org/dc/dcmitype/StillImage" />
      </cc:Work>
    </rdf:RDF>
  </metadata>
  <defs
     id="defs5" />
  <sodipodi:namedview
     inkscape:window-height="582"
     inkscape:window-width="928"
     inkscape:pageshadow="2"
     inkscape:pageopacity="0.0"
     guidetolerance="10.0"
     gridtolerance="10.0"
     objecttolerance="10.0"
     borderopacity="1.0"
     bordercolor="#666666"
     pagecolor="#ffffff"
     id="base"
     inkscape:zoom="5.921875"
     inkscape:cx="32"
     inkscape:cy="31.915567"
     inkscape:window-x="666"
     inkscape:window-y="0"
     inkscape:current-layer="svg2" />
  <g
     id="g1891">
    <path
       style="fill:#fefefe"
       d="M 0,32 L 0,0 L 32,0 L 64,0 L 64,32 L 64,64 L 32,64 L 0,64 L 0,32 z M 53.763121,58.60398 L 56.966333,55.207961 L 54.351315,53.494535 C 51.814505,51.832353 47.997401,51.842211 43.75,53.521912 C 42.28212,54.102409 42,53.642004 42,50.666006 C 42,48.714621 42.498476,46.809959 43.107725,46.433422 C 43.794332,46.009076 43.979922,44.275899 43.595907,41.874405 C 43.063881,38.547297 43.237879,38 44.827667,38 C 48.331416,38 50.558025,28.537935 47.626748,26.105192 C 46.077358,24.819312 42.695589,25.698436 43.594771,27.153343 C 43.949987,27.728094 44.684093,27.677143 45.472245,27.023035 C 46.419671,26.236741 46.912218,26.32886 47.31053,27.366845 C 48.190701,29.660535 47.420609,32.5 45.918366,32.5 C 45.153329,32.5 44.375731,33.2875 44.190371,34.25 C 44.00501,35.2125 44.322224,36 44.895291,36 C 45.468358,36 45.660123,35.2125 45.321437,34.25 C 44.839882,32.881489 44.980325,32.753498 45.965689,33.662868 C 47.43378,35.017735 46.528101,37 44.440983,37 C 42.465367,37 42.569918,32.102268 44.561851,31.337892 C 45.854804,30.841739 45.654551,30.248867 43.398705,27.894271 C 40.710656,25.088552 40.695532,24.998806 42.283252,21.274994 C 43.168501,19.198747 43.872366,16.15 43.847398,14.5 C 43.82243,12.85 44.131861,10.221433 44.535023,8.6587397 L 45.268045,5.8174795 L 38.561318,6.1587397 C 32.600831,6.4620288 32.085215,6.347344 33.927295,5.1280279 C 35.067283,4.3734433 36,3.0808432 36,2.2555832 C 36,1.011792 35.73406,0.97582132 34.445404,2.0453109 C 31.204972,4.7346301 30.779086,6.9036949 32.949675,9.6631511 C 35.080369,12.37189 35.732036,17.586256 34.012405,18.166667 C 33.43096,18.362916 33.651508,19.706713 34.548691,21.434248 C 36.506751,25.204514 35.772108,27.003482 32.281385,26.986345 C 28.387187,26.967227 24.927217,25.926783 25.527559,24.955408 C 25.805345,24.505942 25.564134,23.848654 24.991535,23.494769 C 24.418937,23.140883 24.074096,23.447289 24.225223,24.17567 C 24.438971,25.205859 21.984955,25.534866 13.176352,25.656981 C 6.9483454,25.743321 1.640611,26.026056 1.3813865,26.28528 C 0.83355654,26.83311 13.129313,28.031956 20.66918,28.165855 C 24.602089,28.235698 25.713047,28.584212 25.314395,29.623083 C 25.026214,30.374069 24.342688,30.711793 23.795447,30.373579 C 22.012755,29.271815 24.677043,33.369693 27.398286,35.915022 C 29.625764,37.998504 30.324781,38.17305 32.490109,37.186461 C 34.689742,36.184241 35,36.277346 35,37.939651 C 35,42.086903 33.932071,43 29.081573,43 C 22.49966,43 20,45.469381 20,51.971567 C 20,55.90983 19.627168,56.983557 18.090305,57.471338 C 17.039973,57.804701 15.655575,58.71008 15.013866,59.483292 C 14.032319,60.665984 14.805237,60.875547 19.883273,60.803546 C 25.602065,60.722459 25.863055,60.612632 24.847285,58.71465 C 24.068631,57.259722 24.113924,55.684836 25.012747,52.961376 C 26.137609,49.553012 26.489455,49.279985 28.875174,49.9642 C 33.175382,51.197484 33.345419,51.338598 35.545588,55.5 C 36.708747,57.7 38.365512,59.636576 39.227287,59.803503 C 40.089063,59.970429 42.882775,59.125237 45.435537,57.925297 C 50.668162,55.465673 51.843063,55.854262 50.183879,59.495774 C 48.60305,62.965317 49.970845,62.624522 53.763121,58.60398 z M 37.075806,52.699385 C 36.134711,50.224118 36.721585,45.290104 38.05513,44.465928 C 38.504109,44.188443 38.473073,45.35049 37.986161,47.048254 C 37.460852,48.879899 37.476922,51.124202 38.025682,52.567549 C 38.534331,53.905397 38.725498,55 38.450498,55 C 38.175498,55 37.556887,53.964723 37.075806,52.699385 z M 36,40 C 36,39.45 36.45,39 37,39 C 37.55,39 38,39.45 38,40 C 38,40.55 37.55,41 37,41 C 36.45,41 36,40.55 36,40 z M 28.521384,31.023629 C 27.135482,29.492225 27.031772,29.003725 28.095012,29.015313 C 30.614327,29.04277 32.5918,30.8082 31.418012,31.981988 C 30.664319,32.735681 29.817095,32.455374 28.521384,31.023629 z M 35.993708,21.492419 C 34.812264,20.068866 35.6783,15 37.102964,15 C 37.590346,15 37.731102,16.623474 37.415754,18.607719 C 37.026621,21.05625 37.189024,22.001211 37.921198,21.548702 C 38.514539,21.181997 39.031628,19.896024 39.070285,18.690983 C 39.138049,16.578617 39.171409,16.571764 40,18.5 C 41.262223,21.437352 41.19102,21.716784 39.036768,22.280134 C 37.95699,22.562502 36.587613,22.20803 35.993708,21.492419 z M 47,29 C 47,28.45 46.523442,28 45.940983,28 C 45.358524,28 45.160081,28.45 45.5,29 C 46.291939,30.281385 47,30.281385 47,29 z "
       id="path1907" />
    <path
       style="fill:#969892"
       d="M 44,34.7 C 44,33.985 44.54,32.86 45.2,32.2 C 46.002821,31.397179 46.038232,31 45.306989,31 C 44.705833,31 43.915848,30.223087 43.551468,29.273526 C 43.065442,28.006963 43.561505,28.178879 45.413658,29.918886 C 47.818028,32.177674 48.081946,34.786713 45.760963,33.352267 C 45.052578,32.914461 44.88777,33.265151 45.298676,34.335955 C 45.649881,35.25118 45.501354,36 44.968615,36 C 44.435877,36 44,35.415 44,34.7 z M 25.426633,29.11871 C 25.718413,28.646601 23.604285,28.218418 20.728571,28.167193 C 13.137415,28.031972 0.83168144,26.834985 1.3813865,26.28528 C 1.640611,26.026056 6.9483454,25.743321 13.176352,25.656981 C 21.984955,25.534866 24.438971,25.205859 24.225223,24.17567 C 24.074096,23.447289 24.418937,23.140883 24.991535,23.494769 C 25.564134,23.848654 25.773726,24.557102 25.457295,25.069098 C 25.140864,25.581094 25.583524,26 26.440983,26 C 28.461375,26 28.466833,28.606882 26.448062,29.381557 C 25.594496,29.709101 25.134853,29.59082 25.426633,29.11871 z M 37.229479,21.50205 C 37.120099,20.180437 37.494381,18.81249 38.061217,18.462166 C 38.693655,18.071298 38.959916,18.810236 38.750393,20.374794 C 38.286962,23.835351 37.472546,24.438972 37.229479,21.50205 z "
       id="path1905" />
    <path
       style="fill:#896c69"
       d="M 18.25,58.636204 C 19.858237,58.038356 21,56.863692 21,55.806958 C 21,54.813131 21.45,54 22,54 C 22.55,54 23,54.638196 23,55.418213 C 23,56.198229 23.23282,57.443144 23.517377,58.184689 C 23.899553,59.180621 22.919596,59.549355 19.767377,59.595721 C 15.759351,59.654676 15.667132,59.596361 18.25,58.636204 z M 51.561191,58.701134 C 51.925599,57.751502 51.659282,56.294386 50.969375,55.463099 C 49.20737,53.340013 50.261644,52.731246 53.101219,54.232115 L 55.5,55.5 L 53.199316,57.963869 C 51.688783,59.581541 51.126182,59.834749 51.561191,58.701134 z M 30.229439,29.689175 C 26.940116,28.221438 27.517211,27 31.5,27 C 35.283331,27 35.696064,27.446793 33.729439,29.413418 C 32.81606,30.326798 31.832136,30.404319 30.229439,29.689175 z M 40.402292,19.261247 C 40.055972,18.029933 39.37378,17.268991 38.88631,17.570264 C 38.398839,17.871538 38,17.416476 38,16.559017 C 38,14.583851 41.864596,14.483569 42.615066,16.439261 C 42.918829,17.230855 42.686898,18.693355 42.099663,19.689261 C 41.104575,21.376859 40.989143,21.347751 40.402292,19.261247 z "
       id="path1903" />
    <path
       style="fill:#531092"
       d="M 39.632152,58.213826 C 39.277615,57.640173 39.552843,56.935904 40.243769,56.648785 C 40.934696,56.361666 40.424605,56.210731 39.110232,56.313375 C 37.79586,56.416019 36.496958,55.865793 36.223783,55.09065 C 35.907793,54.19402 36.231489,53.874949 37.11355,54.213595 C 38.198696,54.63021 38.421712,53.769463 38.139756,50.252863 C 37.862663,46.796918 38.093483,45.866488 39.139756,46.221888 C 39.994666,46.512286 40.5,48.229137 40.5,50.843262 C 40.5,53.867542 40.909337,55.006412 42,55.016606 C 42.825,55.024317 44.175,55.512771 45,56.102059 C 46.20482,56.962649 46.056766,57.076331 44.247643,56.67975 C 42.850778,56.37354 41.668921,56.769188 41.136025,57.721419 C 40.596694,58.685152 40.036756,58.86849 39.632152,58.213826 z M 21.666667,52.333333 C 20.371097,51.037764 21.023448,47.288755 22.828741,45.654988 C 24.023653,44.573606 26.41272,44 29.721752,44 C 33.300835,44 34.954829,43.560098 35.361626,42.5 C 35.678209,41.675 36.401354,41 36.968615,41 C 38.252671,41 38.326379,44.266137 37.071297,45.55 C 36.56051,46.0725 35.964473,48.075 35.74677,50 L 35.350947,53.5 L 34.547265,50.233959 C 33.904707,47.6227 33.469716,47.195207 32.377538,48.101634 C 31.626213,48.725179 29.851406,49.013587 28.433522,48.742541 C 26.399636,48.353739 25.664966,48.751007 24.952526,50.624865 C 24.049417,53.000222 22.92052,53.587187 21.666667,52.333333 z M 36,35 C 36,34.45 36.45,34 37,34 C 37.55,34 38,34.45 38,35 C 38,35.55 37.55,36 37,36 C 36.45,36 36,35.55 36,35 z "
       id="path1901" />
    <path
       style="fill:#d20e0f"
       d="M 39.160515,42.452947 C 37.754159,39.366332 37.661653,36.327144 38.949827,35.531009 C 40.288862,34.70344 42,38.295644 42,41.934259 C 42,45.663451 40.729096,45.895607 39.160515,42.452947 z M 28.050598,34.823935 C 25.739713,32.343491 27.023872,30.944996 29.627925,33.106169 C 30.94489,34.199153 31.47552,34.021049 33.02591,31.96565 C 34.036428,30.625977 35.215575,29.882241 35.646238,30.312904 C 36.636896,31.303563 35.018892,33.911525 32.289129,35.724019 C 30.410649,36.971284 29.962493,36.876115 28.050598,34.823935 z M 39.329767,34.184017 C 38.076938,33.386656 37.871666,25 39.104979,25 C 39.562717,25 39.700492,25.616931 39.411145,26.370958 C 39.121797,27.124984 39.585921,28.010861 40.442529,28.339573 C 41.299138,28.668285 42,30.049796 42,31.409598 C 42,34.151659 40.966364,35.225626 39.329767,34.184017 z "
       id="path1899" />
    <path
       style="fill:#aa2023"
       d="M 39.491505,44.986255 C 39.111028,44.370631 39.06979,43.596877 39.399864,43.266802 C 39.729939,42.936728 40,43.191667 40,43.833333 C 40,45.917673 41.847134,45.064069 42.344254,42.75 C 42.791351,40.668783 42.815321,40.681661 42.663805,42.921672 C 42.485675,45.555119 40.601106,46.781627 39.491505,44.986255 z M 37.015313,37.44113 C 37.043687,35.697245 38.488313,34.302406 40.25,34.317921 C 41.361623,34.327711 41.988907,35.093307 41.969591,36.416667 C 41.94023,38.42823 41.900877,38.434009 40.827243,36.58443 C 39.746425,34.722472 39.677306,34.720825 38.357652,36.525559 C 37.610943,37.546744 37.006891,37.958751 37.015313,37.44113 z M 34.371281,34.287245 C 35.405211,33.064643 35.96968,31.363371 35.632736,30.485307 C 35.279969,29.566014 35.439611,29.153661 36.011454,29.507079 C 37.645594,30.517033 37.135229,32.575532 34.75,34.595012 L 32.5,36.5 L 34.371281,34.287245 z M 25.964826,33.457618 C 25.074898,32.38532 25.00318,31.59682 25.729514,30.870486 C 26.455848,30.144152 26.97904,30.157069 27.446149,30.912868 C 27.815686,31.51079 27.586376,32 26.936572,32 C 26.056147,32 26.072308,32.3822 27,33.5 C 27.684689,34.325 28.019889,35 27.744889,35 C 27.469889,35 26.668861,34.305928 25.964826,33.457618 z M 37.109531,28.27217 C 35.948119,27.028874 36.061862,26.493693 37.872288,24.683268 C 39.054764,23.500792 40,23.098528 40,23.777778 C 40,24.45 39.55,25 39,25 C 38.45,25 38.006891,25.7875 38.015313,26.75 C 38.028156,28.217765 38.180664,28.262755 38.96094,27.02896 C 39.472613,26.219889 40.103929,25.770596 40.363866,26.030533 C 40.623803,26.290469 40.30503,27.229943 39.655482,28.118252 C 38.621681,29.53206 38.304365,29.551244 37.109531,28.27217 z M 32,5.1236028 C 32,4.6761076 32.9,3.4954863 34,2.5 C 35.13419,1.4735723 36,1.1900249 36,1.8450124 C 36,2.4802556 35.523442,3 34.940983,3 C 34.358524,3 34.130939,3.4028468 34.435239,3.8952152 C 34.73954,4.3875836 34.316097,5.0484604 33.494256,5.3638304 C 32.672415,5.6792004 32,5.571098 32,5.1236028 z "
       id="path1897" />
    <path
       style="fill:#591a65"
       d="M 38,58 C 38,56.718615 38.708061,56.718615 39.5,58 C 39.839919,58.55 39.641476,59 39.059017,59 C 38.476558,59 38,58.55 38,58 z M 41,57.968615 C 41,57.435877 41.675,57 42.5,57 C 44.42067,57 44.42067,57.624596 42.5,58.361626 C 41.675,58.678209 41,58.501354 41,57.968615 z M 45.378688,57.319098 C 45.738353,56.669602 45.498347,55.807995 44.845342,55.404416 C 44.054591,54.915705 44.431614,54.38448 45.974214,53.813835 C 49.284973,52.589106 49.769814,53.692573 47.056821,56.277778 C 45.774183,57.5 45.019024,57.968594 45.378688,57.319098 z M 40.270833,54.395833 C 40.603125,54.063542 41.465625,54.028015 42.1875,54.316886 C 42.985233,54.636112 42.748276,54.873069 41.583333,54.921053 C 40.529167,54.964474 39.938542,54.728125 40.270833,54.395833 z M 35.913475,52.161673 C 36.454589,51.150593 36.682728,49.238093 36.420451,47.911673 C 35.967692,45.621925 35.992118,45.608835 36.903599,47.652768 C 37.959637,50.020859 37.297988,54 35.848185,54 C 35.313792,54 35.341098,53.231169 35.913475,52.161673 z M 30.083333,49.717032 C 30.3125,49.5614 31.4,48.7739 32.5,47.967032 C 34.350006,46.610023 34.397071,46.631245 33.127555,48.25 C 32.372711,49.2125 31.285211,50 30.710889,50 C 30.136567,50 29.854167,49.872665 30.083333,49.717032 z M 39,46 C 38.175,45.466844 37.95,45.030626 38.5,45.030626 C 39.05,45.030626 40.175,45.466844 41,46 C 41.825,46.533156 42.05,46.969374 41.5,46.969374 C 40.95,46.969374 39.825,46.533156 39,46 z M 38.078947,42.583333 C 38.035526,41.529167 38.271875,40.938542 38.604167,41.270833 C 38.936458,41.603125 38.971985,42.465625 38.683114,43.1875 C 38.363888,43.985233 38.126931,43.748276 38.078947,42.583333 z M 36.458881,37.933469 C 36.096348,37.346877 36.014198,36.652469 36.276326,36.390341 C 36.538454,36.128212 37.019392,36.608151 37.345077,37.456872 C 38.021261,39.218979 37.444931,39.52893 36.458881,37.933469 z M 31.666667,8.3333333 C 31.3,7.9666667 31,7.2016667 31,6.6333333 C 31,6.0067293 31.465771,6.0657706 32.183333,6.7833333 C 32.834167,7.4341667 33.134167,8.1991667 32.85,8.4833333 C 32.565833,8.7675 32.033333,8.7 31.666667,8.3333333 z "
       id="path1895" />
    <path
       style="fill:#050202"
       d="M 50.183879,59.495774 C 51.633486,56.314233 50.54353,55.186071 47.704522,56.929509 C 45.509436,58.277513 45.508178,58.274115 47.410536,56.135523 C 49.831804,53.413584 49.085957,52.63869 45.388688,54.034932 C 43.289165,54.8278 42.79677,54.825524 43.586307,54.026604 C 45.631846,51.956753 51.557381,51.663879 54.351315,53.494535 L 56.966333,55.207961 L 53.763121,58.60398 C 49.970845,62.624522 48.60305,62.965317 50.183879,59.495774 z M 53.101219,54.232115 C 50.261644,52.731246 49.20737,53.340013 50.969375,55.463099 C 51.659282,56.294386 51.925599,57.751502 51.561191,58.701134 C 51.126182,59.834749 51.688783,59.581541 53.199316,57.963869 L 55.5,55.5 L 53.101219,54.232115 z M 15.013866,59.483292 C 15.655575,58.71008 17.039973,57.804701 18.090305,57.471338 C 19.615685,56.987202 20.032207,55.822253 20.160037,51.682612 C 20.271405,48.076108 20.44273,47.488372 20.723396,49.75 C 21.166561,53.32107 23.274717,54.07461 24.919901,51.25 C 26.316112,48.852851 26.262173,50.330488 24.839485,53.452947 C 23.99734,55.301253 23.973912,56.647327 24.754084,58.359619 C 25.816779,60.69198 25.75999,60.72022 19.838161,60.804185 C 14.798934,60.875636 14.032486,60.665783 15.013866,59.483292 z M 23.517377,58.184689 C 23.23282,57.443144 23,56.198229 23,55.418213 C 23,54.638196 22.55,54 22,54 C 21.45,54 21,54.813131 21,55.806958 C 21,56.863692 19.858237,58.038356 18.25,58.636204 C 15.667132,59.596361 15.759351,59.654676 19.767377,59.595721 C 22.919596,59.549355 23.899553,59.180621 23.517377,58.184689 z M 36.587912,57.493827 C 35.684753,56.115431 34.508841,53.838353 33.974775,52.433652 C 33.343433,50.773098 32.565812,50.142764 31.751873,50.631784 C 30.994177,51.087013 31.077696,50.672731 31.963449,49.582305 C 33.326231,47.904622 33.517725,48.04619 34.747302,51.640347 C 35.473524,53.763156 36.734721,56.383421 37.54996,57.463158 C 38.855963,59.19288 39.416751,59.28564 42.266107,58.243259 C 45.191934,57.172902 45.315085,57.200228 43.55887,58.530101 C 40.726955,60.674538 38.450234,60.33609 36.587912,57.493827 z M 41.194949,51.5 C 41.174569,49.85 41.382014,49.053936 41.655937,49.730968 C 41.92986,50.408001 41.946534,51.758001 41.692991,52.730968 C 41.439447,53.703936 41.215328,53.15 41.194949,51.5 z M 26.557637,49.093259 C 26.249419,48.594551 26.897861,48.422035 27.99862,48.70989 C 30.333607,49.320503 30.628767,50 28.559017,50 C 27.766476,50 26.865855,49.591966 26.557637,49.093259 z M 41.68032,46.5 C 43.107579,43.667464 42.394107,28.861606 40.782352,27.865486 C 40.077058,27.429591 39.6125,26.831535 39.75,26.536475 C 39.8875,26.241414 40,25.225 40,24.277778 C 40,22.830982 39.640169,22.929666 37.75,24.894841 C 36.186704,26.520173 35.881502,27.376433 36.75,27.700397 C 38.227681,28.251595 38.455807,34 37,34 C 36.45,34 36,35.379584 36,37.065741 C 36,42.515707 34.506737,44 29.023833,44 C 26.325644,44 23.839919,44.45 23.5,45 C 23.160081,45.55 22.372515,46 21.749853,46 C 21.127191,46 21.491249,45.339312 22.55887,44.531803 C 23.626492,43.724295 26.589355,43.049295 29.143011,43.031803 C 33.922425,42.999066 35,42.062206 35,37.939651 C 35,36.269759 34.695191,36.181758 32.451736,37.203944 C 30.173449,38.242002 29.572573,38.034112 26.780163,35.241702 C 24.106732,32.568271 23.847225,31.889009 24.978517,30.525885 C 26.176576,29.082313 26.503156,29.124062 28.47051,30.972295 L 30.640838,33.011213 L 32.705484,30.755606 C 35.68936,27.495749 36.24403,24.698981 34.553071,21.439655 C 33.511534,19.432092 33.395109,18.373843 34.16353,17.898933 C 35.202047,17.257094 35.044005,15.247517 33.444021,8.75 L 32.766846,6 L 39,6 L 45.233154,6 L 44.510226,8.75 C 44.112615,10.2625 43.808337,13.036709 43.834051,14.914909 C 43.859766,16.793108 43.200065,19.646224 42.368049,21.255166 C 40.358865,25.140499 41.199103,27.498994 44.049086,25.97373 C 45.598514,25.144501 46.493524,25.164699 47.563922,26.053051 C 50.547815,28.529462 48.378742,38 44.827667,38 C 43.244265,38 43.064256,38.549643 43.583731,41.798257 C 44.050845,44.719429 43.78485,45.931748 42.431828,47.048257 C 40.827759,48.37193 40.761463,48.323564 41.68032,46.5 z M 34.611695,34.657583 C 36.609903,32.938797 37.137701,31.807302 36.594154,30.407583 C 35.907767,28.64003 35.671114,28.710776 33.370297,31.371331 L 30.887203,34.242661 L 28.549098,32.046125 C 25.357832,29.048087 24.022133,31.330206 27.069545,34.574028 C 29.910003,37.597556 31.177448,37.611597 34.611695,34.657583 z M 47.20285,34.454138 C 48.213197,32.236668 48.049194,31.594732 45.931411,29.477514 L 43.5,27.046751 L 43.289144,32.023375 C 43.127063,35.84879 43.421177,37 44.560582,37 C 45.375845,37 46.564865,35.854362 47.20285,34.454138 z M 47.129167,26.729167 C 45.464304,25.064304 44.521381,26.718373 46.070948,28.585487 C 47.008125,29.714717 47.550141,29.849577 47.825949,29.022153 C 48.045427,28.363719 47.731875,27.331875 47.129167,26.729167 z M 42.525553,18.919489 C 43.386858,16.205759 42.308573,15 39.020438,15 C 36.661494,15 36.044521,15.520811 35.50762,17.965306 C 34.585105,22.165491 36.641257,24.281163 39.698785,22.277794 C 40.92156,21.476601 42.193605,19.965364 42.525553,18.919489 z "
       id="path1893" />
  </g>
</svg>
