<?xml version="1.0" encoding="UTF-8" standalone="no"?>
<!-- Created with Inkscape (http://www.inkscape.org/) -->
<svg
   xmlns:dc="http://purl.org/dc/elements/1.1/"
   xmlns:cc="http://web.resource.org/cc/"
   xmlns:rdf="http://www.w3.org/1999/02/22-rdf-syntax-ns#"
   xmlns:svg="http://www.w3.org/2000/svg"
   xmlns="http://www.w3.org/2000/svg"
   xmlns:xlink="http://www.w3.org/1999/xlink"
   xmlns:sodipodi="http://sodipodi.sourceforge.net/DTD/sodipodi-0.dtd"
   xmlns:inkscape="http://www.inkscape.org/namespaces/inkscape"
   id="svg20"
   sodipodi:version="0.32"
   inkscape:version="0.44"
   width="20"
   height="20"
   version="1.0"
   sodipodi:docbase="/home/kde4/Developpements/C++/ksirk/ksirk/skins/default/Images"
   sodipodi:docname="moveBackOne.svg">
  <metadata
     id="metadata25">
    <rdf:RDF>
      <cc:Work
         rdf:about="">
        <dc:format>image/svg+xml</dc:format>
        <dc:type
           rdf:resource="http://purl.org/dc/dcmitype/StillImage" />
      </cc:Work>
    </rdf:RDF>
  </metadata>
  <defs
     id="defs23" />
  <sodipodi:namedview
     inkscape:window-height="582"
     inkscape:window-width="928"
     inkscape:pageshadow="2"
     inkscape:pageopacity="0.0"
     guidetolerance="10.0"
     gridtolerance="10.0"
     objecttolerance="10.0"
     borderopacity="1.0"
     bordercolor="#666666"
     pagecolor="#ffffff"
     id="base"
     inkscape:zoom="18.95"
     inkscape:cx="10"
     inkscape:cy="9.9736148"
     inkscape:window-x="666"
     inkscape:window-y="0"
     inkscape:current-layer="svg20" />
  <g
     id="g2026">
    <path
       style="fill:#a7c2d0"
       d="M 15.078947,11.583333 C 15.035526,10.529167 15.271875,9.9385417 15.604167,10.270833 C 15.936458,10.603125 15.971985,11.465625 15.683114,12.1875 C 15.363888,12.985233 15.126931,12.748276 15.078947,11.583333 z "
       id="path2042" />
    <path
       style="fill:#a5b8d4"
       d="M 11.481411,19.138197 C 11.940308,18.33165 11.694322,17.420486 10.878115,16.903509 C 9.9720494,16.329617 9.9079505,16.02538 10.690983,16.015313 C 12.562878,15.991245 13.355061,18.054868 11.966163,19.337132 C 10.99178,20.236706 10.882024,20.191664 11.481411,19.138197 z M 11.5,1 C 11.160081,0.45 11.331966,4.6615272e-17 11.881966,8.4242509e-17 C 12.431966,1.2186975e-16 13.160081,0.45 13.5,1 C 13.839919,1.55 13.668034,2 13.118034,2 C 12.568034,2 11.839919,1.55 11.5,1 z "
       id="path2040" />
    <path
       style="fill:#a4b6c7"
       d="M 7,18 C 7,16.9 7.4078712,16 7.9063804,16 C 8.4048896,16 8.5774055,16.9 8.289749,18 C 7.6192758,20.563894 7,20.563894 7,18 z M 15,16.059017 C 15,15.541476 15.45,14.839919 16,14.5 C 16.55,14.160081 17,14.583524 17,15.440983 C 17,16.298442 16.55,17 16,17 C 15.45,17 15,16.576558 15,16.059017 z M 16.157895,9 C 16.157895,7.625 16.384868,7.0625 16.662281,7.75 C 16.939693,8.4375 16.939693,9.5625 16.662281,10.25 C 16.384868,10.9375 16.157895,10.375 16.157895,9 z M 7.5,9 C 7.1600813,8.45 7.3585237,8 7.940983,8 C 8.5234424,8 9,8.45 9,9 C 9,10.281385 8.2919395,10.281385 7.5,9 z M 0,8 C 0,6.718615 0.70806053,6.718615 1.5,8 C 1.8399187,8.55 1.6414763,9 1.059017,9 C 0.47655765,9 0,8.55 0,8 z M 16,5.1076497 C 16,4.4335237 15.581094,4.140864 15.069098,4.4572949 C 14.557102,4.7737258 13.812574,4.5057546 13.41459,3.8618034 C 12.962667,3.1305763 13.124452,2.9588815 13.845492,3.4045085 C 14.490929,3.8034109 15.013408,3.540834 15.030409,2.809017 C 15.048395,2.0347716 15.494371,2.2455668 16.122073,3.3250028 C 16.705763,4.3287544 16.917079,5.4162544 16.591664,5.7416695 C 16.266249,6.0670846 16,5.7817757 16,5.1076497 z M 8,4 C 6.7181026,3.1715743 6.754453,3.028399 8.25,3.0153128 C 9.2125,3.0068907 10,3.45 10,4 C 10,5.2196105 9.8872126,5.2196105 8,4 z M 1.4427019,2.581761 C 0.37594539,1.8017296 -0.16006295,0.82672962 0.25157229,0.41509438 C 0.66320753,0.003459136 1,0.19166667 1,0.83333333 C 1,1.475 1.675,2 2.5,2 C 3.325,2 4,2.45 4,3 C 4,4.3091152 3.7488193,4.2680353 1.4427019,2.581761 z "
       id="path2038" />
    <path
       style="fill:#9ab6d1"
       d="M 4.732629,18.559945 C 2.9641083,17.253261 3.2732979,14 5.1660058,14 C 5.6896213,14 5.8636726,14.411565 5.5527864,14.91459 C 5.2419002,15.417614 5.4917067,15.997236 6.1079119,16.202637 C 6.7241171,16.408039 7.0644209,17.316274 6.8641425,18.220937 C 6.5559253,19.613163 6.2285658,19.665228 4.732629,18.559945 z M 11.458881,18.933469 C 10.432818,17.273264 11.353769,17.043045 12.789427,18.600859 C 13.498611,19.370387 13.637669,20 13.098444,20 C 12.559218,20 11.821415,19.520061 11.458881,18.933469 z M 4.5121323,3.0196305 C 4.106305,2.3629882 4.2242646,1.3757354 4.7742646,0.82573542 C 6.0774825,-0.47748247 7.1133424,1.1985741 6.059017,2.9045085 C 5.4443569,3.8990494 5.0727359,3.9267061 4.5121323,3.0196305 z "
       id="path2036" />
    <path
       style="fill:#9bb6c6"
       d="M 0.66666667,19.333333 C -0.5694617,18.097205 -0.012107127,15.218624 1.5817875,14.606989 C 3.9647558,13.692558 4.6898291,13.905079 3,15.022671 C 1.7289649,15.863288 1.8816082,16.315486 4,17.985123 L 6.5,19.955528 L 3.9166667,19.977764 C 2.4958333,19.989994 1.0333333,19.7 0.66666667,19.333333 z M 10.078947,18.583333 C 10.035526,17.529167 10.271875,16.938542 10.604167,17.270833 C 10.936458,17.603125 10.971985,18.465625 10.683114,19.1875 C 10.363888,19.985233 10.126931,19.748276 10.078947,18.583333 z M 17.614768,17.185698 C 17.26539,16.620392 16.802398,12.522349 16.585896,8.078935 C 16.224649,0.66480024 16.348923,-1.6932902e-15 18.096129,-8.8297425e-16 C 19.8055,-9.0204672e-17 19.998436,0.7917402 19.984687,7.75 C 19.969804,15.282832 18.949459,19.345274 17.614768,17.185698 z M 4.5610315,13.067439 C 3.5991126,12.004531 2.2543682,11.348895 1.5727107,11.610472 C 0.89105313,11.872048 0.33333333,11.372336 0.33333333,10.5 C 0.33333333,9.6276639 0.90425989,9.1330195 1.602059,9.4007901 C 2.2998582,9.6685608 3.0209425,9.4371725 3.2044687,8.886594 C 3.3879948,8.3360155 4.3547989,8.1989187 5.3529221,8.5819345 C 6.7827502,9.1306111 6.8847618,9.460924 5.8338458,10.139163 C 4.7421671,10.84371 4.7723334,11.178775 6,11.984687 C 6.825,12.526265 7.05,12.983156 6.5,13 C 5.95,13.016844 6.175,13.466844 7,14 C 7.825,14.533156 8.0072444,14.976265 7.4049876,14.984687 C 6.8027307,14.993109 5.5229505,14.130348 4.5610315,13.067439 z M 1.4271599e-17,3.059017 C 2.2120978e-17,2.5414763 0.44484552,1.8431043 0.9885456,1.5070792 C 1.5554057,1.1567404 1.7230531,1.5581371 1.3815568,2.4480622 C 0.71676593,4.1804795 -7.5446568e-18,4.4974491 1.4271599e-17,3.059017 z M 6.5642929,1.7068719 C 6.9398243,0.72065149 7.4989848,0.16565149 7.8068719,0.4735386 C 8.114759,0.7814257 7.8075061,1.5883333 7.1240877,2.2666667 C 6.1364719,3.2469339 6.0216083,3.1320704 6.5642929,1.7068719 z M 10.333333,1.5439887 C 10.333333,0.74318244 10.715674,0.32427667 11.182979,0.61308697 C 11.650283,0.90189727 11.773726,1.5571024 11.457295,2.0690983 C 10.64867,3.3774802 10.333333,3.2301561 10.333333,1.5439887 z "
       id="path2034" />
    <path
       style="fill:#a6b7b9"
       d="M 15.030626,14.5 C 15.030626,13.95 15.466844,12.825 16,12 C 16.533156,11.175 16.969374,10.95 16.969374,11.5 C 16.969374,12.05 16.533156,13.175 16,14 C 15.466844,14.825 15.030626,15.05 15.030626,14.5 z M 9.4588815,12.933469 C 8.3989472,11.218459 9.3481385,11.050179 11.442702,12.581761 C 13.064787,13.767859 13.115111,14 11.750147,14 C 10.852485,14 9.8214154,13.520061 9.4588815,12.933469 z M 10.289889,10.200323 C 9.4030423,9.6367129 9.548938,9.1382761 10.836036,8.33447 C 12.269833,7.439049 12.618312,7.5830638 12.733998,9.1188343 C 12.885802,11.134083 12.221616,11.427977 10.289889,10.200323 z M 15.232003,7 C 15.232003,5.075 15.437798,4.2875 15.689326,5.25 C 15.940853,6.2125 15.940853,7.7875 15.689326,8.75 C 15.437798,9.7125 15.232003,8.925 15.232003,7 z M 4.5,7.9451534 C 2.7540011,7.242753 2.8492515,7.1316443 5.25,7.0702853 C 7.9630026,7.0009456 8.7142109,7.4687853 7.25,8.3158511 C 6.8375,8.554488 5.6,8.387674 4.5,7.9451534 z "
       id="path2032" />
    <path
       style="fill:#98b7bb"
       d="M 15.41459,18.861803 C 14.983298,18.163958 15.122865,17.957901 15.760081,18.351722 C 16.348085,18.715129 17.057088,18.447157 17.335642,17.756231 C 17.698141,16.857089 17.864546,16.838542 17.921053,17.690983 C 18.035126,19.411864 16.265446,20.238518 15.41459,18.861803 z M 8,18.559017 C 8,18.316476 8.45,17.839919 9,17.5 C 9.55,17.160081 10,17.358524 10,17.940983 C 10,18.523442 9.55,19 9,19 C 8.45,19 8,18.801558 8,18.559017 z M 0.86315259,14.105738 C 2.0140227,13.376595 2.0140227,13.15768 0.86315259,12.699998 C 0.077996198,12.387754 0.45403219,12.12442 1.75,12.078947 C 4.3329142,11.988319 4.7670287,13.491686 2.4182125,14.393011 C 0.13390983,15.26958 -0.7237598,15.111139 0.86315259,14.105738 z M 7.5,13 C 7.1600813,12.45 7.331966,12 7.881966,12 C 8.431966,12 9.1600813,12.45 9.5,13 C 9.8399187,13.55 9.668034,14 9.118034,14 C 8.568034,14 7.8399187,13.55 7.5,13 z M 0.60300566,7.1666667 C 0.31974009,6.7083333 0.72338754,6.3333333 1.5,6.3333333 C 2.2766125,6.3333333 2.6802599,6.7083333 2.3969943,7.1666667 C 1.7454539,8.2208813 1.2545461,8.2208813 0.60300566,7.1666667 z M 5.5663765,6.1022173 C 4.5028836,5.6857506 4.0578464,5.082283 4.5774049,4.7611781 C 5.0969635,4.4400733 6.3906024,4.8124471 7.4521581,5.5886756 C 9.523981,7.1036295 8.6979904,7.3285657 5.5663765,6.1022173 z M 9.1395083,2.8517805 C 7.5020889,0.22985532 7.9327443,-0.14154542 10.819173,1.4032242 C 12.712557,2.4165325 12.887294,2.8486486 11.776462,3.7705567 C 10.727524,4.6410982 10.126087,4.4315434 9.1395083,2.8517805 z M 14,1.559017 C 14,1.3164763 14.45,0.83991869 15,0.5 C 15.55,0.16008131 16,0.35852366 16,0.94098301 C 16,1.5234424 15.55,2 15,2 C 14.45,2 14,1.8015576 14,1.559017 z "
       id="path2030" />
    <path
       style="fill:#010506"
       d="M 12.615109,17.439374 C 12.250591,16.489454 11.351907,16.034719 10.491571,16.364861 C 9.6712068,16.679664 9,16.459225 9,15.874996 C 9,15.290766 9.9183465,14.572608 11.04077,14.279087 C 12.972948,13.773812 12.98625,13.678767 11.29077,12.492918 C 10.305847,11.804046 8.6,10.975451 7.5,10.651596 C 6.4,10.327741 7.2272646,10.251807 9.3383658,10.482853 C 12.44509,10.822865 13.066765,10.61637 12.59982,9.3995314 C 12.273009,8.5478739 12.451458,8.1609825 13.011454,8.5070792 C 13.555154,8.8431043 14,8.6414763 14,8.059017 C 14,7.4765576 13.55,7 13,7 C 12.45,7 12,6.3391232 12,5.5313848 C 12,4.645697 12.587371,4.288165 13.47981,4.6306261 C 14.610397,5.0644728 14.899955,6.6947777 14.706793,11.538925 C 14.44355,18.140599 13.694754,20.252883 12.615109,17.439374 z M 1.1101135,6.6326787 C 0.24110291,5.5855849 0.3744834,4.9415331 1.6796272,3.8826787 C 2.6169865,3.1222054 3.0751202,3.0153468 2.697702,3.6452152 C 1.7647151,5.2022651 4.3349978,6.046125 8.2609378,5.4717035 L 11.5,4.9977822 L 8.5,5.9830484 C 6.85,6.5249448 4.6561468,6.7022335 3.6247706,6.3770234 C 2.4010071,5.9911502 1.9872525,6.1703571 2.4337876,6.8928661 C 3.3987002,8.4541274 2.4703335,8.2716435 1.1101135,6.6326787 z "
       id="path2028" />
  </g>
</svg>
