<?xml version="1.0" encoding="UTF-8" standalone="no"?>
<!-- Created with Inkscape (http://www.inkscape.org/) -->
<svg
   xmlns:dc="http://purl.org/dc/elements/1.1/"
   xmlns:cc="http://web.resource.org/cc/"
   xmlns:rdf="http://www.w3.org/1999/02/22-rdf-syntax-ns#"
   xmlns:svg="http://www.w3.org/2000/svg"
   xmlns="http://www.w3.org/2000/svg"
   xmlns:xlink="http://www.w3.org/1999/xlink"
   xmlns:sodipodi="http://sodipodi.sourceforge.net/DTD/sodipodi-0.dtd"
   xmlns:inkscape="http://www.inkscape.org/namespaces/inkscape"
   id="svg29"
   sodipodi:version="0.32"
   inkscape:version="0.44"
   width="20"
   height="20"
   version="1.0"
   sodipodi:docbase="/home/kde4/Developpements/C++/ksirk/ksirk/skins/default/Images"
   sodipodi:docname="moveBackTen.svg">
  <metadata
     id="metadata34">
    <rdf:RDF>
      <cc:Work
         rdf:about="">
        <dc:format>image/svg+xml</dc:format>
        <dc:type
           rdf:resource="http://purl.org/dc/dcmitype/StillImage" />
      </cc:Work>
    </rdf:RDF>
  </metadata>
  <defs
     id="defs32" />
  <sodipodi:namedview
     inkscape:window-height="582"
     inkscape:window-width="928"
     inkscape:pageshadow="2"
     inkscape:pageopacity="0.0"
     guidetolerance="10.0"
     gridtolerance="10.0"
     objecttolerance="10.0"
     borderopacity="1.0"
     bordercolor="#666666"
     pagecolor="#ffffff"
     id="base"
     inkscape:zoom="18.95"
     inkscape:cx="10"
     inkscape:cy="9.9736148"
     inkscape:window-x="0"
     inkscape:window-y="543"
     inkscape:current-layer="svg29" />
  <g
     id="g2080">
    <path
       style="fill:#a8c2cc"
       d="M 17,9.6069888 C 17,9.3908326 17.698372,8.9459871 18.551938,8.6184432 C 19.441863,8.2769469 19.84326,8.4445943 19.492921,9.0114544 C 18.905663,9.9616577 17,10.416902 17,9.6069888 z M 12.92569,6.75 C 12.373527,4.8923691 12.087502,1.7541686 12.508749,2.1754152 C 13.226616,2.8932827 14.021501,7 13.442582,7 C 13.199162,7 12.96656,6.8875 12.92569,6.75 z "
       id="path2096" />
    <path
       style="fill:#a3b7c5"
       d="M 3.7088492,19.375516 C 2.1949454,17.861612 3.1293849,16.97809 6.0121229,17.197747 C 7.6687905,17.323981 8.8710429,17.893629 8.683795,18.463631 C 8.2730344,19.71403 4.7019305,20.368597 3.7088492,19.375516 z M 10.015313,19.161516 C 10.06199,17.14503 11.573198,16.300198 12.789427,17.610665 C 13.498611,18.374799 13.948611,19.03443 13.789427,19.076511 C 11.593934,19.6569 10.003016,19.692732 10.015313,19.161516 z M 14,17 C 13.175,16.466844 12.95,16.030626 13.5,16.030626 C 14.05,16.030626 15.175,16.466844 16,17 C 16.825,17.533156 17.05,17.969374 16.5,17.969374 C 15.95,17.969374 14.825,17.533156 14,17 z M 2.75,9.3377193 C 3.4375,9.060307 4.5625,9.060307 5.25,9.3377193 C 5.9375,9.6151316 5.375,9.8421053 4,9.8421053 C 2.625,9.8421053 2.0625,9.6151316 2.75,9.3377193 z M 4.0196659,5.0121542 C 2.7782624,4.2449246 2.8240355,4.0047543 4.3211532,3.4302564 C 6.4076393,2.6295965 7.7700374,3.6299626 6.4249741,4.9750259 C 5.8569547,5.5430453 4.902504,5.5577782 4.0196659,5.0121542 z M 17,4.5 C 17,3.675 17.675,3 18.5,3 C 19.325,3 20,3.675 20,4.5 C 20,5.325 19.325,6 18.5,6 C 17.675,6 17,5.325 17,4.5 z M 8.9726201,3.5329907 C 9.5281355,2.8636356 9.6865523,2.0198856 9.3246574,1.6579907 C 8.9627625,1.2960958 8.8666583,1 9.1110925,1 C 9.3555267,1 10.27796,1.84375 11.160943,2.875 C 12.666627,4.6335103 12.617144,4.75 10.36448,4.75 C 8.5910778,4.75 8.2268793,4.4315535 8.9726201,3.5329907 z "
       id="path2094" />
    <path
       style="fill:#9ab7c6"
       d="M 0,18 C 0,16.695652 0.66666667,16 1.9166667,16 C 2.9708333,16 4.060307,15.4375 4.3377193,14.75 C 4.6390359,14.003259 4.87389,14.204562 4.9210526,15.25 C 4.9644737,16.2125 4.501855,17 3.8930112,17 C 3.2841674,17 3.0450442,17.675 3.3616264,18.5 C 3.753148,19.520289 3.3076527,20 1.9686152,20 C 0.66666667,20 0,19.322705 0,18 z M 13.333333,18.5 C 13.333333,16.78477 13.306026,16.796467 15.418213,17.606989 C 17.580038,18.436559 17.415694,20 15.166667,20 C 14.158333,20 13.333333,19.325 13.333333,18.5 z M 0.16755376,9.4182188 C 0.034882655,7.4482392 0.32397126,6.0821913 0.80997287,6.3825568 C 1.8763864,7.0416366 2.1712962,13 1.1375039,13 C 0.7367024,13 0.30022486,11.388198 0.16755376,9.4182188 z M 15.75,8.304452 C 14.7875,8.0563468 13.94375,7.4363475 13.875,6.9266758 C 13.80625,6.4170041 13.6375,5.55 13.5,5 C 13.3625,4.45 13.19375,3.6086187 13.125,3.1302639 C 13.05625,2.651909 12.02743,2.314409 10.838734,2.3802639 C 9.6500383,2.4461187 8.6000383,2.05 8.505401,1.5 C 8.4107638,0.95 8.5154241,0.82127224 8.7379794,1.2139383 C 8.9605348,1.6066044 9.9993718,1.3928297 11.046506,0.73888355 C 12.625881,-0.24745244 13.204861,-0.11347271 14.44339,1.5249452 C 15.783097,3.2972084 15.939659,3.3203162 15.968197,1.75 C 16.00759,-0.41762931 20,-0.66518666 20,1.5 C 20,2.325 19.325,3 18.5,3 C 17.675,3 17,3.675 17,4.5 C 17,5.325 17.7125,6 18.583333,6 C 19.454167,6 19.988542,6.534375 19.770833,7.1875 C 19.301334,8.5959978 18.136415,8.9196021 15.75,8.304452 z M 3.75,2.2507399 C 1.1201889,1.6535651 1.6463311,0.25 4.5,0.25 C 5.875,0.25 7,0.61719235 7,1.065983 C 7,2.2504653 5.7521012,2.705375 3.75,2.2507399 z "
       id="path2092" />
    <path
       style="fill:#a5b4b9"
       d="M 6.25,17.266723 C 4.8293078,16.774152 4.5178252,12 5.9063804,12 C 6.4048896,12 6.5774055,12.9 6.289749,14 C 5.9857603,15.162455 6.2590667,16 6.9423856,16 C 7.5889922,16 7.859136,15.581094 7.5427051,15.069098 C 6.5495837,13.462194 9.0090349,12.76394 10.731036,14.16391 C 12.154417,15.321106 12.286648,15.265686 11.718616,13.75 C 10.839686,11.404743 12.267465,11.533077 14.5,14 C 16.84091,16.586676 19.51936,16.783892 17.895337,14.25 C 16.125309,11.488303 10.195906,7.9589675 9.6346136,9.3330013 C 9.3724182,9.9748506 9.1292592,10.05 9.0942601,9.5 C 9.0592611,8.95 9.4822862,7.825 10.034316,7 C 10.911797,5.6886176 11.206661,5.7200539 12.379246,7.25 C 13.116927,8.2125 14.233376,9 14.860243,9 C 15.487109,9 16,9.4196755 16,9.9326123 C 16,10.445549 16.904723,11.152373 18.010496,11.503331 C 20.954441,12.437703 20.50297,18.039676 17.54468,17.283296 C 13.912127,16.354519 8.5193723,16.161146 8.002723,16.941141 C 7.7262254,17.358575 6.9375,17.505087 6.25,17.266723 z M 10.5,15 C 10.160081,14.45 9.3460237,14.006891 8.690983,14.015313 C 7.9753674,14.024514 8.0987081,14.41754 9,15 C 10.921123,16.241525 11.267305,16.241525 10.5,15 z M 6,9.559017 C 6,9.3164763 6.45,8.8399187 7,8.5 C 7.55,8.1600813 8,8.3585237 8,8.940983 C 8,9.5234424 7.55,10 7,10 C 6.45,10 6,9.8015576 6,9.559017 z M 2.6030057,6.8333333 C 3.270485,5.753329 5,5.753329 5,6.8333333 C 5,7.2916667 4.3447949,7.6666667 3.5439887,7.6666667 C 2.7431824,7.6666667 2.3197401,7.2916667 2.6030057,6.8333333 z M 0.35223797,4.8058074 C 0.55502723,3.4241158 1.866663,2.5333297 2.6074993,3.274166 C 2.8499573,3.5166239 2.3985891,4.2542373 1.604459,4.9133067 C 0.46977249,5.8550129 0.20162585,5.8319933 0.35223797,4.8058074 z "
       id="path2090" />
    <path
       style="fill:#98b5ba"
       d="M 8.5642929,18.706872 C 8.9398243,17.720651 9.4989848,17.165651 9.8068719,17.473539 C 10.114759,17.781426 9.8075061,18.588333 9.1240877,19.266667 C 8.1364719,20.246934 8.0216083,20.13207 8.5642929,18.706872 z M 1.1642869,14.302046 C 1.7485666,13.598032 2.6256256,13.268624 3.1133068,13.570027 C 4.7012702,14.551443 4.0478577,15.879307 2.0509801,15.728887 C 0.58633195,15.618558 0.36597034,15.263959 1.1642869,14.302046 z M 17.553552,11.097719 C 15.650472,10.352979 15.652329,10.324181 17.636885,9.8052077 C 18.943306,9.4635708 19.666667,9.7600721 19.666667,10.637204 C 19.666667,11.386742 19.629167,11.968372 19.583333,11.929715 C 19.5375,11.891058 18.624098,11.51666 17.553552,11.097719 z M 6.6350813,3.2185661 C 6.3583679,2.7708344 6.4896501,1.8257635 6.9268196,1.1184085 C 7.547701,0.11380112 7.8520097,0.17196024 8.3171626,1.3841292 C 8.9464583,3.0240475 7.4939031,4.608169 6.6350813,3.2185661 z M 0,1 C 0,0.45 0.45,0 1,0 C 1.55,0 2,0.45 2,1 C 2,1.55 1.55,2 1,2 C 0.45,2 0,1.55 0,1 z M 14,1 C 14,0.45 14.45,0 15,0 C 15.55,0 16,0.45 16,1 C 16,1.55 15.55,2 15,2 C 14.45,2 14,1.55 14,1 z "
       id="path2088" />
    <path
       style="fill:#564d4c"
       d="M 8.0833333,16.717032 C 8.3125,16.5614 9.4,15.7739 10.5,14.967032 C 12.350006,13.610023 12.397071,13.631245 11.127555,15.25 C 10.372711,16.2125 9.2852107,17 8.7108886,17 C 8.1365665,17 7.8541667,16.872665 8.0833333,16.717032 z M 13.542705,13.069098 C 13.226274,12.557102 13.424717,11.855545 13.983688,11.510081 C 14.54266,11.164618 15,11.385081 15,12 C 15,12.614919 15.519529,12.796948 16.154508,12.404508 C 16.869808,11.962429 17.037571,12.130192 16.595492,12.845492 C 15.734592,14.238456 14.329036,14.341408 13.542705,13.069098 z M 3.5,11 C 3.1600813,10.45 3.331966,10 3.881966,10 C 4.431966,10 5.1600813,10.45 5.5,11 C 5.8399187,11.55 5.668034,12 5.118034,12 C 4.568034,12 3.8399187,11.55 3.5,11 z "
       id="path2086" />
    <path
       style="fill:#5e4536"
       d="M 6.3829359,14.810586 C 6.0042685,14.19789 6.5506985,13.029319 7.5972248,12.213764 C 9.1745132,10.984586 9.206125,10.832006 7.782025,11.321793 C 6.8371388,11.646766 5.8292305,11.532706 5.5422289,11.068328 C 4.5984964,9.5413365 11.404896,9.1140812 12.964286,10.602426 C 14.244455,11.824271 14.205599,12 12.655269,12 C 11.679952,12 11.119413,12.384197 11.409626,12.853772 C 11.699839,13.323347 10.842467,14.206377 9.5043542,14.816062 C 7.7205636,15.628812 6.887724,15.627351 6.3829359,14.810586 z M 9.5264614,13.193128 C 9.2185743,12.885241 8.4116667,13.192494 7.7333333,13.875912 C 6.7530661,14.863528 6.8679296,14.978392 8.2931281,14.435707 C 9.2793485,14.060176 9.8343485,13.501015 9.5264614,13.193128 z M 15.923489,15.75 C 15.881408,15.6125 15.69052,14.673627 15.499294,13.663615 C 15.168033,11.913973 15.242501,11.909485 17.075805,13.568603 C 18.134112,14.526358 19,15.465231 19,15.654988 C 19,16.045266 16.041813,16.136624 15.923489,15.75 z "
       id="path2084" />
    <path
       style="fill:#01040d"
       d="M 2.1101135,6.6326787 C 1.2411029,5.5855849 1.3744834,4.9415331 2.6796272,3.8826787 C 3.6169865,3.1222054 4.0751202,3.0153468 3.697702,3.6452152 C 2.7647151,5.2022651 5.3349978,6.046125 9.2609378,5.4717035 L 12.5,4.9977822 L 9.5,5.9830484 C 7.85,6.5249448 5.6561468,6.7022335 4.6247706,6.3770234 C 3.4010071,5.9911502 2.9872525,6.1703571 3.4337876,6.8928661 C 4.3987002,8.4541274 3.4703335,8.2716435 2.1101135,6.6326787 z "
       id="path2082" />
  </g>
</svg>
