<?xml version="1.0" encoding="UTF-8" standalone="no"?>
<!-- Created with Inkscape (http://www.inkscape.org/) -->
<svg
   xmlns:dc="http://purl.org/dc/elements/1.1/"
   xmlns:cc="http://web.resource.org/cc/"
   xmlns:rdf="http://www.w3.org/1999/02/22-rdf-syntax-ns#"
   xmlns:svg="http://www.w3.org/2000/svg"
   xmlns="http://www.w3.org/2000/svg"
   xmlns:xlink="http://www.w3.org/1999/xlink"
   xmlns:sodipodi="http://sodipodi.sourceforge.net/DTD/sodipodi-0.dtd"
   xmlns:inkscape="http://www.inkscape.org/namespaces/inkscape"
   id="svg11"
   sodipodi:version="0.32"
   inkscape:version="0.44"
   width="20"
   height="20"
   version="1.0"
   sodipodi:docbase="/home/kde4/Developpements/C++/ksirk/ksirk/skins/default/Images"
   sodipodi:docname="moveBackFive.svg">
  <metadata
     id="metadata16">
    <rdf:RDF>
      <cc:Work
         rdf:about="">
        <dc:format>image/svg+xml</dc:format>
        <dc:type
           rdf:resource="http://purl.org/dc/dcmitype/StillImage" />
      </cc:Work>
    </rdf:RDF>
  </metadata>
  <defs
     id="defs14" />
  <sodipodi:namedview
     inkscape:window-height="582"
     inkscape:window-width="928"
     inkscape:pageshadow="2"
     inkscape:pageopacity="0.0"
     guidetolerance="10.0"
     gridtolerance="10.0"
     objecttolerance="10.0"
     borderopacity="1.0"
     bordercolor="#666666"
     pagecolor="#ffffff"
     id="base"
     inkscape:zoom="18.95"
     inkscape:cx="10"
     inkscape:cy="9.9736148"
     inkscape:window-x="666"
     inkscape:window-y="543"
     inkscape:current-layer="svg11" />
  <g
     id="g1990">
    <path
       style="fill:#a4b7c5"
       d="M 0.9256899,19.50218 C 0.19329251,19.480697 0.26848684,14.38888 1.0191805,13.171424 C 1.8287925,11.858416 2.010635,11.821656 1.8671782,13 C 1.6149561,15.071733 3.0397489,18.093468 3.991478,17.505267 C 4.4215276,17.239482 5.2515665,17.598193 5.8360089,18.302403 C 6.8279452,19.497613 6.1786573,19.656259 0.9256899,19.50218 z M 7.0872525,17.292153 C 5.7532794,14.364401 6.3071884,14.398097 9.3381762,17.429085 C 11.425412,19.516321 11.511437,19.8389 9.9494445,19.721239 C 8.9496451,19.645926 7.6616587,18.552838 7.0872525,17.292153 z M 11.75,18.339355 C 10.2375,17.542687 9.0068907,16.352923 9.0153128,15.695434 C 9.024593,14.970946 9.4125141,15.09093 10,16 C 10.861666,17.333333 10.974455,17.333333 11.015096,16 C 11.051819,14.795223 11.256853,14.836252 12.056856,16.208467 C 12.604677,17.148123 13.603493,17.784376 14.276447,17.622362 C 14.949401,17.460347 15.111581,17.53351 14.636847,17.784946 C 14.162113,18.036382 14.387113,18.630738 15.136847,19.105738 C 17.34481,20.504611 14.743105,19.915892 11.75,18.339355 z M 17.339573,9.4425294 C 17.010861,8.5859206 16.124984,8.1217974 15.370958,8.4111446 C 14.616931,8.7004918 14,8.5494985 14,8.075604 C 14,7.2290572 15.528233,6.3783618 17.5,6.1273188 C 18.05,6.0572935 18.5,6.4125 18.5,6.9166667 C 18.5,7.4208333 18.8375,8.1708333 19.25,8.5833333 C 20.32883,9.6621636 20.173059,11 18.968615,11 C 18.401354,11 17.668285,10.299138 17.339573,9.4425294 z M 7,4 C 7,2.718615 7.7080605,2.718615 8.5,4 C 8.8399187,4.55 8.6414763,5 8.059017,5 C 7.4765576,5 7,4.55 7,4 z M 12.484608,2.3417505 C 10.63817,0.49531287 10.639411,0.33333333 12.5,0.33333333 C 13.325,0.33333333 14,0.98843346 14,1.7891114 C 14,2.9549186 14.292082,3.0024828 15.466378,2.027904 C 16.272886,1.358562 17.383176,0.96596185 17.933689,1.1554593 C 18.484202,1.3449567 17.817406,2.0234306 16.451919,2.663179 C 14.453089,3.5996569 13.679868,3.5370112 12.484608,2.3417505 z M 0.66666667,2.3333333 C -0.26546605,1.4012006 -0.16538029,0 0.83333333,0 C 1.2916667,0 1.6666667,0.675 1.6666667,1.5 C 1.6666667,3.1993518 1.5935858,3.2602525 0.66666667,2.3333333 z "
       id="path2006" />
    <path
       style="fill:#a7b5ba"
       d="M 3,14.940983 C 3,13.808524 3.45,13.160081 4,13.5 C 5.2983601,14.302431 5.2983601,17 4,17 C 3.45,17 3,16.073442 3,14.940983 z M 13.436865,15.897845 C 12.9097,15.044875 13.304952,14.846484 14.76881,15.229292 C 16.266153,15.620856 16.701005,15.384405 16.318193,14.386815 C 16.025499,13.624067 16.317163,13 16.966335,13 C 18.747882,13 17.722174,16.429823 15.831753,16.793885 C 14.926849,16.968153 13.849149,16.564935 13.436865,15.897845 z M 6.0022805,13.75 C 5.9991206,12.710797 10.760322,12.803176 11.410342,13.854931 C 11.700949,14.325142 10.603533,14.662642 8.9716396,14.604931 C 7.3397463,14.547219 6.0035347,14.1625 6.0022805,13.75 z M 7.4588815,9.9334688 C 7.0963476,9.3468767 7.0141976,8.6524691 7.2763259,8.3903408 C 7.5384542,8.1282125 8.019392,8.6081515 8.3450766,9.4568719 C 9.0212606,11.218979 8.4449308,11.52893 7.4588815,9.9334688 z M 0.067680281,8.225 C 0.015684024,6.4772016 0.69144961,5.8117101 2.983769,5.3532462 C 4.624842,5.0250316 5.7457059,4.3975605 5.4745778,3.958866 C 4.8773952,2.9926043 7.7120072,2.3823277e-16 9.2244383,-5.9804592e-16 C 9.8193079,-9.2697117e-16 9.3533826,0.82621754 8.1890487,1.836039 C 6.5789305,3.232487 6.3507576,3.9507576 7.236039,4.836039 C 8.1213203,5.7213203 8.0004943,6 6.7313848,6 C 5.6016101,6 5.2384807,6.5651218 5.6068901,7.75 C 6.1251002,9.4166667 6.0974299,9.4166667 5.0258152,7.75 C 3.5235944,5.4136179 2.5251599,5.5448072 1.2204946,8.25 L 0.13536056,10.5 L 0.067680281,8.225 z M 9.710251,8 C 9.040639,5.4394 9.6296085,5.4394 11,8 C 11.591337,9.104923 11.65928,10 11.151815,10 C 10.646611,10 9.9979074,9.1 9.710251,8 z M 14.603006,8.8333333 C 15.270485,7.753329 17,7.753329 17,8.8333333 C 17,9.2916667 16.344795,9.6666667 15.543989,9.6666667 C 14.743182,9.6666667 14.31974,9.2916667 14.603006,8.8333333 z M 14,5.6069888 C 14,5.3908326 14.675,4.9549558 15.5,4.6383736 C 16.325,4.3217914 17,4.4986464 17,5.0313848 C 17,5.5641232 16.325,6 15.5,6 C 14.675,6 14,5.823145 14,5.6069888 z "
       id="path2004" />
    <path
       style="fill:#9bb6c4"
       d="M 11.5,19 C 11.160081,18.45 11.358524,18 11.940983,18 C 12.523442,18 13,18.45 13,19 C 13,20.281385 12.291939,20.281385 11.5,19 z M 15.531009,19.050173 C 15.208145,18.527769 15.827004,17.627769 16.90625,17.050173 C 19.624655,15.595328 20,15.710564 20,18 C 20,20.090943 16.659403,20.875953 15.531009,19.050173 z M -2.8259255e-19,11.990213 C -9.4660762e-20,10.666667 0.6699452,10 2,10 C 4.4791422,10 4.4791422,10.145264 2,12.267972 C 0.096320238,13.897953 -5.5157541e-19,13.884576 -2.8259255e-19,11.990213 z M 11.488892,7.9820271 C 10.573943,6.501609 11.442131,5.7448835 13.577456,6.1616026 C 15.139696,6.4664811 15.156267,6.6286246 13.744753,7.7985583 C 12.620193,8.7306507 11.983567,8.7824274 11.488892,7.9820271 z M 18.324657,7.3420093 C 18.686552,6.9801144 18.481452,6.0801144 17.868879,5.3420093 C 17.014973,4.3131148 17.133656,4 18.377555,4 C 19.333333,4 20,4.8218051 20,6 C 20,7.1 19.475,8 18.833333,8 C 18.191667,8 17.962762,7.7039042 18.324657,7.3420093 z M 0.41602344,4.75 C 0.736503,4.0625 1.2764871,2.7125 1.6159881,1.75 C 1.9972,0.66924804 3.2403352,0.012162482 4.8666314,0.031803372 C 7.4327942,0.062795095 7.4489583,0.10217496 5.5,1.5748504 C 4.4,2.4060345 3.5,3.4042229 3.5,3.7930471 C 3.5,4.1818712 3.1625,4.3875 2.75,4.25 C 2.3375,4.1125 2,4.45 2,5 C 2,5.55 1.5125,6 0.91666667,6 C 0.32083333,6 0.095543882,5.4375 0.41602344,4.75 z M 17.5,1.9158599 C 19.213619,1.1074004 19.106226,1.0260129 16.75,1.3474733 C 15.2375,1.5538239 14,1.3350586 14,0.86132813 C 14,0.38759766 15.35,0 17,0 C 19,0 20,0.5 20,1.5 C 20,2.4097142 19.114571,2.9723411 17.75,2.9297147 C 15.587507,2.862163 15.577784,2.8227322 17.5,1.9158599 z "
       id="path2002" />
    <path
       style="fill:#9ab4ba"
       d="M 8,2.075604 C 8,1.6017095 8.675,0.9549558 9.5,0.6383736 C 10.325,0.3217914 11,0.45050147 11,0.92439599 C 11,1.3982905 10.325,2.0450442 9.5,2.3616264 C 8.675,2.6782086 8,2.5494985 8,2.075604 z "
       id="path2000" />
    <path
       style="fill:#99acb9"
       d="M 8.6030057,17.166667 C 8.3197401,16.708333 8.7233875,16.333333 9.5,16.333333 C 10.276612,16.333333 10.68026,16.708333 10.396994,17.166667 C 9.7454539,18.220881 9.2545461,18.220881 8.6030057,17.166667 z M 5.3333333,3.5439887 C 5.3333333,2.7431824 5.7156737,2.3242767 6.1829786,2.613087 C 6.6502834,2.9018973 6.7737258,3.5571024 6.4572949,4.0690983 C 5.6486704,5.3774802 5.3333333,5.2301561 5.3333333,3.5439887 z M 13,3.3923503 C 13,2.5647227 14.941729,2.0966986 15.386913,2.8170214 C 15.675723,3.2843263 15.256818,3.6666667 14.456011,3.6666667 C 13.655205,3.6666667 13,3.5432243 13,3.3923503 z "
       id="path1998" />
    <path
       style="fill:#916653"
       d="M 10.589035,13.055319 C 8.608989,12.335798 7.2515017,8 9.0062745,8 C 9.5528235,8 10,8.45 10,9 C 10,9.55 10.9,10 12,10 C 13.1,10 14,10.648442 14,11.440983 C 14,13.372408 12.897518,13.894189 10.589035,13.055319 z M 4.727533,10.933913 C 5.0799853,9.5861337 5.6081754,9.2081754 6.2467811,9.8467811 C 7.2818832,10.881883 6.4676246,13 5.0346026,13 C 4.5685528,13 4.4303714,12.070261 4.727533,10.933913 z "
       id="path1996" />
    <path
       style="fill:#6e6663"
       d="M 5.4588815,16.933469 C 5.0963476,16.346877 5.0141976,15.652469 5.2763259,15.390341 C 5.5384542,15.128212 6.019392,15.608151 6.3450766,16.456872 C 7.0212606,18.218979 6.4449308,18.52893 5.4588815,16.933469 z M 12.458881,15.933469 C 12.096348,15.346877 12.014198,14.652469 12.276326,14.390341 C 12.538454,14.128212 13.019392,14.608151 13.345077,15.456872 C 14.021261,17.218979 13.444931,17.52893 12.458881,15.933469 z M 15,15 C 14.098708,14.41754 13.975367,14.024514 14.690983,14.015313 C 15.346024,14.006891 16.160081,14.45 16.5,15 C 17.267305,16.241525 16.921123,16.241525 15,15 z M 2,14.059017 C 2,13.541476 2.4448455,12.843104 2.9885456,12.507079 C 3.5554057,12.15674 3.7230531,12.558137 3.3815568,13.448062 C 2.7167659,15.180479 2,15.497449 2,14.059017 z M 16.36383,11.505744 C 16.04846,10.683903 15.318055,10.303431 14.740707,10.660252 C 14.127725,11.039096 13.987848,10.828679 14.404508,10.154508 C 15.38573,8.5668589 15.763721,8.6899908 17,11 C 17.588702,12.1 17.815412,13 17.503799,13 C 17.192186,13 16.6792,12.327585 16.36383,11.505744 z "
       id="path1994" />
    <path
       style="fill:#020205"
       d="M 4.5695014,14.112456 C 4.2625935,13.615868 4.7305919,12.933623 5.6094977,12.596355 C 6.5495896,12.235608 6.9636519,11.347662 6.6152085,10.439633 C 6.2762628,9.5563544 6.4457555,9.1574581 7.0114544,9.5070792 C 7.5551545,9.8431043 8,10.573619 8,11.130446 C 8,12.693381 5.1978679,15.129174 4.5695014,14.112456 z M 13,14.357796 C 13,13.821251 13.699825,12.508751 14.555166,11.44113 C 16.021544,9.6108243 16.042357,9.6427317 14.919712,12 C 13.4619,15.061032 13,15.628339 13,14.357796 z M 1,8.9063804 C 1,8.4078712 1.4765576,8 2.059017,8 C 2.6414763,8 2.8873473,7.6267411 2.605397,7.1705359 C 2.3234466,6.7143306 3.084389,6.4279113 4.29638,6.5340484 C 5.508371,6.6401856 7.1488813,6.2259445 7.9419584,5.6135126 C 9.0173197,4.7830945 9.2064124,4.7960802 8.6857278,5.6645898 C 8.3017239,6.3051142 8.5528426,7.094683 9.2437694,7.4191872 C 9.9346962,7.7436914 9.2625,7.8445283 7.75,7.6432693 C 6.2375,7.4420102 5,7.6124573 5,8.0220405 C 5,8.4316237 4.1,9.0020926 3,9.289749 C 1.9,9.5774055 1,9.4048896 1,8.9063804 z M 10.110114,4.6326787 C 9.2411029,3.5855849 9.3744834,2.9415331 10.679627,1.8826787 C 11.616987,1.1222054 12.07512,1.0153468 11.697702,1.6452152 C 10.764715,3.2022651 13.334998,4.046125 17.260938,3.4717035 L 20.5,2.9977822 L 17.5,3.9830484 C 15.85,4.5249448 13.656147,4.7022335 12.624771,4.3770234 C 11.401007,3.9911502 10.987252,4.1703571 11.433788,4.8928661 C 12.3987,6.4541274 11.470333,6.2716435 10.110114,4.6326787 z "
       id="path1992" />
  </g>
</svg>
