<?xml version="1.0" encoding="UTF-8" standalone="no"?>
<!-- Created with Inkscape (http://www.inkscape.org/) -->
<svg
   xmlns:dc="http://purl.org/dc/elements/1.1/"
   xmlns:cc="http://web.resource.org/cc/"
   xmlns:rdf="http://www.w3.org/1999/02/22-rdf-syntax-ns#"
   xmlns:svg="http://www.w3.org/2000/svg"
   xmlns="http://www.w3.org/2000/svg"
   xmlns:xlink="http://www.w3.org/1999/xlink"
   xmlns:sodipodi="http://sodipodi.sourceforge.net/DTD/sodipodi-0.dtd"
   xmlns:inkscape="http://www.inkscape.org/namespaces/inkscape"
   id="svg65"
   sodipodi:version="0.32"
   inkscape:version="0.44"
   width="20"
   height="20"
   version="1.0"
   sodipodi:docbase="/home/kde4/Developpements/C++/ksirk/ksirk/skins/default/Images"
   sodipodi:docname="moveTen.svg">
  <metadata
     id="metadata70">
    <rdf:RDF>
      <cc:Work
         rdf:about="">
        <dc:format>image/svg+xml</dc:format>
        <dc:type
           rdf:resource="http://purl.org/dc/dcmitype/StillImage" />
      </cc:Work>
    </rdf:RDF>
  </metadata>
  <defs
     id="defs68" />
  <sodipodi:namedview
     inkscape:window-height="582"
     inkscape:window-width="928"
     inkscape:pageshadow="2"
     inkscape:pageopacity="0.0"
     guidetolerance="10.0"
     gridtolerance="10.0"
     objecttolerance="10.0"
     borderopacity="1.0"
     bordercolor="#666666"
     pagecolor="#ffffff"
     id="base"
     inkscape:zoom="18.95"
     inkscape:cx="10"
     inkscape:cy="9.9736148"
     inkscape:window-x="0"
     inkscape:window-y="543"
     inkscape:current-layer="svg65" />
  <g
     id="g1954">
    <path
       style="fill:#a4b9c6"
       d="M 0.57002747,19.113307 C 0.26862389,18.625626 0.70236772,17.661976 1.5339027,16.971863 C 2.7936848,15.926337 2.9407545,15.990816 2.4159034,17.358556 C 2.0656572,18.271283 2.2774685,19 2.8930112,19 C 3.501855,19 4,18.55 4,18 C 4,17.45 4.5051001,17 5.1224447,17 C 5.8979511,17 5.8601045,17.463637 5,18.5 C 3.6153628,20.168386 1.4107378,20.473605 0.57002747,19.113307 z M 6.7147875,17.982652 C 7.2698789,15.85998 8.5101948,15.398461 9.473008,16.956326 C 9.7980811,17.482305 10.798459,17.630833 11.69607,17.286387 C 12.786999,16.867759 13.088361,17.048012 12.605028,17.830061 C 12.207344,18.473528 12.358524,19 12.940983,19 C 13.523442,19 14,18.55 14,18 C 14,17.45 14.375,17 14.833333,17 C 15.291667,17 15.666667,17.627142 15.666667,18.393648 C 15.666667,19.758491 11.633553,19.966887 10.335769,18.669102 C 10.006465,18.339798 8.9403718,18.496728 7.9666733,19.017836 C 6.5003613,19.802582 6.2853574,19.624796 6.7147875,17.982652 z M 15.561998,14.300969 C 15.293861,13.602216 15.928136,12.573644 16.971497,12.015254 C 19.673001,10.569453 20.000987,10.717378 19.788425,13.285714 C 19.583268,15.764587 16.415632,16.525503 15.561998,14.300969 z M 19,13.031385 C 19,12.498646 18.325,12.321791 17.5,12.638374 C 15.57933,13.375404 15.57933,14 17.5,14 C 18.325,14 19,13.564123 19,13.031385 z M 0.58259827,13.133647 C 0.28810862,12.657153 0.93655097,11.462408 2.0235813,10.478659 C 3.1106116,9.4949103 4,9.1616243 4,9.7380236 C 4,10.314423 3.2964781,11.055989 2.4366179,11.385948 C 1.5767578,11.715908 1.1533155,12.439053 1.4956349,12.992937 C 1.8379544,13.546822 1.893034,14 1.618034,14 C 1.343034,14 0.87708791,13.610141 0.58259827,13.133647 z M 16.20531,9.374701 C 15.377769,8.4888157 15.311731,8 16.01959,8 C 16.632199,8 16.785882,7.4471323 16.367059,6.75 C 15.768038,5.7529295 15.926472,5.751174 17.150051,6.7413241 C 17.993733,7.4240523 18.905114,7.7615523 19.175343,7.4913241 C 19.445571,7.2210958 19.666667,7.6556352 19.666667,8.4569672 C 19.666667,10.500494 17.735308,11.012569 16.20531,9.374701 z M 12.457866,8.9318263 C 12.094774,8.3443308 11.191134,8.0964134 10.449777,8.3808988 C 9.597536,8.7079343 9.2996982,8.382574 9.6398565,7.4961357 C 10.070209,6.3746548 10.560245,6.3329309 12.088929,7.28761 C 13.140018,7.944026 14,8.8228475 14,9.2405468 C 14,10.330824 13.226835,10.176044 12.457866,8.9318263 z M 10.923489,4.25 C 10.881408,3.8375 10.703075,2.759167 10.527193,1.8537044 C 10.343862,0.90989108 10.790864,0.29304193 11.57476,0.40809341 C 13.82916,0.73896905 14.480151,1.9972856 12.416667,2.0354354 C 10.786496,2.0655741 10.87369,2.2844913 13,3.5 C 15.468474,4.9111072 15.471626,4.929576 13.25,4.9645646 C 12.0125,4.9840541 10.96557,4.6625 10.923489,4.25 z M 16.5,2.5552896 C 16.5,1.2990843 17.135815,0.42857143 18.053337,0.42857143 C 20.16845,0.42857143 20.277276,3.694228 18.180436,4.242564 C 16.995538,4.5524218 16.5,4.0548676 16.5,2.5552896 z "
       id="path1970" />
    <path
       style="fill:#9ab6c6"
       d="M 3.5889682,19.143954 C 3.3412416,18.743123 3.9985204,18.350392 5.0495879,18.271218 C 6.1006553,18.192043 7.1633051,18.455216 7.4110318,18.856046 C 7.6587584,19.256877 7.0014796,19.649608 5.9504121,19.728782 C 4.8993447,19.807957 3.8366949,19.544784 3.5889682,19.143954 z M 16,18 C 16,16.666667 16.666667,16 18,16 C 19.333333,16 20,16.666667 20,18 C 20,19.333333 19.333333,20 18,20 C 16.666667,20 16,19.333333 16,18 z M -5.4389399e-17,10.012412 C -8.4303568e-17,8.8406665 0.45,8.1600813 1,8.5 C 1.5951177,8.867803 2,7.677051 2,5.559017 C 2,3.6015576 1.55,2 1,2 C 0.45,2 0,1.55 0,1 C 0,-0.46523989 7.6976369,-0.23230597 8.26161,1.25 C 8.9980585,3.1856282 7.3266791,6.7547992 5.1343834,7.9280802 C 4.0462469,8.5104332 2.4458638,9.6969933 1.5779766,10.56488 C 0.14067445,12.002183 -4.8487402e-18,11.952931 -5.4389399e-17,10.012412 z M 14,9 C 14,7.718615 14.708061,7.718615 15.5,9 C 15.839919,9.55 15.641476,10 15.059017,10 C 14.476558,10 14,9.55 14,9 z M 10,4.059017 C 10,3.5414763 10.444846,2.8431043 10.988546,2.5070792 C 11.555406,2.1567404 11.723053,2.5581371 11.381557,3.4480622 C 10.716766,5.1804795 10,5.4974491 10,4.059017 z M 13.638374,1.5 C 13.291266,0.59545247 13.633305,-2.6153062e-16 14.5,-2.4871598e-16 C 15.366695,-2.3590134e-16 15.708734,0.59545247 15.361626,1.5 C 14.640381,3.3795355 14.359619,3.3795355 13.638374,1.5 z "
       id="path1968" />
    <path
       style="fill:#a5b5b9"
       d="M 5.1309469,14.360613 C 7.3248522,12.025308 9.6936331,11.068661 8.5,13 C 7.5520327,14.533843 8.876709,15.984542 10.615871,15.317163 C 11.879509,14.832259 11.919988,14.547673 10.833846,13.784706 C 9.7767501,13.042143 9.8112242,12.94134 11,13.298869 C 11.825,13.546991 12.3875,14.25625 12.25,14.875 C 12.1125,15.49375 12.502484,16 13.116631,16 C 13.740933,16 14.002664,15.118188 13.710251,14 C 13.422595,12.9 13.59511,12 14.09362,12 C 14.592129,12 15,13.029767 15,14.28837 C 15,16.412456 14.56614,16.581927 8.9566328,16.648984 L 2.9132657,16.721227 L 5.1309469,14.360613 z M 1.0717793e-17,15.228969 C 4.823007e-18,14.553036 0.45,14 1,14 C 1.55,14 2,13.517857 2,12.928571 C 2,11.670043 4.9855979,8.4681008 5.0304087,9.6785714 C 5.0471335,10.130357 5.519494,9.7125 6.0800988,8.75 C 7.3302995,6.6035357 9.341268,6.5013503 11,8.5 C 11.751596,9.4056174 11.833136,10 11.205778,10 C 10.634267,10 9.9885417,9.465625 9.7708333,8.8125 C 9.3862925,7.6588774 8.1440724,8.5613374 2.25,14.276307 C 0.98731656,15.500622 1.673254e-17,15.918657 1.0717793e-17,15.228969 z M -6.4615505e-19,5.559017 C 1.2751948e-19,2.4949749 0.56994216,2.2474543 1.2894886,4.9990041 C 1.5770018,6.0984563 1.4044859,7.250014 0.90611994,7.5580211 C 0.40775397,7.8660282 -1.0015403e-18,6.9664763 -6.4615505e-19,5.559017 z M 13.262243,7.3083167 C 14.231477,7.0554924 14.786636,6.4637872 14.495931,5.9934164 C 14.205226,5.5230455 14.331303,4.9132775 14.776102,4.6383764 C 15.220902,4.3634752 15.650275,5.007381 15.730265,6.0692781 C 15.835292,7.4635419 15.2678,7.9677686 13.687851,7.8839986 C 11.977564,7.7933181 11.884662,7.6676582 13.262243,7.3083167 z "
       id="path1966" />
    <path
       style="fill:#9bb3bb"
       d="M 10.357056,19.309611 C 10.674652,18.992015 12.113977,18.60269 13.555556,18.444444 C 14.997134,18.286199 15.912591,18.420742 15.589904,18.74343 C 15.267217,19.066117 13.827892,19.455442 12.391404,19.608596 C 10.954916,19.76175 10.03946,19.627207 10.357056,19.309611 z M 2,18.059017 C 2,17.476558 2.45,17 3,17 C 4.281385,17 4.281385,17.708061 3,18.5 C 2.45,18.839919 2,18.641476 2,18.059017 z M 15.078947,15.583333 C 15.035526,14.529167 15.271875,13.938542 15.604167,14.270833 C 15.936458,14.603125 15.971985,15.465625 15.683114,16.1875 C 15.363888,16.985233 15.126931,16.748276 15.078947,15.583333 z M 17,8.455778 C 17,8.3397893 17.6,7.7469337 18.333333,7.138321 C 19.329696,6.3114138 19.666667,6.3647113 19.666667,7.3492097 C 19.666667,8.073811 19.066667,8.6666667 18.333333,8.6666667 C 17.6,8.6666667 17,8.5717668 17,8.455778 z M 0.5,3 C 0.16008131,2.45 0.35852366,2 0.94098301,2 C 1.5234424,2 2,2.45 2,3 C 2,4.281385 1.2919395,4.281385 0.5,3 z M 9,3.1666667 C 9,2.525 8.8875,1.7053982 8.75,1.3453293 C 8.6125,0.98526044 9.3126133,0.57139232 10.305807,0.42562239 C 11.842444,0.20009206 11.921887,0.40947026 10.838775,1.8302931 C 10.138713,2.7486319 9.4385999,3.6875 9.2829677,3.9166667 C 9.1273354,4.1458333 9,3.8083333 9,3.1666667 z "
       id="path1964" />
    <path
       style="fill:#96abb7"
       d=""
       id="path1962" />
    <path
       style="fill:#574f4c"
       d="M 8.8724447,15.25 C 7.6029292,13.631245 7.6499939,13.610023 9.5,14.967032 C 10.6,15.7739 11.6875,16.5614 11.916667,16.717032 C 12.145833,16.872665 11.863433,17 11.289111,17 C 10.714789,17 9.6272893,16.2125 8.8724447,15.25 z M 13,11 C 11.835302,10.247314 12.127912,10.027203 14.309017,10.015313 C 15.930103,10.006476 16.856668,10.422899 16.5,11 C 15.73263,12.241631 14.921288,12.241631 13,11 z "
       id="path1960" />
    <path
       style="fill:#5d4835"
       d="M 2,15.381688 C 2,14.682947 8.2286605,9.0323047 9,9.0312859 C 9.275,9.0309227 10.146064,9.4394379 10.935698,9.9390974 C 12.073519,10.659081 12.120093,11.15037 11.160174,12.307002 C 10.19652,13.468134 10.250352,13.882092 11.423549,14.332289 C 12.380825,14.699631 12.716684,14.425265 12.380899,13.550223 C 12.096413,12.808866 12.248867,11.964226 12.719685,11.673244 C 13.190503,11.382263 13.66614,12.236745 13.776657,13.572093 C 14.007703,16.363768 13.946405,16.388333 10.57841,14.853772 C 9.1947769,14.223347 8.3001607,13.323347 8.5903738,12.853772 C 8.8805869,12.384197 8.5247224,12 7.7995638,12 C 7.0744052,12 5.9190343,12.9 5.2320729,14 C 4.0615496,15.874306 2,16.755603 2,15.381688 z "
       id="path1958" />
    <path
       style="fill:#00060d"
       d="M 16.566212,6.8928661 C 17.012748,6.1703571 16.598993,5.9911502 15.375229,6.3770234 C 14.343853,6.7022335 12.15,6.5249448 10.5,5.9830484 L 7.5,4.9977822 L 10.739062,5.4717035 C 14.665002,6.046125 17.235285,5.2022651 16.302298,3.6452152 C 15.92488,3.0153468 16.383013,3.1222054 17.320373,3.8826787 C 18.625517,4.9415331 18.758897,5.5855849 17.889886,6.6326787 C 16.529667,8.2716435 15.6013,8.4541274 16.566212,6.8928661 z "
       id="path1956" />
  </g>
</svg>
