<?xml version="1.0" encoding="UTF-8" standalone="no"?>
<!-- Created with Inkscape (http://www.inkscape.org/) -->
<svg
   xmlns:dc="http://purl.org/dc/elements/1.1/"
   xmlns:cc="http://web.resource.org/cc/"
   xmlns:rdf="http://www.w3.org/1999/02/22-rdf-syntax-ns#"
   xmlns:svg="http://www.w3.org/2000/svg"
   xmlns="http://www.w3.org/2000/svg"
   xmlns:xlink="http://www.w3.org/1999/xlink"
   xmlns:sodipodi="http://sodipodi.sourceforge.net/DTD/sodipodi-0.dtd"
   xmlns:inkscape="http://www.inkscape.org/namespaces/inkscape"
   id="svg47"
   sodipodi:version="0.32"
   inkscape:version="0.44"
   width="20"
   height="20"
   version="1.0"
   sodipodi:docbase="/home/kde4/Developpements/C++/ksirk/ksirk/skins/default/Images"
   sodipodi:docname="moveFive.svg">
  <metadata
     id="metadata52">
    <rdf:RDF>
      <cc:Work
         rdf:about="">
        <dc:format>image/svg+xml</dc:format>
        <dc:type
           rdf:resource="http://purl.org/dc/dcmitype/StillImage" />
      </cc:Work>
    </rdf:RDF>
  </metadata>
  <defs
     id="defs50" />
  <sodipodi:namedview
     inkscape:window-height="582"
     inkscape:window-width="928"
     inkscape:pageshadow="2"
     inkscape:pageopacity="0.0"
     guidetolerance="10.0"
     gridtolerance="10.0"
     objecttolerance="10.0"
     borderopacity="1.0"
     bordercolor="#666666"
     pagecolor="#ffffff"
     id="base"
     inkscape:zoom="18.95"
     inkscape:cx="10"
     inkscape:cy="9.9736148"
     inkscape:window-x="666"
     inkscape:window-y="543"
     inkscape:current-layer="svg47" />
  <g
     id="g1972">
    <path
       style="fill:#a4b9c5"
       d="M 0.33333333,18.376366 C 0.33333333,17.666701 0.83690476,16.892827 1.452381,16.656647 C 2.0678571,16.420466 2.5714286,17.001102 2.5714286,17.946947 C 2.5714286,18.892793 2.0678571,19.666667 1.452381,19.666667 C 0.83690476,19.666667 0.33333333,19.086031 0.33333333,18.376366 z M 4.0153128,18.809017 C 4.0068907,17.878976 4.45,16.839919 5,16.5 C 6.2655974,15.717818 6.2655974,17.041628 5,19 C 4.1646013,20.292687 4.0285092,20.266292 4.0153128,18.809017 z M 8.6046592,19.386166 C 9.2122217,19.1354 9.497262,17.820926 9.238082,16.465114 C 8.978902,15.109301 9.2271766,14 9.7898032,14 C 10.35243,14 10.590686,14.849213 10.319262,15.887141 C 10.047838,16.925069 10.221553,18.018894 10.705296,18.317863 C 11.189039,18.616833 11.655329,17.925533 11.741495,16.781641 C 11.827662,15.637749 12.399385,14.206424 13.011992,13.600919 C 13.830092,12.792302 13.850183,13.230144 13.087661,15.25 C 12.207346,17.581884 12.311813,18.010686 13.774751,18.070285 C 15.221676,18.129232 15.177353,18.279217 13.5,19 C 12.4,19.472686 10.6,19.855532 9.5,19.850767 C 8.4,19.846003 7.9970966,19.636933 8.6046592,19.386166 z M 0.33333333,14.536883 C 0.33333333,12.9548 4.7909396,12.819799 5.6785626,14.375 C 6.031711,14.99375 5.977234,15.19123 5.5575026,14.813844 C 5.1377712,14.436458 3.7906248,14.509305 2.563844,14.975727 C 0.972683,15.580685 0.33333333,15.454895 0.33333333,14.536883 z M 17.5,12 C 17.160081,11.45 17.331966,11 17.881966,11 C 18.431966,11 19.160081,11.45 19.5,12 C 19.839919,12.55 19.668034,13 19.118034,13 C 18.568034,13 17.839919,12.55 17.5,12 z M 0.33333333,9.5439887 C 0.33333333,8.7431824 0.71567369,8.3242767 1.1829786,8.613087 C 1.6502834,8.9018973 1.7737258,9.5571024 1.4572949,10.069098 C 0.64867045,11.37748 0.33333333,11.230156 0.33333333,9.5439887 z M 3,7.5 C 3,6.675 3.4358768,6 3.9686152,6 C 4.5013536,6 4.6782086,6.675 4.3616264,7.5 C 3.6245961,9.42067 3,9.42067 3,7.5 z M 17.822048,6.660637 C 16.671852,5.7861359 16.431143,4.9311996 17.056736,3.9424404 C 17.802821,2.7632411 17.972169,2.8301403 17.984687,4.309017 C 17.993109,5.3039763 18.375,5.8862712 18.833333,5.6030057 C 19.291667,5.3197401 19.666667,5.7431824 19.666667,6.5439887 C 19.666667,7.3447949 19.629167,7.9856885 19.583333,7.9681966 C 19.5375,7.9507048 18.744922,7.362303 17.822048,6.660637 z M 6.6666667,4.3333333 C 5.734534,3.4012006 5.8346197,2 6.8333333,2 C 7.2916667,2 7.6666667,2.675 7.6666667,3.5 C 7.6666667,5.1993518 7.5935858,5.2602525 6.6666667,4.3333333 z M 10,1 C 10,-0.28138497 10.708061,-0.28138497 11.5,1 C 11.839919,1.55 11.641476,2 11.059017,2 C 10.476558,2 10,1.55 10,1 z "
       id="path1988" />
    <path
       style="fill:#9bb6c5"
       d="M 2.5427051,19.069098 C 2.2262742,18.557102 2.4247166,17.855545 2.9836881,17.510081 C 3.5426596,17.164618 4,17.583524 4,18.440983 C 4,20.197509 3.399945,20.456142 2.5427051,19.069098 z M 6.5748419,19.121097 C 6.2649968,18.619757 6.6839025,17.95154 7.5057436,17.63617 C 8.3275846,17.3208 9,17.472089 9,17.972368 C 9,19.327922 7.2229034,20.169682 6.5748419,19.121097 z M 14.654508,19.234687 C 15.289488,18.830609 15.739488,18.05 15.654508,17.5 C 15.569529,16.95 16.5125,16.356202 17.75,16.180449 C 19.461476,15.937381 20,16.356233 20,17.930449 C 20,19.601801 19.374673,19.997054 16.75,19.984687 C 14.9625,19.976265 14.019529,19.638765 14.654508,19.234687 z M 10,17.059017 C 10,16.476558 10.45,16 11,16 C 12.281385,16 12.281385,16.708061 11,17.5 C 10.45,17.839919 10,17.641476 10,17.059017 z M 1.7684496,15.83155 C 2.3495523,15.250448 3.4152693,14.971756 4.1367096,15.212237 C 4.8856556,15.461885 4.4323632,15.915178 3.0801591,16.268787 C 1.4168139,16.703761 1.0263824,16.573618 1.7684496,15.83155 z M 1.25,6.2817212 C -0.72337476,5.5738513 -0.20605105,4 2,4 C 3.1,4 4,4.4234424 4,4.940983 C 4,6.2210226 2.7625994,6.8243063 1.25,6.2817212 z M 15,2.7 C 15,1.215 15.476558,-6.0791216e-17 16.059017,-1.3509159e-16 C 16.641476,-2.0939197e-16 16.839919,0.45 16.5,1 C 16.160081,1.55 16.358524,2 16.940983,2 C 17.523442,2 18,1.55 18,1 C 18,0.45 18.444959,6.6353173e-18 18.988798,1.474515e-17 C 19.532638,2.2854982e-17 19.88653,1.100338 19.775226,2.4451956 C 19.6373,4.1117294 19.219311,4.5969748 18.462634,3.9689892 C 17.76945,3.3936973 16.910589,3.4894105 16.176206,4.2237936 C 15.274598,5.1254021 15,4.7696563 15,2.7 z M 5,1 C 5,0.45 5.9265576,2.1857516e-17 7.059017,4.8572257e-17 C 8.1914763,7.5286999e-17 8.8399187,0.45 8.5,1 C 7.6975693,2.2983601 5,2.2983601 5,1 z "
       id="path1986" />
    <path
       style="fill:#a4b4ba"
       d="M 8.3189011,15.511484 C 8.5478905,13.280101 11.650993,12.250993 13.269631,13.869631 C 14.012553,14.612553 13.557218,14.787267 11.737901,14.457362 C 9.8690773,14.118479 9.005157,14.476339 8.6319068,15.74395 C 8.2231836,17.132033 8.1575956,17.083322 8.3189011,15.511484 z M 15,15.059017 C 15,14.476558 15.45,14 16,14 C 17.281385,14 17.281385,14.708061 16,15.5 C 15.45,15.839919 15,15.641476 15,15.059017 z M 3,12.559017 C 3,12.316476 3.45,11.839919 4,11.5 C 4.55,11.160081 5,11.358524 5,11.940983 C 5,12.523442 4.55,13 4,13 C 3.45,13 3,12.801558 3,12.559017 z M 1,11.123603 C 1,10.471098 1.6578698,9.6847821 2.461933,9.3762341 C 3.2659961,9.0676861 4.1963205,7.9568093 4.5293206,6.9076189 C 5.2490348,4.6400004 6.6666667,4.3696401 6.6666667,6.5 C 6.6666667,7.325 6.265109,8 5.7743163,8 C 5.2835237,8 5.2056701,8.5625 5.6013083,9.25 C 5.9969466,9.9375 5.9475225,10.161518 5.4914769,9.7478182 C 5.0354313,9.3341182 3.8382849,9.7413626 2.8311515,10.652806 C 1.6831665,11.691718 1,11.867363 1,11.123603 z M 16,10.559017 C 16,9.7015576 16.45,9 17,9 C 17.55,9 18,9.4234424 18,9.940983 C 18,10.458524 17.55,11.160081 17,11.5 C 16.45,11.839919 16,11.416476 16,10.559017 z M 18.923489,10.25 C 18.881408,9.2875 18.695911,7.7103566 18.511274,6.745237 C 18.326636,5.7801173 18.487741,5.1834067 18.869284,5.4192133 C 19.680469,5.9205528 20.277809,12 19.515884,12 C 19.232148,12 18.96557,11.2125 18.923489,10.25 z M 9.0945876,8.25 C 9.8313,7.2875 10.5614,6.3125 10.717032,6.0833333 C 10.872665,5.8541667 11,6.6416667 11,7.8333333 C 11,9.1652667 10.374934,10 9.3775553,10 C 7.9887595,10 7.9480092,9.7479817 9.0945876,8.25 z M 12,9.209162 C 12,8.8087244 12.88335,7.9294324 13.963,7.2551798 C 15.581021,6.2447088 15.831044,6.2767172 15.385681,7.4373142 C 14.805412,8.9494709 12,10.417643 12,9.209162 z M 11.345492,5.2346872 C 10.710512,4.8306093 10.035512,4.05 9.8454915,3.5 C 9.6554712,2.95 9.1786946,2.6071018 8.7859881,2.738004 C 8.3932816,2.8689061 8.3434051,2.2686755 8.6751516,1.4041582 C 9.1186298,0.24847234 9.4766414,0.15318799 10.02736,1.0442695 C 10.439328,1.7108481 11.24561,1.9662384 11.819098,1.6118034 C 12.392586,1.2573684 13.144455,1.4247166 13.489919,1.9836881 C 13.835382,2.5426596 13.641476,3 13.059017,3 C 12.476558,3 12,3.4765576 12,4.059017 C 12,4.6414763 12.45,4.8399187 13,4.5 C 13.55,4.1600813 14,4.3585237 14,4.940983 C 14,6.1689403 12.989327,6.2807647 11.345492,5.2346872 z M 2.75,3.3106745 C 1.7875,3.0591469 1,2.2113475 1,1.4266758 C 1,-0.57371284 2.3745965,-0.34854444 4.5,2 C 6.3049151,3.9944087 6.0621496,4.1762297 2.75,3.3106745 z "
       id="path1984" />
    <path
       style="fill:#99b4bb"
       d="M 2.7333333,16.875912 C 3.4116667,16.192494 4.2185743,15.885241 4.5264614,16.193128 C 4.8343485,16.501015 4.2793485,17.060176 3.2931281,17.435707 C 1.8679296,17.978392 1.7530661,17.863528 2.7333333,16.875912 z M 7.6086881,8.175861 C 7.2559666,7.6051456 7.4546556,6.8370414 8.0502193,6.4689628 C 9.5363181,5.5505032 10.062424,6.280962 9.070627,7.8857231 C 8.5392847,8.745453 8.0239269,8.8477315 7.6086881,8.175861 z M 4,1.5 C 3.2824515,0.63540693 3.1852624,-2.8551458e-16 3.7705665,-2.4264445e-16 C 4.3290672,-2.017375e-16 5.0450442,0.675 5.3616264,1.5 C 6.0949343,3.4109698 5.5859641,3.4109698 4,1.5 z "
       id="path1982" />
    <path
       style="fill:#97adb9"
       d="M 13.923489,4.75 C 13.383565,2.9858034 13.289941,0.95660758 13.770646,1.4373129 C 14.50041,2.1670769 15.010007,5 14.411516,5 C 14.185182,5 13.96557,4.8875 13.923489,4.75 z "
       id="path1980" />
    <path
       style="fill:#6f6e71"
       d="M 3,10.39235 C 3,9.5647227 4.9417291,9.0966986 5.386913,9.8170214 C 5.6757233,10.284326 5.2568176,10.666667 4.4560113,10.666667 C 3.6552051,10.666667 3,10.543224 3,10.39235 z "
       id="path1978" />
    <path
       style="fill:#8d6653"
       d="M 6.6835205,13.617651 C 5.5558773,10.67906 5.8812016,10 8.4166667,10 C 9.7458333,10 11.030702,9.4375 11.27193,8.75 C 11.513158,8.0625 11.719408,8.7375 11.730263,10.25 C 11.744503,12.234088 11.250997,13 9.9583333,13 C 8.9729167,13 7.9867509,13.539747 7.7668539,14.199438 C 7.5234732,14.929581 7.0996045,14.701948 6.6835205,13.617651 z M 13.5,12 C 12.786127,10.84493 13.706666,9 14.996868,9 C 15.480227,9 15.807907,9.9 15.725047,11 C 15.563268,13.147667 14.503626,13.623901 13.5,12 z "
       id="path1976" />
    <path
       style="fill:#030305"
       d="M 13,17 C 13,16.45 13.45,16 14,16 C 14.55,16 15,16.45 15,17 C 15,17.55 14.55,18 14,18 C 13.45,18 13,17.55 13,17 z M 5.1442644,12.25 C 4.0530626,9.6999555 4.077747,9.6411417 5.4837493,11.44113 C 6.3176872,12.508751 7,13.746251 7,14.19113 C 7,15.711037 6.3216678,15.00149 5.1442644,12.25 z M 13.25,13.437246 C 11.690035,11.748948 11.656445,10.330363 13.154508,9.4045085 C 13.91766,8.9328548 14.035363,9.1337645 13.501733,9.9971954 C 12.999309,10.810135 13.341195,11.77632 14.407066,12.555703 C 15.349005,13.244466 15.755253,14.028967 15.309841,14.299039 C 14.864428,14.569111 13.9375,14.181304 13.25,13.437246 z M 16.75,9.2426068 C 15.7875,9.0285165 15,8.4784764 15,8.0202955 C 15,7.5621145 14.175,7.4029816 13.166667,7.6666667 C 11.968532,7.9799858 11.333333,7.6065777 11.333333,6.5889234 C 11.333333,5.615999 11.739797,5.3497836 12.416667,5.8793889 C 13.0125,6.3455888 14.491629,6.6401856 15.70362,6.5340484 C 16.915611,6.4279113 17.700307,6.675896 17.447389,7.0851257 C 17.194472,7.4943553 17.552843,8.0310071 18.243769,8.277685 C 20.046468,8.921293 18.8321,9.7057314 16.75,9.2426068 z M 8.5662124,4.8928661 C 9.0127475,4.1703571 8.5989929,3.9911502 7.3752294,4.3770234 C 6.3438532,4.7022335 4.15,4.5249448 2.5,3.9830484 L -0.5,2.9977822 L 2.7390622,3.4717035 C 6.6650022,4.046125 9.2352849,3.2022651 8.302298,1.6452152 C 7.9248798,1.0153468 8.3830135,1.1222054 9.3203728,1.8826787 C 10.625517,2.9415331 10.758897,3.5855849 9.8898865,4.6326787 C 8.5296665,6.2716435 7.6012998,6.4541274 8.5662124,4.8928661 z "
       id="path1974" />
  </g>
</svg>
