<?xml version="1.0" encoding="UTF-8" standalone="no"?>
<!-- Created with Inkscape (http://www.inkscape.org/) -->
<svg
   xmlns:dc="http://purl.org/dc/elements/1.1/"
   xmlns:cc="http://web.resource.org/cc/"
   xmlns:rdf="http://www.w3.org/1999/02/22-rdf-syntax-ns#"
   xmlns:svg="http://www.w3.org/2000/svg"
   xmlns="http://www.w3.org/2000/svg"
   xmlns:xlink="http://www.w3.org/1999/xlink"
   xmlns:sodipodi="http://sodipodi.sourceforge.net/DTD/sodipodi-0.dtd"
   xmlns:inkscape="http://www.inkscape.org/namespaces/inkscape"
   id="svg2"
   sodipodi:version="0.32"
   inkscape:version="0.44"
   width="20"
   height="20"
   version="1.0"
   sodipodi:docbase="/home/kde4/Developpements/C++/ksirk/ksirk/skins/default/Images"
   sodipodi:docname="moveArmies.svg">
  <metadata
     id="metadata7">
    <rdf:RDF>
      <cc:Work
         rdf:about="">
        <dc:format>image/svg+xml</dc:format>
        <dc:type
           rdf:resource="http://purl.org/dc/dcmitype/StillImage" />
      </cc:Work>
    </rdf:RDF>
  </metadata>
  <defs
     id="defs5" />
  <sodipodi:namedview
     inkscape:window-height="582"
     inkscape:window-width="928"
     inkscape:pageshadow="2"
     inkscape:pageopacity="0.0"
     guidetolerance="10.0"
     gridtolerance="10.0"
     objecttolerance="10.0"
     borderopacity="1.0"
     bordercolor="#666666"
     pagecolor="#ffffff"
     id="base"
     inkscape:zoom="18.95"
     inkscape:cx="10"
     inkscape:cy="9.9736148"
     inkscape:window-x="666"
     inkscape:window-y="0"
     inkscape:current-layer="svg2" />
  <g
     id="g2044">
    <path
       style="fill:#6976e9"
       d="M 4.25,2.2677949 C -2.9220414,1.6218208 -0.46110659,-5.7851081e-19 7.6911296,9.6493993e-18 C 14.66839,1.8403168e-17 15.202089,0.13627399 13.44113,1.4681966 C 12.373508,2.2757048 10.825,2.8720865 10,2.7934894 C 9.175,2.7148923 6.5875,2.4783298 4.25,2.2677949 z "
       id="path2060" />
    <path
       style="fill:#a88b62"
       d="M 4.0312682e-17,15.95381 C 6.9659798e-17,13.769322 0.61344065,12.708136 2.25,12.061554 C 3.4875,11.572634 6.0499258,10.008772 7.9442797,8.5863046 C 9.8386335,7.1638371 12.088633,6.0016821 12.94428,6.0037381 C 13.799926,6.005794 13.010421,6.9156474 11.189824,8.0256346 C 9.3692278,9.1356218 7.2615457,11.523122 6.5060864,13.331191 C 5.7506271,15.139259 3.9777062,17.144758 2.566262,17.787855 C 0.12134692,18.901833 1.873071e-18,18.815109 4.0312682e-17,15.95381 z "
       id="path2058" />
    <path
       style="fill:#529d4d"
       d="M 10.675591,4.5483645 C 6.087417,2.9121433 4.4332938,1.5686777 8.1578606,2.5034845 C 9.873513,2.9340858 11.817047,2.582377 13.655811,1.5085558 C 16.362792,-0.072296302 16.390842,-0.070093205 14.237252,1.5542239 C 12.106151,3.1615801 12.077061,3.3387027 13.737252,4.5986328 C 15.936783,6.2678707 15.476096,6.2603068 10.675591,4.5483645 z M 0.73096811,2.3440633 C 1.4080006,2.0701402 2.7580006,2.0534659 3.7309681,2.3070093 C 4.7039356,2.5605527 4.15,2.7846716 2.5,2.8050513 C 0.85,2.825431 0.05393565,2.6179864 0.73096811,2.3440633 z "
       id="path2056" />
    <path
       style="fill:#499e39"
       d="M 4,19.613174 C 4,19.229934 4.9,17.950337 6,16.769625 C 7.1,15.588914 8,15.087985 8,15.656451 C 8,16.224917 7.1,17.504514 6,18.5 C 4.9,19.495486 4,19.996415 4,19.613174 z M 8.5642929,11.706872 C 8.9398243,10.720651 9.4989848,10.165651 9.8068719,10.473539 C 10.114759,10.781426 9.8075061,11.588333 9.1240877,12.266667 C 8.1364719,13.246934 8.0216083,13.13207 8.5642929,11.706872 z M 12.253993,8.4126737 C 12.514905,8.1517621 14.22164,7.510027 16.046737,6.9865959 C 18.536828,6.2724474 19.079643,6.3203571 18.22146,7.1785401 C 17.592459,7.8075407 15.885724,8.4492757 14.428715,8.604618 C 12.971706,8.7599603 11.993081,8.6735854 12.253993,8.4126737 z M 6.6638665,4.4335667 C 7.3373137,2.6785913 7.4805317,2.6691527 8.8265752,4.2910359 C 9.6348119,5.2649015 9.433195,5.6170875 8.0058976,5.7246026 C 6.7439727,5.8196605 6.2969813,5.3896541 6.6638665,4.4335667 z M 13.542705,4.0690983 C 13.226274,3.5571024 13.424717,2.8555447 13.983688,2.5100813 C 14.54266,2.1646179 15,2.3255278 15,2.8676588 C 15,3.4097899 15.7875,4.0591469 16.75,4.3106745 C 18.101284,4.6638019 18.000812,4.7944268 16.309017,4.8839986 C 15.103976,4.9477994 13.859136,4.5810942 13.542705,4.0690983 z "
       id="path2054" />
    <path
       style="fill:#27b527"
       d="M 6.75,18.325576 C 8.0384832,17.426776 9,15.714607 9,14.319011 C 9,12.978636 9.3988394,12.128462 9.8863099,12.429736 C 10.37378,12.731009 10.988827,12.150729 11.253079,11.140225 C 11.821591,8.9662348 16,7.5106824 16,9.4866308 C 16,10.201296 15.308559,11.051353 14.463464,11.375647 C 13.098878,11.899287 12.982086,13.296721 13.917769,17.904988 C 13.962996,18.127731 14.824018,17.564249 15.831152,16.652806 C 16.838285,15.741363 17.987069,15.320402 18.384004,15.717338 C 18.78094,16.114273 18.826244,15.710773 18.484679,14.82067 C 18.143115,13.930567 18.344331,12.905226 18.931826,12.542134 C 19.622379,12.115349 20,13.316911 20,15.940983 L 20,20 L 12.25,19.947548 C 4.9127146,19.897889 4.6198204,19.811514 6.75,18.325576 z M 0.9177695,8.5833333 C 0.87254272,8.5375 0.63214802,7.2625 0.38355904,5.75 C -0.026524291,3.2549133 0.21283754,3 2.9657895,3 C 4.6346053,3 6,3.4803245 6,4.0673877 C 6,4.6881165 5.0584654,4.8798903 3.75,4.5256725 C 1.6502579,3.9572463 1.6669533,4.0223132 4,5.5 L 6.5,7.0834304 L 4.0078421,6.3974696 C 1.8881276,5.814023 1.6989472,5.9323273 2.7419657,7.1890877 C 3.7300395,8.3796438 3.6799532,8.6666667 2.4841237,8.6666667 C 1.6678557,8.6666667 0.96299627,8.6291667 0.9177695,8.5833333 z M 17,3.3971866 C 17,3.1001626 17.675,2.1821429 18.5,1.3571429 C 19.800957,0.056186167 20,0.051467483 20,1.3215826 C 20,2.1270245 19.325,3.0450442 18.5,3.3616264 C 17.675,3.6782086 17,3.6942107 17,3.3971866 z "
       id="path2052" />
    <path
       style="fill:#27aa28"
       d="M 7.8245043,15.325823 C 8.2512321,13.232864 8.502694,12.981402 8.7941071,14.35622 C 9.0105064,15.377141 8.7512392,16.648761 8.2179577,17.182042 C 7.5918207,17.808179 7.4524464,17.150644 7.8245043,15.325823 z M 13.610525,17.178833 C 13.287108,16.655534 13.951101,15.984544 15.086064,15.687745 C 16.831633,15.231268 16.97858,14.828493 16.039633,13.074055 C 14.425632,10.058266 15.471266,10.53292 17.5287,13.75 C 18.495996,15.2625 18.921769,16.161518 18.474862,15.747818 C 18.027955,15.334118 16.88296,15.700932 15.930429,16.562961 C 14.940465,17.458866 13.946651,17.722697 13.610525,17.178833 z M 10,11.559017 C 10,10.766476 10.408034,9.8658554 10.906741,9.5576371 C 11.405449,9.2494188 11.577965,9.8978611 11.29011,10.99862 C 10.679497,13.333607 10,13.628767 10,11.559017 z M 18.588458,11.630079 C 18.89951,10.81949 18.62446,9.1668134 17.977235,7.9574636 C 17.063313,6.2497851 17.070044,5.9252553 18.007366,6.5045523 C 18.870546,7.0380271 19.022166,6.6452006 18.539746,5.1252294 C 18.168759,3.9563532 18.261461,3 18.745751,3 C 20.005943,3 20.288543,11.703636 19.053143,12.467156 C 18.451414,12.839045 18.258138,12.490879 18.588458,11.630079 z M 3.1562809e-17,9.0313848 C 4.8922354e-17,8.4986464 0.675,8.3217914 1.5,8.6383736 C 3.42067,9.3754039 3.42067,10 1.5,10 C 0.675,10 1.4203264e-17,9.5641232 3.1562809e-17,9.0313848 z M 15,3 C 15,2.45 15.188196,2 15.418213,2 C 15.648229,2 16.660729,1.6876792 17.668213,1.3059539 C 19.383967,0.65587138 19.393673,0.7192153 17.821429,2.3059539 C 15.914888,4.2300708 15,4.455125 15,3 z "
       id="path2050" />
    <path
       style="fill:#077403"
       d="M 13.4,14.6 C 13.033939,13.646061 13.229435,12.370565 13.834435,11.765565 C 14.634435,10.965565 15.115953,11.138593 15.6,12.4 C 15.966061,13.353939 15.770565,14.629435 15.165565,15.234435 C 14.365565,16.034435 13.884047,15.861407 13.4,14.6 z M 16.519751,12.06223 C 15.664526,9.367655 17.578605,6.7382861 18.550899,9.2720439 C 18.889954,10.155607 18.733295,11.654157 18.202769,12.602155 C 17.334416,14.153817 17.166497,14.099947 16.519751,12.06223 z M 3.021526,7.1724408 C 3.7525555,5.6691481 4.7023111,5.0555245 5.7034404,5.4396938 C 6.5559712,5.7668406 7.9839597,5.4642422 8.8767482,4.7672531 C 10.329573,3.6330506 10.35194,3.6885129 9.0897862,5.295509 C 8.3141686,6.2830389 7.0194936,6.837722 6.2127307,6.528138 C 5.4059678,6.2185541 4.1032393,6.760575 3.3177783,7.732629 C 2.0296744,9.3267333 2.0006309,9.2718145 3.021526,7.1724408 z M 15.76845,0.83155041 C 16.349552,0.25044769 17.415269,-0.028243566 18.13671,0.21223652 C 18.885656,0.46188521 18.432363,0.91517762 17.080159,1.2687869 C 15.416814,1.7037615 15.026382,1.5736176 15.76845,0.83155041 z "
       id="path2048" />
    <path
       style="fill:#001400"
       d="M 2.8790334,17.610324 C 4.1875018,16.884982 5.8495521,14.88479 6.5724785,13.165454 C 7.295405,11.446119 9.3748399,9.1322088 11.193445,8.0234327 C 13.01205,6.9146566 13.801151,6.005794 12.947003,6.0037381 C 12.092854,6.0016821 9.617854,7.2789623 7.4470026,8.8421385 C 3.8066195,11.463488 2.6190315e-16,13.389573 -3.6076827e-17,12.610195 C -1.0484642e-16,12.430326 2.3973404,10.691416 5.3274231,8.7459501 C 9.4578881,6.0034756 11.612033,5.2297928 14.915096,5.3024412 L 19.175345,5.3961421 L 14.264819,7.5632938 C 10.664346,9.1522828 8.998471,10.589478 8.0205478,12.950393 C 6.3629271,16.952244 4.3634194,19.010688 2.1785714,18.964565 C 0.94104166,18.93844 1.1250868,18.582616 2.8790334,17.610324 z "
       id="path2046" />
  </g>
</svg>
