<?xml version="1.0" encoding="UTF-8" standalone="no"?>
<!-- Created with Inkscape (http://www.inkscape.org/) -->
<svg
   xmlns:dc="http://purl.org/dc/elements/1.1/"
   xmlns:cc="http://web.resource.org/cc/"
   xmlns:rdf="http://www.w3.org/1999/02/22-rdf-syntax-ns#"
   xmlns:svg="http://www.w3.org/2000/svg"
   xmlns="http://www.w3.org/2000/svg"
   xmlns:xlink="http://www.w3.org/1999/xlink"
   xmlns:sodipodi="http://sodipodi.sourceforge.net/DTD/sodipodi-0.dtd"
   xmlns:inkscape="http://www.inkscape.org/namespaces/inkscape"
   id="svg2"
   sodipodi:version="0.32"
   inkscape:version="0.44"
   width="20"
   height="20"
   version="1.0"
   sodipodi:docbase="/home/kde4/Developpements/C++/ksirk/ksirk/skins/default/Images"
   sodipodi:docname="ouvrirJeu.svg">
  <metadata
     id="metadata7">
    <rdf:RDF>
      <cc:Work
         rdf:about="">
        <dc:format>image/svg+xml</dc:format>
        <dc:type
           rdf:resource="http://purl.org/dc/dcmitype/StillImage" />
      </cc:Work>
    </rdf:RDF>
  </metadata>
  <defs
     id="defs5" />
  <sodipodi:namedview
     inkscape:window-height="582"
     inkscape:window-width="928"
     inkscape:pageshadow="2"
     inkscape:pageopacity="0.0"
     guidetolerance="10.0"
     gridtolerance="10.0"
     objecttolerance="10.0"
     borderopacity="1.0"
     bordercolor="#666666"
     pagecolor="#ffffff"
     id="base"
     inkscape:zoom="18.95"
     inkscape:cx="10"
     inkscape:cy="9.9736148"
     inkscape:window-x="666"
     inkscape:window-y="0"
     inkscape:current-layer="svg2" />
  <g
     id="g1891">
    <path
       style="fill:#a5c2ca"
       d=""
       id="path1907" />
    <path
       style="fill:#a4b9c8"
       d="M 18,16.5 C 17.282451,15.635407 17.185262,15 17.770566,15 C 18.329067,15 19.045044,15.675 19.361626,16.5 C 20.094934,18.41097 19.585964,18.41097 18,16.5 z M 18.458881,12.933469 C 18.096348,12.346877 18.014198,11.652469 18.276326,11.390341 C 18.538454,11.128212 19.019392,11.608151 19.345077,12.456872 C 20.021261,14.218979 19.444931,14.52893 18.458881,12.933469 z M 0.070285263,5.75 C 0.1291849,3.0264731 0.27979097,2.8239834 1,4.5 C 2.187174,7.2627024 2.187174,9 1,9 C 0.45,9 0.031628368,7.5375 0.070285263,5.75 z M 16,8.059017 C 16,7.5414763 16.519529,6.7969475 17.154508,6.4045085 C 17.922674,5.929756 18.035098,6.1341939 17.490464,7.0154302 C 16.891148,7.985143 17.131512,8.1635118 18.387893,7.6813931 C 19.407171,7.2902594 19.855822,7.4242673 19.492921,8.0114544 C 18.715353,9.2695857 16,9.3065603 16,8.059017 z M 4.4899187,4.9836881 C 4.1444553,4.4247166 3.4428976,4.2262742 2.9309017,4.5427051 C 2.4189058,4.859136 2,4.3613762 2,3.4365723 C 2,2.1433014 2.3098231,2.0122409 3.3420093,2.8688793 C 4.0801144,3.4814522 4.9051144,3.7615523 5.1753426,3.4913241 C 5.4455708,3.2210958 5.6666667,3.675 5.6666667,4.5 C 5.6666667,6.2578285 5.3562401,6.3854256 4.4899187,4.9836881 z M 11,5.059017 C 11,4.5414763 11.444846,3.8431043 11.988546,3.5070792 C 12.555406,3.1567404 12.723053,3.5581371 12.381557,4.4480622 C 11.716766,6.1804795 11,6.4974491 11,5.059017 z M 16,4.2439008 C 16,4.0637606 16.7875,3.0710911 17.75,2.0379686 C 19.455472,0.20735879 19.5,0.2156925 19.5,2.3654963 C 19.5,3.7997175 18.88779,4.5714286 17.75,4.5714286 C 16.7875,4.5714286 16,4.4240411 16,4.2439008 z M 7,3.5910599 C 7,3.4006662 7.675,2.6846892 8.5,2 C 9.3645931,1.2824515 10,1.1852624 10,1.7705665 C 10,2.3290672 9.325,3.0450442 8.5,3.3616264 C 7.675,3.6782086 7,3.7814537 7,3.5910599 z M 14,1.5 C 14,0.675 14.435877,-5.1179764e-17 14.968615,-1.1373281e-16 C 15.501354,-1.7628585e-16 15.678209,0.675 15.361626,1.5 C 14.624596,3.42067 14,3.42067 14,1.5 z "
       id="path1905" />
    <path
       style="fill:#9ab6c4"
       d="M -2.9249848e-17,18.377555 C -5.0132233e-17,17.219241 0.35758574,17.037796 1.25,17.743283 C 1.9375,18.286777 3.175,18.981351 4,19.28678 C 4.8549391,19.603293 4.3173884,19.876056 2.75,19.921053 C 0.84754233,19.975669 -9.0147215e-18,19.499967 -2.9249848e-17,18.377555 z M 14.5,19 C 14.160081,18.45 14.358524,18 14.940983,18 C 15.523442,18 16,18.45 16,19 C 16,20.281385 15.291939,20.281385 14.5,19 z M 17,19.39235 C 17,18.564723 18.941729,18.096699 19.386913,18.817021 C 19.675723,19.284326 19.256818,19.666667 18.456011,19.666667 C 17.655205,19.666667 17,19.543224 17,19.39235 z M 18.623539,15.461341 C 17.65856,12.946647 17.943228,12.297786 19.122073,14.325003 C 19.705763,15.328754 19.972671,16.360662 19.715202,16.618131 C 19.457734,16.8756 18.966485,16.355044 18.623539,15.461341 z M 18,10 C 17.098708,9.4175404 16.975367,9.0245136 17.690983,9.0153128 C 18.346024,9.0068907 19.160081,9.45 19.5,10 C 20.267305,11.241525 19.921123,11.241525 18,10 z M 1.6679271,6.5770152 C 1.3700238,5.8006916 1.7728706,4.9173993 2.5631423,4.6141436 C 3.3934982,4.2955062 4,4.6577651 4,5.4723678 C 4,7.4680382 2.315949,8.2657331 1.6679271,6.5770152 z M 17.333333,6.5439887 C 17.333333,5.7431824 17.715674,5.3242767 18.182979,5.613087 C 18.650283,5.9018973 18.773726,6.5571024 18.457295,7.0690983 C 17.64867,8.3774802 17.333333,8.2301561 17.333333,6.5439887 z M 1.1578947,2 C 1.1578947,0.625 1.3848684,0.0625 1.6622807,0.75 C 1.939693,1.4375 1.939693,2.5625 1.6622807,3.25 C 1.3848684,3.9375 1.1578947,3.375 1.1578947,2 z M 10,2.9063804 C 10,2.4078712 10.5625,1.9931093 11.25,1.9846872 C 12.083333,1.9744787 12,1.6462496 11,1 C 9.767697,0.20362464 9.8718014,0.02789276 11.583333,0.015312775 C 14.152449,-0.0035705616 14.354202,2.6741115 11.833333,3.3333333 C 10.825,3.5970184 10,3.4048896 10,2.9063804 z M 19.063635,2.5 C 18.98588,0.85020443 18.804245,0.76118961 18.026328,1.9916408 C 17.289008,3.1578783 16.819568,3.2195676 15.874423,2.2744233 C 14.929279,1.329279 15.043934,0.92037126 16.4,0.4 C 18.461885,-0.39121968 20.445092,1.2732782 19.691447,3.1625 C 19.364703,3.9815776 19.121359,3.724789 19.063635,2.5 z "
       id="path1903" />
    <path
       style="fill:#a7b2b8"
       d="M 3.860784,18.033269 C 2.5623528,16.951567 2.0073999,16.051567 2.6275553,16.033269 C 3.2477107,16.014971 4.3319144,16.695006 5.0368969,17.544458 C 5.92796,18.618123 7.2607994,18.904455 9.4093416,18.483783 C 11.728999,18.029607 12.125807,18.139428 11,18.924012 C 8.740554,20.498639 6.4818342,20.216824 3.860784,18.033269 z M 1,13 C 0.098708082,12.41754 -0.024632566,12.024514 0.69098301,12.015313 C 1.3460237,12.006891 2.1600813,12.45 2.5,13 C 3.2673048,14.241525 2.9211232,14.241525 1,13 z M 2,9.1069888 C 2,8.6158326 2.7386496,7.9305312 3.6414435,7.5840966 C 5.0139156,7.0574297 5.0757829,7.2037609 4.0189988,8.4771078 C 2.5788732,10.212353 2,10.392948 2,9.1069888 z M 14,8.559017 C 14,8.3164763 14.45,7.8399187 15,7.5 C 15.55,7.1600813 16,7.3585237 16,7.940983 C 16,8.5234424 15.55,9 15,9 C 14.45,9 14,8.8015576 14,8.559017 z M 7.5,4.4683227 C 7.5,3.1136672 7.9828388,2.4399202 8.7442564,2.7321036 C 9.4285975,2.9947099 9.7632937,3.5739818 9.4880258,4.0193746 C 9.212758,4.4647674 9.5412369,5.0137456 10.217979,5.2393263 C 10.910409,5.4701364 10.585196,5.875211 9.4742096,6.1657404 C 7.9476662,6.5649405 7.5,6.1800388 7.5,4.4683227 z "
       id="path1901" />
    <path
       style="fill:#9ab4ba"
       d="M 11.386348,18.803665 C 12.38402,18.245339 13.574462,18.174921 14.045352,18.646375 C 14.515999,19.117588 13.706755,19.570463 12.238949,19.657289 C 9.951808,19.792581 9.8325717,19.673202 11.386348,18.803665 z M 16.447214,19.08541 C 16.7581,18.582386 16.447157,17.95325 15.756231,17.68733 C 15.065304,17.42141 15.489559,17.25201 16.69902,17.310884 C 18.377498,17.392589 18.644408,17.723536 17.826575,18.708964 C 16.601348,20.185273 15.598273,20.459025 16.447214,19.08541 z M 1.9234887,12.75 C 1.383565,10.985803 1.2899409,8.9566076 1.7706462,9.4373129 C 2.5004102,10.167077 3.0100074,13 2.4115161,13 C 2.1851823,13 1.9655699,12.8875 1.9234887,12.75 z M 4.4145898,5.8618034 C 3.9832975,5.1639578 4.1228653,4.9579009 4.7600813,5.3517221 C 5.3480854,5.7151286 6.0570879,5.4471574 6.3356424,4.7562306 C 6.698141,3.8570891 6.8645464,3.8385422 6.9210526,4.690983 C 7.0351257,6.4118643 5.2654462,7.238518 4.4145898,5.8618034 z M 11.564293,4.2931281 C 11.021608,2.8679296 11.136472,2.7530661 12.124088,3.7333333 C 12.807506,4.4116667 13.114759,5.2185743 12.806872,5.5264614 C 12.498985,5.8343485 11.939824,5.2793485 11.564293,4.2931281 z M 18,5 C 17.098708,4.4175404 16.975367,4.0245136 17.690983,4.0153128 C 18.346024,4.0068907 19.160081,4.45 19.5,5 C 20.267305,6.2415252 19.921123,6.2415252 18,5 z M 2,1.6069888 C 2,1.3908326 2.698372,0.94598713 3.5519378,0.6184432 C 4.4418629,0.27694688 4.8432596,0.44459431 4.4929208,1.0114544 C 3.9056629,1.9616577 2,2.4169019 2,1.6069888 z "
       id="path1899" />
    <path
       style="fill:#6f5555"
       d="M 7,15.880321 C 7,14.685659 7.966649,13.822982 9.75,13.426107 C 11.2625,13.089509 13.2875,12.600611 14.25,12.339667 C 15.468846,12.009226 16,12.441576 16,13.764135 C 16,15.195474 14.891958,15.916602 11.5,16.692792 C 7.4224919,17.625858 7,17.549578 7,15.880321 z M 4.3094679,15.364077 C 3.9641986,14.46432 4.1326407,13.013274 4.6837837,12.139531 C 5.9280282,10.166993 12.968445,8.5684447 14.345751,9.9457507 C 15.576455,11.176455 13.518013,12.055876 8.8044927,12.313123 C 5.8327545,12.47531 5.4366957,12.797269 5.8067574,14.75 C 6.2992911,17.348989 5.2381521,17.784189 4.3094679,15.364077 z M 4.5411946,9.1212 C 5.7487186,7.841314 15.194602,5.8761111 14.465046,7.0565565 C 14.196656,7.4908202 12.519725,8.1393439 10.738532,8.4977203 C 8.9573396,8.8560967 6.6,9.3912958 5.5,9.6870515 C 4.0674071,10.072231 3.7953906,9.9116971 4.5411946,9.1212 z "
       id="path1897" />
    <path
       style="fill:#160001"
       d="M 5.8811621,15.218582 C 5.5517178,13.231363 5.6984688,12.298469 6.2532465,12.853246 C 6.7570923,13.357092 7.0018918,14.833731 6.7972454,16.134665 C 6.4823666,18.136345 6.3415248,17.995504 5.8811621,15.218582 z M 8.2708333,17.395833 C 8.603125,17.063542 9.465625,17.028015 10.1875,17.316886 C 10.985233,17.636112 10.748276,17.873069 9.5833333,17.921053 C 8.5291667,17.964474 7.9385417,17.728125 8.2708333,17.395833 z M 12.270833,16.395833 C 12.603125,16.063542 13.465625,16.028015 14.1875,16.316886 C 14.985233,16.636112 14.748276,16.873069 13.583333,16.921053 C 12.529167,16.964474 11.938542,16.728125 12.270833,16.395833 z M 8.5405729,12.934352 C 8.7797941,12.547284 10.307263,12.035133 11.934948,11.79624 C 13.562633,11.557346 14.698648,11.67858 14.459427,12.065648 C 14.220206,12.452716 12.692737,12.964867 11.065052,13.20376 C 9.4373674,13.442654 8.3013517,13.32142 8.5405729,12.934352 z M 6,9.6134994 C 6,9.400924 7.3262343,9.0323488 8.9471874,8.7944435 C 10.56814,8.5565381 11.666583,8.7304633 11.38817,9.1809441 C 10.892655,9.9827043 6,10.37548 6,9.6134994 z M 7.8790843,6.7209157 C 8.3615834,6.2384166 10.048675,6.004825 11.628178,6.2018232 C 14.271796,6.5315397 14.202085,6.6012506 10.750907,7.0790943 C 8.6011727,7.3767425 7.3760561,7.2239439 7.8790843,6.7209157 z "
       id="path1895" />
    <path
       style="fill:#040205"
       d="M 5.5576371,18.093259 C 5.2494188,17.594551 5.8978611,17.422035 6.9986201,17.70989 C 9.3336074,18.320503 9.6287668,19 7.559017,19 C 6.7664763,19 5.8658554,18.591966 5.5576371,18.093259 z M 11.270833,17.395833 C 11.603125,17.063542 12.465625,17.028015 13.1875,17.316886 C 13.985233,17.636112 13.748276,17.873069 12.583333,17.921053 C 11.529167,17.964474 10.938542,17.728125 11.270833,17.395833 z M 15.73654,14.597868 C 16.031945,13.05256 15.475021,11.475021 14.175187,10.175187 C 12.494353,8.4943528 12.40449,8.0587604 13.640701,7.5843816 C 14.458036,7.2707408 14.846685,6.5609474 14.504365,6.0070628 C 14.162046,5.4531783 14.653268,5 15.595971,5 C 17.202511,5 17.204629,5.1164061 15.629759,6.8566176 C 14.129837,8.5140135 14.113206,8.8490631 15.474772,9.9790624 C 17.079338,11.310734 17.617315,17 16.138672,17 C 15.664941,17 15.483982,15.919041 15.73654,14.597868 z M 3.1160014,12.781385 C 3.0240115,9.8324987 3.3157734,9.1839432 4.5255234,9.6481678 C 5.5155534,10.028078 5.7288377,10.631351 5.1331318,11.366783 C 4.6282786,11.990052 3.9939937,13.4 3.7236098,14.5 C 3.4382089,15.661094 3.1833456,14.940215 3.1160014,12.781385 z M 6.4953913,3.9854792 C 6.1437301,2.8774928 5.4435601,2.2258648 4.939458,2.537417 C 4.4353559,2.8489692 4.2799958,2.4339176 4.5942132,1.6150801 C 5.4457508,-0.60399118 7.4789482,0.66041473 7.6442133,3.5118158 C 7.8186369,6.521233 7.3601994,6.7102484 6.4953913,3.9854792 z "
       id="path1893" />
  </g>
</svg>
