<?xml version="1.0" encoding="UTF-8" standalone="no"?>
<!-- Created with Inkscape (http://www.inkscape.org/) -->
<svg
   xmlns:dc="http://purl.org/dc/elements/1.1/"
   xmlns:cc="http://web.resource.org/cc/"
   xmlns:rdf="http://www.w3.org/1999/02/22-rdf-syntax-ns#"
   xmlns:svg="http://www.w3.org/2000/svg"
   xmlns="http://www.w3.org/2000/svg"
   xmlns:xlink="http://www.w3.org/1999/xlink"
   xmlns:sodipodi="http://sodipodi.sourceforge.net/DTD/sodipodi-0.dtd"
   xmlns:inkscape="http://www.inkscape.org/namespaces/inkscape"
   id="svg2"
   sodipodi:version="0.32"
   inkscape:version="0.44"
   width="20"
   height="20"
   version="1.0"
   sodipodi:docbase="/home/kde4/Developpements/C++/ksirk/ksirk/skins/default/Images"
   sodipodi:docname="reddice1.svg">
  <metadata
     id="metadata7">
    <rdf:RDF>
      <cc:Work
         rdf:about="">
        <dc:format>image/svg+xml</dc:format>
        <dc:type
           rdf:resource="http://purl.org/dc/dcmitype/StillImage" />
      </cc:Work>
    </rdf:RDF>
  </metadata>
  <defs
     id="defs5" />
  <sodipodi:namedview
     inkscape:window-height="582"
     inkscape:window-width="928"
     inkscape:pageshadow="2"
     inkscape:pageopacity="0.0"
     guidetolerance="10.0"
     gridtolerance="10.0"
     objecttolerance="10.0"
     borderopacity="1.0"
     bordercolor="#666666"
     pagecolor="#ffffff"
     id="base"
     inkscape:zoom="18.95"
     inkscape:cx="10"
     inkscape:cy="9.9736148"
     inkscape:window-x="666"
     inkscape:window-y="0"
     inkscape:current-layer="svg2" />
  <g
     id="g1990">
    <path
       style="fill:#fefdfd"
       d="M 0.067680281,17.25 C 0.1341433,14.54946 0.15487727,14.540467 1.2204946,16.75 C 2.5233017,19.45134 6.7443053,19.709864 14.75,17.578644 C 19.738337,16.250683 20,16.276195 20,18.090512 C 20,19.84253 19.175329,20 10,20 L 0,20 L 0.067680281,17.25 z M 18.081457,7 L 16.750361,1 L 13.034111,1 C 10.990174,1 7.2213429,1.6309594 4.6589309,2.4021321 C 0.25514525,3.7274767 3.2563396e-16,3.7000943 1.6740082e-16,1.9021321 C 1.4031073e-17,0.15943145 0.83817233,0 10,0 L 20,0 L 20,6.5 C 20,10.075 19.867824,13 19.706276,13 C 19.544728,13 18.813559,10.3 18.081457,7 z M 9,10 C 9,9.45 9.45,9 10,9 C 10.55,9 11,9.45 11,10 C 11,10.55 10.55,11 10,11 C 9.45,11 9,10.55 9,10 z "
       id="path2006" />
    <path
       style="fill:#f5eaea"
       d="M 18.731213,14.919841 C 19.084822,13.567637 19.538115,13.114344 19.787763,13.86329 C 20.028244,14.584731 19.749552,15.650448 19.16845,16.23155 C 18.426382,16.973618 18.296239,16.583186 18.731213,14.919841 z M 8.4461493,10.912868 C 8.0766127,10.314945 8.1786265,9.4213735 8.6728466,8.9271534 C 9.2042892,8.3957108 9.5714286,8.8398873 9.5714286,10.014286 C 9.5714286,12.286516 9.3864179,12.434254 8.4461493,10.912868 z "
       id="path2004" />
    <path
       style="fill:#ebd2d1"
       d="M 7.2708333,18.395833 C 7.603125,18.063542 8.465625,18.028015 9.1875,18.316886 C 9.9852327,18.636112 9.7482763,18.873069 8.5833333,18.921053 C 7.5291667,18.964474 6.9385417,18.728125 7.2708333,18.395833 z M 18.078947,11.583333 C 18.035526,10.529167 18.271875,9.9385417 18.604167,10.270833 C 18.936458,10.603125 18.971985,11.465625 18.683114,12.1875 C 18.363888,12.985233 18.126931,12.748276 18.078947,11.583333 z M 10.428571,10 C 10.428571,8.7047619 10.766667,8.3666667 11.414286,9.0142857 C 12.061905,9.6619048 12.061905,10.338095 11.414286,10.985714 C 10.766667,11.633333 10.428571,11.295238 10.428571,10 z M 15.564293,2.2931281 C 15.021608,0.86792962 15.136472,0.75306606 16.124088,1.7333333 C 16.807506,2.4116667 17.114759,3.2185743 16.806872,3.5264614 C 16.498985,3.8343485 15.939824,3.2793485 15.564293,2.2931281 z "
       id="path2002" />
    <path
       style="fill:#d28e8e"
       d="M 2.8724447,17.25 C 1.6798303,15.729301 1.6965437,15.646193 3,16.615727 C 3.825,17.229377 5.175,17.981351 6,18.28678 C 7.2547492,18.751309 7.2338938,18.855013 5.8724447,18.921053 C 4.9772893,18.964474 3.6272893,18.2125 2.8724447,17.25 z M 18.078947,14.583333 C 18.035526,13.529167 18.271875,12.938542 18.604167,13.270833 C 18.936458,13.603125 18.971985,14.465625 18.683114,15.1875 C 18.363888,15.985233 18.126931,15.748276 18.078947,14.583333 z M 0.078947368,10.583333 C 0.035526316,9.5291667 0.271875,8.9385417 0.60416667,9.2708333 C 0.93645833,9.603125 0.97198465,10.465625 0.68311404,11.1875 C 0.36388767,11.985233 0.12693129,11.748276 0.078947368,10.583333 z M 2,4 C 2.825,3.4668441 3.95,3.0306255 4.5,3.0306255 C 5.05,3.0306255 4.825,3.4668441 4,4 C 3.175,4.5331559 2.05,4.9693745 1.5,4.9693745 C 0.95,4.9693745 1.175,4.5331559 2,4 z M 11.75,1.3377193 C 12.4375,1.060307 13.5625,1.060307 14.25,1.3377193 C 14.9375,1.6151316 14.375,1.8421053 13,1.8421053 C 11.625,1.8421053 11.0625,1.6151316 11.75,1.3377193 z "
       id="path2000" />
    <path
       style="fill:#c9706f"
       d="M 2.8724447,16.25 C 1.6285741,14.663944 1.6639444,14.628574 3.25,15.872445 C 4.2125,16.627289 5,17.414789 5,17.622445 C 5,18.445479 4.1788145,17.915748 2.8724447,16.25 z M 0.15789474,7 C 0.15789474,5.625 0.38486842,5.0625 0.6622807,5.75 C 0.93969298,6.4375 0.93969298,7.5625 0.6622807,8.25 C 0.38486842,8.9375 0.15789474,8.375 0.15789474,7 z "
       id="path1998" />
    <path
       style="fill:#b9494d"
       d="M 3.4049876,15.75 C 1.5153616,13.518144 1.5161278,13.513377 3.5,15.158825 C 4.6,16.071179 6.625,17.022397 8,17.272643 L 10.5,17.727636 L 7.9049876,17.863818 C 6.3212548,17.94693 4.567599,17.123172 3.4049876,15.75 z M 14.75,15.779505 C 15.9875,15.182682 17.052201,13.750638 17.116001,12.597186 C 17.223199,10.659158 17.269397,10.646767 17.724742,12.433903 C 18.214658,14.356724 15.702572,17.06934 13.55887,16.93232 C 12.976492,16.895096 13.5125,16.376329 14.75,15.779505 z M 1,6.0951926 C 1,5.2648418 5.1021094,3.7687761 5.7105559,4.3772226 C 5.8743989,4.5410655 4.8815505,5.1885697 3.5042261,5.8161206 C 2.1269017,6.4436716 1,6.569254 1,6.0951926 z M 15,4.6076497 C 15,3.6585237 14.641014,3.1038313 14.202254,3.375 C 13.763494,3.6461687 12.750994,3.4546171 11.952254,2.9493298 C 10.821817,2.2342088 11.005551,2.0272323 12.781385,2.0153128 C 14.996653,2.0004438 16.882065,4.4512684 15.623539,5.7097947 C 15.280592,6.052741 15,5.5567757 15,4.6076497 z "
       id="path1996" />
    <path
       style="fill:#ae2a32"
       d="M 10.270833,16.395833 C 10.603125,16.063542 11.465625,16.028015 12.1875,16.316886 C 12.985233,16.636112 12.748276,16.873069 11.583333,16.921053 C 10.529167,16.964474 9.9385417,16.728125 10.270833,16.395833 z M 14.762738,14.772892 C 15.337832,14.072801 16.0152,12.375 16.268,11 C 16.668194,8.8233075 16.745247,8.9064637 16.863818,11.643011 C 16.95403,13.725049 16.445904,14.998649 15.358556,15.415903 C 14.117465,15.892155 13.972143,15.735323 14.762738,14.772892 z M 2.4588815,13.933469 C 2.0963476,13.346877 2.0141976,12.652469 2.2763259,12.390341 C 2.5384542,12.128212 3.019392,12.608151 3.3450766,13.456872 C 4.0212606,15.218979 3.4449308,15.52893 2.4588815,13.933469 z M 1.0789474,9.2851838 C 1.031396,7.9511627 1.8947871,6.6008258 3.25,5.8896746 C 5.3922986,4.7654981 5.4224784,4.7997145 3.8804878,6.6044908 C 2.9897561,7.6470209 2.0127824,9.175 1.7094352,10 C 1.343202,10.996028 1.1313699,10.755863 1.0789474,9.2851838 z M 14.049824,5.5600345 C 13.392538,4.7680535 11.874938,3.92161 10.677379,3.6790491 C 9.405727,3.4214807 9.8260131,3.2750297 11.687753,3.3269791 C 13.862956,3.3876752 15.024359,3.9851463 15.344133,5.2079645 C 15.911198,7.3764262 15.622475,7.4549629 14.049824,5.5600345 z "
       id="path1994" />
    <path
       style="fill:#a61626"
       d="M 5.8893322,16.346932 C 4.2584678,15.901501 2,11.988282 2,9.6079345 C 2,5.5775215 10.788561,2.5936874 14.027138,5.5245599 C 16.263993,7.5488856 16.705193,13.187023 14.75,14.762083 C 13.196084,16.013882 8.0439454,16.935411 5.8893322,16.346932 z M 11.418213,12.393011 C 13.710115,11.513526 13.359211,8.2487844 10.888493,7.464609 C 7.8984914,6.5156194 5.1642987,9.2881152 6.9583474,11.449812 C 8.3721355,13.153322 9.0585658,13.298493 11.418213,12.393011 z "
       id="path1992" />
  </g>
</svg>
