<?xml version="1.0" encoding="UTF-8" standalone="no"?>
<!-- Created with Inkscape (http://www.inkscape.org/) -->
<svg
   xmlns:dc="http://purl.org/dc/elements/1.1/"
   xmlns:cc="http://web.resource.org/cc/"
   xmlns:rdf="http://www.w3.org/1999/02/22-rdf-syntax-ns#"
   xmlns:svg="http://www.w3.org/2000/svg"
   xmlns="http://www.w3.org/2000/svg"
   xmlns:xlink="http://www.w3.org/1999/xlink"
   xmlns:sodipodi="http://sodipodi.sourceforge.net/DTD/sodipodi-0.dtd"
   xmlns:inkscape="http://www.inkscape.org/namespaces/inkscape"
   id="svg38"
   sodipodi:version="0.32"
   inkscape:version="0.44"
   width="20"
   height="20"
   version="1.0"
   sodipodi:docbase="/home/kde4/Developpements/C++/ksirk/ksirk/skins/default/Images"
   sodipodi:docname="reddice5.svg">
  <metadata
     id="metadata43">
    <rdf:RDF>
      <cc:Work
         rdf:about="">
        <dc:format>image/svg+xml</dc:format>
        <dc:type
           rdf:resource="http://purl.org/dc/dcmitype/StillImage" />
      </cc:Work>
    </rdf:RDF>
  </metadata>
  <defs
     id="defs41" />
  <sodipodi:namedview
     inkscape:window-height="582"
     inkscape:window-width="928"
     inkscape:pageshadow="2"
     inkscape:pageopacity="0.0"
     guidetolerance="10.0"
     gridtolerance="10.0"
     objecttolerance="10.0"
     borderopacity="1.0"
     bordercolor="#666666"
     pagecolor="#ffffff"
     id="base"
     inkscape:zoom="18.95"
     inkscape:cx="10"
     inkscape:cy="9.9736148"
     inkscape:window-x="0"
     inkscape:window-y="0"
     inkscape:current-layer="svg38" />
  <g
     id="g1936">
    <path
       style="fill:#fefdfd"
       d="M 0.067680281,17.25 C 0.1341433,14.54946 0.15487727,14.540467 1.2204946,16.75 C 2.5233017,19.45134 6.7443053,19.709864 14.75,17.578644 C 19.738337,16.250683 20,16.276195 20,18.090512 C 20,19.84253 19.175329,20 10,20 L 0,20 L 0.067680281,17.25 z M 18.081457,7 L 16.750361,1 L 13.034111,1 C 10.990174,1 7.2213429,1.6309594 4.6589309,2.4021321 C 0.25514525,3.7274767 3.2563396e-16,3.7000943 1.6740082e-16,1.9021321 C 1.4031073e-17,0.15943145 0.83817233,0 10,0 L 20,0 L 20,6.5 C 20,10.075 19.867824,13 19.706276,13 C 19.544728,13 18.813559,10.3 18.081457,7 z "
       id="path1952" />
    <path
       style="fill:#f4e8e8"
       d="M 18.731213,14.919841 C 19.084822,13.567637 19.538115,13.114344 19.787763,13.86329 C 20.028244,14.584731 19.749552,15.650448 19.16845,16.23155 C 18.426382,16.973618 18.296239,16.583186 18.731213,14.919841 z M 12.333333,12.543989 C 12.333333,11.743182 12.715674,11.324277 13.182979,11.613087 C 13.650283,11.901897 13.773726,12.557102 13.457295,13.069098 C 12.64867,14.37748 12.333333,14.230156 12.333333,12.543989 z M 11.333333,6.5439887 C 11.333333,5.7431824 11.715674,5.3242767 12.182979,5.613087 C 12.650283,5.9018973 12.773726,6.5571024 12.457295,7.0690983 C 11.64867,8.3774802 11.333333,8.2301561 11.333333,6.5439887 z "
       id="path1950" />
    <path
       style="fill:#ebd0d1"
       d="M 18.078947,11.583333 C 18.035526,10.529167 18.271875,9.9385417 18.604167,10.270833 C 18.936458,10.603125 18.971985,11.465625 18.683114,12.1875 C 18.363888,12.985233 18.126931,12.748276 18.078947,11.583333 z M 15.564293,2.2931281 C 15.021608,0.86792962 15.136472,0.75306606 16.124088,1.7333333 C 16.807506,2.4116667 17.114759,3.2185743 16.806872,3.5264614 C 16.498985,3.8343485 15.939824,3.2793485 15.564293,2.2931281 z "
       id="path1948" />
    <path
       style="fill:#d38f91"
       d="M 2.8724447,17.25 C 1.6798303,15.729301 1.6965437,15.646193 3,16.615727 C 3.825,17.229377 5.175,17.981351 6,18.28678 C 7.2547492,18.751309 7.2338938,18.855013 5.8724447,18.921053 C 4.9772893,18.964474 3.6272893,18.2125 2.8724447,17.25 z M 18.078947,14.583333 C 18.035526,13.529167 18.271875,12.938542 18.604167,13.270833 C 18.936458,13.603125 18.971985,14.465625 18.683114,15.1875 C 18.363888,15.985233 18.126931,15.748276 18.078947,14.583333 z M 7.25,12.523429 C 7.25,11.115482 7.5804928,9.7592697 7.9844284,9.5096238 C 8.388364,9.2599779 8.5923773,10.207921 8.4377912,11.616165 C 8.0574445,15.081037 7.25,15.697783 7.25,12.523429 z M 0.078947368,10.583333 C 0.035526316,9.5291667 0.271875,8.9385417 0.60416667,9.2708333 C 0.93645833,9.603125 0.97198465,10.465625 0.68311404,11.1875 C 0.36388767,11.985233 0.12693129,11.748276 0.078947368,10.583333 z M 2,4 C 2.825,3.4668441 3.95,3.0306255 4.5,3.0306255 C 5.05,3.0306255 4.825,3.4668441 4,4 C 3.175,4.5331559 2.05,4.9693745 1.5,4.9693745 C 0.95,4.9693745 1.175,4.5331559 2,4 z M 11.75,1.3377193 C 12.4375,1.060307 13.5625,1.060307 14.25,1.3377193 C 14.9375,1.6151316 14.375,1.8421053 13,1.8421053 C 11.625,1.8421053 11.0625,1.6151316 11.75,1.3377193 z "
       id="path1946" />
    <path
       style="fill:#c86d70"
       d="M 3.138321,16.666667 C 2.3114138,15.670304 2.3647113,15.333333 3.3492097,15.333333 C 4.073811,15.333333 4.6666667,15.933333 4.6666667,16.666667 C 4.6666667,18.326212 4.5156215,18.326212 3.138321,16.666667 z M 5,10 C 5.825,9.4668441 6.95,9.0306255 7.5,9.0306255 C 8.05,9.0306255 7.825,9.4668441 7,10 C 6.175,10.533156 5.05,10.969374 4.5,10.969374 C 3.95,10.969374 4.175,10.533156 5,10 z M 0.15789474,7 C 0.15789474,5.625 0.38486842,5.0625 0.6622807,5.75 C 0.93969298,6.4375 0.93969298,7.5625 0.6622807,8.25 C 0.38486842,8.9375 0.15789474,8.375 0.15789474,7 z "
       id="path1944" />
    <path
       style="fill:#ba4546"
       d="M 3.5,16 C 2.5045137,14.9 2.1616243,14 2.7380236,14 C 3.314423,14 4.0325902,14.642545 4.3339508,15.427879 C 4.6353114,16.213212 6.1459564,17.045787 7.6909396,17.278046 C 10.465672,17.695175 10.468288,17.702167 7.9049876,17.850168 C 6.4264836,17.935534 4.5312303,17.139497 3.5,16 z M 16.203671,14.045478 C 17.583448,11.836105 18.554929,12.111495 17.654923,14.456872 C 17.329239,15.305592 16.594833,16 16.022911,16 C 15.364755,16 15.431107,15.282551 16.203671,14.045478 z M 1.4008604,6.8395888 C 0.65214522,5.6281422 0.89442584,5.4155295 4,4.558721 C 5.7011013,4.0893978 6.0643917,4.1707965 5.1368474,4.8134425 C 4.0071859,5.5961247 4.0027683,5.8342561 5.111057,6.2036857 C 5.929827,6.476609 5.5863182,6.8749175 4.2252055,7.2308565 C 3.002438,7.5506173 1.7314827,7.3745469 1.4008604,6.8395888 z M 15,5.099279 C 15,4.3576951 14.268377,4.0974328 13.166667,4.4471021 C 11.93977,4.8365039 11.333333,4.5280109 11.333333,3.5144897 C 11.333333,1.4748608 14.624293,1.5785397 15.41655,3.6431281 C 15.76334,4.5468485 15.811485,5.5218485 15.523539,5.8097947 C 15.235592,6.097741 15,5.7780089 15,5.099279 z "
       id="path1942" />
    <path
       style="fill:#aa2a35"
       d="M 5.2708333,16.395833 C 5.603125,16.063542 6.465625,16.028015 7.1875,16.316886 C 7.9852327,16.636112 7.7482763,16.873069 6.5833333,16.921053 C 5.5291667,16.964474 4.9385417,16.728125 5.2708333,16.395833 z M 2,13.606989 C 2,13.390833 2.698372,12.945987 3.5519378,12.618443 C 4.4418629,12.276947 4.8432596,12.444594 4.4929208,13.011454 C 3.9056629,13.961658 2,14.416902 2,13.606989 z M 1,9.059017 C 1,7.9914763 1.3375,6.9094475 1.75,6.6545085 C 2.1625,6.3995695 2.5,7.2730118 2.5,8.5954915 C 2.5,9.9179712 2.1625,11 1.75,11 C 1.3375,11 1,10.126558 1,9.059017 z M 10,9 C 9.4112979,7.9 9.1546325,7 9.4296325,7 C 9.7046325,7 10.411298,7.9 11,9 C 11.588702,10.1 11.845368,11 11.570368,11 C 11.295368,11 10.588702,10.1 10,9 z M 13.638374,5.5 C 13.321791,4.675 13.450501,4 13.924396,4 C 14.398291,4 15.045044,4.675 15.361626,5.5 C 15.678209,6.325 15.549499,7 15.075604,7 C 14.601709,7 13.954956,6.325 13.638374,5.5 z M 9.3333333,4.5 C 9.3333333,3.675 9.9884335,3 10.789111,3 C 11.969754,3 12.009611,3.2834933 11,4.5 C 9.4551705,6.3614057 9.3333333,6.3614057 9.3333333,4.5 z "
       id="path1940" />
    <path
       style="fill:#a71828"
       d="M 8.3930112,15.418213 C 8.726855,14.548229 9,13.644416 9,13.409739 C 9,13.175061 9.8634594,13.522292 10.918799,14.181362 C 12.428094,15.123932 13.172702,15.101559 14.407788,14.076529 C 16.239741,12.556143 15.658689,11.208184 12.647673,9.9933088 C 10.934333,9.3020158 10.85391,9.1139537 12.25,9.0633863 C 13.2125,9.0285238 14,8.55 14,8 C 14,5.8297259 15.797236,7.1589744 16.280426,9.6866193 C 16.999961,13.450628 16.2972,14.700745 12.770602,15.930124 C 8.5965307,17.385213 7.6793592,17.27796 8.3930112,15.418213 z M 2,12 C 2,11.45 3.0125,11.006891 4.25,11.015313 C 6.0694383,11.027695 6.2129589,11.216126 5,12 C 3.0612408,13.252922 2,13.252922 2,12 z M 6.5,7 C 5.5045137,5.9 5.1729649,5 5.763225,5 C 6.353485,5 7.4357294,4.7700253 8.1682125,4.4889452 C 9.059364,4.1469783 9.5,4.8086995 9.5,6.4889452 C 9.5,9.5229298 8.878963,9.6287245 6.5,7 z "
       id="path1938" />
  </g>
</svg>
