<?xml version="1.0" encoding="UTF-8" standalone="no"?>
<!-- Created with Inkscape (http://www.inkscape.org/) -->
<svg
   xmlns:dc="http://purl.org/dc/elements/1.1/"
   xmlns:cc="http://web.resource.org/cc/"
   xmlns:rdf="http://www.w3.org/1999/02/22-rdf-syntax-ns#"
   xmlns:svg="http://www.w3.org/2000/svg"
   xmlns="http://www.w3.org/2000/svg"
   xmlns:sodipodi="http://sodipodi.sourceforge.net/DTD/sodipodi-0.dtd"
   xmlns:inkscape="http://www.inkscape.org/namespaces/inkscape"
   id="svg2"
   sodipodi:version="0.32"
   inkscape:version="0.44"
   width="80"
   height="20"
   version="1.0"
   sodipodi:docbase="/home/kde4/Developpements/C++/ksirk/ksirk/skins/default/Images/sprites"
   sodipodi:docname="belgium.svg">
  <metadata
     id="metadata7">
    <rdf:RDF>
      <cc:Work
         rdf:about="">
        <dc:format>image/svg+xml</dc:format>
        <dc:type
           rdf:resource="http://purl.org/dc/dcmitype/StillImage" />
      </cc:Work>
    </rdf:RDF>
  </metadata>
  <defs
     id="defs5" />
  <sodipodi:namedview
     inkscape:window-height="582"
     inkscape:window-width="928"
     inkscape:pageshadow="2"
     inkscape:pageopacity="0.0"
     guidetolerance="10.0"
     gridtolerance="10.0"
     objecttolerance="10.0"
     borderopacity="1.0"
     bordercolor="#666666"
     pagecolor="#ffffff"
     id="base"
     inkscape:zoom="10.525"
     inkscape:cx="40"
     inkscape:cy="9.9049882"
     inkscape:window-x="666"
     inkscape:window-y="0"
     inkscape:current-layer="g1903" />
  <g
     id="g1903">
    <path
       style="fill:#e4e4e3"
       d="M 2.1498321,10.809017 C 2.0674244,6.5789763 2.3375,2.9084027 2.75,2.6521867 C 3.1625,2.3959707 3.3728329,4.7319131 3.2174064,7.8431697 C 2.7295013,17.609833 2.305282,18.788364 2.1498321,10.809017 z M 6.1498321,15.725249 C 6.0339209,13.578681 6.5958837,12.723944 8.6320818,11.949783 C 10.079727,11.399389 12.126321,11.222705 13.18007,11.557152 C 14.233818,11.891599 15.749381,11.622958 16.547988,10.960174 C 18.306119,9.5010542 18.456937,4.8569373 16.8,3.2 C 15.997179,2.3971793 15.961768,2 16.693011,2 C 17.294167,2 18.059167,2.7118044 18.393011,3.5817875 C 20.268707,8.4697727 17.530544,13.600958 13.576095,12.608455 C 9.9067671,11.687512 7.1458541,12.991022 6.7064282,15.851831 L 6.2996642,18.5 L 6.1498321,15.725249 z M 22.149832,10.809017 C 22.067424,6.5789763 22.3375,2.9084027 22.75,2.6521867 C 23.1625,2.3959707 23.372833,4.7319131 23.217406,7.8431697 C 22.729501,17.609833 22.305282,18.788364 22.149832,10.809017 z M 26.136182,15.636456 C 26.001499,12.804438 26.048549,12.780193 30.409848,13.43421 C 34.26764,14.012722 35.018763,13.8113 36.409848,11.825248 C 38.236395,9.2174866 38.518434,4.4384437 36.904647,3.4410686 C 36.302203,3.0687377 34.742543,3.3350112 33.438736,4.0327876 C 31.516987,5.0612766 30.773159,5.0566282 29.509923,4.0082352 C 28.652883,3.2969551 28.176668,2.4899986 28.451668,2.2149986 C 28.726668,1.9399986 29.656614,2.3000522 30.518216,3.0151177 C 31.704779,3.9998776 32.365557,4.0344428 33.242382,3.1576184 C 34.899512,1.5004877 37.682282,1.7296568 38.393011,3.5817875 C 39.543623,6.5802326 38.994002,9.7379072 36.846228,12.46836 C 34.969222,14.854586 34.207152,15.128835 30.915868,14.602537 C 27.563418,14.066459 27.0906,14.251404 26.705822,16.249318 C 26.34866,18.103844 26.248394,17.99597 26.136182,15.636456 z M 42.149832,10.809017 C 42.067424,6.5789763 42.3375,2.9084027 42.75,2.6521867 C 43.1625,2.3959707 43.372833,4.7319131 43.217406,7.8431697 C 42.729501,17.609833 42.305282,18.788364 42.149832,10.809017 z M 46.149832,15.725249 C 46.033921,13.578681 46.595884,12.723944 48.632082,11.949783 C 50.079727,11.399389 52.126321,11.222705 53.18007,11.557152 C 54.233818,11.891599 55.749381,11.622958 56.547988,10.960174 C 58.306119,9.5010542 58.456937,4.8569373 56.8,3.2 C 55.997179,2.3971793 55.961768,2 56.693011,2 C 57.294167,2 58.059167,2.7118044 58.393011,3.5817875 C 60.268707,8.4697727 57.530544,13.600958 53.576095,12.608455 C 49.906767,11.687512 47.145854,12.991022 46.706428,15.851831 L 46.299664,18.5 L 46.149832,15.725249 z M 62.149832,10.809017 C 62.067424,6.5789763 62.3375,2.9084027 62.75,2.6521867 C 63.1625,2.3959707 63.372833,4.7319131 63.217406,7.8431697 C 62.729501,17.609833 62.305282,18.788364 62.149832,10.809017 z M 66.149832,15.924314 C 66.057105,14.330298 66.951445,12.454792 68.496383,11.003398 C 70.705867,8.9276956 71.269536,8.8062921 73.40103,9.9470327 C 74.725575,10.655908 76.302203,10.931262 76.904647,10.558931 C 77.507091,10.1866 78,10.358524 78,10.940983 C 78,12.329389 74.705465,12.305465 73.306902,10.906902 C 71.663203,9.2632028 67.204617,12.58748 66.708891,15.826313 L 66.299664,18.5 L 66.149832,15.924314 z M 10.270833,2.3958333 C 10.603125,2.0635417 11.465625,2.0280154 12.1875,2.316886 C 12.985233,2.6361123 12.748276,2.8730687 11.583333,2.9210526 C 10.529167,2.9644737 9.9385417,2.728125 10.270833,2.3958333 z M 50.270833,2.3958333 C 50.603125,2.0635417 51.465625,2.0280154 52.1875,2.316886 C 52.985233,2.6361123 52.748276,2.8730687 51.583333,2.9210526 C 50.529167,2.9644737 49.938542,2.728125 50.270833,2.3958333 z "
       id="path1917" />
    <path
       style="fill:#c3c3c3"
       d="M 3.2320027,15 C 3.2320027,13.075 3.437798,12.2875 3.6893255,13.25 C 3.9408531,14.2125 3.9408531,15.7875 3.6893255,16.75 C 3.437798,17.7125 3.2320027,16.925 3.2320027,15 z M 5,15.559017 C 5,14.216476 5.3685752,12.890242 5.8190559,12.61183 C 6.2695367,12.333417 6.4434619,13.43186 6.2055565,15.052813 C 5.6810211,18.626701 5,18.912657 5,15.559017 z M 23.232003,15 C 23.232003,13.075 23.437798,12.2875 23.689326,13.25 C 23.940853,14.2125 23.940853,15.7875 23.689326,16.75 C 23.437798,17.7125 23.232003,16.925 23.232003,15 z M 25.194949,15.5 C 25.174569,13.85 25.382014,13.053936 25.655937,13.730968 C 25.92986,14.408001 25.946534,15.758001 25.692991,16.730968 C 25.439447,17.703936 25.215328,17.15 25.194949,15.5 z M 43.232003,15 C 43.232003,13.075 43.437798,12.2875 43.689326,13.25 C 43.940853,14.2125 43.940853,15.7875 43.689326,16.75 C 43.437798,17.7125 43.232003,16.925 43.232003,15 z M 45,15.559017 C 45,14.216476 45.368575,12.890242 45.819056,12.61183 C 46.269537,12.333417 46.443462,13.43186 46.205557,15.052813 C 45.681021,18.626701 45,18.912657 45,15.559017 z M 63.232003,15 C 63.232003,13.075 63.437798,12.2875 63.689326,13.25 C 63.940853,14.2125 63.940853,15.7875 63.689326,16.75 C 63.437798,17.7125 63.232003,16.925 63.232003,15 z M 65.136182,15.872445 C 65.061117,14.424103 65.785378,12.628953 66.75,11.872445 C 68.272597,10.678342 68.35002,10.694917 67.345818,12 C 66.711018,12.825 65.9848,14.625 65.732,16 L 65.272364,18.5 L 65.136182,15.872445 z M 34,13.622445 C 34,13.414789 34.7875,12.627289 35.75,11.872445 C 37.336056,10.628574 37.371426,10.663944 36.127555,12.25 C 34.821186,13.915748 34,14.445479 34,13.622445 z M 13.270833,11.395833 C 13.603125,11.063542 14.465625,11.028015 15.1875,11.316886 C 15.985233,11.636112 15.748276,11.873069 14.583333,11.921053 C 13.529167,11.964474 12.938542,11.728125 13.270833,11.395833 z M 53.270833,11.395833 C 53.603125,11.063542 54.465625,11.028015 55.1875,11.316886 C 55.985233,11.636112 55.748276,11.873069 54.583333,11.921053 C 53.529167,11.964474 52.938542,11.728125 53.270833,11.395833 z M 72.55887,9.4825178 C 71.491249,8.667133 71.127191,8 71.749853,8 C 72.372515,8 73.160081,8.45 73.5,9 C 74.811537,11.122112 76.887122,9.8986722 77.317161,6.75 L 77.76104,3.5 L 77.63052,6.9918106 C 77.483284,10.930818 75.640289,11.83592 72.55887,9.4825178 z M 17.232003,7 C 17.232003,5.075 17.437798,4.2875 17.689326,5.25 C 17.940853,6.2125 17.940853,7.7875 17.689326,8.75 C 17.437798,9.7125 17.232003,8.925 17.232003,7 z M 37.149832,7.25 C 36.994781,3.8867874 35.367999,3.0320012 33.216667,5.1833333 C 32.565833,5.8341667 31.801511,6.1348447 31.518173,5.8515067 C 31.234835,5.5681687 32.136428,4.7297615 33.521713,3.9883796 C 36.712693,2.280619 38.318382,3.670056 37.72801,7.6281777 C 37.306739,10.452569 37.29719,10.446323 37.149832,7.25 z M 57.232003,7 C 57.232003,5.075 57.437798,4.2875 57.689326,5.25 C 57.940853,6.2125 57.940853,7.7875 57.689326,8.75 C 57.437798,9.7125 57.232003,8.925 57.232003,7 z M 13.270833,2.3958333 C 13.603125,2.0635417 14.465625,2.0280154 15.1875,2.316886 C 15.985233,2.6361123 15.748276,2.8730687 14.583333,2.9210526 C 13.529167,2.9644737 12.938542,2.728125 13.270833,2.3958333 z M 53.270833,2.3958333 C 53.603125,2.0635417 54.465625,2.0280154 55.1875,2.316886 C 55.985233,2.6361123 55.748276,2.8730687 54.583333,2.9210526 C 53.529167,2.9644737 52.938542,2.728125 53.270833,2.3958333 z "
       id="path1915" />
    <path
       style="fill:#aeaead"
       d="M 3.5731213,11.743652 C 2.7178521,4.5873974 3.6212661,1.9367668 6.8724447,2.0633863 C 7.9738405,2.1062809 7.7726153,2.4191455 6.25,3.0311621 C 4.5120214,3.7297441 4,4.7393624 4,7.4677758 C 4,10.436037 4.3498406,11 6.1911296,11 C 8.1415741,11 8.2042672,11.137307 6.7618704,12.25 C 5.8706565,12.9375 4.9702823,14.625 4.7610388,16 C 4.5517953,17.375 4.0172324,15.459644 3.5731213,11.743652 z M 23.58664,11.743652 C 22.759471,4.9364879 23.614283,1.9560247 26.372445,2.0304087 C 26.9926,2.0471335 26.7125,2.519494 25.75,3.0800988 C 23.380959,4.4599383 23.380959,10.540062 25.75,11.919901 C 26.7125,12.480506 26.96739,12.952867 26.316422,12.969591 C 25.665455,12.986316 24.969672,14.2375 24.770239,15.75 C 24.55327,17.395497 24.077892,15.786397 23.58664,11.743652 z M 43.573121,11.743652 C 42.717852,4.5873974 43.621266,1.9367668 46.872445,2.0633863 C 47.973841,2.1062809 47.772615,2.4191455 46.25,3.0311621 C 44.512021,3.7297441 44,4.7393624 44,7.4677758 C 44,10.436037 44.349841,11 46.19113,11 C 48.141574,11 48.204267,11.137307 46.76187,12.25 C 45.870657,12.9375 44.970282,14.625 44.761039,16 C 44.551795,17.375 44.017232,15.459644 43.573121,11.743652 z M 63.573121,11.743652 C 62.759971,4.9398171 63.619847,1.9561747 66.372445,2.0304087 C 66.9926,2.0471335 66.7125,2.519494 65.75,3.0800988 C 63.393686,4.452526 63.288234,11 65.622445,11 C 66.801268,11 66.964181,11.341785 66.218263,12.25 C 65.653618,12.9375 65.009152,14.625 64.786116,16 C 64.556153,17.417703 64.031025,15.575049 63.573121,11.743652 z M 68.564293,9.7068719 C 68.939824,8.7206515 69.498985,8.1656515 69.806872,8.4735386 C 70.114759,8.7814257 69.807506,9.5883333 69.124088,10.266667 C 68.136472,11.246934 68.021608,11.13207 68.564293,9.7068719 z M 28.564293,4.2931281 C 28.021608,2.8679296 28.136472,2.7530661 29.124088,3.7333333 C 29.807506,4.4116667 30.114759,5.2185743 29.806872,5.5264614 C 29.498985,5.8343485 28.939824,5.2793485 28.564293,4.2931281 z "
       id="path1913" />
    <path
       style="fill:#f0e50b"
       d="M 30.2125,12.8125 C 28.856041,11.456041 28.563576,6.3877587 29.797746,5.625 C 31.343734,4.6695268 32.803383,6.5380244 33.149742,9.9158925 C 33.521258,13.5391 32.221186,14.821186 30.2125,12.8125 z M 9.389534,9.572726 C 8.3435152,6.8468448 9.4519091,3.506896 11.5,3.21321 C 13.217067,2.9669911 13.5,3.4974899 13.5,6.96321 C 13.5,10.168199 13.132937,11 11.718615,11 C 10.738854,11 9.690767,10.357727 9.389534,9.572726 z M 49.389534,9.572726 C 48.343515,6.8468448 49.451909,3.506896 51.5,3.21321 C 53.217067,2.9669911 53.5,3.4974899 53.5,6.96321 C 53.5,10.168199 53.132937,11 51.718615,11 C 50.738854,11 49.690767,10.357727 49.389534,9.572726 z M 69.597766,8.2644323 C 68.29515,6.9618163 69.035529,1.2003438 70.581787,0.6069888 C 72.97635,-0.31189121 73,-0.27975462 73,3.8930112 C 73,7.5077682 71.179808,9.8464744 69.597766,8.2644323 z "
       id="path1911" />
    <path
       style="fill:#fe2116"
       d="M 33,8.6069888 C 33,5.0071088 35.60315,2.8022511 36.645701,5.5190948 C 37.528317,7.8191565 36.131831,12 34.480948,12 C 33.463997,12 33,10.936932 33,8.6069888 z M 13.421445,9.655884 C 12.461735,7.15492 13.398967,3.5 15,3.5 C 16.04065,3.5 16.5,4.5462963 16.5,6.9166667 C 16.5,10.462381 14.435743,12.299102 13.421445,9.655884 z M 53.421445,9.655884 C 52.461735,7.15492 53.398967,3.5 55,3.5 C 56.04065,3.5 56.5,4.5462963 56.5,6.9166667 C 56.5,10.462381 54.435743,12.299102 53.421445,9.655884 z M 74.25,9.2817212 C 73.485567,9.0075112 73.012924,7.0205506 73.033269,4.1666667 L 73.066539,-0.5 L 75.033269,1.860784 C 78.064265,5.499069 77.540432,10.462033 74.25,9.2817212 z "
       id="path1909" />
    <path
       style="fill:#61615e"
       d="M 24.394042,10.584473 C 24.095288,9.8059327 23.996911,7.8934327 24.175426,6.3344727 C 24.411272,4.2748579 25.046739,3.5 26.5,3.5 C 28.13804,3.5 28.555651,4.2691659 28.807498,7.75 C 29.078223,11.491751 28.86519,12 27.026113,12 C 25.877228,12 24.692795,11.363013 24.394042,10.584473 z M 27.816422,7.3271189 C 27.355544,3.4339868 25,3.0907009 25,6.9166667 C 25,9.0488497 25.483212,10 26.566422,10 C 27.676545,10 28.040671,9.2213889 27.816422,7.3271189 z M 4.1896347,7.25 C 4.4389379,4.2377848 4.9426709,3.4371307 6.75,3.180449 C 8.7670906,2.8939765 9,3.2821589 9,6.930449 C 9,10.630223 8.7673539,11 6.4396347,11 C 4.0924811,11 3.9051148,10.687723 4.1896347,7.25 z M 8,7 C 8,5 7.5,4 6.5,4 C 5.5,4 5,5 5,7 C 5,9 5.5,10 6.5,10 C 7.5,10 8,9 8,7 z M 44.189635,7.25 C 44.438938,4.2377848 44.942671,3.4371307 46.75,3.180449 C 48.767091,2.8939765 49,3.2821589 49,6.930449 C 49,10.630223 48.767354,11 46.439635,11 C 44.092481,11 43.905115,10.687723 44.189635,7.25 z M 48,7 C 48,5 47.5,4 46.5,4 C 45.5,4 45,5 45,7 C 45,9 45.5,10 46.5,10 C 47.5,10 48,9 48,7 z M 64,7.6047347 C 64,5.1338653 64.582022,3.7588788 65.934259,3.0351838 C 68.912635,1.4412051 69.137243,1.692515 68.807498,6.25 C 68.551875,9.7830239 68.120424,10.553908 66.25,10.819551 C 64.280796,11.099223 64,10.698019 64,7.6047347 z M 67.816422,6.6728811 C 68.040671,4.7786111 67.676545,4 66.566422,4 C 65.483212,4 65,4.9511503 65,7.0833333 C 65,10.909299 67.355544,10.566013 67.816422,6.6728811 z "
       id="path1907" />
    <path
       style="fill:#10100a"
       d="M 5,7 C 5,5 5.5,4 6.5,4 C 7.5,4 8,5 8,7 C 8,9 7.5,10 6.5,10 C 5.5,10 5,9 5,7 z M 25,6.9166667 C 25,3.0907009 27.355544,3.4339868 27.816422,7.3271189 C 28.040671,9.2213889 27.676545,10 26.566422,10 C 25.483212,10 25,9.0488497 25,6.9166667 z M 45,7 C 45,5 45.5,4 46.5,4 C 47.5,4 48,5 48,7 C 48,9 47.5,10 46.5,10 C 45.5,10 45,9 45,7 z M 65,7.0833333 C 65,4.9511503 65.483212,4 66.566422,4 C 67.676545,4 68.040671,4.7786111 67.816422,6.6728811 C 67.355544,10.566013 65,10.909299 65,7.0833333 z "
       id="path1905" />
  </g>
</svg>
