<?xml version="1.0" encoding="UTF-8" standalone="no"?>
<!-- Created with Inkscape (http://www.inkscape.org/) -->
<svg
   xmlns:dc="http://purl.org/dc/elements/1.1/"
   xmlns:cc="http://web.resource.org/cc/"
   xmlns:rdf="http://www.w3.org/1999/02/22-rdf-syntax-ns#"
   xmlns:svg="http://www.w3.org/2000/svg"
   xmlns="http://www.w3.org/2000/svg"
   xmlns:sodipodi="http://sodipodi.sourceforge.net/DTD/sodipodi-0.dtd"
   xmlns:inkscape="http://www.inkscape.org/namespaces/inkscape"
   id="svg2040"
   sodipodi:version="0.32"
   inkscape:version="0.45.1"
   width="32"
   height="92"
   version="1.0"
   sodipodi:docbase="/home/kde-devel/kde/src/KDE/playground/games/ksirk/ksirk/skins/default/Images/sprites"
   sodipodi:docname="infantry3.svg"
   inkscape:output_extension="org.inkscape.output.svg.inkscape">
  <metadata
     id="metadata2045">
    <rdf:RDF>
      <cc:Work
         rdf:about="">
        <dc:format>image/svg+xml</dc:format>
        <dc:type
           rdf:resource="http://purl.org/dc/dcmitype/StillImage" />
      </cc:Work>
    </rdf:RDF>
  </metadata>
  <defs
     id="defs2043" />
  <sodipodi:namedview
     inkscape:window-height="656"
     inkscape:window-width="928"
     inkscape:pageshadow="2"
     inkscape:pageopacity="0.0"
     guidetolerance="10.0"
     gridtolerance="10.0"
     objecttolerance="10.0"
     borderopacity="1.0"
     bordercolor="#666666"
     pagecolor="#ffffff"
     id="base"
     inkscape:zoom="23.30378"
     inkscape:cx="14.037563"
     inkscape:cy="18.283183"
     inkscape:window-x="331"
     inkscape:window-y="183"
     inkscape:current-layer="g2179" />
  <g
     id="g1887">
    <path
       style="fill:#c7c7c7"
       d="M 16.872377,79.661516 C 16.802184,79.572682 16.638625,78.4875 16.508913,77.25 C 16.317498,75.423842 16.76538,75.005991 18.886536,75.031803 C 21.450071,75.062999 21.461791,75.094226 19.5,76.666336 C 17.739624,78.077039 17.719683,78.192959 19.33356,77.633852 C 20.499432,77.229951 21.025915,77.422256 20.779351,78.161947 C 20.466832,79.099505 17.36808,80.288864 16.872377,79.661516 z M 17,72.166667 C 17,71.708333 17.675,71.333333 18.5,71.333333 C 19.325,71.333333 20,71.708333 20,72.166667 C 20,72.625 19.325,73 18.5,73 C 17.675,73 17,72.625 17,72.166667 z M 17.313416,45.415345 C 17.313416,42.532198 20.530297,42.409601 20.205772,45.314624 C 20.057013,46.646255 21.586754,48.723734 18.731329,48.772407 C 16.539702,48.809212 17.313416,46.482886 17.313416,45.415345 z M 13.785443,38.490041 C 13.785443,37.298375 14.127335,36.854167 14.282968,37.083333 C 14.4386,37.3125 16.23404,36.395311 16.506173,37.576452 C 17.266548,40.876716 16.983367,40.723157 15.622445,41 C 13.723925,41.386203 13.785443,39.821975 13.785443,38.490041 z M 14.954672,11.33073 C 17.103632,11.032532 18.714191,15.656708 15.097024,16.171646 C 13.936004,16.648178 12.535644,11.586892 14.954672,11.33073 z M 17.665473,7.2070885 C 18.402185,6.2445885 18.746082,4.8404736 19.717032,5.0833333 C 19.985771,5.1505518 19.629866,5.4300045 19.957089,6.5758643 C 20.901141,9.8817265 19.374934,9 18.377555,9 C 16.98876,9 16.175602,7.6751944 17.665473,7.2070885 z "
       id="path1901"
       sodipodi:nodetypes="csssssccsssccssccssscccccsssc" />
    <path
       style="fill:#979797"
       d="M 5.9912616,43.473167 C 7.954367,43.498913 12.071597,43.455694 12.7197,43.465439 C 14.320546,43.489511 14.34267,44.057907 14.376168,44.30426 C 14.496145,45.18659 12.866981,44.46348 8.892163,44.226167 C 0.812406,43.743771 3.2037993,43.535063 5.9912616,43.473167 z M 21.58092,12.261348 C 21.930548,11.350234 21.293251,11.103307 22.422071,11.122147 C 23.070156,11.132963 31.277796,11.093403 31.296083,11.301521 C 31.344119,11.848222 31.680155,11.788175 28.781385,11.839963 C 24.848607,11.910224 20.945837,13.023023 21.58092,12.261348 z "
       id="path1899"
       sodipodi:nodetypes="csssccsssc" />
    <path
       style="fill:#9e5e3e"
       d="M 14.63617,90.494256 C 14.287868,89.586597 14.639301,89 15.531385,89 C 17.148774,89 17.516708,90.562623 16.104785,91.435239 C 15.612416,91.73954 14.95154,91.316097 14.63617,90.494256 z M 19.638374,90.5 C 19.291266,89.595452 19.633305,89 20.5,89 C 21.366695,89 21.708734,89.595452 21.361626,90.5 C 20.640381,92.379536 20.359619,92.379536 19.638374,90.5 z M 14,75.059017 C 14,74.476558 14.45,74 15,74 C 16.281385,74 16.281385,74.708061 15,75.5 C 14.45,75.839919 14,75.641476 14,75.059017 z M 17.510081,71.016312 C 17.164618,70.45734 17.583524,70 18.440983,70 C 20.197509,70 20.456142,70.600055 19.069098,71.457295 C 18.557102,71.773726 17.855545,71.575283 17.510081,71.016312 z M 11.615699,44.386203 C 11.189957,43.278354 10.703493,43.385373 12.343291,43.30038 C 14.105386,43.20905 14.055017,43.31743 13.5,44.429115 C 13.060572,45.309278 12.107257,45.152651 11.615699,44.386203 z M 15.597697,38.434843 C 15.229618,37.839279 14.89966,37.726501 14.884926,37.352625 C 14.836148,36.114895 16.205421,37.527509 16.772407,37.162855 C 17.458991,36.721282 17.878727,37.281885 17.686584,37.899239 C 17.378354,38.889576 17.267583,38.925413 17.184682,39.326019 C 16.939179,40.512373 16.21651,39.436103 15.597697,38.434843 z M 26.078947,26.583333 C 26.035526,25.529167 25.95775,24.063047 26.775813,25.614125 C 27.301719,26.611262 31.99263,27.280943 28.657043,27.230411 C 27.79791,27.217227 26.126931,27.748276 26.078947,26.583333 z M 10.564761,26.104785 C 10.088814,24.797098 11.431374,24.320002 12.1414,24.655712 C 14.679457,25.855741 12.35273,25.262877 12.470818,26.237512 C 12.905588,29.825854 12.103594,29.147171 10.564761,26.104785 z M 19.255567,11.485062 C 18.915648,10.935062 20.835081,11 22,11 C 23.164919,11 21.608521,12.179495 21.268602,12.729495 C 20.476663,14.01088 20.047506,12.766447 19.255567,11.485062 z M 16.596556,7.1562306 C 16.250507,6.5963119 16.403189,5.7364116 17.050219,5.4689628 C 19.660491,4.3900106 19.837155,5.2624636 18.510758,6.5459496 C 17.780868,7.2522259 16.417914,9.3840479 16.596556,7.1562306 z "
       id="path1895"
       sodipodi:nodetypes="cssccssccssccssccssccssssccssccssccssccssc" />
    <path
       style="fill:#2727c7"
       d="M 15.291966,87.663395 C 14.922465,87.065528 15.344324,86.918152 16.335955,87.298676 C 17.25118,87.649881 18,87.501354 18,86.968615 C 18,86.435877 17.298442,86 16.440983,86 C 15.583524,86 15.156198,85.556284 15.49137,85.013964 C 16.148516,83.950679 19.492281,84.158948 20.669841,85.336508 C 21.066601,85.733267 21.477372,86.644864 21.582666,87.362278 C 21.810837,88.91691 16.231731,89.183965 15.291966,87.663395 z M 15.268223,58.119572 C 15.123948,57.632004 14.785902,56.861773 14.811099,55.526461 C 14.840566,53.964935 14.968589,53.919585 13.772372,53.375186 C 12.960098,53.00552 9.352161,53.031935 9.082019,54.136865 C 7.563746,60.346867 6.413156,54.526843 6.770364,53.923548 C 7.891569,52.029929 11.187082,51.451465 12.723321,51.046936 C 13.442692,50.857507 15.062609,50.398352 15.635207,50.752238 C 16.207806,51.106123 17.876389,52.329509 17.559958,52.841505 C 17.243527,53.353501 17.324831,54.458182 17.042175,54.931017 C 16.606091,55.660513 17.206166,56.151617 17.615699,56.287345 C 18.79788,56.679145 20.772746,56.459859 20.919452,56.957089 C 21.223315,57.986964 18.441032,58.945036 18,58.820297 C 16.455186,58.383371 16.02658,58.877929 15.268223,58.119572 z M 15.19734,24.569513 C 17.816551,24.715067 17.157267,24.622632 17.56092,20.75 C 17.837817,18.093463 20,16.846538 20,19 C 20,19.55 21.364123,20 23.031385,20 C 24.841113,20 26.147277,20.696986 26.654923,21.543128 C 28.002059,23.78853 26.151536,24.863224 25.133903,23.216659 C 24.717359,22.542678 23.253372,22.084196 21.880598,22.19781 C 20.090046,22.346001 19.400946,22.974309 19.442323,24.420983 C 19.476326,25.609842 18.37778,26.497693 17.267235,26.510332 C 11.321939,26.577997 13.923809,23.860016 15.19734,24.569513 z "
       id="path1893"
       sodipodi:nodetypes="cssssssccsssssssssssccssssssssc" />
    <path
       style="fill:#9e5e3e"
       d="M 8.417388,58.652901 C 8.460809,57.598735 8.281116,55.746412 7.463053,57.29749 C 6.937147,58.294627 1.6025632,59.350511 5.8392915,59.299979 C 6.698465,59.289732 8.369404,59.817844 8.417388,58.652901 z M 23.073344,58.345999 C 23.377645,56.265905 22.203321,56.554097 21.496705,56.896926 C 15.396994,59.856326 20.882224,56.854252 21.167287,58.478726 C 21.458245,60.136787 21.963626,61.602942 23.073344,58.345999 z "
       id="path2164"
       sodipodi:nodetypes="cssccszc" />
    <path
       style="fill:#fe0000"
       d="M 17.63948,84.306147 C 16.403271,83.069938 17.016753,80 18.5,80 C 19.325,80 20,80.873442 20,81.940983 C 20,84.028211 18.682069,85.348735 17.63948,84.306147 z M 13.581246,78.351128 C 13.235668,77.450567 13.188515,76.478151 13.476461,76.190205 C 13.764408,75.902259 14.006891,76.304167 14.015313,77.083333 C 14.027921,78.249797 14.201831,78.235079 15,77 C 15.835399,75.707313 15.971491,75.733708 15.984687,77.190983 C 16.005933,79.537176 14.344182,80.339307 13.581246,78.351128 z M 15.453574,49.604223 C 14.900141,46.654166 14.502821,46.167733 13.396561,47.085847 C 11.828407,48.387299 8.613797,47.587257 8.613797,45.866029 C 8.613797,45.054956 9.286343,44.763601 10.167012,45.494491 C 11.659379,46.733046 14.982819,45.064719 15.030409,42.889757 C 15.051107,41.943784 15.950881,42.156672 16.659032,43.373499 C 17.303204,45.496416 17.293015,47.427171 17.742706,49.486093 C 18.366345,50.695812 17.819429,52.912888 17.162389,52.237611 C 14.834562,49.845173 15.92109,52.096295 15.453574,49.604223 z M 17.570913,20.65687 C 16.679644,20.495674 16.660806,18.802382 16.732805,17.099021 C 16.390638,14.223057 17.365493,10.072111 19.012502,10.417731 C 19.060092,12.592693 22.254798,15.033426 23.747165,13.794871 C 24.627834,13.063981 25,13.097867 25,13.90894 C 25,15.616014 22.043298,16.443298 20.709437,15.109437 C 19.834599,14.234599 19.308763,14.847768 19.393812,17.812477 C 19.404895,18.198811 18.700056,17.663598 17.570913,20.65687 z "
       id="path1891"
       sodipodi:nodetypes="cssccssssccssssccsccccssssc" />
    <path
       style="fill:#000000"
       d="M 16.5,87 C 16.160081,86.45 16.358524,86 16.940983,86 C 17.523442,86 18,86.45 18,87 C 18,88.281385 17.291939,88.281385 16.5,87 z M 15.768968,82.428234 C 16.089932,80.749219 15.834934,80.013597 14.999511,80.208496 C 12.684931,80.748474 12.888284,78.241181 15.392745,75.360012 C 17.446837,72.996955 18.193424,72.693404 19.689408,73.613054 C 21.057221,74.453912 21.5,75.981631 21.5,79.860141 C 21.5,82.683859 21.103249,84.995485 20.618331,84.997087 C 20.133413,84.998689 19.973772,83.232213 20.263573,81.071584 C 20.710705,77.737966 20.541379,77.228404 19.145242,77.706117 C 17.963888,78.110338 18.063915,77.817164 19.5,76.666336 C 21.453071,75.101214 21.434087,75.06286 18.690983,75.031803 C 16.817058,75.010587 16.119491,75.384324 16.595492,76.154508 C 17.012152,76.828679 16.872275,77.039096 16.259293,76.660252 C 15.681945,76.303431 14.937416,76.720707 14.604785,77.587531 C 13.740534,79.839733 13.823842,80.004829 15.5,79.361626 C 16.591469,78.942791 17,79.479973 17,81.333994 C 17,82.735379 16.615006,84.119906 16.144457,84.410721 C 15.673908,84.701536 15.504938,83.809417 15.768968,82.428234 z M 16,68 C 15.022531,66.173583 15.23951,66 18.5,66 C 21.76049,66 21.977469,66.173583 21,68 C 19.629966,70.559931 17.370034,70.559931 16,68 z M 21,60.059017 C 21,59.476558 21.45,59 22,59 C 23.281385,59 23.281385,59.708061 22,60.5 C 21.45,60.839919 21,60.641476 21,60.059017 z M 6.048221,59.070885 C 5.607946,57.128713 6.205948,53.485602 7.129242,52.358778 C 8.251445,50.989198 14,49.997255 14,51.173193 C 14,51.627937 12.61247,52.278391 10.968615,52 C 7.927989,51.485062 5.252118,55.438307 8.104283,56.085612 C 8.511412,56.178011 8.651324,56.996002 8.323324,56.984687 C 7.505787,56.956484 6.940853,57.7875 6.689326,58.75 C 6.437798,59.7125 6.172902,59.620885 6.048221,59.070885 z M 18.863153,58.105738 C 20.014023,57.376595 20.014023,57.165087 18.863153,56.747557 C 18.113419,56.475558 18.74476,56.308585 20.266134,56.376507 C 22.731607,56.486577 22.846699,56.635867 21.325004,57.75 C 20.386009,58.4375 19.141249,58.993109 18.55887,58.984687 C 17.976492,58.976265 18.113419,58.580738 18.863153,58.105738 z M 14.759371,56.025434 C 14.029876,52.506113 12.083766,53.825154 11.121266,53.573627 C 9.543551,53.161327 10.696351,53.147796 12.220859,53.043214 C 14.025007,52.91945 14.513045,52.945219 14.844569,54.244331 C 14.959993,54.696632 15.059752,54.524108 14.759371,56.025434 z M 16.881579,48.718615 C 16.816447,48.048377 16.831981,47.115899 16.916098,46.646442 C 17.211739,44.996479 15.846804,41.976646 15.032788,42.479736 C 14.105774,43.052662 13.521398,40.518436 13.73393,39.061471 C 13.79271,38.658517 13.927045,39.195828 14,39.833333 C 14.171646,41.33323 14.675,41 15.5,41 C 16.325,41 17,41.469727 17,42.043837 C 17,42.617947 17.7875,42.955447 18.75,42.793837 C 19.972002,42.588654 20.92711,43.247383 20.79347,45 C 20.416067,49.992361 20.166828,48.569126 20.109453,46.047746 C 20.087549,45.085177 20.091394,44.134674 19.720492,43.643237 C 19.357597,43.162408 18.008657,43.32989 17.910075,43.576154 C 17.181293,45.3967 17.175756,48.780481 18.770323,48.533526 C 19.649287,48.397399 21.82216,47.632762 18.699438,49.285095 C 17.74474,49.790257 16.951848,49.441717 16.881579,48.718615 z M 10.477262,45.963209 C 10.13876,45.415501 9.673749,45.140511 9.076773,45.509463 C 8.401762,45.926643 8.066955,46.397396 8.458359,45.067376 C 8.749439,44.078263 9.537956,44.137956 10.289074,44.889074 C 11.040192,45.640192 11.748204,45.623935 12.700372,44.833706 C 13.44175,44.218417 14.241992,43.908659 14.478688,44.145354 C 14.715383,44.38205 14.050371,45.11196 13.000882,45.767376 C 11.770228,46.535932 10.874197,46.605464 10.477262,45.963209 z M 14.048478,37.25094 C 13.066219,32.291891 12.371201,33 16,33 C 19.093043,33 18.769848,32.381893 18.093892,35.310106 C 17.456485,38.071325 17.706222,37.538667 14.048478,37.25094 z M 11.628735,27.914177 C 11.682939,26.366219 12.80184,27.394861 12.914177,28 C 12.613797,29.624677 12.420674,29.195562 11.628735,27.914177 z M 25.895717,24.085612 C 28.209562,22.620495 26.372391,20 23.031385,20 C 21.364123,20 20,19.612402 20,19.138672 C 20,18.111152 26.574669,19.968411 26.641222,20.166362 C 28.33666,25.209168 28.104594,27.505702 27.833269,27.603045 C 26.878783,24.011471 25.826597,27.2176 25.895717,24.085612 z M 13.232845,25.578354 C 11.71115,24.464221 11.268393,24.486577 13.733866,24.376507 C 15.25524,24.308585 14.642148,24.733027 13.892414,25.005026 C 13.5245,26.12721 13.624606,26.477122 13.232845,25.578354 z M 20.128001,22.583921 C 20.873288,22.11019 21.921758,21.989638 23.042911,22.238463 C 22.217911,22.586234 20.647773,21.918611 19.429436,23.927918 C 19.387752,23.996664 19.478737,23.119582 20.128001,22.583921 z M 14.973607,16.962526 C 13.977452,16.332563 13.990825,15.682372 15.350761,16.058224 C 16.865891,16.476969 16.954895,11.505192 14.845491,11.404508 C 14.099877,11.368919 14.096818,12.035823 14.022039,12.973493 C 13.819897,15.508233 14.412986,15.354156 14.534219,15.89294 C 15.011691,18.014926 13.283552,15.246025 13.506911,13.343292 C 13.711837,11.597574 14.027998,10.588654 15.25,10.793837 C 16.2125,10.955447 16.545926,10.395147 17,10.043837 C 17.686584,9.512638 17.012999,8.8554162 18.242531,9 C 20.277089,8.9367096 20.177978,9.0801741 20.26607,7.2760283 C 21.122274,7.5314718 19.894226,11.052662 18.967212,10.479736 C 18.008017,9.8869208 16.632568,13.596465 17.369469,14.788797 C 18.313967,16.317026 16.522732,17.942185 14.973607,16.962526 z M 20.556036,13.417316 C 19.489973,12.637792 19.127191,12 19.749853,12 C 20.372515,12 21.173586,12.471851 21.530011,13.048558 C 21.978227,13.773787 22.698049,13.876723 23.5,13 C 23.911593,12.605162 24.845627,10.711312 25.07322,13.672853 C 24.623146,13.265125 24.191339,13.42624 23.589174,13.925992 C 22.909701,14.489905 21.758966,14.29692 20.556036,13.417316 z M 16.171646,4.9637403 C 16.171646,4.4764467 15.319342,2.9640215 15.135542,1.8952036 C 15.057484,1.4412896 20.425189,1.4114428 20.41229,1.4720264 C 19.675528,4.9324764 19.941727,5.1273191 19.493068,5.0830988 C 15.822556,4.721329 16.514938,8.3127353 16.171646,4.9637403 z "
       id="path1889"
       sodipodi:nodetypes="cssccsssssssssssssssccssccssccssssssccssssccsssccsssssssssssssccssssssccsscccccssscccsccccsccsssssssccssccssccsccsssc" />
    <g
       id="g5110"
       transform="translate(-0.830536,-6.9777332)">
      <g
         id="g2233">
        <path
           sodipodi:type="arc"
           style="fill:#000000;fill-opacity:1;fill-rule:nonzero"
           id="path2166"
           sodipodi:cx="27.120064"
           sodipodi:cy="53.894592"
           sodipodi:rx="4.2053261"
           sodipodi:ry="4.2911491"
           d="M 31.32539 53.894592 A 4.2053261 4.2911491 0 1 1  22.914738,53.894592 A 4.2053261 4.2911491 0 1 1  31.32539 53.894592 z"
           transform="matrix(1.4897959,0,0,1.43,-30.87701,-63.425657)" />
        <path
           sodipodi:type="arc"
           style="fill:#ffffff;fill-opacity:1;fill-rule:nonzero"
           id="path4110"
           sodipodi:cx="27.120064"
           sodipodi:cy="53.894592"
           sodipodi:rx="3.5267627"
           sodipodi:ry="3.7329996"
           d="M 30.646827 53.894592 A 3.5267627 3.7329996 0 1 1  23.593301,53.894592 A 3.5267627 3.7329996 0 1 1  30.646827 53.894592 z"
           transform="matrix(1.5236548,0,0,1.43,-31.795268,-63.425655)" />
        <text
           xml:space="preserve"
           style="font-size:11px;font-style:normal;font-weight:normal;fill:#000000;fill-opacity:1;stroke:none;stroke-width:1px;stroke-linecap:butt;stroke-linejoin:miter;stroke-opacity:1;font-family:Arial Black"
           x="5.9217858"
           y="17.548559"
           id="text5089"><tspan
             sodipodi:role="line"
             id="tspan5091"
             x="5.9217858"
             y="17.548559">3</tspan></text>
      </g>
    </g>
    <g
       id="g5116"
       transform="translate(15.541572,24.173247)">
      <g
         id="g2239">
        <path
           sodipodi:type="arc"
           style="fill:#000000;fill-opacity:1;fill-rule:nonzero"
           id="path5118"
           sodipodi:cx="27.120064"
           sodipodi:cy="53.894592"
           sodipodi:rx="4.2053261"
           sodipodi:ry="4.2911491"
           d="M 31.32539 53.894592 A 4.2053261 4.2911491 0 1 1  22.914738,53.894592 A 4.2053261 4.2911491 0 1 1  31.32539 53.894592 z"
           transform="matrix(1.4897959,0,0,1.43,-30.87701,-63.425657)" />
        <path
           sodipodi:type="arc"
           style="fill:#ffffff;fill-opacity:1;fill-rule:nonzero"
           id="path5120"
           sodipodi:cx="27.120064"
           sodipodi:cy="53.894592"
           sodipodi:rx="3.5267627"
           sodipodi:ry="3.7329996"
           d="M 30.646827 53.894592 A 3.5267627 3.7329996 0 1 1  23.593301,53.894592 A 3.5267627 3.7329996 0 1 1  30.646827 53.894592 z"
           transform="matrix(1.5236548,0,0,1.43,-31.795268,-63.425655)" />
        <text
           xml:space="preserve"
           style="font-size:11px;font-style:normal;font-weight:normal;fill:#000000;fill-opacity:1;stroke:none;stroke-width:1px;stroke-linecap:butt;stroke-linejoin:miter;stroke-opacity:1;font-family:Arial Black"
           x="5.9217858"
           y="17.548559"
           id="text5122"><tspan
             sodipodi:role="line"
             id="tspan5124"
             x="5.9217858"
             y="17.548559">3</tspan></text>
      </g>
    </g>
    <g
       id="g5126"
       transform="translate(-1.903322,57.77297)">
      <g
         id="g2179">
        <g
           id="g2245">
          <path
             transform="matrix(1.4897959,0,0,1.43,-30.87701,-63.425657)"
             d="M 31.32539 53.894592 A 4.2053261 4.2911491 0 1 1  22.914738,53.894592 A 4.2053261 4.2911491 0 1 1  31.32539 53.894592 z"
             sodipodi:ry="4.2911491"
             sodipodi:rx="4.2053261"
             sodipodi:cy="53.894592"
             sodipodi:cx="27.120064"
             id="path5128"
             style="fill:#000000;fill-opacity:1;fill-rule:nonzero"
             sodipodi:type="arc" />
          <path
             transform="matrix(1.5236548,0,0,1.43,-31.795268,-63.425655)"
             d="M 30.646827 53.894592 A 3.5267627 3.7329996 0 1 1  23.593301,53.894592 A 3.5267627 3.7329996 0 1 1  30.646827 53.894592 z"
             sodipodi:ry="3.7329996"
             sodipodi:rx="3.5267627"
             sodipodi:cy="53.894592"
             sodipodi:cx="27.120064"
             id="path5130"
             style="fill:#ffffff;fill-opacity:1;fill-rule:nonzero"
             sodipodi:type="arc" />
          <text
             id="text5132"
             y="17.548559"
             x="5.8788738"
             style="font-size:11px;font-style:normal;font-weight:normal;fill:#000000;fill-opacity:1;stroke:none;stroke-width:1px;stroke-linecap:butt;stroke-linejoin:miter;stroke-opacity:1;font-family:Arial Black"
             xml:space="preserve"><tspan
               y="17.548559"
               x="5.8788738"
               id="tspan5134"
               sodipodi:role="line">3</tspan></text>
        </g>
      </g>
    </g>
  </g>
</svg>
