<?xml version="1.0" encoding="UTF-8" standalone="no"?>
<!-- Created with Inkscape (http://www.inkscape.org/) -->
<svg
   xmlns:dc="http://purl.org/dc/elements/1.1/"
   xmlns:cc="http://web.resource.org/cc/"
   xmlns:rdf="http://www.w3.org/1999/02/22-rdf-syntax-ns#"
   xmlns:svg="http://www.w3.org/2000/svg"
   xmlns="http://www.w3.org/2000/svg"
   xmlns:sodipodi="http://sodipodi.sourceforge.net/DTD/sodipodi-0.dtd"
   xmlns:inkscape="http://www.inkscape.org/namespaces/inkscape"
   id="svg2040"
   sodipodi:version="0.32"
   inkscape:version="0.44"
   width="32"
   height="92"
   version="1.0"
   sodipodi:docbase="/home/kde4/Developpements/C++/ksirk/ksirk/skins/default/Images/sprites"
   sodipodi:docname="infantry.svg">
  <metadata
     id="metadata2045">
    <rdf:RDF>
      <cc:Work
         rdf:about="">
        <dc:format>image/svg+xml</dc:format>
        <dc:type
           rdf:resource="http://purl.org/dc/dcmitype/StillImage" />
      </cc:Work>
    </rdf:RDF>
  </metadata>
  <defs
     id="defs2043" />
  <sodipodi:namedview
     inkscape:window-height="582"
     inkscape:window-width="928"
     inkscape:pageshadow="2"
     inkscape:pageopacity="0.0"
     guidetolerance="10.0"
     gridtolerance="10.0"
     objecttolerance="10.0"
     borderopacity="1.0"
     bordercolor="#666666"
     pagecolor="#ffffff"
     id="base"
     inkscape:zoom="4.1195652"
     inkscape:cx="16"
     inkscape:cy="45.757256"
     inkscape:window-x="666"
     inkscape:window-y="543"
     inkscape:current-layer="g1887" />
  <g
     id="g1887">
    <path
       style="fill:#c7c7c7"
       d="M 14.872377,79.661516 C 14.802184,79.572682 14.638625,78.4875 14.508913,77.25 C 14.317498,75.423842 14.76538,75.005991 16.886536,75.031803 C 19.450071,75.062999 19.461791,75.094226 17.5,76.666336 C 15.739624,78.077039 15.719683,78.192959 17.33356,77.633852 C 18.499432,77.229951 19.025915,77.422256 18.779351,78.161947 C 18.466832,79.099505 15.36808,80.288864 14.872377,79.661516 z M 15,72.166667 C 15,71.708333 15.675,71.333333 16.5,71.333333 C 17.325,71.333333 18,71.708333 18,72.166667 C 18,72.625 17.325,73 16.5,73 C 15.675,73 15,72.625 15,72.166667 z M 22,46.059017 C 22,43.17587 23.543333,42.752893 23.776657,45.572093 C 23.887174,46.907442 23.532638,48 22.988798,48 C 22.444959,48 22,47.126558 22,46.059017 z M 18,38.833333 C 18,37.641667 18.127335,36.854167 18.282968,37.083333 C 18.4386,37.3125 19.1687,38.2875 19.905412,39.25 C 21.051991,40.747982 21.01124,41 19.622445,41 C 18.625066,41 18,40.165267 18,38.833333 z M 8.2233427,13.572093 C 8.3338596,12.236745 8.7788189,11.363303 9.2121412,11.63111 C 10.350981,12.334952 10.182413,16 9.0112015,16 C 8.4673624,16 8.1128259,14.907442 8.2233427,13.572093 z M 12.094588,7.25 C 12.8313,6.2875 13.5614,5.3125 13.717032,5.0833333 C 13.872665,4.8541667 14,5.6416667 14,6.8333333 C 14,8.1652667 13.374934,9 12.377555,9 C 10.98876,9 10.948009,8.7479817 12.094588,7.25 z "
       id="path1901" />
    <path
       style="fill:#979797"
       d="M 7.9912616,43.25861 C 9.9114555,43.026887 11.761332,42.386173 12.102098,41.834802 C 12.458511,41.258113 12.979824,41.50504 13.329452,42.416154 C 13.835801,43.735678 13.14976,43.973292 9.2186152,43.839963 C 5.1612348,43.702352 4.9892418,43.620886 7.9912616,43.25861 z M 18.670548,10.416154 C 19.020176,9.5050397 19.541489,9.2581129 19.897902,9.8348018 C 20.238668,10.386173 22.088545,11.026887 24.008738,11.25861 C 27.010758,11.620886 26.838765,11.702352 22.781385,11.839963 C 18.85024,11.973292 18.164199,11.735678 18.670548,10.416154 z "
       id="path1899" />
    <path
       style="fill:#a810a8"
       d="M 19.110114,57.632679 C 18.254662,56.601923 18.298367,55.997267 19.287669,55.176219 C 20.310204,54.32759 20.6,54.62953 20.6,56.543541 C 20.6,59.411527 20.591552,59.417703 19.110114,57.632679 z M 11.333333,54.528112 C 11.333333,53.736038 11.669899,53.295986 12.081256,53.550219 C 12.492614,53.804452 13.057088,53.447157 13.335642,52.756231 C 13.651197,51.973529 13.871864,51.925025 13.921053,52.627555 C 13.964474,53.247711 13.4,54.253066 12.666667,54.861679 C 11.660529,55.696699 11.333333,55.614842 11.333333,54.528112 z M 17.379424,53.620576 C 17.511876,52.718124 18.124505,51.475495 18.740821,50.859179 C 19.568256,50.031744 19.798399,50.16784 19.620576,51.379424 C 19.488124,52.281876 18.875495,53.524505 18.259179,54.140821 C 17.431744,54.968256 17.201601,54.83216 17.379424,53.620576 z "
       id="path1897" />
    <path
       style="fill:#9e5e3e"
       d="M 12.63617,90.494256 C 12.287868,89.586597 12.639301,89 13.531385,89 C 15.148774,89 15.516708,90.562623 14.104785,91.435239 C 13.612416,91.73954 12.95154,91.316097 12.63617,90.494256 z M 17.638374,90.5 C 17.291266,89.595452 17.633305,89 18.5,89 C 19.366695,89 19.708734,89.595452 19.361626,90.5 C 18.640381,92.379536 18.359619,92.379536 17.638374,90.5 z M 12,75.059017 C 12,74.476558 12.45,74 13,74 C 14.281385,74 14.281385,74.708061 13,75.5 C 12.45,75.839919 12,75.641476 12,75.059017 z M 15.510081,71.016312 C 15.164618,70.45734 15.583524,70 16.440983,70 C 18.197509,70 18.456142,70.600055 17.069098,71.457295 C 16.557102,71.773726 15.855545,71.575283 15.510081,71.016312 z M 14.5,44 C 14.160081,43.45 14.835081,43 16,43 C 17.164919,43 17.839919,43.45 17.5,44 C 16.708061,45.281385 15.291939,45.281385 14.5,44 z M 19.468963,38.949781 C 19.100884,38.354217 19.06979,37.596877 19.399864,37.266802 C 19.729939,36.936728 20,37.218224 20,37.89235 C 20,38.566476 20.45,38.839919 21,38.5 C 21.55,38.160081 22,38.106966 22,38.381966 C 22,39.522052 20.087776,39.951041 19.468963,38.949781 z M 20.078947,26.583333 C 20.035526,25.529167 20.271875,24.938542 20.604167,25.270833 C 20.936458,25.603125 20.971985,26.465625 20.683114,27.1875 C 20.363888,27.985233 20.126931,27.748276 20.078947,26.583333 z M 4.5647606,26.104785 C 4.2604602,25.612416 4.6609851,24.960334 5.454816,24.655712 C 6.4175893,24.286262 6.7130046,24.584323 6.3420837,25.550928 C 5.697478,27.230743 5.3311867,27.344888 4.5647606,26.104785 z M 14.5,12 C 14.160081,11.45 14.835081,11 16,11 C 17.164919,11 17.839919,11.45 17.5,12 C 16.708061,13.281385 15.291939,13.281385 14.5,12 z M 10.596556,7.1562306 C 10.250507,6.5963119 10.454656,5.8370414 11.050219,5.4689628 C 12.587704,4.5187451 13.579687,5.820313 12.296201,7.103799 C 11.578021,7.8219791 11.018675,7.8392341 10.596556,7.1562306 z "
       id="path1895" />
    <path
       style="fill:#2727c7"
       d="M 13.291966,87.663395 C 12.922465,87.065528 13.344324,86.918152 14.335955,87.298676 C 15.25118,87.649881 16,87.501354 16,86.968615 C 16,86.435877 15.298442,86 14.440983,86 C 13.583524,86 13.156198,85.556284 13.49137,85.013964 C 14.148516,83.950679 17.492281,84.158948 18.669841,85.336508 C 19.066601,85.733267 19.477372,86.644864 19.582666,87.362278 C 19.810837,88.91691 14.231731,89.183965 13.291966,87.663395 z M 18.581639,58.248306 C 18.351541,58.018207 18.358247,56.754757 18.596542,55.440638 C 18.926389,53.621643 18.668209,53.19009 17.514903,53.632655 C 16.681706,53.952382 16,53.715833 16,53.106989 C 16,52.498145 16.5625,52.1125 17.25,52.25 C 17.9375,52.3875 18.376351,51.904052 18.225223,51.17567 C 18.074096,50.447289 18.418937,50.140883 18.991535,50.494769 C 19.564134,50.848654 19.773726,51.557102 19.457295,52.069098 C 19.140864,52.581094 19.332686,53 19.883565,53 C 20.434445,53 20.711841,53.9 20.5,55 C 20.288159,56.1 20.538997,57 21.057418,57 C 21.575838,57 22,57.375 22,57.833333 C 22,58.683751 19.339996,59.006663 18.581639,58.248306 z M 11.625,55.202254 C 11.353831,54.763494 11.532354,53.756668 12.021716,52.964862 C 12.692631,51.879299 12.870015,52.075505 12.742929,53.762608 C 12.560067,56.190168 12.379375,56.422859 11.625,55.202254 z M 10.35595,25.34192 C 10.657941,24.328864 11.200178,22.2625 11.56092,20.75 C 12.180576,18.151946 14,16.846538 14,19 C 14,19.55 15.364123,20 17.031385,20 C 18.841113,20 20.301409,20.621885 20.654923,21.543128 C 21.401298,23.48815 20.151536,24.863224 19.133903,23.216659 C 18.717359,22.542678 17.253372,22.084196 15.880598,22.19781 C 14.090046,22.346001 13.400946,22.974309 13.442323,24.420983 C 13.476326,25.609842 12.742053,26.590739 11.653438,26.810712 C 10.256761,27.092934 9.940649,26.735086 10.35595,25.34192 z "
       id="path1893" />
    <path
       style="fill:#fe0000"
       d="M 15.63948,84.306147 C 14.403271,83.069938 15.016753,80 16.5,80 C 17.325,80 18,80.873442 18,81.940983 C 18,84.028211 16.682069,85.348735 15.63948,84.306147 z M 11.581246,78.351128 C 11.235668,77.450567 11.188515,76.478151 11.476461,76.190205 C 11.764408,75.902259 12.006891,76.304167 12.015313,77.083333 C 12.027921,78.249797 12.201831,78.235079 13,77 C 13.835399,75.707313 13.971491,75.733708 13.984687,77.190983 C 14.005933,79.537176 12.344182,80.339307 11.581246,78.351128 z M 19.453574,49.604223 C 18.900141,46.654166 18.502821,46.167733 17.396561,47.085847 C 15.828407,48.387299 13,47.630168 13,45.90894 C 13,45.097867 13.372166,45.063981 14.252835,45.794871 C 15.745202,47.033426 18.982819,45.064719 19.030409,42.889757 C 19.051107,41.943784 19.393032,42.070849 20.101183,43.287676 C 20.673385,44.270898 20.945508,45.620898 20.705902,46.287676 C 20.466296,46.954454 20.701136,48.335812 21.227768,49.357359 C 21.851407,50.567078 21.82861,51.57139 21.162389,52.237611 C 20.465199,52.934801 19.92109,52.096295 19.453574,49.604223 z M 16,33.059017 C 16,32.541476 16.444846,31.843104 16.988546,31.507079 C 17.555406,31.15674 17.723053,31.558137 17.381557,32.448062 C 16.716766,34.180479 16,34.497449 16,33.059017 z M 10.669772,20.270667 C 10.250529,19.594533 10.317514,18.244533 10.818628,17.270667 C 11.319742,16.2968 11.533704,14.954454 11.294098,14.287676 C 11.054492,13.620898 11.326615,12.270898 11.898817,11.287676 C 12.606968,10.070849 12.948893,9.9437839 12.969591,10.889757 C 13.017181,13.064719 16.254798,15.033426 17.747165,13.794871 C 18.627834,13.063981 19,13.097867 19,13.90894 C 19,15.616014 16.043298,16.443298 14.709437,15.109437 C 13.834599,14.234599 13.295251,14.871378 12.492671,17.726654 C 11.81717,20.129828 11.155242,21.053606 10.669772,20.270667 z "
       id="path1891" />
    <path
       style="fill:black"
       d="M 14.5,87 C 14.160081,86.45 14.358524,86 14.940983,86 C 15.523442,86 16,86.45 16,87 C 16,88.281385 15.291939,88.281385 14.5,87 z M 13.768968,82.428234 C 14.089932,80.749219 13.834934,80.013597 12.999511,80.208496 C 10.684931,80.748474 10.888284,78.241181 13.392745,75.360012 C 15.446837,72.996955 16.193424,72.693404 17.689408,73.613054 C 19.057221,74.453912 19.5,75.981631 19.5,79.860141 C 19.5,82.683859 19.103249,84.995485 18.618331,84.997087 C 18.133413,84.998689 17.973772,83.232213 18.263573,81.071584 C 18.710705,77.737966 18.541379,77.228404 17.145242,77.706117 C 15.963888,78.110338 16.063915,77.817164 17.5,76.666336 C 19.453071,75.101214 19.434087,75.06286 16.690983,75.031803 C 14.817058,75.010587 14.119491,75.384324 14.595492,76.154508 C 15.012152,76.828679 14.872275,77.039096 14.259293,76.660252 C 13.681945,76.303431 12.937416,76.720707 12.604785,77.587531 C 11.740534,79.839733 11.823842,80.004829 13.5,79.361626 C 14.591469,78.942791 15,79.479973 15,81.333994 C 15,82.735379 14.615006,84.119906 14.144457,84.410721 C 13.673908,84.701536 13.504938,83.809417 13.768968,82.428234 z M 14,68 C 13.022531,66.173583 13.23951,66 16.5,66 C 19.76049,66 19.977469,66.173583 19,68 C 17.629966,70.559931 15.370034,70.559931 14,68 z M 25,60.059017 C 25,59.476558 25.45,59 26,59 C 27.281385,59 27.281385,59.708061 26,60.5 C 25.45,60.839919 25,60.641476 25,60.059017 z M 10.00531,59.5 C 9.5650349,57.557828 10.205948,53.485602 11.129242,52.358778 C 12.251445,50.989198 18,49.997255 18,51.173193 C 18,51.627937 16.635877,52 14.968615,52 C 11.627609,52 9.7904379,54.620495 12.104283,56.085612 C 12.984924,56.64323 13.065759,56.975025 12.323324,56.984687 C 11.676152,56.993109 10.940853,57.7875 10.689326,58.75 C 10.437798,59.7125 10.129991,60.05 10.00531,59.5 z M 22.863153,58.105738 C 24.014023,57.376595 24.014023,57.165087 22.863153,56.747557 C 22.113419,56.475558 22.74476,56.308585 24.266134,56.376507 C 26.731607,56.486577 26.846699,56.635867 25.325004,57.75 C 24.386009,58.4375 23.141249,58.993109 22.55887,58.984687 C 21.976492,58.976265 22.113419,58.580738 22.863153,58.105738 z M 17,56.239991 C 17,55.638652 16.2125,54.940853 15.25,54.689326 C 13.672285,54.277026 13.666475,54.220583 15.190983,54.116001 C 16.995131,53.992237 18.598868,55.734466 17.600136,56.733198 C 17.270061,57.063272 17,56.841329 17,56.239991 z M 20.881579,48.718615 C 20.816447,48.048377 20.831981,47.115899 20.916098,46.646442 C 21.211739,44.996479 19.846804,41.976646 19.032788,42.479736 C 18.105774,43.052662 16.663168,40.003498 17.476461,39.190205 C 17.764408,38.902259 18,39.191667 18,39.833333 C 18,40.475 18.675,41 19.5,41 C 20.325,41 21,41.469727 21,42.043837 C 21,42.617947 21.7875,42.955447 22.75,42.793837 C 23.972002,42.588654 24.588544,43.254282 24.79347,45 C 25.016828,46.902733 24.853412,47.153047 24.109453,46.047746 C 23.571835,45.249006 23.396802,44.166977 23.720492,43.643237 C 24.044181,43.119497 23.789488,43.012069 23.154508,43.404508 C 21.637208,44.342252 21.668664,47.722888 23.199438,48.233146 C 23.949667,48.483222 23.762408,48.877195 22.699438,49.285095 C 21.691026,49.672059 20.951848,49.441717 20.881579,48.718615 z M 14.477262,45.963209 C 14.13876,45.415501 13.373369,45.269245 12.776393,45.638197 C 12.101382,46.055377 11.981132,45.839547 12.458359,45.067376 C 13.000416,44.190309 13.537956,44.137956 14.289074,44.889074 C 15.040192,45.640192 15.748204,45.623935 16.700372,44.833706 C 17.44175,44.218417 18.241992,43.908659 18.478688,44.145354 C 18.715383,44.38205 18.050371,45.11196 17.000882,45.767376 C 15.770228,46.535932 14.874197,46.605464 14.477262,45.963209 z M 19.25,36.907648 C 15.864697,35.638987 16.371201,33 20,33 C 23.093043,33 23.339135,33.352864 22.179715,36.125424 C 21.671042,37.34183 20.933815,37.538667 19.25,36.907648 z M 5.5,28 C 5.1600813,27.45 5.3585237,27 5.940983,27 C 6.5234424,27 7,27.45 7,28 C 7,29.281385 6.2919395,29.281385 5.5,28 z M 21,26.559017 C 21,25.701558 20.4375,24.993109 19.75,24.984687 C 18.856515,24.973742 18.898075,24.717315 19.895717,24.085612 C 22.209562,22.620495 20.372391,20 17.031385,20 C 15.364123,20 14,19.612402 14,19.138672 C 14,18.111152 19.015674,18.887298 20.641222,20.166362 C 22.061858,21.284191 22.962825,26.904942 21.833269,27.603045 C 21.374971,27.886289 21,27.416476 21,26.559017 z M 6.674996,25.75 C 5.1533008,24.635867 5.2683929,24.486577 7.7338664,24.376507 C 9.2552399,24.308585 9.8865813,24.475558 9.1368474,24.747557 C 7.9859773,25.165087 7.9859773,25.376595 9.1368474,26.105738 C 9.8865813,26.580738 10.023508,26.976265 9.4411296,26.984687 C 8.8587509,26.993109 7.6139908,26.4375 6.674996,25.75 z M 14.256735,24 C 14.481684,23.175 15.528443,22.395435 16.582866,22.267634 C 17.92991,22.104366 18.053951,22.223296 17,22.667578 C 16.175,23.015349 15.128241,23.794913 14.673869,24.399944 C 14.142515,25.107483 13.993675,24.964776 14.256735,24 z M 8.9736068,16.962526 C 7.9774515,16.332563 7.9050025,16.025664 8.75,16.015313 C 10.321813,15.996058 10.397046,12.363422 8.8454915,11.404508 C 8.2105118,11.012069 7.9558195,11.119497 8.2795085,11.643237 C 8.6031975,12.166977 8.4281648,13.249006 7.8905469,14.047746 C 7.1465882,15.153047 6.9831719,14.902733 7.20653,13 C 7.4114563,11.254282 8.0279976,10.588654 9.25,10.793837 C 10.2125,10.955447 11,10.617947 11,10.043837 C 11,9.4697265 11.675,9 12.5,9 C 13.325,9 14,8.475 14,7.8333333 C 14,7.1916667 14.235592,6.902259 14.523539,7.1902053 C 15.336832,8.0034982 13.894226,11.052662 12.967212,10.479736 C 12.008017,9.8869208 10.632568,13.596465 11.369469,14.788797 C 12.313967,16.317026 10.522732,17.942185 8.9736068,16.962526 z M 14.556036,13.417316 C 13.489973,12.637792 13.127191,12 13.749853,12 C 14.372515,12 15.173586,12.471851 15.530011,13.048558 C 15.978227,13.773787 16.585686,13.758814 17.5,13 C 18.473639,12.191952 19.019384,12.245027 19.571298,13.201442 C 19.983442,13.915649 19.952408,14.166404 19.502335,13.758676 C 19.052261,13.350948 18.191339,13.42624 17.589174,13.925992 C 16.909701,14.489905 15.758966,14.29692 14.556036,13.417316 z M 10,5.0495633 C 10,4.5622697 9.726855,3.4517706 9.3930112,2.5817875 C 8.9179295,1.3437444 9.4771485,1 11.966335,1 C 14.376682,1 15.06837,1.3963589 14.823324,2.6371437 C 14.484379,4.3533816 10,6.5962756 10,5.0495633 z "
       id="path1889" />
  </g>
</svg>
