<?xml version="1.0" encoding="UTF-8" standalone="no"?>
<!-- Created with Inkscape (http://www.inkscape.org/) -->
<svg
   xmlns:dc="http://purl.org/dc/elements/1.1/"
   xmlns:cc="http://web.resource.org/cc/"
   xmlns:rdf="http://www.w3.org/1999/02/22-rdf-syntax-ns#"
   xmlns:svg="http://www.w3.org/2000/svg"
   xmlns="http://www.w3.org/2000/svg"
   xmlns:xlink="http://www.w3.org/1999/xlink"
   xmlns:sodipodi="http://sodipodi.sourceforge.net/DTD/sodipodi-0.dtd"
   xmlns:inkscape="http://www.inkscape.org/namespaces/inkscape"
   id="svg38"
   sodipodi:version="0.32"
   inkscape:version="0.44"
   width="80"
   height="20"
   version="1.0"
   sodipodi:docbase="/home/kde4/Developpements/C++/ksirk/ksirk/skins/default/Images/sprites"
   sodipodi:docname="italy.svg">
  <metadata
     id="metadata43">
    <rdf:RDF>
      <cc:Work
         rdf:about="">
        <dc:format>image/svg+xml</dc:format>
        <dc:type
           rdf:resource="http://purl.org/dc/dcmitype/StillImage" />
      </cc:Work>
    </rdf:RDF>
  </metadata>
  <defs
     id="defs41" />
  <sodipodi:namedview
     inkscape:window-height="582"
     inkscape:window-width="928"
     inkscape:pageshadow="2"
     inkscape:pageopacity="0.0"
     guidetolerance="10.0"
     gridtolerance="10.0"
     objecttolerance="10.0"
     borderopacity="1.0"
     bordercolor="#666666"
     pagecolor="#ffffff"
     id="base"
     inkscape:zoom="10.525"
     inkscape:cx="40"
     inkscape:cy="9.9524941"
     inkscape:window-x="0"
     inkscape:window-y="0"
     inkscape:current-layer="svg38" />
  <g
     id="g1954">
    <path
       style="fill:#fefefe"
       d="M 0,10 L 0,0 L 40,0 L 80,0 L 80,10 L 80,20 L 40,20 L 0,20 L 0,10 z "
       id="path1970" />
    <path
       style="fill:#e3e4e3"
       d="M 3.1778325,18.345286 C 2.3348709,17.442893 2.0105994,14.572534 2.2062831,9.7454072 L 2.5,2.5 L 9.9118878,2.2029229 C 17.946322,1.8808934 18.957572,2.4354766 18.984687,7.1785714 C 19.005192,10.765269 16.492858,13.161803 13.499844,12.410605 C 10.044452,11.543357 7,12.82122 7,15.138816 C 7,18.182887 4.7720731,20.051927 3.1778325,18.345286 z M 23.177833,18.345286 C 22.334871,17.442893 22.010599,14.572534 22.206283,9.7454072 C 22.495529,2.6102981 22.54321,2.4950531 25.338434,2.1750442 C 26.947709,1.9908076 28.942564,2.5430339 29.945052,3.4502725 C 31.526587,4.8815423 31.846855,4.8894545 32.979062,3.5252283 C 34.627419,1.5390795 37.621152,1.5703548 38.393011,3.5817875 C 39.590421,6.702187 38.959935,9.935051 36.624451,12.650213 C 34.414531,15.219398 33.996198,15.334395 30.624451,14.299577 C 27.305262,13.280889 27,13.35378 27,15.165029 C 27,18.186923 24.766163,20.0456 23.177833,18.345286 z M 43.177833,18.345286 C 42.334871,17.442893 42.010599,14.572534 42.206283,9.7454072 L 42.5,2.5 L 49.911888,2.2029229 C 57.946322,1.8808934 58.957572,2.4354766 58.984687,7.1785714 C 59.005192,10.765269 56.492858,13.161803 53.499844,12.410605 C 50.044452,11.543357 47,12.82122 47,15.138816 C 47,18.182887 44.772073,20.051927 43.177833,18.345286 z M 63.177833,18.345286 C 62.335198,17.443243 62.010675,14.575306 62.206283,9.7593108 L 62.5,2.5278072 L 66.033965,1.9564374 C 67.977646,1.642184 70.125668,1.0403668 70.807347,0.61906594 C 71.489026,0.19776505 73.386242,0.44597496 75.023382,1.1706435 C 77.723591,2.3658723 78,2.9298546 78,7.2441114 C 78,11.229948 77.695995,12 76.122445,12 C 75.089789,12 73.69518,11.337641 73.023313,10.52809 C 71.954022,9.239673 71.506355,9.2708387 69.432293,10.77809 C 68.129099,11.725141 67.048709,13.544643 67.031425,14.821429 C 66.986367,18.149953 64.833966,20.118183 63.177833,18.345286 z "
       id="path1968" />
    <path
       style="fill:#cac9c4"
       d="M 3.5153023,17.916992 C 3.1731398,16.553708 3.0297212,12.527177 3.1965943,8.9691468 C 3.4727152,3.081761 3.7072891,2.4706146 5.8050421,2.1732361 C 7.0728152,1.993516 8.7250528,2.356851 9.4766812,2.9806472 C 10.500845,3.8306273 11.343715,3.8022944 12.840438,2.8675753 C 15.504053,1.2041203 18,3.2031881 18,7 C 18,10.74439 15.50015,12.793443 12.907406,11.174247 C 10.39236,9.6035745 6.0069692,12.25833 5.9846872,15.36501 C 5.9762652,16.539254 5.5571838,18.15153 5.0533952,18.947845 C 4.3267773,20.096376 4.0088058,19.883266 3.5153023,17.916992 z M 23.515302,17.916992 C 23.17314,16.553708 23.029721,12.527177 23.196594,8.9691468 C 23.466176,3.2211865 23.740068,2.4657867 25.653443,2.1931022 C 26.993855,2.0020735 28.398738,2.7311902 29.374499,4.1242843 C 30.891407,6.2899743 31.006532,6.3040642 32.93381,4.5599009 C 35.756915,2.0050265 38,3.2242553 38,7.3136276 C 38,11.69978 34.75515,14.952692 32.059288,13.269099 C 29.41689,11.618894 26.003127,12.797651 25.984687,15.366631 C 25.976265,16.539984 25.557184,18.15153 25.053395,18.947845 C 24.326777,20.096376 24.008806,19.883266 23.515302,17.916992 z M 43.515302,17.916992 C 43.17314,16.553708 43.029721,12.527177 43.196594,8.9691468 C 43.472715,3.081761 43.707289,2.4706146 45.805042,2.1732361 C 47.072815,1.993516 48.725053,2.356851 49.476681,2.9806472 C 50.500845,3.8306273 51.343715,3.8022944 52.840438,2.8675753 C 55.504053,1.2041203 58,3.2031881 58,7 C 58,10.74439 55.50015,12.793443 52.907406,11.174247 C 50.39236,9.6035745 46.006969,12.25833 45.984687,15.36501 C 45.976265,16.539254 45.557184,18.15153 45.053395,18.947845 C 44.326777,20.096376 44.008806,19.883266 43.515302,17.916992 z M 63.515302,17.916992 C 63.17314,16.553708 63.029721,12.527177 63.196594,8.9691468 L 63.5,2.5 L 68.25,2.1952088 C 70.8625,2.0275737 73,1.4546998 73,0.92215583 C 73,0.38961185 74.125,0.69102235 75.5,1.591957 C 77.359171,2.8101324 78,4.105745 78,6.6463947 C 78,10.735377 75.775651,12.011929 73.010746,9.5097247 C 71.179012,7.8520287 70.986863,7.9009737 68.579592,10.638444 C 67.195578,12.2123 66.042091,14.4 66.016288,15.5 C 65.990486,16.6 65.557184,18.15153 65.053395,18.947845 C 64.326777,20.096376 64.008806,19.883266 63.515302,17.916992 z "
       id="path1966" />
    <path
       style="fill:#f5a1a1"
       d="M 3.6874029,12.531551 C 2.9819067,5.5945497 3.0970114,4.4022319 4.5766444,3.3202978 C 7.1012525,1.4742593 10,3.3983691 10,6.9201738 C 10,8.8373531 9.2019406,10.292889 7.5613889,11.367819 C 5.8287463,12.503091 5.0323132,14.05624 4.8102877,16.732829 C 4.5937379,19.343409 4.2489915,18.053539 3.6874029,12.531551 z M 24.133213,17.5 C 24.050385,15.85 23.704346,12.183935 23.364238,9.3531894 C 22.820903,4.8309594 22.995559,4.0727441 24.803484,3.105172 C 27.618972,1.5983687 30,4.0711231 30,8.5018776 C 30,11.223958 29.573353,11.921492 27.75,12.180449 C 25.972673,12.43287 25.372253,13.340307 24.891905,16.5 C 24.374917,19.90071 24.261248,20.050533 24.133213,17.5 z M 43.687403,12.531551 C 42.981907,5.5945497 43.097011,4.4022319 44.576644,3.3202978 C 47.101252,1.4742593 50,3.3983691 50,6.9201738 C 50,8.8373531 49.201941,10.292889 47.561389,11.367819 C 45.828746,12.503091 45.032313,14.05624 44.810288,16.732829 C 44.593738,19.343409 44.248992,18.053539 43.687403,12.531551 z M 63.691232,12.662287 C 62.8188,4.0125542 63.560834,2 67.622445,2 C 69.667687,2 70,2.4835424 70,5.459531 C 70,7.8310189 69.234319,9.6394282 67.565447,11.209531 C 66.103529,12.584929 65.001226,14.898293 64.806328,17 C 64.59574,19.270902 64.20415,17.747623 63.691232,12.662287 z M 32.666667,13.333333 C 31.399649,12.066315 32.000083,5.2448204 33.487265,4.0105691 C 35.890885,2.0157414 38,3.5594903 38,7.3136276 C 38,11.386201 34.579845,15.246512 32.666667,13.333333 z M 12.666667,11.333333 C 11.310118,9.9767849 11.972625,2.9477351 13.512735,2.3567395 C 15.716191,1.511194 18,3.8349252 18,6.9224447 C 18,10.758812 14.766437,13.433103 12.666667,11.333333 z M 52.666667,11.333333 C 51.310118,9.9767849 51.972625,2.9477351 53.512735,2.3567395 C 55.716191,1.511194 58,3.8349252 58,6.9224447 C 58,10.758812 54.766437,13.433103 52.666667,11.333333 z M 73.229187,9.8291868 C 71.931203,8.5312027 71.596509,4.215055 72.592562,1.6193834 C 73.12339,0.23606856 73.4413,0.24304507 75.644059,1.6863481 C 77.6279,2.9862106 78.044742,3.9916997 77.801497,6.8904355 C 77.481723,10.70117 75.423833,12.023833 73.229187,9.8291868 z "
       id="path1964" />
    <path
       style="fill:#a5cca5"
       d="M 3.6874029,12.531551 C 2.9819067,5.5945497 3.0970114,4.4022319 4.5766444,3.3202978 C 7.1012525,1.4742593 10,3.3983691 10,6.9201738 C 10,8.8373531 9.2019406,10.292889 7.5613889,11.367819 C 5.8287463,12.503091 5.0323132,14.05624 4.8102877,16.732829 C 4.5937379,19.343409 4.2489915,18.053539 3.6874029,12.531551 z M 24.133213,17.5 C 24.050385,15.85 23.704346,12.183935 23.364238,9.3531894 C 22.820903,4.8309594 22.995559,4.0727441 24.803484,3.105172 C 27.618972,1.5983687 30,4.0711231 30,8.5018776 C 30,11.223958 29.573353,11.921492 27.75,12.180449 C 25.972673,12.43287 25.372253,13.340307 24.891905,16.5 C 24.374917,19.90071 24.261248,20.050533 24.133213,17.5 z M 43.687403,12.531551 C 42.981907,5.5945497 43.097011,4.4022319 44.576644,3.3202978 C 47.101252,1.4742593 50,3.3983691 50,6.9201738 C 50,8.8373531 49.201941,10.292889 47.561389,11.367819 C 45.828746,12.503091 45.032313,14.05624 44.810288,16.732829 C 44.593738,19.343409 44.248992,18.053539 43.687403,12.531551 z M 63.691232,12.662287 C 62.8188,4.0125542 63.560834,2 67.622445,2 C 69.667687,2 70,2.4835424 70,5.459531 C 70,7.8310189 69.234319,9.6394282 67.565447,11.209531 C 66.103529,12.584929 65.001226,14.898293 64.806328,17 C 64.59574,19.270902 64.20415,17.747623 63.691232,12.662287 z M 33.192502,8.7586268 C 33.41681,5.6647128 33.973444,4.4274478 35.25,4.1853027 C 36.636419,3.922318 37,4.5541953 37,7.2266758 C 37,10.456531 35.564892,13 33.742502,13 C 33.270878,13 33.023378,11.091382 33.192502,8.7586268 z M 13.421445,9.655884 C 12.461735,7.15492 13.398967,3.5 15,3.5 C 16.04065,3.5 16.5,4.5462963 16.5,6.9166667 C 16.5,10.462381 14.435743,12.299102 13.421445,9.655884 z M 53.421445,9.655884 C 52.461735,7.15492 53.398967,3.5 55,3.5 C 56.04065,3.5 56.5,4.5462963 56.5,6.9166667 C 56.5,10.462381 54.435743,12.299102 53.421445,9.655884 z M 73.666667,9.3333333 C 73.3,8.9666667 73,6.6469223 73,4.1783458 C 73,-0.2466335 73.028225,-0.28443177 75,1.5 C 77.319974,3.5995475 77.82197,10 75.666667,10 C 74.933333,10 74.033333,9.7 73.666667,9.3333333 z "
       id="path1962" />
    <path
       style="fill:#a9b4a9"
       d="M 3.6514966,12.604853 C 2.8527941,4.3207705 3.4135666,2.5516405 6.6437802,3.1647704 C 9.2291375,3.6554996 9.7653975,8.9671593 7.4039156,10.693917 C 6.4317026,11.404817 5.3609557,13.902008 5.0244779,16.243231 C 4.4620338,20.156735 4.3513168,19.863336 3.6514966,12.604853 z M 23.662538,12.604853 C 22.820782,3.9990493 23.63371,1.6551107 26.777524,3.6233253 C 29.072251,5.0599613 29.720383,11 27.582411,11 C 26.094056,11 25.411962,12.684147 24.747347,18 C 24.575437,19.375 24.087273,16.947184 23.662538,12.604853 z M 43.651497,12.604853 C 42.852794,4.3207705 43.413567,2.5516405 46.64378,3.1647704 C 49.229137,3.6554996 49.765397,8.9671593 47.403916,10.693917 C 46.431703,11.404817 45.360956,13.902008 45.024478,16.243231 C 44.462034,20.156735 44.351317,19.863336 43.651497,12.604853 z M 63.662435,12.725564 C 63.249789,8.4496248 63.183489,4.5121248 63.515102,3.9755644 C 63.846715,3.439004 65.216476,3 66.559017,3 C 68.537798,3 69,3.5058052 69,5.6712593 C 69,7.140452 68.240601,9.1816448 67.312447,10.207243 C 66.384293,11.232842 65.352151,13.968275 65.018797,16.285984 C 64.462989,20.150358 64.35045,19.854945 63.662435,12.725564 z M 33.192502,8.7586268 C 33.41681,5.6647128 33.973444,4.4274478 35.25,4.1853027 C 36.636419,3.922318 37,4.5541953 37,7.2266758 C 37,10.456531 35.564892,13 33.742502,13 C 33.270878,13 33.023378,11.091382 33.192502,8.7586268 z M 13.421445,9.655884 C 12.461735,7.15492 13.398967,3.5 15,3.5 C 16.04065,3.5 16.5,4.5462963 16.5,6.9166667 C 16.5,10.462381 14.435743,12.299102 13.421445,9.655884 z M 53.421445,9.655884 C 52.461735,7.15492 53.398967,3.5 55,3.5 C 56.04065,3.5 56.5,4.5462963 56.5,6.9166667 C 56.5,10.462381 54.435743,12.299102 53.421445,9.655884 z M 73.666667,9.3333333 C 73.3,8.9666667 73,6.6469223 73,4.1783458 C 73,-0.2466335 73.028225,-0.28443177 75,1.5 C 77.319974,3.5995475 77.82197,10 75.666667,10 C 74.933333,10 74.033333,9.7 73.666667,9.3333333 z "
       id="path1960" />
    <path
       style="fill:#f85d5d"
       d="M 33.192502,8.7586268 C 33.41681,5.6647128 33.973444,4.4274478 35.25,4.1853027 C 36.636419,3.922318 37,4.5541953 37,7.2266758 C 37,10.456531 35.564892,13 33.742502,13 C 33.270878,13 33.023378,11.091382 33.192502,8.7586268 z M 4.1849804,7.3280714 C 4.4364975,4.2716732 4.9031655,3.5 6.5,3.5 C 8.1190476,3.5 8.5,4.1666667 8.5,7 C 8.5,9.897613 8.1015606,10.556465 6.1849804,10.828071 C 4.0674262,11.128159 3.8968312,10.829618 4.1849804,7.3280714 z M 13.421445,9.655884 C 12.461735,7.15492 13.398967,3.5 15,3.5 C 16.04065,3.5 16.5,4.5462963 16.5,6.9166667 C 16.5,10.462381 14.435743,12.299102 13.421445,9.655884 z M 24,7.559017 C 24,5.6664763 24.469712,3.8277359 25.043805,3.4729271 C 26.760998,2.4116436 29,5.0430308 29,8.1224447 C 29,10.52517 28.587471,11 26.5,11 C 24.317691,11 24,10.562732 24,7.559017 z M 44.18498,7.3280714 C 44.436497,4.2716732 44.903166,3.5 46.5,3.5 C 48.119048,3.5 48.5,4.1666667 48.5,7 C 48.5,9.897613 48.101561,10.556465 46.18498,10.828071 C 44.067426,11.128159 43.896831,10.829618 44.18498,7.3280714 z M 53.421445,9.655884 C 52.461735,7.15492 53.398967,3.5 55,3.5 C 56.04065,3.5 56.5,4.5462963 56.5,6.9166667 C 56.5,10.462381 54.435743,12.299102 53.421445,9.655884 z M 64.189635,7.25 C 64.438938,4.2377848 64.942671,3.4371307 66.75,3.180449 C 68.634843,2.9127587 69,3.3266033 69,5.730449 C 69,8.8109308 67.437875,11 65.239635,11 C 64.279148,11 63.970501,9.8976906 64.189635,7.25 z M 73.666667,9.3333333 C 73.3,8.9666667 73,6.6469223 73,4.1783458 C 73,-0.2466335 73.028225,-0.28443177 75,1.5 C 77.319974,3.5995475 77.82197,10 75.666667,10 C 74.933333,10 74.033333,9.7 73.666667,9.3333333 z "
       id="path1958" />
    <path
       style="fill:#62a462"
       d="M 4.1849804,7.3280714 C 4.4364975,4.2716732 4.9031655,3.5 6.5,3.5 C 8.1190476,3.5 8.5,4.1666667 8.5,7 C 8.5,9.897613 8.1015606,10.556465 6.1849804,10.828071 C 4.0674262,11.128159 3.8968312,10.829618 4.1849804,7.3280714 z M 24,7.559017 C 24,5.6664763 24.469712,3.8277359 25.043805,3.4729271 C 26.760998,2.4116436 29,5.0430308 29,8.1224447 C 29,10.52517 28.587471,11 26.5,11 C 24.317691,11 24,10.562732 24,7.559017 z M 44.18498,7.3280714 C 44.436497,4.2716732 44.903166,3.5 46.5,3.5 C 48.119048,3.5 48.5,4.1666667 48.5,7 C 48.5,9.897613 48.101561,10.556465 46.18498,10.828071 C 44.067426,11.128159 43.896831,10.829618 44.18498,7.3280714 z M 64.189635,7.25 C 64.438938,4.2377848 64.942671,3.4371307 66.75,3.180449 C 68.634843,2.9127587 69,3.3266033 69,5.730449 C 69,8.8109308 67.437875,11 65.239635,11 C 64.279148,11 63.970501,9.8976906 64.189635,7.25 z "
       id="path1956" />
  </g>
</svg>
