<?xml version="1.0" encoding="UTF-8" standalone="no"?>
<!-- Created with Inkscape (http://www.inkscape.org/) -->
<svg
   xmlns:dc="http://purl.org/dc/elements/1.1/"
   xmlns:cc="http://web.resource.org/cc/"
   xmlns:rdf="http://www.w3.org/1999/02/22-rdf-syntax-ns#"
   xmlns:svg="http://www.w3.org/2000/svg"
   xmlns="http://www.w3.org/2000/svg"
   xmlns:xlink="http://www.w3.org/1999/xlink"
   xmlns:sodipodi="http://sodipodi.sourceforge.net/DTD/sodipodi-0.dtd"
   xmlns:inkscape="http://www.inkscape.org/namespaces/inkscape"
   id="svg2"
   sodipodi:version="0.32"
   inkscape:version="0.44"
   width="80"
   height="20"
   version="1.0"
   sodipodi:docbase="/home/kde4/Developpements/C++/ksirk/ksirk/skins/default/Images/sprites"
   sodipodi:docname="japan.svg">
  <metadata
     id="metadata7">
    <rdf:RDF>
      <cc:Work
         rdf:about="">
        <dc:format>image/svg+xml</dc:format>
        <dc:type
           rdf:resource="http://purl.org/dc/dcmitype/StillImage" />
      </cc:Work>
    </rdf:RDF>
  </metadata>
  <defs
     id="defs5" />
  <sodipodi:namedview
     inkscape:window-height="582"
     inkscape:window-width="928"
     inkscape:pageshadow="2"
     inkscape:pageopacity="0.0"
     guidetolerance="10.0"
     gridtolerance="10.0"
     objecttolerance="10.0"
     borderopacity="1.0"
     bordercolor="#666666"
     pagecolor="#ffffff"
     id="base"
     inkscape:zoom="10.525"
     inkscape:cx="40"
     inkscape:cy="9.9524941"
     inkscape:window-x="666"
     inkscape:window-y="0"
     inkscape:current-layer="svg2" />
  <g
     id="g1891">
    <path
       style="fill:#fefdfe"
       d="M 6.318887e-19,10.070178 L 1.2637774e-18,0.14035523 L 40,0.067005304 L 80,-0.0063446185 L 80,9.9968277 L 80,20 L 72.5,20 C 68.166667,20 65,19.577778 65,19 C 65,18.45 65.45,18 66,18 C 66.55,18 67,15.741427 67,12.980948 C 67,8.208294 67.115674,7.9909283 69.356244,8.5532755 C 72.095205,9.240711 75.272199,6.651932 74.786254,4.1286224 C 74.538106,2.8400936 73.222533,2.5 68.486305,2.5 L 62.5,2.5 L 62.207936,10.25 C 62.023449,15.145409 62.2997,18 62.957936,18 C 63.531071,18 64,18.45 64,19 C 64,19.596491 60.166667,20 54.5,20 C 48.833333,20 45,19.596491 45,19 C 45,18.45 45.45,18 46,18 C 46.55,18 47,16.51536 47,14.700801 C 47,11.535374 47.138338,11.417752 50.411776,11.799907 C 53.096756,12.113363 54.062867,11.751049 54.94696,10.099106 C 56.773132,6.6868721 54.630368,3.7924551 50.539038,4.1449437 C 48.715622,4.3020401 46.577688,3.8944016 45.788074,3.2390804 C 43.285256,1.1619254 42,3.8629854 42,11.2 C 42,15.066667 42.431373,18 43,18 C 43.55,18 44,18.45 44,19 C 44,19.596491 40.166667,20 34.5,20 C 28.833333,20 25,19.596491 25,19 C 25,18.45 25.45,18 26,18 C 26.55,18 27,16.859167 27,15.464816 C 27,13.268232 27.25834,13.067892 28.934259,13.964816 C 29.998101,14.534167 31.090958,15 31.36283,15 C 32.407571,15 35,11.79258 35,10.5 C 35,8.0637929 31.869944,5.8158258 29.356244,6.4467245 C 27.723705,6.8564656 27,6.6091451 27,5.6414967 C 27,3.3807344 24.561241,1.838759 23.176206,3.2237936 C 21.734106,4.6658945 21.575096,18 23,18 C 23.55,18 24,18.45 24,19 C 24,19.596491 20.166667,20 14.5,20 C 8.8333333,20 5,19.596491 5,19 C 5,18.45 5.45,18 6,18 C 6.55,18 7,16.51536 7,14.700801 C 7,11.535374 7.1383376,11.417752 10.411776,11.799907 C 13.096756,12.113363 14.062867,11.751049 14.94696,10.099106 C 16.773132,6.6868721 14.630368,3.7924551 10.539038,4.1449437 C 8.7156215,4.3020401 6.577688,3.8944016 5.7880742,3.2390804 C 3.2852555,1.1619254 2,3.8629854 2,11.2 C 2,15.066667 2.4313725,18 3,18 C 3.55,18 4,18.45 4,19 C 4,19.55 3.1,20 2,20 C 0.13427565,20 4.2423632e-20,19.333333 6.318887e-19,10.070178 z "
       id="path1907" />
    <path
       style="fill:#e4e4e4"
       d="M 2.1890845,11.372445 C 1.9843644,3.6555029 3.503513,0.49191721 5.9806281,3.4766583 C 6.6659202,4.3023847 7.7381256,4.6919168 8.3633068,4.3422851 C 9.0950119,3.9330802 9.0697422,4.1713035 8.2923816,5.010914 C 7.3144306,6.067178 6.7936805,6.0736595 5.5542148,5.0449943 C 3.5816535,3.4079138 3.1626602,4.5079095 2.7145695,12.5 L 2.3781689,18.5 L 2.1890845,11.372445 z M 6.1681031,14.25 C 6.0061551,10.155614 7.1089698,8.7492659 8.5954915,11.154508 C 9.0232149,11.846579 8.8712587,12.038468 8.216122,11.633571 C 7.519888,11.203274 6.9804043,12.326768 6.7297166,14.729062 L 6.3362062,18.5 L 6.1681031,14.25 z M 22.19268,11.372445 C 21.938777,1.9801529 24.778556,-0.86059315 27.313381,6.25 C 27.656498,7.2125 27.553838,8 27.085247,8 C 26.616655,8 25.970518,6.995261 25.649385,5.7672467 C 24.63212,1.8772204 23.127388,5.1068846 22.745483,12 L 22.385359,18.5 L 22.19268,11.372445 z M 26.232003,15 C 26.232003,13.075 26.437798,12.2875 26.689326,13.25 C 26.940853,14.2125 26.940853,15.7875 26.689326,16.75 C 26.437798,17.7125 26.232003,16.925 26.232003,15 z M 42.189084,11.372445 C 41.984364,3.6555029 43.503513,0.49191721 45.980628,3.4766583 C 46.66592,4.3023847 47.738126,4.6919168 48.363307,4.3422851 C 49.095012,3.9330802 49.069742,4.1713035 48.292382,5.010914 C 47.314431,6.067178 46.793681,6.0736595 45.554215,5.0449943 C 43.581654,3.4079138 43.16266,4.5079095 42.71457,12.5 L 42.378169,18.5 L 42.189084,11.372445 z M 46.168103,14.25 C 46.006155,10.155614 47.10897,8.7492659 48.595492,11.154508 C 49.023215,11.846579 48.871259,12.038468 48.216122,11.633571 C 47.519888,11.203274 46.980404,12.326768 46.729717,14.729062 L 46.336206,18.5 L 46.168103,14.25 z M 62.406893,10.5 C 62.497031,2.7551107 62.579722,2.4889692 65,2.1540863 C 66.375,1.9638338 67.125,2.1888338 66.666667,2.6540863 C 66.208333,3.1193388 65.308333,3.5 64.666667,3.5 C 63.934202,3.5 63.279261,6.2912994 62.906893,11 L 62.313785,18.5 L 62.406893,10.5 z M 66.116001,12.75 C 66.052201,9.5875 66.349392,7 66.776426,7 C 67.20346,7 67.404654,8.9125 67.223523,11.25 C 66.680707,18.255054 66.239127,18.85312 66.116001,12.75 z M 69.270833,8.3958333 C 69.603125,8.0635417 70.465625,8.0280154 71.1875,8.316886 C 71.985233,8.6361123 71.748276,8.8730687 70.583333,8.9210526 C 69.529167,8.9644737 68.938542,8.728125 69.270833,8.3958333 z M 29.270833,6.3958333 C 29.603125,6.0635417 30.465625,6.0280154 31.1875,6.316886 C 31.985233,6.6361123 31.748276,6.8730687 30.583333,6.9210526 C 29.529167,6.9644737 28.938542,6.728125 29.270833,6.3958333 z "
       id="path1905" />
    <path
       style="fill:#f4cbd6"
       d="M 26.872445,12.25 C 25.628574,10.663944 25.663944,10.628574 27.25,11.872445 C 28.915748,13.178814 29.445479,14 28.622445,14 C 28.414789,14 27.627289,13.2125 26.872445,12.25 z M 7.75,10.607954 C 5.2686587,8.7243477 5.5809787,6.5622128 8.5651008,4.9651591 C 12.810075,2.6933176 16.935747,6.9626413 13.960131,10.548039 C 12.473751,12.339018 10.061056,12.362295 7.75,10.607954 z M 13.5,8 C 13.5,6.1672724 12.898262,5.4145526 11.245529,5.1798632 C 9.89325,4.9878383 8.7499435,5.4880619 8.3885404,6.4298632 C 7.3928718,9.024534 8.7884232,11.169048 11.245529,10.820137 C 12.898262,10.585447 13.5,9.8327276 13.5,8 z M 47.75,10.607954 C 45.268659,8.7243477 45.580979,6.5622128 48.565101,4.9651591 C 52.810075,2.6933176 56.935747,6.9626413 53.960131,10.548039 C 52.473751,12.339018 50.061056,12.362295 47.75,10.607954 z M 53.5,8 C 53.5,6.1672724 52.898262,5.4145526 51.245529,5.1798632 C 49.89325,4.9878383 48.749943,5.4880619 48.38854,6.4298632 C 47.392872,9.024534 48.788423,11.169048 51.245529,10.820137 C 52.898262,10.585447 53.5,9.8327276 53.5,8 z M 26,9.1069888 C 26,8.6158326 26.73865,7.9305312 27.641444,7.5840966 C 29.013916,7.0574297 29.075783,7.2037609 28.018999,8.4771078 C 26.578873,10.212353 26,10.392948 26,9.1069888 z M 67.25,7.3377193 C 65.763464,6.737889 65.58154,3.3766564 66.988546,2.5070792 C 67.557136,2.1556708 67.72202,2.5608302 67.37667,3.4607971 C 67.046438,4.3213671 67.331693,5.6947392 68.010569,6.5127349 C 69.311712,8.0805163 69.251826,8.1454738 67.25,7.3377193 z "
       id="path1903" />
    <path
       style="fill:#fea5ae"
       d="M 28.046163,12.555624 C 25.34547,9.3014876 29.814884,5.386313 32.810591,8.3820194 C 34.084138,9.6555661 34.214559,10.436961 33.375866,11.768764 C 31.915707,14.087425 29.601055,14.429153 28.046163,12.555624 z M 32.5,10.430362 C 32.5,9.3837273 31.711139,8.3754694 30.746976,8.1897885 C 28.531721,7.7631694 27.213502,10.888712 29.104283,12.084669 C 31.08584,13.338044 32.5,12.649101 32.5,10.430362 z M 8.3885404,9.5701368 C 7.3928718,6.975466 8.7884232,4.830952 11.245529,5.1798632 C 14.450129,5.6349192 14.450129,10.365081 11.245529,10.820137 C 9.89325,11.012162 8.7499435,10.511938 8.3885404,9.5701368 z M 13,8 C 13,6.6666667 12.333333,6 11,6 C 9.6666667,6 9,6.6666667 9,8 C 9,9.3333333 9.6666667,10 11,10 C 12.333333,10 13,9.3333333 13,8 z M 48.38854,9.5701368 C 47.392872,6.975466 48.788423,4.830952 51.245529,5.1798632 C 52.898262,5.4145526 53.5,6.1672724 53.5,8 C 53.5,9.8327276 52.898262,10.585447 51.245529,10.820137 C 49.89325,11.012162 48.749943,10.511938 48.38854,9.5701368 z M 53,8 C 53,6.6666667 52.333333,6 51,6 C 49.666667,6 49,6.6666667 49,8 C 49,9.3333333 49.666667,10 51,10 C 52.333333,10 53,9.3333333 53,8 z M 68.046163,6.5556235 C 66.590837,4.8020624 67.316334,1.9925802 69.218615,2.0153128 C 70.176824,2.0267635 70.147988,2.2535179 69.104283,2.914388 C 67.209961,4.1138647 68.534444,7.2408969 70.746976,6.7926983 C 71.827456,6.5738227 72.46818,5.5737109 72.41706,4.1858517 C 72.358614,2.5991068 72.647299,2.2472985 73.394584,2.9945836 C 74.141869,3.7418686 74.134709,4.5637332 73.37034,5.7775237 C 71.915245,8.0881631 69.598995,8.4266707 68.046163,6.5556235 z "
       id="path1901" />
    <path
       style="fill:#d5b9c2"
       d=""
       id="path1899" />
    <path
       style="fill:#c2c1c2"
       d="M 3.4202169,11.5 C 3.5249469,2.3112123 5.4690201,2.3112123 5.5990775,11.5 L 5.698155,18.5 L 5.0514203,11.5 L 4.4046857,4.5 L 3.8725598,11.5 L 3.3404338,18.5 L 3.4202169,11.5 z M 23.420217,11.5 C 23.524947,2.3112123 25.46902,2.3112123 25.599077,11.5 L 25.698155,18.5 L 25.05142,11.5 L 24.404686,4.5 L 23.87256,11.5 L 23.340434,18.5 L 23.420217,11.5 z M 43.420217,11.5 C 43.465201,7.5531887 43.93617,4.5 44.5,4.5 C 45.061993,4.5 45.543397,7.5660517 45.599077,11.5 L 45.698155,18.5 L 45.05142,11.5 L 44.404686,4.5 L 43.87256,11.5 L 43.340434,18.5 L 43.420217,11.5 z M 63.405755,11 C 63.525969,1.4333627 65.476402,0.98184091 65.565598,10.5 L 65.631197,17.5 L 65.110964,10.5 L 64.590731,3.5 L 63.951121,11 L 63.31151,18.5 L 63.405755,11 z "
       id="path1897" />
    <path
       style="fill:#b0adb0"
       d="M 4.3281402,11.5 C 4.3325765,7.65 4.5133226,6.1975369 4.7297981,8.2723043 C 4.9462736,10.347072 4.9426439,13.497072 4.721732,15.272304 C 4.5008202,17.047537 4.3237039,15.35 4.3281402,11.5 z M 24.32814,11.5 C 24.332577,7.65 24.513323,6.1975369 24.729798,8.2723043 C 24.946274,10.347072 24.942644,13.497072 24.721732,15.272304 C 24.50082,17.047537 24.323704,15.35 24.32814,11.5 z M 44.32814,11.5 C 44.332577,7.65 44.513323,6.1975369 44.729798,8.2723043 C 44.946274,10.347072 44.942644,13.497072 44.721732,15.272304 C 44.50082,17.047537 44.323704,15.35 44.32814,11.5 z M 64.336206,11 C 64.336206,6.875 64.512724,5.1875 64.728468,7.25 C 64.944213,9.3125 64.944213,12.6875 64.728468,14.75 C 64.512724,16.8125 64.336206,15.125 64.336206,11 z "
       id="path1895" />
    <path
       style="fill:#fe484c"
       d="M 29.104283,12.084669 C 27.213502,10.888712 28.531721,7.7631694 30.746976,8.1897885 C 31.711139,8.3754694 32.5,9.3837273 32.5,10.430362 C 32.5,12.649101 31.08584,13.338044 29.104283,12.084669 z M 9,8 C 9,6.6666667 9.6666667,6 11,6 C 12.333333,6 13,6.6666667 13,8 C 13,9.3333333 12.333333,10 11,10 C 9.6666667,10 9,9.3333333 9,8 z M 49,8 C 49,6.6666667 49.666667,6 51,6 C 52.333333,6 53,6.6666667 53,8 C 53,9.3333333 52.333333,10 51,10 C 49.666667,10 49,9.3333333 49,8 z M 68.351259,5.4729818 C 67.982635,4.512363 68.303753,3.4216823 69.104283,2.9153311 C 71.08584,1.6619564 72.5,2.3508993 72.5,4.5696383 C 72.5,6.9851746 69.20671,7.7022528 68.351259,5.4729818 z "
       id="path1893" />
  </g>
</svg>
