<?xml version="1.0" encoding="UTF-8" standalone="no"?>
<!-- Created with Inkscape (http://www.inkscape.org/) -->
<svg
   xmlns:dc="http://purl.org/dc/elements/1.1/"
   xmlns:cc="http://web.resource.org/cc/"
   xmlns:rdf="http://www.w3.org/1999/02/22-rdf-syntax-ns#"
   xmlns:svg="http://www.w3.org/2000/svg"
   xmlns="http://www.w3.org/2000/svg"
   xmlns:xlink="http://www.w3.org/1999/xlink"
   xmlns:sodipodi="http://sodipodi.sourceforge.net/DTD/sodipodi-0.dtd"
   xmlns:inkscape="http://www.inkscape.org/namespaces/inkscape"
   id="svg2"
   sodipodi:version="0.32"
   inkscape:version="0.44"
   width="80"
   height="20"
   version="1.0"
   sodipodi:docbase="/home/kde4/Developpements/C++/ksirk/ksirk/skins/default/Images/sprites"
   sodipodi:docname="uk.svg">
  <metadata
     id="metadata7">
    <rdf:RDF>
      <cc:Work
         rdf:about="">
        <dc:format>image/svg+xml</dc:format>
        <dc:type
           rdf:resource="http://purl.org/dc/dcmitype/StillImage" />
      </cc:Work>
    </rdf:RDF>
  </metadata>
  <defs
     id="defs5" />
  <sodipodi:namedview
     inkscape:window-height="582"
     inkscape:window-width="928"
     inkscape:pageshadow="2"
     inkscape:pageopacity="0.0"
     guidetolerance="10.0"
     gridtolerance="10.0"
     objecttolerance="10.0"
     borderopacity="1.0"
     bordercolor="#666666"
     pagecolor="#ffffff"
     id="base"
     inkscape:zoom="10.525"
     inkscape:cx="40"
     inkscape:cy="9.9524941"
     inkscape:window-x="666"
     inkscape:window-y="0"
     inkscape:current-layer="svg2" />
  <g
     id="g1891">
    <path
       style="fill:#fefefe"
       d="M 0,10 L 0,0 L 36,0 C 55.8,0 72,0.3620215 72,0.80449223 C 72,1.246963 70.119884,1.7199195 67.821965,1.8555068 C 65.524046,1.9910941 63.274046,2.3306303 62.821965,2.6100316 C 61.627189,3.3484441 61.796681,18 63,18 C 63.55,18 64,18.45 64,19 C 64,19.596491 60.166667,20 54.5,20 C 48.833333,20 45,19.596491 45,19 C 45,18.45 45.45,18 46,18 C 46.55,18 47,16.65 47,15 C 47,12.026716 47.049468,12 52.554791,12 L 58.109582,12 L 57.804791,7.25 L 57.5,2.5 L 50,2.5 L 42.5,2.5 L 42.207936,10.25 C 42.023449,15.145409 42.2997,18 42.957936,18 C 43.531071,18 44,18.45 44,19 C 44,19.596491 40.166667,20 34.5,20 C 28.833333,20 25,19.596491 25,19 C 25,18.45 25.45,18 26,18 C 26.55,18 27,16.91712 27,15.593601 C 27,13.31953 27.186746,13.244515 30.395986,14.229459 C 35.181435,15.698155 38.509232,12.643544 38.359155,6.9200056 C 38.224333,1.778235 37.511904,1.1696598 33.992236,3.1896714 C 31.467208,4.6388387 30.963519,4.6609699 29.891968,3.3698295 C 29.171894,2.5021939 27.403707,2.021474 25.585175,2.1989346 L 22.5,2.5 L 22.207936,10.25 C 22.023449,15.145409 22.2997,18 22.957936,18 C 23.531071,18 24,18.45 24,19 C 24,19.596491 20.166667,20 14.5,20 C 8.8333333,20 5,19.596491 5,19 C 5,18.45 5.45,18 6,18 C 6.55,18 7,16.65 7,15 C 7,12.026716 7.0494676,12 12.554791,12 L 18.109582,12 L 17.804791,7.25 L 17.5,2.5 L 10,2.5 L 2.5,2.5 L 2.2079357,10.25 C 2.0234488,15.145409 2.2996995,18 2.9579357,18 C 3.5310711,18 4,18.45 4,19 C 4,19.55 3.1,20 2,20 C 0.13333333,20 0,19.333333 0,10 z M 65,19 C 65,18.45 65.45,18 66,18 C 66.55,18 67,16.834632 67,15.410293 C 67,13.938017 67.962266,12.04139 69.230102,11.014758 C 71.1771,9.4381745 71.713132,9.3860893 73.452608,10.604466 C 77.040008,13.117179 78,12.356246 78,7 C 78,2.3025835 77.845137,2 75.440983,2 C 73.989616,2 73.149477,1.5671581 73.5,1 C 73.839919,0.45 75.441476,4.3021142e-16 77.059017,2.7755576e-16 L 80,0 L 80,10 L 80,20 L 72.5,20 C 68.166667,20 65,19.577778 65,19 z "
       id="path1907" />
    <path
       style="fill:#e3e3e3"
       d="M 2.4226075,10.580254 C 2.4822696,4.4749017 2.8436461,2.5475918 4,2.1676328 C 5.2064843,1.7712018 5.2652732,1.9593325 4.3004384,3.1290672 C 3.6406795,3.9289377 2.9308529,7.7146173 2.7230459,11.541689 C 2.3488049,18.433888 2.3459504,18.424753 2.4226075,10.580254 z M 6.3694801,15 C 6.487259,11.841661 6.7928525,11.485871 9.5,11.355257 C 12.231601,11.223463 12.259231,11.251264 9.8088279,11.666002 C 7.6706777,12.027891 7.0273721,12.776867 6.678308,15.310746 C 6.2543293,18.388435 6.243526,18.377564 6.3694801,15 z M 22.425446,10.5 L 22.5,2.5 L 25.585175,2.1989346 C 27.403707,2.021474 29.171894,2.5021939 29.891968,3.3698295 C 30.963519,4.6609699 31.467208,4.6388387 33.992236,3.1896714 C 37.511904,1.1696598 38.224333,1.778235 38.359155,6.9200056 C 38.509232,12.643544 35.181435,15.698155 30.395986,14.229459 C 27.137476,13.229394 26.995304,13.294737 26.883999,15.843601 C 26.805498,17.641239 26.616517,17.915376 26.299425,16.691587 C 25.369557,13.102844 26.609413,11.96788 30.122022,13.192382 C 33.067705,14.219252 33.534502,14.079923 35.740397,11.515418 C 37.531715,9.4328869 37.979041,8.0526274 37.491803,6.1113179 C 36.616171,2.6225219 36.475258,2.5537081 33.900173,4.3573679 C 31.875885,5.7752346 31.420655,5.7708448 28.946972,4.3096043 C 24.371906,1.6070462 23.136568,2.9743329 22.720236,11.201428 L 22.350892,18.5 L 22.425446,10.5 z M 42.422608,10.580254 C 42.48227,4.4749017 42.843646,2.5475918 44,2.1676328 C 45.206484,1.7712018 45.265273,1.9593325 44.300438,3.1290672 C 43.64068,3.9289377 42.930853,7.7146173 42.723046,11.541689 C 42.348805,18.433888 42.34595,18.424753 42.422608,10.580254 z M 46.36948,15 C 46.487259,11.841661 46.792852,11.485871 49.5,11.355257 C 52.231601,11.223463 52.259231,11.251264 49.808828,11.666002 C 47.670678,12.027891 47.027372,12.776867 46.678308,15.310746 C 46.254329,18.388435 46.243526,18.377564 46.36948,15 z M 62.149832,10.809017 C 62.067424,6.5789763 62.3375,2.9084027 62.75,2.6521867 C 63.1625,2.3959707 63.372833,4.7319131 63.217406,7.8431697 C 62.729501,17.609833 62.305282,18.788364 62.149832,10.809017 z M 66.149832,15.32258 C 66.0388,12.967979 66.687104,11.604684 68.65334,10.058043 C 71.083452,8.1465161 71.501147,8.0983444 73.618157,9.4854624 C 76.533152,11.395441 76.753687,11.381378 77.310674,9.25 C 77.654819,7.9330897 77.796705,8.0568296 77.883999,9.75 C 78.016308,12.316319 76.354187,12.636811 73.452608,10.604466 C 71.717611,9.3892261 71.18261,9.4337133 69.311544,10.94881 C 68.129782,11.905744 66.96866,13.996234 66.731275,15.594345 L 66.299664,18.5 L 66.149832,15.32258 z M 15.75,11.337719 C 17.085574,10.798803 17.513333,3.4518519 16.25,2.75 C 15.8375,2.5208333 15.95,2.4060095 16.5,2.4948359 C 17.05,2.5836623 17.637156,4.7586623 17.804791,7.3281692 C 18.063927,11.300203 17.839241,11.988174 16.304791,11.921053 C 15.255579,11.875157 15.023315,11.630943 15.75,11.337719 z M 55.75,11.337719 C 57.085574,10.798803 57.513333,3.4518519 56.25,2.75 C 55.8375,2.5208333 55.95,2.4060095 56.5,2.4948359 C 57.05,2.5836623 57.637156,4.7586623 57.804791,7.3281692 C 58.063927,11.300203 57.839241,11.988174 56.304791,11.921053 C 55.255579,11.875157 55.023315,11.630943 55.75,11.337719 z M 76.638374,3.5 C 76.321791,2.675 76.498646,2 77.031385,2 C 77.564123,2 78,2.675 78,3.5 C 78,5.42067 77.375404,5.42067 76.638374,3.5 z M 8.25,2.3106745 C 9.2125,2.0591469 10.7875,2.0591469 11.75,2.3106745 C 12.7125,2.562202 11.925,2.7679973 10,2.7679973 C 8.075,2.7679973 7.2875,2.562202 8.25,2.3106745 z M 48.25,2.3106745 C 49.2125,2.0591469 50.7875,2.0591469 51.75,2.3106745 C 52.7125,2.562202 51.925,2.7679973 50,2.7679973 C 48.075,2.7679973 47.2875,2.562202 48.25,2.3106745 z "
       id="path1905" />
    <path
       style="fill:#d8a7ce"
       d="M 29.5,13.054847 C 28.4,12.612326 27.05,12.491101 26.5,12.785457 C 25.95,13.079814 25.856669,12.929335 26.292598,12.451061 C 26.728527,11.972786 28.851134,11.708976 31.009502,11.864815 C 34.605506,12.124454 35.055242,11.87007 36.385331,8.8240793 C 37.183667,6.9958357 37.87356,6.2268136 37.918426,7.1151413 C 38.020458,9.1353391 34.260483,14.024215 32.67742,13.929715 C 32.029839,13.891058 30.6,13.497367 29.5,13.054847 z M 12.270833,11.395833 C 12.603125,11.063542 13.465625,11.028015 14.1875,11.316886 C 14.985233,11.636112 14.748276,11.873069 13.583333,11.921053 C 12.529167,11.964474 11.938542,11.728125 12.270833,11.395833 z M 52.270833,11.395833 C 52.603125,11.063542 53.465625,11.028015 54.1875,11.316886 C 54.985233,11.636112 54.748276,11.873069 53.583333,11.921053 C 52.529167,11.964474 51.938542,11.728125 52.270833,11.395833 z M 66.596276,10.609704 C 66.903375,9.8094176 67.859252,8.8842518 68.720447,8.5537802 C 71.156868,7.6188375 71.034018,8.3280525 68.421017,10.282385 C 66.626459,11.624583 66.175811,11.705419 66.596276,10.609704 z M 73.55887,9.4681966 C 72.491249,8.6606885 72.127191,8 72.749853,8 C 73.372515,8 74.164618,8.4573404 74.510081,9.0163119 C 74.855545,9.5752834 75.557102,9.7737258 76.069098,9.4572949 C 76.581094,9.140864 77,9.3585237 77,9.940983 C 77,11.378035 75.880557,11.224232 73.55887,9.4681966 z M 16.136182,6.25 C 16.01777,4.2935993 15.445424,3.9980019 11.75,3.9846872 C 9.4125,3.9762652 6.966274,3.6299909 6.3139422,3.2151887 C 5.6616105,2.8003865 7.5888604,2.5220272 10.59672,2.5966124 C 16.896363,2.7528233 17.319378,2.9993998 16.716985,6.1641362 C 16.274032,8.4912401 16.271853,8.4915621 16.136182,6.25 z M 56.136182,6.25 C 56.01777,4.2935993 55.445424,3.9980019 51.75,3.9846872 C 49.4125,3.9762652 46.966274,3.6299909 46.313942,3.2151887 C 45.66161,2.8003865 47.58886,2.5220272 50.59672,2.5966124 C 56.896363,2.7528233 57.319378,2.9993998 56.716985,6.1641362 C 56.274032,8.4912401 56.271853,8.4915621 56.136182,6.25 z M 76.111564,4.75 C 75.119753,1.7766332 75.153985,1.6652249 76.513739,3.4411296 C 77.331182,4.5087509 78,5.9712509 78,6.6911296 C 78,8.9210823 77.243512,8.1434861 76.111564,4.75 z M 27.44113,4.5318034 C 26.373508,3.7242952 25.95,3.0636067 26.5,3.0636067 C 27.05,3.0636067 28.373508,3.7242952 29.44113,4.5318034 C 30.508751,5.3393115 30.932259,6 30.382259,6 C 29.832259,6 28.508751,5.3393115 27.44113,4.5318034 z M 33.55887,4.5318034 C 35.880557,2.7757679 37,2.6219645 37,4.059017 C 37,4.6414763 36.581094,4.859136 36.069098,4.5427051 C 35.557102,4.2262742 34.855545,4.4247166 34.510081,4.9836881 C 34.164618,5.5426596 33.372515,6 32.749853,6 C 32.127191,6 32.491249,5.3393115 33.55887,4.5318034 z M 63.817958,2.7820423 C 64.351239,2.2487608 65.622859,1.9894936 66.64378,2.2058929 C 68.018598,2.497306 67.767136,2.7487679 65.674177,3.1754957 C 63.849356,3.5475536 63.191821,3.4081793 63.817958,2.7820423 z "
       id="path1903" />
    <path
       style="fill:#da94b1"
       d="M 32.5,11 C 32.839919,10.45 33.793034,10 34.618034,10 C 35.443034,10 35.839919,10.45 35.5,11 C 35.160081,11.55 34.206966,12 33.381966,12 C 32.556966,12 32.160081,11.55 32.5,11 z M 9.2637497,10.282419 C 10.783812,10.052564 13.033812,10.058707 14.26375,10.296069 C 15.493687,10.533431 14.25,10.721493 11.5,10.713986 C 8.75,10.706478 7.7436874,10.512273 9.2637497,10.282419 z M 49.26375,10.282419 C 50.783812,10.052564 53.033812,10.058707 54.26375,10.296069 C 55.493687,10.533431 54.25,10.721493 51.5,10.713986 C 48.75,10.706478 47.743687,10.512273 49.26375,10.282419 z M 74.510081,9.0163119 C 74.164618,8.4573404 72.896024,7.9477994 71.690983,7.8839986 C 69.927343,7.7906229 69.850701,7.6769937 71.298039,7.301423 C 72.286961,7.0448071 73.711863,7.3459043 74.464488,7.9705279 C 75.527364,8.8526367 75.937291,8.7036166 76.300448,7.3031036 C 76.706959,5.7353939 76.783141,5.7207567 76.883999,7.190983 C 77.02238,9.2082012 75.399763,10.455847 74.510081,9.0163119 z M 36,6.4666667 C 36,5.0148148 35.733333,4.8666667 34.8,5.8 C 34.14,6.46 32.6775,6.9477994 31.55,6.8839986 C 29.541569,6.7703495 29.540555,6.7580288 31.5,6.2763902 C 32.6,6.0060063 34.057175,5.3325261 34.738167,4.7797675 C 35.614078,4.0687935 36.162227,4.2591822 36.611705,5.430504 C 36.96116,6.3411677 36.966485,7.3668485 36.623539,7.7097947 C 36.280592,8.052741 36,7.4933333 36,6.4666667 z M 15.078947,5.5833333 C 15.035526,4.5291667 15.271875,3.9385417 15.604167,4.2708333 C 15.936458,4.603125 15.971985,5.465625 15.683114,6.1875 C 15.363888,6.9852327 15.126931,6.7482763 15.078947,5.5833333 z M 55.078947,5.5833333 C 55.035526,4.5291667 55.271875,3.9385417 55.604167,4.2708333 C 55.936458,4.603125 55.971985,5.465625 55.683114,6.1875 C 55.363888,6.9852327 55.126931,6.7482763 55.078947,5.5833333 z M 6,4 C 5.0987081,3.4175404 4.9753674,3.0245136 5.690983,3.0153128 C 6.3460237,3.0068907 7.1600813,3.45 7.5,4 C 8.2673048,5.2415252 7.9211232,5.2415252 6,4 z M 46,4 C 45.098708,3.4175404 44.975367,3.0245136 45.690983,3.0153128 C 46.346024,3.0068907 47.160081,3.45 47.5,4 C 48.267305,5.2415252 47.921123,5.2415252 46,4 z M 72.5,3 C 72.160081,2.45 72.556966,2 73.381966,2 C 74.206966,2 75.160081,2.45 75.5,3 C 75.839919,3.55 75.443034,4 74.618034,4 C 73.793034,4 72.839919,3.55 72.5,3 z "
       id="path1901" />
    <path
       style="fill:#b6b0b4"
       d="M 3,11.059017 C 3,7.2414763 3.3457818,3.9043291 3.768404,3.6431342 C 4.1910262,3.3819393 4.3687602,4.9303817 4.1633685,7.0841172 C 3.9328363,9.5014755 4.2128025,11 4.8949645,11 C 5.502734,11 6,12.575 6,14.5 C 6,16.944444 5.547619,18 4.5,18 C 3.3107385,18 3,16.562113 3,11.059017 z M 23,11.059017 C 23,7.2414763 23.345782,3.9043291 23.768404,3.6431342 C 24.191026,3.3819393 24.373783,4.8777161 24.17453,6.9670826 C 23.975276,9.0564491 24.304495,11.070154 24.906126,11.441982 C 26.614789,12.497994 26.27406,18 24.5,18 C 23.310738,18 23,16.562113 23,11.059017 z M 43,11.059017 C 43,7.2414763 43.345782,3.9043291 43.768404,3.6431342 C 44.191026,3.3819393 44.36876,4.9303817 44.163369,7.0841172 C 43.932836,9.5014755 44.212802,11 44.894965,11 C 45.502734,11 46,12.575 46,14.5 C 46,16.944444 45.547619,18 44.5,18 C 43.310738,18 43,16.562113 43,11.059017 z M 63,11.059017 C 63,7.2414763 63.345782,3.9043291 63.768404,3.6431342 C 64.191026,3.3819393 64.36876,4.9303817 64.163369,7.0841172 C 63.932836,9.5014755 64.212802,11 64.894965,11 C 65.502734,11 66,12.575 66,14.5 C 66,16.944444 65.547619,18 64.5,18 C 63.310738,18 63,16.562113 63,11.059017 z "
       id="path1899" />
    <path
       style="fill:#d7709c"
       d="M 31.199951,11.266673 C 31.639978,11.028336 32,10.079079 32,9.1572135 C 32,8.2353475 32.9,6.9190343 34,6.2320729 C 35.790683,5.1137728 36,5.2333787 36,7.3748948 C 36,8.7510211 35.256848,10.028868 34.25,10.384012 C 31.038875,11.516667 30.393685,11.70338 31.199951,11.266673 z M 6.9397108,7.663349 C 7.5157321,4.8672067 7.9923607,4.492182 11.045689,4.4326507 C 13.275116,4.3891831 14.741024,4.9210768 15.179715,5.9326507 C 16.432351,8.821096 16.016349,10.000111 13.75,9.9846872 C 11.941738,9.9723808 11.794492,9.7831527 13,9.0208511 C 14.317853,8.1875084 14.296911,7.8691839 12.827541,6.3994196 C 10.673456,4.244755 7.5826531,5.2960611 8.2760379,7.9475687 C 8.5526578,9.0053649 8.2185216,10.085904 7.533513,10.348766 C 6.6232931,10.69805 6.463456,9.9752013 6.9397108,7.663349 z M 26.755249,8.5 C 27.034511,7.0391329 27.912092,6.0063648 28.866577,6.0153128 C 30.199454,6.027808 30.243191,6.1932359 29.104283,6.914388 C 28.336638,7.4004573 27.985015,8.5185666 28.322898,9.3990752 C 28.696406,10.372421 28.415879,11 27.607287,11 C 26.727906,11 26.43925,10.153042 26.755249,8.5 z M 46.939711,7.663349 C 47.515732,4.8672067 47.992361,4.492182 51.045689,4.4326507 C 53.275116,4.3891831 54.741024,4.9210768 55.179715,5.9326507 C 56.432351,8.821096 56.016349,10.000111 53.75,9.9846872 C 51.941738,9.9723808 51.794492,9.7831527 53,9.0208511 C 54.317853,8.1875084 54.296911,7.8691839 52.827541,6.3994196 C 50.673456,4.244755 47.582653,5.2960611 48.276038,7.9475687 C 48.552658,9.0053649 48.218522,10.085904 47.533513,10.348766 C 46.623293,10.69805 46.463456,9.9752013 46.939711,7.663349 z M 73.75,7.607954 C 72.7875,6.8773125 72,5.541624 72,4.6397574 C 72,3.7378908 71.475,3 70.833333,3 C 70.191667,3 69.886949,2.7797176 70.156183,2.5104835 C 70.425417,2.2412494 71.846906,2.5787494 73.315048,3.2604835 C 75.044072,4.0633587 75.987144,5.2926018 75.992198,6.75 C 76.001246,9.3592175 76.038316,9.345033 73.75,7.607954 z M 67,6.0833333 C 67,5.0291667 66.4375,3.939693 65.75,3.6622807 C 65.0625,3.3848684 65.498377,3.1223684 66.718615,3.0789474 C 68.35689,3.0206509 68.776535,3.4187663 68.322898,4.6009248 C 67.985015,5.4814334 68.336638,6.5995427 69.104283,7.085612 C 70.221454,7.7930005 70.15075,7.9724304 68.75,7.9846872 C 67.686703,7.9939912 67,7.2478969 67,6.0833333 z "
       id="path1897" />
    <path
       style="fill:#ee5569"
       d="M 28.666667,10.333333 C 27.290103,8.9567692 28.07281,7 30,7 C 31.333333,7 32,7.6666667 32,9 C 32,10.92719 30.043231,11.709897 28.666667,10.333333 z M 8.3800024,8.5478871 C 7.118214,5.2597192 10.714207,3.7457883 13.063253,6.5762154 C 14.147382,7.8825102 14.125538,8.308003 12.935698,9.0609026 C 10.821565,10.39867 9.0120198,10.194898 8.3800024,8.5478871 z M 48.380002,8.5478871 C 47.118214,5.2597192 50.714207,3.7457883 53.063253,6.5762154 C 54.147382,7.8825102 54.125538,8.308003 52.935698,9.0609026 C 50.821565,10.39867 49.01202,10.194898 48.380002,8.5478871 z M 68.188159,5.2614835 C 68.690171,2.6547472 72,2.364033 72,4.9266758 C 72,6.3577747 71.357775,7 69.926676,7 C 68.495577,7 67.95706,6.4614835 68.188159,5.2614835 z "
       id="path1895" />
    <path
       style="fill:#a56b96"
       d="M 24.681695,11.348362 C 24.306763,10.973429 24,9.1666667 24,7.3333333 C 24,5.037037 24.466667,4 25.5,4 C 26.473409,4 26.994624,4.9654165 26.984687,6.75 C 26.967381,9.8580437 25.707323,12.373989 24.681695,11.348362 z M 4,7.5833333 C 4,5.0002716 4.4364046,4 5.5633585,4 C 6.7185362,4 7.0449015,4.8284426 6.8133585,7.1729883 C 6.3606175,11.757328 4,12.101638 4,7.5833333 z M 44,7.5833333 C 44,5.0002716 44.436405,4 45.563358,4 C 46.718536,4 47.044901,4.8284426 46.813358,7.1729883 C 46.360618,11.757328 44,12.101638 44,7.5833333 z M 64,7.5833333 C 64,5.0002716 64.436405,4 65.563358,4 C 66.718536,4 67.044901,4.8284426 66.813358,7.1729883 C 66.360618,11.757328 64,12.101638 64,7.5833333 z M 72,1.059017 C 72,0.47655765 72.45,0 73,0 C 74.281385,0 74.281385,0.70806053 73,1.5 C 72.45,1.8399187 72,1.6414763 72,1.059017 z "
       id="path1893" />
  </g>
</svg>
