<?xml version="1.0" encoding="UTF-8" standalone="no"?>
<!-- Created with Inkscape (http://www.inkscape.org/) -->
<svg
   xmlns:dc="http://purl.org/dc/elements/1.1/"
   xmlns:cc="http://web.resource.org/cc/"
   xmlns:rdf="http://www.w3.org/1999/02/22-rdf-syntax-ns#"
   xmlns:svg="http://www.w3.org/2000/svg"
   xmlns="http://www.w3.org/2000/svg"
   xmlns:xlink="http://www.w3.org/1999/xlink"
   xmlns:sodipodi="http://sodipodi.sourceforge.net/DTD/sodipodi-0.dtd"
   xmlns:inkscape="http://www.inkscape.org/namespaces/inkscape"
   id="svg2"
   sodipodi:version="0.32"
   inkscape:version="0.44"
   width="20"
   height="20"
   version="1.0"
   sodipodi:docbase="/home/kde4/Developpements/C++/ksirk/ksirk/skins/default/Images"
   sodipodi:docname="aide.svg">
  <metadata
     id="metadata7">
    <rdf:RDF>
      <cc:Work
         rdf:about="">
        <dc:format>image/svg+xml</dc:format>
        <dc:type
           rdf:resource="http://purl.org/dc/dcmitype/StillImage" />
      </cc:Work>
    </rdf:RDF>
  </metadata>
  <defs
     id="defs5" />
  <sodipodi:namedview
     inkscape:window-height="582"
     inkscape:window-width="928"
     inkscape:pageshadow="2"
     inkscape:pageopacity="0.0"
     guidetolerance="10.0"
     gridtolerance="10.0"
     objecttolerance="10.0"
     borderopacity="1.0"
     bordercolor="#666666"
     pagecolor="#ffffff"
     id="base"
     inkscape:zoom="18.95"
     inkscape:cx="10"
     inkscape:cy="9.9736148"
     inkscape:window-x="666"
     inkscape:window-y="0"
     inkscape:current-layer="svg2" />
  <g
     id="g1891">
    <path
       style="fill:#c3c5c6"
       d="M 0.92348873,19.75 C 0.31858129,17.77347 0.34916656,16.097763 0.983,16.489493 C 1.8589682,17.030872 3.3481568,14.367126 3.4470899,12.08192 C 3.4808559,11.301975 4.181574,10.480216 5.0042413,10.255789 C 6.2159387,9.9252314 6.2423356,10.028368 5.1432373,10.798869 C 4.1410226,11.501451 4.0913304,11.938411 4.9530781,12.471001 C 5.7773976,12.980458 5.5997454,13.572188 4.3475877,14.487788 C 2.7736174,15.638703 2.7389766,15.991327 4.0377469,17.641787 C 5.3817605,19.349743 5.3584929,19.389023 3.75,18.127555 C 2.1572725,16.878452 1.5634507,17.235188 1.8815789,19.25 C 1.9870027,19.917684 1.1142072,20.373171 0.92348873,19.75 z M 13.603006,18.166667 C 13.31974,17.708333 13.723388,17.333333 14.5,17.333333 C 15.276612,17.333333 15.68026,17.708333 15.396994,18.166667 C 14.745454,19.220881 14.254546,19.220881 13.603006,18.166667 z M 2.1785714,9 C 2.3553571,8.175 1.9375,7.6125 1.25,7.75 C 0.5625,7.8875 2.2930605e-16,7.55 1.4793939e-16,7 C -3.6156486e-17,5.7555993 1.0503629,5.7463556 2.9916408,6.973672 C 4.2222492,7.7516883 4.2534987,8.1427514 3.1702122,9.2083592 C 2.0952332,10.265795 1.9154254,10.228015 2.1785714,9 z M 1.3333333,1.5439887 C 1.3333333,0.74318244 1.7156737,0.32427667 2.1829786,0.61308697 C 2.6502834,0.90189727 2.7737258,1.5571024 2.4572949,2.0690983 C 1.6486704,3.3774802 1.3333333,3.2301561 1.3333333,1.5439887 z "
       id="path1907" />
    <path
       style="fill:#b7c5c6"
       d="M 4.710251,18 C 4.4225945,16.9 4.5426263,16 4.9769883,16 C 5.4113502,16 6.0020926,16.9 6.289749,18 C 6.5774055,19.1 6.4573737,20 6.0230117,20 C 5.5886498,20 4.9979074,19.1 4.710251,18 z M 11,19.559017 C 11,19.316476 11.45,18.839919 12,18.5 C 12.55,18.160081 13,18.358524 13,18.940983 C 13,19.523442 12.55,20 12,20 C 11.45,20 11,19.801558 11,19.559017 z M 11.458881,15.933469 C 11.096348,15.346877 11.014198,14.652469 11.276326,14.390341 C 11.538454,14.128212 12.019392,14.608151 12.345077,15.456872 C 13.021261,17.218979 12.444931,17.52893 11.458881,15.933469 z M 1.2179792,14.022568 C 1.9126921,12.910155 2.8228475,12 3.2405468,12 C 4.68431,12 3.9925808,13.52354 1.9774324,14.782021 C 0.10143585,15.9536 0.046399968,15.898564 1.2179792,14.022568 z M 14,10.054975 C 15.375,8.9491981 16.8375,8.0344656 17.25,8.0222358 C 18.64236,7.9809554 18.012663,3.671474 16.345012,1.8287407 C 15.434769,0.8229333 15.140025,1.8382214e-15 15.690025,1.5226535e-15 C 16.240025,1.2070856e-15 17.488104,0.88186738 18.463534,1.9597053 C 21.092926,4.8651507 19.802347,8.2607211 15.281163,10.332666 L 11.5,12.065478 L 14,10.054975 z M 6.75,9.9764837 C 8.2804741,8.2911455 8.400545,6.6344156 6.9261754,7.5456261 C 6.3355719,7.9106391 6.443818,7.2621968 7.1667222,6.1046431 C 8.5887282,3.8276495 12.034914,3.211222 11.944671,5.25 C 11.91424,5.9375 10.45174,7.5919177 8.6946708,8.9264837 C 6.9376018,10.26105 6.0625,10.73355 6.75,9.9764837 z M 10.526461,5.1931281 C 10.218574,4.885241 9.4116667,5.1924939 8.7333333,5.8759123 C 7.7530661,6.8635281 7.8679296,6.9783917 9.2931281,6.4357071 C 10.279349,6.0601757 10.834349,5.5010152 10.526461,5.1931281 z M 1.3625443e-17,9.118034 C 2.1830208e-17,8.568034 0.45,7.8399187 1,7.5 C 1.55,7.1600813 2,7.331966 2,7.881966 C 2,8.431966 1.55,9.1600813 1,9.5 C 0.45,9.8399187 5.420679e-18,9.668034 1.3625443e-17,9.118034 z M 5,1 C 4.0987081,0.41754043 3.9753674,0.024513628 4.690983,0.015312775 C 5.3460237,0.0068907485 6.1600813,0.45 6.5,1 C 7.2673048,2.2415252 6.9211232,2.2415252 5,1 z "
       id="path1905" />
    <path
       style="fill:#c4bcbb"
       d="M 2,18.5 C 2,16.57933 2.6245961,16.57933 3.3616264,18.5 C 3.6782086,19.325 3.5013536,20 2.9686152,20 C 2.4358768,20 2,19.325 2,18.5 z M 16,18.440983 C 16,17.583524 15.55,17.160081 15,17.5 C 14.45,17.839919 14,17.416476 14,16.559017 C 14,15.701558 13.564123,15 13.031385,15 C 12.498646,15 12.349501,14.252789 12.699951,13.339531 C 13.247548,11.912517 13.447942,11.978608 14.125275,13.809614 C 14.558753,14.981417 16.057898,16.227412 17.456709,16.578491 C 20.463035,17.33303 20.886515,20 18,20 C 16.85524,20 16,19.333333 16,18.440983 z M 3,15.606989 C 3,15.390833 3.698372,14.945987 4.5519378,14.618443 C 5.4418629,14.276947 5.8432596,14.444594 5.4929208,15.011454 C 4.9056629,15.961658 3,16.416902 3,15.606989 z M -3.68484e-18,12.122445 C -1.658178e-18,10.9551 0.42344235,10 0.94098301,10 C 2.6734441,10 2.9939838,11.760104 1.4889895,13.009138 C 0.24987968,14.037508 -6.7512964e-18,13.888704 -3.68484e-18,12.122445 z M 15.70185,13.368517 C 14.712946,12.379613 16.904896,9 18.535184,9 C 19.430988,9 20,9.9711325 20,11.5 C 20,13.257576 19.455556,14 18.166667,14 C 17.158333,14 16.049166,13.715833 15.70185,13.368517 z M 0.078947368,1.5833333 C 0.035526316,0.52916667 0.271875,-0.061458333 0.60416667,0.27083333 C 0.93645833,0.603125 0.97198465,1.465625 0.68311404,2.1875 C 0.36388767,2.9852327 0.12693129,2.7482763 0.078947368,1.5833333 z "
       id="path1903" />
    <path
       style="fill:#b8c3bc"
       d="M 16.666667,16.333333 C 15.398876,15.065542 16.007757,14 18,14 C 19.111111,14 20,14.666667 20,15.5 C 20,17.022411 17.884596,17.551262 16.666667,16.333333 z M 6,8.6224447 C 6,8.4147893 6.6853015,7.6761397 7.5228922,6.9810012 C 8.7962391,5.9242171 8.9425703,5.9860844 8.4159034,7.3585565 C 7.8780067,8.7602928 6,9.7427785 6,8.6224447 z M 1.3450766,5.4568719 C 1.019392,4.6081515 0.97636359,3.6903031 1.2494579,3.4172088 C 1.5225522,3.1441145 1.9860157,3.8385221 2.2793769,4.9603368 C 2.9025269,7.3432661 2.2101543,7.7112284 1.3450766,5.4568719 z "
       id="path1901" />
    <path
       style="fill:#bbbbba"
       d="M 0.37942419,18.620576 C 0.50556876,17.761098 0.88803707,16.77863 1.2293538,16.437313 C 1.5706705,16.095996 1.7467204,16.519946 1.6205758,17.379424 C 1.4944312,18.238902 1.1119629,19.22137 0.77064623,19.562687 C 0.42932954,19.904004 0.25327962,19.480054 0.37942419,18.620576 z M 13,19.606989 C 13,19.390833 13.698372,18.945987 14.551938,18.618443 C 15.441863,18.276947 15.84326,18.444594 15.492921,19.011454 C 14.905663,19.961658 13,20.416902 13,19.606989 z M 13.397849,14.348304 C 13.454032,12.614871 13.799065,11.380175 14.16459,11.604535 C 14.530114,11.828894 15.031833,11.447157 15.27952,10.756231 C 15.527207,10.065304 15.684505,10.923462 15.629072,12.663248 C 15.573638,14.403035 15.222854,15.637731 14.849552,15.407018 C 14.476249,15.176304 13.973918,15.552843 13.73326,16.243769 C 13.492601,16.934696 13.341667,16.081737 13.397849,14.348304 z M 3.2860617,11.34974 C 2.3378086,10.965135 2.3357396,10.435258 3.2766085,8.9286872 C 4.7449199,6.5775469 5.5909713,6.491705 6.4043518,8.6113406 C 6.8467998,9.7643416 6.5927863,10.057715 5.5113406,9.6427254 C 4.6801033,9.3237497 4,9.4611464 4,9.9480515 C 4,10.434956 4.5625,11.060307 5.25,11.337719 C 5.9375,11.615132 6.05,11.842105 5.5,11.842105 C 4.95,11.842105 3.9537278,11.620541 3.2860617,11.34974 z M 18.458881,1.9334688 C 18.096348,1.3468767 18.014198,0.65246908 18.276326,0.39034077 C 18.538454,0.12821247 19.019392,0.60815149 19.345077,1.4568719 C 20.021261,3.2189793 19.444931,3.5289302 18.458881,1.9334688 z "
       id="path1899" />
    <path
       style="fill:#2caca9"
       d="M 7.249533,17.75 C 7.8795559,15.85781 11,15.5888 11,17.426676 C 11,18.354311 10.145004,19 8.9166667,19 C 7.6946935,19 7.0054123,18.483184 7.249533,17.75 z M 7,12.654988 C 7,10.665666 10.907256,7.5 13.362597,7.5 C 14.956173,7.5 15.5,6.8851183 15.5,5.0833333 C 15.5,3.7541667 14.890278,2.4634259 14.145061,2.2150204 C 13.15026,1.8834201 12.963605,2.3928633 13.442811,4.1316871 C 13.995556,6.1373519 13.927453,6.2320311 12.998059,4.75 C 12.394467,3.7875 11.049538,3 10.009327,3 C 8.9691158,3 7.8399187,2.55 7.5,2 C 7.1287594,1.3993201 8.422949,1 10.740983,1 C 17.571558,1 19.174845,5.3387269 13.75,9.1428359 C 11.594878,10.65409 10.962357,10.845473 11.872445,9.7109301 C 13.717538,7.4107829 11.748538,7.5153933 9.6549876,9.8287407 C 7.5939483,12.106163 7.5227353,13.397121 9.5,12.638374 C 10.325,12.321791 11,12.498646 11,13.031385 C 11,13.564123 10.1,14 9,14 C 7.9,14 7,13.394744 7,12.654988 z M 3.0153128,5.25 C 3.0237348,4.8375 3.5161843,3.825 4.109645,3 C 5.0314103,1.718607 5.1101253,1.745911 4.6497581,3.1873499 C 4.3124633,4.2434413 4.744813,5.0417966 5.8054259,5.3213485 C 7.0136103,5.6397967 6.8541877,5.8012929 5.25,5.8839986 C 4.0125,5.9477994 3.0068907,5.6625 3.0153128,5.25 z "
       id="path1897" />
    <path
       style="fill:#0eb6b2"
       d="M 8,12.165298 C 8,11.706212 9.3727805,10.107443 11.050623,8.6124781 C 13.311894,6.5976766 13.931619,5.3599116 13.445685,3.8288673 C 12.975614,2.3478066 13.173503,1.8910356 14.145061,2.2145534 C 16.728775,3.0749006 16.116198,5.9504688 12.6002,9.466467 C 9.0013112,13.065355 8,13.652802 8,12.165298 z M 4.6104956,3.5726488 C 5.3198879,1.7240022 8.3626666,1.4113404 7.750467,3.25 C 7.5215572,3.9375 6.5856353,4.645192 5.6706405,4.8226488 C 4.5105151,5.047647 4.1896592,4.6693309 4.6104956,3.5726488 z "
       id="path1895" />
    <path
       style="fill:#001517"
       d="M 6.8709059,19.819551 C 6.7999041,19.643798 6.6162399,17.627108 6.4627633,15.338018 C 6.2316906,11.89159 6.6407186,10.774071 8.8418574,8.8380184 L 11.5,6.5 L 9.25,9.0644512 C 6.4670301,12.236358 6.3776964,14 9,14 C 10.1,14 11,13.355642 11,12.568094 C 11,11.780546 12.35,10.174904 14,9 C 19.317192,5.2138256 17.405921,1 10.371429,1 C 6.3710309,1 3,2.8619066 3,5.0714286 C 3,6.6444553 6.7490381,6.0963794 7.3885404,4.4298632 C 8.146999,2.4533518 12.438679,2.924122 12.586076,5 C 12.64752,5.8653628 12.515047,5.9711356 12.272967,5.25 C 11.675638,3.4706048 8.3289274,3.7004457 7.6114596,5.5701368 C 7.2563981,6.4954122 6.1151911,7.0087922 4.8327987,6.8201368 C -1.1104899,5.9458075 3.6950679,-1.0412426e-15 10.345012,1.9628396e-15 C 17.91332,5.3817883e-15 20.345642,5.0193035 14.858384,9.3137281 C 12.358291,11.270345 11.694636,12.561404 11.608384,15.636206 C 11.518461,18.841888 11.116762,19.554428 9.25,19.819551 C 8.0125,19.995304 6.9419076,19.995304 6.8709059,19.819551 z M 11,17.5 C 11,16.666667 10.111111,16 9,16 C 7.8888889,16 7,16.666667 7,17.5 C 7,18.333333 7.8888889,19 9,19 C 10.111111,19 11,18.333333 11,17.5 z "
       id="path1893" />
  </g>
</svg>
