<?xml version="1.0" encoding="UTF-8" standalone="no"?>
<!-- Created with Inkscape (http://www.inkscape.org/) -->
<svg
   xmlns:dc="http://purl.org/dc/elements/1.1/"
   xmlns:cc="http://web.resource.org/cc/"
   xmlns:rdf="http://www.w3.org/1999/02/22-rdf-syntax-ns#"
   xmlns:svg="http://www.w3.org/2000/svg"
   xmlns="http://www.w3.org/2000/svg"
   xmlns:xlink="http://www.w3.org/1999/xlink"
   xmlns:sodipodi="http://sodipodi.sourceforge.net/DTD/sodipodi-0.dtd"
   xmlns:inkscape="http://www.inkscape.org/namespaces/inkscape"
   id="svg2"
   sodipodi:version="0.32"
   inkscape:version="0.44"
   width="20"
   height="20"
   version="1.0"
   sodipodi:docbase="/home/kde4/Developpements/C++/ksirk/ksirk/skins/default/Images"
   sodipodi:docname="distributionArmeesFinie.svg">
  <metadata
     id="metadata7">
    <rdf:RDF>
      <cc:Work
         rdf:about="">
        <dc:format>image/svg+xml</dc:format>
        <dc:type
           rdf:resource="http://purl.org/dc/dcmitype/StillImage" />
      </cc:Work>
    </rdf:RDF>
  </metadata>
  <defs
     id="defs5" />
  <sodipodi:namedview
     inkscape:window-height="582"
     inkscape:window-width="928"
     inkscape:pageshadow="2"
     inkscape:pageopacity="0.0"
     guidetolerance="10.0"
     gridtolerance="10.0"
     objecttolerance="10.0"
     borderopacity="1.0"
     bordercolor="#666666"
     pagecolor="#ffffff"
     id="base"
     inkscape:zoom="18.95"
     inkscape:cx="10"
     inkscape:cy="9.9736148"
     inkscape:window-x="666"
     inkscape:window-y="0"
     inkscape:current-layer="svg2" />
  <g
     id="g1891">
    <path
       style="fill:#9fc5c7"
       d="M 3,2.6069888 C 3,2.3908326 3.698372,1.9459871 4.5519378,1.6184432 C 5.4418629,1.2769469 5.8432596,1.4445943 5.4929208,2.0114544 C 4.9056629,2.9616577 3,3.4169019 3,2.6069888 z "
       id="path1907" />
    <path
       style="fill:#a2b9c9"
       d="M 1.25,18.441347 C -0.3213446,16.735578 -0.36337217,15 1.1666667,15 C 1.8083333,15 2.0372375,15.296096 1.6753426,15.657991 C 1.3134477,16.019886 1.527573,16.93076 2.1511766,17.682157 C 3.6576774,19.497379 2.8497814,20.177986 1.25,18.441347 z M 16.462927,14.940014 C 16.132309,14.405063 15.373369,14.269245 14.776393,14.638197 C 14.101382,15.055377 13.981132,14.839547 14.458359,14.067376 C 14.9745,13.232243 15.556073,13.156073 16.234723,13.834723 C 16.789666,14.389666 17.863875,14.60573 18.621855,14.314866 C 19.379835,14.024002 20,14.011022 20,14.286022 C 20,15.32347 17.03835,15.871068 16.462927,14.940014 z M 9.2708333,11.395833 C 9.603125,11.063542 10.465625,11.028015 11.1875,11.316886 C 11.985233,11.636112 11.748276,11.873069 10.583333,11.921053 C 9.5291667,11.964474 8.9385417,11.728125 9.2708333,11.395833 z M 11.615352,5.5599922 C 12.144927,4.179944 17,0.45200704 17,1.4254251 C 17,2.1443437 12.354515,7 11.666714,7 C 11.334545,7 11.311432,6.3519965 11.615352,5.5599922 z M -1.3484975e-17,2.559017 C -2.0901711e-17,1.7664763 0.42276563,0.85675046 0.93947918,0.53740393 C 1.4561927,0.21805739 1.8104308,0.86649974 1.7266749,1.9783869 C 1.5546612,4.2619249 7.3434723e-18,4.7847118 -1.3484975e-17,2.559017 z M 18,1 C 18,-0.28138497 18.708061,-0.28138497 19.5,1 C 19.839919,1.55 19.641476,2 19.059017,2 C 18.476558,2 18,1.55 18,1 z "
       id="path1905" />
    <path
       style="fill:#9ab8c6"
       d="M 0.56598301,19.106763 C 0.18977366,18.498043 0.38508131,18 1,18 C 1.6175799,18 1.7908637,17.440475 1.3871227,16.75 C 0.98512151,16.0625 1.6363227,16.359741 2.8342365,17.410536 C 4.0321503,18.461331 4.7228956,19.586331 4.369226,19.910536 C 4.0155565,20.234741 3.5083247,19.886581 3.2420444,19.136847 C 2.8720069,18.094977 2.5801996,18.061217 2.0039491,18.99361 C 1.4658475,19.864277 1.0541733,19.896671 0.56598301,19.106763 z M 14.5,18.333664 C 12.875641,17.03196 12.828686,16.844218 14.25,17.334083 C 15.2125,17.665814 16,17.501354 16,16.968615 C 16,16.435877 15.2125,15.993109 14.25,15.984687 C 12.765058,15.971694 12.725926,15.826539 13.991641,15.026328 C 14.850739,14.483188 15.856543,14.456543 16.363496,14.963496 C 16.847614,15.447614 17.863875,15.60573 18.621855,15.314866 C 19.575529,14.948907 20,15.588979 20,17.393011 C 20,20.439629 17.633116,20.844432 14.5,18.333664 z M -6.4615505e-19,7.559017 C 8.1860243e-20,5.8024909 0.60005503,5.5438584 1.4572949,6.9309017 C 1.7737258,7.4428976 1.5752834,8.1444553 1.0163119,8.4899187 C 0.45734035,8.8353821 -1.0015403e-18,8.4164763 -6.4615505e-19,7.559017 z M 14.666667,3.3333333 C 13.290103,1.9567692 14.07281,0 16,0 C 17.1,0 18,0.47655765 18,1.059017 C 18,1.6414763 17.581094,1.859136 17.069098,1.5427051 C 16.557102,1.2262742 15.814984,1.4903459 15.419945,2.1295311 C 14.909264,2.9558309 15.467282,3.0995357 17.350847,2.626791 C 18.918277,2.2333911 20,2.3780032 20,2.980948 C 20,4.107322 15.723231,4.3898977 14.666667,3.3333333 z M 2.0789474,1.5833333 C 2.0355263,0.52916667 2.271875,-0.061458333 2.6041667,0.27083333 C 2.9364583,0.603125 2.9719846,1.465625 2.683114,2.1875 C 2.3638877,2.9852327 2.1269313,2.7482763 2.0789474,1.5833333 z "
       id="path1903" />
    <path
       style="fill:#96c4b7"
       d="M 5.3494623,18.756425 C 4.961133,18.128095 5.1646356,17.983716 5.8454915,18.404508 C 6.4804712,18.796948 7,18.737905 7,18.273303 C 7,17.808701 7.9,17.428571 9,17.428571 C 10.840665,17.428571 11.958463,18.902222 10.25,19.076511 C 9.8375,19.118592 8.7142869,19.303512 7.7539708,19.487445 C 6.7936547,19.671377 5.7116259,19.342418 5.3494623,18.756425 z M 1.8724447,15.25 C 0.62857405,13.663944 0.66394438,13.628574 2.25,14.872445 C 3.2125,15.627289 4,16.414789 4,16.622445 C 4,17.445479 3.1788145,16.915748 1.8724447,15.25 z M 10,13.968615 C 10,13.435877 10.675,13 11.5,13 C 13.42067,13 13.42067,13.624596 11.5,14.361626 C 10.675,14.678209 10,14.501354 10,13.968615 z M 5.554254,13.087785 C 5.244175,12.586066 5.6545924,12.273041 6.4662926,12.392174 C 8.6075181,12.706439 9.620749,14 7.7256837,14 C 6.8414763,14 5.864333,13.589503 5.554254,13.087785 z M 17.652756,10.737014 C 17.97461,9.1784577 17.685365,7.3258149 16.989223,6.487014 C 16.296012,5.651746 16.193402,5 16.755111,5 C 19.048435,5 19.816853,7.4957073 18.448538,10.5 C 17.082639,13.498986 17.08237,13.499066 17.652756,10.737014 z M 13,11 C 12.098708,10.41754 11.975367,10.024514 12.690983,10.015313 C 13.346024,10.006891 14.160081,10.45 14.5,11 C 15.267305,12.241525 14.921123,12.241525 13,11 z M 0.60300566,5.1666667 C 0.31974009,4.7083333 0.72338754,4.3333333 1.5,4.3333333 C 2.2766125,4.3333333 2.6802599,4.7083333 2.3969943,5.1666667 C 1.7454539,6.2208813 1.2545461,6.2208813 0.60300566,5.1666667 z "
       id="path1901" />
    <path
       style="fill:#95b8b9"
       d="M 3.4610545,17.956966 C 1.9420866,16.278525 1.9006299,16.024638 3.2287481,16.534284 C 4.117886,16.875479 5.0910327,17.794844 5.3912964,18.577319 C 6.1384129,20.524273 5.6392557,20.363851 3.4610545,17.956966 z M 10,19 C 10.825,18.466844 12.4,18.055363 13.5,18.085598 C 15.5,18.140571 15.5,18.140571 13.5,19 C 12.4,19.472686 10.825,19.884167 10,19.914402 C 8.6666667,19.963266 8.6666667,19.861666 10,19 z M 12.683015,13.383666 C 13.203678,12.026841 12.974667,11.94319 11.256635,12.862653 C 9.6647001,13.714631 8.9328575,13.624025 7.9625045,12.454821 C 7.2763763,11.628087 7.0041239,10.662543 7.3574993,10.309167 C 7.7108747,9.955792 8,10.191667 8,10.833333 C 8,11.475 9.0125,11.993109 10.25,11.984687 C 12.069438,11.972305 12.212959,11.783874 11,11 C 10.1207,10.431753 9.987693,10.024289 10.678571,10.015313 C 11.326786,10.006891 12.451786,10.5625 13.178571,11.25 C 14.929606,12.906384 18,13.374334 18,11.98482 C 18,11.37825 18.45,11.160081 19,11.5 C 19.55,11.839919 20,12.568034 20,13.118034 C 20,13.668034 19.55,13.839919 19,13.5 C 18.45,13.160081 18,13.413624 18,14.063428 C 18,14.967102 17.668249,14.969561 16.589028,14.073886 C 15.624473,13.273377 14.97302,13.234637 14.530011,13.951442 C 13.496601,15.623533 12.000036,15.163481 12.683015,13.383666 z M 11.676656,3.1284666 C 11.987273,1.9406678 12.597592,0.74870176 13.032922,0.47965319 C 14.217342,-0.25235869 13.553571,2.8464293 12.245827,4.1541732 C 11.40059,4.99941 11.255683,4.7382716 11.676656,3.1284666 z "
       id="path1899" />
    <path
       style="fill:#89c4a9"
       d="M 3.2373005,15.456401 C -0.15306291,11.893204 -0.66537762,10.52926 1,9.5 C 2.5155452,8.5633415 2.2695341,4.7268562 0.75,5.6013083 C 0.023755439,6.0192431 -0.15082971,5.9392204 0.33333333,5.4103253 C 0.79166667,4.9096464 1.4666667,4.5117701 1.8333333,4.5261559 C 3.0764426,4.5749277 5.9005593,1.6481185 5.396835,0.8330756 C 5.1214442,0.38748386 5.65733,0.31501077 6.5876923,0.67202429 C 8.0437735,1.2307751 7.9117918,1.5888218 5.6396301,3.2439764 C 2.4163757,5.5919538 2.2951963,7.3929284 5.2225062,9.443296 C 6.4448847,10.299483 6.9848847,11 6.4225062,11 C 5.8601278,11 4.8992095,10.49921 4.2871323,9.8871323 C 3.1396289,8.7396289 1,9.4523509 1,10.982094 C 1,11.457327 2.4048077,13.250962 4.1217949,14.967949 C 5.8387821,16.684936 7.0705673,18.262766 6.8590954,18.474238 C 6.6476235,18.68571 5.0178158,17.327683 3.2373005,15.456401 z M 4.8724447,13.25 C 3.6788141,11.728005 3.6954331,11.648841 5,12.642392 C 5.825,13.270707 7.4,14.006006 8.5,14.27639 C 10.399627,14.743325 10.393226,14.773819 8.3724447,14.883999 C 7.2022893,14.947799 5.6272893,14.2125 4.8724447,13.25 z M 8.0120446,6.9774946 C 9.2526351,4.65943 10,4.4396955 10,6.3930112 C 10,7.1591674 9.3145874,8.0490399 8.4768608,8.3705057 C 7.2342031,8.8473582 7.1486086,8.5908394 8.0120446,6.9774946 z M 13,7.6224447 C 13,7.4147893 13.615295,6.7342403 14.367321,6.1101135 C 15.416596,5.239293 16.056262,5.3852659 17.117321,6.7376688 C 18.372587,8.3376024 18.338739,8.3735301 16.75,7.1275553 C 15.60455,6.2292314 15,6.1428671 15,6.8775553 C 15,7.4948999 14.55,8 14,8 C 13.45,8 13,7.8301001 13,7.6224447 z M 5,6.6224447 C 5,6.4147893 5.6853015,5.6761397 6.5228922,4.9810012 C 7.7962391,3.9242171 7.9425703,3.9860844 7.4159034,5.3585565 C 6.8780067,6.7602928 5,7.7427785 5,6.6224447 z M 10.324657,3.3420093 C 10.686552,2.9801144 10.424052,1.9676144 9.7413241,1.0920093 C 8.6430186,-0.3165774 8.7016254,-0.34187443 10.25,0.87244472 C 12.25542,2.4452038 12.545412,4 10.833333,4 C 10.191667,4 9.9627625,3.7039042 10.324657,3.3420093 z "
       id="path1897" />
    <path
       style="fill:#136e2d"
       d="M 6,16 C 6,15.45 7.35,15 9,15 C 10.65,15 12,15.45 12,16 C 12,16.55 10.65,17 9,17 C 7.35,17 6,16.55 6,16 z M 3,14.559017 C 3,14.316476 3.45,13.839919 4,13.5 C 4.55,13.160081 5,13.358524 5,13.940983 C 5,14.523442 4.55,15 4,15 C 3.45,15 3,14.801558 3,14.559017 z M 0.035435416,13.44113 C 0.015945937,12.858751 0.64904752,11.508751 1.4423278,10.44113 C 2.8559489,8.5386344 2.9305854,8.5476615 5.1923278,10.894682 L 7.5,13.289364 L 5.0330871,11.6486 C 2.6801539,10.083644 2.5085284,10.111612 1.3185225,12.253918 C 0.63231407,13.489263 0.054924894,14.023508 0.035435416,13.44113 z M 15.333333,9 C 15.333333,6.2063492 15.484127,6.0555556 16.880952,7.452381 C 18.277778,8.8492063 18.277778,9.1507937 16.880952,10.547619 C 15.484127,11.944444 15.333333,11.793651 15.333333,9 z M 3.1538684,6.4879094 C 3.5785904,4.3418544 8,1.1337628 8,2.9716476 C 8,3.640223 7.1050613,4.421271 6.0112474,4.7073097 C 4.9174334,4.9933485 4.2497738,5.5951254 4.5275593,6.0445918 C 4.8053448,6.4940582 4.5320242,7.171191 3.9201803,7.5493313 C 3.2307115,7.9754465 2.9393434,7.5718713 3.1538684,6.4879094 z M 8.5588704,1.4681966 C 7.4912491,0.66068848 7.0986489,2.5446225e-17 7.6864256,-6.00648e-17 C 8.2742024,-1.4557583e-16 9.3153108,0.675 10,1.5 C 11.557204,3.3763163 11.067337,3.3655057 8.5588704,1.4681966 z "
       id="path1895" />
    <path
       style="fill:#0d7014"
       d="M 4,15.559017 C 4,15.316476 4.45,14.839919 5,14.5 C 5.55,14.160081 6,14.358524 6,14.940983 C 6,15.523442 5.55,16 5,16 C 4.45,16 4,15.801558 4,15.559017 z M 2.4302564,12.678847 C 1.6196606,10.566468 2.1272642,9.8425856 3.7261739,10.830766 C 4.4687804,11.289722 4.5689149,12.079476 4.0010086,12.998368 C 3.2502449,14.213129 2.9994379,14.16211 2.4302564,12.678847 z M 9,9 C 9,8.45 10.575,8 12.5,8 C 14.425,8 16,8.45 16,9 C 16,9.55 14.425,10 12.5,10 C 10.575,10 9,9.55 9,9 z M 8,2.940983 C 8,1.8085237 8.45,1.1600813 9,1.5 C 10.29836,2.3024307 10.29836,5 9,5 C 8.45,5 8,4.0734424 8,2.940983 z "
       id="path1893" />
  </g>
</svg>
