<?xml version="1.0" encoding="UTF-8" standalone="no"?>
<!-- Created with Inkscape (http://www.inkscape.org/) -->
<svg
   xmlns:dc="http://purl.org/dc/elements/1.1/"
   xmlns:cc="http://web.resource.org/cc/"
   xmlns:rdf="http://www.w3.org/1999/02/22-rdf-syntax-ns#"
   xmlns:svg="http://www.w3.org/2000/svg"
   xmlns="http://www.w3.org/2000/svg"
   xmlns:xlink="http://www.w3.org/1999/xlink"
   xmlns:sodipodi="http://sodipodi.sourceforge.net/DTD/sodipodi-0.dtd"
   xmlns:inkscape="http://www.inkscape.org/namespaces/inkscape"
   id="svg56"
   sodipodi:version="0.32"
   inkscape:version="0.44"
   width="20"
   height="20"
   version="1.0"
   sodipodi:docbase="/home/kde4/Developpements/C++/ksirk/ksirk/skins/default/Images"
   sodipodi:docname="moveOne.svg">
  <metadata
     id="metadata61">
    <rdf:RDF>
      <cc:Work
         rdf:about="">
        <dc:format>image/svg+xml</dc:format>
        <dc:type
           rdf:resource="http://purl.org/dc/dcmitype/StillImage" />
      </cc:Work>
    </rdf:RDF>
  </metadata>
  <defs
     id="defs59" />
  <sodipodi:namedview
     inkscape:window-height="582"
     inkscape:window-width="928"
     inkscape:pageshadow="2"
     inkscape:pageopacity="0.0"
     guidetolerance="10.0"
     gridtolerance="10.0"
     objecttolerance="10.0"
     borderopacity="1.0"
     bordercolor="#666666"
     pagecolor="#ffffff"
     id="base"
     inkscape:zoom="18.95"
     inkscape:cx="10"
     inkscape:cy="9.9736148"
     inkscape:window-x="666"
     inkscape:window-y="0"
     inkscape:current-layer="svg56" />
  <g
     id="g2008">
    <path
       style="fill:#a7c2cd"
       d="M 4.0789474,11.583333 C 4.0355263,10.529167 4.271875,9.9385417 4.6041667,10.270833 C 4.9364583,10.603125 4.9719846,11.465625 4.683114,12.1875 C 4.3638877,12.985233 4.1269313,12.748276 4.0789474,11.583333 z M 7,2.6224447 C 7,2.4147893 7.7875,1.6272893 8.75,0.87244472 C 10.336056,-0.37142595 10.371426,-0.33605562 9.1275553,1.25 C 7.8211855,2.915748 7,3.4454789 7,2.6224447 z "
       id="path2024" />
    <path
       style="fill:#a5b8c7"
       d="M 1.3875946,17.468792 C 0.47541334,16.076627 -0.031911837,14.698579 0.2602053,14.406461 C 0.55232244,14.114344 1.4787886,15.253388 2.319019,16.93767 C 4.1712313,20.650517 3.6624393,20.940644 1.3875946,17.468792 z M 5,19.031385 C 5,18.498646 5.675,18.321791 6.5,18.638374 C 8.42067,19.375404 8.42067,20 6.5,20 C 5.675,20 5,19.564123 5,19.031385 z M 4.5642929,15.293128 C 4.0216083,13.86793 4.1364719,13.753066 5.1240877,14.733333 C 5.8075061,15.411667 6.114759,16.218574 5.8068719,16.526461 C 5.4989848,16.834349 4.9398243,16.279349 4.5642929,15.293128 z M 2.7312131,11.919841 C 3.0848224,10.567637 3.5381148,10.114344 3.7877635,10.86329 C 4.0282436,11.584731 3.7495523,12.650448 3.1684496,13.23155 C 2.4263824,13.973618 2.2962385,13.583186 2.7312131,11.919841 z M 12.047183,9.2392897 C 9.8908884,7.4932285 9.8832083,7.4285714 11.832101,7.4285714 C 12.943685,7.4285714 13.658397,7.7437083 13.420351,8.1288755 C 13.182304,8.5140428 13.552843,9.0310071 14.243769,9.277685 C 14.934696,9.524363 15.226248,10.024049 14.891663,10.388099 C 14.557077,10.752149 13.277061,10.235185 12.047183,9.2392897 z M 15,7.6069888 C 15,7.3908326 15.698372,6.9459871 16.551938,6.6184432 C 17.441863,6.2769469 17.84326,6.4445943 17.492921,7.0114544 C 16.905663,7.9616577 15,8.4169019 15,7.6069888 z M 10.756231,4.3356424 C 11.447157,4.0570879 11.715129,3.3480854 11.351722,2.7600813 C 10.961186,2.1281809 11.163109,1.9827727 11.845492,2.4045085 C 13.590382,3.4829102 13.228948,5.0103285 11.25,4.9210526 C 10.194252,4.8734249 9.9983663,4.6411835 10.756231,4.3356424 z M 16.542705,4.0690983 C 16.226274,3.5571024 16.349717,2.9018973 16.817021,2.613087 C 17.284326,2.3242767 17.666667,2.7431824 17.666667,3.5439887 C 17.666667,5.2301561 17.35133,5.3774802 16.542705,4.0690983 z "
       id="path2022" />
    <path
       style="fill:#9ab7c6"
       d="M 13.291557,18.25 C 12.936436,17.2875 12.237829,16.225124 11.739096,15.889163 C 11.240363,15.553203 11.545039,15.004827 12.416154,14.670548 C 13.471311,14.265647 14,14.619755 14,15.731385 C 14,17.01614 14.272222,17.127778 15.183333,16.216667 C 16.545901,14.854099 15.96512,13.997864 13.341631,13.501476 C 12.328734,13.309827 11.360942,13.118592 11.190983,13.076511 C 11.021024,13.03443 11.160833,12.548783 11.501671,11.997296 C 11.913777,11.330495 12.771041,11.342281 14.060688,12.032479 C 15.652311,12.88429 16,12.741347 16,11.235184 C 16,10.225833 15.55799,8.95799 15.017756,8.4177556 C 14.374763,7.7747631 14.979186,7.4755854 16.767756,7.5515391 C 19.401881,7.6634003 19.510691,7.8890049 19.797717,13.833784 L 20.095435,20 L 17.016333,20 C 14.996492,20 13.715108,19.397971 13.291557,18.25 z M 7,17.833333 C 7,16.753329 8.729515,16.753329 9.3969943,17.833333 C 9.6802599,18.291667 9.2568176,18.666667 8.4560113,18.666667 C 7.6552051,18.666667 7,18.291667 7,17.833333 z M 0,13.166667 C 0,12.708333 0.6552051,12.333333 1.4560113,12.333333 C 2.2568176,12.333333 2.6802599,12.708333 2.3969943,13.166667 C 1.729515,14.246671 0,14.246671 0,13.166667 z M 1.2237936,9.8237936 C 0.36487214,8.9648721 0.34395139,8.2904902 1.1462383,7.3237936 C 1.7504964,6.5957071 1.8374296,6 1.339423,6 C 0.84141654,6 0.48606407,4.7625 0.5497509,3.25 C 0.63438011,1.240139 1.2488359,0.4139956 2.8327726,0.18044905 C 4.0247477,0.0046960227 5,0.36875367 5,0.98946604 C 5,1.6101784 4.6011606,1.8715377 4.1136901,1.5702644 C 2.9279335,0.83742649 2.1543741,4.0726726 2.6000742,7.9006372 C 3.0026874,11.358543 2.9008485,11.500848 1.2237936,9.8237936 z M 12.203671,6.0454784 C 12.875012,4.9704915 13.564417,4.2310839 13.735684,4.4023503 C 14.328454,4.9951205 12.782313,8 11.884537,8 C 11.388721,8 11.532331,7.1204653 12.203671,6.0454784 z M 15,5.059017 C 15,4.4765576 15.45,4 16,4 C 17.281385,4 17.281385,4.7080605 16,5.5 C 15.45,5.8399187 15,5.6414763 15,5.059017 z M 6,1.5634642 C 6,0.92355889 7.1325,0.4 8.5166667,0.4 C 9.9008333,0.4 10.876061,0.8725 10.683839,1.45 C 10.201449,2.8992644 6,3.0010429 6,1.5634642 z M 14.518119,2.0293168 C 13.850664,0.94935266 18.73268,-0.60065293 19.713237,0.37990358 C 20.05429,0.72095661 19.583333,1 18.666667,1 C 17.75,1 17,1.45 17,2 C 17,3.2797228 15.303299,3.2997648 14.518119,2.0293168 z "
       id="path2020" />
    <path
       style="fill:#a5b5bc"
       d="M 0.27083333,19.395833 C 0.603125,19.063542 1.465625,19.028015 2.1875,19.316886 C 2.9852327,19.636112 2.7482763,19.873069 1.5833333,19.921053 C 0.52916667,19.964474 -0.061458333,19.728125 0.27083333,19.395833 z M 8.5396391,8.6526433 C 7.1009523,7.6006498 6.9833159,7.1283453 8.003018,6.4981348 C 8.8662405,5.9646339 9.0671085,6.0823992 8.5954915,6.8454915 C 8.1772768,7.5221771 8.5027795,8 9.381966,8 C 10.206966,8 11.160081,8.45 11.5,9 C 12.384567,10.431259 10.702054,10.23384 8.5396391,8.6526433 z M 5.4512483,3.9211181 C 5.1978224,3.5110664 5.6545924,3.2730415 6.4662926,3.3921738 C 8.5558856,3.6988609 9.3074437,4.6666667 7.4560113,4.6666667 C 6.6068176,4.6666667 5.7046742,4.3311698 5.4512483,3.9211181 z "
       id="path2018" />
    <path
       style="fill:#98b4bb"
       d="M 2,15 C 2,14.45 2.45,14 3,14 C 3.55,14 4,14.45 4,15 C 4,15.55 3.55,16 3,16 C 2.45,16 2,15.55 2,15 z M 11.603006,14.166667 C 11.31974,13.708333 11.723388,13.333333 12.5,13.333333 C 13.276612,13.333333 13.68026,13.708333 13.396994,14.166667 C 12.745454,15.220881 12.254546,15.220881 11.603006,14.166667 z M 8.5,7 C 8.8399187,6.45 9.8789763,6.0068907 10.809017,6.0153128 C 12.266292,6.0285092 12.292687,6.1646013 11,7 C 9.0416276,8.2655974 7.7178178,8.2655974 8.5,7 z M 2.5,6 C 2.1600813,5.45 2.3585237,5 2.940983,5 C 3.5234424,5 4,5.45 4,6 C 4,7.281385 3.2919395,7.281385 2.5,6 z M 3,2.559017 C 3,0.80249089 3.600055,0.54385845 4.4572949,1.9309017 C 4.7737258,2.4428976 4.5752834,3.1444553 4.0163119,3.4899187 C 3.4573404,3.8353821 3,3.4164763 3,2.559017 z M 13.5,3 C 13.160081,2.45 13.331966,2 13.881966,2 C 14.431966,2 15.160081,2.45 15.5,3 C 15.839919,3.55 15.668034,4 15.118034,4 C 14.568034,4 13.839919,3.55 13.5,3 z "
       id="path2016" />
    <path
       style="fill:#a4abb6"
       d="M 8,13 C 8.825,12.466844 9.95,12.030626 10.5,12.030626 C 11.05,12.030626 10.825,12.466844 10,13 C 9.175,13.533156 8.05,13.969374 7.5,13.969374 C 6.95,13.969374 7.175,13.533156 8,13 z M 7,10 C 7,9.45 7.7015576,9 8.559017,9 C 9.4164763,9 9.8399187,9.45 9.5,10 C 8.7003212,11.293907 7,11.293907 7,10 z M 4.0789474,8.5833333 C 4.0355263,7.5291667 4.271875,6.9385417 4.6041667,7.2708333 C 4.9364583,7.603125 4.9719846,8.465625 4.683114,9.1875 C 4.3638877,9.9852327 4.1269313,9.7482763 4.0789474,8.5833333 z M 4,5.1069888 C 4,4.6158326 4.7386496,3.9305312 5.6414435,3.5840966 C 7.0139156,3.0574297 7.0757829,3.2037609 6.0189988,4.4771078 C 4.5788732,6.212353 4,6.3929481 4,5.1069888 z "
       id="path2014" />
    <path
       style="fill:#98acb9"
       d="M 1,18.622445 C 1,18.414789 1.7875,17.627289 2.75,16.872445 C 4.3360556,15.628574 4.3714259,15.663944 3.1275553,17.25 C 1.8211855,18.915748 1,19.445479 1,18.622445 z M 10,18.031385 C 10,17.498646 10.675,17.321791 11.5,17.638374 C 13.42067,18.375404 13.42067,19 11.5,19 C 10.675,19 10,18.564123 10,18.031385 z "
       id="path2012" />
    <path
       style="fill:#010514"
       d="M 5.791444,18.309841 C 5.5711375,17.864428 5.2651412,14.750149 5.1114523,11.389219 C 4.8906239,6.5600543 5.164229,5.150957 6.416009,4.670604 C 7.4182115,4.2860228 8,4.6021814 8,5.5313848 C 8,6.3391232 7.55,7 7,7 C 6.45,7 6,7.4765576 6,8.059017 C 6,8.6414763 6.4448455,8.8431043 6.9885456,8.5070792 C 7.5485419,8.1609825 7.7269915,8.5478739 7.4001798,9.3995314 C 6.9332351,10.61637 7.5549098,10.822865 10.661634,10.482853 C 12.772735,10.251807 13.6,10.327741 12.5,10.651596 C 11.4,10.975451 9.6941535,11.804046 8.7092299,12.492918 C 7.0137496,13.678767 7.0270525,13.773812 8.9592299,14.279087 C 10.081653,14.572608 11,15.331447 11,15.965397 C 11,16.599348 10.481733,16.797728 9.8482961,16.406242 C 9.214859,16.014756 8.1330593,16.465127 7.4442968,17.407066 C 6.7555343,18.349005 6.0117506,18.755253 5.791444,18.309841 z M 17.566212,6.8928661 C 18.012748,6.1703571 17.598993,5.9911502 16.375229,6.3770234 C 15.343853,6.7022335 13.15,6.5249448 11.5,5.9830484 L 8.5,4.9977822 L 11.739062,5.4717035 C 15.665002,6.046125 18.235285,5.2022651 17.302298,3.6452152 C 16.92488,3.0153468 17.383013,3.1222054 18.320373,3.8826787 C 19.625517,4.9415331 19.758897,5.5855849 18.889886,6.6326787 C 17.529667,8.2716435 16.6013,8.4541274 17.566212,6.8928661 z "
       id="path2010" />
  </g>
</svg>
