<?xml version="1.0" encoding="UTF-8" standalone="no"?>
<!-- Created with Inkscape (http://www.inkscape.org/) -->
<svg
   xmlns:dc="http://purl.org/dc/elements/1.1/"
   xmlns:cc="http://web.resource.org/cc/"
   xmlns:rdf="http://www.w3.org/1999/02/22-rdf-syntax-ns#"
   xmlns:svg="http://www.w3.org/2000/svg"
   xmlns="http://www.w3.org/2000/svg"
   xmlns:xlink="http://www.w3.org/1999/xlink"
   xmlns:sodipodi="http://sodipodi.sourceforge.net/DTD/sodipodi-0.dtd"
   xmlns:inkscape="http://www.inkscape.org/namespaces/inkscape"
   id="svg20"
   sodipodi:version="0.32"
   inkscape:version="0.44"
   width="20"
   height="20"
   version="1.0"
   sodipodi:docbase="/home/kde4/Developpements/C++/ksirk/ksirk/skins/default/Images"
   sodipodi:docname="reddice3.svg">
  <metadata
     id="metadata25">
    <rdf:RDF>
      <cc:Work
         rdf:about="">
        <dc:format>image/svg+xml</dc:format>
        <dc:type
           rdf:resource="http://purl.org/dc/dcmitype/StillImage" />
      </cc:Work>
    </rdf:RDF>
  </metadata>
  <defs
     id="defs23" />
  <sodipodi:namedview
     inkscape:window-height="582"
     inkscape:window-width="928"
     inkscape:pageshadow="2"
     inkscape:pageopacity="0.0"
     guidetolerance="10.0"
     gridtolerance="10.0"
     objecttolerance="10.0"
     borderopacity="1.0"
     bordercolor="#666666"
     pagecolor="#ffffff"
     id="base"
     inkscape:zoom="18.95"
     inkscape:cx="10"
     inkscape:cy="9.9736148"
     inkscape:window-x="666"
     inkscape:window-y="0"
     inkscape:current-layer="svg20" />
  <g
     id="g1972">
    <path
       style="fill:#fefdfd"
       d="M 0.067680281,17.25 C 0.1341433,14.54946 0.15487727,14.540467 1.2204946,16.75 C 2.5233017,19.45134 6.7443053,19.709864 14.75,17.578644 C 19.738337,16.250683 20,16.276195 20,18.090512 C 20,19.84253 19.175329,20 10,20 L 0,20 L 0.067680281,17.25 z M 18.081457,7 L 16.750361,1 L 13.034111,1 C 10.990174,1 7.2213429,1.6309594 4.6589309,2.4021321 C 0.25514525,3.7274767 3.2563396e-16,3.7000943 1.6740082e-16,1.9021321 C 1.4031073e-17,0.15943145 0.83817233,0 10,0 L 20,0 L 20,6.5 C 20,10.075 19.867824,13 19.706276,13 C 19.544728,13 18.813559,10.3 18.081457,7 z "
       id="path1988" />
    <path
       style="fill:#f5e9e9"
       d="M 18.731213,14.919841 C 19.084822,13.567637 19.538115,13.114344 19.787763,13.86329 C 20.028244,14.584731 19.749552,15.650448 19.16845,16.23155 C 18.426382,16.973618 18.296239,16.583186 18.731213,14.919841 z "
       id="path1986" />
    <path
       style="fill:#ebd0d0"
       d="M 7.2708333,18.395833 C 7.603125,18.063542 8.465625,18.028015 9.1875,18.316886 C 9.9852327,18.636112 9.7482763,18.873069 8.5833333,18.921053 C 7.5291667,18.964474 6.9385417,18.728125 7.2708333,18.395833 z M 12.542705,13.069098 C 12.226274,12.557102 12.349717,11.901897 12.817021,11.613087 C 13.284326,11.324277 13.666667,11.743182 13.666667,12.543989 C 13.666667,14.230156 13.35133,14.37748 12.542705,13.069098 z M 18.078947,11.583333 C 18.035526,10.529167 18.271875,9.9385417 18.604167,10.270833 C 18.936458,10.603125 18.971985,11.465625 18.683114,12.1875 C 18.363888,12.985233 18.126931,12.748276 18.078947,11.583333 z M 15.564293,2.2931281 C 15.021608,0.86792962 15.136472,0.75306606 16.124088,1.7333333 C 16.807506,2.4116667 17.114759,3.2185743 16.806872,3.5264614 C 16.498985,3.8343485 15.939824,3.2793485 15.564293,2.2931281 z "
       id="path1984" />
    <path
       style="fill:#d38f8f"
       d="M 2.8724447,17.25 C 1.6798303,15.729301 1.6965437,15.646193 3,16.615727 C 3.825,17.229377 5.175,17.981351 6,18.28678 C 7.2547492,18.751309 7.2338938,18.855013 5.8724447,18.921053 C 4.9772893,18.964474 3.6272893,18.2125 2.8724447,17.25 z M 18.078947,14.583333 C 18.035526,13.529167 18.271875,12.938542 18.604167,13.270833 C 18.936458,13.603125 18.971985,14.465625 18.683114,15.1875 C 18.363888,15.985233 18.126931,15.748276 18.078947,14.583333 z M 0.078947368,10.583333 C 0.035526316,9.5291667 0.271875,8.9385417 0.60416667,9.2708333 C 0.93645833,9.603125 0.97198465,10.465625 0.68311404,11.1875 C 0.36388767,11.985233 0.12693129,11.748276 0.078947368,10.583333 z M 2,4 C 2.825,3.4668441 3.95,3.0306255 4.5,3.0306255 C 5.05,3.0306255 4.825,3.4668441 4,4 C 3.175,4.5331559 2.05,4.9693745 1.5,4.9693745 C 0.95,4.9693745 1.175,4.5331559 2,4 z M 11.75,1.3377193 C 12.4375,1.060307 13.5625,1.060307 14.25,1.3377193 C 14.9375,1.6151316 14.375,1.8421053 13,1.8421053 C 11.625,1.8421053 11.0625,1.6151316 11.75,1.3377193 z "
       id="path1982" />
    <path
       style="fill:#c86f71"
       d="M 2.8724447,16.25 C 1.6285741,14.663944 1.6639444,14.628574 3.25,15.872445 C 4.2125,16.627289 5,17.414789 5,17.622445 C 5,18.445479 4.1788145,17.915748 2.8724447,16.25 z M 2.4588815,9.9334688 C 1.4328182,8.2732636 2.3537685,8.0430445 3.7894266,9.6008592 C 4.4986112,10.370387 4.6376688,11 4.0984436,11 C 3.5592183,11 2.8214154,10.520061 2.4588815,9.9334688 z M 0.15789474,7 C 0.15789474,5.625 0.38486842,5.0625 0.6622807,5.75 C 0.93969298,6.4375 0.93969298,7.5625 0.6622807,8.25 C 0.38486842,8.9375 0.15789474,8.375 0.15789474,7 z "
       id="path1980" />
    <path
       style="fill:#b9484b"
       d="M 3.4049876,15.75 C 1.5153616,13.518144 1.5161278,13.513377 3.5,15.158825 C 4.6,16.071179 6.625,17.022397 8,17.272643 L 10.5,17.727636 L 7.9049876,17.863818 C 6.3212548,17.94693 4.567599,17.123172 3.4049876,15.75 z M 15.285733,14.75 C 16.50358,13.5125 17.67442,12.91076 17.8876,13.4128 C 18.10078,13.91484 17.452272,14.92734 16.44647,15.6628 C 13.557721,17.775105 12.853598,17.221385 15.285733,14.75 z M 5.6383736,9.5 C 6.3754039,7.57933 7,7.57933 7,9.5 C 7,10.325 6.5641232,11 6.0313848,11 C 5.4986464,11 5.3217914,10.325 5.6383736,9.5 z M 1.4588815,6.9334688 C 0.64681891,5.619524 0.86509933,5.4175784 4,4.5825125 L 6.5,3.9165696 L 4.218636,5.2602541 C 2.9638857,5.9992806 2.2513857,6.9180524 2.6353026,7.3019693 C 3.0192195,7.6858862 3.059891,8 2.7256837,8 C 2.3914763,8 1.8214154,7.520061 1.4588815,6.9334688 z M 15.078947,5.3666314 C 15.035526,4.7432786 13.9875,3.9080799 12.75,3.5106342 C 10.736641,2.8640072 10.695225,2.7367038 12.35622,2.3002227 C 14.583031,1.7150543 16.433268,3.3029187 15.691447,5.1625 C 15.388992,5.9206905 15.1237,6.0091056 15.078947,5.3666314 z "
       id="path1978" />
    <path
       style="fill:#a82733"
       d="M 3.4944517,14.993869 C 0.93815281,12.169191 2.0261545,11.906584 4.7142666,14.699447 C 5.9321132,15.964751 6.5643576,17 6.1192542,17 C 5.6741507,17 4.4929896,16.097241 3.4944517,14.993869 z M 10.270833,16.395833 C 10.603125,16.063542 11.465625,16.028015 12.1875,16.316886 C 12.985233,16.636112 12.748276,16.873069 11.583333,16.921053 C 10.529167,16.964474 9.9385417,16.728125 10.270833,16.395833 z M 12.966462,14.9011 C 11.771582,14.098929 11.848588,13.970626 13.382271,14.208302 C 14.713139,14.414548 15.37889,13.785424 15.654882,12.060722 C 16.198914,8.6610113 17,8.1548924 17,11.210889 C 17,14.413759 14.985642,16.256658 12.966462,14.9011 z M 1,9.0351838 C 1,7.9545348 1.8433599,6.619015 2.8741332,6.0673619 C 4.3465918,5.2793259 5.1446258,5.539692 6.5975997,7.2821781 C 7.614733,8.5019801 7.806373,8.9375 7.0234665,8.25 C 6.2405599,7.5625 4.7375159,7 3.6833686,7 C 2.2590667,7 1.9010845,7.5137445 2.289749,9 C 2.5774055,10.1 2.4048896,11 1.9063804,11 C 1.4078712,11 1,10.115833 1,9.0351838 z M 11.270833,10.395833 C 11.603125,10.063542 12.465625,10.028015 13.1875,10.316886 C 13.985233,10.636112 13.748276,10.873069 12.583333,10.921053 C 11.529167,10.964474 10.938542,10.728125 11.270833,10.395833 z M 14.203671,5.9545216 C 13.532331,4.8795347 13.388721,4 13.884537,4 C 14.782313,4 16.328454,7.0048795 15.735684,7.5976497 C 15.564417,7.7689161 14.875012,7.0295085 14.203671,5.9545216 z M 7.5,4 C 8.6,3.5273138 10.175,3.1405705 11,3.1405705 C 11.945479,3.1405705 11.760639,3.4582849 10.5,4 C 9.4,4.4726862 7.825,4.8594295 7,4.8594295 C 6.0545209,4.8594295 6.2393612,4.5417151 7.5,4 z "
       id="path1976" />
    <path
       style="fill:#a51627"
       d="M 5.7622633,15.939598 C 4.8065082,15.375709 3.5462576,14.020692 2.9617065,12.928448 C 1.9943393,11.120906 2.1504074,10.995977 4.6994431,11.537435 C 6.2397494,11.864622 8.175,12.215049 9,12.31616 C 9.825,12.417272 11.013804,13.158014 11.641787,13.962253 C 12.626441,15.22327 13.039304,15.230807 14.641787,14.017022 C 16.326437,12.741 16.359895,12.758495 15,14.204328 C 13.041803,16.286271 7.9659382,17.239752 5.7622633,15.939598 z M 11.145767,9.4902474 C 4.6773083,6.075379 4.3119349,5.3516636 8.6458928,4.5386082 C 11.846839,3.9381071 12.719832,4.1707323 14.220589,6.0240882 C 15.633085,7.7684466 16.826404,12.348807 15.75,11.89448 C 15.6125,11.836445 13.540595,10.75454 11.145767,9.4902474 z "
       id="path1974" />
  </g>
</svg>
